<svg width="140" height="64" viewBox="0 0 140 64" fill="none" xmlns="http://www.w3.org/2000/svg">
<path d="M50.5609 33.5494H54.9984C55.6223 33.5494 56.1279 34.0604 56.1279 34.6843C56.1279 35.3137 55.6223 35.8193 54.9984 35.8193H49.6465C49.5604 35.8193 49.4797 35.8515 49.4206 35.9053L47.8069 37.2984C47.5595 37.5136 47.7101 37.917 48.0328 37.917H54.7294C54.7294 37.917 54.7348 37.917 54.7348 37.9116C54.7348 37.9062 54.7402 37.9062 54.7402 37.9062C54.8262 37.9116 54.9069 37.917 54.993 37.917C56.768 37.917 58.2095 36.4701 58.2095 34.6843C58.2095 32.99 56.9132 31.5969 55.2565 31.4625C55.2565 31.4625 55.2512 31.4625 55.2512 31.4571C55.2512 31.4517 55.2512 31.4517 55.2458 31.4517H50.4694C49.8455 31.4517 49.3399 30.9407 49.3399 30.3168C49.3399 29.6875 49.8455 29.1819 50.4694 29.1819H55.8106C55.8966 29.1819 55.9827 29.1496 56.0472 29.0904L57.5479 27.6973C57.7846 27.4768 57.6286 27.0841 57.3112 27.0841H50.5609C50.534 27.0841 50.5017 27.0841 50.4748 27.0841C48.6998 27.0841 47.2583 28.531 47.2583 30.3168C47.2583 32.1025 48.6998 33.5494 50.4748 33.5494C50.5017 33.5494 50.5286 33.5494 50.5609 33.5494Z" fill="black"/>
<path d="M76.3898 27.0782C76.1962 27.0782 76.0402 27.2342 76.0402 27.4332V37.5669C76.0402 37.7605 76.1962 37.9219 76.3898 37.9219H84.5118C84.6086 37.9219 84.7 37.8788 84.7699 37.8089L85.7865 36.717C85.9963 36.4911 85.8403 36.12 85.5284 36.12H78.4391C78.2455 36.12 78.0895 35.964 78.0895 35.765V27.4279C78.0895 27.2342 77.9335 27.0729 77.7399 27.0729H76.3898V27.0782Z" fill="black"/>
<path fill-rule="evenodd" clip-rule="evenodd" d="M63.3837 27.0785C63.3837 27.0839 63.3837 27.0839 63.3837 27.0785C62.3456 27.1269 61.5119 27.9606 61.4635 28.9987V35.8136C61.4635 35.8405 61.4635 35.8728 61.4635 35.8997C61.4635 36.9808 62.3133 37.863 63.3837 37.906H70.7526C71.8176 37.8576 72.6729 36.9755 72.6729 35.8997C72.6729 35.8728 72.6729 35.8405 72.6729 35.8136V29.0041C72.6298 27.966 71.7961 27.1269 70.758 27.0839H63.3837V27.0785ZM64.7607 29.0041C64.7553 29.0041 64.7553 29.0041 64.7607 29.0041C64.1098 29.031 63.5881 29.5581 63.5612 30.2143V34.5012C63.5612 34.5174 63.5612 34.5389 63.5612 34.555C63.5612 35.2327 64.0937 35.7921 64.7607 35.819H69.381C70.048 35.7921 70.5805 35.2327 70.5805 34.555C70.5805 34.5389 70.5805 34.5174 70.5805 34.5012V30.2143C70.5536 29.5581 70.0319 29.0364 69.381 29.0041H64.7607Z" fill="black"/>
<path fill-rule="evenodd" clip-rule="evenodd" d="M97.592 37.5648C97.592 37.7584 97.748 37.9198 97.9416 37.9198H99.3186C99.5122 37.9198 99.6682 37.7638 99.6682 37.5648V29.1793C99.6682 29.1524 99.6682 29.1201 99.6682 29.0932C99.6682 28.0121 98.8238 27.13 97.7695 27.0869H90.6964C90.6695 27.0869 90.6372 27.0869 90.6103 27.0869C89.5131 27.0869 88.6256 27.9852 88.6256 29.0986C88.6256 29.1255 88.6256 29.1578 88.6256 29.1847V37.5702C88.6256 37.7638 88.7816 37.9252 88.9752 37.9252H90.3522C90.5458 37.9252 90.7018 37.7692 90.7018 37.5702V34.0794C90.7018 33.8857 90.8578 33.7244 91.0514 33.7244H97.2585C97.4522 33.7244 97.6082 33.8803 97.6082 34.0794V37.5648H97.592ZM90.691 31.7934V30.0507C90.691 29.3729 91.2343 28.8243 91.9013 28.8243H96.3872C97.0541 28.8243 97.5974 29.3729 97.5974 30.0507V31.7934C97.5974 31.987 97.4414 32.1484 97.2478 32.1484H91.0407C90.847 32.1484 90.691 31.9924 90.691 31.7934Z" fill="black"/>
<path fill-rule="evenodd" clip-rule="evenodd" d="M126.666 37.9224C126.472 37.9224 126.316 37.7664 126.316 37.5674V34.0765C126.316 33.8829 126.16 33.7215 125.966 33.7215H119.689C119.496 33.7215 119.34 33.8775 119.34 34.0765V37.5674C119.34 37.761 119.184 37.9224 118.99 37.9224H117.602C117.409 37.9224 117.253 37.7664 117.253 37.5674V29.1819C117.253 29.155 117.253 29.1227 117.253 29.0958C117.253 27.9878 118.151 27.0841 119.259 27.0841C119.286 27.0841 119.318 27.0841 119.345 27.0841H126.493C127.558 27.1325 128.414 28.0147 128.414 29.0904C128.414 29.1173 128.414 29.1496 128.414 29.1765V37.562C128.414 37.7556 128.258 37.917 128.064 37.917H126.666V37.9224ZM119.34 30.0532V31.7959C119.34 31.9896 119.496 32.1509 119.689 32.1509H125.966C126.16 32.1509 126.316 31.995 126.316 31.7959V30.0532C126.316 29.3755 125.767 28.8269 125.095 28.8269H120.561C119.883 28.8269 119.34 29.3755 119.34 30.0532Z" fill="black"/>
<path d="M104.855 27.0785C104.957 27.0785 105.054 27.1215 105.118 27.2022L111.293 34.5658C111.503 34.8132 111.906 34.6626 111.906 34.3345V27.4335C111.906 27.2399 112.062 27.0785 112.256 27.0785H113.633C113.826 27.0785 113.982 27.2345 113.982 27.4335V37.5671C113.982 37.7608 113.826 37.9221 113.633 37.9221H111.922C111.917 37.9221 111.912 37.9167 111.912 37.9114C111.912 37.906 111.912 37.906 111.906 37.9006L105.624 30.5908C105.414 30.3434 105.011 30.4994 105.011 30.8221V37.5725C105.011 37.7661 104.855 37.9275 104.661 37.9275H103.273C103.08 37.9275 102.924 37.7715 102.924 37.5725V27.4335C102.924 27.2399 103.08 27.0785 103.273 27.0785H104.855Z" fill="black"/>
<path d="M15.2389 38.2933C15.411 38.1212 15.6423 38.0244 15.8843 38.0244H38.287C38.6957 38.0244 38.9001 38.5192 38.6097 38.8043L34.1829 43.2311C34.0108 43.4032 33.7795 43.5 33.5375 43.5H11.1349C10.7261 43.5 10.5217 43.0052 10.8121 42.7201L15.2389 38.2933Z" fill="black"/>
<path d="M15.2389 21.7689C15.411 21.5968 15.6423 21.5 15.8843 21.5H38.287C38.6957 21.5 38.9001 21.9948 38.6097 22.2799L34.1829 26.7013C34.0108 26.8734 33.7795 26.9702 33.5375 26.9702H11.1349C10.7261 26.9702 10.5217 26.4754 10.8121 26.1903L15.2389 21.7689Z" fill="black"/>
<path d="M34.1829 29.9763C34.0108 29.8041 33.7795 29.7073 33.5375 29.7073H11.1349C10.7261 29.7073 10.5217 30.2022 10.8121 30.4872L15.2389 34.9086C15.411 35.0807 15.6423 35.1775 15.8843 35.1775H38.287C38.6957 35.1775 38.9001 34.6827 38.6097 34.3976L34.1829 29.9763Z" fill="black"/>
</svg>
