<svg width="194" height="37" viewBox="0 0 194 37" fill="none" xmlns="http://www.w3.org/2000/svg">
<path d="M65.7763 20.4321H73.0376C74.0586 20.4321 74.886 21.2682 74.886 22.2892C74.886 23.319 74.0586 24.1464 73.0376 24.1464H64.28C64.1392 24.1464 64.0071 24.1992 63.9103 24.2872L61.2698 26.5668C60.8649 26.9189 61.1114 27.579 61.6395 27.579H72.5975C72.5975 27.579 72.6063 27.579 72.6063 27.5702C72.6063 27.5614 72.6151 27.5614 72.6151 27.5614C72.756 27.5702 72.888 27.579 73.0288 27.579C75.9334 27.579 78.2922 25.2114 78.2922 22.2892C78.2922 19.5167 76.171 17.2371 73.4601 17.017C73.4601 17.017 73.4513 17.017 73.4513 17.0082C73.4513 16.9994 73.4513 16.9994 73.4425 16.9994H65.6266C64.6056 16.9994 63.7783 16.1633 63.7783 15.1423C63.7783 14.1125 64.6056 13.2851 65.6266 13.2851H74.3667C74.5075 13.2851 74.6483 13.2323 74.7539 13.1355L77.2096 10.8559C77.5969 10.495 77.3416 9.85251 76.8223 9.85251H65.7763C65.7322 9.85251 65.6794 9.85251 65.6354 9.85251C62.7309 9.85251 60.3721 12.2201 60.3721 15.1423C60.3721 18.0644 62.7309 20.4321 65.6354 20.4321C65.6794 20.4321 65.7234 20.4321 65.7763 20.4321Z" fill="black"/>
<path d="M108.042 9.84289C107.725 9.84289 107.47 10.0981 107.47 10.4238V27.0061C107.47 27.3229 107.725 27.587 108.042 27.587H121.332C121.491 27.587 121.64 27.5166 121.755 27.4022L123.418 25.6154C123.762 25.2458 123.506 24.6384 122.996 24.6384H111.395C111.078 24.6384 110.823 24.3832 110.823 24.0575V10.415C110.823 10.0981 110.568 9.83408 110.251 9.83408H108.042V9.84289Z" fill="black"/>
<path fill-rule="evenodd" clip-rule="evenodd" d="M86.7591 9.8433C86.7591 9.8521 86.7591 9.8521 86.7591 9.8433C85.0604 9.92251 83.6961 11.2868 83.6169 12.9855V24.1372C83.6169 24.1812 83.6169 24.234 83.6169 24.278C83.6169 26.0471 85.0076 27.4906 86.7591 27.561H98.8173C100.56 27.4818 101.96 26.0383 101.96 24.278C101.96 24.234 101.96 24.1812 101.96 24.1372V12.9943C101.889 11.2956 100.525 9.92251 98.8261 9.8521H86.7591V9.8433ZM89.0123 12.9943C89.0035 12.9943 89.0035 12.9943 89.0123 12.9943C87.9473 13.0383 87.0936 13.9009 87.0495 14.9747V21.9896C87.0495 22.016 87.0495 22.0512 87.0495 22.0776C87.0495 23.1866 87.9209 24.102 89.0123 24.146H96.5729C97.6643 24.102 98.5357 23.1866 98.5357 22.0776C98.5357 22.0512 98.5357 22.016 98.5357 21.9896V14.9747C98.4917 13.9009 97.6379 13.0471 96.5729 12.9943H89.0123Z" fill="black"/>
<path fill-rule="evenodd" clip-rule="evenodd" d="M142.736 27.0027C142.736 27.3196 142.992 27.5836 143.308 27.5836H145.562C145.879 27.5836 146.134 27.3284 146.134 27.0027V13.281C146.134 13.2369 146.134 13.1841 146.134 13.1401C146.134 11.371 144.752 9.92753 143.027 9.85711H131.453C131.409 9.85711 131.356 9.85711 131.312 9.85711C129.516 9.85711 128.064 11.327 128.064 13.1489C128.064 13.1929 128.064 13.2457 128.064 13.2898V27.0115C128.064 27.3284 128.319 27.5924 128.636 27.5924H130.889C131.206 27.5924 131.461 27.3372 131.461 27.0115V21.2992C131.461 20.9824 131.717 20.7183 132.034 20.7183H142.191C142.507 20.7183 142.763 20.9736 142.763 21.2992V27.0027H142.736ZM131.444 17.5585V14.7068C131.444 13.5978 132.333 12.7 133.424 12.7H140.765C141.856 12.7 142.745 13.5978 142.745 14.7068V17.5585C142.745 17.8754 142.49 18.1395 142.173 18.1395H132.016C131.699 18.1395 131.444 17.8842 131.444 17.5585Z" fill="black"/>
<path fill-rule="evenodd" clip-rule="evenodd" d="M190.311 27.5878C189.994 27.5878 189.739 27.3326 189.739 27.0069V21.2946C189.739 20.9778 189.484 20.7137 189.167 20.7137H178.895C178.579 20.7137 178.323 20.969 178.323 21.2946V27.0069C178.323 27.3238 178.068 27.5878 177.751 27.5878H175.48C175.164 27.5878 174.908 27.3326 174.908 27.0069V13.2851C174.908 13.2411 174.908 13.1883 174.908 13.1443C174.908 11.3312 176.378 9.85251 178.191 9.85251C178.235 9.85251 178.288 9.85251 178.332 9.85251H190.03C191.772 9.93172 193.172 11.3752 193.172 13.1355C193.172 13.1795 193.172 13.2323 193.172 13.2763V26.9981C193.172 27.315 192.916 27.579 192.6 27.579H190.311V27.5878ZM178.323 14.711V17.5627C178.323 17.8796 178.579 18.1437 178.895 18.1437H189.167C189.484 18.1437 189.739 17.8884 189.739 17.5627V14.711C189.739 13.602 188.841 12.7042 187.741 12.7042H180.321C179.212 12.7042 178.323 13.602 178.323 14.711Z" fill="black"/>
<path d="M154.621 9.8433C154.788 9.8433 154.946 9.91371 155.052 10.0457L165.156 22.0952C165.499 22.5001 166.16 22.2536 166.16 21.7167V10.4242C166.16 10.1073 166.415 9.8433 166.732 9.8433H168.985C169.302 9.8433 169.557 10.0985 169.557 10.4242V27.0065C169.557 27.3234 169.302 27.5874 168.985 27.5874H166.186C166.177 27.5874 166.168 27.5786 166.168 27.5698C166.168 27.561 166.168 27.561 166.16 27.5522L155.879 15.5908C155.536 15.1859 154.876 15.4411 154.876 15.9692V27.0153C154.876 27.3322 154.621 27.5962 154.304 27.5962H152.033C151.716 27.5962 151.461 27.341 151.461 27.0153V10.4242C151.461 10.1073 151.716 9.8433 152.033 9.8433H154.621Z" fill="black"/>
<path d="M7.97665 28.1949C8.2583 27.9132 8.63677 27.7548 9.03285 27.7548H45.6917C46.3606 27.7548 46.6951 28.5645 46.2198 29.031L38.976 36.2748C38.6944 36.5564 38.3159 36.7148 37.9198 36.7148H1.261C0.592072 36.7148 0.25761 35.9051 0.732899 35.4386L7.97665 28.1949Z" fill="black"/>
<path d="M7.97665 1.15493C8.2583 0.873273 8.63677 0.714844 9.03285 0.714844H45.6917C46.3606 0.714844 46.6951 1.52459 46.2198 1.99108L38.976 9.22603C38.6944 9.50768 38.3159 9.66611 37.9198 9.66611H1.261C0.592072 9.66611 0.25761 8.85636 0.732899 8.38988L7.97665 1.15493Z" fill="black"/>
<path d="M38.976 14.5851C38.6944 14.3034 38.3159 14.145 37.9198 14.145H1.261C0.592072 14.145 0.25761 14.9547 0.732899 15.4212L7.97665 22.6562C8.2583 22.9378 8.63677 23.0963 9.03285 23.0963H45.6917C46.3606 23.0963 46.6951 22.2865 46.2198 21.82L38.976 14.5851Z" fill="black"/>
</svg>
