<svg xmlns="http://www.w3.org/2000/svg" width="140" height="64" viewBox="0 0 140 64" fill="none">
  <path d="M6.00392 23.6761L12.3727 20L18.7415 23.6761L16.4 25.0341L12.3727 22.7161L8.3454 25.0341L6.00392 23.6761ZM18.7415 28.3122L16.4 26.9541L12.3727 29.2722L8.3454 26.9541L6.00392 28.3122V31.0283L10.0312 33.3464V37.9824L12.3727 39.3405L14.7142 37.9824V33.3464L18.7415 31.0283V28.3122ZM18.7415 35.6644V32.9483L16.4 34.3064V37.0224L18.7415 35.6644ZM20.404 36.6244L16.3766 38.9425V41.6585L22.7455 37.9824V30.6302L20.404 31.9883V36.6244ZM18.0625 25.9941L20.404 27.3522V30.0683L22.7455 28.7102V25.9941L20.404 24.6361L18.0625 25.9941ZM10.0312 39.9259V42.642L12.3727 44L14.7142 42.642V39.9259L12.3727 41.2839L10.0312 39.9259ZM6.00392 35.6644L8.3454 37.0224V34.3064L6.00392 32.9483V35.6644ZM10.0312 25.9941L12.3727 27.3522L14.7142 25.9941L12.3727 24.6361L10.0312 25.9941ZM4.34147 27.3522L6.68293 25.9941L4.34147 24.6361L2 25.9941V28.7102L4.34147 30.0683V27.3522ZM4.34147 31.9883L2 30.6302V37.9824L8.36877 41.6585V38.9425L4.34147 36.6244V31.9883Z" fill="#1D1D1F"/>
  <path d="M41.2053 35.0615V35.0234C41.2053 33.2297 40.2511 32.3329 38.7056 31.7414C39.6597 31.2071 40.461 30.3676 40.461 28.8602V28.822C40.461 26.7231 38.7819 25.3683 36.0533 25.3683H29.852V38.725H36.206C39.2208 38.725 41.2053 37.5038 41.2053 35.0615ZM37.5417 29.3563C37.5417 30.3485 36.7212 30.7683 35.4236 30.7683H32.7142V27.9443H35.6144C36.8547 27.9443 37.5417 28.4404 37.5417 29.3181V29.3563ZM38.2859 34.699C38.2859 35.6911 37.5035 36.149 36.206 36.149H32.7142V33.2106H36.1106C37.6179 33.2106 38.2859 33.764 38.2859 34.6607V34.699Z" fill="#1D1D1F"/>
  <path d="M55.6814 38.725V25.3683H52.7811V33.5922L46.5224 25.3683H43.813V38.725H46.7133V30.234L53.1818 38.725H55.6814Z" fill="#1D1D1F"/>
  <path d="M70.4318 35.0615V35.0234C70.4318 33.2297 69.4778 32.3329 67.9323 31.7414C68.8864 31.2071 69.6877 30.3676 69.6877 28.8602V28.822C69.6877 26.7231 68.0086 25.3683 65.28 25.3683H59.0787V38.725H65.4327C68.4475 38.725 70.4318 37.5038 70.4318 35.0615ZM66.7684 29.3563C66.7684 30.3485 65.9479 30.7683 64.6503 30.7683H61.9409V27.9443H64.8411C66.0814 27.9443 66.7684 28.4404 66.7684 29.3181V29.3563ZM67.5126 34.699C67.5126 35.6911 66.7302 36.149 65.4327 36.149H61.9409V33.2106H65.3373C66.8446 33.2106 67.5126 33.764 67.5126 34.6607V34.699Z" fill="#1D1D1F"/>
  <path d="M88.1415 36.3656L86.6341 34.8391C85.4893 35.9076 84.4398 36.5755 82.7988 36.5755C80.242 36.5755 78.3911 34.4383 78.3911 31.8052C78.3911 29.172 80.242 27.0731 82.7988 27.0731C84.3253 27.0731 85.4702 27.741 86.5387 28.7332L88.0461 26.9968C86.7677 25.7756 85.2794 24.917 82.8179 24.917C78.7728 24.917 75.9297 28.0272 75.9297 31.8434C75.9297 35.6977 78.8299 38.7316 82.7224 38.7316C85.2221 38.7316 86.7486 37.8156 88.1415 36.3656Z" fill="#1D1D1F"/>
  <path d="M99.5193 32.8737V38.5026H101.866V25.1459H99.5193V30.6985H93.1462V25.1459H90.7993V38.5026H93.1462V32.8737H99.5193Z" fill="#1D1D1F"/>
  <path d="M112.394 25.0505H110.219L104.342 38.5026H106.746L108.12 35.2779H114.436L115.791 38.5026H118.271L112.394 25.0505ZM113.577 33.1981H108.979L111.268 27.8554L113.577 33.1981Z" fill="#1D1D1F"/>
  <path d="M120.886 25.1459V38.5026H123.233V25.1459H120.886Z" fill="#1D1D1F"/>
  <path d="M136.33 34.3811L129.175 25.1459H127V38.5026H129.308V29.0003L136.674 38.5026H138.639V25.1459H136.33V34.3811Z" fill="#1D1D1F"/>
</svg>