<svg xmlns="http://www.w3.org/2000/svg" width="245" height="44" viewBox="0 0 245 44" fill="none">
  <path d="M7.76314 6.8501L19.1359 0.285645L30.5087 6.8501L26.3275 9.27518L19.1359 5.13582L11.9443 9.27518L7.76314 6.8501ZM30.5087 15.1288L26.3275 12.7037L19.1359 16.8431L11.9443 12.7037L7.76314 15.1288V19.979L14.9547 24.1184V32.3971L19.1359 34.8221L23.3171 32.3971V24.1184L30.5087 19.979V15.1288ZM30.5087 28.2577V23.4076L26.3275 25.8327V30.6828L30.5087 28.2577ZM33.4775 29.972L26.2857 34.1114V38.9615L37.6587 32.3971V19.2682L33.4775 21.6933V29.972ZM29.2963 10.9895L33.4775 13.4145V18.2647L37.6587 15.8396V10.9895L33.4775 8.56439L29.2963 10.9895ZM14.9547 35.8676V40.7177L19.1359 43.1427L23.3171 40.7177V35.8676L19.1359 38.2926L14.9547 35.8676ZM7.76314 28.2577L11.9443 30.6828V25.8327L7.76314 23.4076V28.2577ZM14.9547 10.9895L19.1359 13.4145L23.3171 10.9895L19.1359 8.56439L14.9547 10.9895ZM4.79447 13.4145L8.97564 10.9895L4.79447 8.56439L0.613281 10.9895V15.8396L4.79447 18.2647V13.4145ZM4.79447 21.6933L0.613281 19.2682V32.3971L11.9861 38.9615V34.1114L4.79447 29.972V21.6933Z" fill="#1D1D1F"/>
  <path d="M70.6226 27.1811V27.113C70.6226 23.9101 68.9187 22.3086 66.159 21.2524C67.8626 20.2983 69.2935 18.7991 69.2935 16.1073V16.0392C69.2935 12.2911 66.2951 9.87195 61.4226 9.87195H50.3488V33.7232H61.6953C67.079 33.7232 70.6226 31.5424 70.6226 27.1811ZM64.0805 16.9932C64.0805 18.765 62.6153 19.5146 60.2982 19.5146H55.46V14.4718H60.639C62.8538 14.4718 64.0805 15.3577 64.0805 16.9251V16.9932ZM65.4093 26.5338C65.4093 28.3055 64.0122 29.1232 61.6953 29.1232H55.46V23.876H61.5249C64.2166 23.876 65.4093 24.8642 65.4093 26.4655V26.5338Z" fill="#1D1D1F"/>
  <path d="M96.4728 33.7232V9.87195H91.2936V24.5575L80.1175 9.87195H75.2793V33.7232H80.4583V18.5606L92.0092 33.7232H96.4728Z" fill="#1D1D1F"/>
  <path d="M122.813 27.1811V27.113C122.813 23.9101 121.109 22.3086 118.349 21.2524C120.053 20.2983 121.484 18.7991 121.484 16.1073V16.0392C121.484 12.2911 118.486 9.87195 113.613 9.87195H102.539V33.7232H113.886C119.269 33.7232 122.813 31.5424 122.813 27.1811ZM116.271 16.9932C116.271 18.765 114.806 19.5146 112.489 19.5146H107.65V14.4718H112.829C115.044 14.4718 116.271 15.3577 116.271 16.9251V16.9932ZM117.6 26.5338C117.6 28.3055 116.203 29.1232 113.886 29.1232H107.65V23.876H113.715C116.407 23.876 117.6 24.8642 117.6 26.4655V26.5338Z" fill="#1D1D1F"/>
  <path d="M154.437 29.5099L151.745 26.7839C149.701 28.692 147.827 29.8847 144.897 29.8847C140.331 29.8847 137.026 26.0683 137.026 21.3663C137.026 16.6642 140.331 12.9162 144.897 12.9162C147.623 12.9162 149.667 14.1088 151.575 15.8806L154.267 12.7799C151.984 10.5992 149.326 9.06593 144.931 9.06593C137.707 9.06593 132.63 14.6198 132.63 21.4345C132.63 28.3172 137.809 33.7348 144.76 33.7348C149.224 33.7348 151.95 32.0993 154.437 29.5099Z" fill="#1D1D1F"/>
  <path d="M174.755 23.2744V33.326H178.946V9.47476H174.755V19.3901H163.374V9.47476H159.183V33.326H163.374V23.2744H174.755Z" fill="#1D1D1F"/>
  <path d="M197.745 9.30444H193.861L183.367 33.326H187.66L190.113 27.5676H201.391L203.81 33.326H208.24L197.745 9.30444ZM199.858 23.8537H191.646L195.735 14.3132L199.858 23.8537Z" fill="#1D1D1F"/>
  <path d="M212.91 9.47476V33.326H217.1V9.47476H212.91Z" fill="#1D1D1F"/>
  <path d="M240.489 25.9662L227.711 9.47476H223.827V33.326H227.95V16.3575L241.102 33.326H244.612V9.47476H240.489V25.9662Z" fill="#1D1D1F"/>
</svg>