<svg xmlns="http://www.w3.org/2000/svg" width="140" height="64" viewBox="0 0 140 64" fill="none">
  <path d="M23.5139 17L25.9123 20.4584C25.9276 20.4804 25.9332 20.5046 25.9289 20.5311C25.5347 22.8569 25.1706 25.077 24.8778 27.3676C24.635 29.2712 24.5012 31.0194 24.4764 32.6122C24.4611 33.5898 24.4735 34.2921 24.5136 34.7191C24.5606 35.2232 24.6944 35.9564 24.915 36.9186C24.9651 37.139 25.058 37.3528 25.1936 37.5599C25.2078 37.5814 25.2271 37.587 25.2514 37.5768C26.3073 37.1421 27.3189 36.6117 28.0448 35.7439C28.3234 35.411 28.4849 35.0658 28.5609 34.6564C28.7065 33.8704 28.5798 32.9054 28.0598 32.264C27.9342 32.1089 27.7574 31.9788 27.5295 31.8737C27.2656 31.7518 27.0326 31.6503 26.8305 31.5691C26.8036 31.5584 26.7931 31.5393 26.7989 31.5117L28.6163 22.7452C28.6231 22.7125 28.6392 22.7074 28.6645 22.7298L30.6141 24.4686C30.631 24.4839 30.6358 24.502 30.6284 24.523L28.693 30.1449C28.683 30.1735 28.6907 30.1974 28.716 30.2168L29.3231 30.676C29.3395 30.6878 29.3524 30.6849 29.3619 30.6676L31.9606 25.8929C31.9615 25.891 31.9629 25.8894 31.9647 25.8882C31.9664 25.887 31.9685 25.8862 31.9706 25.886C31.9727 25.8857 31.9749 25.886 31.9769 25.8868C31.9789 25.8876 31.9806 25.8889 31.9819 25.8906L33.5025 27.6974C33.5101 27.7066 33.5146 27.7178 33.5153 27.7296C33.516 27.7414 33.5129 27.7532 33.5065 27.7633L30.6062 32.2464C30.5899 32.2719 30.5899 32.2974 30.6062 32.323L31.1556 33.1724C31.1656 33.1878 31.1767 33.1885 31.1888 33.1747L34.4737 29.2717C34.498 29.2431 34.5181 29.2454 34.5339 29.2786L35.5661 31.4367C35.5766 31.4587 35.5727 31.4781 35.5542 31.4949L31.9487 34.7107C31.9202 34.7362 31.912 34.7668 31.9242 34.8026L32.2321 35.6941C32.2335 35.6985 32.2359 35.7025 32.2391 35.7059C32.2423 35.7093 32.2463 35.7119 32.2507 35.7136C32.2551 35.7153 32.2598 35.716 32.2645 35.7157C32.2693 35.7153 32.2739 35.714 32.278 35.7117C33.4036 35.1077 34.5925 34.4679 35.8447 33.7923C35.9207 33.751 35.9996 33.7163 36.0814 33.6883C36.1078 33.6786 36.1223 33.6875 36.1249 33.7151C36.1972 34.5528 36.0645 35.2878 35.7268 35.9199C35.0888 37.1138 33.9513 37.9265 32.6999 38.4837C31.8793 38.849 31.0207 39.1276 30.1242 39.3194C29.474 39.4587 28.9395 39.5681 28.5205 39.6477C28.5158 39.6486 28.5114 39.6506 28.5079 39.6537C28.5043 39.6568 28.5017 39.6608 28.5003 39.6652C28.4989 39.6696 28.4988 39.6743 28.5 39.6788C28.5012 39.6833 28.5036 39.6873 28.507 39.6906C28.9988 40.1681 29.5864 40.5704 30.2698 40.8974C30.6566 41.0821 31.1205 41.2977 31.6614 41.5441C31.7268 41.5737 31.7236 41.5923 31.6519 41.6C30.4772 41.7316 29.2416 41.4607 28.131 41.0184C27.3954 40.726 26.7503 40.3033 26.1957 39.7503C26.1909 39.7456 26.1873 39.7399 26.1851 39.7336C26.183 39.7274 26.1823 39.7207 26.1831 39.7141C26.1839 39.7075 26.1863 39.7011 26.19 39.6955C26.1936 39.6898 26.1986 39.685 26.2044 39.6814C26.7537 39.3426 27.2566 38.9878 27.7131 38.6168C28.35 38.099 28.8619 37.4819 29.2487 36.7656C29.3089 36.6538 29.2901 36.6398 29.1925 36.7235C28.4144 37.3878 27.6031 37.9288 26.6429 38.2778C26.1896 38.4426 25.9062 38.5551 25.7928 38.6153C25.4994 38.7714 25.2559 38.9579 25.0622 39.1747C24.5561 39.7401 24.2342 40.4342 24.0965 41.2571C24.058 41.4878 24.0121 41.7436 23.9588 42.0247C23.8933 42.3712 23.8691 42.6288 23.8859 42.7977C23.9292 43.239 24.1136 43.6306 24.4392 43.9725C24.7986 44.35 25.0986 44.7015 25.3392 45.027C25.3498 45.0413 25.349 45.0548 25.3369 45.0676L23.5875 47H23.035L21.2849 45.0722C21.2758 45.0625 21.2707 45.0499 21.2704 45.0367C21.2701 45.0235 21.2747 45.0106 21.2833 45.0003L22.6986 43.3196C22.716 43.2992 22.7247 43.2755 22.7247 43.2485C22.729 42.3832 22.629 41.5737 22.4247 40.8202C22.196 39.9745 21.7298 39.1617 20.9517 38.675C20.6263 38.4722 20.2606 38.3819 19.8364 38.2235C19.2216 37.9939 18.6263 37.6589 18.0506 37.2186C17.8369 37.0554 17.6198 36.8824 17.3992 36.6997C17.3865 36.6895 17.3715 36.6847 17.3541 36.6852C17.3487 36.6853 17.3435 36.6867 17.3388 36.6893C17.3342 36.6919 17.3303 36.6956 17.3275 36.7C17.3247 36.7044 17.3232 36.7095 17.323 36.7146C17.3228 36.7198 17.3239 36.725 17.3263 36.7296C17.6292 37.3107 18.025 37.8247 18.5137 38.2717C19.0899 38.7987 19.7343 39.2717 20.4466 39.6906C20.4527 39.6942 20.4578 39.6991 20.4615 39.7049C20.4652 39.7108 20.4675 39.7174 20.4681 39.7243C20.4687 39.7312 20.4677 39.7382 20.465 39.7447C20.4624 39.7512 20.4583 39.757 20.453 39.7617C19.148 40.9138 17.5897 41.526 15.7781 41.5985C15.5585 41.6071 15.2696 41.6079 14.9113 41.6008C14.9083 41.6008 14.9054 41.5999 14.903 41.5981C14.9007 41.5963 14.8991 41.5937 14.8985 41.5909C14.898 41.588 14.8985 41.585 14.8999 41.5825C14.9014 41.58 14.9038 41.578 14.9066 41.577C15.1393 41.4776 15.4678 41.3306 15.8921 41.1362C16.7205 40.7571 17.4649 40.274 18.125 39.6867C18.129 39.6831 18.1319 39.6785 18.1334 39.6734C18.1348 39.6683 18.1348 39.6629 18.1333 39.6579C18.1318 39.6529 18.1289 39.6484 18.125 39.645C18.121 39.6416 18.1161 39.6393 18.1108 39.6385C17.1023 39.4635 16.1976 39.2622 15.3965 39.0347C14.0789 38.6602 12.9195 38.0592 11.9185 37.2316C11.0726 36.5321 10.5997 35.6253 10.5 34.511V33.9798L10.534 33.7281C10.5347 33.7231 10.5366 33.7184 10.5396 33.7143C10.5425 33.7102 10.5465 33.7069 10.5511 33.7046C10.5557 33.7024 10.5608 33.7012 10.566 33.7013C10.5711 33.7014 10.5762 33.7027 10.5807 33.7051L14.358 35.724C14.3598 35.7249 14.3619 35.7255 14.3639 35.7256C14.366 35.7257 14.3681 35.7253 14.3701 35.7245C14.372 35.7237 14.3738 35.7225 14.3753 35.7209C14.3768 35.7194 14.3779 35.7176 14.3786 35.7156L14.6968 34.7934C14.7063 34.7658 14.6987 34.7411 14.6739 34.7191L11.0675 31.5018C11.0459 31.4829 11.0409 31.4612 11.0525 31.4367L12.0752 29.2816C12.0931 29.2444 12.1156 29.2418 12.1425 29.274L15.4195 33.1679C15.4222 33.1712 15.4258 33.1739 15.4298 33.1756C15.4338 33.1774 15.4383 33.1782 15.4427 33.178C15.4471 33.1777 15.4514 33.1765 15.4552 33.1743C15.459 33.1722 15.4622 33.1692 15.4646 33.1656L16.0068 32.3268C16.0242 32.2997 16.0232 32.2712 16.0037 32.2411L13.1208 27.7824C13.1061 27.7605 13.1071 27.739 13.124 27.7181L14.5939 25.9005C14.5979 25.8954 14.6032 25.8913 14.6093 25.8887C14.6154 25.8861 14.622 25.885 14.6287 25.8856C14.6353 25.8861 14.6417 25.8882 14.6472 25.8918C14.6528 25.8953 14.6573 25.9002 14.6604 25.9059L17.244 30.6492C17.2625 30.6824 17.2868 30.6872 17.3168 30.6638L17.9058 30.2C17.9258 30.1842 17.9319 30.1645 17.924 30.1411L15.9791 24.5023C15.9779 24.4991 15.9777 24.4957 15.9786 24.4924C15.9794 24.4891 15.9813 24.4862 15.9839 24.4839L17.9525 22.7276C17.9778 22.7051 17.9939 22.7105 18.0008 22.7436L19.8197 31.5255C19.825 31.5505 19.8153 31.5673 19.7905 31.576C19.7445 31.5913 19.6509 31.6189 19.5094 31.6587C18.9245 31.8247 18.4931 32.2212 18.2596 32.7707C17.9153 33.5827 17.8876 34.7191 18.3791 35.4791C18.625 35.8592 18.9643 36.2033 19.397 36.5115C20.0319 36.963 20.6889 37.3163 21.368 37.5714C21.3763 37.5745 21.3854 37.5746 21.3938 37.5718C21.4022 37.569 21.4093 37.5635 21.4139 37.5561C21.8944 36.8168 22.0108 35.9352 22.0915 35.0421C22.1907 33.9401 22.206 32.8561 22.1374 31.7903C22.0852 30.9806 21.9994 30.0747 21.8801 29.0727C21.61 26.8084 21.3377 24.6985 21.0633 22.7429C20.9675 22.0617 20.8092 21.2781 20.6786 20.5464C20.674 20.5219 20.6797 20.4966 20.6944 20.476L23.0999 17H23.5139ZM22.3377 38.248L23.3018 39.2582C23.3031 39.2596 23.3047 39.2607 23.3065 39.2615C23.3083 39.2622 23.3102 39.2626 23.3122 39.2626C23.3142 39.2626 23.3162 39.2622 23.3181 39.2615C23.32 39.2607 23.3217 39.2596 23.3231 39.2582L24.1978 38.3413C24.2142 38.3243 24.2262 38.3037 24.2326 38.2812C24.2391 38.2587 24.2399 38.235 24.235 38.212C24.1553 37.8334 24.0601 37.363 23.9493 36.8008C23.8527 36.313 23.7862 35.8446 23.7498 35.3957C23.6179 33.7707 23.5717 32.1418 23.6113 30.5092C23.6556 28.6908 23.7224 27.0577 23.8115 25.6097C23.8933 24.2755 23.9986 22.7212 24.1274 20.9467C24.13 20.9084 24.1197 20.874 24.0965 20.8434L23.3208 19.8347C23.3182 19.8315 23.3149 19.8288 23.3111 19.827C23.3074 19.8252 23.3032 19.8242 23.2991 19.8242C23.2949 19.8242 23.2908 19.8252 23.2872 19.827C23.2835 19.8288 23.2804 19.8315 23.278 19.8347L22.4865 20.9237C22.4501 20.9742 22.4358 21.0298 22.4437 21.0906C22.5192 21.6865 22.5767 22.1548 22.6163 22.4957C22.6501 22.788 22.6801 23.2584 22.7065 23.9069C22.8221 26.764 22.9084 29.4367 22.9654 31.925C22.9764 32.4122 22.9786 33.1844 22.9717 34.2416C22.9622 35.6217 22.7456 36.9339 22.3218 38.1783C22.3129 38.2043 22.3181 38.2276 22.3377 38.248ZM24.0237 45.1365C24.0274 45.1336 24.0304 45.13 24.0326 45.126C24.0349 45.1219 24.0362 45.1175 24.0367 45.113C24.0371 45.1084 24.0366 45.1038 24.0352 45.0994C24.0338 45.0951 24.0315 45.091 24.0284 45.0875L23.3366 44.2901C23.3333 44.2862 23.3291 44.2831 23.3244 44.281C23.3196 44.2788 23.3145 44.2777 23.3093 44.2777C23.3041 44.2777 23.2989 44.2788 23.2942 44.281C23.2895 44.2831 23.2853 44.2862 23.282 44.2901L22.5902 45.089C22.5871 45.0925 22.5848 45.0966 22.5834 45.101C22.582 45.1053 22.5815 45.1099 22.5819 45.1145C22.5823 45.119 22.5837 45.1235 22.586 45.1275C22.5882 45.1316 22.5912 45.1351 22.5949 45.138L23.2875 45.6829C23.2938 45.6878 23.3016 45.6904 23.3097 45.6904C23.3177 45.6904 23.3256 45.6878 23.3319 45.6829L24.0237 45.1365Z" fill="#1D1D1F"/>
  <path d="M48.6332 35.5012H55.6954C55.7021 35.5012 55.7086 35.4994 55.7142 35.496C55.7198 35.4926 55.7243 35.4878 55.7271 35.4821L59.821 26.851C59.8354 26.8204 59.8586 26.7944 59.8878 26.7762C59.917 26.7581 59.951 26.7484 59.9857 26.7484H62.1252C62.145 26.7484 62.1644 26.7539 62.1811 26.7642C62.1978 26.7745 62.2111 26.7892 62.2194 26.8066L67.1888 37.1949C67.201 37.2204 67.2064 37.2485 67.2044 37.2766C67.2024 37.3047 67.1932 37.3319 67.1775 37.3556C67.1618 37.3793 67.1402 37.3988 67.1146 37.4123C67.0891 37.4258 67.0604 37.4329 67.0313 37.4329H64.9899C64.9615 37.4329 64.9338 37.425 64.9099 37.4102C64.8861 37.3955 64.8671 37.3744 64.8553 37.3495L61.0519 29.3995C61.0503 29.3958 61.0477 29.3927 61.0443 29.3906C61.0409 29.3884 61.0369 29.3872 61.0329 29.3872C61.0288 29.3872 61.0248 29.3884 61.0215 29.3906C61.0181 29.3927 61.0154 29.3958 61.0139 29.3995L57.2532 37.328C57.2381 37.3596 57.214 37.3863 57.1837 37.405C57.1534 37.4237 57.1182 37.4336 57.0822 37.4336C55.3524 37.4331 52.2145 37.4334 47.6683 37.4344C47.3364 37.4344 47.1129 37.4092 46.9979 37.3586C46.8285 37.2847 46.7116 37.1589 46.6472 36.9813C46.6119 36.8854 46.5942 36.726 46.5942 36.503C46.5952 31.8173 46.5952 27.0765 46.5942 22.2806C46.5942 21.9908 46.7237 21.7867 46.9828 21.6683C47.0863 21.6214 47.234 21.5964 47.4261 21.5933C47.852 21.5864 48.2738 21.5428 48.4994 21.9553C48.5585 22.0635 48.5878 22.2347 48.5873 22.4688C48.581 25.5576 48.581 29.8872 48.5873 35.4576C48.5878 35.4867 48.6031 35.5012 48.6332 35.5012Z" fill="#1D1D1F"/>
  <path d="M97.093 21.6132C97.1174 21.5997 97.1449 21.5926 97.1729 21.5926H98.7386C98.8837 21.5926 98.9563 21.6625 98.9563 21.8023V31.2706C98.9563 31.2814 98.9538 31.2921 98.9491 31.302C98.9443 31.3119 98.9373 31.3208 98.9286 31.328C98.9001 31.351 98.8679 31.3638 98.832 31.3663C98.8051 31.3684 98.7822 31.3599 98.7632 31.3411C98.0286 30.6043 97.5146 30.0949 97.2212 29.8127C97.1468 29.7413 97.0853 29.6699 97.0368 29.5985C96.9882 29.5265 96.9642 29.4395 96.9647 29.3375C96.9695 26.6048 96.9695 24.1115 96.9647 21.8574C96.9647 21.7421 97.0075 21.6607 97.093 21.6132Z" fill="#1D1D1F"/>
  <path d="M82.4486 24.1403L81.3294 23.062C81.2483 22.9839 81.117 22.9841 81.0362 23.0625L79.9209 24.1446C79.8401 24.223 79.8403 24.35 79.9214 24.4281L81.0406 25.5064C81.1217 25.5845 81.253 25.5843 81.3338 25.5059L82.4491 24.4239C82.5299 24.3454 82.5297 24.2185 82.4486 24.1403Z" fill="#1D1D1F"/>
  <path d="M68.6688 30.3845V26.9758C68.6688 26.8243 68.7472 26.7485 68.9039 26.7485H70.6295C70.6465 26.7485 70.6633 26.7518 70.6788 26.7581C70.6943 26.7644 70.7082 26.7737 70.7197 26.7853L76.7521 32.8388C76.7546 32.8413 76.7577 32.8431 76.7612 32.8438C76.7647 32.8445 76.7683 32.8442 76.7716 32.8428C76.7749 32.8415 76.7776 32.8392 76.7795 32.8363C76.7814 32.8334 76.7824 32.83 76.7822 32.8266V26.9475C76.7822 26.8947 76.8039 26.8441 76.8425 26.8068C76.8811 26.7695 76.9334 26.7485 76.988 26.7485H78.5688C78.6225 26.7485 78.674 26.7692 78.712 26.8059C78.75 26.8427 78.7714 26.8925 78.7714 26.9445V37.3006C78.7712 37.328 78.7627 37.3548 78.7468 37.3775C78.7309 37.4002 78.7084 37.4178 78.6821 37.4282C78.6558 37.4385 78.6269 37.441 78.5992 37.4355C78.5714 37.43 78.5459 37.4166 78.526 37.397L70.73 29.6934C70.6815 29.6455 70.6572 29.6549 70.6572 29.7218V32.1707C70.6572 32.2168 70.6383 32.261 70.6046 32.2936C70.5709 32.3262 70.5252 32.3445 70.4775 32.3445H66.3195C66.2699 32.3445 66.234 32.323 66.2118 32.2802C65.8963 31.672 65.6475 31.1873 65.4654 30.8261C65.4221 30.7404 65.3934 30.6707 65.3791 30.6172C65.3733 30.5951 65.3728 30.5721 65.3776 30.5499C65.3825 30.5276 65.3925 30.5067 65.4069 30.4888C65.4213 30.4709 65.4398 30.4563 65.4609 30.4464C65.482 30.4364 65.5052 30.4312 65.5287 30.4312H68.6205C68.6333 30.4312 68.6456 30.4263 68.6547 30.4175C68.6637 30.4088 68.6688 30.3969 68.6688 30.3845Z" fill="#1D1D1F"/>
  <path d="M81.4494 26.7432H80.9128C80.5119 26.7432 80.1869 27.0574 80.1869 27.4449V36.7266C80.1869 37.1142 80.5119 37.4284 80.9128 37.4284H81.4494C81.8503 37.4284 82.1753 37.1142 82.1753 36.7266V27.4449C82.1753 27.0574 81.8503 26.7432 81.4494 26.7432Z" fill="#1D1D1F"/>
  <path d="M89.3425 26.7485C89.7108 26.7485 90.0728 26.7496 90.4285 26.7516C90.4491 26.7516 90.4694 26.757 90.4873 26.7673C90.5051 26.7775 90.5198 26.7922 90.5298 26.8098C90.5878 26.9098 90.6435 27.0161 90.6968 27.1289C92.9986 31.983 94.5928 35.3432 95.4794 37.2095C95.4906 37.2334 95.4955 37.2596 95.4936 37.2857C95.4916 37.3119 95.4829 37.3372 95.4683 37.3593C95.4537 37.3813 95.4335 37.3995 95.4097 37.4121C95.3859 37.4247 95.3593 37.4314 95.3321 37.4314H93.301C93.2656 37.4314 93.2308 37.4216 93.2009 37.403C93.171 37.3844 93.1473 37.3579 93.1324 37.3266L89.3528 29.3613C89.3522 29.3613 89.3506 29.361 89.348 29.3605C89.3464 29.3605 89.3448 29.3605 89.3433 29.3605C89.3417 29.3605 89.3401 29.3605 89.3385 29.3605C89.3359 29.361 89.3343 29.3613 89.3338 29.3613L85.5588 37.3281C85.5441 37.3596 85.5204 37.3862 85.4905 37.405C85.4606 37.4237 85.4258 37.4337 85.3903 37.4337L83.3591 37.4345C83.332 37.4344 83.3053 37.4278 83.2815 37.4152C83.2578 37.4026 83.2376 37.3844 83.223 37.3623C83.2083 37.3402 83.1996 37.315 83.1977 37.2888C83.1958 37.2626 83.2006 37.2364 83.2119 37.2126C84.0974 35.3457 85.6897 31.9848 87.9889 27.1297C88.0422 27.0169 88.0979 26.9105 88.1559 26.8105C88.166 26.7929 88.1807 26.7782 88.1985 26.768C88.2163 26.7578 88.2366 26.7524 88.2573 26.7524C88.6129 26.7498 88.9747 26.7485 89.3425 26.7485Z" fill="#1D1D1F"/>
  <path d="M100.109 30.1709C100.001 30.0493 100.033 29.9413 100.165 29.8457C101.405 28.9482 102.818 27.9268 104.405 26.7814C104.434 26.7605 104.47 26.7492 104.506 26.7493C105.455 26.7482 106.413 26.748 107.38 26.7485C107.412 26.7485 107.441 26.7549 107.465 26.7676C107.517 26.7936 107.535 26.8388 107.519 26.9031C107.514 26.9272 107.499 26.9487 107.478 26.9635L102.056 30.8612C102.046 30.8689 102.037 30.8787 102.031 30.89C102.025 30.9013 102.022 30.9137 102.022 30.9263V31.6357C102.022 31.6731 102.037 31.7087 102.063 31.7352C102.465 32.1403 104.258 33.9516 107.442 37.1689C107.479 37.2061 107.505 37.2444 107.519 37.2837C107.525 37.2995 107.527 37.3165 107.525 37.3331C107.522 37.3497 107.516 37.3656 107.506 37.3793C107.496 37.393 107.483 37.4042 107.467 37.412C107.452 37.4197 107.435 37.4237 107.417 37.4237C106.795 37.4243 105.959 37.4243 104.911 37.4237C104.846 37.4237 104.774 37.3801 104.695 37.2929C104.64 37.2311 104.611 37.199 104.608 37.1964C102.56 35.0766 101.064 33.5301 100.122 32.5572C100.022 32.4541 100.018 32.3549 100.111 32.2595C100.129 32.2406 100.133 32.2194 100.122 32.1959C100.085 32.1171 100.049 32.0421 100.048 31.9625C100.043 31.5375 100.042 31.0493 100.046 30.4977C100.046 30.4498 100.055 30.3995 100.073 30.347C100.095 30.2806 100.108 30.2442 100.112 30.2375C100.128 30.213 100.127 30.1908 100.109 30.1709Z" fill="#1D1D1F"/>
  <path d="M123.222 29.3696C123.22 29.366 123.217 29.3631 123.214 29.361C123.21 29.3589 123.206 29.3579 123.202 29.358C123.198 29.3581 123.194 29.3593 123.191 29.3615C123.188 29.3636 123.185 29.3667 123.183 29.3703L119.394 37.3578C119.383 37.3803 119.366 37.3992 119.345 37.4125C119.323 37.4258 119.298 37.4329 119.273 37.4328C116.061 37.4339 112.844 37.4339 109.622 37.4328C109.343 37.4328 109.157 37.4428 108.962 37.305C108.756 37.1591 108.653 36.9596 108.653 36.7066C108.653 33.5234 108.653 30.4494 108.652 27.4846C108.652 27.1811 108.768 26.9686 109 26.8471C109.127 26.7808 109.346 26.7476 109.658 26.7476C111.924 26.7481 114.191 26.7484 116.457 26.7484C116.739 26.7489 116.94 26.7798 117.059 26.841C117.46 27.0469 117.425 27.4869 117.418 27.9239C117.413 28.227 117.302 28.442 117.084 28.5691C116.957 28.6436 116.738 28.6808 116.427 28.6808C114.153 28.6808 112.234 28.6805 110.671 28.68C110.663 28.68 110.656 28.6831 110.65 28.6886C110.645 28.694 110.642 28.7014 110.642 28.7091V35.4744C110.642 35.4923 110.651 35.5012 110.67 35.5012H117.839C117.861 35.5012 117.876 35.4918 117.885 35.4729L121.978 26.8448C121.991 26.816 122.013 26.7917 122.041 26.7746C122.069 26.7575 122.101 26.7484 122.134 26.7484H124.249C124.284 26.7484 124.318 26.7579 124.347 26.7758C124.376 26.7937 124.399 26.8192 124.413 26.8494L130.488 39.5512C130.501 39.5774 130.503 39.6071 130.495 39.6348C130.487 39.6624 130.469 39.6863 130.444 39.702C130.387 39.7382 130.313 39.7553 130.222 39.7533C130.161 39.7517 129.518 39.7499 128.295 39.7479C128.262 39.7479 128.231 39.7388 128.203 39.7219C128.176 39.7049 128.154 39.6807 128.141 39.6522L123.222 29.3696Z" fill="#1D1D1F"/>
  <path d="M96.9544 33.973L94.8029 31.8462C94.7826 31.8261 94.7713 31.7992 94.7713 31.7712V29.4026C94.7713 29.375 94.7797 29.3481 94.7954 29.3251C94.811 29.3021 94.8333 29.284 94.8594 29.273C94.8855 29.2621 94.9144 29.2587 94.9425 29.2634C94.9705 29.268 94.9966 29.2805 95.0174 29.2993C95.1599 29.4283 95.2723 29.5317 95.3546 29.6092C96.7066 30.8827 97.8776 31.9919 98.8676 32.9368C98.9209 32.9878 98.9483 33.048 98.9499 33.1174C98.9552 33.4322 98.9581 34.809 98.9586 37.2477C98.9586 37.2966 98.9385 37.3436 98.9027 37.3781C98.8669 37.4127 98.8184 37.4322 98.7678 37.4322H97.1958C97.0501 37.4322 96.9773 37.362 96.9773 37.2217V34.0266C96.9773 34.0065 96.9691 33.9872 96.9544 33.973Z" fill="#1D1D1F"/>
  <path d="M115.326 31.562L114.21 30.4829C114.129 30.4046 113.998 30.4046 113.917 30.4829L112.801 31.562C112.72 31.6403 112.72 31.7672 112.801 31.8455L113.917 32.9246C113.998 33.0029 114.129 33.0029 114.21 32.9246L115.326 31.8455C115.407 31.7672 115.407 31.6403 115.326 31.562Z" fill="#1D1D1F"/>
  <path d="M69.9836 33.2704H69.3329C68.9609 33.2704 68.6593 33.562 68.6593 33.9217V41.4569C68.6593 41.8165 68.9609 42.1081 69.3329 42.1081H69.9836C70.3556 42.1081 70.6572 41.8165 70.6572 41.4569V33.9217C70.6572 33.562 70.3556 33.2704 69.9836 33.2704Z" fill="#1D1D1F"/>
</svg>