<svg xmlns="http://www.w3.org/2000/svg" width="207" height="52" viewBox="0 0 207 52" fill="none">
  <path d="M22.7138 0L26.8254 5.92871C26.8516 5.96632 26.8611 6.00786 26.8539 6.05334C26.1781 10.0404 25.5539 13.8463 25.0518 17.773C24.6357 21.0363 24.4064 24.0332 24.3639 26.7638C24.3376 28.4396 24.3589 29.6435 24.4277 30.3756C24.5082 31.2397 24.7375 32.4966 25.1156 34.1462C25.2016 34.524 25.3608 34.8905 25.5933 35.2456C25.6177 35.2823 25.6507 35.2919 25.6923 35.2744C27.5025 34.5292 29.2367 33.6201 30.481 32.1323C30.9586 31.5616 31.2354 30.9699 31.3657 30.268C31.6154 28.9207 31.3983 27.2663 30.5068 26.1669C30.2915 25.901 29.9884 25.678 29.5976 25.4978C29.1453 25.2887 28.7459 25.1147 28.3994 24.9756C28.3533 24.9573 28.3352 24.9245 28.3452 24.8772L31.4607 9.84882C31.4725 9.79284 31.5 9.7841 31.5435 9.82258L34.8856 12.8033C34.9146 12.8296 34.9227 12.8606 34.91 12.8965L31.5923 22.5341C31.5751 22.5831 31.5883 22.6242 31.6317 22.6574L32.6725 23.4446C32.7005 23.4647 32.7227 23.4599 32.7389 23.4301L37.1938 15.2449C37.1954 15.2417 37.1978 15.2389 37.2008 15.2368C37.2038 15.2348 37.2073 15.2335 37.211 15.2331C37.2146 15.2327 37.2184 15.2332 37.2218 15.2346C37.2252 15.2359 37.2281 15.2381 37.2304 15.2409L39.8371 18.3385C39.8502 18.3541 39.8579 18.3734 39.8591 18.3936C39.8603 18.4138 39.855 18.434 39.8439 18.4513L34.8721 26.1367C34.844 26.1804 34.844 26.2242 34.8721 26.2679L35.8138 27.7242C35.831 27.7504 35.85 27.7517 35.8708 27.7281L41.5021 21.0371C41.5437 20.9882 41.5781 20.9921 41.6052 21.0489L43.3747 24.7487C43.3928 24.7863 43.386 24.8195 43.3543 24.8484L37.1734 30.3612C37.1246 30.4049 37.1106 30.4574 37.1314 30.5186L37.6592 32.047C37.6616 32.0545 37.6657 32.0614 37.6712 32.0672C37.6768 32.073 37.6835 32.0775 37.6911 32.0804C37.6986 32.0833 37.7068 32.0845 37.7149 32.0839C37.723 32.0834 37.7309 32.0811 37.7379 32.0772C39.6675 31.0416 41.7056 29.9449 43.8523 28.7868C43.9826 28.716 44.1178 28.6565 44.258 28.6084C44.3033 28.5918 44.3282 28.6071 44.3327 28.6543C44.4566 30.0905 44.2291 31.3504 43.6501 32.4341C42.5564 34.4807 40.6065 35.874 38.4612 36.8291C37.0545 37.4553 35.5826 37.9329 34.0457 38.2618C32.9312 38.5005 32.0148 38.6881 31.2965 38.8246C31.2885 38.826 31.281 38.8296 31.2749 38.8349C31.2688 38.8402 31.2643 38.847 31.2619 38.8545C31.2596 38.8621 31.2594 38.8702 31.2614 38.8779C31.2634 38.8855 31.2676 38.8925 31.2734 38.898C32.1166 39.7167 33.1239 40.4064 34.2954 40.967C34.9585 41.2836 35.7536 41.6531 36.6809 42.0756C36.793 42.1263 36.7876 42.1582 36.6646 42.1714C34.6509 42.397 32.5327 41.9326 30.6289 41.1743C29.3678 40.6731 28.2619 39.9485 27.3112 39.0004C27.303 38.9923 27.2968 38.9826 27.2931 38.9718C27.2893 38.9611 27.2881 38.9497 27.2896 38.9384C27.291 38.9271 27.295 38.9162 27.3013 38.9065C27.3076 38.8968 27.3161 38.8885 27.3261 38.8823C28.2678 38.3015 29.1299 37.6932 29.9124 37.0574C31.0043 36.1696 31.8818 35.1118 32.5449 33.8838C32.648 33.6922 32.6159 33.6682 32.4486 33.8116C31.1147 34.9504 29.7238 35.8779 28.0778 36.4762C27.3008 36.7587 26.815 36.9515 26.6205 37.0548C26.1175 37.3224 25.7 37.6421 25.368 38.0138C24.5005 38.9829 23.9487 40.1728 23.7125 41.5836C23.6465 41.9789 23.5678 42.4176 23.4764 42.8995C23.3643 43.4934 23.3226 43.9351 23.3516 44.2246C23.4258 44.9811 23.7419 45.6524 24.3001 46.2384C24.9162 46.8856 25.4304 47.4883 25.8429 48.0463C25.861 48.0708 25.8597 48.094 25.8389 48.1158L22.84 51.4285H21.8929L18.8927 48.1237C18.8771 48.107 18.8683 48.0854 18.8678 48.0628C18.8673 48.0402 18.8752 48.0181 18.89 48.0004L21.3162 45.1193C21.346 45.0843 21.361 45.0437 21.361 44.9973C21.3682 43.5139 21.1968 42.1263 20.8467 40.8345C20.4545 39.3848 19.6553 37.9915 18.3214 37.1571C17.7637 36.8094 17.1368 36.6546 16.4095 36.383C15.3556 35.9895 14.3351 35.4153 13.3482 34.6604C12.9818 34.3806 12.6096 34.0841 12.2314 33.7709C12.2097 33.7534 12.1839 33.7451 12.1541 33.746C12.1449 33.7462 12.1359 33.7486 12.128 33.753C12.12 33.7575 12.1133 33.7638 12.1086 33.7714C12.1038 33.779 12.1012 33.7876 12.1008 33.7965C12.1005 33.8054 12.1025 33.8142 12.1066 33.8221C12.6258 34.8183 13.3043 35.6995 14.142 36.4657C15.1299 37.3692 16.2344 38.18 17.4557 38.898C17.466 38.9042 17.4748 38.9126 17.4811 38.9227C17.4875 38.9327 17.4914 38.9441 17.4924 38.9559C17.4935 38.9677 17.4917 38.9797 17.4872 38.9908C17.4827 39.0019 17.4756 39.012 17.4665 39.0201C15.2294 40.995 12.558 42.0445 9.45241 42.1687C9.07608 42.1836 8.5808 42.1849 7.96655 42.1727C7.96141 42.1728 7.95638 42.1712 7.95236 42.1681C7.94835 42.165 7.9456 42.1606 7.94463 42.1557C7.94365 42.1508 7.9445 42.1457 7.94702 42.1414C7.94955 42.1371 7.95358 42.1337 7.95841 42.132C8.35735 41.9615 8.92048 41.7096 9.64781 41.3763C11.0681 40.7265 12.3441 39.8982 13.4757 38.8915C13.4826 38.8853 13.4875 38.8774 13.49 38.8686C13.4925 38.8599 13.4925 38.8507 13.49 38.8421C13.4874 38.8335 13.4825 38.8258 13.4756 38.8199C13.4688 38.814 13.4604 38.8102 13.4513 38.8088C11.7226 38.5088 10.1716 38.1638 8.79836 37.7737C6.5395 37.1317 4.55203 36.1014 2.83594 34.6827C1.38582 33.4836 0.575272 31.929 0.404297 30.0188V29.1083L0.462646 28.6766C0.463759 28.6681 0.467006 28.66 0.472104 28.653C0.477202 28.646 0.483995 28.6403 0.491892 28.6365C0.499788 28.6326 0.508547 28.6306 0.517405 28.6308C0.526262 28.6309 0.534948 28.6331 0.542705 28.6373L7.01805 32.0982C7.02116 32.0998 7.02462 32.1008 7.02819 32.1009C7.03176 32.1011 7.03535 32.1004 7.0387 32.0991C7.04206 32.0977 7.04511 32.0956 7.04764 32.093C7.05016 32.0903 7.0521 32.0872 7.05333 32.0838L7.59882 30.5029C7.6151 30.4556 7.60199 30.4132 7.55947 30.3756L1.37723 24.8602C1.34014 24.8278 1.33154 24.7906 1.35144 24.7487L3.10462 21.0542C3.13537 20.9903 3.17382 20.986 3.21996 21.0411L8.83771 27.7163C8.84242 27.722 8.84848 27.7266 8.85539 27.7296C8.8623 27.7326 8.86986 27.734 8.87743 27.7336C8.88501 27.7332 8.89237 27.7311 8.89892 27.7274C8.90546 27.7237 8.911 27.7185 8.91506 27.7123L9.84456 26.2745C9.87442 26.2281 9.87261 26.1791 9.83914 26.1275L4.89714 18.4841C4.87181 18.4465 4.87362 18.4097 4.90257 18.3739L7.42242 15.258C7.42933 15.2492 7.43841 15.2423 7.44882 15.2378C7.45924 15.2333 7.47065 15.2315 7.48201 15.2324C7.49337 15.2333 7.50431 15.237 7.51381 15.2431C7.52332 15.2491 7.53109 15.2574 7.5364 15.2672L11.9655 23.3987C11.9971 23.4555 12.0387 23.4638 12.0903 23.4236L13.0999 22.6285C13.1343 22.6014 13.1447 22.5678 13.1311 22.5275L9.79707 12.8611C9.79501 12.8556 9.79468 12.8497 9.79613 12.8441C9.79758 12.8385 9.80075 12.8334 9.80521 12.8296L13.1799 9.81864C13.2234 9.78016 13.2509 9.78934 13.2627 9.8462L16.381 24.9008C16.39 24.9437 16.3733 24.9726 16.3308 24.9874C16.2521 25.0137 16.0915 25.0609 15.849 25.1291C14.8463 25.4138 14.1067 26.0934 13.7064 27.0354C13.1162 28.4274 13.0687 30.3756 13.9113 31.6784C14.3329 32.33 14.9146 32.9199 15.6564 33.4482C16.7446 34.2223 17.8709 34.8279 19.0352 35.2653C19.0494 35.2704 19.065 35.2707 19.0794 35.2659C19.0938 35.2611 19.106 35.2516 19.1139 35.239C19.9375 33.9717 20.137 32.4603 20.2754 30.9293C20.4455 29.04 20.4717 27.1819 20.3541 25.3548C20.2645 23.9667 20.1175 22.4138 19.9131 20.696C19.4499 16.8144 18.9831 13.1974 18.5127 9.84488C18.3485 8.67725 18.0771 7.33381 17.8533 6.07958C17.8454 6.03759 17.8552 5.9942 17.8804 5.95888L22.0041 0H22.7138ZM20.6974 36.425L22.3502 38.1568C22.3524 38.1592 22.3551 38.1611 22.3582 38.1625C22.3613 38.1638 22.3646 38.1645 22.3681 38.1645C22.3715 38.1645 22.3749 38.1638 22.3782 38.1625C22.3814 38.1611 22.3843 38.1592 22.3868 38.1568L23.8862 36.5851C23.9144 36.5559 23.9348 36.5206 23.9459 36.482C23.957 36.4434 23.9584 36.4027 23.95 36.3634C23.8134 35.7144 23.6501 34.908 23.4601 33.9441C23.2946 33.108 23.1806 32.3051 23.1182 31.5354C22.892 28.7497 22.8129 25.9574 22.8807 23.1586C22.9567 20.0414 23.0712 17.2417 23.224 14.7595C23.3643 12.4723 23.5447 9.80771 23.7655 6.76573C23.77 6.70014 23.7523 6.6411 23.7125 6.58862L22.3827 4.85947C22.3783 4.85391 22.3727 4.84939 22.3662 4.84628C22.3598 4.84317 22.3527 4.84154 22.3455 4.84154C22.3384 4.84154 22.3314 4.84317 22.3252 4.84628C22.3189 4.84939 22.3135 4.85391 22.3095 4.85947L20.9525 6.72638C20.8901 6.81296 20.8657 6.9083 20.8792 7.01238C21.0086 8.03395 21.1072 8.83687 21.1751 9.42112C21.233 9.92229 21.2845 10.7287 21.3297 11.8404C21.5279 16.7383 21.6758 21.3201 21.7735 25.5857C21.7925 26.421 21.7961 27.7447 21.7843 29.557C21.768 31.9228 21.3967 34.1724 20.6703 36.3056C20.6549 36.3502 20.6639 36.39 20.6974 36.425ZM23.5877 48.2339C23.594 48.2289 23.5992 48.2228 23.6031 48.2159C23.6069 48.209 23.6093 48.2014 23.61 48.1936C23.6108 48.1857 23.6099 48.1779 23.6075 48.1704C23.605 48.1629 23.6011 48.1559 23.5958 48.1499L22.4099 46.7829C22.4041 46.7763 22.397 46.7709 22.3889 46.7673C22.3808 46.7636 22.372 46.7617 22.3631 46.7617C22.3541 46.7617 22.3453 46.7636 22.3372 46.7673C22.3291 46.7709 22.322 46.7763 22.3162 46.7829L21.1303 48.1526C21.125 48.1586 21.1211 48.1655 21.1186 48.173C21.1162 48.1805 21.1153 48.1884 21.1161 48.1962C21.1169 48.204 21.1192 48.2116 21.1231 48.2185C21.1269 48.2255 21.1321 48.2316 21.1384 48.2365L22.3257 49.1706C22.3365 49.1789 22.3499 49.1834 22.3637 49.1834C22.3775 49.1834 22.3909 49.1789 22.4017 49.1706L23.5877 48.2339Z" fill="#1D1D1F"/>
  <path d="M65.7754 31.7164H77.8821C77.8935 31.7163 77.9047 31.7132 77.9143 31.7074C77.9239 31.7016 77.9315 31.6933 77.9364 31.6836L84.9545 16.8874C84.9792 16.8349 85.019 16.7904 85.069 16.7592C85.1191 16.7281 85.1773 16.7115 85.2367 16.7116H88.9045C88.9385 16.7116 88.9717 16.7209 89.0004 16.7386C89.029 16.7563 89.0518 16.7815 89.066 16.8113L97.5849 34.6197C97.6059 34.6635 97.6151 34.7117 97.6117 34.7599C97.6084 34.8081 97.5925 34.8546 97.5656 34.8953C97.5387 34.9359 97.5016 34.9694 97.4578 34.9925C97.414 35.0157 97.3648 35.0278 97.3149 35.0277H93.8153C93.7668 35.0277 93.7192 35.0143 93.6783 34.9889C93.6374 34.9636 93.6049 34.9274 93.5847 34.8847L87.0645 21.2562C87.0619 21.25 87.0573 21.2447 87.0515 21.2409C87.0457 21.2372 87.0389 21.2352 87.032 21.2352C87.025 21.2352 87.0182 21.2372 87.0124 21.2409C87.0066 21.2447 87.0021 21.25 86.9994 21.2562L80.5526 34.848C80.5267 34.9021 80.4853 34.9479 80.4334 34.9799C80.3814 35.012 80.3211 35.0291 80.2595 35.0291C77.2941 35.0282 71.9147 35.0286 64.1213 35.0304C63.5523 35.0304 63.1692 34.9871 62.972 34.9005C62.6816 34.7737 62.4812 34.5581 62.3708 34.2537C62.3102 34.0893 62.2799 33.8159 62.2799 33.4337C62.2817 25.4011 62.2817 17.274 62.2799 9.05241C62.2799 8.55562 62.502 8.20577 62.9462 8.00285C63.1235 7.92238 63.3768 7.87953 63.7061 7.87428C64.4361 7.86247 65.1594 7.78769 65.5461 8.49483C65.6474 8.68025 65.6976 8.97369 65.6967 9.37515C65.6859 14.6702 65.6859 22.0923 65.6967 31.6416C65.6976 31.6914 65.7239 31.7164 65.7754 31.7164Z" fill="#1D1D1F"/>
  <path d="M148.849 7.90841C148.891 7.88521 148.938 7.873 148.986 7.87299H151.67C151.919 7.87299 152.043 7.99282 152.043 8.23246V24.4639C152.043 24.4824 152.039 24.5007 152.031 24.5177C152.023 24.5347 152.011 24.5499 151.996 24.5623C151.947 24.6017 151.892 24.6235 151.83 24.6279C151.784 24.6314 151.745 24.617 151.712 24.5846C150.453 23.3217 149.572 22.4483 149.069 21.9647C148.941 21.8422 148.836 21.7198 148.753 21.5973C148.67 21.474 148.628 21.3249 148.629 21.1499C148.637 16.4654 148.637 12.1911 148.629 8.32693C148.629 8.12926 148.703 7.98975 148.849 7.90841Z" fill="#1D1D1F"/>
  <path d="M123.745 12.2405L121.826 10.3921C121.687 10.2581 121.462 10.2584 121.323 10.3929L119.411 12.2478C119.273 12.3823 119.273 12.5999 119.412 12.7339L121.331 14.5823C121.47 14.7164 121.695 14.716 121.834 14.5815L123.745 12.7266C123.884 12.5921 123.884 12.3745 123.745 12.2405Z" fill="#1D1D1F"/>
  <path d="M100.122 22.9448V17.1014C100.122 16.8416 100.256 16.7118 100.525 16.7118H103.483C103.512 16.7118 103.541 16.7173 103.568 16.7282C103.594 16.739 103.618 16.7548 103.638 16.7747L113.979 27.1523C113.983 27.1565 113.989 27.1595 113.995 27.1607C114.001 27.1619 114.007 27.1614 114.013 27.1591C114.018 27.1568 114.023 27.1529 114.026 27.1479C114.029 27.143 114.031 27.1371 114.031 27.1313V17.0529C114.031 16.9624 114.068 16.8756 114.134 16.8117C114.2 16.7477 114.29 16.7118 114.384 16.7118H117.093C117.186 16.7118 117.274 16.7471 117.339 16.8101C117.404 16.8731 117.441 16.9585 117.441 17.0476V34.8009C117.441 34.848 117.426 34.8938 117.399 34.9328C117.371 34.9717 117.333 35.002 117.288 35.0197C117.243 35.0374 117.193 35.0417 117.146 35.0322C117.098 35.0227 117.054 34.9998 117.02 34.9662L103.656 21.7601C103.572 21.6779 103.531 21.6941 103.531 21.8087V26.0069C103.531 26.0859 103.498 26.1617 103.441 26.2175C103.383 26.2734 103.304 26.3047 103.223 26.3047H96.0947C96.0097 26.3047 95.9482 26.268 95.9102 26.1945C95.3692 25.152 94.9427 24.3211 94.6306 23.7018C94.5564 23.5549 94.5071 23.4355 94.4827 23.3437C94.4727 23.3059 94.4719 23.2665 94.4801 23.2283C94.4884 23.1902 94.5055 23.1544 94.5303 23.1236C94.555 23.0929 94.5867 23.068 94.6229 23.0509C94.6591 23.0338 94.6988 23.0249 94.7391 23.0249H100.039C100.061 23.0249 100.082 23.0164 100.098 23.0014C100.113 22.9864 100.122 22.9661 100.122 22.9448Z" fill="#1D1D1F"/>
  <path d="M122.032 16.7025H121.112C120.425 16.7025 119.867 17.2412 119.867 17.9056V33.8169C119.867 34.4814 120.425 35.02 121.112 35.02H122.032C122.719 35.02 123.276 34.4814 123.276 33.8169V17.9056C123.276 17.2412 122.719 16.7025 122.032 16.7025Z" fill="#1D1D1F"/>
  <path d="M135.563 16.7118C136.194 16.7118 136.815 16.7135 137.424 16.717C137.46 16.717 137.495 16.7263 137.525 16.7438C137.556 16.7614 137.581 16.7865 137.598 16.8167C137.698 16.9881 137.793 17.1705 137.884 17.3638C141.83 25.6851 144.563 31.4454 146.083 34.6448C146.102 34.6857 146.111 34.7307 146.107 34.7755C146.104 34.8204 146.089 34.8637 146.064 34.9015C146.039 34.9394 146.004 34.9705 145.964 34.9922C145.923 35.0138 145.877 35.0252 145.831 35.0253H142.349C142.288 35.0253 142.228 35.0084 142.177 34.9765C142.126 34.9446 142.085 34.8992 142.06 34.8455L135.58 21.1908C135.579 21.1908 135.577 21.1903 135.572 21.1894C135.569 21.1894 135.567 21.1894 135.564 21.1894C135.561 21.1894 135.559 21.1894 135.556 21.1894C135.551 21.1903 135.549 21.1908 135.548 21.1908L129.076 34.8482C129.051 34.9021 129.01 34.9478 128.959 34.9799C128.908 35.012 128.848 35.0291 128.787 35.0292L125.305 35.0305C125.259 35.0304 125.213 35.019 125.172 34.9974C125.132 34.9758 125.097 34.9446 125.072 34.9068C125.047 34.8689 125.032 34.8256 125.029 34.7808C125.025 34.7359 125.034 34.691 125.053 34.6501C126.571 31.4498 129.301 25.6881 133.242 17.3651C133.334 17.1718 133.429 16.9894 133.529 16.818C133.546 16.7878 133.571 16.7627 133.601 16.7452C133.632 16.7276 133.667 16.7183 133.702 16.7183C134.312 16.7139 134.932 16.7118 135.563 16.7118Z" fill="#1D1D1F"/>
  <path d="M154.019 22.5787C153.834 22.3701 153.889 22.1851 154.116 22.0211C156.242 20.4827 158.664 18.7316 161.384 16.7681C161.434 16.7323 161.495 16.713 161.557 16.713C163.184 16.7112 164.826 16.7108 166.484 16.7117C166.54 16.7117 166.588 16.7226 166.63 16.7445C166.718 16.7891 166.749 16.8665 166.723 16.9767C166.714 17.0181 166.689 17.0549 166.653 17.0803L157.358 23.7621C157.339 23.7752 157.325 23.7921 157.315 23.8114C157.304 23.8308 157.299 23.8521 157.299 23.8736V25.0898C157.299 25.1538 157.324 25.2149 157.37 25.2603C158.058 25.9548 161.132 29.0598 166.59 34.5752C166.654 34.6391 166.699 34.7047 166.723 34.772C166.733 34.7991 166.736 34.8282 166.732 34.8567C166.728 34.8852 166.717 34.9124 166.7 34.9359C166.683 34.9594 166.66 34.9786 166.634 34.9919C166.607 35.0051 166.578 35.0121 166.548 35.0121C165.481 35.013 164.049 35.013 162.252 35.0121C162.14 35.0121 162.016 34.9373 161.882 34.7877C161.788 34.6819 161.738 34.6268 161.732 34.6224C158.221 30.9883 155.657 28.3373 154.041 26.6694C153.87 26.4927 153.864 26.3226 154.024 26.159C154.054 26.1267 154.061 26.0904 154.043 26.0501C153.979 25.915 153.916 25.7864 153.915 25.65C153.907 24.9214 153.905 24.0844 153.911 23.1389C153.912 23.0567 153.927 22.9706 153.957 22.8805C153.996 22.7668 154.019 22.7042 154.025 22.6929C154.052 22.6509 154.05 22.6128 154.019 22.5787Z" fill="#1D1D1F"/>
  <path d="M193.642 21.205C193.639 21.1989 193.634 21.1938 193.628 21.1903C193.622 21.1867 193.615 21.1849 193.608 21.1851C193.601 21.1852 193.594 21.1873 193.588 21.191C193.583 21.1948 193.578 21.2001 193.575 21.2063L187.08 34.8991C187.061 34.9375 187.032 34.9701 186.995 34.9929C186.958 35.0157 186.916 35.0277 186.872 35.0277C181.365 35.0294 175.851 35.0294 170.328 35.0277C169.849 35.0277 169.53 35.0447 169.196 34.8086C168.843 34.5584 168.666 34.2165 168.666 33.7826C168.667 28.3258 168.666 23.0561 168.664 17.9736C168.664 17.4532 168.863 17.0889 169.261 16.8808C169.479 16.7671 169.854 16.7102 170.389 16.7102C174.274 16.7111 178.16 16.7115 182.045 16.7115C182.528 16.7124 182.872 16.7653 183.077 16.8703C183.764 17.2232 183.705 17.9776 183.693 18.7267C183.684 19.2462 183.493 19.6149 183.12 19.8327C182.902 19.9604 182.527 20.0242 181.994 20.0242C178.095 20.0242 174.805 20.0238 172.126 20.0229C172.113 20.0229 172.1 20.0281 172.09 20.0375C172.081 20.0468 172.076 20.0595 172.076 20.0727V31.6704C172.076 31.701 172.092 31.7163 172.123 31.7163H184.413C184.451 31.7163 184.478 31.7001 184.493 31.6678L191.509 16.8768C191.532 16.8275 191.57 16.7857 191.617 16.7564C191.665 16.7271 191.72 16.7115 191.776 16.7115H195.403C195.462 16.7115 195.52 16.7278 195.57 16.7584C195.62 16.7891 195.659 16.833 195.684 16.8847L206.098 38.6592C206.12 38.7041 206.124 38.7549 206.11 38.8024C206.096 38.8498 206.065 38.8908 206.022 38.9176C205.925 38.9797 205.798 39.009 205.643 39.0055C205.537 39.0029 204.435 38.9998 202.338 38.9963C202.283 38.9963 202.228 38.9808 202.181 38.9517C202.134 38.9227 202.097 38.8812 202.074 38.8323L193.642 21.205Z" fill="#1D1D1F"/>
  <path d="M148.612 29.0965L144.923 25.4506C144.889 25.4161 144.869 25.3699 144.869 25.322V21.2615C144.869 21.2143 144.884 21.1682 144.91 21.1287C144.937 21.0893 144.975 21.0583 145.02 21.0395C145.065 21.0207 145.114 21.0149 145.163 21.0229C145.211 21.0309 145.255 21.0523 145.291 21.0844C145.535 21.3057 145.728 21.4828 145.869 21.6157C148.187 23.7988 150.194 25.7003 151.891 27.3201C151.983 27.4076 152.03 27.5108 152.032 27.6297C152.041 28.1694 152.046 30.5296 152.047 34.7103C152.047 34.7942 152.013 34.8746 151.952 34.9339C151.89 34.9932 151.807 35.0265 151.72 35.0265H149.025C148.776 35.0265 148.651 34.9063 148.651 34.6657V29.1883C148.651 29.1539 148.637 29.1209 148.612 29.0965Z" fill="#1D1D1F"/>
  <path d="M180.106 24.9634L178.193 23.1135C178.054 22.9793 177.829 22.9793 177.69 23.1135L175.777 24.9634C175.638 25.0976 175.638 25.3152 175.777 25.4495L177.69 27.2993C177.829 27.4335 178.054 27.4335 178.193 27.2993L180.106 25.4495C180.245 25.3152 180.245 25.0976 180.106 24.9634Z" fill="#1D1D1F"/>
  <path d="M102.376 27.892H101.261C100.623 27.892 100.106 28.3919 100.106 29.0085V41.926C100.106 42.5426 100.623 43.0424 101.261 43.0424H102.376C103.014 43.0424 103.531 42.5426 103.531 41.926V29.0085C103.531 28.3919 103.014 27.892 102.376 27.892Z" fill="#1D1D1F"/>
</svg>