<svg width="140" height="64" viewBox="0 0 140 64" fill="none" xmlns="http://www.w3.org/2000/svg">
<path d="M81.3523 25.7836V38.9166H85.0585V25.7836H81.3523ZM52.1926 25.7614V38.9055H55.9322V28.6996L58.8482 28.7107C59.8053 28.7107 60.4731 28.9445 60.9294 29.4342C61.5193 30.0574 61.753 31.0702 61.753 32.9066V38.9055H65.3813V31.649C65.3813 26.4626 62.0758 25.7614 58.8482 25.7614H52.1926ZM87.329 25.7836V38.9166H93.339C96.5443 38.9166 97.5905 38.3824 98.7146 37.1916C99.5159 36.3568 100.028 34.5093 100.028 32.4948C100.028 30.6473 99.5938 29.0001 98.8259 27.9762C97.4681 26.1398 95.487 25.7836 92.5265 25.7836H87.329ZM91.0018 28.6328H92.5933C94.9083 28.6328 96.3996 29.6679 96.3996 32.3613C96.3996 35.0547 94.9083 36.1008 92.5933 36.1008H91.0018V28.6328ZM76.0101 25.7836L72.9161 36.1899L69.9556 25.7836H65.9489L70.1782 38.9166H75.5204L79.7942 25.7836H76.0101ZM101.764 38.9166H105.47V25.7836H101.764V38.9166ZM112.159 25.7836L106.984 38.9055H110.634L111.458 36.5794H117.579L118.358 38.8944H122.332L117.112 25.7836H112.159ZM114.563 28.1765L116.811 34.3201H112.248L114.563 28.1765Z" fill="#1D1D1F"/>
<path d="M28.2743 27.9655V26.1625C28.4524 26.1514 28.6305 26.1402 28.8086 26.1402C33.7501 25.9844 36.9889 30.3918 36.9889 30.3918C36.9889 30.3918 33.4942 35.2443 29.7435 35.2443C29.2426 35.2443 28.7529 35.1664 28.2855 35.0106V29.5348C30.2109 29.7685 30.6004 30.6144 31.7468 32.5398L34.3178 30.3806C34.3178 30.3806 32.4368 27.921 29.276 27.921C28.9421 27.9098 28.6082 27.9321 28.2743 27.9655ZM28.2743 22V24.6934L28.8086 24.66C35.6756 24.4263 40.1608 30.2916 40.1608 30.2916C40.1608 30.2916 35.0189 36.5465 29.6656 36.5465C29.1981 36.5465 28.7418 36.5019 28.2855 36.424V38.0935C28.6639 38.138 29.0534 38.1714 29.4318 38.1714C34.4179 38.1714 38.0239 35.6227 41.5186 32.6177C42.0974 33.0851 44.468 34.2092 44.9577 34.6989C41.6411 37.4814 33.906 39.7184 29.5209 39.7184C29.0979 39.7184 28.6973 39.6962 28.2966 39.6516V42H47.2393V22H28.2743ZM28.2743 35.0106V36.4352C23.6667 35.6116 22.3868 30.8147 22.3868 30.8147C22.3868 30.8147 24.6016 28.3662 28.2743 27.9655V29.5237H28.2632C26.3378 29.2899 24.8242 31.0929 24.8242 31.0929C24.8242 31.0929 25.6811 34.1313 28.2743 35.0106ZM20.094 30.6144C20.094 30.6144 22.8208 26.5854 28.2855 26.1625V24.6934C22.2309 25.1831 17 30.3027 17 30.3027C17 30.3027 19.9605 38.8726 28.2743 39.6516V38.0935C22.1753 37.3367 20.094 30.6144 20.094 30.6144Z" fill="#1D1D1F"/>
</svg>
