<svg width="262" height="120" viewBox="0 0 262 120" fill="none" xmlns="http://www.w3.org/2000/svg">
<path d="M155.021 47.9582V75.5131H162.797V47.9582H155.021ZM93.8393 47.9115V75.4898H101.685V54.0763L107.804 54.0997C109.812 54.0997 111.213 54.59 112.17 55.6175C113.408 56.9252 113.898 59.0502 113.898 62.9032V75.4898H121.511V60.2645C121.511 49.3826 114.576 47.9115 107.804 47.9115H93.8393ZM167.56 47.9582V75.5131H180.17C186.896 75.5131 189.091 74.3922 191.449 71.8936C193.13 70.1422 194.205 66.2659 194.205 62.0392C194.205 58.1628 193.294 54.7068 191.683 52.5585C188.834 48.7054 184.677 47.9582 178.466 47.9582H167.56ZM175.266 53.9362H178.606C183.463 53.9362 186.592 56.1079 186.592 61.759C186.592 67.4101 183.463 69.6052 178.606 69.6052H175.266V53.9362ZM143.812 47.9582L137.32 69.792L131.108 47.9582H122.702L131.576 75.5131H142.784L151.751 47.9582H143.812ZM197.847 75.5131H205.624V47.9582H197.847V75.5131ZM219.658 47.9582L208.799 75.4898H216.459L218.187 70.6093H231.03L232.665 75.4664H241.001L230.049 47.9582H219.658ZM224.702 52.9788L229.419 65.8689H219.845L224.702 52.9788Z" fill="#1D1D1F"/>
<path d="M43.6552 52.536V48.753C44.0288 48.7297 44.4025 48.7063 44.7761 48.7063C55.1442 48.3794 61.9396 57.6267 61.9396 57.6267C61.9396 57.6267 54.6071 67.808 46.7376 67.808C45.6868 67.808 44.6593 67.6445 43.6786 67.3176V55.8286C47.7184 56.319 48.5357 58.0937 50.9409 62.1335L56.3352 57.6033C56.3352 57.6033 52.3887 52.4426 45.7569 52.4426C45.0563 52.4193 44.3558 52.466 43.6552 52.536ZM43.6552 40.0195V45.6706L44.7761 45.6006C59.1841 45.1102 68.5948 57.4165 68.5948 57.4165C68.5948 57.4165 57.8063 70.5401 46.5742 70.5401C45.5934 70.5401 44.636 70.4467 43.6786 70.2833V73.786C44.4725 73.8794 45.2898 73.9495 46.0838 73.9495C56.5453 73.9495 64.1113 68.602 71.4437 62.297C72.658 63.2778 77.6319 65.6363 78.6593 66.6638C71.7005 72.5017 55.4712 77.1954 46.2706 77.1954C45.3832 77.1954 44.5426 77.1487 43.7019 77.0552V81.9824H83.4464V40.0195H43.6552ZM43.6552 67.3176V70.3066C33.9876 68.5786 31.3022 58.514 31.3022 58.514C31.3022 58.514 35.9492 53.3767 43.6552 52.536V55.8052H43.6319C39.592 55.3149 36.4162 59.0978 36.4162 59.0978C36.4162 59.0978 38.2143 65.4728 43.6552 67.3176ZM26.4918 58.0937C26.4918 58.0937 32.2129 49.6404 43.6786 48.753V45.6706C30.9753 46.6981 20 57.4399 20 57.4399C20 57.4399 26.2115 75.4206 43.6552 77.0552V73.786C30.8585 72.1981 26.4918 58.0937 26.4918 58.0937Z" fill="#1D1D1F"/>
</svg>
