<svg xmlns="http://www.w3.org/2000/svg" width="140" height="64" viewBox="0 0 140 64" fill="none">
  <path fill-rule="evenodd" clip-rule="evenodd" d="M49.1044 31.5488C49.1044 38.1762 43.7152 43.5488 37.0674 43.5488C30.7603 43.5488 25.5861 38.7129 25.0723 32.5575H40.9825V30.5401H25.0723C25.5861 24.3847 30.7603 19.5488 37.0674 19.5488C43.7152 19.5488 49.1044 24.9214 49.1044 31.5488ZM93.7301 41.3749C97.901 41.3749 100.637 39.1298 100.637 35.7489C100.637 32.6114 98.5781 31.1237 95.4636 30.6098L92.701 30.15C90.5886 29.7984 89.1801 28.8788 89.1801 26.8502C89.1801 24.7946 90.7511 23.2258 93.7301 23.2258C96.6282 23.2258 98.1177 24.6864 98.2802 26.7691H100.366C100.203 24.0102 98.0906 21.5489 93.7572 21.5489C89.478 21.5489 87.1218 23.9561 87.1218 26.9313C87.1218 30.0959 89.2613 31.5565 92.1864 32.0433L94.9761 32.4761C97.3052 32.8818 98.6052 33.8285 98.6052 35.83C98.6052 38.1831 96.6823 39.6978 93.7572 39.6978C90.724 39.6978 88.828 38.2373 88.6655 35.7489H86.6072C86.7697 38.9946 89.2613 41.3749 93.7301 41.3749ZM62.982 40.9961H55.3985V21.9546H62.7111C65.9342 21.9546 68.182 23.8479 68.182 26.8773C68.182 29.0681 66.9362 30.5287 64.9321 31.0155V31.0967C67.3154 31.5565 68.7778 33.1793 68.7778 35.7218C68.7778 38.9946 66.3675 40.9961 62.982 40.9961ZM62.4403 30.3123C64.7425 30.3123 66.1508 29.0681 66.1508 27.1207V26.8502C66.1508 24.9028 64.7425 23.6856 62.4403 23.6856H57.4299V30.3123H62.4403ZM62.6841 39.265C65.2029 39.265 66.7467 37.8856 66.7467 35.7759V35.5054C66.7467 33.3146 65.1759 31.9893 62.657 31.9893H57.4299V39.265H62.6841ZM85.1813 40.9961H83.0144L81.3895 35.83H73.806L72.181 40.9961H70.1226L76.379 21.9546H78.8435L85.1813 40.9961ZM77.7061 24.0372H77.5436L74.3476 34.126H80.8749L77.7061 24.0372ZM103.688 40.9961V21.9546H115.929V23.7127H105.719V30.2582H115.117V31.9893H105.719V39.238H115.929V40.9961H103.688Z" fill="#1D1D1F"/>
</svg>