<svg xmlns="http://www.w3.org/2000/svg" width="174" height="47" viewBox="0 0 174 47" fill="none">
  <path fill-rule="evenodd" clip-rule="evenodd" d="M46.5567 23.7145C46.5567 36.3381 36.2916 46.5716 23.629 46.5716C11.6155 46.5716 1.76005 37.3604 0.78125 25.6359H31.0863V21.7932H0.78125C1.76005 10.0687 11.6155 0.857422 23.629 0.857422C36.2916 0.857422 46.5567 11.0909 46.5567 23.7145ZM131.558 42.4308C139.503 42.4308 144.713 38.1545 144.713 31.7146C144.713 25.7384 140.792 22.9048 134.86 21.9259L129.598 21.0501C125.574 20.3804 122.891 18.6287 122.891 14.7648C122.891 10.8493 125.884 7.86121 131.558 7.86121C137.078 7.86121 139.915 10.6433 140.225 14.6102H144.197C143.888 9.35528 139.864 4.66702 131.61 4.66702C123.459 4.66702 118.971 9.25221 118.971 14.9193C118.971 20.9471 123.046 23.7291 128.618 24.6564L133.931 25.4808C138.368 26.2535 140.844 28.0567 140.844 31.8692C140.844 36.3513 137.181 39.2364 131.61 39.2364C125.832 39.2364 122.221 36.4544 121.911 31.7146H117.991C118.3 37.8969 123.046 42.4308 131.558 42.4308ZM72.9901 41.7093H58.5453V5.43981H72.4742C78.6133 5.43981 82.8949 9.04617 82.8949 14.8163C82.8949 18.9893 80.522 21.7714 76.7047 22.6987V22.8533C81.2442 23.7291 84.0298 26.8203 84.0298 31.6631C84.0298 37.8969 79.4387 41.7093 72.9901 41.7093ZM71.9584 21.3593C76.3436 21.3593 79.026 18.9893 79.026 15.28V14.7648C79.026 11.0554 76.3436 8.73702 71.9584 8.73702H62.4147V21.3593H71.9584ZM72.4227 38.4121C77.2205 38.4121 80.1609 35.7846 80.1609 31.7661V31.2509C80.1609 27.0778 77.1689 24.5534 72.3711 24.5534H62.4147V38.4121H72.4227ZM115.274 41.7093H111.147L108.052 31.8692H93.6072L90.5121 41.7093H86.5912L98.5083 5.43981H103.203L115.274 41.7093ZM101.036 9.40677H100.726L94.6389 28.6234H107.072L101.036 9.40677ZM150.524 41.7093V5.43981H173.842V8.78855H154.394V21.2562H172.295V24.5534H154.394V38.3606H173.842V41.7093H150.524Z" fill="#1D1D1F"/>
</svg>