<svg xmlns="http://www.w3.org/2000/svg" width="140" height="64" viewBox="0 0 140 64" fill="none">
  <path fill-rule="evenodd" clip-rule="evenodd" d="M37.8639 19.5488L48.2189 25.4559L48.2223 29.4863L44.5074 31.6353L48.2238 33.778L48.2274 37.4514L37.8979 43.5488L34.5849 41.6567L34.5633 37.3879L30.8564 39.5322L27.546 37.6415L27.5352 25.6488L30.7908 23.7269L34.5048 25.8683L34.4829 21.5478L37.8639 19.5488ZM34.5161 28.0964L30.8022 25.9552L29.4608 26.7471L29.4697 36.5238L30.8503 37.3123L34.552 35.1709L34.5161 28.0964ZM36.471 34.0608L36.4464 29.2093L40.659 31.6381L36.471 34.0608ZM36.4822 36.2777L36.5039 40.5363L37.8819 41.3233L46.3016 36.3531L46.3002 34.8906L42.584 32.748L36.4822 36.2777ZM42.5824 30.5254L36.4351 26.9812L36.4131 22.6425L37.8812 21.7745L46.2952 26.5743L46.2968 28.3767L42.5824 30.5254Z" fill="#1D1D1F"/>
  <path d="M61.0445 38.0951H54.228C54.1118 38.0951 54.0179 38.0011 54.0179 37.885V27.1831C54.0179 27.0669 54.1118 26.973 54.228 26.973H60.8493C63.1899 26.973 64.6605 28.1446 64.6605 30.0205C64.6605 31.2241 64.1118 32.0817 63.2591 32.3783C64.2354 32.7219 64.8532 33.5499 64.8532 34.9561C64.8532 37.0026 63.2764 38.0951 61.0421 38.0951H61.0445ZM56.141 28.4881C56.0273 28.4881 55.9334 28.582 55.9334 28.6957V31.3502C55.9334 31.4663 56.0273 31.5603 56.1435 31.5603H60.6936C61.917 31.5603 62.75 31.1129 62.75 30.0823C62.75 29.0516 61.917 28.4881 60.6936 28.4881H56.141ZM60.8814 33.3101H56.1435C56.0273 33.3101 55.9334 33.404 55.9334 33.5202V36.3699C55.9334 36.486 56.0273 36.58 56.1435 36.58H60.8691C62.1988 36.58 62.9427 35.8608 62.9427 34.877C62.9427 33.8934 62.2111 33.3101 60.8814 33.3101Z" fill="#1D1D1F"/>
  <path d="M69.1726 38.0917H68.7104C67.2522 38.0917 66.0707 36.9969 66.0707 35.6449C66.0707 34.3375 67.2126 33.2772 68.6238 33.2747L71.7356 33.2698C71.8616 33.2698 71.9629 33.1758 71.9629 33.0597V32.6099C71.9629 32.2243 71.6515 31.9128 71.266 31.9104L66.7752 31.903C66.659 31.903 66.5651 31.8091 66.5651 31.6929V30.6425C66.5651 30.5214 66.664 30.425 66.7826 30.425H71.565C72.7242 30.425 73.6658 31.3666 73.6658 32.5258V37.8743C73.6658 37.9929 73.562 38.0868 73.436 38.0868H69.1701L69.1726 38.0917ZM71.7381 34.7007H68.7944C68.1889 34.7007 67.6995 35.1556 67.6995 35.7166C67.6995 36.2529 68.1691 36.6879 68.7499 36.6879L71.7381 36.683C71.8641 36.683 71.9654 36.5891 71.9654 36.4729V34.9133C71.9654 34.7972 71.8641 34.7033 71.7405 34.7033L71.7381 34.7007Z" fill="#1D1D1F"/>
  <path d="M75.6461 26.9531H77.0351C77.1512 26.9531 77.2452 27.047 77.2452 27.1632L77.2403 37.8847C77.2403 38.0009 77.1463 38.0948 77.0302 38.0948H75.6461C75.5299 38.0948 75.436 38.0009 75.436 37.8847V27.1632C75.436 27.047 75.5299 26.9531 75.6461 26.9531Z" fill="#1D1D1F"/>
  <path d="M94.3067 37.8842V33.1438C94.3091 32.5629 93.8394 32.0933 93.2584 32.0933H90.8412C90.2632 32.0933 89.7934 32.5629 89.791 33.1413L89.776 37.8867C89.776 38.0028 89.6822 38.0968 89.5661 38.0968H87.9993C87.8832 38.0968 87.7888 38.0028 87.7888 37.8867L87.799 32.5431C87.799 31.384 88.7433 30.4448 89.9023 30.4448H94.1979C95.3593 30.4448 96.3011 31.3865 96.2987 32.5481V37.8892C96.2963 38.0053 96.2025 38.0992 96.0858 38.0992H94.519C94.403 38.0992 94.3091 38.0053 94.3091 37.8892L94.3067 37.8842Z" fill="#1D1D1F"/>
  <path d="M97.9463 34.9455V33.5811C97.9439 31.8387 99.3555 30.425 101.098 30.425H104.565C104.681 30.425 104.775 30.5189 104.775 30.635V31.8856C104.775 32.0018 104.681 32.0957 104.565 32.0957H101.142C100.25 32.0957 99.5281 32.8199 99.5305 33.7121L99.5359 35.0493C99.5384 35.9365 100.26 36.6558 101.147 36.6558H104.565C104.681 36.6558 104.775 36.7497 104.775 36.8659V37.8841C104.775 38.0003 104.681 38.0942 104.565 38.0942H101.098C99.3579 38.0942 97.9463 36.6854 97.9439 34.9455H97.9463Z" fill="#1D1D1F"/>
  <path d="M81.7136 38.0917H81.2514C79.7932 38.0917 78.6118 36.9969 78.6118 35.6449C78.6118 34.3375 79.7536 33.2772 81.1649 33.2747L84.2766 33.2698C84.4026 33.2698 84.504 33.1758 84.504 33.0597V32.6099C84.504 32.2243 84.1926 31.9128 83.807 31.9104L79.3162 31.903C79.2 31.903 79.1061 31.8091 79.1061 31.6929V30.6425C79.1061 30.5214 79.2049 30.425 79.3236 30.425H84.1061C85.2652 30.425 86.2069 31.3666 86.2069 32.5258V37.8743C86.2069 37.9929 86.1031 38.0868 85.977 38.0868H81.7111L81.7136 38.0917ZM84.279 34.7007H81.3354C80.7299 34.7007 80.2405 35.1556 80.2405 35.7166C80.2405 36.2529 80.7101 36.6879 81.291 36.6879L84.279 36.683C84.4051 36.683 84.5065 36.5891 84.5065 36.4729V34.9133C84.5065 34.7972 84.4051 34.7033 84.2815 34.7033L84.279 34.7007Z" fill="#1D1D1F"/>
  <path d="M110.825 30.4284C112.283 30.4284 113.465 31.5233 113.465 32.8752C113.465 33.3596 113.455 34.5484 113.452 35.0304C113.452 35.1466 113.359 35.238 113.243 35.238L107.802 35.2479C107.677 35.2479 107.575 35.3418 107.575 35.458V35.9078C107.575 36.2934 107.887 36.6048 108.272 36.6073L113.01 36.6147C113.126 36.6147 113.22 36.7086 113.22 36.8248V37.8751C113.22 37.9963 113.121 38.0927 113.003 38.0927H107.973C106.814 38.0927 105.872 37.151 105.872 35.9918V32.8703C105.872 31.5208 106.967 30.4284 108.314 30.4284H110.828H110.825ZM107.8 33.8169H110.744C110.946 33.8169 111.369 33.8169 111.623 33.8169C111.74 33.8169 111.831 33.7254 111.834 33.6093C111.834 33.3695 111.839 32.9864 111.839 32.801C111.839 32.2647 111.369 31.8298 110.788 31.8298L108.522 31.8347C107.998 31.8347 107.573 32.2623 107.573 32.7863V33.6068C107.573 33.723 107.674 33.8169 107.8 33.8169Z" fill="#1D1D1F"/>
</svg>