<svg xmlns="http://www.w3.org/2000/svg" width="185" height="52" viewBox="0 0 185 52" fill="none">
  <path fill-rule="evenodd" clip-rule="evenodd" d="M22.9728 0L45.1622 12.6579L45.1694 21.2945L37.209 25.8996L45.1726 30.491L45.1802 38.3625L23.0457 51.4285L15.9464 47.374L15.9 38.2265L7.95687 42.8215L0.863185 38.77L0.839844 13.0714L7.81621 8.95309L15.7747 13.5417L15.7278 4.28357L22.9728 0ZM15.799 18.3162L7.84074 13.7279L4.96622 15.4248L4.98526 36.3749L7.94372 38.0645L15.8759 33.4758L15.799 18.3162ZM19.9881 31.097L19.9353 20.7011L28.9623 25.9055L19.9881 31.097ZM20.0121 35.8476L20.0585 44.973L23.0114 46.6595L41.0536 36.0091L41.0507 32.8752L33.0873 28.2839L20.0121 35.8476ZM33.0838 23.5212L19.9111 15.9265L19.8639 6.62925L23.01 4.76925L41.0399 15.0545L41.0432 18.9168L33.0838 23.5212Z" fill="#1D1D1F"/>
  <path d="M72.6455 39.7419H58.0388C57.7898 39.7419 57.5886 39.5405 57.5886 39.2917V16.3592C57.5886 16.1102 57.7898 15.909 58.0388 15.909H72.2272C77.2427 15.909 80.394 18.4194 80.394 22.4392C80.394 25.0184 79.2182 26.8562 77.391 27.4917C79.483 28.2279 80.807 30.0022 80.807 33.0156C80.807 37.401 77.4281 39.7419 72.6403 39.7419H72.6455ZM62.138 19.1556C61.8943 19.1556 61.6931 19.3567 61.6931 19.6005V25.2886C61.6931 25.5374 61.8943 25.7388 62.1433 25.7388H71.8935C74.5151 25.7388 76.3 24.7801 76.3 22.5716C76.3 20.3631 74.5151 19.1556 71.8935 19.1556H62.138ZM72.296 29.4883H62.1433C61.8943 29.4883 61.6931 29.6897 61.6931 29.9385V36.0451C61.6931 36.294 61.8943 36.4953 62.1433 36.4953H72.2696C75.1189 36.4953 76.7131 34.9541 76.7131 32.8461C76.7131 30.7382 75.1453 29.4883 72.296 29.4883Z" fill="#1D1D1F"/>
  <path d="M90.0627 39.7347H89.0724C85.9476 39.7347 83.416 37.3886 83.416 34.4915C83.416 31.6899 85.8628 29.4178 88.8869 29.4125L95.5549 29.402C95.8249 29.402 96.0421 29.2007 96.0421 28.9518V27.9879C96.0421 27.1616 95.3747 26.4942 94.5486 26.489L84.9254 26.4731C84.6764 26.4731 84.4753 26.2719 84.4753 26.0229V23.7721C84.4753 23.5125 84.6871 23.3059 84.9413 23.3059H95.1894C97.6733 23.3059 99.6911 25.3239 99.6911 27.8078V39.2687C99.6911 39.5229 99.4687 39.7242 99.1987 39.7242H90.0574L90.0627 39.7347ZM95.5602 32.4683H89.2524C87.9548 32.4683 86.9062 33.443 86.9062 34.6452C86.9062 35.7944 87.9124 36.7265 89.1571 36.7265L95.5602 36.7159C95.8302 36.7159 96.0474 36.5147 96.0474 36.2657V32.9238C96.0474 32.6749 95.8302 32.4738 95.5655 32.4738L95.5602 32.4683Z" fill="#1D1D1F"/>
  <path d="M103.934 15.8662H106.911C107.16 15.8662 107.361 16.0674 107.361 16.3164L107.351 39.2911C107.351 39.5401 107.149 39.7413 106.9 39.7413H103.934C103.686 39.7413 103.484 39.5401 103.484 39.2911V16.3164C103.484 16.0674 103.686 15.8662 103.934 15.8662Z" fill="#1D1D1F"/>
  <path d="M143.922 39.2901V29.1319C143.927 27.8873 142.92 26.881 141.675 26.881H136.495C135.257 26.881 134.25 27.8873 134.245 29.1267L134.213 39.2954C134.213 39.5442 134.012 39.7456 133.763 39.7456H130.406C130.157 39.7456 129.955 39.5442 129.955 39.2954L129.976 27.8449C129.976 25.3611 132 23.3485 134.483 23.3485H143.688C146.177 23.3485 148.195 25.3664 148.19 27.8556V39.3007C148.185 39.5495 147.984 39.7508 147.734 39.7508H144.377C144.128 39.7508 143.927 39.5495 143.927 39.3007L143.922 39.2901Z" fill="#1D1D1F"/>
  <path d="M151.721 32.9928V30.0692C151.715 26.3355 154.74 23.3059 158.474 23.3059H165.904C166.153 23.3059 166.354 23.5073 166.354 23.7561V26.436C166.354 26.685 166.153 26.8862 165.904 26.8862H158.569C156.657 26.8862 155.11 28.438 155.115 30.3499L155.127 33.2152C155.132 35.1165 156.679 36.6577 158.58 36.6577H165.904C166.153 36.6577 166.354 36.859 166.354 37.1078V39.2898C166.354 39.5388 166.153 39.74 165.904 39.74H158.474C154.746 39.74 151.721 36.7212 151.715 32.9928H151.721Z" fill="#1D1D1F"/>
  <path d="M116.936 39.7347H115.946C112.821 39.7347 110.29 37.3886 110.29 34.4915C110.29 31.6899 112.736 29.4178 115.761 29.4125L122.428 29.402C122.699 29.402 122.916 29.2007 122.916 28.9518V27.9879C122.916 27.1616 122.248 26.4942 121.422 26.489L111.799 26.4731C111.55 26.4731 111.349 26.2719 111.349 26.0229V23.7721C111.349 23.5125 111.561 23.3059 111.815 23.3059H122.063C124.547 23.3059 126.565 25.3239 126.565 27.8078V39.2687C126.565 39.5229 126.342 39.7242 126.072 39.7242H116.931L116.936 39.7347ZM122.434 32.4683H116.126C114.828 32.4683 113.78 33.443 113.78 34.6452C113.78 35.7944 114.786 36.7265 116.031 36.7265L122.434 36.7159C122.704 36.7159 122.921 36.5147 122.921 36.2657V32.9238C122.921 32.6749 122.704 32.4738 122.439 32.4738L122.434 32.4683Z" fill="#1D1D1F"/>
  <path d="M179.319 23.3133C182.443 23.3133 184.975 25.6595 184.975 28.5565C184.975 29.5945 184.953 32.142 184.948 33.1747C184.948 33.4237 184.747 33.6196 184.498 33.6196L172.841 33.6408C172.572 33.6408 172.354 33.8421 172.354 34.091V35.0549C172.354 35.8811 173.021 36.5485 173.847 36.5538L184.001 36.5696C184.25 36.5696 184.451 36.7708 184.451 37.0198V39.2706C184.451 39.5302 184.238 39.7368 183.984 39.7368H173.207C170.723 39.7368 168.705 37.7189 168.705 35.2349V28.5459C168.705 25.6542 171.051 23.3133 173.938 23.3133H179.324H179.319ZM172.836 30.5744H179.143C179.578 30.5744 180.484 30.5744 181.029 30.5744C181.278 30.5744 181.473 30.3784 181.48 30.1295C181.48 29.6158 181.49 28.7948 181.49 28.3976C181.49 27.2483 180.484 26.3162 179.239 26.3162L174.382 26.3268C173.26 26.3268 172.349 27.243 172.349 28.3659V30.1242C172.349 30.3731 172.566 30.5744 172.836 30.5744Z" fill="#1D1D1F"/>
</svg>