<svg xmlns="http://www.w3.org/2000/svg" width="140" height="64" viewBox="0 0 140 64" fill="none">
  <path d="M112.063 21.1245C112.341 21.4501 112.525 21.8217 112.616 22.2394C112.758 22.8989 112.746 23.6133 112.58 24.3826C112.514 24.6927 112.406 24.9478 112.257 25.1481C111.921 25.6001 111.486 25.9457 110.952 26.1848C110.835 26.2375 110.589 26.3179 110.217 26.4261C109.918 26.5126 109.664 26.5531 109.455 26.5475C109.229 26.5409 108.958 26.4959 108.644 26.4127C107.494 26.1091 106.647 25.431 106.278 24.3335C106.109 23.8316 106.056 23.3118 106.119 22.7744C106.159 22.4299 106.303 22.1462 106.47 21.751C106.734 21.1261 107.283 20.6411 107.909 20.2883C108.123 20.1674 108.4 20.0895 108.739 20.0545C109.331 19.9946 109.771 19.9841 110.058 20.0229C110.861 20.1322 111.53 20.4994 112.063 21.1245Z" fill="#1D1D1F"/>
  <path d="M74.7283 36.4791C74.7182 36.4791 74.7082 36.4817 74.6994 36.4866C74.6907 36.4915 74.6834 36.4986 74.6783 36.5072C74.6732 36.5158 74.6704 36.5255 74.6703 36.5354C74.6702 36.5454 74.6728 36.5552 74.6777 36.564C74.7961 36.7686 74.863 36.9434 74.9273 37.1996C75.0777 37.792 75.3431 38.3339 75.7234 38.8254C76.2409 39.4943 76.9026 40.0462 77.7083 40.4811C78.024 40.6514 78.3683 40.7806 78.7411 40.8688C79.5998 41.0726 80.4344 41.1242 81.2571 40.9678C81.3629 40.9478 81.5785 40.9093 81.9039 40.8521C82.5941 40.7312 83.2372 40.4555 83.8331 40.0251C83.9469 39.9425 84.1825 39.7417 84.5399 39.4227C84.8876 39.1116 85.1844 38.735 85.4303 38.2929C85.4847 38.1958 85.5619 38.1439 85.6619 38.1373C85.722 38.1329 85.8026 38.1542 85.9038 38.2014C86.4357 38.4482 87.0376 38.7042 87.7095 38.9693C87.9749 39.0741 88.2242 39.2034 88.4575 39.357C88.4715 39.366 88.4819 39.3793 88.4872 39.3949C88.4925 39.4104 88.4923 39.4272 88.4867 39.4427C88.4398 39.5664 88.3835 39.6793 88.3177 39.7813C88.1187 40.0903 87.8828 40.4281 87.61 40.7947C87.3612 41.1298 87.081 41.4321 86.7694 41.7016C86.1975 42.1969 85.7926 42.5142 85.5547 42.6534C84.7512 43.1233 83.9332 43.4866 83.1005 43.7434C82.7168 43.8615 82.2707 43.9336 81.7623 43.9597C80.9617 44.0002 80.1391 43.9949 79.2944 43.9439C78.6242 43.9034 78.0595 43.8227 77.6002 43.7018C76.6578 43.4549 75.7868 43.0667 74.9874 42.537C74.567 42.2591 74.1421 41.8983 73.7126 41.4545C73.2815 41.0086 72.8952 40.5293 72.5537 40.0168C72.0087 39.1987 71.6493 38.4016 71.4755 37.6256C71.4257 37.4032 71.3145 36.7592 71.1418 35.6937C71.1046 35.4674 71.1009 35.2422 71.1306 35.0181C71.2856 33.8278 71.3977 33.0887 71.4669 32.8008C71.4801 32.7453 71.5939 32.4361 71.8083 31.8731C71.9501 31.5009 72.0905 31.2028 72.2295 30.9787C72.673 30.2665 73.0959 29.6117 73.7212 29.0551C74.2651 28.5714 74.8784 28.1468 75.5612 27.7813C76.1903 27.4451 76.8282 27.1695 77.475 26.9542C77.9394 26.7995 78.3986 26.7049 78.8526 26.6705C79.9827 26.5857 81.0721 26.6317 82.1209 26.8086C82.2621 26.8331 82.6053 26.9279 83.1503 27.0932C83.5643 27.2191 83.9017 27.3445 84.1625 27.4693C84.9099 27.8292 85.535 28.2075 86.0377 28.6041C87.1865 29.5116 88.0372 30.6719 88.5896 32.0853C88.692 32.3476 88.8258 32.8036 88.9911 33.4531C89.1043 33.8968 89.1641 34.3633 89.1704 34.8525C89.1784 35.4721 89.1744 35.963 89.1584 36.3252C89.1538 36.4278 89.0986 36.4791 88.9928 36.4791H74.7283ZM85.4226 33.7459C85.4407 33.746 85.4584 33.7405 85.4732 33.7304C85.4881 33.7203 85.4995 33.706 85.5058 33.6894C85.5247 33.6394 85.5184 33.5732 85.4869 33.4905C85.3422 33.1161 85.2448 32.8662 85.1944 32.7409C85.028 32.3232 84.829 32.0212 84.5536 31.6268C84.2088 31.132 83.779 30.7388 83.2644 30.447C81.8124 29.625 80.2532 29.4173 78.5867 29.8238C78.2442 29.9076 77.9465 30.0133 77.6937 30.1408C76.5889 30.7005 75.7631 31.5234 75.2164 32.6094C75.0614 32.9173 74.9733 33.2539 74.9522 33.6195C74.9453 33.7349 75.0014 33.7906 75.1203 33.7867C76.3464 33.7512 77.4024 33.7351 78.2882 33.7385C81.1882 33.749 83.5663 33.7515 85.4226 33.7459Z" fill="#1D1D1F"/>
  <path d="M102.401 39.5734C102.37 39.5063 102.343 39.5076 102.319 39.5775C102.225 39.8576 102.128 40.1339 102.029 40.4062C101.884 40.8031 101.658 41.081 101.454 41.4454C101.393 41.553 101.305 41.6847 101.189 41.8406C100.758 42.4208 100.215 42.8995 99.5588 43.2766C98.8577 43.6804 98.1214 43.9065 97.3499 43.9547C96.4441 44.0119 95.6449 44.0149 94.9523 43.9639C94.4388 43.9262 93.9461 43.7878 93.4743 43.5487C93.2696 43.4455 93.006 43.2814 92.6834 43.0562C92.3844 42.8476 92.1487 42.6471 91.9766 42.4546C91.379 41.7857 91.0413 41.015 90.9635 40.1425C90.8863 39.2713 90.8649 38.426 91.1265 37.619C91.3107 37.0521 91.6066 36.5756 92.0144 36.1896C92.3106 35.9084 92.6377 35.6507 92.9957 35.4166C93.2982 35.2186 93.6722 35.037 94.1177 34.8717C94.6987 34.6554 95.2208 34.4854 95.6841 34.3617C96.4406 34.1603 97.1964 34.1578 98.0902 34.0214C98.8439 33.906 99.6077 33.8134 100.381 33.7435C100.694 33.7157 100.932 33.6761 101.096 33.6245C101.321 33.5541 101.547 33.4667 101.775 33.3624C102.211 33.1627 102.39 32.8923 102.441 32.4231C102.509 31.7874 102.447 31.002 101.972 30.5169C101.63 30.168 101.221 29.9154 100.744 29.759C100.275 29.6053 99.8664 29.4966 99.5176 29.4328C99.1339 29.3635 98.7141 29.3787 98.2583 29.4786C97.81 29.5768 97.3454 29.7276 96.8644 29.9312C96.3875 30.1331 95.9994 30.4296 95.7004 30.8206C95.6449 30.8933 95.5242 31.0575 95.3384 31.3132C95.1394 31.5869 95.0613 31.9788 94.9532 32.2974C94.9361 32.3473 94.9016 32.3899 94.8557 32.4177C94.8098 32.4455 94.7554 32.4568 94.7019 32.4497C94.4162 32.4123 94.0122 32.3598 93.7017 32.2808C92.9685 32.0944 92.2548 31.9461 91.5606 31.8357C91.4559 31.819 91.4067 31.7591 91.413 31.656C91.4296 31.4019 91.4745 31.174 91.5477 30.972C91.8216 30.2144 92.1893 29.5668 92.6508 29.0293C93.0592 28.5545 93.5287 28.1562 94.0594 27.8345C94.6627 27.4696 95.3764 27.1698 96.2005 26.9351C96.7146 26.7881 97.1489 26.7052 97.5035 26.6864C98.2383 26.6459 98.8385 26.6273 99.304 26.6306C99.9131 26.6345 100.415 26.6797 100.811 26.7662C101.118 26.8334 101.506 26.9349 101.974 27.0708C103.243 27.4402 104.266 28.1166 105.044 29.1C105.275 29.3912 105.455 29.724 105.587 30.1076C105.794 30.715 105.917 31.1057 105.954 31.2799C106.025 31.6133 106.064 32.0528 106.071 32.5986C106.079 33.2504 106.086 33.9024 106.092 34.5547C106.107 36.1838 106.108 39.1202 106.097 43.364C106.097 43.4644 106.082 43.5509 106.051 43.6236C106.042 43.6445 106.027 43.6624 106.007 43.675C105.988 43.6876 105.965 43.6943 105.941 43.6943H102.653C102.549 43.6943 102.493 43.6441 102.486 43.5437C102.44 42.8293 102.427 42.101 102.448 41.3589C102.448 41.3561 102.457 41.1814 102.476 40.8347C102.497 40.4642 102.484 40.0939 102.436 39.724C102.427 39.6563 102.416 39.6061 102.401 39.5734ZM102.107 35.9208C101.69 36.0817 101.254 36.2134 100.797 36.316C100.558 36.3693 100.114 36.4259 99.4661 36.4858C98.8479 36.5435 98.2847 36.6222 97.7763 36.7221C97.5715 36.7626 97.2879 36.7989 96.9253 36.8311C96.5582 36.8638 96.2788 36.9154 96.0872 36.9858C95.6154 37.1589 94.9369 37.5707 94.7027 38.0558C94.446 38.5894 94.4051 39.1582 94.5801 39.7622C94.7019 40.1799 94.9495 40.5119 95.3229 40.7582C95.6855 40.9978 95.9688 41.1351 96.173 41.17C97.3619 41.3747 98.5068 41.2338 99.6077 40.7473C99.9634 40.5898 100.268 40.4131 100.523 40.2173C100.869 39.9511 101.203 39.6277 101.526 39.2472C101.987 38.7023 102.26 38.0425 102.366 37.3752C102.46 36.7933 102.515 36.2878 102.534 35.8584C102.535 35.8391 102.53 35.8199 102.52 35.8031C102.51 35.7862 102.496 35.7725 102.478 35.7635C102.46 35.7545 102.44 35.7506 102.42 35.7522C102.4 35.7538 102.381 35.761 102.366 35.7727C102.271 35.8415 102.185 35.8909 102.107 35.9208Z" fill="#1D1D1F"/>
  <path d="M56.0933 31.0644C56.1242 31.1249 56.1528 31.1235 56.1791 31.0602C56.3489 30.6514 56.5013 30.3017 56.6363 30.0111C56.8113 29.6333 57.0049 29.305 57.217 29.026C58.0503 27.931 59.1623 27.1975 60.5531 26.8253C60.8985 26.7327 61.2705 26.6833 61.6691 26.6772C62.325 26.6667 62.8334 26.6681 63.1943 26.6814C63.5357 26.6941 63.8774 26.7518 64.2193 26.8544C64.9153 27.0624 65.5358 27.34 66.0808 27.6873C66.5749 28.0018 66.9995 28.369 67.3546 28.7888C67.7921 29.3052 68.1461 29.8752 68.4166 30.4986C68.5195 30.7371 68.6245 31.0672 68.7314 31.4887C68.8555 31.979 68.9353 32.316 68.9707 32.4996C69.0377 32.8463 69.0714 33.2784 69.072 33.7959C69.0777 38.5594 69.0834 41.2773 69.0891 41.9496C69.0937 42.4737 69.1017 42.8343 69.1131 43.0312C69.1257 43.2392 69.1169 43.4214 69.0865 43.5778C69.08 43.6111 69.0617 43.641 69.035 43.6626C69.0082 43.6842 68.9746 43.696 68.9399 43.696H65.5721C65.545 43.696 65.5189 43.6856 65.4996 43.667C65.4803 43.6485 65.4694 43.6233 65.4692 43.597C65.4554 40.6855 65.454 37.5363 65.4649 34.1495C65.466 33.8111 65.4337 33.5105 65.368 33.2476C65.3028 32.9863 65.209 32.7015 65.0866 32.3931C64.7738 31.6055 64.2748 30.9623 63.5897 30.4637C63.3318 30.2762 62.9635 30.0995 62.4849 29.9337C62.1114 29.8039 61.7111 29.7315 61.2839 29.7165C60.5119 29.6894 59.8608 29.7529 59.3307 29.9071C58.0365 30.2837 57.1078 31.0771 56.5445 32.2874C56.4605 32.4683 56.3795 32.7229 56.3018 33.0512C56.2051 33.4628 56.1479 33.7246 56.1302 33.8366C56.0487 34.3592 56.0907 35.1105 56.0899 35.5606C56.0807 38.213 56.0805 40.894 56.089 43.6036C56.0896 43.6386 56.0719 43.6574 56.0358 43.6602C55.7379 43.6829 55.4783 43.6949 55.257 43.696C54.354 43.6998 53.4538 43.6993 52.5566 43.6943C52.5534 43.6943 52.5503 43.6937 52.5474 43.6925C52.5445 43.6914 52.5418 43.6896 52.5396 43.6875C52.5374 43.6853 52.5356 43.6827 52.5344 43.6799C52.5332 43.6771 52.5326 43.6741 52.5326 43.671V26.9701C52.5326 26.9335 52.5514 26.9152 52.5892 26.9152C54.0526 26.9079 54.8698 26.9079 55.0408 26.9152C55.3427 26.9274 55.6521 26.9446 55.9689 26.9667C55.998 26.9688 56.0251 26.9814 56.045 27.0019C56.0649 27.0224 56.076 27.0494 56.0762 27.0774C56.079 27.9427 56.0822 29.2387 56.0856 30.9654C56.0856 31.0208 56.0882 31.0539 56.0933 31.0644Z" fill="#1D1D1F"/>
  <path d="M49.328 26.802H46.0323C45.9418 26.802 45.8684 26.8732 45.8684 26.9609V43.5928C45.8684 43.6806 45.9418 43.7517 46.0323 43.7517H49.328C49.4185 43.7517 49.4918 43.6806 49.4918 43.5928V26.9609C49.4918 26.8732 49.4185 26.802 49.328 26.802Z" fill="#1D1D1F"/>
  <path d="M30.7881 40.4869C31.6682 40.5069 32.6349 40.4644 33.6489 40.4703C36.2721 40.4863 38.9055 40.4833 41.5493 40.4611C41.5933 40.4606 41.8664 40.4511 42.3685 40.4328C42.6819 40.4217 42.9564 40.4248 43.192 40.442C43.3201 40.4514 43.3793 40.518 43.3696 40.6417C43.3433 40.9944 43.3335 41.3749 43.3404 41.7832C43.357 42.7106 43.3661 43.2996 43.3679 43.5504C43.3681 43.5796 43.3566 43.6077 43.3358 43.6289C43.3149 43.65 43.2865 43.6624 43.2563 43.6635C43.0144 43.6718 42.7468 43.6788 42.4534 43.6843C41.949 43.6932 36.8059 43.6976 27.024 43.6976C27.0176 43.6976 27.0115 43.6952 27.007 43.6908C27.0025 43.6864 27 43.6805 27 43.6743C27.0034 33.0485 27.008 27.5514 27.0137 27.1831C27.0154 27.0899 27.02 27.0111 27.0274 26.9468C27.0303 26.924 27.0435 26.9127 27.0669 26.9127C28.3856 26.9082 29.4868 26.9099 30.3703 26.9176C30.4075 26.9182 30.4778 26.9312 30.5814 26.9568C30.5936 26.9596 30.6044 26.9663 30.6122 26.976C30.62 26.9857 30.6242 26.9976 30.6242 27.01C30.638 30.1822 30.6417 34.2538 30.6354 39.2247C30.6348 39.4616 30.64 39.8377 30.6508 40.3529C30.6526 40.44 30.6983 40.4847 30.7881 40.4869Z" fill="#1D1D1F"/>
</svg>