<svg xmlns="http://www.w3.org/2000/svg" width="165" height="47" viewBox="0 0 165 47" fill="none">
  <path d="M163.001 2.99929C163.531 3.61947 163.882 4.32734 164.054 5.1229C164.325 6.3791 164.303 7.73989 163.987 9.20529C163.859 9.79588 163.654 10.2819 163.371 10.6633C162.731 11.5243 161.903 12.1826 160.885 12.6379C160.661 12.7383 160.194 12.8915 159.485 13.0975C158.916 13.2623 158.431 13.3394 158.033 13.3289C157.602 13.3162 157.088 13.2306 156.489 13.0721C154.299 12.4937 152.685 11.2021 151.982 9.11178C151.661 8.15564 151.56 7.16568 151.678 6.14191C151.755 5.48581 152.03 4.9454 152.348 4.19263C152.852 3.00246 153.896 2.07854 155.088 1.40659C155.497 1.17627 156.024 1.02783 156.67 0.961269C157.797 0.847165 158.635 0.827091 159.181 0.901048C160.712 1.10918 161.985 1.8086 163.001 2.99929Z" fill="#1D1D1F"/>
  <path d="M91.8875 32.2461C91.8682 32.2461 91.8492 32.2511 91.8325 32.2604C91.8158 32.2698 91.8019 32.2833 91.7922 32.2997C91.7825 32.316 91.7773 32.3345 91.7771 32.3535C91.7768 32.3724 91.7817 32.3911 91.7911 32.4078C92.0165 32.7976 92.144 33.1304 92.2665 33.6185C92.553 34.7469 93.0584 35.7791 93.7828 36.7152C94.7686 37.9894 96.0289 39.0406 97.5637 39.8689C98.165 40.1933 98.8207 40.4394 99.5309 40.6074C101.166 40.9957 102.756 41.0939 104.323 40.796C104.525 40.758 104.935 40.6845 105.555 40.5757C106.87 40.3454 108.095 39.8203 109.23 39.0005C109.447 38.843 109.895 38.4606 110.576 37.8531C111.239 37.2604 111.804 36.543 112.272 35.7009C112.376 35.5161 112.523 35.4173 112.713 35.4046C112.828 35.3961 112.981 35.4368 113.174 35.5266C114.187 35.9968 115.334 36.4844 116.614 36.9894C117.119 37.1891 117.594 37.4352 118.038 37.7279C118.065 37.745 118.085 37.7704 118.095 37.8C118.105 37.8295 118.105 37.8616 118.094 37.8911C118.005 38.1267 117.897 38.3417 117.772 38.5361C117.393 39.1246 116.944 39.768 116.424 40.4664C115.95 41.1045 115.416 41.6803 114.823 42.1938C113.734 43.1373 112.962 43.7416 112.509 44.0068C110.979 44.9016 109.421 45.5937 107.835 46.0828C107.104 46.3079 106.254 46.4452 105.286 46.4949C103.761 46.572 102.194 46.562 100.585 46.4648C99.3082 46.3876 98.2325 46.2339 97.3578 46.0036C95.5627 45.5334 93.9037 44.7939 92.3809 43.7849C91.5803 43.2556 90.7709 42.5683 89.9529 41.7231C89.1316 40.8737 88.3958 39.9608 87.7455 38.9846C86.7074 37.4262 86.0228 35.908 85.6916 34.43C85.5969 34.0063 85.385 32.7797 85.056 30.7501C84.9852 30.319 84.9782 29.8901 85.0348 29.4633C85.33 27.196 85.5435 25.7882 85.6753 25.2398C85.7003 25.1342 85.9171 24.5452 86.3256 23.4728C86.5957 22.7639 86.8632 22.196 87.1278 21.7692C87.9726 20.4126 88.7781 19.1654 89.9692 18.1052C91.0051 17.1839 92.1734 16.3751 93.474 15.6789C94.6722 15.0386 95.8873 14.5135 97.1193 14.1036C98.0038 13.8088 98.8785 13.6287 99.7433 13.5632C101.896 13.4015 103.971 13.4892 105.969 13.8262C106.238 13.8727 106.891 14.0534 107.929 14.3682C108.718 14.6081 109.361 14.8468 109.857 15.0846C111.281 15.7702 112.472 16.4908 113.429 17.2462C115.617 18.9747 117.238 21.1849 118.29 23.8769C118.485 24.3766 118.74 25.2451 119.055 26.4823C119.27 27.3275 119.384 28.216 119.396 29.1479C119.411 30.328 119.404 31.263 119.373 31.9529C119.365 32.1484 119.259 32.2461 119.058 32.2461H91.8875ZM112.258 27.0401C112.292 27.0402 112.326 27.0299 112.354 27.0106C112.382 26.9913 112.404 26.964 112.416 26.9324C112.452 26.8373 112.44 26.711 112.38 26.5536C112.104 25.8405 111.919 25.3645 111.823 25.1257C111.506 24.3302 111.127 23.7549 110.602 23.0037C109.946 22.0613 109.127 21.3122 108.147 20.7565C105.381 19.1907 102.411 18.7951 99.2368 19.5695C98.5844 19.729 98.0174 19.9303 97.5359 20.1733C95.4314 21.2393 93.8585 22.8067 92.8172 24.8753C92.522 25.4617 92.3542 26.103 92.3139 26.7992C92.3008 27.019 92.4076 27.1252 92.6342 27.1178C94.9696 27.0502 96.9809 27.0195 98.6682 27.0259C104.192 27.0459 108.722 27.0507 112.258 27.0401Z" fill="#1D1D1F"/>
  <path d="M144.597 38.14C144.538 38.0121 144.486 38.0148 144.442 38.1479C144.262 38.6814 144.078 39.2076 143.889 39.7263C143.613 40.4823 143.182 41.0116 142.793 41.7057C142.677 41.9107 142.51 42.1616 142.29 42.4585C141.468 43.5636 140.433 44.4754 139.184 45.1938C137.848 45.963 136.446 46.3935 134.976 46.4854C133.251 46.5942 131.729 46.6 130.409 46.5028C129.431 46.431 128.493 46.1674 127.594 45.712C127.204 45.5155 126.702 45.2028 126.088 44.7738C125.518 44.3766 125.069 43.9947 124.741 43.6281C123.603 42.3539 122.96 40.8859 122.812 39.224C122.665 37.5647 122.624 35.9546 123.122 34.4173C123.473 33.3376 124.037 32.43 124.813 31.6947C125.377 31.159 126.001 30.6683 126.682 30.2224C127.259 29.8452 127.971 29.4992 128.82 29.1844C129.926 28.7723 130.921 28.4485 131.803 28.2129C133.244 27.8294 134.684 27.8246 136.386 27.5647C137.822 27.345 139.277 27.1685 140.75 27.0354C141.345 26.9826 141.799 26.9071 142.112 26.8088C142.54 26.6746 142.97 26.5082 143.404 26.3096C144.236 25.9293 144.577 25.4142 144.674 24.5204C144.803 23.3096 144.685 21.8136 143.78 20.8897C143.128 20.2251 142.349 19.7439 141.442 19.4459C140.548 19.1533 139.77 18.9462 139.105 18.8247C138.374 18.6926 137.575 18.7217 136.707 18.9119C135.853 19.0989 134.967 19.3862 134.051 19.774C133.143 20.1585 132.404 20.7233 131.834 21.4681C131.729 21.6065 131.499 21.9192 131.145 22.4063C130.766 22.9277 130.617 23.6741 130.411 24.2811C130.378 24.3761 130.313 24.4571 130.225 24.5101C130.138 24.563 130.034 24.5846 129.932 24.5711C129.388 24.4998 128.619 24.3999 128.027 24.2494C126.631 23.8944 125.271 23.6118 123.949 23.4015C123.75 23.3698 123.656 23.2557 123.668 23.0592C123.699 22.5753 123.785 22.1411 123.924 21.7565C124.446 20.3133 125.147 19.0798 126.026 18.0561C126.803 17.1517 127.698 16.3931 128.708 15.7803C129.858 15.0851 131.217 14.5141 132.787 14.0672C133.766 13.7872 134.593 13.6293 135.269 13.5933C136.668 13.5162 137.812 13.4808 138.698 13.4872C139.858 13.4946 140.815 13.5807 141.569 13.7455C142.154 13.8733 142.893 14.0667 143.785 14.3255C146.201 15.0291 148.15 16.3176 149.632 18.1908C150.072 18.7455 150.415 19.3794 150.665 20.1099C151.061 21.2668 151.294 22.0112 151.364 22.3429C151.501 22.9779 151.575 23.8152 151.588 24.8548C151.604 26.0962 151.617 27.3381 151.627 28.5806C151.656 31.6836 151.659 37.2768 151.637 45.3602C151.637 45.5514 151.608 45.7163 151.549 45.8547C151.532 45.8945 151.503 45.9286 151.466 45.9526C151.429 45.9766 151.385 45.9894 151.34 45.9894H145.077C144.879 45.9894 144.773 45.8938 144.76 45.7025C144.671 44.3417 144.646 42.9545 144.687 41.5409C144.687 41.5356 144.705 41.2028 144.741 40.5425C144.781 39.8367 144.755 39.1315 144.664 38.4268C144.647 38.2979 144.625 38.2023 144.597 38.14ZM144.038 31.1828C143.244 31.4892 142.412 31.7401 141.541 31.9356C141.086 32.037 140.241 32.1448 139.007 32.2589C137.83 32.3687 136.757 32.5188 135.788 32.7089C135.398 32.7861 134.858 32.8553 134.167 32.9165C133.468 32.9789 132.936 33.0771 132.571 33.2113C131.672 33.5409 130.38 34.3254 129.934 35.2493C129.445 36.2657 129.367 37.3492 129.7 38.4997C129.932 39.2953 130.404 39.9276 131.115 40.3967C131.806 40.8531 132.346 41.1146 132.734 41.1812C134.999 41.571 137.18 41.3027 139.277 40.3761C139.954 40.076 140.535 39.7395 141.02 39.3666C141.679 38.8595 142.316 38.2435 142.93 37.5187C143.809 36.4807 144.329 35.224 144.531 33.953C144.709 32.8447 144.815 31.8817 144.85 31.0639C144.852 31.0271 144.843 30.9905 144.824 30.9584C144.805 30.9264 144.777 30.9002 144.744 30.8831C144.71 30.8659 144.672 30.8585 144.634 30.8616C144.596 30.8647 144.56 30.8783 144.53 30.9007C144.35 31.0317 144.186 31.1257 144.038 31.1828Z" fill="#1D1D1F"/>
  <path d="M56.3923 21.9324C56.4511 22.0476 56.5056 22.0449 56.5557 21.9245C56.8792 21.1458 57.1695 20.4797 57.4266 19.9261C57.7599 19.2066 58.1286 18.5811 58.5328 18.0497C60.1198 15.9641 62.2379 14.5669 64.8871 13.858C65.545 13.6815 66.2536 13.5875 67.0128 13.5759C68.2622 13.5558 69.2306 13.5584 69.9179 13.5838C70.5682 13.6081 71.219 13.718 71.8704 13.9134C73.1961 14.3096 74.378 14.8384 75.416 15.4998C76.3572 16.0989 77.166 16.7983 77.8424 17.5981C78.6757 18.5817 79.35 19.6672 79.8652 20.8548C80.0613 21.3091 80.2612 21.9377 80.4649 22.7407C80.7012 23.6746 80.8532 24.3165 80.9207 24.6662C81.0482 25.3265 81.1124 26.1495 81.1135 27.1352C81.1244 36.2086 81.1353 41.3856 81.1462 42.6661C81.1549 43.6645 81.1702 44.3512 81.1919 44.7263C81.2159 45.1225 81.199 45.4696 81.1413 45.7675C81.1288 45.8308 81.094 45.8879 81.043 45.929C80.992 45.97 80.928 45.9925 80.8619 45.9925H74.4471C74.3954 45.9925 74.3458 45.9727 74.3091 45.9374C74.2723 45.9021 74.2515 45.8541 74.2511 45.8039C74.2249 40.2583 74.2222 34.2599 74.2429 27.8088C74.2451 27.1643 74.1835 26.5917 74.0583 26.0909C73.9341 25.5933 73.7554 25.0507 73.5223 24.4633C72.9265 22.9631 71.9761 21.738 70.6711 20.7882C70.1799 20.4311 69.4784 20.0946 68.5667 19.7787C67.8554 19.5315 67.0929 19.3936 66.2792 19.3651C64.8086 19.3133 63.5685 19.4343 62.5587 19.728C60.0937 20.4454 58.3247 21.9567 57.2518 24.262C57.0916 24.6065 56.9375 25.0914 56.7894 25.7169C56.6053 26.5008 56.4963 26.9995 56.4626 27.2129C56.3074 28.2081 56.3874 29.6392 56.3858 30.4966C56.3684 35.5488 56.3678 40.6555 56.3841 45.8166C56.3852 45.8832 56.3515 45.9191 56.2828 45.9244C55.7153 45.9677 55.2208 45.9904 54.7992 45.9925C53.0793 45.9999 51.3647 45.9989 49.6557 45.9894C49.6497 45.9894 49.6437 45.9882 49.6382 45.986C49.6326 45.9837 49.6276 45.9805 49.6233 45.9764C49.6191 45.9722 49.6157 45.9673 49.6134 45.962C49.6111 45.9566 49.6099 45.9508 49.6099 45.945V14.1337C49.6099 14.064 49.6459 14.0291 49.7178 14.0291C52.5052 14.0154 54.0618 14.0154 54.3875 14.0291C54.9626 14.0524 55.5519 14.0851 56.1554 14.1274C56.2107 14.1314 56.2625 14.1553 56.3003 14.1943C56.3382 14.2334 56.3594 14.2848 56.3596 14.3382C56.3651 15.9863 56.3711 18.4549 56.3776 21.7438C56.3776 21.8495 56.3825 21.9123 56.3923 21.9324Z" fill="#1D1D1F"/>
  <path d="M43.506 13.8136H37.2285C37.0561 13.8136 36.9164 13.9491 36.9164 14.1163V45.796C36.9164 45.9632 37.0561 46.0987 37.2285 46.0987H43.506C43.6784 46.0987 43.8181 45.9632 43.8181 45.796V14.1163C43.8181 13.9491 43.6784 13.8136 43.506 13.8136Z" fill="#1D1D1F"/>
  <path d="M8.19195 39.88C9.86835 39.9181 11.7098 39.8372 13.6411 39.8483C18.6376 39.879 23.6537 39.8732 28.6895 39.8309C28.7733 39.8298 29.2935 39.8119 30.2499 39.777C30.8468 39.7559 31.3696 39.7617 31.8184 39.7944C32.0624 39.8124 32.1752 39.9392 32.1566 40.1748C32.1065 40.8467 32.088 41.5715 32.1011 42.3491C32.1327 44.1156 32.1501 45.2376 32.1534 45.7152C32.1538 45.7708 32.1319 45.8245 32.0923 45.8647C32.0526 45.905 31.9983 45.9286 31.941 45.9307C31.4802 45.9466 30.9704 45.9598 30.4116 45.9703C29.4509 45.9872 19.6544 45.9957 1.02231 45.9957C1.01018 45.9957 0.998542 45.991 0.989962 45.9827C0.981383 45.9744 0.976562 45.9631 0.976562 45.9513C0.983098 25.7116 0.991812 15.2409 1.00271 14.5394C1.00597 14.3619 1.01469 14.2119 1.02885 14.0893C1.03429 14.046 1.05935 14.0244 1.10401 14.0244C3.61589 14.0159 5.71329 14.0191 7.39623 14.0339C7.46704 14.0349 7.60102 14.0598 7.79818 14.1084C7.82143 14.1137 7.84215 14.1266 7.85697 14.145C7.8718 14.1634 7.87986 14.1863 7.87987 14.2098C7.90601 20.252 7.9131 28.0074 7.90111 37.4759C7.90002 37.927 7.90983 38.6434 7.93052 39.6249C7.93379 39.7907 8.02093 39.8758 8.19195 39.88Z" fill="#1D1D1F"/>
</svg>