<svg xmlns="http://www.w3.org/2000/svg" width="140" height="64" viewBox="0 0 140 64" fill="none">
  <path d="M22.6088 25.6162H10.7752C10.7022 25.6162 10.6322 25.6452 10.5806 25.6968C10.529 25.7484 10.5 25.8184 10.5 25.8914V37.725C10.5 37.798 10.529 37.868 10.5806 37.9196C10.6322 37.9712 10.7022 38.0002 10.7752 38.0002H22.6088C22.6818 38.0002 22.7518 37.9712 22.8034 37.9196C22.855 37.868 22.884 37.798 22.884 37.725V25.8914C22.884 25.8184 22.855 25.7484 22.8034 25.6968C22.7518 25.6452 22.6818 25.6162 22.6088 25.6162ZM18.756 33.597C18.756 33.67 18.727 33.74 18.6754 33.7916C18.6238 33.8432 18.5538 33.8722 18.4808 33.8722H14.9032C14.8302 33.8722 14.7602 33.8432 14.7086 33.7916C14.657 33.74 14.628 33.67 14.628 33.597V30.0194C14.628 29.9464 14.657 29.8764 14.7086 29.8248C14.7602 29.7732 14.8302 29.7442 14.9032 29.7442H18.4808C18.5538 29.7442 18.6238 29.7732 18.6754 29.8248C18.727 29.8764 18.756 29.9464 18.756 30.0194V33.597Z" fill="#1D1D1F"/>
  <path d="M47.3843 29.7437H43.8068C43.6547 29.7437 43.5314 29.8669 43.5314 30.0189V33.5965C43.5314 33.7484 43.6547 33.8717 43.8068 33.8717H47.3843C47.5362 33.8717 47.6594 33.7484 47.6594 33.5965V30.0189C47.6594 29.8669 47.5362 29.7437 47.3843 29.7437Z" fill="#1D1D1F"/>
  <path d="M43.2545 25.6162H39.6768C39.5247 25.6162 39.4019 25.7394 39.4019 25.8914V29.469C39.4019 29.621 39.5247 29.7442 39.6768 29.7442H43.2545C43.4064 29.7442 43.5299 29.621 43.5299 29.469V25.8914C43.5299 25.7394 43.4064 25.6162 43.2545 25.6162Z" fill="#1D1D1F"/>
  <path d="M51.5107 25.6162H47.933C47.7813 25.6162 47.6581 25.7394 47.6581 25.8914V29.469C47.6581 29.621 47.7813 29.7442 47.933 29.7442H51.5107C51.6626 29.7442 51.786 29.621 51.786 29.469V25.8914C51.786 25.7394 51.6626 25.6162 51.5107 25.6162Z" fill="#1D1D1F"/>
  <path d="M43.2545 33.8719H39.6768C39.5247 33.8719 39.4019 33.9951 39.4019 34.1471V37.7247C39.4019 37.8767 39.5247 37.9999 39.6768 37.9999H43.2545C43.4064 37.9999 43.5299 37.8767 43.5299 37.7247V34.1471C43.5299 33.9951 43.4064 33.8719 43.2545 33.8719Z" fill="#1D1D1F"/>
  <path d="M51.5107 33.8719H47.933C47.7813 33.8719 47.6581 33.9951 47.6581 34.1471V37.7247C47.6581 37.8767 47.7813 37.9999 47.933 37.9999H51.5107C51.6626 37.9999 51.786 37.8767 51.786 37.7247V34.1471C51.786 33.9951 51.6626 33.8719 51.5107 33.8719Z" fill="#1D1D1F"/>
  <path d="M37.0568 25.6162H33.4791C33.3272 25.6162 33.204 25.7394 33.204 25.8914V29.469C33.204 29.621 33.3272 29.7442 33.4791 29.7442H37.0568C37.2087 29.7442 37.332 29.621 37.332 29.469V25.8914C37.332 25.7394 37.2087 25.6162 37.0568 25.6162Z" fill="#1D1D1F"/>
  <path d="M37.0568 33.8719H33.4791C33.3272 33.8719 33.204 33.9951 33.204 34.1471V37.7247C33.204 37.8767 33.3272 37.9999 33.4791 37.9999H37.0568C37.2087 37.9999 37.332 37.8767 37.332 37.7247V34.1471C37.332 33.9951 37.2087 33.8719 37.0568 33.8719Z" fill="#1D1D1F"/>
  <path d="M33.2038 30.0163C33.2038 29.9433 33.1747 29.8733 33.1232 29.8217C33.0715 29.7701 33.0016 29.7411 32.9286 29.7411H29.0758V25.8914C29.0758 25.8184 29.0468 25.7484 28.9952 25.6968C28.9436 25.6452 28.8736 25.6162 28.8006 25.6162H25.223C25.1501 25.6162 25.0801 25.6452 25.0284 25.6968C24.9768 25.7484 24.9478 25.8184 24.9478 25.8914V37.7188C24.9478 37.7918 24.9768 37.8618 25.0284 37.9134C25.0801 37.965 25.1501 37.994 25.223 37.994H28.8006C28.8736 37.994 28.9436 37.965 28.9952 37.9134C29.0468 37.8618 29.0758 37.7918 29.0758 37.7188V33.8691H32.9286C33.0016 33.8691 33.0715 33.8401 33.1232 33.7885C33.1747 33.7369 33.2038 33.6669 33.2038 33.5939V30.0163Z" fill="#1D1D1F"/>
  <path d="M60.77 32.0392L59.3203 25.4805H55.2296L58.4398 37.873H62.1679L63.7733 31.1934L65.3781 37.873H69.1063L72.3167 25.4805H68.3298L66.8799 32.0392L65.4128 25.4805H62.2369L60.77 32.0392Z" fill="#1D1D1F"/>
  <path d="M71.1647 37.873H75.031L75.6869 35.9054H79.7944L80.4504 37.873H84.4375L80.0706 25.4805H75.5314L71.1647 37.873ZM78.759 32.8331H76.7223L77.7408 29.8127L78.759 32.8331Z" fill="#1D1D1F"/>
  <path d="M95.0846 37.873V34.5936H89.9757V25.4805H86.0577V37.873H95.0846Z" fill="#1D1D1F"/>
  <path d="M106.171 37.873V34.5936H101.062V25.4805H97.144V37.873H106.171Z" fill="#1D1D1F"/>
  <path d="M108.23 37.873H117.55V34.5936H112.078V33.2301H116.566V30.037H112.078V28.7598H117.55V25.4805H108.23V37.873Z" fill="#1D1D1F"/>
  <path d="M130.5 25.4805H119.609V28.7598H123.095V37.873H127.013V28.7598H130.5V25.4805Z" fill="#1D1D1F"/>
</svg>