<svg xmlns="http://www.w3.org/2000/svg" width="220" height="24" viewBox="0 0 220 24" fill="none">
  <path d="M22.3491 0.533478H0.744617C0.611362 0.533478 0.483568 0.586412 0.389345 0.680636C0.295121 0.774861 0.242188 0.902653 0.242188 1.0359V22.6403C0.242188 22.7736 0.295121 22.9014 0.389345 22.9956C0.483568 23.0898 0.611362 23.1428 0.744617 23.1428H22.3491C22.4823 23.1428 22.6101 23.0898 22.7043 22.9956C22.7985 22.9014 22.8514 22.7736 22.8514 22.6403V1.0359C22.8514 0.902653 22.7985 0.774861 22.7043 0.680636C22.6101 0.586412 22.4823 0.533478 22.3491 0.533478ZM15.315 15.1039C15.315 15.2371 15.2621 15.3649 15.1679 15.4592C15.0737 15.5534 14.9459 15.6064 14.8126 15.6064H8.28102C8.14781 15.6064 8.02001 15.5534 7.9258 15.4592C7.83156 15.3649 7.77858 15.2371 7.77858 15.1039V8.57233C7.77858 8.43905 7.83156 8.31125 7.9258 8.21704C8.02001 8.12283 8.14781 8.06989 8.28102 8.06989H14.8126C14.9459 8.06989 15.0737 8.12283 15.1679 8.21704C15.2621 8.31125 15.315 8.43905 15.315 8.57233V15.1039Z" fill="#1D1D1F"/>
  <path d="M67.5813 8.06897H61.0499C60.7722 8.06897 60.5472 8.29387 60.5472 8.57134V15.1029C60.5472 15.3804 60.7722 15.6054 61.0499 15.6054H67.5813C67.8587 15.6054 68.0837 15.3804 68.0837 15.1029V8.57134C68.0837 8.29387 67.8587 8.06897 67.5813 8.06897Z" fill="#1D1D1F"/>
  <path d="M60.0417 0.533478H53.51C53.2323 0.533478 53.008 0.758422 53.008 1.0359V7.56748C53.008 7.84495 53.2323 8.06992 53.51 8.06992H60.0417C60.3191 8.06992 60.5444 7.84495 60.5444 7.56748V1.0359C60.5444 0.758422 60.3191 0.533478 60.0417 0.533478Z" fill="#1D1D1F"/>
  <path d="M75.1149 0.533478H68.5831C68.3062 0.533478 68.0812 0.758422 68.0812 1.0359V7.56748C68.0812 7.84495 68.3062 8.06992 68.5831 8.06992H75.1149C75.3922 8.06992 75.6176 7.84495 75.6176 7.56748V1.0359C75.6176 0.758422 75.3922 0.533478 75.1149 0.533478Z" fill="#1D1D1F"/>
  <path d="M60.0417 15.6058H53.51C53.2323 15.6058 53.008 15.8307 53.008 16.1082V22.6398C53.008 22.9173 53.2323 23.1422 53.51 23.1422H60.0417C60.3191 23.1422 60.5444 22.9173 60.5444 22.6398V16.1082C60.5444 15.8307 60.3191 15.6058 60.0417 15.6058Z" fill="#1D1D1F"/>
  <path d="M75.1149 15.6058H68.5831C68.3062 15.6058 68.0812 15.8307 68.0812 16.1082V22.6398C68.0812 22.9173 68.3062 23.1422 68.5831 23.1422H75.1149C75.3922 23.1422 75.6176 22.9173 75.6176 22.6398V16.1082C75.6176 15.8307 75.3922 15.6058 75.1149 15.6058Z" fill="#1D1D1F"/>
  <path d="M48.7267 0.533478H42.1949C41.9176 0.533478 41.6926 0.758422 41.6926 1.0359V7.56748C41.6926 7.84495 41.9176 8.06992 42.1949 8.06992H48.7267C49.004 8.06992 49.229 7.84495 49.229 7.56748V1.0359C49.229 0.758422 49.004 0.533478 48.7267 0.533478Z" fill="#1D1D1F"/>
  <path d="M48.7267 15.6058H42.1949C41.9176 15.6058 41.6926 15.8307 41.6926 16.1082V22.6398C41.6926 22.9173 41.9176 23.1422 42.1949 23.1422H48.7267C49.004 23.1422 49.229 22.9173 49.229 22.6398V16.1082C49.229 15.8307 49.004 15.6058 48.7267 15.6058Z" fill="#1D1D1F"/>
  <path d="M41.6922 8.56665C41.6922 8.43341 41.6391 8.30565 41.5451 8.2114C41.4507 8.11719 41.323 8.06425 41.1899 8.06425H34.1558V1.0359C34.1558 0.902656 34.1029 0.77486 34.0087 0.680635C33.9145 0.586412 33.7866 0.533478 33.6534 0.533478H27.1218C26.9886 0.533478 26.8608 0.586412 26.7666 0.680635C26.6724 0.77486 26.6194 0.902656 26.6194 1.0359V22.629C26.6194 22.7622 26.6724 22.89 26.7666 22.9843C26.8608 23.0785 26.9886 23.1314 27.1218 23.1314H33.6534C33.7866 23.1314 33.9145 23.0785 34.0087 22.9843C34.1029 22.89 34.1558 22.7622 34.1558 22.629V15.6007H41.1899C41.323 15.6007 41.4507 15.5477 41.5451 15.4535C41.6391 15.3593 41.6922 15.2315 41.6922 15.0982V8.56665Z" fill="#1D1D1F"/>
  <path d="M92.0195 12.2598L89.3728 0.285645H81.9044L87.7652 22.9105H94.5717L97.5027 10.7157L100.433 22.9105H107.239L113.1 0.285645H105.821L103.174 12.2598L100.496 0.285645H94.6976L92.0195 12.2598Z" fill="#1D1D1F"/>
  <path d="M110.997 22.9105H118.056L119.253 19.3182H126.752L127.95 22.9105H135.229L127.256 0.285645H118.969L110.997 22.9105ZM124.862 13.7093H121.144L123.003 8.19487L124.862 13.7093Z" fill="#1D1D1F"/>
  <path d="M154.667 22.9105V16.9234H145.34V0.285645H138.187V22.9105H154.667Z" fill="#1D1D1F"/>
  <path d="M174.907 22.9105V16.9234H165.58V0.285645H158.427V22.9105H174.907Z" fill="#1D1D1F"/>
  <path d="M178.666 22.9105H195.682V16.9234H185.693V14.4341H193.886V8.60453H185.693V6.27273H195.682V0.285645H178.666V22.9105Z" fill="#1D1D1F"/>
  <path d="M219.325 0.285645H199.441V6.27273H205.806V22.9105H212.959V6.27273H219.325V0.285645Z" fill="#1D1D1F"/>
</svg>