<svg xmlns="http://www.w3.org/2000/svg" width="140" height="64" viewBox="0 0 140 64" fill="none">
  <path d="M43.309 46.2866L42.5096 46.264V44.9327V43.6014L41.4593 43.4876C40.8817 43.425 40.3315 43.3585 40.2367 43.3399L40.0642 43.3062V44.6302V45.9542L39.9232 45.9535C39.8456 45.9529 39.2883 45.8688 38.6848 45.7661C38.0813 45.6635 37.5669 45.5792 37.5418 45.5788C37.5166 45.5781 37.4883 44.9666 37.479 44.2192L37.4622 42.8603L36.3022 42.6221C35.6107 42.48 34.4965 42.1821 33.5434 41.8844C32.664 41.6098 31.8246 41.3506 31.678 41.3084L31.4115 41.2318V38.5143C31.4115 37.0196 31.4272 35.7967 31.4463 35.7967C31.4655 35.7967 32.2509 36.0507 33.1917 36.361C34.1325 36.6714 34.9354 36.9253 34.9759 36.9253C35.0314 36.9253 35.0455 36.2575 35.0332 34.214L35.0168 31.5026L34.3585 31.269C33.9964 31.1406 33.1852 30.8612 32.5558 30.6481L31.4115 30.2608V27.5357C31.4115 25.2304 31.425 24.8159 31.499 24.8443C31.5471 24.8627 31.9069 24.9913 32.2984 25.13C32.69 25.2687 33.4314 25.5387 33.9459 25.7301C34.4605 25.9215 34.919 26.0781 34.9648 26.0781C35.0329 26.0781 35.0482 25.5845 35.0482 23.3911V20.7042L36.2238 21.0388C36.8704 21.2228 37.4206 21.3739 37.4465 21.3745C37.4723 21.3751 37.4935 20.7755 37.4935 20.0421V18.7086L38.7776 19.0232L40.0616 19.3378L40.0629 20.666C40.0641 21.8759 40.074 21.997 40.174 22.0268C40.295 22.0629 41.8211 22.3467 42.2431 22.4115L42.5096 22.4525V21.1248V19.797L42.7447 19.8327C43.1777 19.8985 43.9782 19.9886 44.5003 20.0305L45.0176 20.0719V21.3809C45.0176 22.6882 45.0176 22.6899 45.1587 22.7182C45.2363 22.7337 45.6229 22.793 46.0178 22.8499C48.3834 23.1905 49.7869 23.9654 50.4449 25.2944C50.7367 25.8836 50.8464 26.4527 50.8477 27.385C50.8502 29.182 50.1918 30.8651 49.0338 32.0217C48.8165 32.2388 48.6493 32.4254 48.6622 32.4365C48.6751 32.4475 48.8725 32.518 49.101 32.593C49.9498 32.8717 50.7918 33.5411 51.1531 34.2243C51.508 34.8953 51.6149 35.364 51.6478 36.3924C51.6817 37.4559 51.5956 38.0775 51.2854 39.0084C50.9106 40.133 50.3755 40.9715 49.5036 41.8005C48.8456 42.4262 48.1482 42.8695 47.3511 43.1689C46.7506 43.3945 45.6803 43.6343 45.2742 43.6343H45.0176V44.951V46.2677H44.8382C44.7396 46.2677 44.535 46.2771 44.3837 46.2885C44.2323 46.2999 43.7487 46.2991 43.309 46.2866ZM45.4937 39.2341C46.0235 39.0601 46.5063 38.6371 46.7138 38.1649C46.8324 37.8948 46.8597 37.72 46.8631 37.2075C46.8683 36.4181 46.7589 36.1058 46.3394 35.7134C45.8864 35.2898 45.4725 35.1832 43.8463 35.0719C43.1159 35.0219 42.1001 34.9238 41.5891 34.8539C41.078 34.784 40.5259 34.7097 40.3621 34.6887L40.0642 34.6506V36.8161V38.9816L40.4561 39.0475C40.8281 39.11 42.253 39.2811 42.7917 39.3278C42.9297 39.3398 43.5004 39.3543 44.0601 39.3601C44.9541 39.3694 45.1282 39.3541 45.4937 39.2341ZM44.9213 30.8084C45.3517 30.6544 45.7818 30.2129 45.9292 29.7738C46.1971 28.9757 46.0162 28.0081 45.5145 27.5548C45.0192 27.1073 44.5606 26.9657 43.0739 26.8012C42.2515 26.7103 40.449 26.4309 40.1731 26.3517C40.0688 26.3217 40.0635 26.4386 40.0791 28.4085L40.0956 30.4972L40.9734 30.6388C43.1355 30.9875 44.283 31.0368 44.9213 30.8084ZM96.7114 41.6749C96.7929 41.4594 97.0879 40.6807 97.3669 39.9445C97.646 39.2083 97.8743 38.5743 97.8743 38.5356C97.8743 38.4823 95.4763 32.958 94.1332 29.917L93.9871 29.5863L95.0256 29.6035L96.064 29.6207L97.435 32.7461C98.1891 34.4651 98.8221 35.8876 98.8418 35.9072C98.8614 35.9269 98.8866 35.9312 98.8976 35.9169C98.9086 35.9025 99.4518 34.4729 100.105 32.74L101.292 29.5893L102.279 29.5893C102.822 29.5893 103.266 29.6105 103.266 29.6363C103.266 29.6622 102.418 31.9265 101.382 34.6681C100.346 37.4097 99.2952 40.1956 99.0469 40.8591L98.5954 42.0654L97.5793 42.0661L96.5632 42.0668L96.7114 41.6749ZM23.8874 37.6615V34.8719L24.0795 34.8335C24.7322 34.7029 27.0379 34.7435 27.5398 34.8943C27.6421 34.9251 27.6495 35.1123 27.6495 37.67V40.4127L27.1636 40.3575C26.6357 40.2975 24.2576 40.335 24.0285 40.4069L23.8874 40.4512V37.6615ZM87.4289 39.7438C85.5546 39.4991 83.9123 38.0819 83.3271 36.2043C83.155 35.652 83.0922 34.5531 83.1981 33.9452C83.3462 33.0945 83.8596 32.0639 84.4669 31.3981C85.0602 30.7477 86.1258 30.1364 87.0081 29.9404C87.5288 29.8247 88.5289 29.8092 89.069 29.9085C89.6094 30.0079 90.3218 30.3031 90.7891 30.6214C91.1942 30.8973 91.1968 30.8981 91.2165 30.7458L91.2364 30.5925H92.1727H93.1091V35.0756V39.5587H92.1685H91.228V39.1241V38.6894L90.7028 39.0192C89.6987 39.6496 88.5889 39.8952 87.4289 39.7438ZM89.1725 37.7562C90.388 37.3146 91.228 36.1038 91.228 34.7935C91.228 33.252 90.0953 31.9544 88.5427 31.7174C87.1952 31.5117 85.821 32.2745 85.244 33.5484C84.4677 35.262 85.448 37.3203 87.2844 37.8327C87.7591 37.9652 88.7025 37.9269 89.1725 37.7562ZM59.0626 33.5022V27.4457L61.6176 27.4705C64.0844 27.4945 64.1867 27.5003 64.5802 27.6385C65.3165 27.8971 65.8143 28.266 66.2484 28.8743C66.9633 29.8761 67.0744 31.1506 66.54 32.2213C66.445 32.4118 66.3672 32.5895 66.3672 32.6163C66.3672 32.6431 66.5337 32.7896 66.7371 32.9417C68.2636 34.0835 68.6454 36.1172 67.6449 37.7772C67.3542 38.2594 66.6428 38.919 66.1472 39.1657C65.3729 39.5513 65.2946 39.5587 62.0277 39.5587H59.0626V33.5022ZM65.2743 37.5138C65.628 37.3502 65.9729 37.0026 66.1615 36.6198C66.373 36.1905 66.3617 35.5037 66.1361 35.0756C65.9304 34.6854 65.6364 34.3998 65.2699 34.2341C65.0051 34.1144 64.8633 34.1064 62.9657 34.1052L60.9436 34.1038V35.894V37.6842L62.9657 37.6653C64.87 37.6475 65.0045 37.6387 65.2743 37.5138ZM64.0963 32.0755C64.3965 31.9497 64.6948 31.6747 64.8401 31.3898C64.9436 31.1871 64.9646 31.0488 64.9461 30.6923C64.9264 30.3126 64.8929 30.2041 64.717 29.9494C64.3543 29.4245 64.2592 29.4012 62.4822 29.4012H60.9436V30.7806V32.1601H62.4191C63.5154 32.1601 63.9464 32.1383 64.0963 32.0755ZM69.4082 34.7935V30.0282H70.3487H71.2892V34.7935V39.5587H70.3487H69.4082V34.7935ZM76.6619 39.4646C76.4959 39.419 76.1997 39.3022 76.0035 39.2051C75.5349 38.9731 74.7599 38.1991 74.5289 37.7322C74.1853 37.038 74.175 36.9303 74.1742 34.0254L74.1734 31.3449H73.4524H72.7313V30.4044V29.4639H73.4524H74.1734V28.2726V27.0813H75.1139H76.0544V28.2726V29.4639H76.995H77.9355V30.4044V31.3449H76.993H76.0506L76.0682 34.0304L76.0858 36.7159L76.2742 37.0244C76.4157 37.256 76.5474 37.3758 76.8027 37.5053C77.1212 37.6667 77.194 37.6777 77.9467 37.6777H78.7506V38.6182V39.5587L77.8571 39.5532C77.3279 39.5498 76.8406 39.5137 76.6619 39.4646ZM80.0046 33.32V27.0813H80.9765H81.9483V33.32V39.5587H80.9765H80.0046V33.32ZM107.365 39.4694C105.69 39.0866 104.234 37.7557 103.659 36.0816C103.5 35.6185 103.486 35.5004 103.486 34.6367C103.486 33.8251 103.506 33.6321 103.633 33.2282C104.229 31.3307 105.724 29.9674 107.56 29.6477C108.168 29.5419 109.267 29.6047 109.819 29.7768C111.385 30.265 112.636 31.4792 113.145 33.0053C113.337 33.5811 113.462 34.5713 113.398 35.0007L113.354 35.2951H109.375H105.396L105.434 35.4675C105.586 36.1489 106.299 36.9867 107.033 37.3467C107.591 37.6208 108.007 37.6994 108.705 37.6629C109.491 37.6218 110.019 37.3705 110.61 36.7561C110.835 36.5215 111.05 36.2754 111.086 36.2091C111.161 36.0725 111.15 36.0686 112.315 36.6091L112.868 36.8655L112.727 37.0992C112.076 38.1733 110.88 39.0806 109.693 39.4009C109.167 39.5429 107.855 39.5814 107.365 39.4694ZM111.292 33.3634C111.292 33.2408 110.82 32.5411 110.552 32.2662C109.942 31.6414 108.929 31.326 107.976 31.4644C107.084 31.5938 106.193 32.1815 105.756 32.9286C105.448 33.4535 105.23 33.4141 108.439 33.4141C110.008 33.4141 111.292 33.3912 111.292 33.3634ZM114.615 34.574V29.5893H115.556H116.496V29.9394C116.496 30.1319 116.518 30.2786 116.543 30.2653C117.488 29.78 118.104 29.592 118.754 29.5909C119.126 29.5902 119.856 29.6937 119.982 29.7649C120.039 29.797 119.964 30.0326 119.707 30.6396L119.354 31.4703H118.837C118.467 31.4703 118.22 31.5074 117.972 31.6002C117.487 31.7817 116.99 32.2528 116.733 32.7749L116.528 33.1917L116.51 36.3752L116.492 39.5587H115.554H114.615V34.574ZM30.4397 35.4757C29.7135 35.2718 28.9929 35.11 27.7912 34.8809L27.6508 34.8541L27.6345 32.0806L27.6181 29.3072L26.9911 29.2262C26.6077 29.1768 25.883 29.1524 25.1257 29.1635L23.8874 29.1818L23.8874 26.4118L23.8874 23.6418L24.248 23.5967C24.6939 23.541 26.44 23.6129 27.1165 23.7149L27.6181 23.7905L27.6345 26.5635L27.6508 29.3365L27.7912 29.3684C27.8685 29.386 28.2623 29.4705 28.6664 29.5561C29.4385 29.7196 30.2994 29.9472 30.957 30.1615L31.3488 30.2893V33.0116C31.3488 34.5089 31.3418 35.7313 31.3332 35.7281C31.3245 35.7248 30.9225 35.6113 30.4397 35.4757ZM20 32.8476V30.0213L20.3336 29.8738C21.0521 29.5561 21.921 29.3784 23.1318 29.3018L23.8247 29.258V32.0472V34.8365L23.088 34.9126C21.6851 35.0574 20.833 35.2489 20.2355 35.5537L20 35.6738V32.8476ZM69.8712 29.2186C69.7292 29.1541 69.5317 28.9947 69.4323 28.8643C69.2748 28.6579 69.2514 28.5733 69.2514 28.2099C69.2514 27.8466 69.2748 27.7619 69.4323 27.5555C69.639 27.2845 70.0272 27.0847 70.3511 27.0827C70.4731 27.0819 70.6986 27.1448 70.8522 27.2224C71.675 27.638 71.675 28.7818 70.8522 29.1974C70.514 29.3683 70.2151 29.3747 69.8712 29.2186ZM30.6591 24.5286C30.1173 24.3585 28.347 23.8995 27.7906 23.7848L27.6495 23.7558V21.0037V18.2516L28.0414 18.3419C29.0781 18.5809 31.223 19.2224 31.3245 19.3239C31.3386 19.338 31.3428 20.5614 31.3338 22.0424L31.3175 24.7353L30.6591 24.5286ZM20 21.5042V18.6826L20.1724 18.5941C20.7864 18.2788 21.8197 18.0785 23.088 18.0289L23.8247 18V20.8083V23.6166L23.1194 23.6598C21.789 23.7413 20.73 23.9485 20.1724 24.2366L20 24.3257V21.5042Z" fill="#1D1D1F"/>
</svg>