<svg xmlns="http://www.w3.org/2000/svg" width="183" height="52" viewBox="0 0 183 52" fill="none">
  <path d="M42.6879 51.4104L41.235 51.3693V48.9497V46.5301L39.3262 46.3232C38.2764 46.2094 37.2764 46.0887 37.104 46.0549L36.7906 45.9935V48.3999V50.8063L36.5342 50.8051C36.3932 50.8039 35.3804 50.6511 34.2836 50.4645C33.1867 50.2779 32.2518 50.1247 32.2061 50.124C32.1603 50.1228 32.109 49.0113 32.0921 47.6529L32.0614 45.1833L29.9532 44.7502C28.6964 44.492 26.6713 43.9506 24.939 43.4095C23.3408 42.9104 21.8152 42.4393 21.5488 42.3627L21.0645 42.2235V37.2844C21.0645 34.5679 21.0929 32.3453 21.1277 32.3453C21.1625 32.3453 22.59 32.8068 24.2999 33.3709C26.0098 33.935 27.469 34.3965 27.5426 34.3965C27.6435 34.3965 27.6691 33.1827 27.6467 29.4686L27.617 24.5407L26.4205 24.1163C25.7624 23.8828 24.2881 23.375 23.1442 22.9878L21.0645 22.2838V17.331C21.0645 13.1412 21.089 12.3877 21.2235 12.4393C21.3109 12.4729 21.9647 12.7065 22.6764 12.9586C23.3881 13.2107 24.7355 13.7015 25.6707 14.0494C26.6059 14.3972 27.4392 14.6818 27.5225 14.6818C27.6462 14.6818 27.674 13.7846 27.674 9.7983V4.91477L29.8107 5.52293C30.9859 5.85743 31.9859 6.13199 32.0329 6.13308C32.0799 6.13422 32.1184 5.0444 32.1184 3.71141V1.28778L34.4521 1.8596L36.7859 2.4314L36.7882 4.84534C36.7904 7.04447 36.8084 7.26453 36.9901 7.31871C37.21 7.3843 39.9837 7.89998 40.7507 8.01788L41.235 8.09233V5.67919V3.26605L41.6623 3.33095C42.4492 3.45046 43.9041 3.61431 44.8531 3.69033L45.7933 3.76565V6.14472C45.7933 8.5207 45.7933 8.52386 46.0497 8.57522C46.1907 8.60349 46.8934 8.71119 47.6112 8.81454C51.9105 9.43356 54.4613 10.842 55.6574 13.2574C56.1877 14.3284 56.387 15.3626 56.3894 17.0571C56.3939 20.3231 55.1973 23.3821 53.0927 25.4843C52.6978 25.8787 52.3939 26.2179 52.4173 26.238C52.4407 26.2581 52.7995 26.3862 53.2148 26.5225C54.7574 27.0291 56.2879 28.2457 56.9445 29.4873C57.5895 30.7069 57.7838 31.5587 57.8435 33.4279C57.9053 35.3607 57.7488 36.4905 57.1849 38.1824C56.5037 40.2264 55.5312 41.7504 53.9465 43.2571C52.7506 44.3942 51.4832 45.1999 50.0344 45.7441C48.943 46.154 46.9977 46.5899 46.2597 46.5899H45.7933V48.9831V51.3762H45.4673C45.288 51.3762 44.9163 51.3931 44.6411 51.4139C44.366 51.4346 43.4871 51.4331 42.6879 51.4104ZM46.6586 38.5926C47.6216 38.2764 48.499 37.5075 48.8761 36.6494C49.0917 36.1585 49.1413 35.8407 49.1475 34.9092C49.1569 33.4747 48.958 32.907 48.1956 32.1939C47.3724 31.4239 46.62 31.2303 43.6645 31.0279C42.3369 30.9369 40.4908 30.7587 39.562 30.6317C38.6332 30.5047 37.6296 30.3696 37.3319 30.3315L36.7906 30.2622V34.1979V38.1336L37.5029 38.2534C38.1789 38.3671 40.7687 38.678 41.7478 38.7629C41.9985 38.7847 43.0358 38.8111 44.053 38.8216C45.6779 38.8385 45.9942 38.8107 46.6586 38.5926ZM45.6183 23.279C46.4006 22.9991 47.1821 22.1968 47.4501 21.3986C47.937 19.9482 47.6083 18.1895 46.6964 17.3657C45.7962 16.5524 44.9627 16.295 42.2606 15.9961C40.7659 15.8308 37.4899 15.323 36.9885 15.179C36.799 15.1246 36.7892 15.3371 36.8176 18.9173L36.8476 22.7134L38.443 22.9707C42.3725 23.6045 44.4582 23.6941 45.6183 23.279ZM139.746 43.0287C139.894 42.637 140.43 41.2218 140.937 39.8838C141.445 38.5458 141.859 37.3935 141.859 37.3231C141.859 37.2262 137.501 27.1859 135.06 21.6589L134.795 21.0579L136.682 21.0891L138.569 21.1204L141.061 26.8008C142.432 29.925 143.582 32.5104 143.618 32.5461C143.654 32.5819 143.699 32.5897 143.719 32.5636C143.739 32.5375 144.726 29.9393 145.913 26.7898L148.07 21.0634L149.865 21.0634C150.852 21.0634 151.66 21.1019 151.659 21.1489C151.659 21.1959 150.118 25.3112 148.235 30.294C146.352 35.2768 144.442 40.3402 143.991 41.5461L143.17 43.7385L141.323 43.7398L139.477 43.741L139.746 43.0287ZM7.38959 35.7345V30.6643L7.73857 30.5945C8.92496 30.3573 13.1155 30.431 14.0276 30.7052C14.2136 30.7611 14.227 31.1013 14.227 35.7499V40.7347L13.3439 40.6343C12.3845 40.5253 8.06239 40.5935 7.64599 40.7242L7.38959 40.8046V35.7345ZM122.875 39.519C119.469 39.0742 116.484 36.4985 115.42 33.0859C115.107 32.0822 114.993 30.0849 115.186 28.9802C115.455 27.434 116.388 25.5609 117.492 24.3508C118.57 23.1687 120.507 22.0577 122.11 21.7015C123.057 21.4912 124.874 21.4631 125.856 21.6435C126.838 21.8241 128.133 22.3607 128.982 22.9392C129.719 23.4406 129.723 23.442 129.759 23.1652L129.795 22.8867H131.497H133.199V31.0347V39.1827H131.489H129.78V38.3927V37.6027L128.825 38.202C127 39.3478 124.983 39.7942 122.875 39.519ZM126.044 35.9066C128.253 35.1039 129.78 32.9034 129.78 30.5219C129.78 27.7202 127.721 25.362 124.899 24.9312C122.45 24.5573 119.953 25.9436 118.904 28.2589C117.493 31.3734 119.275 35.1143 122.613 36.0456C123.475 36.2864 125.19 36.2169 126.044 35.9066ZM71.3198 28.175V17.1674L75.9635 17.2125C80.4469 17.256 80.6329 17.2666 81.348 17.5178C82.6861 17.9879 83.591 18.6582 84.3799 19.7638C85.6793 21.5847 85.8811 23.901 84.91 25.8469C84.7372 26.1931 84.5958 26.5162 84.5958 26.5649C84.5958 26.6136 84.8984 26.8798 85.2682 27.1563C88.0425 29.2315 88.7364 32.9277 86.9179 35.9447C86.3896 36.8212 85.0968 38.0198 84.196 38.4684C82.7887 39.1691 82.6464 39.1827 76.7088 39.1827H71.3198V28.175ZM82.6095 35.466C83.2524 35.1686 83.8792 34.537 84.2221 33.8412C84.6064 33.061 84.5859 31.8127 84.1758 31.0347C83.8019 30.3255 83.2677 29.8064 82.6016 29.5052C82.1203 29.2876 81.8626 29.2732 78.4136 29.2708L74.7385 29.2683V32.522V35.7756L78.4136 35.7413C81.8748 35.709 82.1191 35.6929 82.6095 35.466ZM80.4685 25.582C81.0141 25.3534 81.5562 24.8536 81.8204 24.3358C82.0084 23.9673 82.0465 23.716 82.013 23.0681C81.9772 22.378 81.9164 22.1808 81.5966 21.7179C80.9375 20.7639 80.7646 20.7215 77.535 20.7215H74.7385V23.2286V25.7357H77.4202C79.4126 25.7357 80.1961 25.6962 80.4685 25.582ZM90.1228 30.5219V21.8611H91.8321H93.5415V30.5219V39.1827H91.8321H90.1228V30.5219ZM103.306 39.0115C103.005 38.9286 102.466 38.7164 102.11 38.5399C101.258 38.1183 99.8494 36.7114 99.4295 35.8629C98.8051 34.6012 98.7863 34.4056 98.7849 29.1259L98.7835 24.2542H97.473H96.1625V22.5449V20.8355H97.473H98.7835V18.6703V16.5051H100.493H102.202V18.6703V20.8355H103.912H105.621V22.5449V24.2542H103.908H102.195L102.227 29.135L102.259 34.0158L102.602 34.5765C102.859 34.9975 103.098 35.2153 103.562 35.4505C104.141 35.744 104.273 35.7639 105.641 35.7639H107.102V37.4733V39.1827L105.479 39.1725C104.517 39.1665 103.631 39.1008 103.306 39.0115ZM109.382 27.8439V16.5051H111.148H112.914V27.8439V39.1827H111.148H109.382V27.8439ZM159.109 39.0202C156.065 38.3245 153.419 35.9056 152.374 32.863C152.084 32.0213 152.059 31.8067 152.059 30.237C152.059 28.7619 152.095 28.411 152.326 27.677C153.409 24.2284 156.126 21.7506 159.463 21.1696C160.567 20.9772 162.565 21.0913 163.568 21.4041C166.415 22.2914 168.689 24.4982 169.613 27.2719C169.962 28.3184 170.19 30.118 170.073 30.8985L169.993 31.4335H162.762H155.53L155.6 31.7469C155.876 32.9853 157.171 34.508 158.504 35.1623C159.52 35.6604 160.275 35.8033 161.543 35.737C162.973 35.6622 163.932 35.2056 165.006 34.0888C165.416 33.6626 165.806 33.2153 165.872 33.0948C166.009 32.8464 165.987 32.8393 168.106 33.8218L169.111 34.2877L168.853 34.7124C167.671 36.6646 165.498 38.3136 163.34 38.8958C162.384 39.1538 160 39.2239 159.109 39.0202ZM166.246 27.9226C166.246 27.6999 165.388 26.4283 164.901 25.9286C163.793 24.793 161.951 24.2197 160.218 24.4713C158.599 24.7064 156.979 25.7746 156.183 27.1324C155.624 28.0864 155.228 28.0148 161.061 28.0148C163.913 28.0148 166.246 27.9733 166.246 27.9226ZM172.286 30.123V21.0634H173.995H175.705V21.6997C175.705 22.0496 175.743 22.3162 175.79 22.292C177.508 21.4099 178.627 21.0684 179.807 21.0663C180.484 21.065 181.812 21.2532 182.04 21.3826C182.143 21.4408 182.008 21.869 181.539 22.9722L180.898 24.4821H179.958C179.287 24.4821 178.838 24.5495 178.388 24.7181C177.506 25.0481 176.602 25.9043 176.135 26.8531L175.762 27.6107L175.729 33.3967L175.697 39.1827H173.992H172.286V30.123ZM19.2981 31.7619C17.9783 31.3913 16.6686 31.0971 14.4846 30.6807L14.2294 30.6321L14.1997 25.5913L14.1701 20.5506L13.0305 20.4035C12.3337 20.3136 11.0164 20.2693 9.64016 20.2895L7.38943 20.3227L7.3895 15.2883L7.38959 10.2538L8.04484 10.1719C8.85531 10.0706 12.0289 10.2014 13.2584 10.3868L14.1701 10.5242L14.1997 15.564L14.2294 20.6038L14.4846 20.662C14.625 20.6939 15.3408 20.8474 16.0752 21.0029C17.4785 21.3002 19.0432 21.7138 20.2383 22.1033L20.9505 22.3355V27.2834C20.9505 30.0047 20.9377 32.2264 20.922 32.2205C20.9064 32.2146 20.1756 32.0083 19.2981 31.7619ZM0.324219 26.9852V21.8486L0.930488 21.5805C2.23633 21.003 3.81559 20.6801 6.01615 20.5409L7.27563 20.4612V25.5306V30.6001L5.93663 30.7383C3.38693 31.0015 1.8381 31.3496 0.752325 31.9035L0.324219 32.1219V26.9852ZM90.9642 20.3896C90.7062 20.2724 90.3473 19.9827 90.1665 19.7457C89.8804 19.3705 89.8379 19.2167 89.8379 18.5563C89.8379 17.896 89.8804 17.7422 90.1665 17.367C90.5423 16.8744 91.2478 16.5113 91.8365 16.5076C92.0582 16.5062 92.468 16.6205 92.7472 16.7615C94.2426 17.517 94.2426 19.5957 92.7472 20.3512C92.1325 20.6617 91.5892 20.6734 90.9642 20.3896ZM19.697 11.8657C18.7122 11.5565 15.4948 10.7222 14.4834 10.5138L14.227 10.461V5.45917V0.457305L14.9393 0.621452C16.8236 1.0557 20.7218 2.22162 20.9063 2.40614C20.932 2.43181 20.9396 4.65522 20.9233 7.34707L20.8936 12.2414L19.697 11.8657ZM0.324219 6.36874V1.24065L0.637602 1.07974C1.75355 0.506766 3.63145 0.14271 5.93663 0.0524438L7.27563 0V5.10406V10.2081L5.99361 10.2866C3.57572 10.4347 1.65092 10.8114 0.637602 11.3349L0.324219 11.4968V6.36874Z" fill="#1D1D1F"/>
</svg>