<svg xmlns="http://www.w3.org/2000/svg" width="140" height="64" viewBox="0 0 140 64" fill="none">
  <path d="M101.197 27.7229C101.205 27.7207 101.213 27.7208 101.221 27.7232L101.197 27.7229Z" fill="#1D1D1F"/>
  <path d="M89.1337 35.9766L89.1366 36.0891C89.1366 36.0954 89.1384 36.0971 89.142 36.0942H89.1424C89.1457 36.0915 89.1474 36.0896 89.1474 36.0884L89.142 35.9752" fill="#1D1D1F"/>
  <path d="M24.8951 26.0711C24.8958 26.0701 24.8962 26.0689 24.8963 26.0677C24.8964 26.0665 24.8962 26.0653 24.8957 26.0642C24.8952 26.0631 24.8944 26.0621 24.8934 26.0614C24.8924 26.0608 24.8912 26.0603 24.89 26.0602C24.5757 26.0528 24.3074 26.0465 24.0851 26.0415C23.8081 26.035 23.5698 26.0174 23.3702 25.9888C22.3683 25.8445 21.4137 25.5388 20.5065 25.0717C20.5046 25.0708 20.5031 25.0693 20.5019 25.0675C20.5008 25.0658 20.5001 25.0637 20.5 25.0615C20.4999 25.0594 20.5004 25.0573 20.5013 25.0553C20.5023 25.0534 20.5037 25.0517 20.5054 25.0504L25.5805 21.5502C25.5817 21.5493 25.5832 21.5489 25.5847 21.5488C25.5862 21.5488 25.5877 21.5492 25.589 21.55C25.5903 21.5508 25.5913 21.552 25.592 21.5533C25.5926 21.5547 25.5929 21.5562 25.5927 21.5577L25.3731 23.2155C25.3727 23.2181 25.3729 23.2207 25.3736 23.2232C25.3744 23.2257 25.3756 23.228 25.3773 23.2299C25.379 23.2319 25.3811 23.2334 25.3835 23.2345C25.3859 23.2356 25.3884 23.2361 25.391 23.2361C27.249 23.2358 28.8532 23.2359 30.2037 23.2364C30.6248 23.2367 30.8641 23.2376 30.9218 23.2393C32.585 23.2855 34.0695 23.8151 35.3753 24.8282C37.0867 26.1559 38.1637 28.2242 38.2605 30.3968C38.3412 32.2014 37.8502 33.8353 36.7878 35.2983C36.7804 35.3084 36.7811 35.3178 36.7899 35.3265L39.7595 38.3119C39.7604 38.3129 39.7615 38.3137 39.7628 38.3143C39.764 38.3148 39.7654 38.3151 39.7668 38.3151C39.7681 38.3151 39.7695 38.3148 39.7708 38.3143C39.7721 38.3137 39.7732 38.3129 39.7742 38.3119L42.6972 35.3737C42.7003 35.3706 42.7022 35.3664 42.7025 35.3618C42.7028 35.3573 42.7014 35.3528 42.6986 35.3492C41.912 34.2974 41.4275 33.1247 41.2452 31.8309C41.2105 31.5851 41.1893 31.3464 41.1817 31.1148C41.1159 29.1637 41.6941 27.4423 42.9164 25.9506C44.1567 24.4364 46.0027 23.4554 47.9506 23.2736C48.2245 23.2479 48.5445 23.2351 48.9105 23.2353C50.7517 23.2368 52.489 23.2369 54.1223 23.2357C54.1505 23.2355 54.1628 23.2213 54.1592 23.1931L53.949 21.5696C53.9466 21.5516 53.9528 21.5477 53.9676 21.5581L59.0384 25.0551C59.0394 25.0558 59.0403 25.0569 59.0409 25.058C59.0415 25.0592 59.0417 25.0605 59.0417 25.0618C59.0416 25.0631 59.0412 25.0644 59.0405 25.0655C59.0398 25.0666 59.0388 25.0675 59.0376 25.0681C58.3922 25.4031 57.6981 25.6605 56.9555 25.8402C56.4641 25.959 55.9891 26.0248 55.5305 26.0375C55.5125 26.038 55.1905 26.0465 54.5644 26.0631C54.552 26.0634 54.5496 26.0685 54.5572 26.0786C55.2362 26.9525 55.7025 27.8922 55.9561 28.8978C56.4639 30.9127 56.1456 33.0438 55.046 34.7994C54.5145 35.6483 53.8104 36.4012 52.9879 36.9745C51.5838 37.9532 50.0157 38.4028 48.2836 38.3235C47.1269 38.2703 46.0082 37.9383 44.9275 37.3274C44.9163 37.3209 44.9061 37.3223 44.897 37.3317L39.7807 42.4753C39.7783 42.4777 39.7751 42.4791 39.7716 42.4791C39.7682 42.4791 39.7649 42.4777 39.7624 42.4753L34.608 37.2931C34.6009 37.2861 34.593 37.2852 34.5844 37.2902C33.029 38.1897 31.3691 38.5086 29.6044 38.2466C29.3769 38.213 29.1428 38.1651 28.9021 38.103C25.9849 37.3515 23.7959 34.9213 23.3394 31.9326C23.1923 30.9686 23.2303 30.0075 23.4535 29.0493C23.7081 27.9576 24.1886 26.9648 24.8951 26.0711ZM35.4474 30.7861C35.4474 29.5368 34.9538 28.3387 34.0751 27.4554C33.1965 26.572 32.0047 26.0758 30.7621 26.0758C29.5195 26.0758 28.3278 26.572 27.4491 27.4554C26.5704 28.3387 26.0768 29.5368 26.0768 30.7861C26.0768 32.0353 26.5704 33.2334 27.4491 34.1168C28.3278 35.0001 29.5195 35.4964 30.7621 35.4964C32.0047 35.4964 33.1965 35.0001 34.0751 34.1168C34.9538 33.2334 35.4474 32.0353 35.4474 30.7861ZM53.3687 30.7861C53.3687 29.5368 52.875 28.3387 51.9964 27.4554C51.1177 26.572 49.926 26.0758 48.6834 26.0758C47.4407 26.0758 46.249 26.572 45.3703 27.4554C44.4917 28.3387 43.998 29.5368 43.998 30.7861C43.998 32.0353 44.4917 33.2334 45.3703 34.1168C46.249 35.0001 47.4407 35.4964 48.6834 35.4964C49.926 35.4964 51.1177 35.0001 51.9964 34.1168C52.875 33.2334 53.3687 32.0353 53.3687 30.7861Z" fill="#1D1D1F"/>
  <path d="M95.9913 22.8951L99.2053 23.3294C99.2153 23.3306 99.2202 23.3362 99.2202 23.3463C99.2198 28.0341 99.2196 32.7204 99.2199 37.4053C99.2199 37.6886 99.2179 37.8811 99.2138 37.9828C99.2081 38.1288 99.1836 38.2328 99.1402 38.2948C99.0714 38.3932 98.9587 38.4423 98.8022 38.4423C97.5115 38.4428 96.6597 38.4423 96.2467 38.4409C96.2256 38.4409 96.1916 38.4333 96.1446 38.4182C96.013 38.376 95.9464 38.174 95.9464 38.0546C95.9464 36.3939 95.9464 31.354 95.9464 22.9351C95.9464 22.9043 95.9614 22.891 95.9913 22.8951Z" fill="#1D1D1F"/>
  <path d="M63.7209 37.1847C63.1003 36.6693 62.6088 36.0252 62.2465 35.2524C62.0122 34.7532 61.8347 34.249 61.714 33.7396C61.5706 33.134 61.4804 32.5215 61.4435 31.9021C61.4289 31.6584 61.422 31.3651 61.4227 31.0223C61.4234 30.6506 61.4251 30.4088 61.4277 30.2968C61.443 29.6923 61.5112 29.0825 61.6321 28.4672C61.8261 27.4807 62.1958 26.4913 62.7846 25.6827C63.2946 24.9822 63.9379 24.44 64.7146 24.056C65.6113 23.6128 66.5903 23.4023 67.6031 23.3569C68.6417 23.3105 69.6609 23.3711 70.6475 23.6564C72.3423 24.1466 73.5611 25.1828 74.3041 26.765C74.987 28.2189 75.1397 29.863 75.1095 31.4575C75.0968 32.1209 75.0306 32.7667 74.9109 33.3948C74.7273 34.3581 74.3691 35.3224 73.8072 36.1296C73.2925 36.8683 72.6309 37.4429 71.8223 37.8532C70.8544 38.3443 69.7659 38.5595 68.6816 38.586C68.2464 38.5967 67.8829 38.5931 67.5912 38.5755C67.1074 38.546 66.6174 38.4725 66.1211 38.3552C65.2438 38.1472 64.4128 37.7592 63.7209 37.1847ZM65.4586 27.4596C64.97 28.0908 64.6995 28.8889 64.572 29.6885C64.4939 30.1775 64.4604 30.6835 64.4714 31.2067C64.4776 31.4953 64.4892 31.7368 64.5062 31.9311C64.5335 32.2435 64.6002 32.6041 64.7063 33.013C64.8033 33.3871 64.9512 33.7458 65.15 34.0892C65.5704 34.8154 66.2131 35.3268 67.0063 35.5652C67.6142 35.7479 68.2402 35.7927 68.8842 35.6995C69.99 35.5396 70.7927 34.963 71.2924 33.9697C71.4564 33.6438 71.5811 33.2954 71.6664 32.9245C71.7691 32.4768 71.8295 32.05 71.8474 31.644C71.8726 31.073 71.8636 30.5606 71.8205 30.1069C71.7795 29.6784 71.6944 29.243 71.565 28.8007C71.4429 28.3826 71.286 28.0214 71.0944 27.717C70.5203 26.8038 69.6884 26.3013 68.5986 26.2093C67.3864 26.107 66.2174 26.4801 65.4586 27.4596Z" fill="#1D1D1F"/>
  <path d="M101.206 27.6683C101.214 27.6662 101.222 27.6663 101.231 27.6687L102.347 27.6709C102.359 27.6709 102.366 27.6646 102.366 27.6521V23.5098C102.366 23.5074 102.366 23.5049 102.367 23.5026C102.368 23.5004 102.37 23.4984 102.371 23.4967C102.373 23.4951 102.375 23.4939 102.378 23.4931C102.38 23.4924 102.383 23.4922 102.385 23.4925L105.572 23.897C105.594 23.8999 105.605 23.9124 105.605 23.9346V27.6488C105.605 27.6548 105.608 27.6605 105.612 27.6647C105.616 27.6689 105.622 27.6712 105.628 27.6712H107.664C107.671 27.6712 107.678 27.6738 107.684 27.6784C107.689 27.6831 107.693 27.6897 107.694 27.6969L108.119 30.0629C108.12 30.0664 108.12 30.07 108.119 30.0734C108.118 30.0769 108.116 30.08 108.114 30.0828C108.112 30.0855 108.109 30.0877 108.106 30.0892C108.102 30.0907 108.099 30.0915 108.095 30.0914H105.623C105.611 30.0914 105.605 30.0977 105.605 30.1102C105.606 31.9994 105.606 33.4408 105.602 34.4345C105.601 34.6635 105.62 34.8655 105.658 35.0406C105.749 35.4552 106.004 35.7004 106.423 35.7763C106.653 35.8177 106.868 35.8117 107.069 35.7582C107.268 35.7055 107.481 35.6158 107.709 35.4892C107.796 35.4405 107.863 35.4656 107.91 35.5643C108.416 36.6172 108.741 37.2903 108.886 37.5836C108.899 37.6106 108.893 37.632 108.868 37.6479C108.54 37.8499 108.201 38.0059 107.851 38.116C107.32 38.2831 106.829 38.3827 106.378 38.415C106.03 38.44 105.685 38.448 105.344 38.4388C104.674 38.4208 103.929 38.2543 103.387 37.8368C103.007 37.5437 102.737 37.1666 102.577 36.7052C102.484 36.4401 102.422 36.1475 102.39 35.8272C102.373 35.6604 102.365 35.4187 102.365 35.1023C102.366 33.453 102.366 31.7902 102.366 30.1138C102.366 30.1082 102.364 30.1027 102.36 30.0986C102.356 30.0946 102.35 30.0923 102.344 30.0922C101.924 30.09 101.509 30.0908 101.097 30.0947C100.84 30.0971 100.711 29.9696 100.71 29.7122C100.707 29.0973 100.708 28.5718 100.713 28.1357C100.714 28.0201 100.722 27.9403 100.737 27.8962C100.804 27.7005 101.008 27.6586 101.206 27.6683Z" fill="#1D1D1F"/>
  <path d="M120.5 32.6279V33.513C120.479 34.0099 120.42 34.501 120.324 34.9863C120.229 35.466 120.074 35.9148 119.86 36.3328C119.521 36.9933 119.031 37.4983 118.389 37.8479C117.657 38.2471 116.79 38.4253 115.961 38.4404C115.854 38.4426 115.588 38.4431 115.164 38.4419C114.845 38.4409 114.454 38.3986 113.991 38.315C113.535 38.2331 113.098 38.0876 112.68 37.8784C112.059 37.5677 111.566 37.1252 111.201 36.551C110.992 36.2213 110.822 35.8462 110.69 35.4255C110.537 34.9341 110.442 34.3861 110.405 33.7814C110.363 33.1049 110.376 32.4505 110.444 31.8183C110.518 31.1229 110.694 30.4086 111.006 29.7862C111.341 29.1182 111.822 28.5973 112.448 28.2233C113.213 27.7677 114.114 27.5855 115.023 27.5406C115.62 27.5111 116.198 27.5374 116.758 27.6196C117.153 27.6776 117.527 27.7752 117.88 27.9125C118.587 28.187 119.153 28.6244 119.579 29.2245C119.801 29.5366 119.98 29.8958 120.117 30.3018C120.288 30.809 120.399 31.3432 120.45 31.9045C120.471 32.1448 120.488 32.3859 120.5 32.6279ZM117.164 30.8074C116.799 30.3511 116.29 30.115 115.713 30.0456C115.37 30.0044 115.048 30.0173 114.748 30.0844C113.818 30.2928 113.341 31.0302 113.175 31.9186C113.049 32.5922 113.046 33.2835 113.165 33.9924C113.224 34.3395 113.321 34.6418 113.458 34.8994C113.752 35.4531 114.166 35.8046 114.752 35.9458C115.262 36.069 115.766 36.0565 116.263 35.9084C117.148 35.6458 117.589 34.8821 117.736 34.0139C117.803 33.6158 117.823 33.1963 117.797 32.7555C117.754 32.0504 117.596 31.3472 117.164 30.8074Z" fill="#1D1D1F"/>
  <path d="M89.1338 35.9248L89.1367 36.0365C89.1367 36.0427 89.1385 36.0444 89.1421 36.0415H89.1425C89.1458 36.0389 89.1475 36.037 89.1475 36.0358L89.1421 35.9233C89.7104 33.4202 90.2783 30.9171 90.8458 28.4139C90.8738 28.2913 90.8926 28.2193 90.9022 28.198C90.9797 28.0302 91.1813 27.9796 91.3601 27.9799C92.1009 27.9816 92.9753 27.9824 93.9835 27.9824C94.0221 27.9824 94.079 27.9897 94.1543 28.0043C94.3994 28.0518 94.5116 28.2997 94.4341 28.5188C92.6755 33.4966 91.5691 36.6316 91.1147 37.9237C91.0792 38.0248 91.0417 38.125 91.0021 38.2244C90.9442 38.3703 90.8341 38.443 90.6717 38.4425C88.6764 38.436 87.6691 38.4327 87.6498 38.4325C87.5622 38.4314 87.4417 38.4364 87.3812 38.3638C87.3236 38.2946 87.2783 38.1987 87.2455 38.0761C86.692 36.0127 86.1224 33.8977 85.5368 31.731C85.5303 31.7066 85.5234 31.7065 85.5161 31.7307C84.7746 34.2132 84.1309 36.3636 83.5848 38.1817C83.5452 38.3132 83.4718 38.394 83.3644 38.4242C83.3373 38.4319 83.2382 38.4358 83.0669 38.436C82.2267 38.437 81.3744 38.4374 80.5101 38.4371C80.4181 38.4371 80.2285 38.4422 80.155 38.3789C80.1019 38.3334 80.0611 38.2703 80.0327 38.1896C79.7057 37.2586 78.5901 34.0954 76.6858 28.6999C76.6318 28.5468 76.5772 28.4074 76.6123 28.2681C76.685 27.9796 76.967 27.9792 77.2254 27.9799C78.0555 27.9823 78.894 27.9832 79.7409 27.9824C79.7834 27.9824 79.8536 27.9939 79.9516 28.0169C80.0122 28.0313 80.0689 28.0743 80.1217 28.1459C80.1735 28.216 80.2046 28.3934 80.2267 28.4865C80.8437 31.1094 81.4055 33.5501 81.9123 35.8087C81.9171 35.83 81.9219 35.83 81.9267 35.8087C82.1215 34.9623 82.3566 34.0004 82.6322 32.9231C82.7077 32.6285 82.7661 32.396 82.8073 32.2257C83.1905 30.6495 83.5298 29.3139 83.8251 28.2188C83.855 28.1075 83.9371 28.0388 84.0713 28.013C84.2069 27.9869 84.338 27.9751 84.4647 27.9778C84.6787 27.9826 85.4206 27.9841 86.6903 27.9824C86.8514 27.9821 87.015 28.0015 87.1206 28.1308C87.1496 28.1658 87.1816 28.2491 87.2166 28.3809C87.8295 30.6773 88.4141 32.9396 88.9705 35.1678C88.9956 35.2681 89.05 35.5205 89.1338 35.9248Z" fill="#1D1D1F"/>
  <path d="M29.469 29.3092C29.8006 29.0321 30.212 28.8875 30.703 28.8752C31.1345 28.8649 31.5645 28.9536 31.9103 29.1822C32.5681 29.6161 32.8011 30.4193 32.6652 31.1867C32.4754 32.2582 31.5022 32.9123 30.4444 32.7316C29.9348 32.6444 29.5249 32.3969 29.2148 31.9888C29.0622 31.7881 28.9552 31.5563 28.894 31.2935C28.7284 30.586 28.8961 29.788 29.469 29.3092Z" fill="#1D1D1F"/>
  <path d="M49.2961 28.9685C49.2237 28.8801 49.2407 28.854 49.3471 28.8901C49.4754 28.9337 49.6263 29.0065 49.7997 29.1084C50.054 29.2577 50.2628 29.4682 50.4161 29.7266C50.6846 30.1793 50.7681 30.6836 50.6665 31.2395C50.6107 31.5451 50.4699 31.8258 50.2441 32.0815C49.899 32.472 49.4574 32.695 48.9192 32.7505C48.5181 32.7918 48.1543 32.7166 47.8279 32.5247C47.4126 32.2805 47.1321 31.8442 46.9948 31.375C46.9781 31.3175 46.9926 31.3073 47.0383 31.3441C47.14 31.4258 47.2585 31.5431 47.3749 31.6103C47.8263 31.8702 48.2835 31.9097 48.7464 31.7288C49.3054 31.5101 49.7099 30.9881 49.7857 30.3707C49.8428 29.9055 49.711 29.4344 49.3956 29.0821C49.3446 29.0249 49.3114 28.987 49.2961 28.9685Z" fill="#1D1D1F"/>
  <path d="M89.1012 35.901V36.0416C89.1012 36.0431 89.1012 36.0455 89.1012 36.0488C89.1012 36.0524 89.1012 36.0503 89.1012 36.0425V35.9028C89.1012 35.9022 89.1012 35.9016 89.1012 35.901Z" fill="#1D1D1F"/>
</svg>