<svg xmlns="http://www.w3.org/2000/svg" width="205" height="44" viewBox="0 0 205 44" fill="none">
  <path d="M165.306 12.9277C165.323 12.9232 165.34 12.9235 165.357 12.9284L165.306 12.9277Z" fill="#1D1D1F"/>
  <path d="M140.606 29.8282L140.612 30.0585C140.612 30.0714 140.615 30.0748 140.623 30.0689H140.624C140.63 30.0635 140.634 30.0595 140.634 30.0571L140.623 29.8252" fill="#1D1D1F"/>
  <path d="M9.0697 9.54546C9.07114 9.54343 9.07202 9.54106 9.07225 9.53858C9.07247 9.5361 9.07204 9.53361 9.071 9.53135C9.06995 9.5291 9.06832 9.52716 9.06629 9.52575C9.06425 9.52433 9.06188 9.52349 9.05941 9.52329C8.41571 9.50803 7.86632 9.49522 7.41122 9.48488C6.84395 9.47158 6.35603 9.43563 5.94748 9.37702C3.89588 9.08153 1.94127 8.45557 0.0836645 7.49916C0.0798221 7.49719 0.0765768 7.49424 0.0742433 7.4906C0.0719097 7.48695 0.070567 7.48273 0.0703453 7.47835C0.0701235 7.47396 0.0710302 7.46956 0.0729776 7.46557C0.0749249 7.46158 0.0778468 7.45814 0.0814601 7.45557L10.4732 0.288354C10.4758 0.286637 10.4788 0.285697 10.4819 0.285647C10.485 0.285596 10.488 0.286437 10.4906 0.288069C10.4933 0.289702 10.4954 0.292057 10.4967 0.294857C10.498 0.297657 10.4986 0.300784 10.4982 0.303867L10.0485 3.69836C10.0477 3.70363 10.0481 3.70899 10.0496 3.71409C10.0512 3.71918 10.0537 3.72389 10.0572 3.72789C10.0607 3.73189 10.065 3.73508 10.0699 3.73725C10.0747 3.73942 10.0799 3.74052 10.0852 3.74047C13.8896 3.73998 17.1744 3.74022 19.9398 3.74121C20.802 3.7417 21.2921 3.74367 21.4102 3.74712C24.8158 3.84167 27.8554 4.92614 30.5292 7.00051C34.0335 9.71906 36.2387 13.9542 36.4371 18.4029C36.6022 22.0981 35.597 25.4435 33.4214 28.4394C33.4062 28.4601 33.4077 28.4793 33.4258 28.497L39.5064 34.61C39.5083 34.6121 39.5106 34.6137 39.5131 34.6148C39.5157 34.6159 39.5184 34.6165 39.5212 34.6165C39.5241 34.6165 39.5269 34.6159 39.5295 34.6148C39.5321 34.6137 39.5345 34.6121 39.5365 34.61L45.5216 28.5938C45.5281 28.5873 45.5319 28.5786 45.5325 28.5694C45.533 28.5601 45.5302 28.5509 45.5245 28.5435C43.9138 26.3899 42.9218 23.9885 42.5485 21.3394C42.4775 20.8361 42.4341 20.3473 42.4185 19.873C42.2838 15.8779 43.4678 12.3531 45.9706 9.29872C48.5101 6.19824 52.29 4.18962 56.2785 3.8173C56.8394 3.7646 57.4946 3.7385 58.2441 3.73899C62.0142 3.74195 65.5715 3.74219 68.9158 3.73973C68.9736 3.73924 68.9989 3.71018 68.9915 3.65256L68.5609 0.328246C68.556 0.291309 68.5688 0.283429 68.5991 0.304606L78.9821 7.46518C78.9843 7.46668 78.986 7.46873 78.9872 7.47114C78.9884 7.47354 78.989 7.47621 78.9888 7.47889C78.9887 7.48157 78.9878 7.48417 78.9864 7.48642C78.985 7.48868 78.9829 7.49052 78.9806 7.49177C77.6589 8.17781 76.2378 8.70477 74.7172 9.07267C73.711 9.31596 72.7383 9.45065 71.7992 9.47675C71.7625 9.47774 71.1031 9.49522 69.8211 9.5292C69.7957 9.5297 69.7908 9.54029 69.8064 9.56097C71.1967 11.3502 72.1515 13.2744 72.6707 15.3335C73.7105 19.4593 73.0587 23.823 70.8073 27.4177C69.719 29.1559 68.2773 30.6977 66.5931 31.8715C63.718 33.8755 60.5071 34.7962 56.9604 34.6337C54.5919 34.5248 52.3012 33.8449 50.0885 32.594C50.0654 32.5807 50.0446 32.5837 50.026 32.6029L39.5498 43.1351C39.5449 43.14 39.5382 43.1427 39.5312 43.1427C39.5242 43.1427 39.5174 43.14 39.5123 43.1351L28.9582 32.5238C28.9435 32.5096 28.9273 32.5076 28.9097 32.5179C25.725 34.3598 22.326 35.0126 18.7127 34.4763C18.2468 34.4074 17.7674 34.3094 17.2746 34.1823C11.3013 32.6435 6.81896 27.6674 5.88428 21.5477C5.58301 19.5738 5.6609 17.6058 6.11795 15.6437C6.63918 13.4083 7.6231 11.3756 9.0697 9.54546ZM30.6769 19.2C30.6769 16.642 29.6661 14.1888 27.867 12.38C26.0678 10.5712 23.6276 9.55506 21.0832 9.55506C18.5387 9.55506 16.0985 10.5712 14.2994 12.38C12.5002 14.1888 11.4894 16.642 11.4894 19.2C11.4894 21.758 12.5002 24.2112 14.2994 26.02C16.0985 27.8288 18.5387 28.8449 21.0832 28.8449C23.6276 28.8449 26.0678 27.8288 27.867 26.02C29.6661 24.2112 30.6769 21.758 30.6769 19.2ZM67.3727 19.2C67.3727 16.642 66.362 14.1888 64.5628 12.38C62.7636 10.5712 60.3234 9.55506 57.779 9.55506C55.2346 9.55506 52.7944 10.5712 50.9952 12.38C49.196 14.1888 48.1853 16.642 48.1853 19.2C48.1853 21.758 49.196 24.2112 50.9952 26.02C52.7944 27.8288 55.2346 28.8449 57.779 28.8449C60.3234 28.8449 62.7636 27.8288 64.5628 26.02C66.362 24.2112 67.3727 21.758 67.3727 19.2Z" fill="#1D1D1F"/>
  <path d="M154.647 3.04221L161.229 3.93148C161.249 3.93394 161.259 3.94551 161.259 3.96619C161.258 13.565 161.258 23.1608 161.258 32.7536C161.258 33.3336 161.254 33.7278 161.246 33.9361C161.234 34.235 161.184 34.4479 161.095 34.575C160.954 34.7764 160.724 34.8771 160.403 34.8771C157.76 34.878 156.016 34.8771 155.171 34.8741C155.127 34.8741 155.058 34.8586 154.961 34.8276C154.692 34.7412 154.556 34.3275 154.556 34.0831C154.556 30.6826 154.556 20.363 154.556 3.1242C154.556 3.06117 154.586 3.03384 154.647 3.04221Z" fill="#1D1D1F"/>
  <path d="M88.5701 32.3019C87.2994 31.2466 86.293 29.9277 85.551 28.3453C85.0714 27.3232 84.708 26.2907 84.4608 25.2477C84.1671 24.0076 83.9824 22.7534 83.9069 21.4851C83.877 20.9862 83.8628 20.3857 83.8642 19.6837C83.8657 18.9226 83.8691 18.4275 83.8745 18.1981C83.9059 16.9604 84.0454 15.7117 84.2931 14.4518C84.6903 12.4318 85.4473 10.406 86.653 8.75018C87.6971 7.31586 89.0144 6.20557 90.6048 5.4193C92.441 4.5119 94.4456 4.08086 96.5193 3.98796C98.6461 3.89284 100.733 4.01695 102.753 4.60108C106.223 5.60485 108.719 7.72659 110.24 10.9663C111.639 13.9434 111.951 17.31 111.89 20.5747C111.864 21.9332 111.728 23.2556 111.483 24.5417C111.107 26.5141 110.374 28.4887 109.223 30.1415C108.169 31.6541 106.814 32.8305 105.159 33.6708C103.177 34.6763 100.948 35.117 98.7277 35.1712C97.8366 35.1931 97.0924 35.1859 96.4951 35.1497C95.5044 35.0893 94.501 34.9389 93.4848 34.6986C91.6884 34.2728 89.9869 33.4783 88.5701 32.3019ZM92.1283 12.3887C91.1279 13.6811 90.5739 15.3153 90.3128 16.9525C90.1529 17.9538 90.0843 18.99 90.1068 20.0612C90.1196 20.6522 90.1433 21.1467 90.1782 21.5445C90.2341 22.1842 90.3707 22.9226 90.5879 23.7599C90.7865 24.5259 91.0894 25.2604 91.4964 25.9634C92.3571 27.4505 93.6732 28.4976 95.2974 28.9859C96.5421 29.3599 97.8239 29.4516 99.1426 29.2608C101.407 28.9334 103.051 27.7527 104.074 25.7189C104.409 25.0515 104.665 24.3381 104.839 23.5786C105.05 22.662 105.173 21.7881 105.21 20.9567C105.262 19.7874 105.243 18.7383 105.155 17.8094C105.071 16.9319 104.897 16.0404 104.632 15.1347C104.382 14.2786 104.061 13.5389 103.668 12.9156C102.493 11.0458 100.789 10.0168 98.5578 9.82851C96.0757 9.61894 93.682 10.3829 92.1283 12.3887Z" fill="#1D1D1F"/>
  <path d="M165.325 12.8161C165.342 12.8116 165.358 12.8119 165.376 12.8168L167.661 12.8213C167.687 12.8213 167.7 12.8084 167.7 12.7828V4.30101C167.7 4.29595 167.701 4.29094 167.703 4.28631C167.705 4.28169 167.708 4.27756 167.712 4.2742C167.715 4.27083 167.72 4.26832 167.725 4.26682C167.729 4.26532 167.734 4.26488 167.739 4.26551L174.265 5.09379C174.311 5.09971 174.333 5.12535 174.333 5.17071V12.7761C174.333 12.7883 174.338 12.8 174.347 12.8086C174.355 12.8172 174.367 12.822 174.379 12.822H178.548C178.563 12.8219 178.578 12.8272 178.589 12.8368C178.601 12.8463 178.608 12.8597 178.611 12.8745L179.481 17.7192C179.482 17.7264 179.482 17.7337 179.48 17.7407C179.478 17.7478 179.475 17.7543 179.47 17.7599C179.465 17.7654 179.46 17.7699 179.453 17.773C179.447 17.7761 179.439 17.7777 179.432 17.7777H174.37C174.344 17.7777 174.332 17.7905 174.332 17.8161C174.336 21.6844 174.334 24.6359 174.327 26.6706C174.325 27.1395 174.363 27.5531 174.442 27.9116C174.627 28.7606 175.149 29.2627 176.008 29.418C176.478 29.5028 176.919 29.4905 177.33 29.381C177.737 29.2731 178.174 29.0894 178.641 28.8301C178.819 28.7305 178.957 28.7818 179.053 28.9839C180.089 31.1399 180.754 32.5182 181.051 33.1187C181.078 33.1739 181.066 33.2178 181.013 33.2503C180.342 33.664 179.649 33.9834 178.932 34.2088C177.845 34.5509 176.839 34.755 175.916 34.8211C175.202 34.8724 174.496 34.8886 173.799 34.8699C172.426 34.8329 170.901 34.492 169.791 33.6371C169.012 33.0371 168.459 32.2648 168.132 31.3201C167.943 30.7773 167.816 30.178 167.75 29.5223C167.715 29.1806 167.698 28.6859 167.699 28.038C167.7 24.6608 167.7 21.256 167.7 17.8235C167.7 17.8119 167.696 17.8007 167.687 17.7924C167.679 17.7841 167.668 17.7793 167.656 17.7791C166.796 17.7747 165.945 17.7764 165.103 17.7843C164.576 17.7892 164.312 17.5282 164.309 17.0011C164.304 15.7419 164.306 14.6659 164.315 13.773C164.318 13.5364 164.334 13.3729 164.365 13.2827C164.503 12.8819 164.919 12.7961 165.325 12.8161Z" fill="#1D1D1F"/>
  <path d="M204.832 22.9714V24.7837C204.788 25.8011 204.668 26.8067 204.472 27.8005C204.277 28.7826 203.96 29.7016 203.521 30.5576C202.827 31.91 201.823 32.9441 200.51 33.6598C199.01 34.4773 197.236 34.8423 195.538 34.8732C195.318 34.8776 194.774 34.8786 193.906 34.8761C193.253 34.8742 192.453 34.7876 191.504 34.6164C190.571 34.4486 189.676 34.1506 188.82 33.7224C187.548 33.0861 186.539 32.1801 185.792 31.0043C185.363 30.3293 185.015 29.5611 184.746 28.6997C184.431 27.6936 184.236 26.5715 184.161 25.3333C184.076 23.948 184.102 22.6081 184.24 21.3136C184.392 19.8898 184.753 18.427 185.392 17.1525C186.077 15.7849 187.062 14.7182 188.345 13.9525C189.911 13.0194 191.757 12.6464 193.618 12.5544C194.839 12.4941 196.023 12.548 197.169 12.7163C197.978 12.835 198.744 13.0349 199.468 13.316C200.914 13.8781 202.074 14.7736 202.947 16.0024C203.401 16.6416 203.768 17.3769 204.048 18.2084C204.398 19.2469 204.624 20.3408 204.729 21.4902C204.773 21.9822 204.808 22.4759 204.832 22.9714ZM198.002 19.2437C197.253 18.3092 196.211 17.8258 195.029 17.6838C194.327 17.5994 193.668 17.6259 193.053 17.7633C191.15 18.19 190.172 19.6999 189.833 21.5189C189.575 22.8983 189.568 24.3137 189.813 25.7652C189.932 26.476 190.132 27.0951 190.413 27.6224C191.015 28.7563 191.862 29.476 193.061 29.7651C194.106 30.0173 195.138 29.9918 196.156 29.6886C197.968 29.1507 198.871 27.5871 199.172 25.8094C199.31 24.9941 199.351 24.1352 199.296 23.2326C199.209 21.7889 198.886 20.3489 198.002 19.2437Z" fill="#1D1D1F"/>
  <path d="M140.606 29.722L140.612 29.9508C140.612 29.9636 140.616 29.967 140.623 29.9611H140.624C140.631 29.9557 140.634 29.9518 140.634 29.9494L140.623 29.7191C141.787 24.5936 142.949 19.4682 144.111 14.3427C144.169 14.0916 144.207 13.9442 144.227 13.9006C144.386 13.557 144.798 13.4533 145.165 13.454C146.681 13.4575 148.472 13.4592 150.536 13.4592C150.615 13.4592 150.732 13.4742 150.886 13.5041C151.388 13.6012 151.618 14.1088 151.459 14.5575C147.858 24.7501 145.592 31.1693 144.662 33.8152C144.589 34.0221 144.513 34.2274 144.432 34.4309C144.313 34.7296 144.087 34.8784 143.755 34.8774C139.669 34.8642 137.607 34.8573 137.567 34.8568C137.388 34.8546 137.141 34.8649 137.017 34.7163C136.899 34.5746 136.807 34.3782 136.739 34.1271C135.606 29.902 134.44 25.5713 133.241 21.1349C133.227 21.0849 133.213 21.0846 133.198 21.1341C131.68 26.2174 130.362 30.6205 129.244 34.3433C129.163 34.6126 129.012 34.7781 128.792 34.8399C128.737 34.8556 128.534 34.8637 128.183 34.8642C126.463 34.8661 124.718 34.8669 122.948 34.8664C122.76 34.8664 122.371 34.8767 122.221 34.7472C122.112 34.654 122.029 34.5248 121.97 34.3595C121.301 32.4532 119.016 25.9761 115.117 14.9283C115.007 14.6149 114.895 14.3295 114.967 14.044C115.116 13.4533 115.693 13.4526 116.222 13.454C117.922 13.4589 119.639 13.4607 121.373 13.4592C121.46 13.4592 121.604 13.4827 121.804 13.5298C121.928 13.5592 122.044 13.6473 122.153 13.7939C122.259 13.9374 122.322 14.3008 122.368 14.4913C123.631 19.862 124.781 24.8597 125.819 29.4844C125.829 29.5281 125.839 29.5281 125.849 29.4844C126.247 27.7513 126.729 25.7817 127.293 23.5757C127.448 22.9725 127.567 22.4966 127.652 22.1479C128.436 18.9204 129.131 16.1855 129.736 13.9432C129.797 13.7152 129.965 13.5747 130.24 13.5217C130.518 13.4683 130.786 13.4442 131.045 13.4496C131.484 13.4594 133.003 13.4626 135.603 13.4592C135.932 13.4585 136.267 13.4982 136.484 13.763C136.543 13.8346 136.609 14.0053 136.68 14.275C137.935 18.9772 139.132 23.6096 140.272 28.172C140.323 28.3775 140.434 28.8942 140.606 29.722Z" fill="#1D1D1F"/>
  <path d="M18.4354 16.1758C19.1144 15.6086 19.9567 15.3124 20.9622 15.2873C21.8457 15.2662 22.7262 15.4478 23.4342 15.9158C24.7812 16.8044 25.2582 18.4489 24.9799 20.0204C24.5914 22.2143 22.5987 23.5536 20.4327 23.1836C19.3892 23.0052 18.5499 22.4982 17.9149 21.6626C17.6024 21.2516 17.3834 20.7771 17.2579 20.2389C16.9189 18.7904 17.2624 17.1564 18.4354 16.1758Z" fill="#1D1D1F"/>
  <path d="M59.0336 15.4782C58.8855 15.2973 58.9203 15.2438 59.1381 15.3178C59.4009 15.407 59.7098 15.556 60.0649 15.7648C60.5856 16.0704 61.013 16.5015 61.3271 17.0305C61.8768 17.9575 62.0477 18.9901 61.8398 20.1283C61.7255 20.7542 61.4372 21.3289 60.9748 21.8524C60.2681 22.6521 59.3639 23.1088 58.262 23.2223C57.4406 23.3069 56.6957 23.1529 56.0273 22.7601C55.177 22.2599 54.6026 21.3667 54.3216 20.4058C54.2872 20.2882 54.3169 20.2672 54.4106 20.3427C54.6187 20.5099 54.8615 20.7502 55.0998 20.8877C56.0242 21.4199 56.9603 21.5007 57.9082 21.1302C59.0527 20.6825 59.881 19.6137 60.0362 18.3495C60.1531 17.397 59.8832 16.4323 59.2374 15.7109C59.1329 15.5938 59.065 15.5162 59.0336 15.4782Z" fill="#1D1D1F"/>
  <path d="M140.539 29.6734V29.9613C140.539 29.9643 140.539 29.9692 140.539 29.976C140.539 29.9833 140.539 29.9791 140.539 29.9631V29.677C140.539 29.6758 140.539 29.6746 140.539 29.6734Z" fill="#1D1D1F"/>
</svg>