<svg xmlns="http://www.w3.org/2000/svg" width="140" height="64" viewBox="0 0 140 64" fill="none">
  <path d="M9.92702 28.3604C10.8697 28.3604 11.6339 27.6082 11.6339 26.6802C11.6339 25.7523 10.8697 25 9.92702 25C8.98435 25 8.22017 25.7523 8.22017 26.6802C8.22017 27.6082 8.98435 28.3604 9.92702 28.3604Z" fill="#1D1D1F"/>
  <path d="M22.0643 28.3585C23.0063 28.3585 23.7699 27.6068 23.7699 26.6796C23.7699 25.7523 23.0063 25.0006 22.0643 25.0006C21.1224 25.0006 20.3588 25.7523 20.3588 26.6796C20.3588 27.6068 21.1224 28.3585 22.0643 28.3585Z" fill="#1D1D1F"/>
  <path d="M73.8487 31.134C73.9041 31.0766 74.0097 30.9566 74.1655 30.774C74.3028 30.613 74.4118 30.4979 74.4925 30.4286C74.9844 30.0086 75.5356 29.7593 76.146 29.6807C77.5566 29.4988 78.9306 30.0553 79.5049 31.3818C79.7225 31.8855 79.8324 32.4646 79.8346 33.1191C79.8401 34.7708 79.841 36.6179 79.8372 38.6605C79.8372 38.667 79.8345 38.6733 79.8298 38.6779C79.8251 38.6826 79.8187 38.6852 79.812 38.6852H77.8296C77.8159 38.6852 77.8027 38.6798 77.793 38.6702C77.7832 38.6606 77.7776 38.6475 77.7775 38.6338C77.7736 37.6464 77.7736 36.0931 77.7775 33.9741C77.7781 33.4252 77.7459 32.877 77.5128 32.4257C77.1954 31.8122 76.5999 31.4985 75.9013 31.4978C75.1705 31.4972 74.5988 31.7393 74.1861 32.3465C74.0324 32.5726 73.9277 32.8428 73.8719 33.1571C73.8388 33.3426 73.8221 33.6255 73.8216 34.0058C73.8195 35.5574 73.8195 37.1074 73.8216 38.656C73.8216 38.6594 73.821 38.6628 73.8196 38.666C73.8183 38.6691 73.8164 38.672 73.8139 38.6744C73.8115 38.6768 73.8085 38.6787 73.8054 38.68C73.8021 38.6813 73.7987 38.682 73.7952 38.682H71.7877C71.7839 38.682 71.7802 38.6813 71.7766 38.6798C71.7731 38.6784 71.7699 38.6763 71.7672 38.6737C71.7645 38.671 71.7624 38.6679 71.7609 38.6644C71.7595 38.6609 71.7587 38.6572 71.7587 38.6535V26.4787C71.7587 26.4525 71.7718 26.4394 71.798 26.4394H73.7959C73.7992 26.4394 73.8025 26.4401 73.8055 26.4413C73.8085 26.4426 73.8113 26.4444 73.8136 26.4467C73.816 26.449 73.8178 26.4517 73.8191 26.4547C73.8204 26.4577 73.821 26.4609 73.821 26.4641V31.1233C73.821 31.1499 73.8302 31.1535 73.8487 31.134Z" fill="#1D1D1F"/>
  <path d="M117.293 26.4413H115.297C115.281 26.4413 115.267 26.4546 115.267 26.4711V38.6566C115.267 38.6731 115.281 38.6864 115.297 38.6864H117.293C117.31 38.6864 117.323 38.6731 117.323 38.6566V26.4711C117.323 26.4546 117.31 26.4413 117.293 26.4413Z" fill="#1D1D1F"/>
  <path d="M122.136 26.4381H120.138C120.121 26.4381 120.108 26.4511 120.108 26.4672V38.6566C120.108 38.6727 120.121 38.6857 120.138 38.6857H122.136C122.152 38.6857 122.166 38.6727 122.166 38.6566V26.4672C122.166 26.4511 122.152 26.4381 122.136 26.4381Z" fill="#1D1D1F"/>
  <path d="M91.8223 35.5928L94.7183 26.9622C94.723 26.9481 94.7321 26.9357 94.7445 26.9269C94.7569 26.9182 94.7718 26.9134 94.7872 26.9134H96.4329C96.4552 26.9134 96.4769 26.9203 96.4949 26.9332C96.513 26.9461 96.5264 26.9642 96.5333 26.985L99.4146 35.5744C99.4309 35.6238 99.4472 35.6238 99.4635 35.5744L102.264 26.9946C102.269 26.9794 102.279 26.9663 102.292 26.957C102.305 26.9476 102.321 26.9426 102.337 26.9426H104.447C104.469 26.9426 104.476 26.9527 104.469 26.973L100.356 38.7288C100.352 38.7403 100.344 38.7502 100.334 38.7573C100.324 38.7643 100.312 38.7681 100.3 38.7681H98.5563C98.5306 38.7681 98.5136 38.7563 98.5055 38.7326L95.5978 30.3582C95.5914 30.3396 95.585 30.3396 95.5785 30.3582L92.669 38.7377C92.6657 38.7466 92.6598 38.7543 92.652 38.7598C92.6441 38.7652 92.6348 38.7681 92.6252 38.7681H90.8913C90.8796 38.7681 90.8683 38.7646 90.8588 38.758C90.8493 38.7514 90.8422 38.7421 90.8385 38.7314L86.7127 26.9926C86.7007 26.9588 86.7127 26.9419 86.7487 26.9419H88.925C88.9499 26.9419 88.9659 26.9536 88.9732 26.9768C90.4605 31.5305 91.3538 34.2613 91.653 35.1694C91.7066 35.3325 91.757 35.4738 91.8042 35.5934C91.8107 35.6099 91.8167 35.6097 91.8223 35.5928Z" fill="#1D1D1F"/>
  <path d="M42.484 30.3867C42.4583 30.4919 42.4454 30.5889 42.4454 30.6776C42.4458 33.4697 42.4454 36.1199 42.4441 38.6281C42.4441 38.6424 42.4384 38.6561 42.4283 38.6662C42.4181 38.6763 42.4044 38.6819 42.39 38.6819H40.4269C40.396 38.6819 40.3805 38.6665 40.3805 38.6357V26.9838C40.3805 26.9504 40.3977 26.9339 40.4321 26.9344C41.0137 26.9424 41.6771 26.9436 42.4222 26.9382C42.5329 26.9369 42.5902 26.935 42.6553 27.0218C42.6832 27.059 42.7497 27.1583 42.8549 27.3197C42.9463 27.4596 44.069 29.1761 46.2229 32.4694C46.2247 32.472 46.2271 32.4741 46.2299 32.4755C46.2328 32.4769 46.2359 32.4776 46.2391 32.4776C46.2423 32.4775 46.2454 32.4767 46.2482 32.4751C46.251 32.4736 46.2533 32.4714 46.2551 32.4687L49.8477 26.9736C49.8619 26.9525 49.8819 26.942 49.9076 26.942H52.0285C52.0778 26.942 52.1025 26.966 52.1025 27.0142V38.6452C52.1025 38.6546 52.0987 38.6636 52.0919 38.6703C52.0852 38.6769 52.076 38.6807 52.0665 38.6807H50.0338C50.0253 38.6807 50.0171 38.6773 50.0111 38.6714C50.005 38.6654 50.0016 38.6574 50.0016 38.649C49.9986 37.607 49.9988 34.9816 50.0023 30.7727C50.0023 30.6616 50.0087 30.5208 50.0216 30.3506C50.0219 30.3465 50.021 30.3425 50.019 30.3389C50.017 30.3353 50.014 30.3325 50.0104 30.3306C50.0068 30.3288 50.0027 30.328 49.9987 30.3286C49.9948 30.3291 49.9911 30.3308 49.9881 30.3335C49.9344 30.3787 49.887 30.4315 49.8458 30.4919C49.814 30.5388 48.6791 32.2104 46.4411 35.5066C46.366 35.6173 46.2943 35.7147 46.2261 35.7988C46.2226 35.8033 46.2181 35.8069 46.2128 35.8093C46.2076 35.8117 46.2019 35.8128 46.1961 35.8125C46.1903 35.8123 46.1846 35.8107 46.1795 35.8078C46.1744 35.805 46.1701 35.801 46.1668 35.7962C44.9465 33.9903 43.805 32.3073 42.7422 30.7473C42.7203 30.7148 42.6838 30.6531 42.6327 30.5623C42.5727 30.4554 42.534 30.3937 42.5168 30.3772C42.5005 30.362 42.4896 30.3651 42.484 30.3867Z" fill="#1D1D1F"/>
  <path d="M67.2918 31.5693C67.2869 31.5693 67.2821 31.5713 67.2786 31.5749C67.2751 31.5785 67.2731 31.5833 67.2731 31.5884C67.2718 32.9117 67.2718 34.2326 67.2731 35.5509C67.2738 35.8659 67.2712 36.153 67.362 36.4395C67.541 37.008 68.293 37.0898 68.8107 36.9909C69.0716 36.941 69.3412 36.8597 69.6193 36.7469C69.6481 36.7355 69.6625 36.745 69.6625 36.7754V38.3137C69.6625 38.3308 69.6579 38.3476 69.6492 38.3624C69.6405 38.3772 69.628 38.3895 69.6129 38.398C68.9909 38.7504 68.3123 38.8378 67.5815 38.8131C66.3209 38.7706 65.4304 38.1692 65.2688 36.8394C65.2225 36.4591 65.2019 36.0484 65.207 35.6073C65.2109 35.2625 65.2122 33.9265 65.2109 31.5991C65.2109 31.5911 65.2076 31.5833 65.2018 31.5776C65.196 31.5719 65.1882 31.5687 65.18 31.5687H64.097C64.0902 31.5687 64.0836 31.566 64.0788 31.5613C64.074 31.5565 64.0713 31.5501 64.0713 31.5434V29.8638C64.0713 29.8426 64.0822 29.8321 64.1041 29.8321H65.131C65.1843 29.8321 65.2109 29.8059 65.2109 29.7535V27.4249C65.2109 27.4183 65.2135 27.412 65.2182 27.4074C65.2229 27.4028 65.2293 27.4002 65.236 27.4002H67.2274C67.2579 27.4002 67.2731 27.4152 67.2731 27.4452V29.7998C67.2731 29.807 67.2761 29.8139 67.2812 29.819C67.2864 29.8241 67.2935 29.827 67.3008 29.827H69.6354C69.6508 29.827 69.6655 29.833 69.6764 29.8437C69.6873 29.8544 69.6934 29.8689 69.6934 29.884V31.5459C69.6934 31.5521 69.6909 31.5581 69.6864 31.5625C69.6819 31.5669 69.6759 31.5693 69.6695 31.5693H67.2918Z" fill="#1D1D1F"/>
  <path d="M137.607 29.8265H139.941C139.98 29.8265 140 29.8459 140 29.8848V31.5181C140 31.5527 139.982 31.5701 139.947 31.5701H137.591C137.582 31.5701 137.577 31.5749 137.577 31.5846C137.581 32.8539 137.58 34.3051 137.576 35.9383C137.575 36.1859 137.64 36.4176 137.769 36.6335C137.994 37.0088 138.645 37.0645 139.049 37.003C139.343 36.9583 139.625 36.8702 139.894 36.7387C139.94 36.7168 139.963 36.7309 139.963 36.7812V38.3467C139.963 38.3589 139.96 38.3708 139.954 38.3812C139.947 38.3916 139.938 38.4001 139.927 38.4057C139.52 38.6148 139.09 38.7437 138.638 38.7923C138.162 38.843 137.72 38.8303 137.312 38.7543C136.449 38.5924 135.895 38.0945 135.652 37.2604C135.546 36.8959 135.51 36.4618 135.51 36.0416C135.51 33.5292 135.511 32.0518 135.513 31.6094C135.513 31.5836 135.501 31.5707 135.474 31.5707H134.4C134.393 31.5707 134.387 31.5682 134.382 31.5636C134.378 31.5591 134.375 31.553 134.375 31.5466V29.8601C134.375 29.8398 134.386 29.8296 134.406 29.8296H135.474C135.484 29.8296 135.493 29.8257 135.5 29.8187C135.507 29.8117 135.511 29.8022 135.511 29.7922V27.43C135.511 27.411 135.521 27.4015 135.54 27.4015H137.539C137.565 27.4015 137.578 27.4144 137.578 27.4402V29.7979C137.578 29.817 137.587 29.8265 137.607 29.8265Z" fill="#1D1D1F"/>
  <path d="M6.89854 31.3418C7.84157 31.3418 8.60604 30.5893 8.60604 29.661C8.60604 28.7327 7.84157 27.9801 6.89854 27.9801C5.95552 27.9801 5.19105 28.7327 5.19105 29.661C5.19105 30.5893 5.95552 31.3418 6.89854 31.3418Z" fill="#1D1D1F"/>
  <path d="M12.9543 31.3412C13.8973 31.3412 14.6618 30.5887 14.6618 29.6604C14.6618 28.732 13.8973 27.9795 12.9543 27.9795C12.0112 27.9795 11.2468 28.732 11.2468 29.6604C11.2468 30.5887 12.0112 31.3412 12.9543 31.3412Z" fill="#1D1D1F"/>
  <path d="M19.0375 31.3399C19.9802 31.3399 20.7444 30.5877 20.7444 29.6597C20.7444 28.7318 19.9802 27.9795 19.0375 27.9795C18.0949 27.9795 17.3307 28.7318 17.3307 29.6597C17.3307 30.5877 18.0949 31.3399 19.0375 31.3399Z" fill="#1D1D1F"/>
  <path d="M25.0951 31.3407C26.0374 31.3407 26.8013 30.5887 26.8013 29.6611C26.8013 28.7335 26.0374 27.9815 25.0951 27.9815C24.1528 27.9815 23.3889 28.7335 23.3889 29.6611C23.3889 30.5887 24.1528 31.3407 25.0951 31.3407Z" fill="#1D1D1F"/>
  <path d="M126.414 35.0109C126.441 35.1913 126.474 35.3407 126.512 35.459C126.78 36.2783 127.305 36.8187 128.088 37.0803C128.48 37.2113 128.903 37.2504 129.357 37.1975C130.11 37.1105 130.77 36.786 131.337 36.224C131.352 36.2087 131.372 36.1995 131.394 36.1984C131.416 36.1972 131.438 36.2041 131.454 36.2177C131.909 36.5849 132.296 36.9178 132.613 37.2166C132.617 37.2196 132.619 37.2239 132.619 37.2285C132.619 37.2331 132.618 37.2377 132.615 37.2413C131.727 38.2638 130.595 38.8095 129.218 38.8784C128.395 38.9194 127.612 38.7721 126.869 38.4366C125.598 37.8618 124.699 36.6493 124.432 35.3012C124.356 34.9184 124.327 34.4982 124.343 34.0406C124.388 32.7717 124.913 31.5833 125.859 30.7289C126.542 30.1124 127.364 29.7577 128.325 29.6648C129.878 29.5146 131.37 30.1312 132.215 31.4382C132.87 32.4516 133.097 33.7002 133.02 34.9133C133.017 34.9572 132.993 34.9792 132.949 34.9792H126.441C126.42 34.9792 126.41 34.9898 126.414 35.0109ZM126.413 33.4283C126.412 33.4313 126.402 33.4856 126.382 33.5912C126.378 33.6094 126.386 33.6191 126.405 33.6203C126.533 33.6296 126.643 33.6345 126.736 33.6349C128.681 33.6366 130.085 33.6372 130.949 33.6368C130.963 33.6368 130.969 33.6301 130.968 33.6165C130.903 32.5714 130.292 31.5922 129.2 31.3596C128.235 31.1542 127.333 31.5541 126.81 32.3863C126.645 32.6491 126.513 32.9965 126.413 33.4283Z" fill="#1D1D1F"/>
  <path d="M60.3433 37.6514C59.7179 38.352 58.9232 38.7447 57.9591 38.8297C57.2238 38.8943 56.5034 38.8202 55.8524 38.5172C55.0167 38.1285 54.5162 37.4923 54.351 36.6088C54.2628 36.1379 54.3072 35.5313 54.481 35.0851C54.7373 34.4281 55.2122 33.9496 55.9059 33.6496C56.4149 33.4294 56.9431 33.3046 57.4904 33.275C57.717 33.2632 57.9851 33.2587 58.2946 33.2617C59.0337 33.2693 59.7078 33.3954 60.4006 33.6141C60.4044 33.6153 60.4084 33.6156 60.4123 33.6149C60.4163 33.6143 60.42 33.6128 60.4233 33.6106C60.4265 33.6083 60.4292 33.6053 60.431 33.6018C60.4329 33.5984 60.434 33.5945 60.4341 33.5906C60.4354 33.4309 60.4291 33.2744 60.4154 33.121C60.3607 32.5132 60.04 31.9865 59.4677 31.7222C58.9558 31.4858 58.404 31.4446 57.8432 31.4858C57.0981 31.5407 56.3819 31.715 55.6947 32.0087C55.6578 32.0243 55.6329 32.0135 55.62 31.9763L55.0908 30.4704C55.0843 30.4527 55.0899 30.4398 55.1075 30.4317C56.4901 29.8055 57.9271 29.5907 59.4187 29.7872C60.0317 29.8674 60.5796 30.0684 61.0625 30.3899C61.7855 30.8703 62.2214 31.6987 62.3482 32.5499C62.4088 32.956 62.4388 33.3724 62.4384 33.7992C62.4375 35.8535 62.4358 37.4647 62.4332 38.6326C62.4332 38.645 62.4282 38.6569 62.4193 38.6657C62.4103 38.6745 62.3982 38.6795 62.3856 38.6795H60.4592C60.4347 38.6795 60.4225 38.6674 60.4225 38.6433V37.6806C60.4225 37.602 60.3961 37.5923 60.3433 37.6514ZM59.1451 34.5933C58.551 34.5261 58.0314 34.5405 57.5863 34.6364C56.8536 34.7936 56.2935 35.2867 56.3173 36.0656C56.3379 36.7559 56.8375 37.1862 57.4968 37.3282C57.9458 37.4249 58.4104 37.4106 58.8908 37.2851C59.6286 37.0924 60.295 36.5854 60.4231 35.8438C60.4725 35.5582 60.4877 35.2527 60.4688 34.9273C60.4682 34.917 60.4646 34.9071 60.4584 34.8989C60.4522 34.8906 60.4438 34.8844 60.4341 34.8811C60.0405 34.742 59.6108 34.6461 59.1451 34.5933Z" fill="#1D1D1F"/>
  <path d="M110.654 37.6299C110.642 37.6379 110.53 37.7401 110.319 37.9366C109.861 38.3608 109.316 38.6365 108.683 38.7637C106.85 39.132 104.714 38.3974 104.581 36.2722C104.512 35.1929 105.026 34.201 106.021 33.7224C106.569 33.4592 107.159 33.3094 107.79 33.2731C108.161 33.252 108.569 33.2549 109.013 33.282C109.538 33.3141 110.089 33.4265 110.666 33.6191C110.67 33.6206 110.674 33.6211 110.679 33.6205C110.683 33.62 110.687 33.6184 110.691 33.616C110.695 33.6135 110.698 33.6102 110.7 33.6064C110.702 33.6025 110.703 33.5982 110.704 33.5938C110.747 32.8015 110.471 32.0308 109.673 31.693C109.372 31.5645 109.071 31.4944 108.772 31.4826C107.805 31.4441 106.865 31.6216 105.953 32.015C105.948 32.017 105.943 32.0181 105.938 32.0182C105.932 32.0182 105.927 32.0172 105.923 32.0153C105.918 32.0133 105.914 32.0104 105.91 32.0068C105.906 32.0031 105.904 31.9988 105.902 31.9941C105.706 31.4883 105.531 30.9785 105.375 30.4647C105.369 30.4436 105.376 30.4286 105.396 30.4197C106.589 29.8949 107.816 29.6631 109.077 29.7244C109.791 29.7586 110.574 29.9228 111.175 30.291C111.849 30.7051 112.295 31.2977 112.511 32.0688C112.641 32.5319 112.706 33.0667 112.705 33.673C112.703 34.7336 112.703 36.3865 112.705 38.6319C112.705 38.6459 112.699 38.6592 112.689 38.6691C112.679 38.679 112.665 38.6845 112.651 38.6845H110.736C110.726 38.6845 110.716 38.6807 110.709 38.6738C110.702 38.6669 110.698 38.6576 110.698 38.6477L110.691 37.6489C110.691 37.6206 110.678 37.6142 110.654 37.6299ZM107.891 34.6288C107.298 34.7397 106.717 35.1384 106.611 35.7462C106.411 36.8984 107.396 37.4093 108.402 37.3896C109.327 37.3719 110.267 36.9802 110.619 36.1087C110.758 35.7646 110.762 35.3323 110.736 34.9508C110.735 34.9304 110.728 34.9109 110.715 34.8947C110.702 34.8786 110.685 34.8665 110.665 34.8601C109.797 34.5832 108.798 34.4589 107.891 34.6288Z" fill="#1D1D1F"/>
  <path d="M9.92954 34.3227C10.8722 34.3227 11.6364 33.5704 11.6364 32.6424C11.6364 31.7145 10.8722 30.9622 9.92954 30.9622C8.98687 30.9622 8.22269 31.7145 8.22269 32.6424C8.22269 33.5704 8.98687 34.3227 9.92954 34.3227Z" fill="#1D1D1F"/>
  <path d="M22.0638 34.3214C23.0058 34.3214 23.7694 33.5697 23.7694 32.6424C23.7694 31.7152 23.0058 30.9635 22.0638 30.9635C21.1219 30.9635 20.3583 31.7152 20.3583 32.6424C20.3583 33.5697 21.1219 34.3214 22.0638 34.3214Z" fill="#1D1D1F"/>
  <path d="M3.87184 33.9025C4.5784 33.9025 5.15117 33.3386 5.15117 32.6431C5.15117 31.9476 4.5784 31.3837 3.87184 31.3837C3.16528 31.3837 2.59251 31.9476 2.59251 32.6431C2.59251 33.3386 3.16528 33.9025 3.87184 33.9025Z" fill="#1D1D1F"/>
  <path d="M15.9819 33.9018C16.6888 33.9018 17.2619 33.3376 17.2619 32.6418C17.2619 31.9459 16.6888 31.3818 15.9819 31.3818C15.275 31.3818 14.7019 31.9459 14.7019 32.6418C14.7019 33.3376 15.275 33.9018 15.9819 33.9018Z" fill="#1D1D1F"/>
  <path d="M28.1218 33.9024C28.828 33.9024 29.4004 33.3389 29.4004 32.6437C29.4004 31.9485 28.828 31.385 28.1218 31.385C27.4156 31.385 26.8431 31.9485 26.8431 32.6437C26.8431 33.3389 27.4156 33.9024 28.1218 33.9024Z" fill="#1D1D1F"/>
  <path d="M12.9538 36.8839C13.6607 36.8839 14.2338 36.3197 14.2338 35.6239C14.2338 34.928 13.6607 34.3639 12.9538 34.3639C12.2469 34.3639 11.6738 34.928 11.6738 35.6239C11.6738 36.3197 12.2469 36.8839 12.9538 36.8839Z" fill="#1D1D1F"/>
  <path d="M25.0944 36.8839C25.8013 36.8839 26.3744 36.3197 26.3744 35.6239C26.3744 34.928 25.8013 34.3639 25.0944 34.3639C24.3875 34.3639 23.8145 34.928 23.8145 35.6239C23.8145 36.3197 24.3875 36.8839 25.0944 36.8839Z" fill="#1D1D1F"/>
  <path d="M6.8983 36.8826C7.6045 36.8826 8.17699 36.319 8.17699 35.6238C8.17699 34.9287 7.6045 34.3651 6.8983 34.3651C6.1921 34.3651 5.61962 34.9287 5.61962 35.6238C5.61962 36.319 6.1921 36.8826 6.8983 36.8826Z" fill="#1D1D1F"/>
  <path d="M19.0397 36.8839C19.7466 36.8839 20.3197 36.3197 20.3197 35.6239C20.3197 34.928 19.7466 34.3639 19.0397 34.3639C18.3328 34.3639 17.7597 34.928 17.7597 35.6239C17.7597 36.3197 18.3328 36.8839 19.0397 36.8839Z" fill="#1D1D1F"/>
  <path d="M0.844089 36.456C1.31027 36.456 1.68818 36.084 1.68818 35.6251C1.68818 35.1662 1.31027 34.7942 0.844089 34.7942C0.377912 34.7942 0 35.1662 0 35.6251C0 36.084 0.377912 36.456 0.844089 36.456Z" fill="#1D1D1F"/>
  <path d="M31.1497 36.4541C31.6156 36.4541 31.9932 36.0824 31.9932 35.6238C31.9932 35.1653 31.6156 34.7935 31.1497 34.7935C30.6839 34.7935 30.3063 35.1653 30.3063 35.6238C30.3063 36.0824 30.6839 36.4541 31.1497 36.4541Z" fill="#1D1D1F"/>
  <path d="M3.86955 39.433C4.33537 39.433 4.71299 39.0613 4.71299 38.6027C4.71299 38.1441 4.33537 37.7724 3.86955 37.7724C3.40373 37.7724 3.0261 38.1441 3.0261 38.6027C3.0261 39.0613 3.40373 39.433 3.86955 39.433Z" fill="#1D1D1F"/>
  <path d="M15.9837 39.4311C16.4488 39.4311 16.8259 39.0599 16.8259 38.6021C16.8259 38.1442 16.4488 37.773 15.9837 37.773C15.5186 37.773 15.1416 38.1442 15.1416 38.6021C15.1416 39.0599 15.5186 39.4311 15.9837 39.4311Z" fill="#1D1D1F"/>
  <path d="M28.1208 39.4305C28.5859 39.4305 28.963 39.0593 28.963 38.6014C28.963 38.1436 28.5859 37.7724 28.1208 37.7724C27.6557 37.7724 27.2787 38.1436 27.2787 38.6014C27.2787 39.0593 27.6557 39.4305 28.1208 39.4305Z" fill="#1D1D1F"/>
</svg>