<svg xmlns="http://www.w3.org/2000/svg" width="250" height="27" viewBox="0 0 250 27" fill="none">
  <path d="M18.4595 6.86785C20.1332 6.86785 21.49 5.53221 21.49 3.88461C21.49 2.23701 20.1332 0.901367 18.4595 0.901367C16.7858 0.901367 15.429 2.23701 15.429 3.88461C15.429 5.53221 16.7858 6.86785 18.4595 6.86785Z" fill="#1D1D1F"/>
  <path d="M40.0094 6.86445C41.6819 6.86445 43.0377 5.52982 43.0377 3.88346C43.0377 2.2371 41.6819 0.902466 40.0094 0.902466C38.337 0.902466 36.9812 2.2371 36.9812 3.88346C36.9812 5.52982 38.337 6.86445 40.0094 6.86445Z" fill="#1D1D1F"/>
  <path d="M131.953 11.7924C132.051 11.6904 132.239 11.4773 132.515 11.1532C132.759 10.8674 132.953 10.6629 133.096 10.5399C133.97 9.79419 134.948 9.35156 136.032 9.21202C138.537 8.88905 140.976 9.87708 141.996 12.2324C142.382 13.1267 142.577 14.1548 142.581 15.3169C142.591 18.2495 142.592 21.5291 142.586 25.1557C142.586 25.1673 142.581 25.1785 142.573 25.1867C142.564 25.1949 142.553 25.1995 142.541 25.1995H139.021C138.997 25.1995 138.973 25.19 138.956 25.1729C138.939 25.1558 138.929 25.1327 138.929 25.1084C138.922 23.3551 138.922 20.5973 138.929 16.835C138.93 15.8605 138.873 14.887 138.459 14.0858C137.895 12.9965 136.838 12.4395 135.597 12.4383C134.3 12.4372 133.285 12.8671 132.552 13.9451C132.279 14.3465 132.093 14.8263 131.994 15.3844C131.936 15.7138 131.906 16.2161 131.905 16.8913C131.901 19.6461 131.901 22.3982 131.905 25.1478C131.905 25.1538 131.904 25.1598 131.901 25.1654C131.899 25.171 131.896 25.1761 131.891 25.1804C131.887 25.1847 131.882 25.1881 131.876 25.1904C131.87 25.1927 131.864 25.1939 131.858 25.1939H128.294C128.287 25.1939 128.28 25.1926 128.274 25.1901C128.268 25.1875 128.262 25.1838 128.257 25.1791C128.253 25.1744 128.249 25.1688 128.246 25.1627C128.244 25.1565 128.242 25.1499 128.242 25.1433V3.52686C128.242 3.48035 128.266 3.45709 128.312 3.45709H131.859C131.865 3.45709 131.871 3.45823 131.876 3.46043C131.882 3.46264 131.887 3.46587 131.891 3.46995C131.895 3.47402 131.898 3.47886 131.9 3.48418C131.903 3.48951 131.904 3.49522 131.904 3.50098V11.7733C131.904 11.8205 131.92 11.8269 131.953 11.7924Z" fill="#1D1D1F"/>
  <path d="M209.089 3.46039H205.545C205.516 3.46039 205.492 3.48407 205.492 3.51328V25.1488C205.492 25.178 205.516 25.2017 205.545 25.2017H209.089C209.119 25.2017 209.143 25.178 209.143 25.1488V3.51328C209.143 3.48407 209.119 3.46039 209.089 3.46039Z" fill="#1D1D1F"/>
  <path d="M217.688 3.45467H214.139C214.11 3.45467 214.087 3.47785 214.087 3.50644V25.1487C214.087 25.1773 214.11 25.2005 214.139 25.2005H217.688C217.717 25.2005 217.74 25.1773 217.74 25.1487V3.50644C217.74 3.47785 217.717 3.45467 217.688 3.45467Z" fill="#1D1D1F"/>
  <path d="M163.865 19.7089L169.007 4.38532C169.015 4.36016 169.032 4.33822 169.054 4.32266C169.076 4.30709 169.102 4.29869 169.13 4.29867H172.052C172.091 4.29864 172.13 4.31092 172.162 4.33376C172.194 4.3566 172.218 4.38883 172.23 4.42583L177.346 19.6763C177.374 19.764 177.403 19.764 177.432 19.6763L182.405 4.44271C182.414 4.4159 182.431 4.39253 182.455 4.37596C182.478 4.35939 182.506 4.35046 182.534 4.35044H186.28C186.319 4.35044 186.332 4.36844 186.319 4.40445L179.017 25.277C179.01 25.2974 178.997 25.315 178.979 25.3276C178.961 25.3401 178.939 25.3468 178.917 25.3468H175.822C175.776 25.3468 175.746 25.3258 175.731 25.2838L170.569 10.4148C170.557 10.3818 170.546 10.3818 170.535 10.4148L165.369 25.2928C165.363 25.3086 165.352 25.3223 165.338 25.332C165.325 25.3416 165.308 25.3468 165.291 25.3468H162.212C162.192 25.3468 162.171 25.3405 162.155 25.3288C162.138 25.3171 162.125 25.3006 162.119 25.2815L154.793 4.43934C154.772 4.37932 154.793 4.34931 154.857 4.34931H158.721C158.765 4.34931 158.794 4.36994 158.807 4.4112C161.448 12.4963 163.033 17.345 163.565 18.9572C163.66 19.2468 163.749 19.4977 163.833 19.71C163.845 19.7393 163.855 19.7389 163.865 19.7089Z" fill="#1D1D1F"/>
  <path d="M76.2648 10.4655C76.219 10.6523 76.1962 10.8245 76.1962 10.982C76.1969 15.9395 76.1962 20.6448 76.1939 25.0981C76.1939 25.1235 76.1838 25.1478 76.1658 25.1658C76.1477 25.1837 76.1233 25.1938 76.0978 25.1938H72.6123C72.5575 25.1938 72.53 25.1664 72.53 25.1116V4.4236C72.53 4.36434 72.5605 4.33508 72.6215 4.33583C73.6542 4.35008 74.832 4.35233 76.155 4.34258C76.3516 4.34033 76.4534 4.33695 76.5688 4.49112C76.6184 4.55714 76.7365 4.73344 76.9232 5.02003C77.0855 5.26835 79.0788 8.31611 82.9031 14.1633C82.9063 14.1679 82.9107 14.1716 82.9157 14.1742C82.9207 14.1767 82.9263 14.178 82.932 14.1779C82.9377 14.1777 82.9432 14.1763 82.9481 14.1735C82.9531 14.1708 82.9572 14.1669 82.9603 14.1622L89.3391 4.4056C89.3643 4.36809 89.3997 4.34933 89.4454 4.34933H93.211C93.2987 4.34933 93.3425 4.39209 93.3425 4.47762V25.1285C93.3425 25.1452 93.3357 25.1612 93.3237 25.1731C93.3117 25.1849 93.2954 25.1915 93.2785 25.1915H89.6695C89.6543 25.1915 89.6398 25.1856 89.6291 25.175C89.6184 25.1645 89.6123 25.1502 89.6123 25.1353C89.607 23.2852 89.6074 18.6237 89.6135 11.1508C89.6135 10.9535 89.6249 10.7037 89.6478 10.4013C89.6483 10.3942 89.6467 10.387 89.6432 10.3806C89.6396 10.3743 89.6343 10.3692 89.6279 10.3659C89.6215 10.3626 89.6143 10.3614 89.6072 10.3623C89.6002 10.3632 89.5936 10.3662 89.5883 10.371C89.4931 10.4512 89.4089 10.545 89.3357 10.6523C89.2793 10.7356 87.2643 13.7034 83.2906 19.5559C83.1573 19.7524 83.03 19.9254 82.9088 20.0747C82.9026 20.0827 82.8946 20.0891 82.8853 20.0933C82.876 20.0976 82.8658 20.0996 82.8555 20.0991C82.8452 20.0987 82.8352 20.0958 82.8261 20.0908C82.8171 20.0858 82.8094 20.0787 82.8036 20.0702C80.637 16.8637 78.6101 13.8756 76.7232 11.1058C76.6843 11.048 76.6195 10.9385 76.5288 10.7772C76.4221 10.5874 76.3535 10.4779 76.3231 10.4486C76.2941 10.4216 76.2747 10.4272 76.2648 10.4655Z" fill="#1D1D1F"/>
  <path d="M120.311 12.5653C120.302 12.5653 120.294 12.5688 120.288 12.5752C120.282 12.5815 120.278 12.5901 120.278 12.599C120.276 14.9487 120.276 17.2939 120.278 19.6346C120.279 20.1939 120.275 20.7037 120.436 21.2123C120.754 22.2217 122.089 22.3669 123.008 22.1913C123.471 22.1028 123.95 21.9584 124.444 21.7581C124.495 21.7378 124.52 21.7547 124.52 21.8087V24.5399C124.52 24.5703 124.512 24.6001 124.497 24.6264C124.481 24.6527 124.459 24.6745 124.432 24.6896C123.328 25.3153 122.123 25.4705 120.826 25.4267C118.587 25.3513 117.006 24.2833 116.719 21.9224C116.637 21.2472 116.601 20.518 116.61 19.7348C116.617 19.1226 116.619 16.7504 116.617 12.6182C116.617 12.6039 116.611 12.5901 116.6 12.58C116.59 12.5699 116.576 12.5642 116.562 12.5642H114.639C114.627 12.5642 114.615 12.5594 114.607 12.551C114.598 12.5425 114.593 12.5311 114.593 12.5192V9.53703C114.593 9.49952 114.613 9.48077 114.651 9.48077H116.475C116.569 9.48077 116.617 9.43425 116.617 9.34123V5.20677C116.617 5.19513 116.621 5.18397 116.63 5.17574C116.638 5.16751 116.649 5.16289 116.661 5.16289H120.197C120.251 5.16289 120.278 5.18952 120.278 5.24278V9.42338C120.278 9.43621 120.283 9.44852 120.292 9.45759C120.302 9.46667 120.314 9.47177 120.327 9.47177H124.472C124.5 9.47177 124.526 9.48244 124.545 9.50143C124.564 9.52042 124.575 9.54618 124.575 9.57304V12.5237C124.575 12.5347 124.571 12.5453 124.563 12.5531C124.555 12.5609 124.544 12.5653 124.533 12.5653H120.311Z" fill="#1D1D1F"/>
  <path d="M245.156 9.47081H249.301C249.371 9.47081 249.405 9.50532 249.405 9.57434V12.4743C249.405 12.5358 249.374 12.5666 249.312 12.5666H245.129C245.112 12.5666 245.104 12.5752 245.104 12.5925C245.11 14.8461 245.109 17.4227 245.101 20.3223C245.101 20.762 245.215 21.1735 245.444 21.5568C245.843 22.223 246.999 22.322 247.717 22.2129C248.239 22.1334 248.739 21.9769 249.218 21.7436C249.299 21.7046 249.34 21.7297 249.34 21.819V24.5986C249.34 24.6202 249.334 24.6414 249.323 24.6599C249.312 24.6783 249.295 24.6933 249.276 24.7032C248.553 25.0746 247.79 25.3034 246.986 25.3897C246.142 25.4797 245.357 25.4572 244.633 25.3222C243.1 25.0348 242.118 24.1507 241.686 22.6698C241.497 22.0227 241.434 21.2519 241.434 20.5058C241.433 16.045 241.435 13.4218 241.439 12.6364C241.439 12.5906 241.416 12.5677 241.37 12.5677H239.462C239.451 12.5677 239.439 12.5632 239.431 12.5552C239.423 12.5472 239.419 12.5363 239.419 12.5249V9.53045C239.419 9.49444 239.437 9.47643 239.473 9.47643H241.369C241.386 9.47643 241.403 9.46944 241.416 9.45699C241.428 9.44454 241.435 9.42765 241.435 9.41004V5.21594C241.435 5.18218 241.452 5.1653 241.487 5.1653H245.035C245.081 5.1653 245.105 5.18819 245.105 5.23395V9.42017C245.105 9.45393 245.122 9.47081 245.156 9.47081Z" fill="#1D1D1F"/>
  <path d="M13.0824 12.1613C14.7568 12.1613 16.1141 10.8252 16.1141 9.17697C16.1141 7.52875 14.7568 6.1926 13.0824 6.1926C11.4081 6.1926 10.0507 7.52875 10.0507 9.17697C10.0507 10.8252 11.4081 12.1613 13.0824 12.1613Z" fill="#1D1D1F"/>
  <path d="M23.8344 12.1602C25.5088 12.1602 26.8661 10.8241 26.8661 9.17587C26.8661 7.52765 25.5088 6.19151 23.8344 6.19151C22.1601 6.19151 20.8027 7.52765 20.8027 9.17587C20.8027 10.8241 22.1601 12.1602 23.8344 12.1602Z" fill="#1D1D1F"/>
  <path d="M34.6353 12.158C36.309 12.158 37.6658 10.8223 37.6658 9.17475C37.6658 7.52715 36.309 6.19151 34.6353 6.19151C32.9616 6.19151 31.6048 7.52715 31.6048 9.17475C31.6048 10.8223 32.9616 12.158 34.6353 12.158Z" fill="#1D1D1F"/>
  <path d="M45.3906 12.1593C47.0637 12.1593 48.42 10.8241 48.42 9.17714C48.42 7.53016 47.0637 6.19502 45.3906 6.19502C43.7175 6.19502 42.3612 7.53016 42.3612 9.17714C42.3612 10.8241 43.7175 12.1593 45.3906 12.1593Z" fill="#1D1D1F"/>
  <path d="M225.283 18.6758C225.331 18.9962 225.389 19.2614 225.458 19.4714C225.932 20.9261 226.865 21.8856 228.255 22.35C228.951 22.5826 229.702 22.652 230.508 22.5582C231.845 22.4037 233.017 21.8275 234.023 20.8297C234.051 20.8025 234.087 20.7863 234.126 20.7842C234.165 20.7821 234.203 20.7943 234.233 20.8185C235.04 21.4704 235.726 22.0616 236.29 22.592C236.296 22.5974 236.3 22.605 236.3 22.6132C236.301 22.6213 236.298 22.6294 236.293 22.6359C234.717 24.4514 232.706 25.4203 230.261 25.5426C228.8 25.6154 227.41 25.3539 226.091 24.7582C223.834 23.7376 222.239 21.5848 221.764 19.1912C221.63 18.5115 221.577 17.7654 221.606 16.953C221.685 14.7001 222.618 12.5901 224.298 11.0731C225.51 9.97855 226.97 9.34875 228.677 9.1837C231.433 8.917 234.083 10.0119 235.584 12.3324C236.746 14.1318 237.149 16.3487 237.012 18.5025C237.007 18.5806 236.965 18.6196 236.886 18.6196H225.332C225.293 18.6196 225.277 18.6383 225.283 18.6758ZM225.282 15.8659C225.28 15.8711 225.261 15.9675 225.226 16.1551C225.22 16.1874 225.233 16.2046 225.267 16.2069C225.495 16.2234 225.691 16.232 225.854 16.2328C229.308 16.2358 231.802 16.2369 233.335 16.2361C233.36 16.2361 233.371 16.2241 233.37 16.2001C233.253 14.3444 232.169 12.6058 230.229 12.1928C228.517 11.8282 226.915 12.5383 225.987 14.0159C225.694 14.4825 225.458 15.0992 225.282 15.8659Z" fill="#1D1D1F"/>
  <path d="M107.974 23.3641C106.864 24.6079 105.453 25.3053 103.741 25.4561C102.435 25.5709 101.156 25.4392 100.001 24.9013C98.5167 24.2111 97.6281 23.0816 97.3346 21.5129C97.178 20.6768 97.2569 19.5999 97.5656 18.8076C98.0205 17.641 98.8638 16.7914 100.095 16.2588C100.999 15.8679 101.937 15.6462 102.909 15.5937C103.311 15.5727 103.787 15.5648 104.337 15.5701C105.649 15.5836 106.846 15.8075 108.076 16.1957C108.083 16.1978 108.09 16.1984 108.097 16.1973C108.104 16.1962 108.11 16.1935 108.116 16.1895C108.122 16.1855 108.127 16.1802 108.13 16.174C108.133 16.1679 108.135 16.1611 108.135 16.1541C108.138 15.8705 108.126 15.5926 108.102 15.3202C108.005 14.2411 107.436 13.3059 106.419 12.8366C105.511 12.4169 104.531 12.3438 103.535 12.4169C102.212 12.5144 100.941 12.8239 99.7204 13.3453C99.6549 13.373 99.6107 13.3539 99.5878 13.2879L98.6481 10.6141C98.6367 10.5826 98.6466 10.5597 98.6779 10.5455C101.133 9.43365 103.684 9.05217 106.332 9.40102C107.421 9.54356 108.394 9.90029 109.251 10.4712C110.535 11.3242 111.309 12.795 111.534 14.3063C111.641 15.0273 111.695 15.7666 111.694 16.5243C111.692 20.1719 111.689 23.0325 111.685 25.1061C111.685 25.1282 111.676 25.1494 111.66 25.165C111.644 25.1806 111.623 25.1894 111.6 25.1894H108.18C108.136 25.1894 108.115 25.168 108.115 25.1252V23.4158C108.115 23.2763 108.068 23.2591 107.974 23.3641ZM105.847 17.9344C104.792 17.8151 103.869 17.8406 103.079 18.0109C101.778 18.29 100.784 19.1655 100.826 20.5485C100.862 21.774 101.75 22.5381 102.92 22.7902C103.717 22.962 104.542 22.9365 105.395 22.7136C106.705 22.3715 107.888 21.4713 108.116 20.1546C108.203 19.6475 108.231 19.1051 108.197 18.5274C108.196 18.5091 108.189 18.4915 108.179 18.4769C108.168 18.4623 108.152 18.4513 108.135 18.4453C107.436 18.1985 106.674 18.0282 105.847 17.9344Z" fill="#1D1D1F"/>
  <path d="M197.301 23.3258C197.28 23.3401 197.081 23.5216 196.706 23.8705C195.893 24.6237 194.925 25.1132 193.801 25.339C190.547 25.9928 186.756 24.6886 186.518 20.9153C186.397 18.9989 187.309 17.2378 189.076 16.3882C190.049 15.9208 191.095 15.6548 192.216 15.5903C192.876 15.5528 193.6 15.558 194.388 15.6061C195.321 15.6631 196.298 15.8626 197.322 16.2047C197.329 16.2073 197.337 16.2082 197.345 16.2072C197.353 16.2063 197.36 16.2035 197.367 16.1991C197.373 16.1947 197.379 16.1889 197.383 16.1821C197.386 16.1752 197.389 16.1676 197.389 16.1597C197.466 14.7531 196.975 13.3847 195.56 12.7849C195.024 12.5568 194.491 12.4323 193.96 12.4112C192.242 12.343 190.573 12.6581 188.954 13.3565C188.945 13.3602 188.936 13.3621 188.927 13.3622C188.918 13.3623 188.909 13.3605 188.901 13.3571C188.892 13.3536 188.884 13.3485 188.878 13.342C188.872 13.3355 188.867 13.3278 188.864 13.3194C188.517 12.4214 188.205 11.5162 187.928 10.604C187.917 10.5665 187.93 10.5398 187.966 10.5241C190.083 9.5923 192.262 9.18081 194.502 9.28959C195.768 9.35036 197.159 9.64181 198.226 10.2956C199.423 11.0308 200.214 12.083 200.598 13.4522C200.829 14.2744 200.944 15.2238 200.942 16.3004C200.94 18.1834 200.94 21.1183 200.942 25.1049C200.942 25.1297 200.932 25.1535 200.914 25.171C200.897 25.1885 200.872 25.1983 200.847 25.1983H197.446C197.429 25.1983 197.412 25.1915 197.399 25.1793C197.387 25.1671 197.379 25.1505 197.379 25.1331L197.366 23.3596C197.366 23.3093 197.345 23.298 197.301 23.3258ZM192.395 17.9974C191.342 18.1943 190.312 18.9021 190.123 19.9813C189.768 22.0272 191.517 22.9342 193.302 22.8993C194.945 22.8678 196.614 22.1723 197.238 20.625C197.485 20.014 197.492 19.2465 197.448 18.569C197.445 18.5329 197.432 18.4983 197.409 18.4696C197.387 18.4409 197.356 18.4195 197.321 18.4081C195.78 17.9163 194.007 17.6958 192.395 17.9974Z" fill="#1D1D1F"/>
  <path d="M18.464 17.4538C20.1377 17.4538 21.4945 16.1182 21.4945 14.4706C21.4945 12.823 20.1377 11.4874 18.464 11.4874C16.7903 11.4874 15.4334 12.823 15.4334 14.4706C15.4334 16.1182 16.7903 17.4538 18.464 17.4538Z" fill="#1D1D1F"/>
  <path d="M40.0085 17.4515C41.681 17.4515 43.0368 16.1169 43.0368 14.4705C43.0368 12.8242 41.681 11.4896 40.0085 11.4896C38.3361 11.4896 36.9803 12.8242 36.9803 14.4705C36.9803 16.1169 38.3361 17.4515 40.0085 17.4515Z" fill="#1D1D1F"/>
  <path d="M7.70847 16.7078C8.96297 16.7078 9.97994 15.7067 9.97994 14.4718C9.97994 13.2368 8.96297 12.2357 7.70847 12.2357C6.45398 12.2357 5.43701 13.2368 5.43701 14.4718C5.43701 15.7067 6.45398 16.7078 7.70847 16.7078Z" fill="#1D1D1F"/>
  <path d="M29.21 16.7065C30.4652 16.7065 31.4826 15.7049 31.4826 14.4694C31.4826 13.2338 30.4652 12.2322 29.21 12.2322C27.9549 12.2322 26.9374 13.2338 26.9374 14.4694C26.9374 15.7049 27.9549 16.7065 29.21 16.7065Z" fill="#1D1D1F"/>
  <path d="M50.7644 16.7077C52.0183 16.7077 53.0348 15.7071 53.0348 14.4728C53.0348 13.2385 52.0183 12.2379 50.7644 12.2379C49.5106 12.2379 48.4941 13.2385 48.4941 14.4728C48.4941 15.7071 49.5106 16.7077 50.7644 16.7077Z" fill="#1D1D1F"/>
  <path d="M23.8336 22.0013C25.0887 22.0013 26.1062 20.9997 26.1062 19.7641C26.1062 18.5286 25.0887 17.527 23.8336 17.527C22.5785 17.527 21.561 18.5286 21.561 19.7641C21.561 20.9997 22.5785 22.0013 23.8336 22.0013Z" fill="#1D1D1F"/>
  <path d="M45.3894 22.0013C46.6445 22.0013 47.662 20.9997 47.662 19.7641C47.662 18.5286 46.6445 17.527 45.3894 17.527C44.1343 17.527 43.1168 18.5286 43.1168 19.7641C43.1168 20.9997 44.1343 22.0013 45.3894 22.0013Z" fill="#1D1D1F"/>
  <path d="M13.082 21.999C14.3359 21.999 15.3523 20.9984 15.3523 19.7641C15.3523 18.5298 14.3359 17.5292 13.082 17.5292C11.8281 17.5292 10.8117 18.5298 10.8117 19.7641C10.8117 20.9984 11.8281 21.999 13.082 21.999Z" fill="#1D1D1F"/>
  <path d="M34.6392 22.0013C35.8943 22.0013 36.9118 20.9997 36.9118 19.7641C36.9118 18.5286 35.8943 17.527 34.6392 17.527C33.384 17.527 32.3666 18.5286 32.3666 19.7641C32.3666 20.9997 33.384 22.0013 34.6392 22.0013Z" fill="#1D1D1F"/>
  <path d="M2.33267 21.2416C3.16038 21.2416 3.83136 20.5811 3.83136 19.7663C3.83136 18.9515 3.16038 18.291 2.33267 18.291C1.50497 18.291 0.833984 18.9515 0.833984 19.7663C0.833984 20.5811 1.50497 21.2416 2.33267 21.2416Z" fill="#1D1D1F"/>
  <path d="M56.1406 21.2382C56.9677 21.2382 57.6382 20.5782 57.6382 19.7641C57.6382 18.9499 56.9677 18.2899 56.1406 18.2899C55.3136 18.2899 54.6431 18.9499 54.6431 19.7641C54.6431 20.5782 55.3136 21.2382 56.1406 21.2382Z" fill="#1D1D1F"/>
  <path d="M7.7044 26.5273C8.53147 26.5273 9.20195 25.8673 9.20195 25.0531C9.20195 24.2389 8.53147 23.5789 7.7044 23.5789C6.87733 23.5789 6.20686 24.2389 6.20686 25.0531C6.20686 25.8673 6.87733 26.5273 7.7044 26.5273Z" fill="#1D1D1F"/>
  <path d="M29.2132 26.5239C30.0391 26.5239 30.7085 25.8649 30.7085 25.0519C30.7085 24.239 30.0391 23.58 29.2132 23.58C28.3874 23.58 27.718 24.239 27.718 25.0519C27.718 25.8649 28.3874 26.5239 29.2132 26.5239Z" fill="#1D1D1F"/>
  <path d="M50.7628 26.5228C51.5886 26.5228 52.2581 25.8638 52.2581 25.0508C52.2581 24.2379 51.5886 23.5789 50.7628 23.5789C49.937 23.5789 49.2675 24.2379 49.2675 25.0508C49.2675 25.8638 49.937 26.5228 50.7628 26.5228Z" fill="#1D1D1F"/>
</svg>