<svg width="71" height="23" viewBox="0 0 71 23" fill="none" xmlns="http://www.w3.org/2000/svg">
<g id="Vector">
<path d="M24.8335 11.5834C24.8328 15.1436 24.8325 18.7041 24.8325 22.265C24.8325 22.5137 24.9003 22.6904 25.036 22.7948C25.1194 22.8595 25.2742 22.8918 25.5003 22.8918C26.8877 22.8903 28.8733 22.8903 31.4572 22.8918C31.5202 22.8919 31.5826 22.8789 31.6409 22.8533C31.6992 22.8278 31.7521 22.7903 31.7967 22.7429C31.8413 22.6956 31.8767 22.6394 31.9009 22.5775C31.925 22.5156 31.9374 22.4492 31.9374 22.3822V15.3983C31.9374 15.3864 31.9418 15.3749 31.9495 15.3665C31.9573 15.358 31.9678 15.3533 31.9788 15.3533H38.5664C38.6884 15.3533 38.8055 15.3018 38.8918 15.2103C38.978 15.1187 39.0265 14.9946 39.0265 14.8651C39.0258 13.7611 39.0255 12.6675 39.0255 11.5846C39.0255 10.5023 39.0262 9.40916 39.0276 8.30512C39.0276 8.17565 38.9791 8.0515 38.8928 7.95995C38.8065 7.86841 38.6895 7.81698 38.5675 7.81698L31.9798 7.81472C31.9689 7.81472 31.9584 7.80997 31.9506 7.80152C31.9429 7.79306 31.9385 7.78159 31.9385 7.76963L31.9406 0.785756C31.9406 0.718745 31.9282 0.652392 31.904 0.590496C31.8799 0.5286 31.8445 0.472377 31.7999 0.425045C31.7553 0.377714 31.7023 0.340203 31.6441 0.314662C31.5858 0.289121 31.5234 0.27605 31.4604 0.276198C28.8765 0.27695 26.8909 0.276198 25.5035 0.273944C25.2774 0.273944 25.1226 0.306261 25.0392 0.370895C24.9035 0.475362 24.8356 0.651979 24.8356 0.900745C24.8342 4.46164 24.8335 8.02253 24.8335 11.5834ZM46.1273 0.789138C46.1273 0.656387 46.0777 0.529073 45.9894 0.435204C45.9011 0.341334 45.7814 0.288599 45.6566 0.288599H39.4951C39.3703 0.288599 39.2505 0.341334 39.1623 0.435204C39.074 0.529073 39.0244 0.656387 39.0244 0.789138V7.32771C39.0244 7.46046 39.074 7.58778 39.1623 7.68165C39.2505 7.77552 39.3703 7.82825 39.4951 7.82825H45.6566C45.7814 7.82825 45.9011 7.77552 45.9894 7.68165C46.0777 7.58778 46.1273 7.46046 46.1273 7.32771V0.789138ZM56.8038 0.816194C56.8038 0.682845 56.754 0.554958 56.6653 0.460666C56.5767 0.366373 56.4564 0.313401 56.331 0.313401H50.178C50.0526 0.313401 49.9324 0.366373 49.8437 0.460666C49.755 0.554958 49.7052 0.682845 49.7052 0.816194V7.35477C49.7052 7.4208 49.7174 7.48618 49.7412 7.54718C49.7649 7.60818 49.7998 7.66361 49.8437 7.7103C49.8876 7.75699 49.9397 7.79402 49.9971 7.81929C50.0544 7.84456 50.1159 7.85756 50.178 7.85756H56.331C56.3931 7.85756 56.4546 7.84456 56.5119 7.81929C56.5693 7.79402 56.6214 7.75699 56.6653 7.7103C56.7092 7.66361 56.7441 7.60818 56.7678 7.54718C56.7916 7.48618 56.8038 7.4208 56.8038 7.35477V0.816194ZM70.9681 0.787064C70.968 0.720592 70.9556 0.654794 70.9316 0.593426C70.9076 0.532058 70.8724 0.476322 70.8281 0.429401C70.7839 0.38248 70.7313 0.345292 70.6735 0.319961C70.6157 0.29463 70.5538 0.281652 70.4913 0.281767L64.3405 0.293187C64.2779 0.293303 64.2161 0.30651 64.1584 0.332054C64.1007 0.357598 64.0482 0.39498 64.0041 0.442064C63.96 0.489149 63.925 0.545014 63.9012 0.60647C63.8774 0.667927 63.8652 0.733771 63.8653 0.800243L63.876 7.32753C63.8761 7.394 63.8885 7.4598 63.9126 7.52117C63.9366 7.58254 63.9717 7.63827 64.016 7.6852C64.0603 7.73212 64.1128 7.7693 64.1706 7.79464C64.2284 7.81997 64.2903 7.83294 64.3528 7.83283L70.5037 7.82141C70.5662 7.82129 70.6281 7.80809 70.6858 7.78254C70.7435 7.757 70.7959 7.71962 70.84 7.67253C70.8841 7.62545 70.9191 7.56958 70.9429 7.50813C70.9668 7.44667 70.979 7.38083 70.9789 7.31435L70.9681 0.787064ZM63.8824 8.33426C63.8825 8.26808 63.8703 8.20253 63.8466 8.14135C63.8229 8.08017 63.7881 8.02455 63.7441 7.97767C63.7002 7.9308 63.648 7.89359 63.5906 7.86815C63.5331 7.84272 63.4715 7.82957 63.4093 7.82946L57.2606 7.81804C57.1983 7.81792 57.1367 7.83084 57.0792 7.85606C57.0216 7.88128 56.9693 7.9183 56.9253 7.96501C56.8812 8.01172 56.8462 8.06721 56.8223 8.1283C56.7983 8.1894 56.786 8.2549 56.7859 8.32108L56.7751 14.8596C56.775 14.9258 56.7872 14.9914 56.8109 15.0526C56.8346 15.1137 56.8694 15.1694 56.9133 15.2162C56.9573 15.2631 57.0094 15.3003 57.0669 15.3257C57.1243 15.3512 57.186 15.3643 57.2482 15.3644L63.3969 15.3759C63.4591 15.376 63.5208 15.3631 63.5783 15.3378C63.6359 15.3126 63.6882 15.2756 63.7322 15.2289C63.7763 15.1822 63.8113 15.1267 63.8352 15.0656C63.8591 15.0045 63.8715 14.939 63.8716 14.8728L63.8824 8.33426ZM46.1304 15.8673C46.1304 15.7346 46.0809 15.6073 45.9926 15.5134C45.9043 15.4195 45.7846 15.3668 45.6597 15.3668H39.4983C39.3734 15.3668 39.2537 15.4195 39.1654 15.5134C39.0772 15.6073 39.0276 15.7346 39.0276 15.8673V22.3991C39.0276 22.5319 39.0772 22.6592 39.1654 22.7531C39.2537 22.8469 39.3734 22.8997 39.4983 22.8997H45.6597C45.7846 22.8997 45.9043 22.8469 45.9926 22.7531C46.0809 22.6592 46.1304 22.5319 46.1304 22.3991V15.8673ZM56.7837 15.8639C56.7837 15.7984 56.7715 15.7334 56.7479 15.6728C56.7243 15.6122 56.6897 15.5572 56.6461 15.5108C56.6025 15.4644 56.5507 15.4276 56.4938 15.4025C56.4368 15.3774 56.3757 15.3645 56.314 15.3645H50.1504C50.0888 15.3645 50.0277 15.3774 49.9707 15.4025C49.9137 15.4276 49.862 15.4644 49.8184 15.5108C49.7748 15.5572 49.7402 15.6122 49.7166 15.6728C49.693 15.7334 49.6808 15.7984 49.6808 15.8639V22.398C49.6808 22.5305 49.7303 22.6575 49.8184 22.7511C49.9064 22.8448 50.0259 22.8974 50.1504 22.8974H56.314C56.4386 22.8974 56.558 22.8448 56.6461 22.7511C56.7342 22.6575 56.7837 22.5305 56.7837 22.398V15.8639ZM71 15.8932C71 15.7599 70.9502 15.632 70.8615 15.5377C70.7728 15.4434 70.6526 15.3905 70.5272 15.3905H64.3763C64.2509 15.3905 64.1307 15.4434 64.042 15.5377C63.9533 15.632 63.9035 15.7599 63.9035 15.8932V22.4273C63.9035 22.5607 63.9533 22.6885 64.042 22.7828C64.1307 22.8771 64.2509 22.9301 64.3763 22.9301H70.5272C70.6526 22.9301 70.7728 22.8771 70.8615 22.7828C70.9502 22.6885 71 22.5607 71 22.4273V15.8932Z" fill="black"/>
<path d="M0 22.6528V0.54676C0.180929 0.370895 0.313445 0.282962 0.397548 0.282962C7.18237 0.281459 13.9672 0.281459 20.752 0.282962C21.3415 0.282962 21.2821 0.729389 21.2821 1.25248C21.2835 8.24725 21.2839 15.242 21.2831 22.2368C21.2824 22.5923 21.169 22.8072 20.9428 22.8816C20.892 22.8982 20.6937 22.9064 20.3481 22.9064C13.7329 22.9094 7.11735 22.9094 0.501441 22.9064C0.400375 22.9064 0.311324 22.8805 0.234288 22.8286C0.157959 22.7768 0.079863 22.7182 0 22.6528ZM14.1919 8.3333C14.1919 8.19726 14.1411 8.06679 14.0507 7.9706C13.9602 7.8744 13.8375 7.82036 13.7096 7.82036H7.57144C7.44351 7.82036 7.32082 7.8744 7.23036 7.9706C7.1399 8.06679 7.08908 8.19726 7.08908 8.3333V14.8606C7.08908 14.9966 7.1399 15.1271 7.23036 15.2233C7.32082 15.3195 7.44351 15.3735 7.57144 15.3735H13.7096C13.8375 15.3735 13.9602 15.3195 14.0507 15.2233C14.1411 15.1271 14.1919 14.9966 14.1919 14.8606V8.3333Z" fill="white"/>
<path d="M39.0255 11.5846C39.0255 12.6675 39.0258 13.7611 39.0265 14.8651C39.0265 14.9946 38.978 15.1187 38.8918 15.2103C38.8055 15.3018 38.6884 15.3533 38.5664 15.3533H31.9788C31.9678 15.3533 31.9573 15.358 31.9495 15.3665C31.9418 15.3749 31.9374 15.3864 31.9374 15.3983V22.3822C31.9374 22.4492 31.925 22.5156 31.9009 22.5775C31.8767 22.6394 31.8413 22.6956 31.7967 22.7429C31.7521 22.7903 31.6992 22.8278 31.6409 22.8533C31.5826 22.8789 31.5202 22.8919 31.4572 22.8918C28.8733 22.8903 26.8877 22.8903 25.5003 22.8918C25.2742 22.8918 25.1194 22.8595 25.036 22.7948C24.9003 22.6904 24.8325 22.5137 24.8325 22.265C24.8325 18.7041 24.8328 15.1436 24.8335 11.5834C24.8335 8.02253 24.8342 4.46164 24.8356 0.900745C24.8356 0.651979 24.9035 0.475362 25.0392 0.370895C25.1226 0.306261 25.2774 0.273944 25.5035 0.273944C26.8909 0.276198 28.8765 0.27695 31.4604 0.276198C31.5234 0.27605 31.5858 0.289121 31.6441 0.314662C31.7023 0.340203 31.7553 0.377714 31.7999 0.425045C31.8445 0.472377 31.8799 0.5286 31.904 0.590496C31.9282 0.652392 31.9406 0.718745 31.9406 0.785756L31.9385 7.76963C31.9385 7.78159 31.9429 7.79306 31.9506 7.80152C31.9584 7.80997 31.9689 7.81472 31.9798 7.81472L38.5675 7.81698C38.6895 7.81698 38.8065 7.86841 38.8928 7.95995C38.9791 8.0515 39.0276 8.17565 39.0276 8.30512C39.0262 9.40916 39.0255 10.5023 39.0255 11.5846Z" fill="white"/>
<path d="M45.6566 0.288599H39.4951C39.2351 0.288599 39.0244 0.512698 39.0244 0.789138V7.32771C39.0244 7.60415 39.2351 7.82825 39.4951 7.82825H45.6566C45.9165 7.82825 46.1273 7.60415 46.1273 7.32771V0.789138C46.1273 0.512698 45.9165 0.288599 45.6566 0.288599Z" fill="white"/>
<path d="M56.331 0.313401H50.178C49.9169 0.313401 49.7052 0.538509 49.7052 0.816194V7.35477C49.7052 7.63245 49.9169 7.85756 50.178 7.85756H56.331C56.5921 7.85756 56.8038 7.63245 56.8038 7.35477V0.816194C56.8038 0.538509 56.5921 0.313401 56.331 0.313401Z" fill="white"/>
<path d="M70.4913 0.281767L64.3405 0.293187C64.0776 0.293675 63.8648 0.52069 63.8653 0.800243L63.876 7.32753C63.8765 7.60709 64.0899 7.83332 64.3528 7.83283L70.5037 7.82141C70.7666 7.82092 70.9793 7.59391 70.9789 7.31435L70.9681 0.787064C70.9677 0.507511 70.7542 0.28128 70.4913 0.281767Z" fill="white"/>
<path d="M13.7096 7.82036H7.57144C7.30504 7.82036 7.08908 8.05001 7.08908 8.3333V14.8606C7.08908 15.1439 7.30504 15.3735 7.57144 15.3735H13.7096C13.976 15.3735 14.1919 15.1439 14.1919 14.8606V8.3333C14.1919 8.05001 13.976 7.82036 13.7096 7.82036Z" fill="black"/>
<path d="M63.4093 7.82946L57.2606 7.81804C56.9989 7.81755 56.7863 8.04277 56.7859 8.32108L56.7751 14.8596C56.7747 15.1379 56.9865 15.364 57.2482 15.3644L63.3969 15.3759C63.6586 15.3763 63.8712 15.1511 63.8716 14.8728L63.8824 8.33426C63.8828 8.05595 63.671 7.82994 63.4093 7.82946Z" fill="white"/>
<path d="M45.6597 15.3668H39.4983C39.2383 15.3668 39.0276 15.5909 39.0276 15.8673V22.3991C39.0276 22.6756 39.2383 22.8997 39.4983 22.8997H45.6597C45.9197 22.8997 46.1304 22.6756 46.1304 22.3991V15.8673C46.1304 15.5909 45.9197 15.3668 45.6597 15.3668Z" fill="white"/>
<path d="M56.314 15.3645H50.1504C49.8911 15.3645 49.6808 15.5881 49.6808 15.8639V22.398C49.6808 22.6738 49.8911 22.8974 50.1504 22.8974H56.314C56.5734 22.8974 56.7837 22.6738 56.7837 22.398V15.8639C56.7837 15.5881 56.5734 15.3645 56.314 15.3645Z" fill="white"/>
<path d="M70.5272 15.3905H64.3763C64.1152 15.3905 63.9035 15.6156 63.9035 15.8932V22.4273C63.9035 22.705 64.1152 22.9301 64.3763 22.9301H70.5272C70.7883 22.9301 71 22.705 71 22.4273V15.8932C71 15.6156 70.7883 15.3905 70.5272 15.3905Z" fill="white"/>
<path d="M20.5273 22.9977H20.2485C20.3389 22.9662 20.4319 22.9662 20.5273 22.9977Z" fill="white"/>
<path d="M31.807 22.9977H31.6173C31.6738 22.9714 31.7371 22.9714 31.807 22.9977Z" fill="white"/>
<path d="M45.0639 22.9977H44.9749C44.994 22.9481 45.0237 22.9481 45.0639 22.9977Z" fill="white"/>
<path d="M45.1763 22.9977H45.0799C45.0933 22.9496 45.1254 22.9496 45.1763 22.9977Z" fill="white"/>
<path d="M50.3169 22.9977H50.1176C50.1819 22.9729 50.2483 22.9729 50.3169 22.9977Z" fill="white"/>
<path d="M56.0946 22.9977H55.7861C55.8808 22.9474 55.9836 22.9474 56.0946 22.9977Z" fill="white"/>
<path d="M70.1413 22.9977H69.9674C70.0169 22.9699 70.0749 22.9699 70.1413 22.9977Z" fill="white"/>
<path d="M70.3014 22.9977H70.206C70.2137 22.9624 70.2455 22.9624 70.3014 22.9977Z" fill="white"/>
<path d="M70.5654 22.9977H70.3947C70.4533 22.9654 70.5102 22.9654 70.5654 22.9977Z" fill="white"/>
</g>
</svg>
