<svg xmlns="http://www.w3.org/2000/svg" width="140" height="28" viewBox="0 0 140 28" fill="none">
  <path d="M53.547 7.57546L50.8599 9.51205C50.8544 9.51605 50.8478 9.51827 50.8409 9.51842C50.834 9.51858 50.8272 9.51665 50.8214 9.5129C50.4258 9.25276 49.9831 9.07341 49.4933 8.97487C49.4771 8.97174 49.4742 8.96379 49.4848 8.95101C50.1316 8.15411 50.5744 7.60684 50.8133 7.30921C50.8864 7.21804 50.9779 7.12347 51.0583 7.02379C51.0675 7.01271 51.079 7.0059 51.093 7.00334C51.1141 6.99936 51.15 6.99894 51.2007 7.00206C52.0183 7.05233 52.7998 7.23892 53.5453 7.56183C53.5466 7.56242 53.5477 7.56334 53.5486 7.56448C53.5494 7.56563 53.55 7.56697 53.5501 7.56836C53.5503 7.56975 53.5501 7.57114 53.5496 7.57238C53.549 7.57363 53.5481 7.57469 53.547 7.57546Z" fill="currentColor"/>
  <path d="M47.361 9.07288L47.7416 7.51415C47.745 7.50023 47.753 7.48987 47.7655 7.48305C47.8291 7.44982 47.9008 7.42142 47.9806 7.39785C48.624 7.20672 49.2967 7.07821 49.9989 7.01232C50.0032 7.01194 50.0075 7.01276 50.0114 7.01469C50.0153 7.01661 50.0185 7.01956 50.0208 7.02322C50.0231 7.02688 50.0244 7.0311 50.0244 7.03541C50.0245 7.03973 50.0233 7.04397 50.0211 7.04768L48.8828 8.87309C48.8768 8.88274 48.8684 8.89071 48.8583 8.89622C48.8483 8.90174 48.837 8.90463 48.8255 8.90461C48.3452 8.90205 47.863 8.96397 47.379 9.09035C47.3765 9.09102 47.3739 9.09104 47.3715 9.0904C47.369 9.08977 47.3668 9.08851 47.3649 9.08674C47.3631 9.08498 47.3618 9.08277 47.3611 9.08034C47.3604 9.0779 47.3604 9.07533 47.361 9.07288Z" fill="currentColor"/>
  <path d="M46.8679 7.814L46.7627 9.26538C46.7624 9.26874 46.7613 9.27195 46.7593 9.27466C46.7573 9.27737 46.7547 9.27946 46.7516 9.28071C46.3095 9.46247 45.8814 9.68059 45.4675 9.93505C45.4521 9.94442 45.4413 9.94073 45.435 9.92397L45.0211 8.87005C45.0183 8.86261 45.018 8.85446 45.0204 8.8469C45.0227 8.83934 45.0275 8.8328 45.0339 8.8283C45.6106 8.4361 46.2195 8.09629 46.8606 7.80889C46.8658 7.80633 46.8682 7.80803 46.8679 7.814Z" fill="currentColor"/>
  <path d="M51.4862 10.1685C51.4306 10.0941 51.3793 10.023 51.3323 9.9551C51.3214 9.93948 51.3244 9.92698 51.3412 9.91761L54.5192 8.14162C54.5276 8.1369 54.5372 8.13472 54.5468 8.13532C54.5565 8.13593 54.5657 8.1393 54.5735 8.14502C55.344 8.717 55.9193 9.44517 56.2993 10.3295C56.3008 10.333 56.3015 10.3367 56.3014 10.3404C56.3012 10.3441 56.3003 10.3477 56.2987 10.3511C56.297 10.3544 56.2946 10.3573 56.2917 10.3596C56.2888 10.362 56.2854 10.3636 56.2817 10.3645C55.0976 10.6465 54.0522 10.8909 53.1457 11.0976C52.766 11.1842 52.3951 11.2744 52.0331 11.3681C52.0188 11.3718 52.0102 11.3666 52.007 11.3524C51.9098 10.8983 51.7362 10.5036 51.4862 10.1685Z" fill="currentColor"/>
  <path d="M42.9265 10.7598C43.3421 10.2531 43.8021 9.79631 44.3064 9.38933C44.3161 9.38138 44.3246 9.38294 44.332 9.39402L44.9409 10.2886C44.9451 10.2948 44.9468 10.3023 44.9457 10.3097C44.9446 10.3171 44.9408 10.3239 44.9349 10.3287C44.5826 10.6161 44.2555 10.9353 43.9536 11.2863C43.949 11.2918 43.9426 11.2955 43.9355 11.2968C43.9284 11.2981 43.9211 11.297 43.9147 11.2936L42.9308 10.7815C42.9289 10.7806 42.9273 10.7792 42.926 10.7775C42.9247 10.7758 42.9239 10.7739 42.9235 10.7718C42.9231 10.7697 42.9231 10.7676 42.9236 10.7655C42.9242 10.7634 42.9251 10.7615 42.9265 10.7598Z" fill="currentColor"/>
  <path d="M78.2412 12.8114L76.6492 15.2247C76.64 15.2386 76.6275 15.25 76.6128 15.2578C76.5981 15.2657 76.5817 15.2699 76.565 15.2698H74.6686C74.6538 15.2698 74.6392 15.2662 74.6261 15.2593C74.613 15.2524 74.6018 15.2424 74.5933 15.2302C74.2729 14.7662 73.8308 14.1135 73.2669 13.2723C73.1383 13.0806 73.016 12.9118 72.9 12.7658C72.8909 12.7542 72.8863 12.7557 72.8863 12.7705V18.3055C72.8863 18.3157 72.8812 18.3214 72.8709 18.3226C72.8262 18.3268 72.7789 18.3294 72.729 18.3302C72.7147 18.3305 72.1015 18.3309 70.8894 18.3315C70.8575 18.3315 70.8415 18.3156 70.8415 18.2838V9.72291C70.8415 9.70615 70.85 9.69778 70.8668 9.69778H72.8098C72.8303 9.69778 72.8506 9.70283 72.8688 9.71249C72.887 9.72214 72.9025 9.73611 72.9141 9.75316L75.5978 13.6988C75.6069 13.7118 75.6157 13.7118 75.6243 13.6988C76.4236 12.4878 77.2102 11.2991 77.9842 10.1327C78.0908 9.97198 78.1758 9.83807 78.239 9.731C78.2519 9.70914 78.271 9.6982 78.2963 9.6982H80.2967C80.3044 9.6982 80.3082 9.70204 80.3082 9.7097V18.2932C80.3082 18.3111 80.2992 18.3213 80.2813 18.3238C80.2436 18.3287 80.1989 18.3311 80.147 18.3311C79.5227 18.3305 78.9038 18.3309 78.2904 18.3324C78.2718 18.3326 78.2626 18.3236 78.2626 18.3051V12.8178C78.2626 12.7917 78.2554 12.7895 78.2412 12.8114Z" fill="currentColor"/>
  <path d="M95.9763 14.0136C95.9763 14.015 95.9805 14.0214 95.9887 14.0328C96.0372 14.0984 96.0626 14.1329 96.0649 14.1363C97.8471 16.673 98.825 18.0609 98.9986 18.3C99.0009 18.3031 99.0003 18.3092 98.9969 18.3183C98.9955 18.3218 98.9931 18.3249 98.99 18.327C98.9869 18.3291 98.9832 18.3303 98.9794 18.3303H96.7811C96.7537 18.3303 96.7323 18.319 96.717 18.2966L94.8599 15.6477C94.8525 15.6375 94.8452 15.6375 94.8381 15.6477L92.984 18.2851C92.9741 18.2991 92.961 18.3104 92.9458 18.3183C92.9306 18.3262 92.9138 18.3303 92.8968 18.3303H90.7104C90.7066 18.3302 90.7029 18.3291 90.6996 18.3271C90.6964 18.3252 90.6937 18.3224 90.692 18.319C90.6902 18.3157 90.6894 18.312 90.6896 18.3082C90.6899 18.3045 90.6912 18.3009 90.6933 18.2979C92.1814 16.177 93.1777 14.7563 93.6823 14.0358C93.6865 14.0295 93.6887 14.0221 93.6887 14.0136C93.6887 14.0048 93.6865 13.9973 93.6823 13.991C93.1777 13.2705 92.1814 11.85 90.6933 9.72933C90.6912 9.72629 90.6899 9.72271 90.6896 9.71898C90.6894 9.71526 90.6902 9.71153 90.692 9.70819C90.6937 9.70486 90.6964 9.70205 90.6996 9.70007C90.7029 9.69809 90.7066 9.69701 90.7104 9.69695L92.8968 9.69653C92.9138 9.69652 92.9306 9.70062 92.9458 9.70848C92.961 9.71634 92.9741 9.72772 92.984 9.74168L94.8381 12.379C94.8452 12.3893 94.8525 12.3893 94.8599 12.379L96.717 9.73018C96.7323 9.70775 96.7537 9.69653 96.7811 9.69653H98.9794C98.9832 9.69653 98.9869 9.69766 98.99 9.69979C98.9931 9.70192 98.9955 9.70494 98.9969 9.70846C99.0003 9.71754 99.0009 9.72365 98.9986 9.72677C98.825 9.9659 97.8471 11.3538 96.0649 13.8905C96.0626 13.8939 96.0372 13.9284 95.9887 13.994C95.9805 14.0054 95.9763 14.0119 95.9763 14.0136Z" fill="currentColor"/>
  <path d="M65.4187 11.8585L63.2503 16.95C63.2493 16.9524 63.2489 16.955 63.2491 16.9576C63.2494 16.9602 63.2502 16.9627 63.2516 16.9648C63.253 16.967 63.2549 16.9687 63.2571 16.9699C63.2594 16.9711 63.2619 16.9718 63.2644 16.9718H65.6491C65.6646 16.9718 65.6798 16.9762 65.6929 16.9845C65.706 16.9928 65.7165 17.0046 65.7231 17.0186L66.3213 18.2868C66.335 18.3158 66.3259 18.3303 66.294 18.3303C62.7717 18.3317 61.0038 18.3324 60.9904 18.3324C60.8744 18.3324 60.7617 18.3287 60.6522 18.3213C60.6405 18.3208 60.6369 18.3151 60.6415 18.3043L64.2898 9.7387C64.2949 9.72706 64.3039 9.72124 64.3167 9.72124H66.4842C66.5219 9.72124 66.548 9.73842 66.5625 9.77278L70.1971 18.306C70.1983 18.3087 70.1988 18.3117 70.1986 18.3147C70.1983 18.3177 70.1973 18.3206 70.1957 18.3231C70.194 18.3256 70.1917 18.3276 70.1891 18.329C70.1864 18.3304 70.1834 18.3312 70.1804 18.3311H68.1964C68.1886 18.3311 68.1811 18.3288 68.1747 18.3246C68.1683 18.3204 68.1633 18.3143 68.1604 18.3073L65.4324 11.8585C65.4278 11.848 65.4232 11.848 65.4187 11.8585Z" fill="currentColor"/>
  <path d="M85.718 11.8627L83.5612 16.9266C83.5443 16.9664 83.5577 16.9865 83.6014 16.9871C83.6317 16.9875 83.6749 16.9739 83.7134 16.9735C84.4805 16.9695 85.2258 16.9692 85.9493 16.9726C85.9602 16.9727 85.9709 16.9756 85.9805 16.981C85.9901 16.9863 85.9981 16.994 86.004 17.0033C86.0348 17.0524 86.0632 17.1042 86.0891 17.1588C86.259 17.5149 86.4351 17.8855 86.6172 18.2706C86.6363 18.3107 86.6236 18.3307 86.5792 18.3307H80.972C80.9447 18.3307 80.9364 18.3182 80.9472 18.2932L84.5895 9.74126C84.5952 9.72791 84.6054 9.72124 84.6199 9.72124H86.8049C86.816 9.72125 86.8268 9.72453 86.836 9.73067C86.8452 9.73681 86.8524 9.74553 86.8567 9.75574C87.0286 10.1596 88.0249 12.4992 89.8456 16.7745C90.1352 17.4547 90.3215 17.8886 90.4045 18.0764C90.439 18.1542 90.4664 18.2292 90.4866 18.3013C90.4876 18.3049 90.4877 18.3086 90.4871 18.3122C90.4864 18.3158 90.4849 18.3192 90.4827 18.3222C90.4805 18.3251 90.4777 18.3275 90.4744 18.3291C90.4712 18.3307 90.4676 18.3316 90.4639 18.3315H88.4953C88.4793 18.3315 88.4682 18.3242 88.4619 18.3094L85.7355 11.8627C85.7298 11.8494 85.724 11.8494 85.718 11.8627Z" fill="currentColor"/>
  <path d="M41.5221 13.0546C41.769 12.4852 42.0568 11.9578 42.3854 11.4725C42.4085 11.4381 42.44 11.4267 42.4799 11.4384L43.5759 11.7575C43.5901 11.7617 43.5933 11.7701 43.5853 11.7826C43.3438 12.1546 43.1436 12.5407 42.9845 12.9409C42.9817 12.948 42.9769 12.9541 42.9708 12.9587C42.9647 12.9633 42.9575 12.9661 42.9499 12.9669L41.5491 13.0917C41.5444 13.0922 41.5397 13.0914 41.5355 13.0895C41.5312 13.0876 41.5276 13.0847 41.5248 13.0809C41.5221 13.0772 41.5204 13.0728 41.5199 13.0681C41.5195 13.0635 41.5202 13.0589 41.5221 13.0546Z" fill="currentColor"/>
  <path d="M51.4522 14.086C51.6817 13.662 51.8506 13.2093 51.9589 12.7279C52.0119 12.4925 52.0379 12.2947 52.0367 12.1345C52.0367 12.1235 52.0421 12.1175 52.053 12.1166L56.6091 11.7098C56.6242 11.7084 56.6324 11.7153 56.6339 11.7307C56.6723 12.1811 56.6725 12.5903 56.6343 12.9584C56.5471 13.8002 56.3211 14.6019 55.9565 15.3636C55.9513 15.3743 55.9424 15.3828 55.9314 15.3877C55.9205 15.3925 55.9082 15.3933 55.8967 15.39L51.4565 14.0967C51.4554 14.0964 51.4544 14.0958 51.4536 14.0951C51.4528 14.0944 51.4521 14.0934 51.4517 14.0924C51.4513 14.0914 51.4511 14.0903 51.4512 14.0892C51.4513 14.0881 51.4516 14.087 51.4522 14.086Z" fill="currentColor"/>
  <path d="M41 15.7312V15.2443C41.0359 14.7774 41.1157 14.3237 41.2395 13.8832C41.2421 13.8743 41.247 13.8663 41.2537 13.8599C41.2603 13.8535 41.2686 13.8491 41.2775 13.847L42.7938 13.487C42.7977 13.4861 42.8017 13.4861 42.8055 13.4872C42.8094 13.4882 42.8129 13.4902 42.8158 13.4931C42.8186 13.4959 42.8208 13.4994 42.8219 13.5032C42.8231 13.5071 42.8233 13.5112 42.8224 13.5152C42.7472 13.8555 42.7023 14.2006 42.7292 14.5329C42.7381 14.6436 42.7432 14.7114 42.7446 14.7361C42.7455 14.7503 42.7396 14.7609 42.7271 14.768L41 15.7312Z" fill="currentColor"/>
  <path d="M50.9233 14.9171L54.9154 16.996C54.9382 17.0079 54.9417 17.0238 54.9257 17.0437C53.9798 18.232 52.8256 19.1883 51.463 19.9128C51.4507 19.9194 51.4406 19.9168 51.4326 19.9052L49.1266 16.5146C49.1246 16.5118 49.1233 16.5086 49.1226 16.5052C49.1219 16.5019 49.1219 16.4984 49.1226 16.4951C49.1233 16.4917 49.1246 16.4886 49.1265 16.4858C49.1285 16.483 49.131 16.4806 49.1338 16.4788C49.8035 16.0622 50.3951 15.5426 50.9088 14.9201C50.9105 14.9181 50.9129 14.9166 50.9156 14.9161C50.9182 14.9156 50.9209 14.9159 50.9233 14.9171Z" fill="currentColor"/>
  <path d="M41.7584 18.4743C41.3987 17.8969 41.1672 17.2712 41.064 16.5973C41.0619 16.5836 41.0637 16.5695 41.0691 16.5566C41.0745 16.5438 41.0834 16.5327 41.0948 16.5245L42.8248 15.2776C42.8365 15.269 42.8447 15.2717 42.8492 15.2857C42.9818 15.6887 43.1867 16.0536 43.4641 16.3805C43.4732 16.391 43.4734 16.4015 43.4645 16.412L41.7883 18.4764C41.7865 18.4787 41.7841 18.4804 41.7814 18.4816C41.7787 18.4828 41.7758 18.4833 41.7728 18.483C41.7699 18.4828 41.7671 18.4819 41.7645 18.4804C41.762 18.4789 41.7599 18.4768 41.7584 18.4743Z" fill="currentColor"/>
  <path d="M42.389 19.2121L43.8976 16.792C43.9061 16.7786 43.9169 16.7762 43.93 16.7847C44.3705 17.0724 44.8454 17.2592 45.3548 17.3449C45.359 17.3456 45.363 17.3472 45.3665 17.3495C45.37 17.3518 45.3731 17.3548 45.3754 17.3583C45.3777 17.3618 45.3793 17.3658 45.38 17.3699C45.3808 17.3741 45.3806 17.3783 45.3796 17.3824L44.5886 20.6251C44.5874 20.6297 44.5853 20.6339 44.5824 20.6376C44.5795 20.6413 44.5759 20.6444 44.5718 20.6466C44.5676 20.6489 44.5631 20.6502 44.5584 20.6506C44.5537 20.651 44.549 20.6505 44.5445 20.649C43.7235 20.3624 43.008 19.9106 42.398 19.2935C42.3734 19.2685 42.3704 19.2413 42.389 19.2121Z" fill="currentColor"/>
  <path d="M47.7132 21H46.4355L45.9296 20.9723C45.914 20.9715 45.9067 20.9631 45.9078 20.9472L46.1631 17.4212C46.1643 17.4064 46.1722 17.3987 46.1871 17.3982C46.8821 17.374 47.5511 17.2268 48.1942 16.9564C48.2073 16.9507 48.2172 16.9544 48.2237 16.9675C48.2673 17.0547 48.2977 17.1201 48.3148 17.1639C48.7626 18.3132 49.2148 19.4624 49.6712 20.6115C49.6724 20.6145 49.6729 20.6178 49.6728 20.6211C49.6726 20.6244 49.6718 20.6276 49.6704 20.6306C49.6689 20.6336 49.6669 20.6363 49.6644 20.6385C49.6619 20.6407 49.6589 20.6424 49.6558 20.6434C49.0229 20.8422 48.3754 20.9611 47.7132 21Z" fill="currentColor"/>
</svg>