<svg xmlns="http://www.w3.org/2000/svg" width="140" height="28" viewBox="0 0 140 28" fill="none">
  <path fill-rule="evenodd" clip-rule="evenodd" d="M57.0188 14C57.0188 17.866 53.8751 21 49.9971 21C46.318 21 43.2998 18.1791 43 14.5884H52.2809V13.4116H43C43.2998 9.82095 46.318 7 49.9971 7C53.8751 7 57.0188 10.134 57.0188 14ZM83.0504 19.7319C85.4835 19.7319 87.0792 18.4222 87.0792 16.45C87.0792 14.6198 85.8784 13.752 84.0616 13.4522L82.4501 13.184C81.2178 12.9789 80.3962 12.4425 80.3962 11.2591C80.3962 10.06 81.3126 9.14491 83.0504 9.14491C84.7409 9.14491 85.6098 9.99692 85.7046 11.2118H86.9212C86.8264 9.60247 85.594 8.16669 83.0662 8.16669C80.57 8.16669 79.1956 9.57091 79.1956 11.3065C79.1956 13.1525 80.4436 14.0045 82.1499 14.2885L83.7773 14.5409C85.1359 14.7776 85.8942 15.3298 85.8942 16.4974C85.8942 17.87 84.7725 18.7536 83.0662 18.7536C81.2968 18.7536 80.1908 17.9016 80.0961 16.45H78.8954C78.9902 18.3434 80.4436 19.7319 83.0504 19.7319ZM65.114 19.5109H60.6903V8.40336H64.956C66.8361 8.40336 68.1474 9.50781 68.1474 11.2749C68.1474 12.5529 67.4206 13.4049 66.2516 13.6889V13.7362C67.6418 14.0045 68.4949 14.9511 68.4949 16.4342C68.4949 18.3434 67.0889 19.5109 65.114 19.5109ZM64.798 13.2787C66.141 13.2787 66.9625 12.5529 66.9625 11.4169V11.2591C66.9625 10.1231 66.141 9.41313 64.798 9.41313H61.8753V13.2787H64.798ZM64.9402 18.5011C66.4096 18.5011 67.3101 17.6965 67.3101 16.4658V16.308C67.3101 15.03 66.3938 14.2569 64.9244 14.2569H61.8753V18.5011H64.9402ZM78.0636 19.5109H76.7996L75.8517 16.4974H71.428L70.4801 19.5109H69.2793L72.9289 8.40336H74.3666L78.0636 19.5109ZM73.7031 9.61824H73.6083L71.744 15.5034H75.5516L73.7031 9.61824ZM88.8589 19.5109V8.40336H96V9.42891H90.0439V13.2471H95.5261V14.2569H90.0439V18.4854H96V19.5109H88.8589Z" fill="currentColor"/>
</svg>