<svg xmlns="http://www.w3.org/2000/svg" width="140" height="28" viewBox="0 0 140 28" fill="none">
  <path d="M30.5053 13.1435L34.001 9.84224L37.4985 13.1453L39.5325 11.2243L34.001 6L28.4713 11.2225L30.5053 13.1435Z" fill="currentColor"/>
  <path d="M29.0681 14.4996L27.0341 12.5787L25 14.4997L27.034 16.4207L29.0681 14.4996Z" fill="currentColor"/>
  <path d="M30.505 15.8565L34.0007 19.1578L37.498 15.8549L39.5332 17.7748L39.5322 17.7759L34.0007 23L28.468 17.7749L30.505 15.8565Z" fill="currentColor"/>
  <path d="M40.9663 16.4217L43.0004 14.5006L40.9664 12.5797L38.9323 14.5007L40.9663 16.4217Z" fill="currentColor"/>
  <path d="M36.0638 14.4989H36.0646L34.0006 12.5495L31.9356 14.4998L31.9384 14.5026L34.0006 16.4502L36.0646 14.5009L36.0656 14.4998L36.0638 14.4989Z" fill="currentColor"/>
  <path d="M46.1714 10.1193H50.5953C51.6933 10.1193 52.5236 10.3855 53.0863 10.9177C53.5217 11.3299 53.7394 11.8408 53.7394 12.4502V12.476C53.7394 12.7335 53.7057 12.9611 53.6379 13.1585C53.5702 13.3562 53.4798 13.5341 53.3668 13.6929C53.254 13.8519 53.1229 13.9914 52.974 14.1114C52.8248 14.2317 52.6646 14.3348 52.493 14.4205C53.0449 14.6181 53.4794 14.8863 53.7961 15.2254C54.1127 15.5647 54.2712 16.0348 54.2712 16.6357V16.6613C54.2712 17.0735 54.1874 17.434 54.0195 17.7433C53.8516 18.0522 53.611 18.3099 53.2978 18.516C52.9846 18.7221 52.608 18.8765 52.1679 18.9796C51.7277 19.0826 51.2399 19.134 50.7046 19.134H46.1714V10.1193ZM50.153 13.7638C50.6168 13.7638 50.985 13.6889 51.2575 13.5385C51.5302 13.3882 51.6666 13.1456 51.6666 12.8109V12.7851C51.6666 12.4847 51.5483 12.2551 51.312 12.0962C51.0756 11.9373 50.7346 11.8578 50.2894 11.8578H48.2167V13.7638H50.153ZM50.7122 17.3956C51.1758 17.3956 51.5392 17.3164 51.803 17.1574C52.0666 16.9986 52.1986 16.7517 52.1986 16.4168V16.3912C52.1986 16.0907 52.0757 15.8525 51.8303 15.6763C51.5848 15.5006 51.1894 15.4125 50.6439 15.4125H48.2167V17.3958L50.7122 17.3956Z" fill="currentColor"/>
  <path d="M56.9063 10.1193H59.0065V19.1343H56.9063V10.1193Z" fill="currentColor"/>
  <path d="M62.1877 10.1193H64.1238L68.5966 15.67V10.1193H70.6693V19.1343H68.883L64.2603 13.4034V19.1343H62.1877V10.1193Z" fill="currentColor"/>
  <path d="M77.026 10.0548H78.9622L83.0533 19.1341H80.8578L79.985 17.1123H75.9487L75.076 19.1341H72.9348L77.026 10.0548ZM79.2351 15.3606L77.9668 12.4373L76.6989 15.3606H79.2351Z" fill="currentColor"/>
  <path d="M85.3202 10.1193H87.2567L91.7292 15.67V10.1193H93.8019V19.1343H92.0157L87.3929 13.4034V19.1343H85.3202V10.1193Z" fill="currentColor"/>
  <path d="M101.36 19.2885C100.66 19.2885 100.01 19.1682 99.4103 18.928C98.8102 18.6878 98.2921 18.3592 97.8558 17.9427C97.4194 17.5264 97.0783 17.0348 96.8332 16.4682C96.5877 15.9014 96.465 15.2962 96.465 14.6522V14.6266C96.465 13.9826 96.5877 13.3796 96.8332 12.8172C97.0784 12.2548 97.4194 11.7611 97.8558 11.3362C98.292 10.9112 98.8149 10.5762 99.4238 10.3316C100.033 10.0869 100.706 9.96461 101.442 9.96461C101.887 9.96461 102.294 9.99911 102.662 10.0676C103.031 10.1365 103.364 10.2307 103.665 10.3509C103.965 10.4712 104.242 10.6172 104.497 10.7888C104.751 10.9606 104.987 11.1494 105.206 11.3555L103.869 12.8107C103.496 12.4932 103.117 12.244 102.731 12.0638C102.344 11.8836 101.91 11.7934 101.428 11.7934C101.028 11.7934 100.658 11.8664 100.317 12.0123C99.9763 12.1583 99.683 12.36 99.4375 12.6175C99.1922 12.875 99.0013 13.1735 98.8647 13.5125C98.7286 13.8518 98.6605 14.2145 98.6605 14.6008V14.6264C98.6605 15.0127 98.7286 15.3778 98.8647 15.721C99.0013 16.0646 99.1895 16.3649 99.4308 16.6225C99.6715 16.88 99.9625 17.0841 100.303 17.2343C100.644 17.3847 101.019 17.4596 101.428 17.4596C101.974 17.4596 102.435 17.3652 102.812 17.1763C103.19 16.9877 103.565 16.73 103.937 16.4036L105.274 17.6786C105.028 17.9277 104.773 18.151 104.51 18.3482C104.246 18.5459 103.958 18.7153 103.644 18.8571C103.331 18.9986 102.987 19.1062 102.615 19.179C102.242 19.2519 101.824 19.2885 101.36 19.2885Z" fill="currentColor"/>
  <path d="M107.745 10.1193H114.931V11.8838H109.818V13.7125H114.318V15.4768H109.818V17.37H115V19.1343H107.745V10.1193Z" fill="currentColor"/>
</svg>