<svg xmlns="http://www.w3.org/2000/svg" width="140" height="28" viewBox="0 0 140 28" fill="none">
  <path d="M38.5658 7.26226V3.2087C38.5658 3.18391 38.5777 3.17399 38.6016 3.17895C39.5112 3.37789 40.3935 3.6388 41.2487 3.96168C41.2531 3.96332 41.2569 3.96634 41.2596 3.97033C41.2623 3.97433 41.2637 3.9791 41.2637 3.98399V8.01199C41.2637 8.0143 41.2644 8.01652 41.2656 8.01835C41.2668 8.02019 41.2685 8.02154 41.2705 8.02222L43.8645 8.98808C43.8665 8.98883 43.8686 8.98908 43.8707 8.9888C43.8728 8.98853 43.8748 8.98774 43.8765 8.98651C43.8783 8.98528 43.8797 8.98364 43.8807 8.98173C43.8816 8.97982 43.8822 8.9777 43.8822 8.97553V5.0061C43.8822 4.98999 43.8899 4.9841 43.9053 4.98844L45.6451 5.48624C45.6484 5.48726 45.6518 5.48746 45.6551 5.48684C45.6585 5.48622 45.6616 5.48479 45.6644 5.48267C45.6671 5.48055 45.6693 5.47779 45.6709 5.47462C45.6724 5.47145 45.6732 5.46794 45.6732 5.4644V3.52151C45.6732 3.50447 45.6812 3.49812 45.6972 3.50245C46.319 3.67722 46.9416 3.8368 47.5649 3.9812C47.5685 3.98213 47.5717 3.98424 47.574 3.98718C47.5763 3.99013 47.5776 3.99375 47.5776 3.99747V5.9464C47.5776 5.95048 47.579 5.95445 47.5816 5.95766C47.5841 5.96086 47.5877 5.96312 47.5917 5.96406C48.1533 6.08801 48.7125 6.19228 49.2693 6.27688C49.2902 6.27997 49.3006 6.27068 49.3006 6.24899V4.34422C49.3006 4.32655 49.3092 4.31896 49.3265 4.32144C49.928 4.41657 50.5262 4.48071 51.1211 4.51387C51.1285 4.51423 51.1354 4.51747 51.1404 4.52292C51.1455 4.52838 51.1483 4.53562 51.1483 4.54315V6.45722C51.1483 6.47116 51.1553 6.47891 51.1692 6.48046C52.5698 6.63942 54.3962 6.93876 55.0845 8.4108C55.2511 8.76715 55.3463 9.17277 55.3702 9.62766C55.445 11.0514 55.0051 12.416 54.0403 13.4363C53.9732 13.5074 53.8584 13.5971 53.7841 13.6826C53.7732 13.6953 53.7756 13.7037 53.7913 13.7077C54.7218 13.9513 55.4391 14.4849 55.7628 15.4284C55.8825 15.7773 55.949 16.1655 55.9623 16.5928C56.0049 17.9704 55.5937 19.3007 54.7236 20.3335C53.8122 21.4151 52.5625 21.9417 51.1701 22.0426C51.1556 22.0435 51.1483 22.0514 51.1483 22.0663V23.9688C51.1483 23.9833 51.1412 23.9909 51.127 23.9915C50.5315 24.0098 49.9301 23.9985 49.3228 23.9576C49.308 23.9567 49.3006 23.9486 49.3006 23.9334V22.0208C49.3006 22.0034 49.2923 21.9941 49.2757 21.9929C48.6669 21.9402 48.1095 21.8754 47.6034 21.7986C47.5862 21.7961 47.5776 21.8037 47.5776 21.8214V23.7387C47.5776 23.7616 47.5666 23.7715 47.5445 23.7684C46.9496 23.6832 46.3343 23.5796 45.6986 23.4575C45.6914 23.4561 45.685 23.4521 45.6804 23.4464C45.6757 23.4406 45.6732 23.4333 45.6732 23.4259V21.4839C45.6732 21.4672 45.6654 21.4571 45.6496 21.4537C45.4399 21.4106 45.0067 21.3192 44.3501 21.1795C44.0624 21.1184 43.7716 21.0394 43.4777 20.9424C42.6864 20.6818 41.9526 20.4475 41.2764 20.2396C41.2603 20.2347 41.2523 20.2237 41.2523 20.2066V16.2191C41.2523 16.189 41.2383 16.1693 41.2102 16.16C40.3635 15.888 39.4973 15.678 38.6116 15.5302C38.5886 15.5262 38.5771 15.5363 38.5771 15.5604V19.6135C38.5771 19.6172 38.5763 19.6208 38.5748 19.6241C38.5733 19.6274 38.5711 19.6304 38.5684 19.6327C38.5657 19.6351 38.5625 19.6369 38.5591 19.6379C38.5557 19.6389 38.5521 19.6392 38.5486 19.6386C37.6378 19.5107 36.7344 19.5148 35.8384 19.6512C35.8365 19.6515 35.8345 19.6514 35.8326 19.6509C35.8308 19.6504 35.829 19.6494 35.8275 19.6482C35.826 19.6469 35.8248 19.6453 35.8239 19.6435C35.8231 19.6417 35.8226 19.6397 35.8226 19.6377V15.5126C35.8226 15.5045 35.8186 15.5009 35.8108 15.5019C35.3743 15.5477 34.9635 15.5945 34.5784 15.6422C34.0137 15.7126 33.4926 15.877 33.015 16.1354L33.0099 16.1364L33.005 16.1349L33.0014 16.1312L33 16.1261V11.9349C33 11.9219 33.0057 11.9123 33.0172 11.9061C33.4616 11.6731 33.928 11.5224 34.4165 11.4539C34.8654 11.391 35.3258 11.3499 35.7976 11.3307C35.8043 11.3305 35.8107 11.3276 35.8153 11.3226C35.82 11.3177 35.8226 11.3111 35.8226 11.3042V7.19254L35.8216 7.18787L35.8189 7.18398L35.8149 7.18152L35.8103 7.18092C35.46 7.2054 35.0605 7.23639 34.6119 7.27388C34.0406 7.32222 33.5081 7.46864 33.0145 7.71312L33.0096 7.71417L33.0048 7.71251L33.0013 7.70858L33 7.70336V3.53174C33 3.51655 33.0063 3.50509 33.019 3.49734C33.0701 3.46542 33.1078 3.44373 33.1319 3.43227C33.6785 3.17632 34.2882 3.03827 34.9611 3.01813C35.3537 3.00604 35.6376 3 35.8126 3C35.8268 3.00031 35.8339 3.00775 35.8339 3.02231V7.13165C35.8339 7.149 35.8424 7.15691 35.8593 7.15536C36.7359 7.07262 37.6301 7.11523 38.5418 7.28318C38.5578 7.28597 38.5658 7.279 38.5658 7.26226ZM41.2315 12.0855C41.2454 12.0902 41.2523 12.0851 41.2523 12.0702V8.07614C41.2523 8.06689 41.2495 8.05787 41.2443 8.0503C41.2391 8.04273 41.2318 8.03699 41.2233 8.03384C40.3688 7.72676 39.4992 7.4849 38.6148 7.30828C38.5897 7.30332 38.5771 7.31386 38.5771 7.33989V11.3772C38.5771 11.3914 38.5839 11.3998 38.5975 11.4023C39.4817 11.5628 40.3597 11.7906 41.2315 12.0855ZM47.593 9.2098C47.5912 9.20938 47.5893 9.20941 47.5875 9.20987C47.5856 9.21033 47.5839 9.21121 47.5824 9.21246C47.581 9.2137 47.5798 9.21528 47.5789 9.21707C47.5781 9.21886 47.5776 9.22082 47.5776 9.22281V12.2329C47.5776 12.2397 47.5809 12.2437 47.5876 12.245C48.5228 12.4278 49.4054 12.5473 50.2351 12.6033C50.3977 12.6142 50.5838 12.5976 50.7933 12.5536C51.1826 12.4718 51.471 12.2777 51.6584 11.9712C51.8525 11.6537 51.9001 11.1852 51.8316 10.8036C51.7296 10.2347 51.346 9.88237 50.8228 9.73177C50.5791 9.66143 50.3826 9.61929 50.2333 9.60535C49.3594 9.52478 48.4793 9.39293 47.593 9.2098ZM38.5418 15.5121C38.5447 15.5126 38.5477 15.5124 38.5506 15.5115C38.5535 15.5107 38.5562 15.5092 38.5584 15.5073C38.5607 15.5053 38.5625 15.5028 38.5638 15.5C38.5651 15.4973 38.5658 15.4942 38.5658 15.4912V11.4348C38.5658 11.4299 38.5641 11.4251 38.561 11.4214C38.5579 11.4176 38.5537 11.4151 38.549 11.4144C37.6567 11.2566 36.7619 11.2275 35.8647 11.327C35.8442 11.3295 35.8339 11.3412 35.8339 11.3623V15.4521C35.8339 15.4695 35.8422 15.4771 35.8588 15.4749C36.7382 15.3603 37.6325 15.3726 38.5418 15.5121ZM43.8822 13.0412C43.8822 13.038 43.8812 13.0349 43.8794 13.0324C43.8776 13.0298 43.8751 13.0278 43.8722 13.0268L41.2836 12.1069C41.2814 12.1061 41.2789 12.1059 41.2766 12.1062C41.2742 12.1065 41.272 12.1074 41.27 12.1088C41.2681 12.1103 41.2665 12.1121 41.2654 12.1143C41.2643 12.1165 41.2637 12.1189 41.2637 12.1213V16.1391C41.2637 16.1423 41.2647 16.1455 41.2666 16.148C41.2685 16.1506 41.2711 16.1525 41.2741 16.1535L43.8627 17.0278C43.865 17.0286 43.8674 17.0287 43.8697 17.0283C43.872 17.0279 43.8743 17.027 43.8762 17.0255C43.8781 17.0241 43.8796 17.0222 43.8807 17.02C43.8817 17.0178 43.8822 17.0154 43.8822 17.0129V13.0412ZM47.7227 18.5742C48.6673 18.7251 49.5751 18.8159 50.446 18.8466C50.957 18.8647 51.4598 18.8187 51.8824 18.5161C52.3862 18.155 52.5295 17.5024 52.441 16.8944C52.3679 16.3931 52.1073 16.0559 51.6593 15.883C51.3836 15.7764 51.1228 15.7188 50.8767 15.7101C49.7806 15.6717 48.6897 15.5544 47.6039 15.3582C47.6007 15.3577 47.5974 15.3579 47.5942 15.3588C47.5911 15.3597 47.5881 15.3613 47.5856 15.3634C47.5831 15.3656 47.5811 15.3683 47.5797 15.3713C47.5784 15.3744 47.5776 15.3777 47.5776 15.381V18.5222C47.5776 18.5389 47.5856 18.5491 47.6016 18.5528C47.6267 18.5581 47.6671 18.5652 47.7227 18.5742Z" fill="currentColor"/>
  <path d="M69.6989 11.399C70.2651 11.399 70.7241 11.0229 70.7241 10.559C70.7241 10.0951 70.2651 9.71903 69.6989 9.71903C69.1327 9.71903 68.6737 10.0951 68.6737 10.559C68.6737 11.0229 69.1327 11.399 69.6989 11.399Z" fill="currentColor"/>
  <path d="M72.5093 11.4299V9.74169C72.5093 9.72658 72.5164 9.71903 72.5306 9.71903H73.7949C73.809 9.71903 73.8161 9.72658 73.8161 9.74169V11.4299C73.8161 11.4453 73.8232 11.453 73.8374 11.453H75.1016C75.1158 11.453 75.1229 11.4607 75.1229 11.4762V12.8758C75.1229 12.8787 75.1218 12.8815 75.1199 12.8836C75.118 12.8857 75.1154 12.8869 75.1127 12.8869H73.8369C73.8233 12.8869 73.8165 12.8943 73.8165 12.9091C73.8157 14.0324 73.8158 15.1488 73.817 16.2582C73.817 16.5268 73.8359 16.7198 73.8739 16.8373C74.0044 17.2402 74.3482 17.5306 74.7515 17.5339C75.0495 17.5357 75.3467 17.5365 75.643 17.5362C75.646 17.5362 75.6488 17.5375 75.6509 17.5397C75.6529 17.542 75.6541 17.545 75.6541 17.5482V18.9321C75.6541 18.9475 75.647 18.9552 75.6328 18.9552C75.2325 18.9577 75.0079 18.9589 74.9588 18.9589C74.6639 18.9605 74.4417 18.9426 74.2921 18.9053C73.4485 18.6934 72.769 17.9432 72.5671 17.032C72.5272 16.852 72.5076 16.5845 72.5085 16.2296C72.5093 15.7356 72.5096 14.6257 72.5093 12.8998C72.5093 12.8964 72.5081 12.8931 72.5058 12.8907C72.5036 12.8882 72.5006 12.8869 72.4974 12.8869H71.5638C71.5609 12.8869 71.5582 12.8857 71.5563 12.8836C71.5543 12.8815 71.5531 12.8787 71.5531 12.8758V11.4706C71.5531 11.466 71.5548 11.4615 71.5579 11.4582C71.5609 11.4549 71.565 11.453 71.5693 11.453H72.4881C72.5022 11.453 72.5093 11.4453 72.5093 11.4299Z" fill="currentColor"/>
  <path d="M78.097 9.71903H76.8951C76.8872 9.71903 76.8809 9.72648 76.8809 9.73568V18.9424C76.8809 18.9516 76.8872 18.959 76.8951 18.959H78.097C78.1048 18.959 78.1112 18.9516 78.1112 18.9424V9.73568C78.1112 9.72648 78.1048 9.71903 78.097 9.71903Z" fill="currentColor"/>
  <path d="M66.8354 13.8887L66.8332 13.8931L66.8331 13.8979L66.8351 13.9023L66.8388 13.9056C67.8628 14.4639 68.4048 15.523 68.2349 16.6537C68.0703 17.7512 67.1328 18.6886 66.0017 18.9115C65.8374 18.944 65.6004 18.9604 65.2908 18.9607C63.8033 18.9613 62.4753 18.9612 61.3069 18.9603C61.3035 18.9603 61.3003 18.959 61.2979 18.9567C61.2955 18.9543 61.2941 18.9512 61.2941 18.948V10.1671C61.2941 10.1528 61.3015 10.1455 61.3165 10.1452C61.916 10.1422 62.8244 10.1408 64.0417 10.1411C64.5572 10.1414 64.8743 10.1478 64.9929 10.1603C65.7984 10.2456 66.4181 10.6083 66.8521 11.2481C67.3408 11.9678 67.3907 12.8059 67.0201 13.5961C66.9699 13.7031 66.9084 13.8006 66.8354 13.8887ZM62.7573 11.5849V13.5118C62.7573 13.5209 62.7611 13.5296 62.7678 13.536C62.7745 13.5424 62.7836 13.546 62.793 13.546H64.7374C65.0141 13.546 65.2796 13.4419 65.4753 13.2566C65.671 13.0713 65.7809 12.82 65.7809 12.5579V12.5388C65.7809 12.2768 65.671 12.0254 65.4753 11.8401C65.2796 11.6548 65.0141 11.5507 64.7374 11.5507H62.793C62.7836 11.5507 62.7745 11.5543 62.7678 11.5608C62.7611 11.5672 62.7573 11.5759 62.7573 11.5849ZM62.7545 14.9994L62.7593 17.5242C62.7593 17.5316 62.7623 17.5386 62.7678 17.5439C62.7732 17.5491 62.7806 17.552 62.7883 17.552L65.4383 17.5479C65.8003 17.5473 66.1471 17.4108 66.4026 17.1684C66.6581 16.926 66.8013 16.5976 66.8007 16.2554C66.8004 16.086 66.7648 15.9183 66.6959 15.7618C66.627 15.6054 66.5262 15.4633 66.3993 15.3437C66.2723 15.2241 66.1217 15.1294 65.956 15.0648C65.7903 15.0002 65.6128 14.9672 65.4336 14.9675L62.7835 14.9716C62.7797 14.9716 62.7759 14.9723 62.7724 14.9737C62.7689 14.9751 62.7657 14.9771 62.763 14.9797C62.7603 14.9823 62.7582 14.9854 62.7567 14.9887C62.7552 14.9921 62.7545 14.9957 62.7545 14.9994Z" fill="currentColor"/>
  <path d="M95.1973 15.7481C95.2459 16.0095 95.3315 16.2306 95.4541 16.4112C95.7607 16.8634 96.1506 17.1806 96.6235 17.3627C97.3666 17.6488 98.1749 17.5369 98.7873 17.0168C99.0275 16.8129 99.2295 16.5783 99.3933 16.313C99.3979 16.3056 99.4049 16.3001 99.4132 16.2976C99.4214 16.2951 99.4303 16.2957 99.4381 16.2993L100.682 16.8851C100.693 16.8901 100.696 16.8981 100.69 16.9092C100.517 17.249 100.297 17.5542 100.03 17.8248C99.3429 18.5227 98.5118 18.8992 97.5366 18.9543C97.0443 18.982 96.5781 18.9107 96.1381 18.7405C95.4348 18.4683 94.858 18.0198 94.4075 17.3948C93.8791 16.6617 93.6462 15.8563 93.7087 14.9787C93.7724 14.0844 94.0893 13.3096 94.6592 12.6541C95.5021 11.6842 96.6932 11.2613 97.9398 11.4402C98.2419 11.4833 98.5367 11.5678 98.8243 11.6936C100.034 12.2218 100.88 13.3461 101.055 14.6837C101.072 14.813 101.08 14.9798 101.08 15.184C101.08 15.353 101.076 15.5195 101.066 15.6834C101.065 15.6943 101.06 15.7045 101.053 15.7119C101.045 15.7194 101.034 15.7235 101.024 15.7235H95.2171C95.2011 15.7235 95.1945 15.7317 95.1973 15.7481ZM97.3962 14.2839C98.5678 14.2836 99.2543 14.2831 99.4556 14.2825C99.4827 14.2825 99.4909 14.2698 99.4801 14.2443C99.106 13.372 98.3361 12.8302 97.3957 12.8307C96.4554 12.8307 95.6859 13.373 95.3123 14.2452C95.3015 14.2707 95.3097 14.2835 95.3368 14.2835C95.5381 14.2841 96.2246 14.2843 97.3962 14.2839Z" fill="currentColor"/>
  <path d="M90.3531 16.2572C90.3646 16.2842 90.3753 16.2839 90.3853 16.2562L92.1515 11.4194C92.1561 11.4066 92.1652 11.4001 92.1785 11.4001H93.6737C93.677 11.4001 93.6803 11.401 93.6833 11.4026C93.6862 11.4042 93.6888 11.4065 93.6907 11.4093C93.6925 11.4121 93.6937 11.4153 93.6941 11.4187C93.6945 11.4221 93.694 11.4255 93.6928 11.4286L90.1917 21.0186C90.1861 21.034 90.1753 21.0424 90.1595 21.0437C90.045 21.0546 89.9596 21.06 89.9033 21.0596C89.4804 21.0587 89.0588 21.0588 88.6386 21.0601L88.6339 21.059L88.6303 21.0557L88.6286 21.051L88.6293 21.0461L89.6234 18.3225C89.629 18.3077 89.6287 18.2928 89.6225 18.278L86.7236 11.4175C86.7228 11.4156 86.7225 11.4135 86.7227 11.4114C86.7228 11.4093 86.7235 11.4073 86.7245 11.4056C86.7256 11.4039 86.727 11.4025 86.7288 11.4015C86.7305 11.4006 86.7324 11.4001 86.7343 11.4001H88.2743C88.292 11.4001 88.3045 11.4085 88.3116 11.4252L90.3531 16.2572Z" fill="currentColor"/>
  <path d="M103.323 11.9045C103.323 11.907 103.324 11.9095 103.325 11.9117C103.326 11.9139 103.328 11.9157 103.33 11.9169C103.332 11.9181 103.335 11.9187 103.337 11.9186C103.34 11.9185 103.342 11.9177 103.344 11.9163C104.161 11.391 105.041 11.2666 105.984 11.5432C105.999 11.5476 106.004 11.557 105.997 11.5715L105.458 12.8481C105.452 12.8622 105.442 12.8681 105.427 12.8656C104.904 12.7811 104.459 12.8681 104.09 13.1266C103.749 13.3653 103.516 13.6961 103.389 14.1189C103.343 14.2728 103.321 14.5859 103.323 15.0582C103.323 15.3732 103.323 16.6658 103.323 18.936C103.323 18.9521 103.315 18.9601 103.299 18.9601H101.91C101.907 18.9601 101.904 18.959 101.902 18.9569C101.9 18.9549 101.899 18.9521 101.899 18.9492V11.4287C101.899 11.4133 101.907 11.4055 101.922 11.4055H103.3C103.315 11.4055 103.323 11.4133 103.323 11.4287V11.9045Z" fill="currentColor"/>
  <path d="M84.9082 12.6173V12.413C84.9082 12.3972 84.9159 12.3894 84.9312 12.3894H86.2913C86.3067 12.3894 86.3144 12.3972 86.3144 12.413V19.1874C86.3144 19.2032 86.3067 19.211 86.2913 19.211H84.9299C84.9142 19.211 84.9063 19.2029 84.9063 19.1865V18.575C84.9064 18.5726 84.9057 18.5702 84.9045 18.5681C84.9032 18.5661 84.9014 18.5645 84.8993 18.5634C84.8971 18.5624 84.8946 18.562 84.8922 18.5623C84.8898 18.5626 84.8875 18.5635 84.8856 18.5651C84.3818 18.9743 83.8149 19.2303 83.185 19.3331C81.4332 19.6192 79.7626 18.584 79.1582 16.8834C78.8731 16.081 78.8583 15.268 79.1139 14.4441C79.3228 13.7717 79.6914 13.199 80.2198 12.7261C80.9764 12.0484 81.9647 11.7467 82.9705 11.8356C83.6837 11.8986 84.3216 12.1632 84.8842 12.6291C84.9002 12.6424 84.9082 12.6384 84.9082 12.6173ZM84.9054 15.6047C84.9054 14.9838 84.6648 14.3884 84.2365 13.9494C83.8082 13.5104 83.2273 13.2638 82.6217 13.2638C82.016 13.2638 81.4351 13.5104 81.0068 13.9494C80.5785 14.3884 80.3379 14.9838 80.3379 15.6047C80.3379 16.2255 80.5785 16.8209 81.0068 17.2599C81.4351 17.6989 82.016 17.9455 82.6217 17.9455C83.2273 17.9455 83.8082 17.6989 84.2365 17.2599C84.6648 16.8209 84.9054 16.2255 84.9054 15.6047Z" fill="currentColor"/>
  <path d="M70.3046 11.8204H69.1077C69.0985 11.8204 69.091 11.8292 69.091 11.8401V18.9407C69.091 18.9516 69.0985 18.9604 69.1077 18.9604H70.3046C70.3138 18.9604 70.3213 18.9516 70.3213 18.9407V11.8401C70.3213 11.8292 70.3138 11.8204 70.3046 11.8204Z" fill="currentColor"/>
</svg>