<svg xmlns="http://www.w3.org/2000/svg" width="140" height="28" viewBox="0 0 140 28" fill="none">
  <path d="M39.9767 6C44.3826 6 47.9534 9.58125 47.9534 14C47.9534 18.4187 44.3826 22 39.9767 22C35.5708 22 32 18.4187 32 14C32 9.58125 35.5708 6 39.9767 6Z" fill="#0052FF"/>
  <path d="M39.9782 16.8125C38.4296 16.8125 37.1739 15.5547 37.1739 14C37.1739 12.4453 38.4296 11.1875 39.9782 11.1875C41.3664 11.1875 42.5193 12.2031 42.7405 13.5312H45.5651C45.3267 10.6438 42.9165 8.375 39.9767 8.375C36.8795 8.375 34.3681 10.8938 34.3681 14C34.3681 17.1062 36.8795 19.625 39.9767 19.625C42.9165 19.625 45.3267 17.3562 45.5651 14.4688H42.7389C42.5161 15.7969 41.3664 16.8125 39.9782 16.8125Z" fill="currentColor"/>
  <path d="M63.2587 11.625C61.1648 11.625 59.5445 13.2 59.5445 15.325C59.5445 17.45 61.1399 19.025 63.2587 19.025C65.3775 19.025 66.9977 17.425 66.9977 15.325C66.9977 13.225 65.4024 11.625 63.2587 11.625ZM63.2836 17.475C62.0871 17.475 61.2396 16.55 61.2396 15.3C61.2396 14.05 62.0871 13.125 63.2836 13.125C64.4801 13.125 65.3525 14.05 65.3525 15.3C65.3525 16.55 64.4552 17.475 63.2836 17.475ZM67.4464 13.225H68.4684V18.875H70.1386V11.75H67.4464V13.225ZM55.3817 13.15C56.2541 13.15 56.9521 13.675 57.2014 14.475H58.9463C58.6222 12.775 57.2263 11.6 55.3817 11.6C53.3127 11.625 51.6925 13.2 51.6925 15.325C51.6925 17.45 53.2878 19.025 55.4066 19.025C57.2014 19.025 58.6222 17.875 58.9463 16.15H57.2014C56.9521 16.95 56.2541 17.5 55.4066 17.5C54.2101 17.5 53.3626 16.575 53.3626 15.325C53.3626 14.075 54.1852 13.15 55.3817 13.15ZM98.8796 14.625L97.6581 14.45C97.0848 14.375 96.6611 14.175 96.6611 13.725C96.6611 13.225 97.2095 12.975 97.9323 12.975C98.73 12.975 99.2535 13.325 99.3532 13.875H100.949C100.774 12.45 99.6772 11.6 97.9822 11.6C96.2373 11.6 95.0657 12.5 95.0657 13.775C95.0657 14.975 95.8135 15.7 97.359 15.9L98.5805 16.075C99.1787 16.15 99.5028 16.4 99.5028 16.825C99.5028 17.4 98.9294 17.625 98.1318 17.625C97.1596 17.625 96.6112 17.225 96.5115 16.625H94.8912C95.0408 18.025 96.1376 19 98.1068 19C99.9016 19 101.123 18.175 101.123 16.75C101.123 15.5 100.251 14.85 98.8796 14.625ZM69.316 8.825C68.7177 8.825 68.2441 9.275 68.2441 9.875C68.2441 10.475 68.6928 10.925 69.316 10.925C69.9142 10.925 70.3878 10.475 70.3878 9.875C70.3878 9.275 69.9142 8.825 69.316 8.825ZM93.595 14.2C93.595 12.65 92.6478 11.625 90.6785 11.625C88.809 11.625 87.7621 12.575 87.5377 14.025H89.1829C89.2577 13.45 89.7064 13 90.6536 13C91.5011 13 91.9 13.375 91.9 13.825C91.9 14.425 91.1522 14.575 90.2049 14.675C88.9336 14.825 87.3632 15.25 87.3632 16.9C87.3632 18.175 88.3105 19 89.831 19C91.0275 19 91.7504 18.5 92.1243 17.725C92.1742 18.425 92.6976 18.875 93.4455 18.875H94.4176V17.4H93.595V14.2ZM91.9498 15.975C91.9498 16.925 91.1272 17.625 90.1052 17.625C89.482 17.625 88.9586 17.375 88.9586 16.8C88.9586 16.1 89.8061 15.9 90.5788 15.825C91.3266 15.75 91.7255 15.6 91.9498 15.275V15.975ZM83.1755 11.625C82.2532 11.625 81.4804 12 80.932 12.65V8.75H79.2868V18.875H80.9071V17.95C81.4555 18.625 82.2532 19.025 83.1755 19.025C85.1696 19.025 86.6653 17.45 86.6653 15.325C86.6653 13.2 85.1447 11.625 83.1755 11.625ZM82.9262 17.475C81.7297 17.475 80.8822 16.55 80.8822 15.3C80.8822 14.05 81.7546 13.125 82.9511 13.125C84.1476 13.125 84.9951 14.05 84.9951 15.3C84.9951 16.575 84.1227 17.475 82.9262 17.475ZM75.3234 11.625C74.2515 11.625 73.5536 12.075 73.1298 12.675V11.75H71.4846V18.875H73.1298V15C73.1298 13.9 73.8278 13.15 74.8498 13.15C75.797 13.15 76.3953 13.825 76.3953 14.8V18.875H78.0405V14.675C78.0405 12.875 77.1182 11.625 75.3234 11.625ZM109 15.1C109 13.05 107.504 11.625 105.51 11.625C103.391 11.625 101.821 13.225 101.821 15.325C101.821 17.55 103.491 19.025 105.535 19.025C107.255 19.025 108.601 18 108.95 16.55H107.23C106.981 17.175 106.383 17.55 105.56 17.55C104.488 17.55 103.691 16.9 103.516 15.725H109V15.1ZM103.616 14.55C103.89 13.55 104.613 13.075 105.485 13.075C106.433 13.075 107.13 13.6 107.305 14.55H103.616Z" fill="currentColor"/>
</svg>