<svg xmlns="http://www.w3.org/2000/svg" width="140" height="28" viewBox="0 0 140 28" fill="none">
  <path opacity="0.5" d="M30.6513 4H41.3434C43.9117 4 45.9947 6.08195 45.9947 8.65134V19.3423C45.9947 21.9106 43.9128 23.9937 41.3434 23.9937H30.6513C28.083 23.9937 26 21.9117 26 19.3423V8.65134C26 6.08195 28.083 4 30.6513 4Z" fill="#21C161"/>
  <mask id="mask0_20482_5" style="mask-type:luminance" maskUnits="userSpaceOnUse" x="30" y="9" width="12" height="11">
    <path d="M41.5673 9.7793H30.4375V19.2078H41.5673V9.7793Z" fill="currentColor"/>
  </mask>
  <g mask="url(#mask0_20482_5)">
    <path d="M40 13.9874C40 14.3585 40.295 14.6524 40.6651 14.6524C41.0362 14.6524 41.3301 14.3574 41.3301 13.9874C41.3301 13.6162 41.0352 13.3223 40.6651 13.3223C40.294 13.3223 40 13.6162 40 13.9874Z" fill="currentColor"/>
    <path d="M41.5673 11.6899C41.5673 10.6347 40.7119 9.7793 39.6566 9.7793H32.3386C31.2929 9.7793 30.4375 10.6347 30.4375 11.6899V16.299C30.4375 17.2686 31.1597 18.0669 32.0912 18.1906V19.2173L33.8591 18.2001H39.6566C40.7119 18.2001 41.5673 17.3447 41.5673 16.2895V15.3009H40.7309C39.9992 15.3009 39.4008 14.7024 39.4008 13.9707C39.4008 13.239 39.9992 12.6405 40.7309 12.6405H41.5673V11.6899Z" fill="currentColor"/>
  </g>
  <path d="M106.776 9.96438L109.388 14.4232L112.001 9.96438H113.932L110.411 15.4172L113.932 20.87H112.001L109.388 16.6384L106.776 20.87H104.844L108.309 15.4172L104.844 9.96438H106.776Z" fill="currentColor"/>
  <path d="M98.4725 21.0972C97.4879 21.0972 96.6241 20.8629 95.881 20.3943C95.1426 19.9257 94.5651 19.2701 94.1486 18.4276C93.7368 17.585 93.5309 16.6005 93.5309 15.474C93.5309 14.338 93.7368 13.3463 94.1486 12.499C94.5651 11.6518 95.1426 10.9938 95.881 10.5252C96.6241 10.0566 97.4879 9.82234 98.4725 9.82234C99.457 9.82234 100.318 10.0566 101.057 10.5252C101.8 10.9938 102.377 11.6518 102.789 12.499C103.206 13.3463 103.414 14.338 103.414 15.474C103.414 16.6005 103.206 17.585 102.789 18.4276C102.377 19.2701 101.8 19.9257 101.057 20.3943C100.318 20.8629 99.457 21.0972 98.4725 21.0972ZM98.4725 19.592C99.2203 19.592 99.8357 19.4003 100.318 19.0169C100.801 18.6335 101.159 18.1294 101.391 17.5046C101.623 16.8798 101.738 16.2029 101.738 15.474C101.738 14.745 101.623 14.0658 101.391 13.4363C101.159 12.8067 100.801 12.2979 100.318 11.9097C99.8357 11.5216 99.2203 11.3275 98.4725 11.3275C97.7246 11.3275 97.1093 11.5216 96.6265 11.9097C96.1437 12.2979 95.7863 12.8067 95.5544 13.4363C95.3224 14.0658 95.2065 14.745 95.2065 15.474C95.2065 16.2029 95.3224 16.8798 95.5544 17.5046C95.7863 18.1294 96.1437 18.6335 96.6265 19.0169C97.1093 19.4003 97.7246 19.592 98.4725 19.592Z" fill="currentColor"/>
  <path d="M81.2656 20.869V6.32812H86.3492C87.3621 6.32812 88.1976 6.50326 88.8555 6.85353C89.5134 7.19906 90.0033 7.6653 90.3252 8.25223C90.6471 8.83443 90.808 9.48053 90.808 10.1905C90.808 10.8153 90.6968 11.3313 90.4743 11.7383C90.2566 12.1454 89.9678 12.4673 89.6081 12.7039C89.2531 12.9406 88.8673 13.1157 88.4508 13.2293V13.3713C88.8957 13.3997 89.343 13.5559 89.7927 13.8399C90.2424 14.1239 90.6187 14.531 90.9216 15.0611C91.2245 15.5913 91.376 16.2398 91.376 17.0066C91.376 17.7355 91.2103 18.3911 90.879 18.9733C90.5477 19.5555 90.0246 20.017 89.3099 20.3578C88.5952 20.6986 87.6651 20.869 86.5196 20.869H81.2656ZM83.0264 19.307H86.5196C87.6698 19.307 88.4863 19.0845 88.9691 18.6396C89.4566 18.1899 89.7004 17.6456 89.7004 17.0066C89.7004 16.5143 89.575 16.0599 89.3241 15.6434C89.0732 15.2221 88.7159 14.886 88.252 14.6351C87.7881 14.3795 87.2391 14.2517 86.6048 14.2517H83.0264V19.307ZM83.0264 12.7181H86.2924C86.8225 12.7181 87.3006 12.614 87.7266 12.4057C88.1573 12.1975 88.4981 11.904 88.749 11.5253C89.0046 11.1467 89.1324 10.7017 89.1324 10.1905C89.1324 9.55153 88.9099 9.00957 88.465 8.56463C88.0201 8.11496 87.3148 7.89013 86.3492 7.89013H83.0264V12.7181Z" fill="currentColor"/>
  <path d="M73.9774 21.0972C72.9266 21.0972 72.0202 20.8652 71.2581 20.4014C70.5008 19.9328 69.9162 19.2796 69.5044 18.4418C69.0973 17.5992 68.8938 16.6194 68.8938 15.5024C68.8938 14.3853 69.0973 13.4008 69.5044 12.5487C69.9162 11.692 70.4889 11.0246 71.2226 10.5465C71.961 10.0637 72.8225 9.82234 73.807 9.82234C74.375 9.82234 74.9359 9.91701 75.4897 10.1063C76.0435 10.2957 76.5476 10.6033 77.002 11.0293C77.4564 11.4506 77.8185 12.0091 78.0883 12.705C78.3581 13.4008 78.493 14.2575 78.493 15.2752V15.9852H70.0866V14.5368H76.789C76.789 13.9214 76.6659 13.3724 76.4198 12.8896C76.1784 12.4067 75.8329 12.0257 75.3832 11.7464C74.9383 11.4672 74.4129 11.3275 73.807 11.3275C73.1396 11.3275 72.5621 11.4932 72.0746 11.8245C71.5918 12.1511 71.2202 12.5771 70.9599 13.1026C70.6996 13.628 70.5694 14.1912 70.5694 14.7924V15.758C70.5694 16.5816 70.7114 17.2797 70.9954 17.8525C71.2841 18.4205 71.6841 18.8536 72.1953 19.1518C72.7065 19.4452 73.3005 19.592 73.9774 19.592C74.4176 19.592 74.8152 19.5304 75.1702 19.4074C75.5299 19.2796 75.84 19.0902 76.1003 18.8394C76.3606 18.5838 76.5618 18.2666 76.7038 17.888L78.3226 18.3424C78.1522 18.8914 77.8658 19.3742 77.4635 19.7908C77.0612 20.2026 76.5642 20.5244 75.9725 20.7564C75.3808 20.9836 74.7158 21.0972 73.9774 21.0972Z" fill="currentColor"/>
  <path d="M59.745 20.869H55.2578V6.32812H59.9438C61.3544 6.32812 62.5614 6.61923 63.5648 7.20143C64.5683 7.7789 65.3375 8.6096 65.8723 9.69353C66.4072 10.7727 66.6746 12.0649 66.6746 13.5701C66.6746 15.0848 66.4048 16.3889 65.8652 17.4823C65.3256 18.5709 64.5399 19.4087 63.508 19.9957C62.4762 20.5779 61.2218 20.869 59.745 20.869ZM57.0186 19.307H59.6314C60.8337 19.307 61.8301 19.075 62.6205 18.6112C63.411 18.1473 64.0003 17.487 64.3884 16.6303C64.7766 15.7735 64.9706 14.7535 64.9706 13.5701C64.9706 12.3963 64.7789 11.3857 64.3955 10.5384C64.0121 9.68643 63.4394 9.03323 62.6773 8.57883C61.9153 8.1197 60.9662 7.89013 59.8302 7.89013H57.0186V19.307Z" fill="currentColor"/>
</svg>