<svg xmlns="http://www.w3.org/2000/svg" width="140" height="28" viewBox="0 0 140 28" fill="none">
  <path d="M52.7312 15.671V23.1266C52.7312 23.1307 52.7296 23.1346 52.7267 23.1375C52.7238 23.1404 52.7198 23.142 52.7157 23.142H50.8191C50.8041 23.142 50.7965 23.1345 50.7965 23.1195V13.7083C50.7965 13.6964 50.8026 13.6905 50.8148 13.6905C51.83 13.6892 53.3002 13.6891 55.2255 13.6901C55.5733 13.6904 55.837 13.7025 56.0167 13.7264C57.7864 13.963 59.2169 15.1662 59.813 16.8335C60.215 17.9581 60.1543 19.2308 59.6961 20.2949C58.9708 21.9795 57.3385 23.1298 55.4685 23.1408C55.1773 23.1427 54.9146 23.1432 54.6805 23.1424C54.6756 23.1424 54.6708 23.1415 54.6664 23.1397C54.662 23.1378 54.658 23.1351 54.6548 23.1318L52.7574 21.2002C52.755 21.1978 52.7534 21.1948 52.7528 21.1915C52.7522 21.1882 52.7526 21.1848 52.7539 21.1817C52.7552 21.1786 52.7574 21.176 52.7602 21.1742C52.763 21.1723 52.7663 21.1714 52.7696 21.1714C53.9257 21.1748 54.8079 21.1745 55.4162 21.1706C56.1727 21.1661 56.8151 20.8986 57.3433 20.368C58.4048 19.3018 58.4067 17.5611 57.3659 16.4824C56.9494 16.0505 56.4368 15.7868 55.828 15.6912C55.6821 15.6683 55.4188 15.6573 55.038 15.6584C54.8259 15.6586 54.061 15.6586 52.7435 15.6584C52.7402 15.6584 52.7371 15.6597 52.7348 15.6621C52.7325 15.6645 52.7312 15.6677 52.7312 15.671Z" fill="currentColor"/>
  <path d="M68.0355 18.4125C68.0355 18.7369 68.0351 19.0615 68.0343 19.3862C68.0343 19.3892 68.0331 19.3921 68.0309 19.3943C68.0288 19.3964 68.0259 19.3977 68.0228 19.3977H62.6279C62.6252 19.3977 62.6225 19.3987 62.6206 19.4005C62.6187 19.4024 62.6176 19.4049 62.6176 19.4075V21.1522C62.6176 21.1567 62.6194 21.1611 62.6226 21.1642C62.6258 21.1674 62.6301 21.1692 62.6346 21.1692H68.0145C68.0266 21.1692 68.037 21.1736 68.0454 21.1823L69.9519 23.1237L69.9543 23.1283L69.9538 23.1334L69.9505 23.1375L69.9456 23.1391H60.7016C60.6897 23.1391 60.6837 23.133 60.6837 23.1209C60.6837 21.7645 60.6837 20.195 60.6837 18.4125C60.6837 16.6298 60.6837 15.0602 60.6837 13.7037C60.6837 13.6916 60.6897 13.6856 60.7016 13.6856H69.9456L69.9505 13.6872L69.9538 13.6912L69.9543 13.6964L69.9519 13.701L68.0454 15.6424C68.037 15.6511 68.0266 15.6554 68.0145 15.6554H62.6346C62.6301 15.6554 62.6258 15.6572 62.6226 15.6604C62.6194 15.6636 62.6176 15.6679 62.6176 15.6724V17.4171C62.6176 17.4197 62.6187 17.4223 62.6206 17.4241C62.6225 17.426 62.6252 17.427 62.6279 17.427H68.0228C68.0259 17.427 68.0288 17.4282 68.0309 17.4304C68.0331 17.4325 68.0343 17.4354 68.0343 17.4385C68.0351 17.7631 68.0355 18.0878 68.0355 18.4125Z" fill="currentColor"/>
  <path d="M76.3827 19.4812C76.3827 19.4764 76.3807 19.4718 76.3773 19.4684C76.3739 19.465 76.3693 19.463 76.3644 19.463H72.5272C72.5182 19.463 72.5138 19.4586 72.5138 19.4496V17.5086C72.5138 17.4983 72.5188 17.4932 72.5288 17.4932H78.2943C78.3083 17.4932 78.3153 17.5002 78.3153 17.5141V23.1847C78.3153 23.1982 78.3086 23.2049 78.2951 23.2049C77.9537 23.2057 76.5935 23.2062 74.2146 23.2064C73.7492 23.2067 73.4851 23.2046 73.4222 23.2001C72.6905 23.1483 72.0405 22.9617 71.4721 22.6404C70.5681 22.1293 69.8988 21.4054 69.4641 20.4687C68.8335 19.1103 68.9029 17.4849 69.6159 16.1921C70.0939 15.326 70.7716 14.672 71.6489 14.2301C72.2722 13.916 72.9495 13.7578 73.6807 13.7557C74.0263 13.7547 75.5598 13.7543 78.2813 13.7545C78.304 13.7545 78.3074 13.7626 78.2916 13.7786L76.3981 15.7078C76.3881 15.7181 76.3759 15.7232 76.3617 15.7232C75.6543 15.724 74.7738 15.7244 73.7203 15.7244C73.1062 15.7244 72.5617 15.9002 72.0869 16.2517C71.3702 16.7826 70.9687 17.6066 70.9703 18.4965C70.9716 19.2233 71.2307 19.8609 71.7476 20.4095C72.1598 20.8469 72.6761 21.1128 73.2966 21.2074C73.4372 21.229 73.7002 21.2391 74.0857 21.2378C74.1476 21.2375 74.9069 21.2367 76.3636 21.2354C76.3763 21.2351 76.3827 21.2287 76.3827 21.2161V19.4812Z" fill="currentColor"/>
  <path d="M83.5776 13.7602C83.5945 13.7602 83.6166 13.7636 83.6438 13.7705C84.7711 14.0505 85.8817 14.5672 86.7656 15.337C87.028 15.5656 87.2659 15.8287 87.4794 16.1262C87.9831 16.8283 88.2345 17.6217 88.2337 18.5065C88.2313 21.484 88.2301 23.0546 88.2301 23.2184C88.2301 23.2222 88.2286 23.2258 88.2258 23.2285C88.2231 23.2311 88.2194 23.2327 88.2155 23.2327H86.3094C86.2972 23.2327 86.2911 23.2266 86.2911 23.2145C86.2919 20.1058 86.2922 18.5272 86.2919 18.4784C86.2887 17.9344 86.1035 17.4642 85.7362 17.0679C85.1738 16.4612 84.3719 16.0512 83.5931 15.8063C83.5891 15.805 83.5838 15.8043 83.5772 15.8043C83.5706 15.8043 83.5653 15.805 83.5614 15.8063C82.7825 16.0508 81.9807 16.4608 81.4178 17.0671C81.0505 17.4634 80.8652 17.9336 80.8617 18.4777C80.8615 18.5264 80.8613 20.105 80.8613 23.2137C80.8613 23.2258 80.8552 23.2319 80.8431 23.2319L78.937 23.2311C78.9331 23.2311 78.9294 23.2296 78.9266 23.2269C78.9239 23.2242 78.9223 23.2206 78.9223 23.2168C78.9223 23.0531 78.9215 21.4824 78.9199 18.5049C78.9194 17.6201 79.1711 16.8268 79.675 16.125C79.8885 15.8275 80.1266 15.5645 80.3893 15.3362C81.2731 14.5664 82.3842 14.0501 83.5114 13.7705C83.5386 13.7636 83.5607 13.7602 83.5776 13.7602Z" fill="currentColor"/>
  <path d="M93.418 20.8643L90.7691 17.1509C90.7676 17.1488 90.7654 17.1472 90.7628 17.1463C90.7603 17.1455 90.7576 17.1454 90.7551 17.1462C90.7525 17.147 90.7503 17.1486 90.7487 17.1507C90.7471 17.1528 90.7462 17.1554 90.7461 17.158L90.7465 23.2236L90.7456 23.2285L90.7428 23.2326L90.7387 23.2353L90.7338 23.2363H88.8198L88.8149 23.2353L88.8108 23.2326L88.8081 23.2285L88.8071 23.2236V13.7709C88.8071 13.7676 88.8084 13.7644 88.8108 13.762C88.8132 13.7596 88.8164 13.7583 88.8198 13.7583H90.7386C90.7407 13.7582 90.7427 13.7586 90.7446 13.7595C90.7465 13.7604 90.7481 13.7618 90.7493 13.7634L93.4478 17.5463C93.4489 17.548 93.4505 17.5493 93.4523 17.5502C93.4541 17.5511 93.456 17.5516 93.4581 17.5516C93.4601 17.5516 93.4621 17.5511 93.4639 17.5502C93.4656 17.5493 93.4672 17.548 93.4684 17.5463L96.1672 13.7634C96.1684 13.7618 96.1701 13.7604 96.1719 13.7595C96.1738 13.7586 96.1758 13.7582 96.1779 13.7583H98.1031L98.1079 13.7592L98.112 13.762L98.1148 13.7661L98.1157 13.7709V21.2561C98.1157 21.2594 98.1144 21.2625 98.1122 21.2648L96.1981 23.2149C96.1964 23.2168 96.1941 23.218 96.1917 23.2185C96.1892 23.219 96.1866 23.2188 96.1843 23.2179C96.182 23.217 96.18 23.2154 96.1785 23.2133C96.1771 23.2112 96.1764 23.2088 96.1763 23.2063V17.1185C96.1764 17.1159 96.1755 17.1132 96.174 17.111C96.1724 17.1089 96.1702 17.1072 96.1676 17.1064C96.165 17.1056 96.1623 17.1056 96.1597 17.1064C96.1571 17.1072 96.1549 17.1089 96.1533 17.111L93.4386 20.8643C93.4375 20.8659 93.4359 20.8673 93.4341 20.8682C93.4323 20.8691 93.4303 20.8696 93.4283 20.8696C93.4263 20.8696 93.4243 20.8691 93.4225 20.8682C93.4207 20.8673 93.4192 20.8659 93.418 20.8643Z" fill="currentColor"/>
  <path d="M106.082 18.4968C106.082 18.823 106.081 19.1469 106.081 19.4685C106.081 19.4787 106.076 19.4839 106.065 19.4839H100.668C100.656 19.4839 100.649 19.4899 100.649 19.5021V21.242C100.649 21.2547 100.656 21.261 100.668 21.261H106.056C106.063 21.261 106.071 21.2624 106.077 21.2653C106.084 21.2681 106.09 21.2723 106.095 21.2776L108 23.2166C108.012 23.2282 108.009 23.2341 107.992 23.2344C102.963 23.2386 99.8764 23.2374 98.7314 23.2308C98.7179 23.2306 98.7112 23.2239 98.7112 23.2107C98.7104 22.7262 98.7099 21.1549 98.7096 18.4968C98.7099 15.8387 98.7104 14.2674 98.7112 13.7829C98.7112 13.7697 98.7179 13.763 98.7314 13.7627C99.8764 13.7559 102.963 13.7546 107.992 13.7588C108.009 13.759 108.012 13.765 108 13.7765L106.095 15.7156C106.09 15.7209 106.084 15.725 106.077 15.7279C106.071 15.7307 106.063 15.7322 106.056 15.7322H100.668C100.656 15.7322 100.649 15.7385 100.649 15.7511V17.4911C100.649 17.5032 100.656 17.5093 100.668 17.5093H106.065C106.076 17.5093 106.081 17.5144 106.081 17.5247C106.081 17.8462 106.082 18.1702 106.082 18.4968Z" fill="currentColor"/>
  <path d="M82.6086 18.4913C82.6077 19.0352 83.0399 19.4768 83.574 19.4778C84.1082 19.4787 84.5419 19.0386 84.5429 18.4947C84.5438 17.9509 84.1116 17.5092 83.5775 17.5083C83.0433 17.5074 82.6096 17.9475 82.6086 18.4913Z" fill="currentColor"/>
  <path d="M35.032 22.368C35.0121 22.3693 34.9933 22.3748 34.9753 22.3845L34.9428 22.3956C34.9261 22.3946 34.9131 22.3988 34.9035 22.4082C34.9001 22.4096 34.8967 22.411 34.8932 22.4126C34.8631 22.4139 34.8397 22.423 34.8231 22.4398L34.7466 22.4612C34.7294 22.4633 34.7158 22.4699 34.7058 22.4809C34.6767 22.483 34.6511 22.4905 34.6289 22.5034C34.6069 22.5013 34.5928 22.5071 34.5864 22.5208L34.5068 22.5433L34.4778 22.5552L33.9253 22.7448C33.9058 22.7464 33.8883 22.7527 33.873 22.7637C33.8696 22.7651 33.8661 22.7665 33.8627 22.7681C33.8328 22.7694 33.8094 22.7785 33.7925 22.7953L33.7172 22.8155C33.6979 22.8171 33.6837 22.8239 33.6744 22.836C33.6461 22.8384 33.6204 22.846 33.5971 22.8589C33.5818 22.8589 33.5685 22.8642 33.5571 22.8747L33.1718 23.0079C33.1705 23.0029 33.1635 23.0025 33.1508 23.0067C33.1426 23.0093 33.1387 23.014 33.1389 23.0209L33.083 23.0367C33.0674 23.038 33.0529 23.0431 33.0394 23.0521L32.915 23.0924L32.8817 23.1062C32.8671 23.1065 32.8541 23.1108 32.8424 23.1192C32.839 23.1206 32.8356 23.122 32.8321 23.1236C32.8023 23.1249 32.7789 23.134 32.762 23.1508L32.6863 23.171C32.6686 23.1736 32.6546 23.1801 32.6443 23.1903C32.6144 23.194 32.5881 23.2021 32.5654 23.2144C32.5495 23.215 32.5368 23.2208 32.5273 23.2318L32.4457 23.2551C32.4343 23.258 32.4244 23.263 32.416 23.2701L32.3379 23.2934C32.3175 23.2934 32.3038 23.2988 32.2966 23.3096L32.2582 23.3211L32.188 23.3436L32.1211 23.3705C32.1028 23.3665 32.0921 23.371 32.089 23.3839C32.0636 23.3921 32.0391 23.3942 32.0156 23.3902V23.3863C32.0159 23.3836 32.0173 23.3805 32.02 23.3768L48.0648 2.01131C48.0773 1.99446 48.0833 1.99644 48.0831 2.01724L47.9975 7.01515C47.9972 7.02743 47.9927 7.03928 47.9848 7.04873L35.032 22.368Z" fill="currentColor"/>
  <path d="M47.6823 25.2947C47.6635 25.2913 47.6449 25.2798 47.6264 25.2603C47.6071 25.2353 47.5841 25.2141 47.5574 25.1967C47.5545 25.1944 47.5516 25.192 47.5487 25.1896L47.1935 24.8519L47.1036 24.7749L46.6576 24.3585C46.6362 24.3298 46.6121 24.3105 46.5851 24.3005L46.1226 23.8648C46.1012 23.8385 46.0778 23.8188 46.0524 23.8059L45.5867 23.371C45.5605 23.3392 45.5359 23.3188 45.5129 23.3098L45.4404 23.2403C45.432 23.2232 45.4181 23.2107 45.3988 23.2028L45.0654 22.8899C45.0401 22.8581 45.0117 22.8348 44.9802 22.82L44.528 22.3934L44.4376 22.316L44.2398 22.1355L44.2109 22.1059C44.203 22.0991 44.1978 22.0865 44.199 22.0754C44.4149 19.4814 44.6063 17.1814 44.7733 15.1756L44.7725 15.1715L44.7695 15.1685L44.7654 15.1675L44.7614 15.1689L37.7398 20.1799C37.705 20.2046 37.7017 20.201 37.7299 20.1692L47.8567 8.75215C47.8704 8.73661 47.8771 8.73925 47.8769 8.76005L47.6823 25.2947Z" fill="currentColor"/>
  <path d="M44.2375 22.1351L44.4444 22.329L44.5744 22.4428L44.9779 22.8196C45.0094 22.8344 45.0378 22.8577 45.0631 22.8895L45.3981 23.2083L45.3977 23.2094C45.3977 23.2094 45.3957 23.2066 45.3965 23.2024C45.4158 23.2103 45.4296 23.2228 45.4381 23.2399L45.5106 23.3094C45.5336 23.3184 45.5582 23.3388 45.5843 23.3706L46.0493 23.8103L46.169 23.9146L46.5828 24.3001C46.6097 24.3101 46.6339 24.3294 46.6553 24.3581L47.1203 24.7974L47.2285 24.8918L47.5464 25.1892C47.5493 25.1916 47.5522 25.194 47.5551 25.1963C47.577 25.2269 47.6 25.2481 47.624 25.2599C47.6425 25.2794 47.6612 25.2909 47.6799 25.2943L47.6803 25.3721H47.649L32.01 23.4125C32 23.4112 31.9975 23.4063 32.0025 23.3979C32.0044 23.3947 32.0079 23.3918 32.0132 23.3892C32.0367 23.3932 32.0612 23.3911 32.0865 23.3829C32.0992 23.3829 32.1099 23.3784 32.1186 23.3695L32.1856 23.3426C32.2097 23.3405 32.2331 23.333 32.2558 23.3201L32.2942 23.3086L32.3355 23.2924L32.4135 23.2691C32.4241 23.2657 32.434 23.2607 32.4433 23.2541L32.5249 23.2308C32.5389 23.2284 32.5516 23.2227 32.563 23.2134C32.5857 23.2011 32.612 23.193 32.6418 23.1893C32.6603 23.1896 32.6743 23.1832 32.6839 23.17L32.7596 23.1498L32.8297 23.1226C32.8332 23.121 32.8366 23.1196 32.84 23.1182C32.8554 23.1206 32.8684 23.1167 32.8793 23.1064C32.8935 23.1064 32.9046 23.1014 32.9126 23.0914L33.037 23.0511L33.0806 23.0357L33.1365 23.0199C33.15 23.0188 33.161 23.0145 33.1694 23.0069L33.5547 22.8737C33.5684 22.8743 33.5818 22.869 33.5947 22.8579C33.618 22.845 33.6437 22.8374 33.672 22.835C33.6937 22.834 33.7079 22.8271 33.7148 22.8145L33.7901 22.7943L33.8603 22.7671C33.8637 22.7655 33.8671 22.7641 33.8706 22.7627C33.8949 22.767 33.9123 22.7606 33.9229 22.7438L34.4754 22.5542C34.4857 22.5544 34.4954 22.5505 34.5044 22.5423L34.584 22.5198C34.5996 22.519 34.6138 22.5132 34.6264 22.5024C34.6486 22.4895 34.6743 22.482 34.7033 22.4799C34.7203 22.4773 34.7339 22.4707 34.7442 22.4602L34.8207 22.4388L34.8908 22.4116C34.8943 22.41 34.8977 22.4086 34.9011 22.4072C34.9167 22.4099 34.9298 22.4059 34.9404 22.3954C34.9533 22.3949 34.9641 22.3909 34.9729 22.3835C34.9908 22.3738 35.0097 22.3683 35.0295 22.367C38.0797 22.2824 41.1297 22.1962 44.1796 22.1082C44.1844 22.108 44.1891 22.1089 44.1939 22.111C44.219 22.1223 44.2239 22.1205 44.2086 22.1055L44.2375 22.1351Z" fill="currentColor"/>
</svg>