<svg width="140" height="28" viewBox="0 0 140 28" fill="none" xmlns="http://www.w3.org/2000/svg">
<g id="Frame 1430105210">
<g id="Vector">
<path d="M52.6813 15.9324C52.6801 15.9984 52.6514 16.0613 52.6014 16.1074C52.5515 16.1534 52.4843 16.1789 52.4146 16.1781H47.5035C47.6295 17.3296 48.5406 18.3828 49.8294 18.3828C50.7109 18.3828 51.3628 18.0669 51.8517 17.3998C51.8744 17.3648 51.9059 17.3356 51.9434 17.3148C51.9808 17.294 52.0231 17.2822 52.0665 17.2805C52.0988 17.2796 52.131 17.285 52.1611 17.2963C52.1912 17.3077 52.2185 17.3247 52.2414 17.3464C52.2643 17.3681 52.2822 17.394 52.2942 17.4225C52.3061 17.451 52.3118 17.4815 52.3109 17.5122C52.3111 17.5545 52.2982 17.596 52.2739 17.6315C51.7776 18.446 50.7924 18.8463 49.8294 18.8463C48.1776 18.8463 46.9924 17.442 46.9924 15.9464C46.9924 14.4508 48.1702 13.0465 49.8294 13.0465C51.4887 13.0465 52.6739 14.4368 52.6813 15.9324ZM52.1554 15.7147C52.0517 14.5632 51.1183 13.51 49.8294 13.51C48.5406 13.51 47.6295 14.5632 47.5035 15.7147H52.1554Z" fill="currentColor"/>
<path d="M58.6518 13.1589C58.7161 13.1607 58.7772 13.1857 58.8226 13.2288C58.8681 13.2718 58.8944 13.3298 58.8963 13.3906C58.8972 13.4213 58.8915 13.4518 58.8796 13.4803C58.8676 13.5088 58.8496 13.5347 58.8267 13.5564C58.8039 13.5781 58.7765 13.5952 58.7465 13.6065C58.7164 13.6178 58.6842 13.6232 58.6518 13.6224H57.3333V18.5303C57.3328 18.5916 57.3068 18.6502 57.2611 18.6936C57.2154 18.7369 57.1535 18.7615 57.0889 18.7621C57.0247 18.7603 56.9636 18.7353 56.9181 18.6922C56.8727 18.6492 56.8463 18.5912 56.8444 18.5303V13.6224H55.5778C55.5454 13.6232 55.5132 13.6178 55.4832 13.6065C55.4531 13.5952 55.4258 13.5781 55.4029 13.5564C55.38 13.5347 55.362 13.5088 55.3501 13.4803C55.3381 13.4518 55.3324 13.4213 55.3333 13.3906C55.3339 13.3294 55.3599 13.2708 55.4056 13.2274C55.4513 13.1841 55.5131 13.1595 55.5778 13.1589H56.8444V11.3685C56.8446 11.3091 56.867 11.2518 56.9078 11.2068C56.9485 11.1617 57.0048 11.1319 57.0667 11.1227C57.1012 11.1184 57.1364 11.1211 57.1697 11.1309C57.203 11.1406 57.2338 11.157 57.2598 11.179C57.2858 11.201 57.3065 11.228 57.3205 11.2583C57.3345 11.2886 57.3414 11.3214 57.3407 11.3544V13.1589H58.6518Z" fill="currentColor"/>
<path d="M66.689 15.5322V18.5022C66.6872 18.5631 66.6608 18.621 66.6154 18.6641C66.5699 18.7072 66.5088 18.7322 66.4446 18.7339C66.4122 18.7348 66.38 18.7294 66.35 18.7181C66.3199 18.7067 66.2926 18.6897 66.2697 18.668C66.2468 18.6463 66.2288 18.6204 66.2169 18.5919C66.2049 18.5634 66.1992 18.5329 66.2001 18.5022V15.5322C66.2001 14.5281 65.6001 13.5311 64.4224 13.5311C62.9113 13.5311 62.2594 14.7809 62.3483 16.0658C62.3483 16.1009 62.3631 16.2484 62.3631 16.2694V18.4952C62.363 18.5545 62.3405 18.6119 62.2998 18.6569C62.2591 18.702 62.2027 18.7318 62.1409 18.741C62.1063 18.7453 62.0712 18.7425 62.0379 18.7328C62.0045 18.7231 61.9738 18.7067 61.9478 18.6847C61.9218 18.6627 61.9011 18.6357 61.8871 18.6054C61.8731 18.5751 61.8662 18.5423 61.8668 18.5093V8.74243C61.8674 8.68115 61.8933 8.62253 61.9391 8.5792C61.9848 8.53586 62.0466 8.51127 62.1113 8.51072C62.1755 8.51249 62.2366 8.53747 62.2821 8.58054C62.3275 8.62362 62.3539 8.68154 62.3557 8.74243V14.2613C62.7779 13.5451 63.5335 13.0606 64.415 13.0606C65.8668 13.0606 66.689 14.2613 66.689 15.5322Z" fill="currentColor"/>
<path d="M75.5111 15.9324C75.5099 15.9984 75.4812 16.0613 75.4312 16.1074C75.3813 16.1534 75.3141 16.1789 75.2444 16.1781H70.3333C70.4592 17.3296 71.3703 18.3828 72.6592 18.3828C73.5407 18.3828 74.1926 18.0669 74.6814 17.3998C74.7042 17.3648 74.7357 17.3356 74.7732 17.3148C74.8106 17.294 74.8529 17.2822 74.8963 17.2805C74.9286 17.2796 74.9608 17.285 74.9909 17.2963C75.021 17.3077 75.0483 17.3247 75.0712 17.3464C75.094 17.3681 75.112 17.394 75.124 17.4225C75.1359 17.451 75.1416 17.4815 75.1407 17.5122C75.1409 17.5545 75.128 17.596 75.1037 17.6315C74.6074 18.446 73.6222 18.8463 72.6592 18.8463C71.0074 18.8463 69.8222 17.442 69.8222 15.9464C69.8222 14.4508 71 13.0465 72.6592 13.0465C74.3037 13.0465 75.5037 14.4368 75.5111 15.9324ZM74.9777 15.7147C74.874 14.5632 73.9407 13.51 72.6518 13.51C71.3629 13.51 70.4518 14.5632 70.3259 15.7147H74.9777Z" fill="currentColor"/>
<path d="M81.5478 13.3765C81.5525 13.4389 81.531 13.5004 81.4879 13.5478C81.4449 13.5952 81.3839 13.6245 81.3182 13.6293C79.8737 13.8329 79.2219 14.9493 79.2219 16.2483V18.4741C79.2217 18.5334 79.1993 18.5908 79.1586 18.6358C79.1178 18.6809 79.0615 18.7107 78.9996 18.7198C78.9651 18.7242 78.9299 18.7214 78.8966 18.7117C78.8633 18.702 78.8326 18.6856 78.8065 18.6636C78.7805 18.6416 78.7598 18.6145 78.7458 18.5843C78.7319 18.554 78.7249 18.5212 78.7256 18.4881V13.4116C78.7257 13.3523 78.7481 13.295 78.7889 13.2499C78.8296 13.2049 78.886 13.1751 78.9478 13.1659C78.9824 13.1615 79.0175 13.1643 79.0508 13.174C79.0842 13.1837 79.1149 13.2001 79.1409 13.2221C79.1669 13.2441 79.1876 13.2712 79.2016 13.3015C79.2156 13.3318 79.2225 13.3645 79.2219 13.3976V14.4297C79.6293 13.7768 80.4367 13.1589 81.2811 13.1589C81.407 13.1589 81.5478 13.2431 81.5478 13.3765Z" fill="currentColor"/>
<path d="M89.6221 15.9324C89.621 15.9984 89.5923 16.0613 89.5423 16.1074C89.4923 16.1534 89.4252 16.1789 89.3555 16.1781H84.4444C84.5703 17.3296 85.4814 18.3828 86.7703 18.3828C87.6518 18.3828 88.3036 18.0669 88.7925 17.3998C88.8153 17.3648 88.8468 17.3356 88.8842 17.3148C88.9217 17.294 88.9639 17.2822 89.0073 17.2805C89.0397 17.2796 89.0719 17.285 89.1019 17.2963C89.132 17.3077 89.1593 17.3247 89.1822 17.3464C89.2051 17.3681 89.2231 17.394 89.235 17.4225C89.247 17.451 89.2527 17.4815 89.2518 17.5122C89.2519 17.5545 89.2391 17.596 89.2147 17.6315C88.7184 18.446 87.7333 18.8463 86.7703 18.8463C85.1184 18.8463 83.9333 17.442 83.9333 15.9464C83.9333 14.4508 85.111 13.0465 86.7703 13.0465C88.4295 13.0465 89.6147 14.4368 89.6221 15.9324ZM89.0962 15.7147C88.9925 14.5632 88.0592 13.51 86.7703 13.51C85.4814 13.51 84.5703 14.5632 84.4444 15.7147H89.0962Z" fill="currentColor"/>
<path d="M97.5625 13.4327V18.5303C97.5606 18.5912 97.5343 18.6491 97.4888 18.6922C97.4434 18.7352 97.3823 18.7602 97.3181 18.762C97.2857 18.7629 97.2535 18.7575 97.2234 18.7461C97.1934 18.7348 97.1661 18.7178 97.1432 18.6961C97.1203 18.6744 97.1023 18.6485 97.0903 18.62C97.0784 18.5915 97.0727 18.5609 97.0736 18.5303V17.5613C96.6662 18.3267 95.9477 18.8814 95.0292 18.8814C93.5699 18.8814 92.7625 17.6807 92.7625 16.4098V13.4257C92.7631 13.3644 92.789 13.3058 92.8348 13.2625C92.8805 13.2191 92.9423 13.1945 93.007 13.194C93.0712 13.1957 93.1323 13.2207 93.1777 13.2638C93.2232 13.3069 93.2495 13.3648 93.2514 13.4257V16.4098C93.2514 17.4139 93.8514 18.4109 95.0292 18.4109C96.681 18.4109 97.0736 16.9434 97.0736 15.3215V13.4187C97.0742 13.3811 97.0842 13.3442 97.1029 13.3111C97.1215 13.2779 97.1483 13.2495 97.181 13.2282C97.2136 13.2069 97.2512 13.1933 97.2905 13.1886C97.3298 13.1838 97.3697 13.1881 97.4069 13.201C97.4535 13.2215 97.4929 13.2542 97.5205 13.2953C97.548 13.3364 97.5626 13.384 97.5625 13.4327Z" fill="currentColor"/>
<path d="M110 15.5112V18.4953C109.998 18.5562 109.972 18.6141 109.926 18.6572C109.881 18.7002 109.82 18.7252 109.756 18.727C109.723 18.7279 109.691 18.7225 109.661 18.7111C109.631 18.6998 109.604 18.6827 109.581 18.6611C109.558 18.6394 109.54 18.6135 109.528 18.585C109.516 18.5565 109.51 18.5259 109.511 18.4953V15.5112C109.511 14.5071 108.911 13.5241 107.733 13.5241C106.252 13.5241 105.689 15.0267 105.689 16.1922V18.4953C105.687 18.5562 105.661 18.6141 105.615 18.6572C105.57 18.7002 105.509 18.7252 105.444 18.727C105.412 18.7279 105.38 18.7225 105.35 18.7111C105.32 18.6998 105.292 18.6827 105.27 18.6611C105.247 18.6394 105.229 18.6135 105.217 18.585C105.205 18.5565 105.199 18.5259 105.2 18.4953V15.5112C105.2 14.5071 104.6 13.5241 103.422 13.5241C101.926 13.5241 101.311 14.6405 101.363 16.129C101.363 16.1642 101.378 16.2273 101.363 16.2484V18.4882C101.363 18.5476 101.34 18.6049 101.3 18.65C101.259 18.695 101.203 18.7248 101.141 18.734C101.106 18.7384 101.071 18.7356 101.038 18.7259C101.004 18.7162 100.974 18.6997 100.948 18.6777C100.922 18.6557 100.901 18.6287 100.887 18.5984C100.873 18.5681 100.866 18.5353 100.867 18.5023V13.4117C100.867 13.3524 100.889 13.2951 100.93 13.25C100.971 13.205 101.027 13.1752 101.089 13.166C101.123 13.1616 101.159 13.1644 101.192 13.1741C101.225 13.1838 101.256 13.2002 101.282 13.2222C101.308 13.2442 101.329 13.2713 101.343 13.3016C101.357 13.3319 101.364 13.3647 101.363 13.3977V14.2473C101.785 13.5311 102.541 13.0607 103.422 13.0607C104.422 13.0607 105.2 13.6645 105.519 14.5422C105.926 13.6715 106.719 13.0607 107.733 13.0607C109.178 13.0607 110 14.2473 110 15.5112Z" fill="currentColor"/>
<path d="M36.1481 12.0284L30 14.6755L36.1481 18.1231L42.3037 14.6755L36.1481 12.0284Z" fill="currentColor"/>
<path d="M30 14.6755L36.1481 18.1231V5L30 14.6755Z" fill="currentColor"/>
<path d="M36.1481 5V18.1231L42.3037 14.6755L36.1481 5Z" fill="currentColor"/>
<path d="M30 15.7849L36.1481 24V19.2254L30 15.7849Z" fill="currentColor"/>
<path d="M36.1481 19.2254V24L42.3037 15.7849L36.1481 19.2254Z" fill="currentColor"/>
</g>
</g>
</svg>
