<svg xmlns="http://www.w3.org/2000/svg" width="140" height="28" viewBox="0 0 140 28" fill="none">
  <path d="M30.2984 19.9791C30.2984 19.9847 30.2962 19.99 30.2922 19.9939C30.2882 19.9978 30.2828 20 30.2772 20H20.0213C20.0156 20 20.0102 19.9978 20.0062 19.9939C20.0022 19.99 20 19.9847 20 19.9791V7.02274C20 7.0172 20.0022 7.01189 20.0062 7.00798C20.0102 7.00406 20.0156 7.00186 20.0213 7.00186H30.2772C30.2828 7.00186 30.2882 7.00406 30.2922 7.00798C30.2962 7.01189 30.2984 7.0172 30.2984 7.02274V19.9791ZM27.3551 9.90545C27.3551 9.9007 27.3532 9.89615 27.3497 9.8928C27.3463 9.88944 27.3417 9.88755 27.3368 9.88755H22.9652C22.9604 9.88755 22.9558 9.88944 22.9523 9.8928C22.9489 9.89615 22.947 9.9007 22.947 9.90545V17.0833C22.947 17.088 22.9489 17.0926 22.9523 17.0959C22.9558 17.0993 22.9604 17.1012 22.9652 17.1012H27.3368C27.3417 17.1012 27.3463 17.0993 27.3497 17.0959C27.3532 17.0926 27.3551 17.088 27.3551 17.0833V9.90545Z" fill="currentColor"/>
  <path d="M36.156 7.0007H33.2594C33.246 7.0007 33.2351 7.01138 33.2351 7.02456V19.975C33.2351 19.9882 33.246 19.9988 33.2594 19.9988H36.156C36.1694 19.9988 36.1803 19.9882 36.1803 19.975V7.02456C36.1803 7.01138 36.1694 7.0007 36.156 7.0007Z" fill="currentColor"/>
  <path d="M49.4158 19.9761C49.4158 19.9822 49.4133 19.9882 49.4089 19.9925C49.4044 19.9969 49.3984 19.9993 49.3921 19.9993H39.1435C39.1404 19.9993 39.1373 19.9987 39.1344 19.9976C39.1316 19.9964 39.129 19.9947 39.1268 19.9925C39.1246 19.9904 39.1228 19.9878 39.1216 19.985C39.1204 19.9821 39.1198 19.9791 39.1198 19.9761V7.02326C39.1198 7.02021 39.1204 7.01718 39.1216 7.01436C39.1228 7.01154 39.1246 7.00897 39.1268 7.00681C39.129 7.00465 39.1316 7.00294 39.1344 7.00177C39.1373 7.0006 39.1404 7 39.1435 7H49.3921C49.3984 7 49.4044 7.00245 49.4089 7.00681C49.4133 7.01118 49.4158 7.01709 49.4158 7.02326V19.9761ZM46.4773 9.90716C46.4773 9.90147 46.475 9.89601 46.4709 9.89198C46.4668 9.88795 46.4613 9.88569 46.4555 9.88569H42.0923C42.0865 9.88569 42.081 9.88795 42.0769 9.89198C42.0728 9.89601 42.0705 9.90147 42.0705 9.90716V17.0778C42.0705 17.0835 42.0728 17.089 42.0769 17.093C42.081 17.0971 42.0865 17.0993 42.0923 17.0993H46.4555C46.4613 17.0993 46.4668 17.0971 46.4709 17.093C46.475 17.089 46.4773 17.0835 46.4773 17.0778V9.90716Z" fill="currentColor"/>
  <path d="M78.7422 7.42952H76.6463C76.6326 7.42952 76.6214 7.44047 76.6214 7.45398V19.3141C76.6214 19.3276 76.6326 19.3385 76.6463 19.3385H78.7422C78.756 19.3385 78.7671 19.3276 78.7671 19.3141V7.45398C78.7671 7.44047 78.756 7.42952 78.7422 7.42952Z" fill="currentColor"/>
  <path d="M82.84 7.42766H80.7441C80.7304 7.42766 80.7192 7.43861 80.7192 7.45212V19.3134C80.7192 19.3269 80.7304 19.3378 80.7441 19.3378H82.84C82.8538 19.3378 82.865 19.3269 82.865 19.3134V7.45212C82.865 7.43861 82.8538 7.42766 82.84 7.42766Z" fill="currentColor"/>
  <path d="M108.211 10.2042C108.94 10.2042 109.531 9.62366 109.531 8.9075C109.531 8.19135 108.94 7.61079 108.211 7.61079C107.481 7.61079 106.89 8.19135 106.89 8.9075C106.89 9.62366 107.481 10.2042 108.211 10.2042Z" fill="currentColor"/>
  <path d="M60.5553 12.775L65.0314 12.7756C65.0369 12.7756 65.0421 12.7778 65.046 12.7816C65.0499 12.7854 65.0521 12.7905 65.0521 12.7959L65.0527 14.9116C65.0527 14.9169 65.0505 14.9221 65.0466 14.9259C65.0427 14.9297 65.0375 14.9318 65.032 14.9318H60.5553C60.5498 14.9318 60.5446 14.934 60.5407 14.9378C60.5368 14.9416 60.5346 14.9467 60.5346 14.9521V19.3164C60.5346 19.3218 60.5325 19.327 60.5286 19.3308C60.5247 19.3346 60.5195 19.3367 60.514 19.3367L58.2565 19.3385C58.251 19.3385 58.2458 19.3364 58.2419 19.3326C58.238 19.3288 58.2358 19.3236 58.2358 19.3182V7.94247C58.2358 7.93709 58.238 7.93193 58.2419 7.92813C58.2458 7.92433 58.251 7.92219 58.2565 7.92219H65.1626C65.1681 7.92219 65.1734 7.92433 65.1772 7.92813C65.1811 7.93193 65.1833 7.93709 65.1833 7.94247L65.1839 10.0587C65.1839 10.0641 65.1817 10.0693 65.1778 10.0731C65.174 10.0769 65.1687 10.079 65.1632 10.079L60.5559 10.0796C60.5504 10.0796 60.5452 10.0817 60.5413 10.0855C60.5374 10.0893 60.5352 10.0945 60.5352 10.0999L60.5346 12.7547C60.5346 12.7601 60.5368 12.7653 60.5407 12.7691C60.5446 12.7729 60.5498 12.775 60.5553 12.775Z" fill="currentColor"/>
  <path d="M75.1222 15.2563C75.1222 16.4038 74.6579 17.5043 73.8315 18.3158C73.0051 19.1272 71.8842 19.583 70.7154 19.583C69.5466 19.583 68.4257 19.1272 67.5993 18.3158C66.7728 17.5043 66.3085 16.4038 66.3085 15.2563C66.3085 14.1088 66.7728 13.0082 67.5993 12.1968C68.4257 11.3854 69.5466 10.9296 70.7154 10.9296C71.8842 10.9296 73.0051 11.3854 73.8315 12.1968C74.6579 13.0082 75.1222 14.1088 75.1222 15.2563ZM68.4682 15.239C68.4609 16.043 68.8072 16.7349 69.4864 17.1698C69.8746 17.4185 70.3703 17.5288 70.8156 17.5044C71.705 17.4559 72.3492 17.0443 72.7481 16.2697C72.889 15.9961 72.9611 15.6653 72.9644 15.2772C72.968 14.8887 72.9018 14.5564 72.7657 14.2805C72.3802 13.4995 71.7433 13.0772 70.8551 13.0136C70.4098 12.982 69.9123 13.084 69.5198 13.3261C68.8333 13.749 68.4749 14.435 68.4682 15.239Z" fill="currentColor"/>
  <path d="M93.1896 15.2563C93.1896 16.404 92.7253 17.5047 91.8987 18.3162C91.0722 19.1277 89.9511 19.5837 88.7822 19.5837C87.6133 19.5837 86.4922 19.1277 85.6656 18.3162C84.8391 17.5047 84.3747 16.404 84.3747 15.2563C84.3747 14.1086 84.8391 13.008 85.6656 12.1964C86.4922 11.3849 87.6133 10.929 88.7822 10.929C89.9511 10.929 91.0722 11.3849 91.8987 12.1964C92.7253 13.008 93.1896 14.1086 93.1896 15.2563ZM86.5338 15.2665C86.538 16.1987 87.0137 16.9592 87.8849 17.3392C88.1413 17.4509 88.4436 17.5062 88.7919 17.505C89.1406 17.5034 89.4425 17.4455 89.6977 17.3314C90.5658 16.9443 91.0342 16.1796 91.0306 15.2474C91.0263 14.3145 90.5506 13.554 89.6795 13.1741C89.4231 13.0623 89.1206 13.0072 88.7719 13.0088C88.4235 13.0104 88.1218 13.0681 87.8667 13.1818C86.9985 13.5695 86.5295 14.3342 86.5338 15.2665Z" fill="currentColor"/>
  <path d="M113.388 12.0258C113.388 12.066 113.4 12.0695 113.424 12.0365C113.774 11.553 114.247 11.2327 114.845 11.0756C116.031 10.7643 117.307 10.9939 118.15 11.891C118.534 12.2994 118.784 12.7893 118.899 13.3607C118.965 13.6848 118.998 13.9868 118.998 14.2667C118.999 14.9729 119 16.6536 119 19.3086C119 19.3281 118.99 19.3378 118.97 19.3378H116.881C116.86 19.3378 116.85 19.3277 116.85 19.3074C116.851 16.3903 116.852 14.8039 116.852 14.5482C116.851 13.6852 116.382 13.0434 115.492 12.9306C114.717 12.8322 113.976 13.1018 113.611 13.8015C113.521 13.9752 113.458 14.183 113.422 14.4248C113.401 14.5683 113.39 14.7815 113.39 15.0642C113.388 16.8114 113.388 18.2296 113.391 19.3188C113.391 19.3241 113.389 19.3293 113.385 19.3331C113.381 19.3369 113.375 19.339 113.37 19.339H111.278C111.257 19.339 111.246 19.3287 111.246 19.308V11.2057C111.246 11.1854 111.257 11.1752 111.277 11.1752H113.356C113.377 11.1752 113.388 11.1858 113.388 11.2069V12.0258Z" fill="currentColor"/>
  <path d="M102.317 16.1217L103.693 11.2104C103.699 11.187 103.715 11.1753 103.739 11.1753H105.735C105.738 11.1752 105.741 11.176 105.744 11.1774C105.747 11.1788 105.749 11.1808 105.751 11.1834C105.753 11.1859 105.755 11.1889 105.755 11.192C105.756 11.1952 105.756 11.1984 105.755 11.2015L103.345 19.3194C103.343 19.3252 103.339 19.3303 103.334 19.334C103.329 19.3376 103.323 19.3396 103.317 19.3397H101.271C101.249 19.3397 101.235 19.3293 101.228 19.3086L99.6807 14.4451C99.6718 14.4164 99.6627 14.4166 99.6534 14.4457L98.1061 19.3122C98.1004 19.3305 98.0879 19.3397 98.0684 19.3397H96.0303C96.0076 19.3397 95.9932 19.3289 95.9871 19.3074L93.5626 11.2069C93.5561 11.1858 93.5642 11.1753 93.5869 11.1753H95.7885C95.8115 11.1753 95.8263 11.186 95.8328 11.2075L97.2264 16.1152C97.2382 16.1565 97.2503 16.1565 97.2629 16.1152L98.7409 11.2248C98.7454 11.2103 98.7543 11.1976 98.7665 11.1885C98.7786 11.1795 98.7933 11.1746 98.8084 11.1747H100.749C100.761 11.1747 100.771 11.1781 100.78 11.1843C100.789 11.1906 100.796 11.1993 100.799 11.2093L102.269 16.1217C102.286 16.177 102.302 16.177 102.317 16.1217Z" fill="currentColor"/>
  <path d="M109.259 11.1729H107.163C107.15 11.1729 107.14 11.1831 107.14 11.1956V19.3146C107.14 19.3272 107.15 19.3373 107.163 19.3373H109.259C109.271 19.3373 109.282 19.3272 109.282 19.3146V11.1956C109.282 11.1831 109.271 11.1729 109.259 11.1729Z" fill="currentColor"/>
</svg>