<svg xmlns="http://www.w3.org/2000/svg" width="140" height="28" viewBox="0 0 140 28" fill="none">
  <path d="M46.2059 7L46.4706 7.01759C46.4758 7.0179 46.4809 7.01978 46.485 7.02299C46.4892 7.02619 46.4923 7.03057 46.4939 7.03554C46.5247 7.13318 46.5413 7.21108 46.5437 7.26923C46.5527 7.46344 46.5702 7.75636 46.5702 7.99938C46.57 12.3329 46.5701 16.6665 46.5706 21H43V7H46.2059Z" fill="currentColor"/>
  <path d="M57.3779 7C57.4654 7.00885 57.5526 7.01974 57.6396 7.03267C57.68 7.03865 57.7193 7.05181 57.7576 7.07215C57.8164 7.1035 57.8552 7.12169 57.8741 7.12672C58.5798 7.31913 59.2352 7.72297 59.8197 8.1681C59.83 8.176 59.8313 8.18521 59.8236 8.19574C59.6683 8.41256 59.5711 8.55029 59.5321 8.60892C58.9737 9.44509 58.4271 10.259 57.8924 11.0507C57.8181 11.1608 57.7499 11.258 57.688 11.3425C57.6758 11.3593 57.6614 11.3614 57.6446 11.349C57.4804 11.2266 57.328 11.1189 57.1573 11.0525C56.9195 10.9601 56.6794 10.9026 56.437 10.8802C56.3019 10.8677 56.1469 10.8605 55.9719 10.8586C55.3621 10.8519 54.8365 10.8547 54.395 10.8669C54.0371 10.8767 53.7167 10.9424 53.4336 11.0639C52.9412 11.2757 52.6357 11.6582 52.5172 12.2112C52.4665 12.4477 52.4411 12.6251 52.4411 12.7436C52.4416 13.2892 52.4411 14.0432 52.4397 15.0055C52.4392 15.2503 52.4634 15.4828 52.5121 15.703C52.5693 15.9602 52.6588 16.1725 52.7807 16.3398C53.1633 16.865 53.8313 17.0527 54.4656 17.0538C55.3594 17.0557 55.942 17.0559 56.2136 17.0545C56.6895 17.0519 57.1209 16.923 57.5077 16.6679C57.587 16.6157 57.6531 16.5646 57.7059 16.5146C57.7091 16.5117 57.7128 16.5094 57.7168 16.5079C57.7209 16.5064 57.7251 16.5057 57.7294 16.5059C57.7337 16.506 57.738 16.5071 57.7419 16.5089C57.7458 16.5107 57.7493 16.5132 57.7522 16.5164C57.7861 16.5537 57.8224 16.5997 57.8608 16.6543C58.3153 17.299 58.859 18.0741 59.492 18.9797C59.719 19.3047 59.871 19.5255 59.9477 19.642C59.9531 19.6503 59.9554 19.6603 59.9541 19.6701C59.9529 19.6799 59.9482 19.6889 59.9409 19.6955C59.2756 20.2959 58.5029 20.6803 57.6228 20.8485C57.5293 20.8662 57.3971 20.8946 57.2262 20.9336C57.116 20.9587 57.0091 20.9748 56.9056 20.9817C56.7976 20.9891 56.6893 20.9952 56.5808 21H54.102C53.9275 20.9933 53.7531 20.9848 53.5789 20.9745C53.3511 20.9611 53.1786 20.9427 53.0615 20.9192C52.8824 20.8831 52.7015 20.8386 52.5186 20.7857C52.3063 20.7244 52.1006 20.637 51.9015 20.5233C51.2059 20.126 50.5756 19.6311 50.0108 19.0386C49.8078 18.8256 49.6548 18.6446 49.5518 18.4958C49.183 17.964 48.9277 17.4154 48.7859 16.8499C48.6982 16.5005 48.656 16.122 48.6594 15.7145C48.661 15.5362 48.6619 15.4462 48.6619 15.4445C48.6576 13.8588 48.6579 12.782 48.6629 12.2141C48.6641 12.0779 48.6769 11.8787 48.7013 11.6164C48.7216 11.3986 48.7577 11.2022 48.8096 11.027C48.9141 10.6733 49.0228 10.4003 49.1359 10.2082C49.3413 9.85923 49.4729 9.60615 49.6429 9.37031C50.1129 8.71841 50.6403 8.18497 51.2252 7.77C51.584 7.51537 51.9994 7.31015 52.4713 7.15436C52.4997 7.14503 52.5623 7.11667 52.6591 7.06928C52.7421 7.0286 52.8333 7.0055 52.9327 7H57.3779Z" fill="currentColor"/>
  <path d="M67.0913 7L67.2839 7.02118C67.2896 7.02183 67.295 7.02415 67.2995 7.02784C67.304 7.03154 67.3072 7.03646 67.309 7.042C67.3302 7.10781 67.3436 7.19588 67.3491 7.30621C67.3632 7.59267 67.3703 7.77096 67.3703 7.84108C67.37 12.1196 67.3701 16.3982 67.3706 20.6769C67.3706 20.7667 67.3648 20.8514 67.3531 20.9311C67.3514 20.943 67.3454 20.9524 67.3351 20.9591C67.3105 20.9751 67.2829 20.9843 67.2523 20.9867C67.2088 20.9898 67.1655 20.9943 67.1225 21H64.1292C64.0933 20.9966 64.0735 20.9713 64.0697 20.9239C64.0556 20.7375 64.0485 20.5776 64.0485 20.4443C64.0476 17.741 64.0484 14.7337 64.051 11.4226C64.051 11.4126 64.0471 11.403 64.04 11.3959C64.0329 11.3888 64.0234 11.3849 64.0134 11.3849H61.5626C61.5521 11.3849 61.5484 11.3798 61.5515 11.3698C61.5658 11.3229 61.5924 11.2735 61.6311 11.2215C62.265 10.3647 62.89 9.51103 63.5254 8.66923C63.6662 8.48304 63.8114 8.28082 63.961 8.06256C64.0198 7.97677 64.0582 7.91144 64.0543 7.80662C64.0449 7.5381 64.0516 7.2861 64.0743 7.05062C64.0755 7.0387 64.0809 7.02761 64.0896 7.01941C64.0983 7.01122 64.1097 7.00649 64.1217 7.0061L64.2769 7H67.0913Z" fill="currentColor"/>
  <path d="M73.7553 7C73.8258 7.00766 73.8963 7.01532 73.9668 7.02297C74.0256 7.0292 74.0645 7.06174 74.0834 7.12062C74.107 7.1948 74.1199 7.26528 74.1221 7.33205C74.1345 7.68983 74.1425 8.39677 74.1461 9.45287C74.1545 11.9061 74.1556 13.5604 74.1493 14.4157C74.145 15.0417 74.1296 15.7019 74.1289 16.3513C74.1275 17.628 74.127 19.0849 74.1275 20.7218C74.1277 20.8482 74.1085 20.9409 74.0697 21H71.1697L70.8559 20.9838C70.837 20.9829 70.8272 20.973 70.8265 20.9541C70.815 20.6348 70.8094 20.3121 70.8097 19.9859C70.8101 18.696 70.8119 15.8395 70.815 11.4165C70.815 11.406 70.811 11.396 70.8038 11.3885C70.7966 11.381 70.7867 11.3766 70.7763 11.3763C70.6518 11.3708 70.5514 11.368 70.4751 11.368C69.7064 11.3675 68.9986 11.3765 68.3517 11.3949C68.302 11.3964 68.2582 11.3935 68.2205 11.3863C68.2076 11.3839 68.2042 11.3769 68.2104 11.3651C68.2558 11.2809 68.2935 11.2197 68.3234 11.1817C69.0568 10.2476 69.7954 9.30605 70.5393 8.35692C70.6433 8.2241 70.742 8.09236 70.8355 7.96169C70.8523 7.938 70.8649 7.88379 70.8609 7.85077C70.8313 7.58896 70.8226 7.33145 70.8348 7.07826C70.8355 7.0641 70.8412 7.05068 70.851 7.04045C70.8607 7.03023 70.8738 7.0239 70.8878 7.02262L71.1471 7H73.7553Z" fill="currentColor"/>
  <path d="M86.0056 7L86.4191 7.02836C86.4353 7.02956 86.4434 7.03829 86.4434 7.05456V7.10949C86.4434 7.11823 86.4464 7.12671 86.4519 7.13351C86.4574 7.14031 86.465 7.14501 86.4736 7.14682C87.2275 7.30716 87.8923 7.61803 88.4679 8.07944C88.7232 8.28405 88.932 8.47634 89.0943 8.65631C89.5425 9.15313 89.9389 9.73479 90.2833 10.4013C90.3342 10.4996 90.3842 10.6143 90.4332 10.7452C90.4896 10.8955 90.5276 11.017 90.5472 11.1099C90.6352 11.5282 90.68 11.9622 90.6817 12.4119C90.685 13.3129 90.6859 14.2394 90.6842 15.1914C90.6832 15.7854 90.6719 16.1671 90.6501 16.3366C90.483 17.6444 89.9025 18.7275 88.9086 19.5856C88.5443 19.9003 88.1295 20.1911 87.6644 20.4579C87.3859 20.6178 87.168 20.7229 87.0107 20.7731C86.9366 20.7968 86.7825 20.847 86.5485 20.9235C86.462 20.952 86.3808 20.9707 86.305 20.9795C86.2223 20.9891 86.139 20.9959 86.0551 21H82.0879C81.8848 20.9935 81.7435 20.9782 81.6641 20.9541C81.372 20.8653 81.1933 20.8097 81.1281 20.7875C80.5082 20.5759 79.9531 20.2582 79.4625 19.8344C79.456 19.8287 79.4518 19.8208 79.4507 19.8122C79.4495 19.8036 79.4516 19.7949 79.4564 19.7877C80.5737 18.1503 81.2684 17.1317 81.5404 16.7318C81.5636 16.6976 81.5875 16.6691 81.6121 16.6464C81.621 16.6382 81.6307 16.6371 81.6412 16.6431C81.7012 16.6776 81.7361 16.6988 81.7459 16.7067C82.0045 16.9127 82.292 17.0525 82.6082 17.1259C82.8685 17.1863 83.1303 17.2153 83.4286 17.2178C84.3238 17.2255 84.8677 17.2274 85.0601 17.2236C85.3417 17.2178 85.618 17.1551 85.8891 17.0355C86.2438 16.8792 86.4976 16.6166 86.6503 16.2475C86.7228 16.0731 86.7726 15.8955 86.7999 15.7148C86.8326 15.4994 86.8493 15.2838 86.8501 15.0679C86.8529 13.8797 86.8538 13.1259 86.8526 12.8064C86.8514 12.5317 86.8196 12.2742 86.7572 12.0339C86.5736 11.3267 86.0311 11.0079 85.3287 10.948C85.1037 10.9289 84.8738 10.9194 84.6388 10.9196C84.2766 10.9199 83.9145 10.9207 83.5523 10.9222C83.4493 10.9226 83.3373 10.9273 83.2164 10.9362C83.0514 10.9481 82.9398 10.9582 82.8815 10.9663C82.6348 11.001 82.3964 11.0642 82.1665 11.1558C82.0241 11.2122 81.8882 11.3002 81.7617 11.3852C81.7354 11.4029 81.714 11.3983 81.6975 11.3712L79.7114 8.10887C79.7104 8.10733 79.71 8.10547 79.7104 8.10367C79.7107 8.10187 79.7117 8.10026 79.7132 8.09918C80.0333 7.86632 80.3701 7.65944 80.7236 7.47851C81.0714 7.30046 81.4012 7.18655 81.7129 7.13677C81.7695 7.12779 81.7968 7.10051 81.8312 7.05636C81.8386 7.04679 81.8482 7.0414 81.8599 7.04021L82.2181 7H86.0056Z" fill="currentColor"/>
  <path d="M97 7V21H94.2584L94.0045 20.9835C93.9952 20.9829 93.9863 20.9791 93.9794 20.9727C93.9726 20.9662 93.9681 20.9576 93.9669 20.9483C93.9506 20.8215 93.9425 20.6891 93.9425 20.5513C93.9435 17.438 93.9433 14.5214 93.9422 11.8013C93.9422 11.6795 93.9457 11.5507 93.9529 11.415C93.9532 11.4103 93.9525 11.4056 93.9509 11.4011C93.9493 11.3967 93.9469 11.3926 93.9437 11.3891C93.9405 11.3856 93.9367 11.3828 93.9324 11.3807C93.9282 11.3787 93.9236 11.3776 93.9188 11.3773C93.8634 11.3742 93.7759 11.3718 93.6564 11.3702C93.2976 11.3654 92.5877 11.3722 91.5269 11.3906C91.5241 11.3907 91.5214 11.39 91.5189 11.3887C91.5165 11.3873 91.5144 11.3854 91.513 11.3831C91.5115 11.3807 91.5106 11.3781 91.5105 11.3753C91.5104 11.3725 91.5109 11.3698 91.5122 11.3673C91.5344 11.3237 91.5601 11.281 91.5893 11.2391C91.9696 10.694 92.675 9.70846 93.7055 8.28262C93.7772 8.18354 93.8453 8.07046 93.9275 7.95344C93.9443 7.92867 93.9518 7.87626 93.95 7.84179C93.9376 7.62258 93.9371 7.42407 93.9486 7.24626C93.9527 7.18427 93.9625 7.12205 93.978 7.05959C93.9807 7.0491 93.9865 7.0397 93.9947 7.03269C94.0029 7.02567 94.0131 7.0214 94.0239 7.02046L94.2659 7H97Z" fill="currentColor"/>
  <path d="M78.5291 19.0034C78.4015 18.8983 78.3 18.7996 78.2247 18.7072C77.9627 18.3851 77.7527 18.0419 77.5947 17.6777C77.495 17.4483 77.3867 17.192 77.3247 16.9429C77.2511 16.6471 77.1961 16.3976 77.1597 16.1944C77.1256 16.0042 77.1079 15.7727 77.1067 15.5002C77.1043 14.9789 77.1039 14.6344 77.1056 14.4667C77.1068 14.3468 77.1136 13.6688 77.126 12.4327C77.1296 12.0991 77.1398 11.8683 77.1565 11.7403C77.1871 11.5093 77.2273 11.2811 77.277 11.0557C77.3272 10.8286 77.384 10.643 77.4473 10.4989C77.6388 10.065 77.8893 9.63355 78.1989 9.20446C78.2876 9.08169 78.4005 8.95091 78.5377 8.8121C78.5404 8.80939 78.5437 8.80724 78.5472 8.80579C78.5507 8.80434 78.5545 8.8036 78.5583 8.80364C78.5621 8.80367 78.5659 8.80447 78.5694 8.80598C78.5729 8.8075 78.576 8.8097 78.5786 8.81246C78.6544 8.89263 78.7193 8.97304 78.7733 9.05369C80.04 10.9484 80.8603 12.1765 81.2341 12.7382C81.2789 12.8057 81.2901 12.9177 81.2897 13.0121C81.2885 13.8736 81.2891 14.5332 81.2915 14.9908C81.2915 15.0224 81.283 15.0514 81.266 15.078C81.2151 15.1572 81.1588 15.2436 81.0972 15.3372C80.9183 15.6081 80.1638 16.7196 78.8335 18.6717C78.7441 18.8031 78.6559 18.9129 78.5689 19.0012C78.5638 19.0065 78.5568 19.0097 78.5494 19.0101C78.5421 19.0105 78.5348 19.0081 78.5291 19.0034Z" fill="currentColor"/>
</svg>