<svg xmlns="http://www.w3.org/2000/svg" width="140" height="28" viewBox="0 0 140 28" fill="none">
  <path d="M41.8083 5L43.2474 7.07505C43.2566 7.08821 43.2599 7.10276 43.2574 7.11867C43.0208 8.51413 42.8024 9.84622 42.6267 11.2206C42.481 12.3627 42.4007 13.4116 42.3859 14.3673C42.3767 14.9539 42.3841 15.3753 42.4082 15.6315C42.4364 15.9339 42.5166 16.3738 42.649 16.9512C42.6791 17.0834 42.7348 17.2117 42.8162 17.336C42.8247 17.3488 42.8363 17.3522 42.8508 17.3461C43.4844 17.0853 44.0913 16.767 44.5269 16.2463C44.694 16.0466 44.7909 15.8395 44.8365 15.5938C44.9239 15.1222 44.8479 14.5432 44.5359 14.1584C44.4605 14.0654 44.3545 13.9873 44.2177 13.9242C44.0594 13.8511 43.9196 13.7902 43.7983 13.7415C43.7822 13.7351 43.7758 13.7236 43.7793 13.707L44.8698 8.44709C44.8739 8.4275 44.8835 8.42444 44.8987 8.43791L46.0685 9.48117C46.0786 9.49036 46.0815 9.50122 46.077 9.51378L44.9158 12.8869C44.9098 12.9041 44.9144 12.9185 44.9296 12.9301L45.2939 13.2056C45.3037 13.2127 45.3114 13.211 45.3171 13.2006L46.8763 10.3357C46.8769 10.3346 46.8777 10.3336 46.8788 10.3329C46.8799 10.3322 46.8811 10.3317 46.8824 10.3316C46.8836 10.3314 46.8849 10.3316 46.8861 10.3321C46.8873 10.3326 46.8884 10.3334 46.8892 10.3343L47.8015 11.4185C47.8061 11.4239 47.8088 11.4307 47.8092 11.4378C47.8096 11.4448 47.8078 11.4519 47.8039 11.458L46.0637 14.1479C46.0539 14.1632 46.0539 14.1785 46.0637 14.1938L46.3933 14.7035C46.3994 14.7127 46.406 14.7131 46.4133 14.7048L48.3842 12.363C48.3988 12.3459 48.4108 12.3472 48.4203 12.3671L49.0397 13.662C49.046 13.6752 49.0436 13.6868 49.0325 13.6969L46.8692 15.6264C46.8521 15.6417 46.8472 15.6601 46.8545 15.6815L47.0392 16.2165C47.0401 16.2191 47.0415 16.2215 47.0434 16.2235C47.0454 16.2256 47.0478 16.2271 47.0504 16.2281C47.053 16.2292 47.0559 16.2296 47.0587 16.2294C47.0616 16.2292 47.0643 16.2284 47.0668 16.227C47.7421 15.8646 48.4555 15.4807 49.2068 15.0754C49.2524 15.0506 49.2998 15.0298 49.3488 15.013C49.3647 15.0071 49.3734 15.0125 49.375 15.029C49.4183 15.5317 49.3387 15.9727 49.1361 16.3519C48.7533 17.0683 48.0708 17.5559 47.3199 17.8902C46.8276 18.1094 46.3124 18.2765 45.7745 18.3916C45.3844 18.4752 45.0637 18.5409 44.8123 18.5886C44.8095 18.5891 44.8069 18.5904 44.8047 18.5922C44.8026 18.5941 44.801 18.5965 44.8002 18.5991C44.7994 18.6018 44.7993 18.6046 44.8 18.6073C44.8007 18.61 44.8022 18.6124 44.8042 18.6143C45.0993 18.9009 45.4519 19.1422 45.8619 19.3385C46.094 19.4493 46.3723 19.5786 46.6968 19.7265C46.7361 19.7442 46.7342 19.7554 46.6911 19.76C45.9863 19.839 45.245 19.6764 44.5786 19.411C44.1373 19.2356 43.7502 18.982 43.4174 18.6502C43.4146 18.6473 43.4124 18.6439 43.4111 18.6402C43.4098 18.6364 43.4094 18.6324 43.4099 18.6285C43.4104 18.6245 43.4118 18.6207 43.414 18.6173C43.4162 18.6139 43.4191 18.611 43.4226 18.6088C43.7522 18.4056 44.054 18.1927 44.3279 17.9701C44.71 17.6594 45.0171 17.2891 45.2492 16.8593C45.2853 16.7923 45.2741 16.7839 45.2155 16.8341C44.7486 17.2327 44.2618 17.5573 43.6858 17.7667C43.4138 17.8656 43.2437 17.9331 43.1757 17.9692C42.9996 18.0629 42.8535 18.1747 42.7373 18.3048C42.4337 18.644 42.2405 19.0605 42.1579 19.5543C42.1348 19.6927 42.1072 19.8462 42.0753 20.0148C42.036 20.2227 42.0214 20.3773 42.0316 20.4786C42.0575 20.7434 42.1682 20.9784 42.3635 21.1835C42.5792 21.41 42.7592 21.6209 42.9035 21.8162C42.9099 21.8248 42.9094 21.8329 42.9021 21.8406L41.8525 23H41.521L40.4709 21.8433C40.4655 21.8375 40.4624 21.8299 40.4623 21.822C40.4621 21.8141 40.4648 21.8064 40.47 21.8002L41.3192 20.7918C41.3296 20.7795 41.3348 20.7653 41.3348 20.7491C41.3374 20.2299 41.2774 19.7442 41.1548 19.2921C41.0176 18.7847 40.7379 18.297 40.271 18.005C40.0758 17.8833 39.8564 17.8291 39.6018 17.7341C39.233 17.5963 38.8758 17.3954 38.5304 17.1312C38.4021 17.0332 38.2719 16.9294 38.1395 16.8198C38.1319 16.8137 38.1229 16.8108 38.1124 16.8111C38.1092 16.8112 38.1061 16.812 38.1033 16.8136C38.1005 16.8151 38.0982 16.8173 38.0965 16.82C38.0948 16.8227 38.0939 16.8257 38.0938 16.8288C38.0937 16.8319 38.0944 16.835 38.0958 16.8378C38.2775 17.1864 38.515 17.4948 38.8082 17.763C39.154 18.0792 39.5406 18.363 39.968 18.6143C39.9716 18.6165 39.9747 18.6194 39.9769 18.623C39.9791 18.6265 39.9805 18.6305 39.9809 18.6346C39.9812 18.6387 39.9806 18.6429 39.979 18.6468C39.9775 18.6507 39.975 18.6542 39.9718 18.657C39.1888 19.3483 38.2538 19.7156 37.1668 19.7591C37.0351 19.7643 36.8618 19.7647 36.6468 19.7605C36.645 19.7605 36.6432 19.7599 36.6418 19.7588C36.6404 19.7578 36.6395 19.7562 36.6391 19.7545C36.6388 19.7528 36.6391 19.751 36.64 19.7495C36.6408 19.748 36.6423 19.7468 36.6439 19.7462C36.7836 19.6865 36.9807 19.5984 37.2352 19.4817C37.7323 19.2543 38.1789 18.9644 38.575 18.612C38.5774 18.6099 38.5791 18.6071 38.58 18.604C38.5809 18.601 38.5809 18.5978 38.58 18.5948C38.5791 18.5917 38.5774 18.5891 38.575 18.587C38.5726 18.5849 38.5696 18.5836 38.5665 18.5831C37.9614 18.4781 37.4186 18.3573 36.9379 18.2208C36.1473 17.9961 35.4517 17.6355 34.8511 17.139C34.3435 16.7193 34.0598 16.1752 34 15.5066V15.1879L34.0204 15.0368C34.0208 15.0339 34.0219 15.031 34.0237 15.0286C34.0255 15.0261 34.0279 15.0241 34.0307 15.0228C34.0334 15.0214 34.0365 15.0207 34.0396 15.0208C34.0427 15.0208 34.0457 15.0216 34.0484 15.0231L36.3148 16.2344C36.3159 16.235 36.3171 16.2353 36.3184 16.2353C36.3196 16.2354 36.3209 16.2352 36.322 16.2347C36.3232 16.2342 36.3243 16.2335 36.3252 16.2326C36.3261 16.2316 36.3267 16.2305 36.3272 16.2293L36.5181 15.676C36.5238 15.6595 36.5192 15.6446 36.5043 15.6315L34.3405 13.7011C34.3275 13.6897 34.3245 13.6767 34.3315 13.662L34.9451 12.369C34.9559 12.3466 34.9693 12.3451 34.9855 12.3644L36.9517 14.7007C36.9533 14.7027 36.9555 14.7043 36.9579 14.7054C36.9603 14.7064 36.963 14.7069 36.9656 14.7068C36.9683 14.7066 36.9708 14.7059 36.9731 14.7046C36.9754 14.7033 36.9773 14.7015 36.9788 14.6993L37.3041 14.1961C37.3145 14.1798 37.3139 14.1627 37.3022 14.1446L35.5725 11.4694C35.5636 11.4563 35.5643 11.4434 35.5744 11.4309L36.4563 10.3403C36.4588 10.3372 36.4619 10.3348 36.4656 10.3332C36.4692 10.3317 36.4732 10.331 36.4772 10.3313C36.4812 10.3317 36.485 10.3329 36.4883 10.3351C36.4917 10.3372 36.4944 10.3401 36.4962 10.3435L38.0464 13.1895C38.0575 13.2094 38.0721 13.2123 38.0901 13.1983L38.4435 12.92C38.4555 12.9105 38.4591 12.8987 38.4544 12.8846L37.2875 9.50138C37.2868 9.49948 37.2866 9.49741 37.2871 9.49544C37.2877 9.49348 37.2888 9.49171 37.2903 9.49036L38.4715 8.43653C38.4867 8.42306 38.4963 8.42628 38.5005 8.44617L39.5918 13.7153C39.595 13.7303 39.5892 13.7404 39.5743 13.7456C39.5467 13.7548 39.4905 13.7713 39.4057 13.7952C39.0547 13.8948 38.7959 14.1327 38.6558 14.4624C38.4492 14.9496 38.4325 15.6315 38.7275 16.0874C38.875 16.3155 39.0786 16.522 39.3382 16.7069C39.7191 16.9778 40.1133 17.1898 40.5208 17.3429C40.5258 17.3447 40.5313 17.3448 40.5363 17.3431C40.5413 17.3414 40.5456 17.3381 40.5484 17.3337C40.8366 16.8901 40.9065 16.3611 40.9549 15.8253C41.0144 15.164 41.0236 14.5137 40.9824 13.8742C40.9511 13.3884 40.8996 12.8448 40.8281 12.2436C40.666 10.8851 40.5026 9.61908 40.338 8.44571C40.2805 8.03704 40.1855 7.56684 40.1071 7.12786C40.1044 7.11316 40.1078 7.09797 40.1166 7.08561L41.56 5H41.8083ZM41.1026 17.7488L41.6811 18.3549C41.6818 18.3557 41.6828 18.3564 41.6839 18.3569C41.685 18.3573 41.6861 18.3576 41.6873 18.3576C41.6885 18.3576 41.6897 18.3573 41.6909 18.3569C41.692 18.3564 41.693 18.3557 41.6939 18.3549L42.2187 17.8048C42.2285 17.7946 42.2357 17.7822 42.2396 17.7687C42.2435 17.7552 42.244 17.741 42.241 17.7272C42.1932 17.5001 42.1361 17.2178 42.0696 16.8805C42.0116 16.5878 41.9717 16.3068 41.9499 16.0374C41.8707 15.0624 41.843 14.0851 41.8668 13.1055C41.8934 12.0145 41.9334 11.0346 41.9869 10.1658C42.036 9.36531 42.0992 8.4327 42.1764 7.36801C42.178 7.34505 42.1718 7.32439 42.1579 7.30602L41.6925 6.70082C41.6909 6.69887 41.6889 6.69729 41.6867 6.6962C41.6844 6.69511 41.6819 6.69454 41.6794 6.69454C41.677 6.69454 41.6745 6.69511 41.6723 6.6962C41.6701 6.69729 41.6682 6.69887 41.6668 6.70082L41.1919 7.35423C41.17 7.38454 41.1615 7.41791 41.1662 7.45434C41.2115 7.81189 41.246 8.09291 41.2698 8.2974C41.29 8.47281 41.3081 8.75505 41.3239 9.14413C41.3933 10.8584 41.445 12.462 41.4792 13.955C41.4859 14.2473 41.4871 14.7107 41.483 15.3449C41.4773 16.173 41.3473 16.9604 41.0931 17.707C41.0877 17.7226 41.0909 17.7365 41.1026 17.7488ZM42.1142 21.8819C42.1164 21.8802 42.1182 21.878 42.1196 21.8756C42.1209 21.8732 42.1217 21.8705 42.122 21.8678C42.1223 21.865 42.122 21.8623 42.1211 21.8597C42.1203 21.857 42.1189 21.8546 42.1171 21.8525L41.702 21.374C41.7 21.3717 41.6975 21.3699 41.6946 21.3686C41.6918 21.3673 41.6887 21.3666 41.6856 21.3666C41.6825 21.3666 41.6794 21.3673 41.6765 21.3686C41.6737 21.3699 41.6712 21.3717 41.6692 21.374L41.2541 21.8534C41.2523 21.8555 41.2509 21.858 41.25 21.8606C41.2492 21.8632 41.2489 21.866 41.2491 21.8687C41.2494 21.8714 41.2502 21.8741 41.2516 21.8765C41.2529 21.8789 41.2547 21.8811 41.257 21.8828L41.6725 22.2097C41.6763 22.2127 41.681 22.2142 41.6858 22.2142C41.6906 22.2142 41.6953 22.2127 41.6991 22.2097L42.1142 21.8819Z" fill="currentColor"/>
  <path d="M56.8799 16.1007H61.1173C61.1213 16.1007 61.1252 16.0996 61.1285 16.0976C61.1319 16.0956 61.1346 16.0927 61.1363 16.0893L63.5926 10.9106C63.6013 10.8922 63.6152 10.8767 63.6327 10.8657C63.6502 10.8548 63.6706 10.849 63.6914 10.8491H64.9751C64.987 10.8491 64.9987 10.8523 65.0087 10.8585C65.0187 10.8647 65.0267 10.8735 65.0317 10.884L68.0133 17.1169C68.0206 17.1323 68.0238 17.1491 68.0227 17.166C68.0215 17.1828 68.0159 17.1991 68.0065 17.2134C67.9971 17.2276 67.9841 17.2393 67.9688 17.2474C67.9534 17.2555 67.9362 17.2597 67.9188 17.2597H66.6939C66.6769 17.2597 66.6603 17.255 66.646 17.2461C66.6316 17.2373 66.6203 17.2246 66.6132 17.2097L64.3311 12.4397C64.3302 12.4375 64.3286 12.4356 64.3266 12.4343C64.3246 12.433 64.3222 12.4323 64.3197 12.4323C64.3173 12.4323 64.3149 12.433 64.3129 12.4343C64.3109 12.4356 64.3093 12.4375 64.3083 12.4397L62.0519 17.1968C62.0429 17.2157 62.0284 17.2318 62.0102 17.243C61.992 17.2542 61.9709 17.2602 61.9493 17.2602C60.9115 17.2599 59.0287 17.26 56.301 17.2606C56.1018 17.2606 55.9677 17.2455 55.8987 17.2152C55.7971 17.1708 55.727 17.0953 55.6883 16.9888C55.6671 16.9313 55.6565 16.8356 55.6565 16.7018C55.6571 13.8904 55.6571 11.0459 55.6565 8.16835C55.6565 7.99447 55.7342 7.87202 55.8897 7.801C55.9518 7.77284 56.0404 7.75784 56.1557 7.756C56.4112 7.75187 56.6643 7.7257 56.7997 7.9732C56.8351 8.03809 56.8527 8.1408 56.8524 8.28131C56.8486 10.1346 56.8486 12.7323 56.8524 16.0746C56.8527 16.092 56.8619 16.1007 56.8799 16.1007Z" fill="currentColor"/>
  <path d="M85.9558 7.76795C85.9704 7.75983 85.987 7.75555 86.0038 7.75555H86.9432C87.0302 7.75555 87.0738 7.79749 87.0738 7.88137V13.5624C87.0738 13.5688 87.0723 13.5753 87.0694 13.5812C87.0666 13.5872 87.0624 13.5925 87.0572 13.5968C87.0401 13.6106 87.0207 13.6183 86.9992 13.6198C86.9831 13.621 86.9693 13.616 86.9579 13.6046C86.5172 13.1626 86.2088 12.8569 86.0327 12.6876C85.9881 12.6448 85.9512 12.6019 85.9221 12.5591C85.8929 12.5159 85.8785 12.4637 85.8788 12.4025C85.8817 10.7629 85.8817 9.26688 85.8788 7.91443C85.8788 7.84524 85.9045 7.79642 85.9558 7.76795Z" fill="currentColor"/>
  <path d="M77.1691 9.28418L76.4977 8.63723C76.449 8.59033 76.3702 8.59046 76.3217 8.63752L75.6526 9.28674C75.604 9.3338 75.6042 9.40998 75.6529 9.45688L76.3243 10.1038C76.373 10.1507 76.4518 10.1506 76.5003 10.1035L77.1695 9.45432C77.218 9.40725 77.2178 9.33108 77.1691 9.28418Z" fill="currentColor"/>
  <path d="M68.9013 13.0307V10.9855C68.9013 10.8946 68.9483 10.8491 69.0423 10.8491H70.0777C70.0879 10.8491 70.098 10.8511 70.1073 10.8549C70.1166 10.8587 70.1249 10.8642 70.1318 10.8712L73.7513 14.5033C73.7528 14.5048 73.7547 14.5058 73.7567 14.5063C73.7588 14.5067 73.761 14.5065 73.763 14.5057C73.7649 14.5049 73.7666 14.5035 73.7677 14.5018C73.7689 14.5001 73.7694 14.498 73.7693 14.496V10.9685C73.7693 10.9368 73.7823 10.9065 73.8055 10.8841C73.8287 10.8617 73.8601 10.8491 73.8928 10.8491H74.8413C74.8735 10.8491 74.9044 10.8615 74.9272 10.8836C74.95 10.9056 74.9628 10.9355 74.9628 10.9667V17.1803C74.9627 17.1968 74.9576 17.2129 74.9481 17.2265C74.9385 17.2401 74.925 17.2507 74.9092 17.2569C74.8935 17.2631 74.8762 17.2646 74.8595 17.2613C74.8428 17.258 74.8276 17.2499 74.8156 17.2382L70.138 12.6161C70.1089 12.5873 70.0943 12.5929 70.0943 12.633V14.1024C70.0943 14.1301 70.083 14.1566 70.0627 14.1761C70.0425 14.1957 70.0151 14.2067 69.9865 14.2067H67.4917C67.4619 14.2067 67.4404 14.1938 67.4271 14.1681C67.2378 13.8032 67.0885 13.5124 66.9792 13.2957C66.9533 13.2442 66.936 13.2024 66.9275 13.1703C66.924 13.1571 66.9237 13.1433 66.9266 13.1299C66.9295 13.1166 66.9355 13.104 66.9441 13.0933C66.9528 13.0825 66.9639 13.0738 66.9765 13.0678C66.9892 13.0618 67.0031 13.0587 67.0172 13.0587H68.8723C68.88 13.0587 68.8874 13.0558 68.8928 13.0505C68.8982 13.0453 68.9013 13.0381 68.9013 13.0307Z" fill="currentColor"/>
  <path d="M76.5697 10.8459H76.2477C76.0071 10.8459 75.8122 11.0344 75.8122 11.267V16.8359C75.8122 17.0685 76.0071 17.257 76.2477 17.257H76.5697C76.8102 17.257 77.0052 17.0685 77.0052 16.8359V11.267C77.0052 11.0344 76.8102 10.8459 76.5697 10.8459Z" fill="currentColor"/>
  <path d="M81.3055 10.8491C81.5265 10.8491 81.7437 10.8497 81.9571 10.851C81.9695 10.851 81.9817 10.8542 81.9924 10.8604C82.003 10.8665 82.0119 10.8753 82.0179 10.8859C82.0527 10.9459 82.0861 11.0097 82.1181 11.0773C83.4992 13.9898 84.4557 16.0059 84.9876 17.1257C84.9944 17.14 84.9973 17.1557 84.9961 17.1714C84.995 17.1871 84.9898 17.2023 84.981 17.2156C84.9722 17.2288 84.9601 17.2397 84.9458 17.2473C84.9316 17.2548 84.9156 17.2588 84.8993 17.2589H83.6806C83.6593 17.2589 83.6385 17.2529 83.6206 17.2418C83.6026 17.2306 83.5884 17.2147 83.5795 17.196L81.3117 12.4168C81.3113 12.4168 81.3104 12.4166 81.3088 12.4163C81.3079 12.4163 81.3069 12.4163 81.306 12.4163C81.305 12.4163 81.3041 12.4163 81.3031 12.4163C81.3015 12.4166 81.3006 12.4168 81.3003 12.4168L79.0353 17.1969C79.0265 17.2157 79.0122 17.2317 78.9943 17.243C78.9764 17.2542 78.9555 17.2602 78.9342 17.2602L77.7155 17.2607C77.6992 17.2607 77.6832 17.2567 77.6689 17.2491C77.6547 17.2415 77.6426 17.2306 77.6338 17.2174C77.625 17.2041 77.6198 17.189 77.6186 17.1733C77.6175 17.1576 77.6204 17.1419 77.6271 17.1275C78.1584 16.0074 79.1138 13.9909 80.4934 11.0778C80.5253 11.0101 80.5587 10.9463 80.5936 10.8863C80.5996 10.8758 80.6084 10.867 80.6191 10.8608C80.6298 10.8547 80.642 10.8514 80.6544 10.8514C80.8678 10.8499 81.0848 10.8491 81.3055 10.8491Z" fill="currentColor"/>
  <path d="M87.7654 12.9026C87.7003 12.8296 87.7198 12.7648 87.7991 12.7074C88.5432 12.1689 89.3911 11.5561 90.3428 10.8688C90.3604 10.8563 90.3817 10.8495 90.4036 10.8496C90.9729 10.8489 91.5477 10.8488 92.1281 10.8491C92.1474 10.8491 92.1644 10.8529 92.1789 10.8606C92.2099 10.8762 92.2209 10.9033 92.2117 10.9418C92.2083 10.9563 92.1996 10.9692 92.187 10.9781L88.9337 13.3167C88.9274 13.3213 88.9222 13.3272 88.9187 13.334C88.9151 13.3408 88.9133 13.3482 88.9133 13.3558V13.7814C88.9133 13.8038 88.9221 13.8252 88.938 13.8411C89.1789 14.0842 90.2547 15.1709 92.1651 17.1013C92.1876 17.1237 92.2031 17.1466 92.2117 17.1702C92.2152 17.1797 92.2163 17.1899 92.2149 17.1999C92.2135 17.2098 92.2096 17.2193 92.2036 17.2276C92.1976 17.2358 92.1896 17.2425 92.1804 17.2472C92.1711 17.2518 92.1609 17.2542 92.1504 17.2542C91.7768 17.2546 91.2756 17.2546 90.6468 17.2542C90.6075 17.2542 90.5643 17.2281 90.5171 17.1757C90.4842 17.1387 90.4668 17.1194 90.4649 17.1179C89.2358 15.8459 88.3385 14.9181 87.773 14.3343C87.7131 14.2725 87.7111 14.2129 87.7668 14.1557C87.7776 14.1444 87.7798 14.1316 87.7735 14.1176C87.7511 14.0703 87.7293 14.0253 87.7288 13.9775C87.726 13.7225 87.7255 13.4296 87.7274 13.0986C87.7277 13.0699 87.7331 13.0397 87.7435 13.0082C87.7572 12.9684 87.7651 12.9465 87.7673 12.9425C87.7768 12.9278 87.7761 12.9145 87.7654 12.9026Z" fill="currentColor"/>
  <path d="M101.633 12.4217C101.632 12.4196 101.63 12.4178 101.628 12.4166C101.626 12.4154 101.624 12.4147 101.621 12.4148C101.619 12.4148 101.617 12.4156 101.615 12.4169C101.613 12.4182 101.611 12.42 101.61 12.4222L99.3364 17.2147C99.3301 17.2282 99.3198 17.2395 99.3069 17.2475C99.294 17.2555 99.2791 17.2597 99.2638 17.2597C97.3365 17.2603 95.4064 17.2603 93.4734 17.2597C93.3057 17.2597 93.1941 17.2657 93.0773 17.183C92.9535 17.0955 92.8916 16.9758 92.8916 16.8239C92.8919 14.914 92.8918 13.0697 92.8911 11.2908C92.8911 11.1086 92.9608 10.9811 93.1001 10.9083C93.1761 10.8685 93.3076 10.8486 93.4948 10.8486C94.8547 10.8489 96.2145 10.849 97.5744 10.849C97.7435 10.8493 97.8638 10.8679 97.9354 10.9046C98.1762 11.0281 98.1553 11.2922 98.151 11.5543C98.1478 11.7362 98.081 11.8652 97.9506 11.9414C97.8743 11.9861 97.7429 12.0085 97.5564 12.0085C96.1917 12.0085 95.0405 12.0083 94.1027 12.008C94.098 12.008 94.0936 12.0099 94.0903 12.0131C94.087 12.0164 94.0851 12.0208 94.0851 12.0255V16.0847C94.0851 16.0954 94.0907 16.1007 94.1017 16.1007H98.4032C98.4165 16.1007 98.4258 16.0951 98.4312 16.0837L100.887 10.9069C100.895 10.8896 100.908 10.875 100.925 10.8647C100.941 10.8545 100.96 10.849 100.98 10.849H102.25C102.27 10.849 102.291 10.8547 102.308 10.8655C102.325 10.8762 102.339 10.8915 102.348 10.9097L105.993 18.5307C106.001 18.5464 106.002 18.5642 105.997 18.5809C105.992 18.5975 105.981 18.6118 105.966 18.6212C105.932 18.6429 105.888 18.6532 105.833 18.652C105.796 18.651 105.411 18.65 104.677 18.6487C104.657 18.6487 104.638 18.6433 104.622 18.6331C104.606 18.6229 104.593 18.6084 104.584 18.5913L101.633 12.4217Z" fill="currentColor"/>
  <path d="M85.8726 15.1838L84.5818 13.9077C84.5696 13.8956 84.5628 13.8795 84.5628 13.8627V12.4415C84.5628 12.425 84.5678 12.4089 84.5772 12.3951C84.5866 12.3813 84.6 12.3704 84.6156 12.3638C84.6313 12.3573 84.6486 12.3552 84.6655 12.358C84.6823 12.3608 84.698 12.3683 84.7105 12.3796C84.796 12.457 84.8634 12.519 84.9128 12.5655C85.724 13.3296 86.4266 13.9951 87.0205 14.5621C87.0525 14.5927 87.069 14.6288 87.0699 14.6704C87.0731 14.8593 87.0748 15.6854 87.0752 17.1486C87.0752 17.178 87.0631 17.2061 87.0416 17.2269C87.0202 17.2476 86.9911 17.2593 86.9607 17.2593H86.0175C85.9301 17.2593 85.8864 17.2172 85.8864 17.133V15.2159C85.8864 15.2039 85.8814 15.1923 85.8726 15.1838Z" fill="currentColor"/>
  <path d="M96.8957 13.7372L96.2261 13.0898C96.1775 13.0428 96.0987 13.0428 96.0501 13.0898L95.3805 13.7372C95.3319 13.7842 95.3319 13.8603 95.3805 13.9073L96.0501 14.5548C96.0987 14.6017 96.1775 14.6017 96.2261 14.5548L96.8957 13.9073C96.9443 13.8603 96.9443 13.7842 96.8957 13.7372Z" fill="currentColor"/>
  <path d="M69.6902 14.7622H69.2998C69.0765 14.7622 68.8956 14.9372 68.8956 15.153V19.6741C68.8956 19.8899 69.0765 20.0649 69.2998 20.0649H69.6902C69.9134 20.0649 70.0943 19.8899 70.0943 19.6741V15.153C70.0943 14.9372 69.9134 14.7622 69.6902 14.7622Z" fill="currentColor"/>
</svg>