<svg xmlns="http://www.w3.org/2000/svg" width="140" height="28" viewBox="0 0 140 28" fill="none">
  <path d="M94.6202 7.65595C94.7823 7.84588 94.8897 8.06266 94.9424 8.3063C95.0255 8.69102 95.0187 9.10776 94.9219 9.55654C94.8829 9.73741 94.82 9.88624 94.7333 10.003C94.5375 10.2668 94.2838 10.4683 93.9722 10.6078C93.9035 10.6385 93.7605 10.6854 93.5434 10.7485C93.3689 10.799 93.2206 10.8226 93.0985 10.8194C92.9667 10.8155 92.8091 10.7893 92.6256 10.7408C91.9551 10.5636 91.4607 10.1681 91.2456 9.5279C91.1472 9.23508 91.1161 8.93191 91.1525 8.61838C91.176 8.41745 91.2601 8.25195 91.3577 8.02141C91.5118 7.65692 91.8315 7.37397 92.1968 7.16818C92.3219 7.09765 92.4834 7.05219 92.6812 7.0318C93.0265 6.99686 93.2828 6.99071 93.4503 7.01336C93.919 7.0771 94.3089 7.2913 94.6202 7.65595Z" fill="currentColor"/>
  <path d="M72.8415 16.6128C72.8356 16.6128 72.8298 16.6143 72.8247 16.6172C72.8196 16.6201 72.8153 16.6242 72.8123 16.6292C72.8094 16.6342 72.8078 16.6399 72.8077 16.6457C72.8076 16.6515 72.8091 16.6572 72.812 16.6623C72.881 16.7817 72.9201 16.8836 72.9576 17.0331C73.0453 17.3787 73.2001 17.6948 73.422 17.9815C73.7239 18.3717 74.1098 18.6936 74.5799 18.9473C74.764 19.0466 74.9648 19.122 75.1823 19.1735C75.6832 19.2924 76.1701 19.3225 76.65 19.2312C76.7117 19.2196 76.8374 19.1971 77.0273 19.1637C77.4299 19.0932 77.805 18.9324 78.1526 18.6813C78.219 18.6331 78.3565 18.516 78.565 18.3299C78.7678 18.1484 78.9409 17.9287 79.0844 17.6708C79.116 17.6142 79.1611 17.584 79.2195 17.5801C79.2545 17.5775 79.3015 17.59 79.3606 17.6175C79.6708 17.7614 80.0219 17.9108 80.4139 18.0654C80.5687 18.1266 80.7141 18.202 80.8502 18.2916C80.8584 18.2969 80.8644 18.3046 80.8675 18.3137C80.8706 18.3227 80.8705 18.3325 80.8672 18.3416C80.8399 18.4137 80.807 18.4796 80.7687 18.5391C80.6526 18.7193 80.515 18.9164 80.3558 19.1303C80.2107 19.3257 80.0473 19.502 79.8655 19.6593C79.5319 19.9482 79.2957 20.1333 79.1569 20.2145C78.6882 20.4886 78.211 20.7005 77.7253 20.8503C77.5015 20.9192 77.2413 20.9613 76.9447 20.9765C76.4777 21.0001 75.9978 20.997 75.5051 20.9673C75.1141 20.9437 74.7847 20.8966 74.5168 20.826C73.967 20.6821 73.459 20.4556 72.9926 20.1466C72.7474 19.9845 72.4996 19.774 72.249 19.5151C71.9975 19.255 71.7722 18.9754 71.573 18.6765C71.2551 18.1992 71.0454 17.7343 70.944 17.2816C70.915 17.1519 70.8501 16.7762 70.7494 16.1546C70.7277 16.0226 70.7255 15.8913 70.7429 15.7606C70.8333 15.0662 70.8987 14.635 70.939 14.4671C70.9467 14.4348 71.0131 14.2544 71.1382 13.926C71.2209 13.7089 71.3028 13.5349 71.3839 13.4042C71.6426 12.9888 71.8893 12.6068 72.2541 12.2821C72.5713 12 72.9291 11.7523 73.3274 11.5391C73.6943 11.343 74.0665 11.1822 74.4438 11.0566C74.7146 10.9664 74.9825 10.9112 75.2474 10.8911C75.9066 10.8416 76.542 10.8685 77.1539 10.9717C77.2362 10.9859 77.4364 11.0413 77.7543 11.1377C77.9958 11.2111 78.1927 11.2843 78.3448 11.3571C78.7808 11.5671 79.1454 11.7877 79.4386 12.0191C80.1088 12.5484 80.605 13.2253 80.9273 14.0497C80.987 14.2028 81.0651 14.4687 81.1615 14.8476C81.2275 15.1065 81.2624 15.3786 81.266 15.664C81.2707 16.0254 81.2684 16.3117 81.259 16.523C81.2564 16.5829 81.2242 16.6128 81.1625 16.6128H72.8415ZM79.0798 15.0185C79.0904 15.0185 79.1007 15.0153 79.1094 15.0094C79.1181 15.0035 79.1247 14.9952 79.1284 14.9855C79.1394 14.9563 79.1357 14.9177 79.1174 14.8695C79.033 14.6511 78.9761 14.5053 78.9467 14.4322C78.8497 14.1885 78.7336 14.0124 78.573 13.7823C78.3718 13.4937 78.1211 13.2643 77.8209 13.0941C76.9739 12.6146 76.0643 12.4934 75.0923 12.7306C74.8924 12.7794 74.7188 12.8411 74.5713 12.9155C73.9268 13.242 73.4451 13.722 73.1262 14.3555C73.0358 14.5351 72.9844 14.7315 72.9721 14.9447C72.9681 15.012 73.0008 15.0445 73.0702 15.0422C73.7854 15.0215 74.4014 15.0122 74.9181 15.0141C76.6098 15.0202 77.997 15.0217 79.0798 15.0185Z" fill="currentColor"/>
  <path d="M88.9837 18.4178C88.9657 18.3786 88.9499 18.3795 88.9362 18.4202C88.8812 18.5836 88.8248 18.7448 88.7671 18.9036C88.6825 19.1351 88.5504 19.2972 88.4313 19.5098C88.396 19.5726 88.3446 19.6494 88.2772 19.7403C88.0257 20.0788 87.7086 20.358 87.326 20.578C86.917 20.8136 86.4875 20.9454 86.0375 20.9736C85.509 21.0069 85.0429 21.0087 84.6389 20.9789C84.3393 20.9569 84.0519 20.8762 83.7767 20.7367C83.6573 20.6766 83.5035 20.5808 83.3153 20.4494C83.1409 20.3278 83.0034 20.2108 82.903 20.0985C82.5544 19.7083 82.3574 19.2587 82.3121 18.7498C82.267 18.2416 82.2545 17.7485 82.4071 17.2777C82.5146 16.9471 82.6872 16.6691 82.925 16.4439C83.0978 16.2799 83.2887 16.1296 83.4975 15.993C83.674 15.8775 83.8921 15.7716 84.152 15.6751C84.4909 15.549 84.7955 15.4498 85.0657 15.3776C85.507 15.2602 85.9479 15.2587 86.4693 15.1791C86.909 15.1118 87.3545 15.0578 87.8058 15.017C87.988 15.0008 88.1269 14.9777 88.2227 14.9476C88.3538 14.9065 88.4857 14.8556 88.6185 14.7947C88.8732 14.6783 88.9777 14.5205 89.0073 14.2468C89.0468 13.876 89.0108 13.4178 88.7335 13.1349C88.5341 12.9314 88.2954 12.784 88.0175 12.6927C87.7439 12.6031 87.5054 12.5397 87.3019 12.5025C87.0781 12.462 86.8332 12.4709 86.5674 12.5292C86.3058 12.5864 86.0348 12.6745 85.7542 12.7932C85.476 12.911 85.2497 13.0839 85.0752 13.312C85.0429 13.3544 84.9725 13.4502 84.864 13.5994C84.748 13.759 84.7024 13.9876 84.6394 14.1735C84.6294 14.2026 84.6093 14.2274 84.5825 14.2436C84.5557 14.2599 84.524 14.2665 84.4928 14.2623C84.3261 14.2405 84.0904 14.2099 83.9093 14.1638C83.4816 14.0551 83.0653 13.9685 82.6603 13.9041C82.5993 13.8944 82.5706 13.8595 82.5743 13.7993C82.5839 13.6511 82.6101 13.5181 82.6528 13.4004C82.8126 12.9584 83.0271 12.5806 83.2963 12.2671C83.5345 11.9901 83.8084 11.7578 84.118 11.5701C84.4699 11.3572 84.8862 11.1824 85.3669 11.0455C85.6668 10.9598 85.9202 10.9114 86.127 10.9004C86.5557 10.8768 86.9058 10.8659 87.1773 10.8679C87.5326 10.8701 87.8257 10.8965 88.0565 10.947C88.2357 10.9861 88.4618 11.0453 88.7351 11.1246C89.475 11.3401 90.0719 11.7347 90.5259 12.3083C90.6605 12.4782 90.7656 12.6724 90.8422 12.8961C90.9633 13.2504 91.0347 13.4783 91.0564 13.5799C91.0981 13.7744 91.1209 14.0308 91.1249 14.3492C91.1296 14.7294 91.1336 15.1097 91.1369 15.4902C91.1456 16.4405 91.1466 18.1535 91.1399 20.629C91.1399 20.6876 91.1309 20.738 91.1129 20.7804C91.1077 20.7926 91.0989 20.8031 91.0875 20.8104C91.0761 20.8178 91.0626 20.8217 91.0488 20.8217H89.1309C89.0701 20.8217 89.0378 20.7924 89.0338 20.7338C89.0064 20.3171 88.9989 19.8923 89.0113 19.4593C89.0113 19.4577 89.0168 19.3558 89.0278 19.1536C89.0401 18.9374 89.0323 18.7215 89.0043 18.5056C88.9993 18.4662 88.9924 18.4369 88.9837 18.4178ZM88.8126 16.2872C88.5694 16.381 88.3146 16.4578 88.048 16.5177C87.9086 16.5488 87.6499 16.5818 87.2719 16.6167C86.9113 16.6504 86.5827 16.6963 86.2861 16.7545C86.1667 16.7782 86.0013 16.7994 85.7898 16.8181C85.5756 16.8372 85.4126 16.8673 85.3009 16.9084C85.0257 17.0093 84.6299 17.2496 84.4933 17.5325C84.3435 17.8438 84.3196 18.1756 84.4217 18.528C84.4928 18.7716 84.6372 18.9653 84.855 19.1089C85.0665 19.2487 85.2318 19.3288 85.3509 19.3492C86.0445 19.4686 86.7123 19.3864 87.3545 19.1026C87.562 19.0107 87.7399 18.9077 87.8884 18.7935C88.0902 18.6381 88.2852 18.4495 88.4733 18.2275C88.7426 17.9096 88.9017 17.5248 88.9637 17.1355C89.0181 16.7961 89.0506 16.5012 89.0613 16.2508C89.0619 16.2395 89.0591 16.2283 89.0534 16.2184C89.0476 16.2086 89.039 16.2006 89.0287 16.1954C89.0184 16.1901 89.0068 16.1878 88.9952 16.1888C88.9836 16.1897 88.9725 16.1939 88.9632 16.2008C88.9082 16.2409 88.858 16.2697 88.8126 16.2872Z" fill="currentColor"/>
  <path d="M61.9711 13.4542C61.9891 13.4895 62.0058 13.4887 62.0211 13.4518C62.1202 13.2133 62.2091 13.0093 62.2878 12.8398C62.3899 12.6194 62.5028 12.4279 62.6266 12.2651C63.1127 11.6264 63.7613 11.1985 64.5726 10.9814C64.7741 10.9274 64.9911 10.8986 65.2236 10.895C65.6063 10.8889 65.9028 10.8897 66.1133 10.8975C66.3125 10.9049 66.5118 10.9386 66.7113 10.9984C67.1173 11.1197 67.4792 11.2817 67.7971 11.4842C68.0854 11.6677 68.333 11.8819 68.5402 12.1268C68.7954 12.4281 69.0019 12.7605 69.1597 13.1242C69.2197 13.2633 69.2809 13.4558 69.3433 13.7018C69.4157 13.9878 69.4623 14.1843 69.4829 14.2914C69.522 14.4937 69.5416 14.7457 69.542 15.0476C69.5453 17.8263 69.5487 19.4118 69.552 19.8039C69.5547 20.1097 69.5593 20.32 69.566 20.4349C69.5733 20.5562 69.5682 20.6625 69.5505 20.7537C69.5466 20.7731 69.536 20.7906 69.5204 20.8032C69.5048 20.8158 69.4852 20.8226 69.4649 20.8226H67.5004C67.4846 20.8226 67.4694 20.8166 67.4581 20.8058C67.4469 20.7949 67.4405 20.7803 67.4403 20.7649C67.4323 19.0665 67.4315 17.2295 67.4378 15.2539C67.4385 15.0565 67.4197 14.8811 67.3813 14.7278C67.3433 14.5754 67.2886 14.4092 67.2172 14.2293C67.0347 13.7699 66.7436 13.3947 66.344 13.1038C66.1935 12.9945 65.9787 12.8914 65.6995 12.7947C65.4817 12.7189 65.2481 12.6767 64.999 12.668C64.5486 12.6521 64.1688 12.6892 63.8596 12.7791C63.1046 12.9988 62.5629 13.4617 62.2343 14.1677C62.1853 14.2732 62.1381 14.4217 62.0927 14.6132C62.0363 14.8533 62.003 15.006 61.9926 15.0714C61.9451 15.3762 61.9696 15.8144 61.9691 16.077C61.9638 17.6243 61.9636 19.1882 61.9686 20.7688C61.9689 20.7892 61.9586 20.8002 61.9376 20.8018C61.7638 20.815 61.6123 20.822 61.4832 20.8226C60.9565 20.8249 60.4314 20.8246 59.908 20.8217C59.9062 20.8217 59.9043 20.8213 59.9026 20.8206C59.9009 20.82 59.8994 20.819 59.8981 20.8177C59.8968 20.8164 59.8958 20.8149 59.8951 20.8133C59.8944 20.8116 59.894 20.8099 59.894 20.8081V11.0659C59.894 11.0445 59.905 11.0338 59.927 11.0338C60.7807 11.0296 61.2574 11.0296 61.3571 11.0338C61.5333 11.041 61.7137 11.051 61.8985 11.0639C61.9155 11.0652 61.9313 11.0725 61.9429 11.0844C61.9545 11.0964 61.961 11.1121 61.9611 11.1285C61.9628 11.6332 61.9646 12.3892 61.9666 13.3965C61.9666 13.4288 61.9681 13.4481 61.9711 13.4542Z" fill="currentColor"/>
  <path d="M58.0247 10.9678H56.1022C56.0494 10.9678 56.0066 11.0093 56.0066 11.0605V20.7625C56.0066 20.8137 56.0494 20.8552 56.1022 20.8552H58.0247C58.0774 20.8552 58.1202 20.8137 58.1202 20.7625V11.0605C58.1202 11.0093 58.0774 10.9678 58.0247 10.9678Z" fill="currentColor"/>
  <path d="M47.2097 18.9507C47.7231 18.9623 48.2871 18.9376 48.8785 18.941C50.4087 18.9504 51.9449 18.9486 53.4871 18.9356C53.5128 18.9353 53.6721 18.9298 53.965 18.9191C54.1478 18.9127 54.3079 18.9145 54.4453 18.9245C54.5201 18.93 54.5546 18.9688 54.5489 19.041C54.5336 19.2467 54.5279 19.4687 54.5319 19.7068C54.5416 20.2478 54.5469 20.5915 54.5479 20.7377C54.5481 20.7548 54.5413 20.7712 54.5292 20.7835C54.5171 20.7958 54.5004 20.8031 54.4829 20.8037C54.3418 20.8086 54.1856 20.8126 54.0145 20.8158C53.7203 20.821 50.7201 20.8236 45.014 20.8236C45.0103 20.8236 45.0067 20.8222 45.0041 20.8196C45.0015 20.8171 45 20.8136 45 20.81C45.002 14.6116 45.0047 11.405 45.008 11.1901C45.009 11.1358 45.0117 11.0898 45.016 11.0523C45.0177 11.039 45.0254 11.0324 45.039 11.0324C45.8083 11.0298 46.4506 11.0308 46.966 11.0353C46.9877 11.0356 47.0287 11.0432 47.0891 11.0581C47.0962 11.0597 47.1026 11.0637 47.1071 11.0693C47.1117 11.075 47.1141 11.082 47.1141 11.0892C47.1221 12.9396 47.1243 15.3147 47.1206 18.2144C47.1203 18.3526 47.1233 18.572 47.1297 18.8726C47.1307 18.9233 47.1573 18.9494 47.2097 18.9507Z" fill="currentColor"/>
</svg>