<svg xmlns="http://www.w3.org/2000/svg" width="140" height="28" viewBox="0 0 140 28" fill="none">
  <path d="M74.791 6C74.7858 6.5718 74.8827 7.10514 75.0817 7.6C75.1009 7.64721 75.1263 7.68131 75.1577 7.70229C75.1961 7.72678 75.2398 7.74076 75.2887 7.74426C75.3934 7.75301 75.4414 7.70492 75.4327 7.6C75.3568 6.77902 76.0797 6.50623 76.6952 6.98623C76.758 7.03519 76.7938 7.09989 76.8026 7.18033L76.8445 7.63148C76.8619 7.81683 76.93 7.83781 77.0488 7.69443C77.419 7.25027 77.4879 6.68546 77.2557 6H78.7329C78.4815 7.41377 78.2693 8.5023 76.9414 9.02951C76.8453 9.06798 76.8052 9.13967 76.8209 9.24459L76.9571 10.1128C76.9693 10.195 76.9623 10.2798 76.9361 10.3672C76.882 10.5368 76.8576 10.6925 76.8628 10.8341C76.8663 10.9215 76.9073 10.9836 76.9859 11.0203C78.2065 11.5764 78.4422 12.5443 78.691 13.7561C78.7434 14.0131 78.7294 14.3113 78.6491 14.6505C78.3741 15.8151 78.2196 16.6177 76.9204 17.1974C76.8401 17.2341 76.8087 17.2962 76.8261 17.3836L76.9571 18.0184C76.9746 18.0988 76.9728 18.1845 76.9519 18.2754L76.8314 18.8341C76.8069 18.9443 76.8419 19.0221 76.9361 19.0675C78.2196 19.6944 78.5077 20.6649 78.7015 22H77.329C77.4827 21.4055 77.3945 20.8975 77.0645 20.4761C76.9056 20.2732 76.8261 20.3012 76.8261 20.56V20.9141C76.8261 21.0155 76.7886 21.1012 76.7135 21.1711C76.187 21.6616 75.2808 21.4046 75.4327 20.5469C75.4554 20.4227 75.4257 20.3711 75.3437 20.3921C75.2127 20.4271 75.1324 20.4734 75.1027 20.5311C74.9089 20.9141 74.8137 21.4037 74.8172 22H73.6804C73.6106 20.977 73.9144 20.1403 74.5919 19.4898C74.7884 19.2984 75.0765 19.2197 75.2887 19.057C75.3533 19.0081 75.3856 18.9425 75.3856 18.8603V17.3416C75.3856 17.2664 75.3498 17.214 75.2782 17.1843C74.337 16.8101 73.807 16.0791 73.6883 14.9915C73.5181 13.4282 73.6647 11.7049 75.2834 10.9915C75.3498 10.9617 75.3829 10.9093 75.3829 10.8341V9.20262C75.3829 9.12568 75.348 9.07148 75.2782 9.04C74.6705 8.76022 74.2506 8.40787 74.0183 7.98295C73.6813 7.36743 73.5783 6.70645 73.7093 6H74.791ZM74.812 14.097C74.8102 14.2632 74.8329 14.6024 74.8801 15.1148C74.908 15.4417 75.0363 15.6936 75.2651 15.8702C75.3454 15.9314 75.3925 15.9139 75.4065 15.8177L75.4877 15.2774C75.4926 15.2417 75.5033 15.2084 75.5191 15.1795C75.5349 15.1506 75.5554 15.1268 75.5794 15.1095C75.9653 14.8332 76.3416 14.8481 76.7083 15.1541C76.7607 15.1961 76.7921 15.2669 76.8026 15.3666L76.8445 15.823C76.8584 15.9593 76.9065 15.976 76.9885 15.8728C77.3605 15.4024 77.4827 14.9617 77.3552 14.5508C77.2871 14.3375 77.2539 14.1889 77.2557 14.1049C77.2539 14.0192 77.288 13.8697 77.3578 13.6564C77.4888 13.2472 77.3692 12.8066 76.999 12.3344C76.9187 12.2295 76.8707 12.2452 76.855 12.3816L76.8104 12.838C76.7999 12.9377 76.7685 13.0085 76.7161 13.0505C76.3459 13.3548 75.9697 13.367 75.5872 13.0872C75.5632 13.07 75.5426 13.0462 75.5269 13.0173C75.5111 12.9884 75.5004 12.955 75.4956 12.9193L75.417 12.379C75.4048 12.2828 75.3576 12.2645 75.2756 12.3239C75.0468 12.4988 74.9176 12.7497 74.8879 13.0767C74.8373 13.5891 74.812 13.9292 74.812 14.097Z" fill="currentColor"/>
  <path d="M84.139 6L84.1128 6.75803C84.1111 6.84896 84.1513 6.91454 84.2333 6.95475C85.1134 7.38492 85.6137 8.11934 85.7813 9.06623C85.8529 9.46842 85.9192 9.75956 85.9804 9.93967C86.0065 10.0184 86.0065 10.1032 85.9804 10.1941C85.9629 10.2623 85.8328 10.7196 85.5901 11.5659C85.3753 12.3143 84.9405 12.8162 84.2857 13.0715C84.2151 13.0991 84.158 13.1531 84.1262 13.2221C84.0945 13.291 84.0906 13.3696 84.1155 13.4413C84.2674 13.8942 84.2621 14.3646 84.0998 14.8525C84.0666 14.9486 84.0963 15.0203 84.1888 15.0675C85.0846 15.5134 85.6215 16.2426 85.7787 17.2157C85.8223 17.4885 85.8887 17.7701 85.9777 18.0603C86.0039 18.1425 86.0065 18.2256 85.9856 18.3095C85.79 19.1209 85.6739 19.5869 85.6372 19.7075C85.4277 20.4105 84.9781 20.9106 84.2883 21.2079C84.208 21.2428 84.16 21.304 84.1443 21.3915C84.1076 21.5821 84.112 21.7849 84.1574 22H82.6408V21.4649C82.6391 21.3722 82.5954 21.3084 82.5099 21.2734C80.9174 20.6229 80.81 19.1462 80.8938 17.6197C80.9602 16.3904 81.5041 15.5353 82.5256 15.0544C82.6042 15.0177 82.6435 14.9556 82.6435 14.8682V13.3338C82.6435 13.2306 82.5963 13.1598 82.502 13.1213C80.9305 12.5049 80.7733 10.939 80.8964 9.4282C80.9942 8.2094 81.532 7.37443 82.5099 6.92328C82.5937 6.88481 82.6365 6.81923 82.6382 6.72656L82.6435 6H84.139ZM82.0567 10.0236C82.055 10.5062 82.1248 11.0544 82.2663 11.6682C82.2764 11.7122 82.2991 11.7531 82.3314 11.7854C82.3636 11.8176 82.4038 11.8398 82.4468 11.8489C82.4897 11.858 82.5332 11.8536 82.5716 11.8364C82.6101 11.8191 82.6415 11.7897 82.6618 11.7521C82.6897 11.7032 82.6897 11.6017 82.6618 11.4479C82.6536 11.4055 82.6537 11.3622 82.6623 11.3203C82.6708 11.2784 82.6876 11.2388 82.7116 11.2039C83.1359 10.5718 84.0709 10.7738 84.0578 11.5948C84.0526 11.885 84.1364 11.9139 84.3093 11.6813C84.5188 11.398 84.6253 11.0999 84.6288 10.7869C84.6315 10.5351 84.4848 10.2859 84.4848 10.0262C84.4848 9.76656 84.6341 9.51738 84.6315 9.26557C84.628 8.95257 84.5223 8.65355 84.3145 8.36852C84.1417 8.13596 84.0578 8.16481 84.0631 8.45508C84.0736 9.27607 83.1385 9.47541 82.7142 8.84328C82.6902 8.80838 82.6734 8.76882 82.6649 8.72694C82.6563 8.68505 82.6562 8.64167 82.6644 8.59934C82.6941 8.44546 82.695 8.34404 82.667 8.29508C82.6469 8.25754 82.6157 8.2281 82.5774 8.21066C82.5392 8.19322 82.4958 8.1886 82.4529 8.19741C82.4101 8.20622 82.3698 8.22805 82.3374 8.26001C82.305 8.29197 82.282 8.33255 82.2715 8.37639C82.1283 8.99016 82.0567 9.53923 82.0567 10.0236ZM83.623 17.3023C83.4013 17.409 83.1402 17.353 82.8399 17.1344C82.6592 17.0007 82.6513 16.7357 82.6461 16.5574C82.6373 16.2933 82.5553 16.268 82.3999 16.4813C81.8629 17.2236 82.0253 19.0177 82.2244 19.6944C82.2471 19.7696 82.3318 19.8745 82.4784 20.0092C82.5902 20.1106 82.6461 20.0852 82.6461 19.9331V19.4243C82.6462 19.3496 82.6721 19.2773 82.7194 19.2197C82.9761 18.8997 83.3131 18.8227 83.7304 18.9889C83.8701 19.0466 83.9644 19.1593 84.0133 19.3272C84.0709 19.5318 84.091 19.6927 84.0736 19.8098C84.0386 20.0459 84.1015 20.0748 84.2621 19.8964C84.6114 19.5099 84.7039 19.0536 84.5398 18.5272C84.4507 18.2387 84.4743 18.1443 84.5581 17.8505C84.6891 17.3862 84.6053 16.9534 84.3617 16.602C84.1399 16.282 84.0369 16.3169 84.0526 16.7069C84.0631 16.9622 83.9199 17.1607 83.623 17.3023Z" fill="currentColor"/>
  <path d="M61.095 8.53902C61.4809 8.53902 61.9611 8.60197 62.5356 8.72787C62.6212 8.74535 62.698 8.72699 62.7661 8.67279C63.3127 8.24262 63.8016 7.95322 64.2329 7.80459C65.5137 7.36393 66.8547 7.77311 67.3733 9.0741C67.8815 10.3489 67.4048 11.5528 66.6531 12.6413C66.6024 12.7148 66.5919 12.7934 66.6216 12.8774C66.7683 13.2883 66.8897 13.548 66.9857 13.6564C68.4263 15.2634 68.5686 17.0164 67.4126 18.9154C66.4173 20.5469 64.6572 20.4997 62.9049 20.5049C62.8159 20.5049 62.7338 20.5285 62.6587 20.5757C62.1742 20.8695 61.6503 21.221 61.0898 21.221C60.5319 21.221 60.0081 20.8695 59.5235 20.5757C59.4484 20.5268 59.3664 20.5023 59.2773 20.5023C57.525 20.497 55.7649 20.5416 54.7696 18.9102C53.6154 17.0111 53.7595 15.2581 55.2018 13.6511C55.2978 13.5427 55.4192 13.2831 55.5658 12.8721C55.5955 12.7882 55.5851 12.7095 55.5344 12.6361C54.7853 11.5475 54.3086 10.3436 54.8194 9.06885C55.338 7.76787 56.679 7.36131 57.9598 7.80197C58.3911 7.9506 58.88 8.24 59.4266 8.67016C59.4947 8.72612 59.5715 8.74535 59.6571 8.72787C60.2316 8.60197 60.7109 8.53902 61.095 8.53902Z" fill="currentColor"/>
</svg>