<svg xmlns="http://www.w3.org/2000/svg" width="140" height="28" viewBox="0 0 140 28" fill="none">
  <path d="M31.1422 14.5458C31.058 21.1851 36.0259 24.565 42.5264 24.517C48.9326 24.469 54.1446 20.7702 54.0284 14.375C51.8335 23.5265 33.0854 23.4751 31.1422 14.5458Z" fill="currentColor"/>
  <path d="M42.3642 3.00048C35.2031 3.05434 30.9674 7.46008 31.0002 11.8793C31.033 16.2985 35.331 20.2447 42.493 20.1917C49.6549 20.1378 54.1684 16.1259 54.1355 11.7067C54.1019 7.28671 49.527 2.94746 42.3642 3.00048ZM32.7111 9.28549C32.5252 9.28549 32.4587 9.13484 32.4587 8.94885C32.4587 8.76286 32.6935 8.61222 32.8795 8.61222C33.0655 8.61222 33.1319 8.76286 33.1319 8.94885C33.1319 9.13484 32.8971 9.28549 32.7111 9.28549ZM39.2739 5.41837C34.731 6.67655 33.6369 8.52806 33.2161 8.19142C32.7751 7.83879 35.2629 5.09773 38.9423 4.06425C42.6217 3.03162 46.1665 3.72677 46.3197 4.27044C46.472 4.81327 43.8218 4.15851 39.2739 5.41837Z" fill="currentColor"/>
  <path d="M61.1257 9.75644H62.3359L64.9919 13.8693L67.659 9.75644H68.8801V17.7575H67.6026L67.6135 12.1769L65.0029 16.1997L62.3923 12.1769V17.7575H61.1257V9.75644Z" fill="currentColor"/>
  <path d="M69.7117 14.596C69.7117 12.7916 71.1912 11.2793 73.0174 11.2902C73.8464 11.2902 74.4296 11.5368 74.9674 11.94L75.0684 12.03V11.7944H76.3232V17.7554H75.0684V17.173L74.9455 17.263C74.396 17.6661 73.7126 17.9018 73.0183 17.9018C71.1584 17.9018 69.7117 16.3895 69.7117 14.596ZM73.0057 16.6579C74.2268 16.6579 75.0676 15.6606 75.0676 14.596C75.0676 13.3858 74.0812 12.5451 73.0166 12.5451C71.8964 12.5451 70.9547 13.4641 70.9547 14.596C70.9547 15.8062 71.952 16.6579 73.0057 16.6579Z" fill="currentColor"/>
  <path d="M77.1093 14.5073C77.1093 12.6583 78.5215 11.1342 80.4151 11.1342C81.4906 11.1342 82.7236 11.7166 83.3733 12.9386L82.2304 13.4536C81.7936 12.7922 81.2222 12.389 80.4151 12.389C79.5634 12.3554 78.3641 13.0951 78.3641 14.44C78.3641 15.5719 79.2722 16.5019 80.4151 16.5019C81.2222 16.5019 81.7818 16.0988 82.2304 15.4373L83.3733 15.9523C82.5107 17.4655 81.1885 17.7567 80.3587 17.7567C78.6217 17.7567 77.1093 16.289 77.1093 14.5073Z" fill="currentColor"/>
  <path d="M83.9648 14.596C83.9648 12.7916 85.4443 11.2793 87.2706 11.2902C88.0995 11.2902 88.6827 11.5368 89.2205 11.94L89.3215 12.03V11.7944H90.5763V17.7554H89.3215V17.173L89.1986 17.263C88.6499 17.6661 87.9657 17.9018 87.2714 17.9018C85.4115 17.9018 83.9648 16.3895 83.9648 14.596ZM87.2596 16.6579C88.4808 16.6579 89.3215 15.6606 89.3215 14.596C89.3215 13.3858 88.3352 12.5451 87.2706 12.5451C86.1504 12.5451 85.2087 13.4641 85.2087 14.596C85.2087 15.8062 86.2059 16.6579 87.2596 16.6579Z" fill="currentColor"/>
  <path d="M91.4672 11.1462H92.722V11.6166L92.8449 11.5384C93.2371 11.2918 93.7075 11.1462 94.2116 11.1462C94.5028 11.1462 94.8167 11.2026 95.097 11.2691L94.6038 12.4229C94.5028 12.4002 94.3017 12.3892 94.2453 12.3892C93.3827 12.3892 92.7212 13.0953 92.7212 13.947V17.7569H91.4664V11.1454L91.4672 11.1462Z" fill="currentColor"/>
  <path d="M98.3299 11.0005C100.179 11.0005 101.68 12.5019 101.68 14.3509C101.68 16.1999 100.179 17.7577 98.3299 17.7577C96.481 17.7577 94.9796 16.1999 94.9796 14.3509C94.9796 12.5019 96.481 11.0005 98.3299 11.0005ZM98.3299 16.4347C99.5292 16.4347 100.415 15.4711 100.415 14.3618C100.415 13.2526 99.44 12.2772 98.3417 12.2772C96.9632 12.2772 96.2234 13.4874 96.2461 14.3501C96.2015 15.2127 96.9287 16.4347 98.3299 16.4347Z" fill="currentColor"/>
  <path d="M102.466 11.1342H103.721V11.6164L103.833 11.5382C104.214 11.2689 104.786 11.1351 105.233 11.1351C106.791 11.1351 108.001 12.3899 108.001 13.9477V17.7575H106.758V13.9477C106.758 13.085 106.085 12.3899 105.245 12.3899C104.405 12.3899 103.721 13.0732 103.721 13.9477V17.7575H102.466V11.1342Z" fill="currentColor"/>
</svg>