<svg xmlns="http://www.w3.org/2000/svg" width="140" height="28" viewBox="0 0 140 28" fill="none">
  <path d="M43.5119 24C49.3175 24 54.0239 19.299 54.0239 13.5C54.0239 7.70103 49.3175 3 43.5119 3C37.7063 3 33 7.70103 33 13.5C33 19.299 37.7063 24 43.5119 24Z" fill="currentColor"/>
  <path d="M89.8823 10.8587C91.8094 10.8587 93.998 11.5983 94.1288 13.9648H91.4352C91.3788 13.2807 90.7431 12.9664 89.9013 12.9664C89.1154 12.9664 88.7601 13.2622 88.7601 13.6135C88.7601 13.9093 88.9846 14.1866 89.6957 14.316L91.3978 14.5934C93.0999 14.9076 94.2226 15.7211 94.2226 17.3111C94.2226 19.3818 92.3329 20.3432 89.9761 20.3432C87.6004 20.3432 85.6738 19.3633 85.4867 16.9783L88.1803 16.9968C88.311 17.7733 88.9657 18.1246 89.9198 18.1246C90.7242 18.1246 91.2107 17.8843 91.2107 17.496C91.2107 17.2002 90.9302 16.9598 90.3314 16.8674L88.4981 16.5531C86.9268 16.2943 85.842 15.4253 85.842 13.8538C85.842 11.968 87.4692 10.8587 89.8823 10.8587ZM78.5277 10.8936C79.5173 10.8936 80.3388 11.1522 81.0115 11.5769V11.0968H84.0364V20.0539H81.0115V19.5553C80.3388 19.98 79.5173 20.2386 78.5277 20.2386C76.0814 20.2386 74.0273 18.2255 74.0273 15.5661C74.0273 12.8882 76.0814 10.8936 78.5277 10.8936ZM60.8084 7.47642L65.3445 14.1961L69.8618 7.47642H72.2235V20.0642H69.0558V13.7518L66.2254 18.065V18.0835H64.4635V18.065L61.6144 13.7148L61.6331 20.0642H58.4654V7.47642H60.8084ZM98.9195 6.95338V14.469L102.085 11.1082H105.7L102.253 14.7645L106 20.0642H102.366L100.193 16.962L98.9195 18.3099V20.0642H95.8849V6.95338H98.9195ZM79.1251 13.3314C77.8928 13.3314 76.9964 14.3287 76.9964 15.5661C76.9964 16.8035 77.8928 17.7823 79.1251 17.7823C79.7973 17.7823 80.4511 17.5976 81.0115 16.9512V14.181C80.4511 13.5346 79.7973 13.3314 79.1251 13.3314Z" fill="currentColor"/>
  <path fill-rule="evenodd" clip-rule="evenodd" d="M49.8584 10.9188V14.4057L38.76 14.4058C39.2445 16.5215 41.1675 18.1019 43.4659 18.1019C45.3661 18.1019 47.0097 17.0217 47.796 15.4519H49.8584V18.3808C49.8584 19.0741 49.2867 19.6361 48.5815 19.6361H38.3665C37.6613 19.6361 37.0896 19.0741 37.0896 18.3808V10.9188H49.8584ZM46.5714 15.4519C45.8942 16.4252 44.7559 17.0639 43.4659 17.0639C42.1759 17.0639 41.0377 16.4252 40.3605 15.4519H46.5714ZM40.7429 11.7557C39.7423 11.7557 38.9145 12.4831 38.7768 13.4294H39.8652C39.9849 13.0652 40.3326 12.8017 40.7429 12.8017C41.1532 12.8017 41.5009 13.0652 41.6206 13.4294H42.709C42.5714 12.4831 41.7436 11.7557 40.7429 11.7557ZM46.2051 11.7557C45.2044 11.7557 44.3766 12.4831 44.2389 13.4294H45.3274C45.447 13.0652 45.7948 12.8017 46.2051 12.8017C46.6154 12.8017 46.9631 13.0652 47.0828 13.4294H48.1712C48.0335 12.4831 47.2057 11.7557 46.2051 11.7557ZM48.5815 7.08318C49.2867 7.08318 49.8584 7.6452 49.8584 8.33846V9.87271H37.0896V8.33846C37.0896 7.6452 37.6613 7.08318 38.3665 7.08318H48.5815Z" fill="white"/>
</svg>