<svg xmlns="http://www.w3.org/2000/svg" width="140" height="28" viewBox="0 0 140 28" fill="none">
  <path d="M27.878 11.3283C28.5311 11.3283 29.0606 10.8071 29.0606 10.1642C29.0606 9.52121 28.5311 9 27.878 9C27.2249 9 26.6954 9.52121 26.6954 10.1642C26.6954 10.8071 27.2249 11.3283 27.878 11.3283Z" fill="currentColor"/>
  <path d="M36.2874 11.327C36.9401 11.327 37.4691 10.8062 37.4691 10.1637C37.4691 9.52124 36.9401 9.00043 36.2874 9.00043C35.6348 9.00043 35.1057 9.52124 35.1057 10.1637C35.1057 10.8062 35.6348 11.327 36.2874 11.327Z" fill="currentColor"/>
  <path d="M72.1666 13.25C72.205 13.2102 72.2781 13.127 72.3861 13.0006C72.4812 12.889 72.5568 12.8093 72.6127 12.7612C72.9535 12.4702 73.3354 12.2975 73.7583 12.2431C74.7357 12.117 75.6876 12.5026 76.0855 13.4217C76.2363 13.7707 76.3125 14.1719 76.314 14.6254C76.3178 15.7698 76.3184 17.0496 76.3157 18.4648C76.3157 18.4693 76.3139 18.4737 76.3106 18.4769C76.3074 18.4801 76.303 18.4819 76.2983 18.4819H74.9248C74.9153 18.4819 74.9062 18.4781 74.8994 18.4715C74.8927 18.4648 74.8888 18.4558 74.8887 18.4463C74.886 17.7621 74.886 16.686 74.8887 15.2178C74.8891 14.8375 74.8668 14.4576 74.7053 14.145C74.4854 13.7199 74.0728 13.5025 73.5887 13.5021C73.0824 13.5016 72.6863 13.6694 72.4003 14.0901C72.2939 14.2467 72.2213 14.4339 72.1826 14.6517C72.1597 14.7803 72.1482 14.9763 72.1479 15.2397C72.1464 16.3147 72.1464 17.3887 72.1479 18.4617C72.1479 18.464 72.1474 18.4664 72.1465 18.4686C72.1455 18.4708 72.1442 18.4727 72.1425 18.4744C72.1408 18.4761 72.1388 18.4774 72.1366 18.4783C72.1343 18.4792 72.132 18.4797 72.1296 18.4797H70.7386C70.736 18.4797 70.7334 18.4792 70.731 18.4782C70.7285 18.4772 70.7263 18.4757 70.7244 18.4739C70.7226 18.4721 70.7211 18.4699 70.7201 18.4675C70.7191 18.4651 70.7186 18.4625 70.7186 18.4599V10.0245C70.7186 10.0064 70.7276 9.99732 70.7458 9.99732H72.13C72.1323 9.99732 72.1346 9.99776 72.1367 9.99862C72.1388 9.99948 72.1407 10.0007 72.1423 10.0023C72.1439 10.0039 72.1452 10.0058 72.1461 10.0079C72.147 10.01 72.1474 10.0122 72.1474 10.0144V13.2425C72.1474 13.261 72.1538 13.2635 72.1666 13.25Z" fill="currentColor"/>
  <path d="M102.267 9.99861H100.885C100.873 9.99861 100.864 10.0078 100.864 10.0192V18.4621C100.864 18.4735 100.873 18.4827 100.885 18.4827H102.267C102.279 18.4827 102.288 18.4735 102.288 18.4621V10.0192C102.288 10.0078 102.279 9.99861 102.267 9.99861Z" fill="currentColor"/>
  <path d="M105.623 9.99638H104.238C104.227 9.99638 104.218 10.0054 104.218 10.0166V18.4621C104.218 18.4732 104.227 18.4823 104.238 18.4823H105.623C105.634 18.4823 105.643 18.4732 105.643 18.4621V10.0166C105.643 10.0054 105.634 9.99638 105.623 9.99638Z" fill="currentColor"/>
  <path d="M84.6197 16.3393L86.6263 10.3595C86.6295 10.3497 86.6358 10.3412 86.6444 10.3351C86.653 10.329 86.6633 10.3257 86.674 10.3257H87.8142C87.8297 10.3257 87.8447 10.3305 87.8572 10.3394C87.8697 10.3483 87.879 10.3609 87.8838 10.3754L89.8801 16.3265C89.8914 16.3608 89.9027 16.3608 89.914 16.3265L91.8545 10.3819C91.858 10.3715 91.8647 10.3624 91.8738 10.3559C91.8829 10.3494 91.8938 10.3459 91.9049 10.3459H93.3668C93.382 10.3459 93.387 10.353 93.382 10.367L90.5323 18.5121C90.5296 18.5201 90.5244 18.5269 90.5174 18.5318C90.5105 18.5367 90.5021 18.5393 90.4935 18.5393H89.2855C89.2676 18.5393 89.2559 18.5311 89.2502 18.5147L87.2356 12.7124C87.2312 12.6996 87.2267 12.6996 87.2223 12.7124L85.2063 18.5183C85.2041 18.5244 85.2 18.5298 85.1946 18.5336C85.1891 18.5373 85.1827 18.5394 85.176 18.5393H83.9747C83.9666 18.5393 83.9587 18.5369 83.9522 18.5323C83.9456 18.5278 83.9407 18.5213 83.9381 18.5139L81.0795 10.3806C81.0712 10.3572 81.0795 10.3455 81.1045 10.3455H82.6123C82.6295 10.3455 82.6407 10.3535 82.6457 10.3696C83.6762 13.5247 84.2951 15.4168 84.5024 16.0459C84.5396 16.1589 84.5745 16.2569 84.6072 16.3397C84.6117 16.3511 84.6159 16.351 84.6197 16.3393Z" fill="currentColor"/>
  <path d="M50.4354 12.7322C50.4175 12.8051 50.4086 12.8723 50.4086 12.9338C50.4089 14.8683 50.4086 16.7045 50.4077 18.4423C50.4077 18.4522 50.4037 18.4617 50.3967 18.4687C50.3897 18.4757 50.3802 18.4796 50.3702 18.4796H49.0101C48.9887 18.4796 48.978 18.4689 48.978 18.4476V10.3745C48.978 10.3514 48.9898 10.3399 49.0136 10.3402C49.4166 10.3458 49.8762 10.3467 50.3925 10.3429C50.4693 10.342 50.509 10.3407 50.554 10.4008C50.5733 10.4266 50.6194 10.4954 50.6923 10.6072C50.7556 10.7041 51.5335 11.8935 53.0258 14.1752C53.0271 14.177 53.0288 14.1785 53.0307 14.1794C53.0327 14.1804 53.0349 14.1809 53.0371 14.1809C53.0393 14.1808 53.0415 14.1803 53.0434 14.1792C53.0453 14.1781 53.047 14.1766 53.0481 14.1748L55.5374 10.3675C55.5472 10.3528 55.561 10.3455 55.5788 10.3455H57.0483C57.0825 10.3455 57.0996 10.3622 57.0996 10.3956V18.4542C57.0996 18.4607 57.097 18.4669 57.0923 18.4715C57.0876 18.4762 57.0812 18.4787 57.0746 18.4787H55.6663C55.6604 18.4787 55.6547 18.4764 55.6505 18.4723C55.6463 18.4682 55.644 18.4626 55.644 18.4568C55.6419 17.7349 55.642 15.9158 55.6444 12.9996C55.6444 12.9226 55.6489 12.8252 55.6578 12.7072C55.658 12.7044 55.6574 12.7016 55.656 12.6991C55.6546 12.6966 55.6526 12.6946 55.6501 12.6934C55.6476 12.6921 55.6447 12.6916 55.642 12.6919C55.6392 12.6923 55.6367 12.6935 55.6346 12.6953C55.5974 12.7266 55.5646 12.7632 55.536 12.8051C55.514 12.8376 54.7277 13.9957 53.1771 16.2796C53.125 16.3563 53.0754 16.4237 53.0281 16.482C53.0257 16.4851 53.0225 16.4876 53.0189 16.4893C53.0153 16.4909 53.0113 16.4917 53.0073 16.4915C53.0033 16.4914 52.9993 16.4903 52.9958 16.4883C52.9923 16.4863 52.9893 16.4836 52.987 16.4802C52.1415 15.229 51.3506 14.0629 50.6142 12.9821C50.5991 12.9595 50.5738 12.9168 50.5384 12.8538C50.4968 12.7798 50.47 12.737 50.4581 12.7256C50.4468 12.7151 50.4392 12.7173 50.4354 12.7322Z" fill="currentColor"/>
  <path d="M67.6236 13.5516C67.6202 13.5516 67.6169 13.553 67.6145 13.5555C67.612 13.5579 67.6107 13.5613 67.6107 13.5648C67.6098 14.4817 67.6098 15.3969 67.6107 16.3103C67.6111 16.5285 67.6093 16.7275 67.6722 16.9259C67.7962 17.3198 68.3173 17.3765 68.6759 17.308C68.8568 17.2734 69.0435 17.2171 69.2363 17.1389C69.2562 17.131 69.2661 17.1376 69.2661 17.1587V18.2245C69.2662 18.2363 69.263 18.248 69.257 18.2582C69.2509 18.2685 69.2422 18.277 69.2318 18.2829C68.8009 18.527 68.3307 18.5876 67.8244 18.5705C66.9509 18.5411 66.3339 18.1243 66.222 17.203C66.1898 16.9396 66.1756 16.655 66.1791 16.3494C66.1818 16.1105 66.1827 15.1848 66.1818 13.5723C66.1818 13.5667 66.1796 13.5613 66.1756 13.5573C66.1715 13.5534 66.1661 13.5512 66.1604 13.5512H65.4101C65.4053 13.5512 65.4008 13.5493 65.3975 13.546C65.3941 13.5427 65.3922 13.5383 65.3922 13.5336V12.3699C65.3922 12.3553 65.3998 12.3479 65.415 12.3479H66.1265C66.1634 12.3479 66.1818 12.3298 66.1818 12.2935V10.6801C66.1818 10.6756 66.1837 10.6712 66.1869 10.668C66.1902 10.6648 66.1946 10.663 66.1992 10.663H67.579C67.6001 10.663 67.6107 10.6734 67.6107 10.6942V12.3255C67.6107 12.3306 67.6127 12.3354 67.6163 12.3389C67.6199 12.3424 67.6248 12.3444 67.6299 12.3444H69.2474C69.2581 12.3444 69.2683 12.3486 69.2758 12.356C69.2833 12.3634 69.2876 12.3735 69.2876 12.3839V13.5354C69.2876 13.5397 69.2858 13.5438 69.2827 13.5469C69.2796 13.5499 69.2754 13.5516 69.271 13.5516H67.6236Z" fill="currentColor"/>
  <path d="M116.342 12.3441H117.959C117.986 12.3441 118 12.3575 118 12.3845V13.5161C118 13.5401 117.988 13.5521 117.963 13.5521H116.331C116.325 13.5521 116.321 13.5555 116.321 13.5622C116.324 14.4417 116.323 15.4471 116.32 16.5786C116.32 16.7502 116.365 16.9108 116.454 17.0604C116.61 17.3203 117.061 17.359 117.341 17.3164C117.545 17.2854 117.74 17.2243 117.927 17.1333C117.959 17.1181 117.975 17.1279 117.975 17.1627V18.2474C117.975 18.2558 117.972 18.2641 117.968 18.2713C117.963 18.2785 117.957 18.2843 117.95 18.2882C117.667 18.4331 117.37 18.5224 117.056 18.5561C116.727 18.5912 116.42 18.5824 116.138 18.5297C115.539 18.4176 115.156 18.0726 114.988 17.4947C114.914 17.2422 114.889 16.9414 114.889 16.6502C114.889 14.9095 114.89 13.8859 114.891 13.5793C114.891 13.5615 114.883 13.5526 114.864 13.5526H114.12C114.115 13.5526 114.111 13.5508 114.108 13.5477C114.105 13.5445 114.103 13.5403 114.103 13.5359V12.3673C114.103 12.3533 114.11 12.3462 114.124 12.3462H114.864C114.871 12.3462 114.877 12.3435 114.882 12.3387C114.887 12.3338 114.89 12.3272 114.89 12.3203V10.6837C114.89 10.6705 114.896 10.6639 114.91 10.6639H116.295C116.313 10.6639 116.322 10.6728 116.322 10.6907V12.3243C116.322 12.3375 116.328 12.3441 116.342 12.3441Z" fill="currentColor"/>
  <path d="M25.7797 13.394C26.4331 13.394 26.9628 12.8726 26.9628 12.2294C26.9628 11.5862 26.4331 11.0648 25.7797 11.0648C25.1263 11.0648 24.5967 11.5862 24.5967 12.2294C24.5967 12.8726 25.1263 13.394 25.7797 13.394Z" fill="currentColor"/>
  <path d="M29.9755 13.3936C30.6288 13.3936 31.1585 12.8721 31.1585 12.229C31.1585 11.5858 30.6288 11.0644 29.9755 11.0644C29.3221 11.0644 28.7924 11.5858 28.7924 12.229C28.7924 12.8721 29.3221 13.3936 29.9755 13.3936Z" fill="currentColor"/>
  <path d="M34.1903 13.3927C34.8434 13.3927 35.3729 12.8715 35.3729 12.2285C35.3729 11.5856 34.8434 11.0644 34.1903 11.0644C33.5371 11.0644 33.0077 11.5856 33.0077 12.2285C33.0077 12.8715 33.5371 13.3927 34.1903 13.3927Z" fill="currentColor"/>
  <path d="M38.3873 13.3932C39.0402 13.3932 39.5695 12.8722 39.5695 12.2295C39.5695 11.5868 39.0402 11.0657 38.3873 11.0657C37.7344 11.0657 37.2052 11.5868 37.2052 12.2295C37.2052 12.8722 37.7344 13.3932 38.3873 13.3932Z" fill="currentColor"/>
  <path d="M108.587 15.9361C108.605 16.0611 108.628 16.1646 108.655 16.2466C108.84 16.8143 109.204 17.1887 109.747 17.3699C110.018 17.4607 110.311 17.4877 110.626 17.4512C111.147 17.3908 111.605 17.166 111.998 16.7766C112.008 16.766 112.022 16.7597 112.037 16.7589C112.053 16.7581 112.067 16.7628 112.079 16.7722C112.394 17.0267 112.662 17.2573 112.882 17.4643C112.884 17.4665 112.886 17.4694 112.886 17.4726C112.886 17.4758 112.885 17.4789 112.883 17.4815C112.268 18.1899 111.483 18.568 110.529 18.6157C109.959 18.6441 109.417 18.5421 108.902 18.3097C108.021 17.9114 107.399 17.0713 107.214 16.1373C107.161 15.872 107.141 15.5809 107.152 15.2638C107.183 14.3847 107.547 13.5613 108.203 12.9693C108.675 12.5422 109.245 12.2964 109.911 12.232C110.987 12.1279 112.021 12.5552 112.606 13.4607C113.06 14.1629 113.217 15.028 113.164 15.8685C113.162 15.899 113.145 15.9142 113.115 15.9142H108.606C108.591 15.9142 108.584 15.9215 108.587 15.9361ZM108.586 14.8396C108.586 14.8417 108.578 14.8793 108.564 14.9525C108.562 14.9651 108.567 14.9718 108.58 14.9727C108.669 14.9791 108.746 14.9825 108.81 14.9828C110.158 14.9839 111.131 14.9844 111.729 14.9841C111.738 14.9841 111.743 14.9794 111.742 14.97C111.697 14.2459 111.274 13.5674 110.517 13.4063C109.849 13.264 109.224 13.5411 108.861 14.1177C108.747 14.2998 108.655 14.5404 108.586 14.8396Z" fill="currentColor"/>
  <path d="M62.8093 17.7656C62.376 18.251 61.8253 18.5231 61.1574 18.582C60.6479 18.6268 60.1488 18.5754 59.6978 18.3655C59.1187 18.0962 58.772 17.6554 58.6575 17.0432C58.5963 16.717 58.6271 16.2967 58.7476 15.9876C58.9251 15.5323 59.2542 15.2008 59.7348 14.9929C60.0875 14.8404 60.4534 14.7539 60.8326 14.7334C60.9897 14.7252 61.1754 14.7221 61.3898 14.7242C61.9019 14.7294 62.369 14.8168 62.849 14.9683C62.8516 14.9691 62.8544 14.9693 62.8571 14.9689C62.8599 14.9685 62.8624 14.9675 62.8647 14.9659C62.8669 14.9643 62.8688 14.9622 62.8701 14.9598C62.8714 14.9575 62.8721 14.9548 62.8722 14.9521C62.8731 14.8414 62.8688 14.7329 62.8592 14.6267C62.8213 14.2055 62.5992 13.8406 62.2026 13.6575C61.8479 13.4937 61.4656 13.4652 61.0771 13.4937C60.5608 13.5318 60.0646 13.6525 59.5885 13.856C59.5629 13.8668 59.5456 13.8594 59.5367 13.8336L59.17 12.7902C59.1656 12.7779 59.1694 12.769 59.1816 12.7634C60.1395 12.3296 61.1352 12.1807 62.1687 12.3168C62.5934 12.3724 62.973 12.5117 63.3076 12.7344C63.8085 13.0673 64.1105 13.6413 64.1984 14.231C64.2404 14.5124 64.2612 14.8009 64.2609 15.0966C64.2603 16.5199 64.2591 17.6362 64.2573 18.4454C64.2573 18.454 64.2538 18.4623 64.2476 18.4684C64.2415 18.4745 64.2331 18.4779 64.2243 18.4779H62.8896C62.8726 18.4779 62.8641 18.4696 62.8641 18.4529V17.7858C62.8641 17.7314 62.8459 17.7246 62.8093 17.7656ZM61.9791 15.6468C61.5675 15.6002 61.2075 15.6102 60.8991 15.6767C60.3914 15.7856 60.0033 16.1272 60.0198 16.6669C60.0341 17.1451 60.3803 17.4433 60.8371 17.5417C61.1482 17.6087 61.4701 17.5988 61.8029 17.5118C62.3141 17.3783 62.7758 17.027 62.8646 16.5132C62.8988 16.3153 62.9094 16.1036 62.8963 15.8782C62.8959 15.8711 62.8933 15.8642 62.8891 15.8585C62.8848 15.8528 62.8789 15.8485 62.8722 15.8462C62.5995 15.7498 62.3018 15.6834 61.9791 15.6468Z" fill="currentColor"/>
  <path d="M97.6674 17.7507C97.6591 17.7563 97.5816 17.8271 97.435 17.9632C97.118 18.2572 96.7401 18.4482 96.3015 18.5363C95.0319 18.7914 93.5522 18.2825 93.4594 16.8101C93.4121 16.0622 93.7681 15.375 94.4578 15.0434C94.8372 14.861 95.2457 14.7572 95.6832 14.7321C95.9404 14.7174 96.223 14.7195 96.5308 14.7382C96.8945 14.7605 97.276 14.8383 97.6755 14.9718C97.6783 14.9729 97.6814 14.9732 97.6844 14.9728C97.6875 14.9724 97.6904 14.9713 97.6929 14.9696C97.6955 14.9679 97.6976 14.9657 97.6992 14.963C97.7007 14.9603 97.7016 14.9573 97.7018 14.9543C97.7317 14.4053 97.5403 13.8714 96.988 13.6373C96.7789 13.5483 96.5708 13.4997 96.3635 13.4915C95.6931 13.4649 95.042 13.5878 94.41 13.8604C94.4068 13.8618 94.4032 13.8625 94.3997 13.8626C94.3961 13.8626 94.3925 13.8619 94.3892 13.8606C94.3859 13.8592 94.383 13.8572 94.3805 13.8547C94.378 13.8522 94.3761 13.8492 94.3748 13.8459C94.2395 13.4955 94.1178 13.1422 94.0099 12.7862C94.0054 12.7716 94.0103 12.7612 94.0246 12.7551C94.8508 12.3915 95.7009 12.2309 96.5749 12.2733C97.0692 12.297 97.6121 12.4108 98.0283 12.6659C98.4955 12.9528 98.8041 13.3634 98.954 13.8977C99.0441 14.2186 99.0888 14.5891 99.0882 15.0092C99.0873 15.744 99.0873 16.8892 99.0882 18.445C99.0882 18.4546 99.0843 18.4639 99.0774 18.4707C99.0705 18.4776 99.061 18.4814 99.0512 18.4814H97.7241C97.7172 18.4814 97.7105 18.4787 97.7056 18.474C97.7007 18.4692 97.6979 18.4627 97.6978 18.4559L97.6929 17.7639C97.6929 17.7442 97.6844 17.7399 97.6674 17.7507ZM95.7528 15.6714C95.3419 15.7482 94.94 16.0244 94.8664 16.4456C94.7276 17.2439 95.4102 17.5979 96.107 17.5843C96.748 17.572 97.3993 17.3006 97.6429 16.6968C97.7392 16.4583 97.7419 16.1588 97.7245 15.8945C97.7236 15.8804 97.7184 15.8668 97.7096 15.8556C97.7008 15.8445 97.6887 15.8361 97.675 15.8317C97.0737 15.6398 96.3818 15.5537 95.7528 15.6714Z" fill="currentColor"/>
  <path d="M27.8798 15.4593C28.5329 15.4593 29.0624 14.9381 29.0624 14.2951C29.0624 13.6522 28.5329 13.131 27.8798 13.131C27.2266 13.131 26.6971 13.6522 26.6971 14.2951C26.6971 14.9381 27.2266 15.4593 27.8798 15.4593Z" fill="currentColor"/>
  <path d="M36.2871 15.4584C36.9397 15.4584 37.4688 14.9376 37.4688 14.2951C37.4688 13.6526 36.9397 13.1318 36.2871 13.1318C35.6344 13.1318 35.1054 13.6526 35.1054 14.2951C35.1054 14.9376 35.6344 15.4584 36.2871 15.4584Z" fill="currentColor"/>
  <path d="M23.6826 15.1681C24.1722 15.1681 24.569 14.7775 24.569 14.2956C24.569 13.8137 24.1722 13.423 23.6826 13.423C23.1931 13.423 22.7962 13.8137 22.7962 14.2956C22.7962 14.7775 23.1931 15.1681 23.6826 15.1681Z" fill="currentColor"/>
  <path d="M32.0732 15.1677C32.563 15.1677 32.96 14.7768 32.96 14.2946C32.96 13.8125 32.563 13.4216 32.0732 13.4216C31.5834 13.4216 31.1863 13.8125 31.1863 14.2946C31.1863 14.7768 31.5834 15.1677 32.0732 15.1677Z" fill="currentColor"/>
  <path d="M40.4844 15.1681C40.9737 15.1681 41.3703 14.7777 41.3703 14.296C41.3703 13.8143 40.9737 13.4239 40.4844 13.4239C39.9951 13.4239 39.5984 13.8143 39.5984 14.296C39.5984 14.7777 39.9951 15.1681 40.4844 15.1681Z" fill="currentColor"/>
  <path d="M29.9751 17.2338C30.4649 17.2338 30.862 16.843 30.862 16.3608C30.862 15.8787 30.4649 15.4878 29.9751 15.4878C29.4853 15.4878 29.0883 15.8787 29.0883 16.3608C29.0883 16.843 29.4853 17.2338 29.9751 17.2338Z" fill="currentColor"/>
  <path d="M38.3869 17.2338C38.8766 17.2338 39.2737 16.843 39.2737 16.3608C39.2737 15.8787 38.8766 15.4878 38.3869 15.4878C37.8971 15.4878 37.5 15.8787 37.5 16.3608C37.5 16.843 37.8971 17.2338 38.3869 17.2338Z" fill="currentColor"/>
  <path d="M25.7795 17.2329C26.2688 17.2329 26.6655 16.8425 26.6655 16.3608C26.6655 15.8791 26.2688 15.4887 25.7795 15.4887C25.2902 15.4887 24.8936 15.8791 24.8936 16.3608C24.8936 16.8425 25.2902 17.2329 25.7795 17.2329Z" fill="currentColor"/>
  <path d="M34.1918 17.2338C34.6816 17.2338 35.0786 16.843 35.0786 16.3608C35.0786 15.8787 34.6816 15.4878 34.1918 15.4878C33.702 15.4878 33.305 15.8787 33.305 16.3608C33.305 16.843 33.702 17.2338 34.1918 17.2338Z" fill="currentColor"/>
  <path d="M21.5848 16.9374C21.9078 16.9374 22.1697 16.6796 22.1697 16.3617C22.1697 16.0437 21.9078 15.7859 21.5848 15.7859C21.2618 15.7859 21 16.0437 21 16.3617C21 16.6796 21.2618 16.9374 21.5848 16.9374Z" fill="currentColor"/>
  <path d="M42.5823 16.9361C42.9051 16.9361 43.1667 16.6785 43.1667 16.3608C43.1667 16.0431 42.9051 15.7855 42.5823 15.7855C42.2596 15.7855 41.9979 16.0431 41.9979 16.3608C41.9979 16.6785 42.2596 16.9361 42.5823 16.9361Z" fill="currentColor"/>
  <path d="M23.681 19C24.0038 19 24.2654 18.7424 24.2654 18.4247C24.2654 18.107 24.0038 17.8495 23.681 17.8495C23.3583 17.8495 23.0967 18.107 23.0967 18.4247C23.0967 18.7424 23.3583 19 23.681 19Z" fill="currentColor"/>
  <path d="M32.0744 18.9987C32.3967 18.9987 32.6579 18.7415 32.6579 18.4243C32.6579 18.1071 32.3967 17.8499 32.0744 17.8499C31.7522 17.8499 31.4909 18.1071 31.4909 18.4243C31.4909 18.7415 31.7522 18.9987 32.0744 18.9987Z" fill="currentColor"/>
  <path d="M40.4837 18.9982C40.806 18.9982 41.0672 18.7411 41.0672 18.4239C41.0672 18.1066 40.806 17.8495 40.4837 17.8495C40.1615 17.8495 39.9002 18.1066 39.9002 18.4239C39.9002 18.7411 40.1615 18.9982 40.4837 18.9982Z" fill="currentColor"/>
</svg>