<svg xmlns="http://www.w3.org/2000/svg" width="140" height="28" viewBox="0 0 140 28" fill="none">
  <path d="M109.752 14.0462C109.209 13.7001 108.617 13.4693 108.025 13.1693C107.655 12.9847 107.26 12.8001 106.939 12.5462C106.396 12.1309 106.495 11.3001 107.087 10.9309C107.902 10.4232 109.259 10.7001 109.407 11.7386C109.407 11.7616 109.431 11.7847 109.456 11.7847H110.69C110.714 11.7847 110.739 11.7616 110.739 11.7386C110.665 11.0232 110.369 10.4232 109.826 10.0309C109.308 9.66163 108.716 9.47701 108.074 9.47701C104.817 9.47701 104.521 12.7078 106.273 13.7232C106.47 13.8386 108.198 14.6462 108.814 15.0155C109.431 15.3616 109.604 16.0078 109.357 16.5155C109.111 16.977 108.494 17.3001 107.877 17.2539C107.186 17.2078 106.668 16.8616 106.47 16.3309C106.446 16.2386 106.421 16.0539 106.421 15.9616C106.421 15.9385 106.396 15.9155 106.372 15.9155H105.039C105.015 15.9155 104.99 15.9385 104.99 15.9616C104.99 16.8616 105.237 17.3693 105.878 17.8309C106.495 18.2693 107.161 18.4539 107.877 18.4539C109.703 18.4539 110.64 17.4847 110.838 16.4924C110.986 15.5232 110.69 14.6462 109.752 14.0462Z" fill="currentColor"/>
  <path d="M50.3602 9.66163C50.3355 9.66163 50.3108 9.6847 50.3108 9.6847L49.2005 13.077C49.1758 13.1232 49.1264 13.1232 49.1018 13.077L47.9914 9.6847C47.9914 9.66163 47.9667 9.66163 47.942 9.66163H45.9187C45.894 9.66163 45.8694 9.68471 45.8694 9.70778V18.3616C45.8694 18.3847 45.894 18.4078 45.9187 18.4078H47.2512C47.2758 18.4078 47.3005 18.3847 47.3005 18.3616V11.7847C47.3005 11.7386 47.3745 11.7155 47.3992 11.7616L48.5096 15.177L48.5836 15.4078C48.5836 15.4309 48.6083 15.4309 48.6329 15.4309H49.6693C49.6939 15.4309 49.7186 15.4078 49.7186 15.4078L49.7926 15.177L50.903 11.7616C50.9277 11.7155 51.0017 11.7155 51.0017 11.7847V18.3616C51.0017 18.3847 51.0264 18.4078 51.0511 18.4078H52.3835C52.4082 18.4078 52.4328 18.3847 52.4328 18.3616V9.70778C52.4328 9.68471 52.4082 9.66163 52.3835 9.66163H50.3602Z" fill="currentColor"/>
  <path d="M89.2475 9.66163C89.2228 9.66163 89.1981 9.6847 89.1981 9.6847L88.0877 13.077C88.0631 13.1232 88.0137 13.1232 87.989 13.077L86.8787 9.6847C86.8787 9.66163 86.854 9.66163 86.8293 9.66163H84.7813C84.7567 9.66163 84.732 9.68471 84.732 9.70778V18.3616C84.732 18.3847 84.7567 18.4078 84.7813 18.4078H86.1138C86.1384 18.4078 86.1631 18.3847 86.1631 18.3616V11.7847C86.1631 11.7386 86.2371 11.7155 86.2618 11.7616L87.3722 15.177L87.4462 15.4078C87.4462 15.4309 87.4709 15.4309 87.4956 15.4309H88.5319C88.5566 15.4309 88.5812 15.4078 88.5812 15.4078L88.6553 15.177L89.7656 11.7616C89.7903 11.7155 89.8643 11.7155 89.8643 11.7847V18.3616C89.8643 18.3847 89.889 18.4078 89.9137 18.4078H91.2461C91.2708 18.4078 91.2954 18.3847 91.2954 18.3616V9.70778C91.2954 9.68471 91.2708 9.66163 91.2461 9.66163H89.2475Z" fill="currentColor"/>
  <path d="M71.9752 9.66163H65.6338C65.6091 9.66163 65.5844 9.68471 65.5844 9.70778V10.7924C65.5844 10.8155 65.6091 10.8386 65.6338 10.8386H68.0766V18.3616C68.0766 18.3847 68.1013 18.4078 68.1259 18.4078H69.4584C69.483 18.4078 69.5077 18.3847 69.5077 18.3616V10.8386H71.9505C71.9752 10.8386 71.9999 10.8155 71.9999 10.7924V9.70778C72.0245 9.68471 71.9999 9.66163 71.9752 9.66163Z" fill="currentColor"/>
  <path d="M79.8711 18.4078H81.0801C81.1048 18.4078 81.1295 18.3847 81.1295 18.3386L78.6127 9.66163C78.6127 9.63855 78.588 9.63855 78.5633 9.63855H76.8114C76.7867 9.63855 76.7621 9.66163 76.7621 9.66163L74.2453 18.3386C74.2453 18.3616 74.2699 18.4078 74.2946 18.4078H75.5037C75.5283 18.4078 75.553 18.3847 75.553 18.3847L76.2933 15.8462C76.2933 15.8232 76.3179 15.8232 76.3426 15.8232H79.0321C79.0568 15.8232 79.0815 15.8462 79.0815 15.8462L79.8217 18.3847C79.8217 18.3847 79.8464 18.4078 79.8711 18.4078ZM76.6634 14.577L77.6504 11.1847C77.675 11.1386 77.7244 11.1386 77.7491 11.1847L78.736 14.577C78.736 14.6001 78.7114 14.6462 78.6867 14.6462H76.7374C76.688 14.6462 76.6634 14.6001 76.6634 14.577Z" fill="currentColor"/>
  <path d="M100.647 18.4078H101.856C101.881 18.4078 101.906 18.3847 101.906 18.3386L99.3887 9.66163C99.3887 9.63855 99.3641 9.63855 99.3394 9.63855H97.5875C97.5628 9.63855 97.5381 9.66163 97.5381 9.66163L95.0213 18.3386C95.0213 18.3616 95.046 18.4078 95.0707 18.4078H96.2797C96.3044 18.4078 96.3291 18.3847 96.3291 18.3847L97.0693 15.8462C97.0693 15.8232 97.094 15.8232 97.1187 15.8232H99.8082C99.8329 15.8232 99.8576 15.8462 99.8576 15.8462L100.598 18.3847C100.598 18.3847 100.622 18.4078 100.647 18.4078ZM97.4394 14.577L98.4264 11.1847C98.4511 11.1386 98.5005 11.1386 98.5251 11.1847L99.5121 14.577C99.5121 14.6001 99.4874 14.6462 99.4628 14.6462H97.5135C97.4641 14.6462 97.4394 14.6001 97.4394 14.577Z" fill="currentColor"/>
  <path d="M57.8613 17.1155V14.4386C57.8613 14.4155 57.8859 14.3924 57.9106 14.3924H61.4884C61.5131 14.3924 61.5378 14.3693 61.5378 14.3462V13.2616C61.5378 13.2386 61.5131 13.2155 61.4884 13.2155H57.9106C57.8859 13.2155 57.8613 13.1924 57.8613 13.1693V10.8847C57.8613 10.8616 57.8859 10.8386 57.9106 10.8386H61.9573C61.9819 10.8386 62.0066 10.8155 62.0066 10.7924V9.70778C62.0066 9.68471 61.9819 9.66163 61.9573 9.66163H56.4795C56.4548 9.66163 56.4301 9.68471 56.4301 9.70778V18.3616C56.4301 18.3847 56.4548 18.4078 56.4795 18.4078H62.13C62.1547 18.4078 62.1793 18.3847 62.1793 18.3616V17.2309C62.1793 17.2078 62.1547 17.1847 62.13 17.1847H57.8859C57.8859 17.1616 57.8613 17.1385 57.8613 17.1155Z" fill="currentColor"/>
  <path d="M121.991 18.3155L117.352 13.8386C117.327 13.8155 117.327 13.7924 117.352 13.7693L121.522 9.70778C121.547 9.68471 121.522 9.63855 121.497 9.63855H119.795C119.77 9.63855 119.77 9.63855 119.77 9.66163L116.217 13.1232C116.192 13.1462 116.143 13.1232 116.143 13.1001V9.73086C116.143 9.70778 116.118 9.6847 116.093 9.6847H114.736C114.712 9.6847 114.687 9.70778 114.687 9.73086V18.3847C114.687 18.4078 114.712 18.4309 114.736 18.4309H116.069C116.093 18.4309 116.118 18.4078 116.118 18.3847V14.577C116.118 14.5309 116.168 14.5078 116.192 14.5539L120.189 18.4309L120.214 18.4539H121.917C121.991 18.4078 122.015 18.3386 121.991 18.3155Z" fill="currentColor"/>
  <path d="M36.7151 5L28.6218 10.6308L30.1269 7.30769L36.7151 5Z" fill="#E17726"/>
  <path d="M18.0117 5L26.0556 10.6769L24.6245 7.30769L18.0117 5Z" fill="#E27625"/>
  <path d="M33.8035 18.0385L31.6321 21.1308L36.2709 22.3308L37.5787 18.1077L33.8035 18.0385Z" fill="#E27625"/>
  <path d="M17.1727 18.1077L18.4805 22.3308L23.0946 21.1308L20.9479 18.0385L17.1727 18.1077Z" fill="#E27625"/>
  <path d="M22.8479 12.8231L21.5648 14.6462L26.1296 14.8308L25.9816 10.2154L22.8479 12.8231Z" fill="#E27625"/>
  <path d="M31.9035 12.8231L28.7205 10.1692L28.6218 14.8308L33.1866 14.6462L31.9035 12.8231Z" fill="#E27625"/>
  <path d="M23.0946 21.1308L25.8582 19.8846L23.4648 18.1308L23.0946 21.1308Z" fill="#E27625"/>
  <path d="M28.8932 19.8846L31.6321 21.1308L31.262 18.1308L28.8932 19.8846Z" fill="#E27625"/>
  <path d="M31.6321 21.1308L28.8932 19.8846L29.1153 21.5462L29.0906 22.2615L31.6321 21.1308Z" fill="#D5BFB2"/>
  <path d="M23.0946 21.1308L25.6608 22.2615L25.6361 21.5462L25.8582 19.8846L23.0946 21.1308Z" fill="#D5BFB2"/>
  <path d="M25.7102 17.0231L23.4154 16.4L25.0193 15.7077L25.7102 17.0231Z" fill="#233447"/>
  <path d="M29.0412 17.0231L29.7075 15.7077L31.336 16.4L29.0412 17.0231Z" fill="#233447"/>
  <path d="M23.0946 21.1308L23.4894 18.0385L20.9479 18.1077L23.0946 21.1308Z" fill="#CC6228"/>
  <path d="M31.262 18.0385L31.6321 21.1308L33.8035 18.1077L31.262 18.0385Z" fill="#CC6228"/>
  <path d="M33.1866 14.6462L28.6218 14.8308L29.0412 17.0231L29.7075 15.7077L31.336 16.4L33.1866 14.6462Z" fill="#CC6228"/>
  <path d="M23.4154 16.4L25.0193 15.7077L25.7102 17.0231L26.1296 14.8308L21.5648 14.6462L23.4154 16.4Z" fill="#CC6228"/>
  <path d="M21.5648 14.6462L23.4648 18.1308L23.4154 16.4L21.5648 14.6462Z" fill="#E27525"/>
  <path d="M31.336 16.4L31.262 18.1308L33.1866 14.6462L31.336 16.4Z" fill="#E27525"/>
  <path d="M26.1296 14.8308L25.7102 17.0231L26.2283 19.6308L26.3517 16.1923L26.1296 14.8308Z" fill="#E27525"/>
  <path d="M28.6218 14.8308L28.3997 16.1923L28.4984 19.6308L29.0412 17.0231L28.6218 14.8308Z" fill="#E27525"/>
  <path d="M29.0412 17.0231L28.4984 19.6308L28.8932 19.8846L31.262 18.1308L31.336 16.4L29.0412 17.0231Z" fill="#F5841F"/>
  <path d="M23.4154 16.4L23.4648 18.1308L25.8582 19.8846L26.2283 19.6308L25.7102 17.0231L23.4154 16.4Z" fill="#F5841F"/>
  <path d="M29.0906 22.2615L29.1153 21.5462L28.8932 21.3846H25.8335L25.6361 21.5462L25.6608 22.2615L23.0946 21.1308L23.9829 21.8231L25.8089 23H28.9179L30.7438 21.8231L31.6321 21.1308L29.0906 22.2615Z" fill="#C0AC9D"/>
  <path d="M28.8932 19.8846L28.4984 19.6308H26.2283L25.8582 19.8846L25.6361 21.5462L25.8335 21.3846H28.8932L29.1153 21.5462L28.8932 19.8846Z" fill="#161616"/>
  <path d="M37.0605 11L37.7514 7.88462L36.7151 5L28.8932 10.4462L31.9035 12.8231L36.1475 13.9769L37.0852 12.9615L36.6904 12.6846L37.3319 12.1308L36.8384 11.7615L37.48 11.3L37.0605 11Z" fill="#763E1A"/>
  <path d="M17 7.88462L17.6909 11L17.2467 11.3L17.8883 11.7615L17.3948 12.1308L18.061 12.6846L17.6415 12.9615L18.5792 13.9769L22.8479 12.8231L25.8582 10.4462L18.0117 5L17 7.88462Z" fill="#763E1A"/>
  <path d="M36.1475 13.9769L31.9035 12.8231L33.1866 14.6462L31.262 18.1308L33.8035 18.1077H37.5787L36.1475 13.9769Z" fill="#F5841F"/>
  <path d="M22.8479 12.8231L18.5792 13.9769L17.1727 18.1077H20.9479L23.4648 18.1308L21.5648 14.6462L22.8479 12.8231Z" fill="#F5841F"/>
  <path d="M28.6218 14.8308L28.8932 10.4462L30.1269 7.30769H24.6245L25.8582 10.4462L26.1296 14.8308L26.2283 16.2154V19.6308H28.4984V16.2154L28.6218 14.8308Z" fill="#F5841F"/>
</svg>