<svg xmlns="http://www.w3.org/2000/svg" width="140" height="28" viewBox="0 0 140 28" fill="none">
  <path d="M59.7842 21H46.3133C46.2302 21 46.1505 20.9672 46.0918 20.9089C46.033 20.8505 46 20.7714 46 20.6889V7.31165C46 7.22913 46.033 7.14992 46.0918 7.09156C46.1505 7.03332 46.2302 7.00055 46.3133 7.00055H59.7842C59.8673 7.00055 59.9469 7.03332 60.0058 7.09156C60.0645 7.14992 60.0975 7.22913 60.0975 7.31165V20.6889C60.0975 20.7714 60.0645 20.8505 60.0058 20.9089C59.9469 20.9672 59.8673 21 59.7842 21ZM55.3983 11.9781C55.3983 11.8956 55.3653 11.8165 55.3066 11.7581C55.2478 11.6998 55.1681 11.667 55.0851 11.667H51.0124C50.9294 11.667 50.8497 11.6998 50.7909 11.7581C50.7322 11.8165 50.6992 11.8956 50.6992 11.9781V16.0224C50.6992 16.1049 50.7322 16.184 50.7909 16.2424C50.8497 16.3007 50.9294 16.3335 51.0124 16.3335H55.0851C55.1681 16.3335 55.2478 16.3007 55.3066 16.2424C55.3653 16.184 55.3983 16.1049 55.3983 16.0224V11.9781Z" fill="currentColor"/>
  <path d="M87.985 16.3329H83.9123C83.7394 16.3329 83.5991 16.1936 83.5991 16.0218V11.9775C83.5991 11.8057 83.7394 11.6664 83.9123 11.6664H87.985C88.158 11.6664 88.2983 11.8057 88.2983 11.9775V16.0218C88.2983 16.1936 88.158 16.3329 87.985 16.3329Z" fill="currentColor"/>
  <path d="M83.2869 20.9998H79.2143C79.0413 20.9998 78.9011 20.8605 78.9011 20.6887V16.6444C78.9011 16.4726 79.0413 16.3333 79.2143 16.3333H83.2869C83.4599 16.3333 83.6003 16.4726 83.6003 16.6444V20.6887C83.6003 20.8605 83.4599 20.9998 83.2869 20.9998Z" fill="currentColor"/>
  <path d="M92.6867 20.9998H88.6141C88.4411 20.9998 88.3008 20.8605 88.3008 20.6887V16.6444C88.3008 16.4726 88.4411 16.3333 88.6141 16.3333H92.6867C92.8598 16.3333 93 16.4726 93 16.6444V20.6887C93 20.8605 92.8598 20.9998 92.6867 20.9998Z" fill="currentColor"/>
  <path d="M83.2869 11.6665H79.2143C79.0413 11.6665 78.9011 11.5273 78.9011 11.3555V7.3111C78.9011 7.13933 79.0413 7 79.2143 7H83.2869C83.4599 7 83.6003 7.13933 83.6003 7.3111V11.3555C83.6003 11.5273 83.4599 11.6665 83.2869 11.6665Z" fill="currentColor"/>
  <path d="M92.6867 11.6665H88.6141C88.4411 11.6665 88.3008 11.5273 88.3008 11.3555V7.3111C88.3008 7.13933 88.4411 7 88.6141 7H92.6867C92.8598 7 93 7.13933 93 7.3111V11.3555C93 11.5273 92.8598 11.6665 92.6867 11.6665Z" fill="currentColor"/>
  <path d="M76.2325 20.9998H72.16C71.9869 20.9998 71.8466 20.8605 71.8466 20.6887V16.6444C71.8466 16.4726 71.9869 16.3333 72.16 16.3333H76.2325C76.4056 16.3333 76.5458 16.4726 76.5458 16.6444V20.6887C76.5458 20.8605 76.4056 20.9998 76.2325 20.9998Z" fill="currentColor"/>
  <path d="M76.2325 11.6665H72.16C71.9869 11.6665 71.8466 11.5273 71.8466 11.3555V7.3111C71.8466 7.13933 71.9869 7 72.16 7H76.2325C76.4056 7 76.5458 7.13933 76.5458 7.3111V11.3555C76.5458 11.5273 76.4056 11.6665 76.2325 11.6665Z" fill="currentColor"/>
  <path d="M71.8453 16.0259C71.8453 16.1084 71.8122 16.1875 71.7535 16.2459C71.6948 16.3042 71.6151 16.337 71.532 16.337H67.1461V20.6889C67.1461 20.7714 67.113 20.8505 67.0543 20.9089C66.9956 20.9672 66.9159 21 66.8328 21H62.7602C62.6771 21 62.5975 20.9672 62.5386 20.9089C62.4799 20.8505 62.4469 20.7714 62.4469 20.6889V7.3186C62.4469 7.23608 62.4799 7.15698 62.5386 7.09863C62.5975 7.04027 62.6771 7.0075 62.7602 7.0075H66.8328C66.9159 7.0075 66.9956 7.04027 67.0543 7.09863C67.113 7.15698 67.1461 7.23608 67.1461 7.3186V11.6705H71.532C71.6151 11.6705 71.6948 11.7033 71.7535 11.7616C71.8122 11.82 71.8453 11.8991 71.8453 11.9816V16.0259Z" fill="currentColor"/>
</svg>