<svg xmlns="http://www.w3.org/2000/svg" width="140" height="28" viewBox="0 0 140 28" fill="none">
  <path d="M96.3991 10.3097C96.4061 10.3078 96.4132 10.3079 96.4205 10.31L96.3991 10.3097Z" fill="currentColor"/>
  <path d="M86.025 17.4079L86.0275 17.5046C86.0275 17.51 86.029 17.5115 86.0321 17.509H86.0325C86.0353 17.5067 86.0368 17.5051 86.0368 17.504L86.0321 17.4066" fill="currentColor"/>
  <path d="M30.7797 8.88913C30.7804 8.88828 30.7807 8.88728 30.7808 8.88624C30.7809 8.8852 30.7807 8.88415 30.7803 8.8832C30.7799 8.88226 30.7792 8.88144 30.7783 8.88085C30.7775 8.88025 30.7765 8.8799 30.7754 8.87982C30.5051 8.87341 30.2743 8.86803 30.0832 8.86369C29.8449 8.8581 29.64 8.843 29.4684 8.81839C28.6067 8.69428 27.7858 8.43138 27.0056 8.02968C27.004 8.02885 27.0026 8.02762 27.0017 8.02608C27.0007 8.02455 27.0001 8.02278 27 8.02094C26.9999 8.0191 27.0003 8.01725 27.0011 8.01557C27.0019 8.0139 27.0032 8.01245 27.0047 8.01137L31.3692 5.00114C31.3703 5.00042 31.3716 5.00002 31.3729 5C31.3742 4.99998 31.3754 5.00033 31.3765 5.00102C31.3776 5.0017 31.3785 5.00269 31.3791 5.00387C31.3797 5.00505 31.3799 5.00636 31.3797 5.00765L31.1908 6.43334C31.1905 6.43555 31.1907 6.43781 31.1913 6.43995C31.192 6.44209 31.193 6.44407 31.1945 6.44575C31.196 6.44742 31.1978 6.44877 31.1998 6.44968C31.2018 6.45059 31.204 6.45105 31.2063 6.45103C32.8041 6.45082 34.1837 6.45092 35.3452 6.45134C35.7073 6.45155 35.9132 6.45237 35.9627 6.45382C37.3931 6.49354 38.6698 6.94901 39.7927 7.82025C41.2646 8.96204 42.1907 10.7408 42.2741 12.6093C42.3434 14.1612 41.9212 15.5663 41.0075 16.8246C41.0011 16.8333 41.0017 16.8413 41.0093 16.8488L43.5632 19.4163C43.564 19.4171 43.5649 19.4178 43.566 19.4183C43.5671 19.4187 43.5682 19.419 43.5694 19.419C43.5706 19.419 43.5718 19.4187 43.5729 19.4183C43.574 19.4178 43.575 19.4171 43.5758 19.4163L46.0896 16.8894C46.0923 16.8867 46.0939 16.8831 46.0941 16.8792C46.0944 16.8753 46.0932 16.8714 46.0908 16.8683C45.4143 15.9638 44.9977 14.9552 44.8409 13.8426C44.811 13.6312 44.7928 13.4259 44.7863 13.2267C44.7297 11.5488 45.227 10.0684 46.2781 8.7855C47.3447 7.4833 48.9323 6.63967 50.6075 6.4833C50.8431 6.46116 51.1183 6.4502 51.433 6.45041C53.0165 6.45165 54.5105 6.45175 55.9152 6.45072C55.9394 6.45051 55.95 6.43831 55.947 6.41411L55.7661 5.01789C55.764 5.00238 55.7694 4.99907 55.7822 5.00796L60.143 8.01541C60.1439 8.01604 60.1447 8.0169 60.1452 8.01791C60.1457 8.01892 60.1459 8.02004 60.1458 8.02117C60.1458 8.02229 60.1454 8.02338 60.1448 8.02433C60.1442 8.02528 60.1434 8.02605 60.1424 8.02658C59.5873 8.31471 58.9904 8.53604 58.3517 8.69055C57.9291 8.79274 57.5206 8.84931 57.1262 8.86027C57.1108 8.86069 56.8338 8.86803 56.2954 8.8823C56.2847 8.88251 56.2826 8.88696 56.2892 8.89564C56.8731 9.64712 57.2741 10.4553 57.4922 11.3201C57.9289 13.0529 57.6552 14.8857 56.7096 16.3955C56.2525 17.1255 55.647 17.7731 54.9396 18.2661C53.7321 19.1078 52.3835 19.4945 50.8939 19.4262C49.8991 19.3805 48.937 19.0949 48.0077 18.5695C47.998 18.564 47.9892 18.5652 47.9814 18.5733L43.5814 22.9968C43.5793 22.9988 43.5766 23 43.5736 23C43.5707 23 43.5678 22.9988 43.5657 22.9968L39.1329 18.5401C39.1267 18.5341 39.12 18.5332 39.1125 18.5376C37.775 19.3112 36.3474 19.5854 34.8298 19.3601C34.6341 19.3311 34.4328 19.29 34.2258 19.2366C31.717 18.5903 29.8344 16.5004 29.4419 13.9301C29.3153 13.101 29.348 12.2745 29.54 11.4504C29.7589 10.5115 30.1722 9.65777 30.7797 8.88913ZM39.8548 12.944C39.8548 11.8697 39.4303 10.8393 38.6746 10.0796C37.919 9.31995 36.8941 8.89316 35.8254 8.89316C34.7568 8.89316 33.7319 9.31995 32.9762 10.0796C32.2206 10.8393 31.796 11.8697 31.796 12.944C31.796 14.0184 32.2206 15.0488 32.9762 15.8084C33.7319 16.5681 34.7568 16.9949 35.8254 16.9949C36.8941 16.9949 37.919 16.5681 38.6746 15.8084C39.4303 15.0488 39.8548 14.0184 39.8548 12.944ZM55.2671 12.944C55.2671 11.8697 54.8425 10.8393 54.0869 10.0796C53.3312 9.31995 52.3063 8.89316 51.2377 8.89316C50.169 8.89316 49.1441 9.31995 48.3885 10.0796C47.6328 10.8393 47.2083 11.8697 47.2083 12.944C47.2083 14.0184 47.6328 15.0488 48.3885 15.8084C49.1441 16.5681 50.169 16.9949 51.2377 16.9949C52.3063 16.9949 53.3312 16.5681 54.0869 15.8084C54.8425 15.0488 55.2671 14.0184 55.2671 12.944Z" fill="currentColor"/>
  <path d="M91.9225 6.15776L94.6866 6.53125C94.6951 6.53229 94.6994 6.53715 94.6994 6.54583C94.699 10.5773 94.6989 14.6076 94.6991 18.6366C94.6991 18.8802 94.6974 19.0457 94.6939 19.1332C94.689 19.2587 94.6679 19.3482 94.6306 19.4015C94.5714 19.4861 94.4745 19.5284 94.3399 19.5284C93.2299 19.5288 92.4974 19.5284 92.1422 19.5272C92.124 19.5272 92.0948 19.5207 92.0544 19.5076C91.9412 19.4713 91.8839 19.2976 91.8839 19.1949C91.8839 17.7667 91.8839 13.4325 91.8839 6.19219C91.8839 6.16572 91.8968 6.15425 91.9225 6.15776Z" fill="currentColor"/>
  <path d="M64.17 18.4468C63.6363 18.0036 63.2136 17.4497 62.902 16.7851C62.7005 16.3558 62.5479 15.9221 62.4441 15.4841C62.3207 14.9633 62.2431 14.4365 62.2114 13.9038C62.1988 13.6942 62.1929 13.442 62.1935 13.1472C62.1941 12.8276 62.1956 12.6196 62.1978 12.5232C62.211 12.0034 62.2696 11.4789 62.3736 10.9498C62.5405 10.1014 62.8584 9.25054 63.3648 8.55511C63.8033 7.9527 64.3566 7.48637 65.0246 7.15614C65.7957 6.77503 66.6377 6.59399 67.5087 6.55498C68.4019 6.51502 69.2784 6.56715 70.1268 6.81248C71.5843 7.23407 72.6326 8.1252 73.2715 9.48588C73.8588 10.7363 73.9902 12.1502 73.9642 13.5214C73.9533 14.092 73.8963 14.6474 73.7933 15.1876C73.6355 16.016 73.3274 16.8453 72.8442 17.5395C72.4016 18.1748 71.8325 18.6689 71.1372 19.0218C70.3048 19.4441 69.3686 19.6292 68.4362 19.652C68.0619 19.6611 67.7493 19.6581 67.4985 19.6429C67.0824 19.6175 66.661 19.5544 66.2342 19.4535C65.4797 19.2746 64.765 18.9409 64.17 18.4468ZM65.6644 10.0833C65.2442 10.6261 65.0116 11.3125 64.9019 12.0001C64.8348 12.4206 64.8059 12.8559 64.8154 13.3057C64.8207 13.554 64.8307 13.7617 64.8454 13.9288C64.8688 14.1974 64.9262 14.5075 65.0175 14.8592C65.1009 15.1809 65.2281 15.4894 65.399 15.7847C65.7605 16.4093 66.3133 16.849 66.9955 17.0541C67.5182 17.2112 68.0566 17.2497 68.6104 17.1696C69.5614 17.0321 70.2518 16.5362 70.6814 15.682C70.8225 15.4017 70.9297 15.102 71.0031 14.7831C71.0914 14.3981 71.1433 14.031 71.1588 13.6819C71.1804 13.1908 71.1727 12.7501 71.1356 12.36C71.1004 11.9915 71.0272 11.617 70.9159 11.2366C70.8109 10.877 70.676 10.5664 70.5112 10.3046C70.0175 9.51928 69.302 9.08708 68.3648 9.00801C67.3223 8.91999 66.317 9.24086 65.6644 10.0833Z" fill="currentColor"/>
  <path d="M96.407 10.2628C96.414 10.2609 96.4211 10.261 96.4284 10.2631L97.3883 10.265C97.3991 10.265 97.4044 10.2596 97.4044 10.2488V6.68645C97.4044 6.68433 97.4048 6.68223 97.4057 6.68028C97.4066 6.67834 97.4078 6.67661 97.4094 6.67519C97.411 6.67378 97.4129 6.67273 97.4149 6.6721C97.4169 6.67147 97.419 6.67128 97.4211 6.67155L100.162 7.01943C100.181 7.02191 100.191 7.03268 100.191 7.05173V10.246C100.191 10.2511 100.193 10.256 100.196 10.2596C100.2 10.2632 100.205 10.2653 100.21 10.2653H101.961C101.967 10.2653 101.973 10.2674 101.978 10.2715C101.983 10.2755 101.986 10.2811 101.987 10.2873L102.353 12.3221C102.353 12.3251 102.353 12.3282 102.352 12.3312C102.351 12.3341 102.35 12.3368 102.348 12.3392C102.346 12.3415 102.344 12.3434 102.341 12.3447C102.338 12.346 102.335 12.3467 102.332 12.3467H100.206C100.195 12.3467 100.19 12.352 100.19 12.3628C100.192 13.9875 100.191 15.2271 100.188 16.0817C100.187 16.2786 100.203 16.4524 100.236 16.6029C100.314 16.9595 100.533 17.1704 100.894 17.2356C101.091 17.2712 101.276 17.2661 101.449 17.2201C101.62 17.1747 101.804 17.0976 102 16.9887C102.075 16.9469 102.132 16.9684 102.173 17.0533C102.608 17.9588 102.887 18.5377 103.012 18.7899C103.023 18.8131 103.018 18.8315 102.996 18.8452C102.714 19.0189 102.423 19.1531 102.122 19.2477C101.665 19.3914 101.243 19.4772 100.855 19.5049C100.555 19.5264 100.259 19.5333 99.9661 19.5254C99.3897 19.5099 98.7489 19.3667 98.2827 19.0076C97.9558 18.7556 97.7235 18.4312 97.5858 18.0345C97.5066 17.8065 97.4531 17.5548 97.4255 17.2794C97.411 17.1359 97.4039 16.9281 97.4041 16.656C97.4045 15.2376 97.4047 13.8075 97.4047 12.3659C97.4047 12.361 97.4028 12.3563 97.3993 12.3528C97.3958 12.3494 97.3911 12.3474 97.3862 12.3473C97.025 12.3454 96.6675 12.3461 96.3138 12.3494C96.0926 12.3515 95.9815 12.2419 95.9804 12.0205C95.9781 11.4917 95.979 11.0397 95.9829 10.6647C95.9839 10.5653 95.9909 10.4967 96.0039 10.4588C96.0618 10.2904 96.2367 10.2544 96.407 10.2628Z" fill="currentColor"/>
  <path d="M113 14.528V15.2892C112.982 15.7165 112.931 16.1388 112.849 16.5563C112.767 16.9687 112.634 17.3547 112.449 17.7142C112.158 18.2823 111.736 18.7166 111.185 19.0172C110.555 19.3605 109.81 19.5138 109.096 19.5268C109.004 19.5286 108.776 19.5291 108.411 19.528C108.137 19.5272 107.801 19.4908 107.402 19.4189C107.01 19.3485 106.635 19.2233 106.275 19.0434C105.741 18.7762 105.317 18.3957 105.003 17.9018C104.823 17.6183 104.677 17.2957 104.564 16.9339C104.432 16.5113 104.35 16.0401 104.318 15.52C104.282 14.9382 104.293 14.3754 104.352 13.8317C104.415 13.2337 104.567 12.6194 104.835 12.0841C105.123 11.5097 105.536 11.0617 106.076 10.7401C106.733 10.3482 107.508 10.1915 108.29 10.1529C108.803 10.1275 109.3 10.1502 109.782 10.2209C110.121 10.2707 110.443 10.3547 110.747 10.4728C111.355 10.7089 111.842 11.085 112.208 11.6011C112.399 11.8695 112.553 12.1784 112.671 12.5276C112.818 12.9637 112.913 13.4232 112.957 13.9059C112.975 14.1126 112.99 14.3199 113 14.528ZM110.131 12.9624C109.817 12.5699 109.379 12.3669 108.883 12.3072C108.588 12.2718 108.311 12.2829 108.053 12.3406C107.254 12.5199 106.843 13.154 106.7 13.918C106.592 14.4973 106.589 15.0918 106.692 15.7014C106.742 16 106.826 16.26 106.944 16.4815C107.197 16.9577 107.552 17.26 108.056 17.3814C108.495 17.4873 108.928 17.4766 109.356 17.3493C110.117 17.1234 110.496 16.4666 110.623 15.72C110.681 15.3776 110.698 15.0168 110.675 14.6377C110.638 14.0314 110.503 13.4266 110.131 12.9624Z" fill="currentColor"/>
  <path d="M86.0251 17.3633L86.0275 17.4594C86.0275 17.4648 86.0291 17.4662 86.0322 17.4637H86.0325C86.0354 17.4615 86.0369 17.4598 86.0369 17.4588L86.0322 17.3621C86.5209 15.2094 87.0093 13.0567 87.4974 10.904C87.5214 10.7985 87.5376 10.7366 87.5459 10.7183C87.6125 10.574 87.7859 10.5304 87.9397 10.5307C88.5768 10.5322 89.3288 10.5329 90.1958 10.5329C90.229 10.5329 90.278 10.5392 90.3427 10.5517C90.5534 10.5925 90.6499 10.8057 90.5833 10.9942C89.071 15.2751 88.1194 17.9712 87.7286 19.0824C87.6981 19.1693 87.6659 19.2555 87.6318 19.341C87.582 19.4665 87.4873 19.529 87.3476 19.5286C85.6317 19.523 84.7654 19.5201 84.7488 19.5199C84.6735 19.519 84.5699 19.5233 84.5179 19.4609C84.4683 19.4014 84.4294 19.3189 84.4011 19.2134C83.9251 17.4389 83.4353 15.62 82.9316 13.7567C82.926 13.7357 82.9201 13.7356 82.9139 13.7564C82.2762 15.8914 81.7225 17.7407 81.2529 19.3043C81.2189 19.4173 81.1557 19.4869 81.0634 19.5128C81.0401 19.5194 80.9548 19.5228 80.8075 19.523C80.0849 19.5238 79.352 19.5241 78.6087 19.5239C78.5296 19.5239 78.3665 19.5283 78.3033 19.4739C78.2577 19.4347 78.2226 19.3805 78.1981 19.3111C77.9169 18.5104 76.9575 15.79 75.3198 11.1499C75.2734 11.0183 75.2264 10.8984 75.2566 10.7785C75.3191 10.5304 75.5616 10.5301 75.7839 10.5307C76.4977 10.5328 77.2188 10.5335 77.9472 10.5329C77.9837 10.5329 78.0441 10.5428 78.1284 10.5626C78.1805 10.5749 78.2292 10.6119 78.2747 10.6735C78.3192 10.7337 78.346 10.8864 78.3649 10.9664C78.8956 13.2221 79.3788 15.3211 79.8145 17.2635C79.8187 17.2818 79.8228 17.2818 79.827 17.2635C79.9945 16.5356 80.1967 15.7084 80.4337 14.7819C80.4986 14.5285 80.5488 14.3286 80.5843 14.1821C80.9138 12.8266 81.2056 11.6779 81.4596 10.7362C81.4853 10.6404 81.5559 10.5814 81.6713 10.5592C81.7879 10.5367 81.9007 10.5266 82.0096 10.5289C82.1937 10.533 82.8317 10.5343 83.9236 10.5329C84.0622 10.5326 84.2029 10.5493 84.2938 10.6605C84.3187 10.6906 84.3461 10.7623 84.3762 10.8755C84.9033 12.8505 85.4061 14.7961 85.8847 16.7123C85.9062 16.7986 85.953 17.0156 86.0251 17.3633Z" fill="currentColor"/>
  <path d="M34.7133 11.6739C34.9985 11.4356 35.3523 11.3112 35.7746 11.3007C36.1457 11.2918 36.5155 11.3681 36.8128 11.5647C37.3786 11.9379 37.5789 12.6286 37.4621 13.2886C37.2989 14.2101 36.4619 14.7726 35.5522 14.6171C35.1139 14.5422 34.7614 14.3293 34.4947 13.9784C34.3635 13.8057 34.2715 13.6064 34.2188 13.3804C34.0764 12.772 34.2207 12.0857 34.7133 11.6739Z" fill="currentColor"/>
  <path d="M51.7646 11.3809C51.7024 11.3049 51.717 11.2825 51.8085 11.3135C51.9189 11.351 52.0486 11.4136 52.1978 11.5013C52.4165 11.6296 52.596 11.8106 52.7279 12.0329C52.9588 12.4222 53.0305 12.8559 52.9432 13.3339C52.8952 13.5968 52.7741 13.8382 52.5799 14.0581C52.2831 14.3939 51.9033 14.5857 51.4405 14.6334C51.0956 14.669 50.7827 14.6042 50.502 14.4393C50.1449 14.2292 49.9036 13.854 49.7856 13.4505C49.7711 13.4011 49.7836 13.3923 49.8229 13.424C49.9104 13.4942 50.0123 13.5951 50.1124 13.6529C50.5007 13.8764 50.8938 13.9103 51.2919 13.7547C51.7727 13.5667 52.1205 13.1178 52.1857 12.5868C52.2348 12.1868 52.1214 11.7816 51.8502 11.4786C51.8063 11.4294 51.7778 11.3969 51.7646 11.3809Z" fill="currentColor"/>
  <path d="M85.997 17.3429V17.4638C85.997 17.4651 85.997 17.4671 85.997 17.47C85.997 17.4731 85.997 17.4713 85.997 17.4646V17.3444C85.997 17.3439 85.997 17.3434 85.997 17.3429Z" fill="currentColor"/>
</svg>