<svg xmlns="http://www.w3.org/2000/svg" width="140" height="28" viewBox="0 0 140 28" fill="none">
  <path fill-rule="evenodd" clip-rule="evenodd" d="M29.5585 3C28.5918 3 27.808 3.77527 27.808 4.73158C27.808 5.05299 27.5446 5.31357 27.2197 5.31357H24.7796C24.349 5.31357 24 5.65885 24 6.08472V23.2288C24 23.6547 24.349 24 24.7796 24H28.6177C29.0483 24 29.3973 23.6547 29.3973 23.2288V17.6525C29.3973 17.2266 29.7464 16.8814 30.1769 16.8814H33.2053C34.6958 16.8814 35.904 15.6862 35.904 14.2119C35.904 13.7856 35.8029 13.3826 35.6233 13.025C35.551 12.8813 35.7418 12.6101 35.9041 12.6101H38.0631C38.3032 12.6101 38.6027 12.9065 38.6027 13.1441V15.2796C38.6027 16.1643 39.3276 16.8814 40.2219 16.8814H42.3808C43.2751 16.8814 44 16.1643 44 15.2796V13.1441C44 12.2595 43.2751 11.5423 42.3808 11.5423H40.2219C39.9818 11.5423 39.6823 11.246 39.6823 11.0085V8.87289C39.6823 8.63531 39.9818 8.33899 40.2219 8.33899H42.3808C43.2751 8.33899 44 7.62188 44 6.73726V4.6017C44 3.71708 43.2751 3 42.3808 3H40.2219C39.3276 3 38.6027 3.71708 38.6027 4.6017V6.73726C38.6027 6.97484 38.3032 7.27116 38.0631 7.27116H35.9041C35.7418 7.27116 35.551 7.00005 35.6233 6.8563C35.803 6.49877 35.904 6.09578 35.904 5.66948C35.904 4.19515 34.6958 3 33.2053 3H29.5585ZM33.6637 11.5807C33.8938 11.6196 34.285 11.2394 34.285 11.0085V8.87289C34.285 8.64189 33.8939 8.26169 33.6637 8.30061C33.5148 8.32582 33.3616 8.33899 33.2053 8.33899H30.1769C29.7464 8.33899 29.3973 8.68427 29.3973 9.11014V10.7712C29.3973 11.1971 29.7464 11.5423 30.1769 11.5423H33.2053C33.3616 11.5423 33.5147 11.5555 33.6637 11.5807Z" fill="currentColor"/>
  <path d="M110.074 16.4867C110.204 16.5096 110.363 16.5326 110.551 16.5556C110.74 16.567 110.916 16.5728 111.081 16.5728C111.482 16.5728 111.847 16.5154 112.177 16.4006C112.518 16.2859 112.807 16.108 113.042 15.867C113.29 15.626 113.478 15.3161 113.608 14.9374C113.749 14.5472 113.82 14.0824 113.82 13.5431C113.82 12.5102 113.572 11.7355 113.078 11.2191C112.583 10.6912 111.923 10.4272 111.099 10.4272C110.934 10.4272 110.763 10.433 110.587 10.4444C110.422 10.4559 110.251 10.4731 110.074 10.4961V16.4867ZM111.064 19C110.863 19 110.634 18.9943 110.375 18.9828C110.116 18.9713 109.844 18.9484 109.562 18.9139C109.291 18.8795 109.014 18.8336 108.731 18.7762C108.46 18.7303 108.207 18.6615 107.972 18.5697C107.324 18.3287 107 17.9098 107 17.313V9.27385C107 9.03285 107.065 8.84923 107.194 8.72301C107.336 8.58528 107.524 8.47623 107.76 8.3959C108.266 8.23523 108.802 8.13195 109.367 8.08606C109.933 8.02867 110.439 8 110.887 8C111.806 8 112.636 8.109 113.378 8.32706C114.132 8.54512 114.774 8.88367 115.304 9.34273C115.846 9.7903 116.264 10.3584 116.558 11.0469C116.853 11.7355 117 12.5503 117 13.4914C117 14.4095 116.859 15.2128 116.576 15.9014C116.293 16.5785 115.887 17.1523 115.357 17.6229C114.839 18.0819 114.214 18.4262 113.484 18.6557C112.754 18.8853 111.947 19 111.064 19Z" fill="currentColor"/>
  <path d="M97.2041 8.49201C97.4167 8.37485 97.7353 8.26353 98.16 8.15811C98.5973 8.05269 99.0346 8 99.4719 8C100.097 8 100.646 8.08784 101.121 8.26354C101.608 8.42754 101.921 8.69113 102.058 9.05429C102.283 9.66347 102.527 10.3722 102.789 11.1805C103.051 11.9888 103.314 12.8264 103.576 13.6933C103.839 14.5485 104.094 15.3977 104.344 16.2412C104.594 17.0729 104.813 17.811 105 18.4553C104.85 18.6193 104.626 18.7481 104.326 18.8418C104.025 18.9473 103.67 19 103.257 19C102.957 19 102.702 18.9766 102.489 18.9297C102.289 18.8828 102.121 18.8126 101.983 18.7188C101.858 18.6251 101.752 18.5021 101.664 18.3498C101.589 18.1976 101.521 18.0218 101.458 17.8227L101.121 16.6102H97.7288C97.6293 16.9617 97.5293 17.3248 97.4293 17.6997C97.3292 18.0746 97.2292 18.4377 97.1292 18.7892C96.9543 18.8477 96.7668 18.8946 96.5673 18.9297C96.3798 18.9766 96.1486 19 95.8737 19C95.2364 19 94.7619 18.9004 94.4493 18.7013C94.1498 18.4904 94 18.2034 94 17.8403C94 17.6763 94.0246 17.5123 94.0749 17.3483C94.1246 17.1843 94.1809 16.9909 94.2432 16.7684C94.3307 16.4521 94.4493 16.0597 94.5996 15.5911C94.7619 15.1225 94.9369 14.6187 95.1243 14.0799C95.3118 13.5293 95.5113 12.967 95.7239 12.393C95.936 11.819 96.1361 11.2801 96.3235 10.7763C96.511 10.2609 96.6794 9.80405 96.8297 9.40573C96.992 9.00745 97.1166 8.70286 97.2041 8.49201ZM99.4533 10.7588C99.2784 11.2508 99.0783 11.8014 98.8537 12.4105C98.641 13.008 98.4475 13.6172 98.2726 14.238H100.596C100.421 13.6054 100.24 12.9904 100.053 12.393C99.878 11.7838 99.7156 11.2391 99.5653 10.7588H99.4533Z" fill="currentColor"/>
  <path d="M89.1527 13.2197C89.6649 13.2197 90.0549 13.1088 90.3233 12.8869C90.6039 12.6534 90.7437 12.3031 90.7437 11.836C90.7437 11.3923 90.5975 11.0536 90.3051 10.8201C90.0245 10.5748 89.6099 10.4522 89.0609 10.4522C88.8656 10.4522 88.7013 10.4581 88.5668 10.4698C88.4452 10.4698 88.3171 10.4814 88.1827 10.5048V13.2197H89.1527ZM88.2013 18.8423C88.0669 18.8774 87.8535 18.9124 87.5611 18.9474C87.2804 18.9825 86.9998 19 86.7197 19C86.439 19 86.1888 18.9767 85.9695 18.93C85.7619 18.8949 85.5853 18.8248 85.4391 18.7197C85.2924 18.6146 85.183 18.4687 85.1094 18.2819C85.0363 18.095 85 17.8498 85 17.5462V9.29616C85 9.05094 85.0667 8.8641 85.2011 8.73567C85.3473 8.59553 85.5426 8.48457 85.7865 8.40283C86.201 8.26275 86.6706 8.16348 87.195 8.10509C87.7318 8.035 88.268 8 88.8048 8C90.4876 8 91.7746 8.34449 92.6645 9.03341C93.555 9.72239 94 10.6566 94 11.836C94 12.4081 93.9024 12.9278 93.7076 13.3949C93.5246 13.8503 93.2439 14.2473 92.8662 14.586C92.5002 14.9129 92.0306 15.1699 91.4576 15.3567C90.8963 15.5318 90.2438 15.6194 89.5 15.6194H88.2013V18.8423Z" fill="currentColor"/>
  <path d="M78.0343 16.2055C77.8732 16.336 77.6622 16.4428 77.4018 16.5259C77.1539 16.5971 76.8626 16.6327 76.5279 16.6327C76.0815 16.6327 75.7094 16.5793 75.4121 16.4725C75.1268 16.3657 74.9407 16.1818 74.8539 15.9207C74.5067 14.8765 74.2214 14.034 73.9985 13.3932C73.7755 12.7406 73.6019 12.171 73.4777 11.6845H73.3849C73.3475 12.3846 73.3166 13.0254 73.2916 13.6068C73.2792 14.1764 73.2667 14.7341 73.2547 15.2799C73.2547 15.8258 73.2423 16.3776 73.2173 16.9353C73.2048 17.493 73.1799 18.1101 73.143 18.7864C72.9819 18.8458 72.7709 18.8932 72.5105 18.9288C72.2501 18.9763 71.9897 19 71.7294 19C71.1836 19 70.7562 18.9169 70.4459 18.7508C70.1486 18.5847 70 18.2821 70 17.8431L70.5392 8.76538C70.6385 8.61109 70.8555 8.44496 71.1902 8.267C71.5248 8.08898 71.9962 8 72.6038 8C73.2607 8 73.7755 8.10087 74.1471 8.30256C74.5192 8.49241 74.7921 8.80691 74.9657 9.24596C75.0774 9.53071 75.1951 9.85705 75.3188 10.2249C75.4555 10.5928 75.5857 10.9725 75.7094 11.3641C75.8461 11.7557 75.9763 12.1472 76.0999 12.5388C76.2242 12.9186 76.3359 13.2627 76.4346 13.5712H76.5279C76.8252 12.5744 77.123 11.6133 77.4208 10.6877C77.7181 9.75026 77.9909 8.96707 78.2388 8.33817C78.4249 8.24322 78.6603 8.16613 78.9457 8.10679C79.2435 8.03556 79.5717 8 79.9313 8C80.5389 8 81.0347 8.08898 81.4193 8.267C81.8039 8.43313 82.0268 8.67635 82.0887 8.99677C82.1386 9.23407 82.1879 9.60194 82.2378 10.1003C82.2997 10.5868 82.3615 11.1386 82.4234 11.7557C82.4858 12.3727 82.5476 13.0254 82.6094 13.7136C82.6718 14.4018 82.7271 15.0664 82.7771 15.7071C82.8389 16.336 82.8888 16.9175 82.9257 17.4515C82.9631 17.9736 82.9875 18.377 83 18.6618C82.7895 18.7805 82.566 18.8636 82.3306 18.911C82.1077 18.9704 81.8158 19 81.4567 19C80.9853 19 80.5888 18.9229 80.266 18.7686C79.9438 18.6144 79.7702 18.3118 79.7453 17.8609C79.6709 16.5674 79.6216 15.4045 79.5966 14.3722C79.5841 13.3398 79.5592 12.4736 79.5223 11.7734H79.429C79.3053 12.2363 79.1252 12.8177 78.8898 13.5178C78.6544 14.2179 78.369 15.1138 78.0343 16.2055Z" fill="currentColor"/>
  <path d="M68 14.8162C68 15.4438 67.8827 16.019 67.6482 16.542C67.4259 17.0534 67.0987 17.495 66.6666 17.8669C66.2346 18.2271 65.7099 18.5061 65.0926 18.7037C64.4753 18.9013 63.7778 19 63 19C62.2222 19 61.5247 18.9013 60.9074 18.7037C60.2901 18.5061 59.7654 18.2271 59.3334 17.8669C58.9013 17.495 58.5679 17.0534 58.3333 16.542C58.1111 16.019 58 15.4438 58 14.8162V8.15686C58.1358 8.13362 58.3518 8.10459 58.6482 8.06971C58.9445 8.02324 59.2284 8 59.5 8C59.784 8 60.0309 8.02324 60.2408 8.06971C60.463 8.10459 60.6482 8.1743 60.7963 8.27889C60.9444 8.38348 61.0555 8.52879 61.1296 8.71473C61.2037 8.90068 61.2407 9.14473 61.2407 9.44691V14.7639C61.2407 15.3217 61.4012 15.7575 61.7222 16.0713C62.0556 16.3851 62.4815 16.542 63 16.542C63.5309 16.542 63.9568 16.3851 64.2778 16.0713C64.5987 15.7575 64.7593 15.3217 64.7593 14.7639V8.15686C64.8951 8.13362 65.1111 8.10459 65.4074 8.06971C65.7037 8.02324 65.9877 8 66.2592 8C66.5432 8 66.7901 8.02324 67 8.06971C67.2222 8.10459 67.4074 8.1743 67.5555 8.27889C67.7037 8.38348 67.8148 8.52879 67.8889 8.71473C67.9629 8.90068 68 9.14473 68 9.44691V14.8162Z" fill="currentColor"/>
  <path d="M52.1525 13.2197C52.6646 13.2197 53.0549 13.1088 53.3232 12.8869C53.6037 12.6534 53.7439 12.3031 53.7439 11.836C53.7439 11.3923 53.5976 11.0536 53.3049 10.8201C53.0244 10.5748 52.6097 10.4522 52.061 10.4522C51.8659 10.4522 51.7012 10.4581 51.5671 10.4698C51.4451 10.4698 51.3171 10.4814 51.183 10.5048V13.2197H52.1525ZM51.2012 18.8423C51.0671 18.8774 50.8537 18.9124 50.561 18.9474C50.2805 18.9825 50 19 49.7195 19C49.4391 19 49.189 18.9767 48.9695 18.93C48.7622 18.8949 48.5854 18.8248 48.439 18.7197C48.2927 18.6146 48.1829 18.4687 48.1098 18.2819C48.0366 18.095 48 17.8498 48 17.5462V9.29616C48 9.05094 48.0671 8.8641 48.2013 8.73567C48.3476 8.59553 48.5427 8.48457 48.7866 8.40283C49.2013 8.26275 49.6708 8.16348 50.1951 8.10509C50.7317 8.035 51.2683 8 51.8049 8C53.4878 8 54.7744 8.34449 55.6647 9.03341C56.5549 9.72239 57 10.6566 57 11.836C57 12.4081 56.9025 12.9278 56.7073 13.3949C56.5244 13.8503 56.2439 14.2473 55.8659 14.586C55.5 14.9129 55.0305 15.1699 54.4573 15.3567C53.8964 15.5318 53.2439 15.6194 52.5 15.6194H51.2012V18.8423Z" fill="currentColor"/>
</svg>