<svg xmlns="http://www.w3.org/2000/svg" width="140" height="28" viewBox="0 0 140 28" fill="none">
  <path d="M38.2146 6C38.5619 6.24788 38.7798 6.40655 38.8684 6.47601C39.3941 6.89072 39.817 7.4001 40.137 8.00413H32V6H38.2146Z" fill="currentColor"/>
  <path d="M46.2918 6L44.7586 8.00208L40.1333 8.00413C39.8133 7.4001 39.3904 6.89072 38.8647 6.47601C38.7762 6.40655 38.5582 6.24788 38.2109 6H46.2918Z" fill="currentColor"/>
  <path d="M52.4944 6L52.4965 7.94182C52.4965 7.97655 52.4791 7.99391 52.4444 7.99391L44.7586 8.00208L46.2918 6H52.4944Z" fill="currentColor"/>
  <path d="M40.47 9.30962C40.5225 9.75702 40.5347 10.0914 40.5068 10.3127C40.4353 10.8796 39.8388 10.9052 39.3822 10.9072C36.9388 10.3934 34.7518 10.1237 32 9.77132V9.30859L40.47 9.30962Z" fill="currentColor"/>
  <path d="M43.2109 13.3014C43.4874 12.5537 43.8071 11.9027 44.1701 11.3484C44.6216 10.6565 45.2086 9.97723 45.9311 9.31055L52.4604 9.31157C52.4685 9.31157 52.4763 9.3149 52.482 9.32084C52.4878 9.32678 52.491 9.33484 52.491 9.34323V13.2759C52.491 13.2791 52.4904 13.2823 52.4891 13.2853C52.4879 13.2883 52.4861 13.291 52.4838 13.2932C52.4815 13.2955 52.4788 13.2973 52.4759 13.2985C52.4729 13.2998 52.4697 13.3004 52.4665 13.3004L43.2109 13.3014Z" fill="currentColor"/>
  <path d="M45.9325 9.31259C45.21 9.97927 44.623 10.6585 44.1715 11.3504C43.8085 11.9047 43.4888 12.5558 43.2123 13.3035H39.5881C39.5718 12.4945 39.5033 11.696 39.3828 10.9081C39.8394 10.9061 40.436 10.8805 40.5075 10.3136C40.5354 10.0923 40.5231 9.75795 40.4707 9.31055L45.9325 9.31259Z" fill="currentColor"/>
  <path d="M39.3828 10.9081C39.5033 11.696 39.5718 12.4945 39.5881 13.3035L32 13.3037V9.77132C34.7518 10.1237 36.9395 10.3943 39.3828 10.9081Z" fill="currentColor"/>
  <path d="M43.2668 14.6065C42.9869 14.9688 42.7506 15.3488 42.5579 15.7465C42.2862 16.3083 42.1432 17.0764 41.9216 17.6862C41.5538 18.6954 40.9392 19.5582 40.0778 20.2746C39.5007 19.2235 38.8173 18.4799 37.6549 18.105C37.1176 17.9314 36.7441 17.8282 36.5343 17.7955C35.0293 17.5626 33.5179 17.3825 32 17.2552V14.6055L43.2668 14.6065Z" fill="currentColor"/>
  <path d="M48.0967 14.6084C47.1379 15.4978 46.1927 16.3896 45.2611 17.2837C44.7783 17.7474 44.3761 18.264 44.0547 18.8333C43.8613 19.1765 43.6203 19.7778 43.3315 20.6372C43.1095 21.2984 42.8824 21.96 42.6502 22.6219H39.3672C39.6505 21.8503 39.8858 21.0682 40.073 20.2756C40.9345 19.5592 41.5491 18.6964 41.9168 17.6872C42.1384 17.0773 42.2814 16.3092 42.5532 15.7474C42.7459 15.3497 42.9822 14.9697 43.2621 14.6074L48.0967 14.6084Z" fill="currentColor"/>
  <path d="M42.6562 22.6219C42.8885 21.96 43.1156 21.2984 43.3376 20.6372C43.6263 19.7778 43.8674 19.1765 44.0608 18.8333C44.3822 18.264 44.7843 17.7474 45.2671 17.2837C46.1987 16.3896 47.1439 15.4978 48.1027 14.6084L52.443 14.6074C52.477 14.6074 52.494 14.6244 52.494 14.6585V22.5984C52.494 22.6041 52.4917 22.6095 52.4875 22.6136C52.4832 22.6176 52.4775 22.6198 52.4716 22.6198L42.6562 22.6219Z" fill="currentColor"/>
  <path d="M40.0778 20.2746C39.8905 21.0673 39.6552 21.8501 39.372 22.6216L32 22.6237V17.2552C33.5179 17.3825 35.0293 17.5626 36.5343 17.7955C36.7441 17.8282 37.1176 17.9314 37.6549 18.105C38.8173 18.4799 39.5007 19.2235 40.0778 20.2746Z" fill="currentColor"/>
  <path d="M59.2061 11.4673C59.1653 12.8289 60.5872 13.263 61.6761 13.2906C63.386 13.3345 66.1562 13.2977 66.3564 15.6849C66.5321 17.7748 65.1184 19.0006 63.2042 19.3214C61.3768 19.6278 58.962 19.3561 57.9732 17.5287C57.6811 16.988 57.5364 16.3996 57.5391 15.7636C57.5391 15.7316 57.5551 15.7156 57.5871 15.7156H58.8915C58.9276 15.7156 58.946 15.7333 58.9467 15.7687C58.9732 16.9219 59.5585 17.829 60.6005 18.2304C61.009 18.3877 61.4908 18.463 62.0458 18.4562C63.2501 18.4408 64.6087 17.9924 64.8324 16.6277C65.2338 14.1721 62.6342 14.404 61.1132 14.3264C60.6651 14.3032 60.2167 14.2259 59.768 14.0945C58.436 13.7053 57.6218 12.8125 57.7117 11.3426C57.7883 10.0781 58.7046 9.20368 59.8752 8.79509C60.5637 8.55402 61.3506 8.44813 62.2358 8.47741C63.0183 8.50329 63.702 8.6497 64.2869 8.91665C65.337 9.39538 65.9278 10.252 66.0592 11.4867C66.0681 11.5738 66.0285 11.6174 65.9407 11.6174H64.6884C64.6516 11.6174 64.6319 11.599 64.6291 11.5623C64.5917 10.9746 64.3901 10.5016 64.0244 10.1434C63.2195 9.35384 61.7649 9.30276 60.7537 9.59286C59.7506 9.88092 59.2347 10.5057 59.2061 11.4673Z" fill="currentColor"/>
  <path d="M77.9174 8.7207H77.9899L78.5966 8.72581C78.6286 8.72581 78.6446 8.74215 78.6446 8.77484V11.0793C78.6446 11.1154 78.6627 11.1334 78.6988 11.1334H80.42C80.4533 11.1334 80.47 11.1501 80.47 11.1835V12.1294C80.47 12.1627 80.4533 12.1794 80.42 12.1794H78.7069C78.6702 12.1794 78.6518 12.1975 78.6518 12.2335C78.6402 14.5972 78.6406 16.3327 78.6528 17.44C78.6603 18.0597 78.9827 18.3464 79.6201 18.3001C80.0369 18.2694 80.311 18.2473 80.4424 18.2337C80.4459 18.2332 80.4494 18.2336 80.4527 18.2347C80.4561 18.2357 80.4591 18.2375 80.4617 18.24C80.4643 18.2424 80.4664 18.2453 80.4679 18.2487C80.4693 18.252 80.47 18.2556 80.47 18.2592V19.152C80.47 19.1724 80.4601 19.185 80.4404 19.1898C79.8132 19.3362 79.2041 19.3787 78.613 19.3174C77.5711 19.2092 77.2514 18.4359 77.235 17.4911C77.2275 17.0804 77.2255 15.3197 77.2289 12.209C77.2289 12.2012 77.2258 12.1936 77.2202 12.1881C77.2146 12.1825 77.2071 12.1794 77.1993 12.1794H75.6119C75.5738 12.1794 75.5547 12.1603 75.5547 12.1222V11.1978C75.5547 11.1549 75.5761 11.1334 75.619 11.1334H77.2023C77.2091 11.1334 77.2156 11.1307 77.2204 11.1259C77.2252 11.1212 77.2279 11.1147 77.2279 11.1079V8.77893C77.2279 8.74352 77.2456 8.72581 77.281 8.72581L77.9174 8.7207Z" fill="currentColor"/>
  <path d="M99.659 8.8638L99.66 8.93224V12.4635C99.66 12.5547 99.6859 12.5629 99.7376 12.488C100.2 11.8172 100.836 11.3375 101.647 11.0487C102.743 10.6575 104.296 10.9527 104.97 11.9895C105.277 12.4641 105.422 13.0232 105.404 13.6668L105.405 13.7372L105.406 19.149C105.406 19.1596 105.401 19.1697 105.394 19.1772C105.386 19.1846 105.376 19.1888 105.365 19.1888H104.041C104.027 19.1888 104.014 19.1833 104.004 19.1736C103.994 19.1638 103.989 19.1506 103.989 19.1367C103.988 16.519 103.986 14.7621 103.984 13.8659C103.983 13.4451 103.884 13.0607 103.688 12.7127C103.228 11.8965 102.176 11.8107 101.339 12.063C100.23 12.3971 99.6855 13.4441 99.6641 14.5667C99.6607 14.7281 99.6586 16.2501 99.6579 19.1327C99.6579 19.1708 99.6385 19.1899 99.5997 19.1899H98.2994C98.2613 19.1899 98.2422 19.1708 98.2422 19.1327V8.77697C98.2422 8.73816 98.2613 8.71875 98.2994 8.71875H99.5977C99.6372 8.71875 99.6573 8.7385 99.6579 8.778L99.659 8.8638Z" fill="currentColor"/>
  <path d="M107.128 8.71875H107.562L107.664 8.71977L107.996 8.7259V10.2326L106.636 10.2295C106.598 10.2288 106.578 10.2091 106.578 10.1703V8.7545C106.578 8.74529 106.582 8.73646 106.588 8.72994C106.594 8.72343 106.603 8.71977 106.612 8.71977L107.128 8.71875Z" fill="currentColor"/>
  <path d="M72.8915 17.9598C72.9017 17.8584 72.8779 17.8495 72.82 17.9333C71.9569 19.1887 70.583 19.6238 69.1151 19.3449C67.7668 19.0896 66.9333 18.1243 67.0691 16.7014C67.1651 15.7044 67.8863 15.0384 68.8107 14.7718C69.2827 14.6363 69.6912 14.5617 70.0365 14.5481C70.3035 14.5372 70.7457 14.5168 71.3634 14.4868C71.6841 14.4712 71.9725 14.4123 72.2286 14.3101C72.8302 14.069 72.9508 13.5777 72.8619 12.9658C72.8074 12.5893 72.6147 12.3138 72.2837 12.1395C72.0502 12.0169 71.7849 11.9372 71.488 11.9005C70.7127 11.8034 69.7403 11.8259 69.157 12.306C68.8206 12.5831 68.6466 12.9805 68.635 13.498C68.6344 13.5307 68.6177 13.5471 68.585 13.5471H67.2755C67.2387 13.5471 67.2206 13.5287 67.2213 13.4919C67.2663 10.9668 70.1162 10.6869 71.965 10.977C73.1387 11.1609 74.0989 11.785 74.2817 13.0414C74.296 13.1402 74.3049 13.5202 74.3083 14.1814C74.3137 15.3418 74.3144 16.463 74.3103 17.5451C74.3083 18.0831 74.5763 18.3044 75.1142 18.2091C75.1326 18.2063 75.1418 18.2142 75.1418 18.2326V19.1519C75.1418 19.1682 75.1336 19.1784 75.1173 19.1825C74.6175 19.2942 74.1285 19.2962 73.6505 19.1887C73.0682 19.0569 72.8394 18.5063 72.8915 17.9598ZM72.6392 14.924C71.87 15.3193 71.1693 15.2999 70.203 15.3459C69.6984 15.3694 68.9619 15.6605 68.7147 16.1651C68.3266 16.9557 68.6514 17.9527 69.4338 18.2887C69.8608 18.4726 70.3338 18.5077 70.8527 18.3939C71.6603 18.2169 72.2395 17.7225 72.5902 16.9108C72.8326 16.351 72.9262 15.6431 72.8711 14.7871C72.8677 14.7292 72.8486 14.7238 72.8139 14.7708C72.7679 14.8321 72.6974 14.8944 72.6392 14.924Z" fill="currentColor"/>
  <path d="M85.3097 10.8887C87.9084 10.8897 89.3997 12.6691 89.3997 15.1543C89.3997 17.6406 87.9084 19.42 85.3087 19.419C82.7101 19.419 81.2188 17.6396 81.2188 15.1533C81.2198 12.6681 82.7111 10.8887 85.3097 10.8887ZM82.7234 15.1564C82.7234 16.089 82.9062 17.0686 83.5508 17.7509C84.0033 18.231 84.6376 18.4588 85.3087 18.4588C85.9788 18.4598 86.6131 18.232 87.0667 17.753C87.7112 17.0706 87.8951 16.091 87.8961 15.1584C87.8961 14.2258 87.7133 13.2462 87.0687 12.5639C86.6162 12.0838 85.9819 11.856 85.3118 11.855C84.6407 11.855 84.0063 12.0818 83.5528 12.5618C82.9083 13.2432 82.7244 14.2228 82.7234 15.1564Z" fill="currentColor"/>
  <path d="M95.6598 13.3525C95.5972 12.598 95.2076 12.1294 94.4912 11.9469C93.7691 11.7631 92.7455 11.8264 92.1654 12.2994C91.7343 12.6497 91.5882 13.4015 91.9039 13.8939C92.1837 14.329 92.9887 14.4833 93.4922 14.4955C94.6434 14.5241 96.0766 14.52 96.9121 15.423C97.301 15.8425 97.461 16.3876 97.3922 17.0584C97.1512 19.4016 94.2297 19.6284 92.483 19.3128C91.1715 19.0758 90.0805 18.2453 90.0703 16.8173C90.0703 16.7812 90.0884 16.7632 90.1244 16.7632H91.4238C91.4578 16.7632 91.4762 16.7802 91.4789 16.8143C91.5382 17.5981 91.9597 18.1003 92.7435 18.3209C93.4565 18.5218 94.162 18.5143 94.86 18.2985C95.4565 18.1139 95.798 17.737 95.8845 17.1677C96.0357 16.1779 95.338 15.6784 94.4606 15.5538C94.0833 15.5 93.6509 15.471 93.1633 15.4669C91.7905 15.4557 90.2215 14.9337 90.2358 13.3116C90.2412 12.6593 90.5024 12.1186 91.0193 11.6895C91.4769 11.3102 92.0669 11.0675 92.7895 10.9612C94.0377 10.7784 95.6772 10.8795 96.5229 11.8662C96.8771 12.2803 97.0599 12.7726 97.0715 13.3433C97.0715 13.353 97.0677 13.3624 97.061 13.3693C97.0543 13.3762 97.0452 13.3801 97.0357 13.3801H95.6894C95.6819 13.3801 95.6747 13.3772 95.6692 13.3721C95.6637 13.367 95.6603 13.36 95.6598 13.3525Z" fill="currentColor"/>
  <path d="M107.996 11.1406V19.1816L106.632 19.1827C106.596 19.1827 106.578 19.1646 106.578 19.1285V11.1999C106.578 11.1665 106.595 11.1498 106.628 11.1498L107.996 11.1406Z" fill="currentColor"/>
</svg>