<svg xmlns="http://www.w3.org/2000/svg" width="140" height="28" viewBox="0 0 140 28" fill="none">
  <path d="M62.1953 10.4173C61.0586 10.4173 60.1827 11.0401 60.1827 11.9647C60.1827 12.8636 60.9249 13.1718 61.8476 13.3387L63.0111 13.5185C64.5556 13.7625 65.6187 14.4431 65.6187 16.061C65.6187 17.7497 64.1745 18.7384 62.3357 18.7384C60.6775 18.7384 59.1129 17.801 58.8855 15.9647C58.8655 15.8107 58.9925 15.6758 59.153 15.6758H59.8484C59.9821 15.6758 60.0958 15.7722 60.1159 15.9006C60.2629 17.1975 61.3127 17.7111 62.3424 17.7111C63.4658 17.7111 64.3551 17.1782 64.3551 16.0996C64.3551 15.1365 63.6396 14.8026 62.6901 14.6293L61.5401 14.4366C59.9286 14.1798 58.919 13.4351 58.919 12.0225C58.919 10.3852 60.4034 9.38362 62.1886 9.38362C63.6128 9.38362 65.1841 10.1541 65.4917 11.984C65.5185 12.1381 65.3914 12.2857 65.2243 12.2857H64.5021C64.3751 12.2857 64.2614 12.1959 64.2413 12.0739C64.0341 10.8604 63.1114 10.4173 62.1953 10.4173Z" fill="currentColor"/>
  <path d="M70.2455 11.419C71.9639 11.419 73.1875 12.2987 73.6221 13.7369C73.669 13.8974 73.5419 14.0644 73.3613 14.0644H72.5523C72.4386 14.0644 72.3384 13.9937 72.2982 13.891C71.9974 13.0691 71.3019 12.6004 70.2455 12.6004C68.8079 12.6004 68.0055 13.724 68.0055 15.0788C68.0055 16.4271 68.8146 17.5571 70.2455 17.5571C71.3019 17.5571 71.9974 17.0884 72.2982 16.2666C72.3384 16.1638 72.4386 16.0932 72.5523 16.0932H73.3613C73.5419 16.0932 73.669 16.2601 73.6155 16.4207C73.1541 17.9231 71.9706 18.7386 70.2455 18.7386C68.0323 18.7386 66.6282 17.0949 66.6282 15.0788C66.6215 13.0691 68.0323 11.419 70.2455 11.419Z" fill="currentColor"/>
  <path d="M74.9195 17.5698H76.6512V12.9469H75.1067C74.9596 12.9469 74.8392 12.8314 74.8392 12.6901V12.0352C74.8392 11.894 74.9596 11.7784 75.1067 11.7784H77.2129C77.6542 11.7784 78.0153 12.1251 78.0153 12.5489V12.7351C78.3964 11.8554 79.2188 11.6371 80.4959 11.6371C80.984 11.6371 81.3116 11.7142 81.4989 11.7784C81.6059 11.8169 81.6728 11.9132 81.6728 12.0159V12.6965C81.6728 12.8699 81.4989 12.9983 81.3251 12.9405C81.0977 12.8699 80.7768 12.8057 80.3555 12.8057C78.9915 12.8057 78.022 13.6981 78.022 15.2455V17.5698H80.2485C80.3957 17.5698 80.516 17.6854 80.516 17.8266V18.4815C80.516 18.6228 80.3957 18.7383 80.2485 18.7383H74.9262C74.7791 18.7383 74.6587 18.6228 74.6587 18.4815V17.8266C74.652 17.6854 74.7724 17.5698 74.9195 17.5698Z" fill="currentColor"/>
  <path d="M82.6891 15.0788C82.6891 13.0691 84.0799 11.419 86.3399 11.419C88.5999 11.419 89.9907 13.0627 89.9907 15.0788C89.9907 17.0949 88.5999 18.7386 86.3399 18.7386C84.0799 18.7386 82.6891 17.0949 82.6891 15.0788ZM86.3399 17.5571C87.7908 17.5571 88.6266 16.4335 88.6266 15.0788C88.6266 13.7305 87.7908 12.6004 86.3399 12.6004C84.8889 12.6004 84.0531 13.724 84.0531 15.0788C84.0531 16.4335 84.8889 17.5571 86.3399 17.5571Z" fill="currentColor"/>
  <path d="M95.1056 17.6279C95.2526 17.6279 95.373 17.7434 95.373 17.8848V18.4883C95.373 18.6295 95.2526 18.7451 95.1056 18.7451H91.9696C91.8225 18.7451 91.7022 18.6295 91.7022 18.4883V10.5652H90.659C90.512 10.5652 90.3917 10.4497 90.3917 10.3084V9.70488C90.3917 9.56363 90.512 9.44806 90.659 9.44806H92.2037C92.6449 9.44806 93.006 9.79477 93.006 10.2185V17.6279H95.1056Z" fill="currentColor"/>
  <path d="M99.7325 17.6279C99.8796 17.6279 100 17.7434 100 17.8848V18.4883C100 18.6295 99.8796 18.7451 99.7325 18.7451H96.5966C96.4495 18.7451 96.3291 18.6295 96.3291 18.4883V10.5652H95.286C95.139 10.5652 95.0186 10.4497 95.0186 10.3084V9.70488C95.0186 9.56363 95.139 9.44806 95.286 9.44806H96.8306C97.2719 9.44806 97.633 9.79477 97.633 10.2185V17.6279H99.7325Z" fill="currentColor"/>
  <path d="M41.1129 12.1638C40.4643 11.5731 40.0096 10.809 40.0096 9.90373V9.80742C40.0631 8.26005 41.387 7.01446 42.9985 6.96951H53.2554C53.5229 6.98236 53.7369 7.16213 53.7369 7.42537V15.7593C53.9708 15.7978 54.0845 15.8299 54.3119 15.907C54.4924 15.9712 54.7398 16.1061 54.7398 16.1061V7.42537C54.7264 6.63564 54.0711 6 53.2488 6H42.9918C40.7786 6.0321 39 7.77208 39 9.90373C39 11.1429 39.5884 12.2023 40.5512 12.9471C40.6181 12.9985 40.6783 13.0627 40.8521 13.0627C41.153 13.0627 41.367 12.8315 41.3536 12.5811C41.3469 12.3692 41.2533 12.2922 41.1129 12.1638Z" fill="currentColor"/>
  <path d="M52.988 16.3049H44.9442C44.4026 16.3114 43.968 16.7287 43.968 17.2488V18.3596C43.9814 18.8732 44.4361 19.3098 44.9777 19.3098H45.5728V18.3596H44.9777V17.2745C44.9777 17.2745 45.1248 17.2745 45.3053 17.2745C46.3216 17.2745 47.0705 18.1797 47.0705 19.1492C47.0705 20.0096 46.2548 21.1076 44.8907 21.0177C43.6805 20.9406 43.0252 19.9069 43.0252 19.1492V9.73667C43.0252 9.31292 42.6642 8.9662 42.2229 8.9662H41.4205V9.92929H42.0156V19.1557C41.9822 21.0305 43.4064 21.9743 44.8907 21.9743L52.9947 22C54.6262 22 55.9501 20.7288 55.9501 19.1557C55.9501 17.5826 54.6195 16.3049 52.988 16.3049ZM54.9404 19.2135C54.907 20.2215 54.0444 21.0305 52.988 21.0305L47.3513 21.0113C47.7994 20.5105 48.0735 19.8619 48.0735 19.1557C48.0735 18.0449 47.3848 17.2809 47.3848 17.2809H52.9947C54.0711 17.2809 54.9471 18.122 54.9471 19.1557L54.9404 19.2135Z" fill="currentColor"/>
  <path d="M50.8214 10.1028H44.7569V9.13968H50.8214C51.0955 9.13968 51.3229 9.35156 51.3229 9.62123C51.3229 9.88447 51.1023 10.1028 50.8214 10.1028Z" fill="currentColor"/>
  <path d="M50.8214 14.6357H44.7569V13.6725H50.8214C51.0955 13.6725 51.3229 13.8844 51.3229 14.1541C51.3229 14.4174 51.1023 14.6357 50.8214 14.6357Z" fill="currentColor"/>
  <path d="M51.8913 12.3694H44.7569V11.4063H51.8845C52.1587 11.4063 52.386 11.6182 52.386 11.8878C52.3927 12.1511 52.1654 12.3694 51.8913 12.3694Z" fill="currentColor"/>
</svg>