<svg xmlns="http://www.w3.org/2000/svg" width="140" height="28" viewBox="0 0 140 28" fill="none">
  <path d="M58.7137 15.1198H61.352C61.7229 15.1198 62.0235 15.4218 62.0235 15.7905C62.0235 16.1624 61.7229 16.4612 61.352 16.4612H58.1701C58.1189 16.4612 58.0709 16.4802 58.0358 16.512L57.0764 17.3353C56.9293 17.4624 57.0188 17.7008 57.2107 17.7008H61.1921C61.1921 17.7008 61.1953 17.7008 61.1953 17.6976C61.1953 17.6944 61.1985 17.6944 61.1985 17.6944C61.2496 17.6976 61.2976 17.7008 61.3488 17.7008C62.4041 17.7008 63.2611 16.8458 63.2611 15.7905C63.2611 14.7893 62.4904 13.9661 61.5055 13.8866C61.5055 13.8866 61.5023 13.8866 61.5023 13.8834C61.5023 13.8802 61.5023 13.8802 61.4991 13.8802H58.6594C58.2884 13.8802 57.9878 13.5783 57.9878 13.2096C57.9878 12.8377 58.2884 12.5389 58.6594 12.5389H61.8349C61.886 12.5389 61.9372 12.5198 61.9756 12.4849L62.8678 11.6616C63.0085 11.5313 62.9158 11.2993 62.7271 11.2993H58.7137C58.6977 11.2993 58.6785 11.2993 58.6625 11.2993C57.6072 11.2993 56.7502 12.1543 56.7502 13.2096C56.7502 14.2648 57.6072 15.1198 58.6625 15.1198C58.6785 15.1198 58.6945 15.1198 58.7137 15.1198Z" fill="currentColor"/>
  <path d="M74.0698 11.2961C73.9547 11.2961 73.862 11.3883 73.862 11.5059V17.4941C73.862 17.6086 73.9547 17.7039 74.0698 17.7039H78.8987C78.9562 17.7039 79.0106 17.6785 79.0521 17.6372L79.6566 16.9919C79.7813 16.8584 79.6885 16.6391 79.503 16.6391H75.2882C75.1731 16.6391 75.0804 16.5469 75.0804 16.4293V11.5027C75.0804 11.3883 74.9876 11.2929 74.8725 11.2929H74.0698V11.2961Z" fill="currentColor"/>
  <path fill-rule="evenodd" clip-rule="evenodd" d="M66.3373 11.2961C66.3373 11.2992 66.3373 11.2992 66.3373 11.2961C65.7201 11.3247 65.2244 11.8173 65.1957 12.4308V16.4579C65.1957 16.4738 65.1957 16.4929 65.1957 16.5088C65.1957 17.1477 65.7009 17.6689 66.3373 17.6944H70.7184C71.3516 17.6658 71.8601 17.1445 71.8601 16.5088C71.8601 16.4929 71.8601 16.4738 71.8601 16.4579V12.434C71.8345 11.8205 71.3388 11.3247 70.7216 11.2992H66.3373V11.2961ZM67.156 12.434C67.1528 12.434 67.1528 12.434 67.156 12.434C66.769 12.4499 66.4588 12.7614 66.4428 13.1491V15.6824C66.4428 15.6919 66.4428 15.7046 66.4428 15.7142C66.4428 16.1147 66.7594 16.4452 67.156 16.4611H69.903C70.2995 16.4452 70.6161 16.1147 70.6161 15.7142C70.6161 15.7046 70.6161 15.6919 70.6161 15.6824V13.1491C70.6001 12.7614 70.2899 12.453 69.903 12.434H67.156Z" fill="currentColor"/>
  <path fill-rule="evenodd" clip-rule="evenodd" d="M86.6759 17.4942C86.6759 17.6086 86.7687 17.7039 86.8838 17.7039H87.7025C87.8176 17.7039 87.9103 17.6118 87.9103 17.4942V12.5389C87.9103 12.523 87.9103 12.5039 87.9103 12.488C87.9103 11.8492 87.4083 11.3279 86.7815 11.3025H82.5762C82.5602 11.3025 82.5411 11.3025 82.5251 11.3025C81.8727 11.3025 81.345 11.8333 81.345 12.4912C81.345 12.5071 81.345 12.5262 81.345 12.5421V17.4973C81.345 17.6118 81.4378 17.7071 81.5529 17.7071H82.3716C82.4867 17.7071 82.5794 17.6149 82.5794 17.4973V15.4345C82.5794 15.3201 82.6722 15.2247 82.7873 15.2247H86.4777C86.5928 15.2247 86.6855 15.3169 86.6855 15.4345V17.4942H86.6759ZM82.573 14.0836V13.0538C82.573 12.6533 82.896 12.3291 83.2926 12.3291H85.9596C86.3561 12.3291 86.6791 12.6533 86.6791 13.0538V14.0836C86.6791 14.1981 86.5864 14.2934 86.4713 14.2934H82.7809C82.6658 14.2934 82.573 14.2012 82.573 14.0836Z" fill="currentColor"/>
  <path fill-rule="evenodd" clip-rule="evenodd" d="M103.961 17.704C103.846 17.704 103.753 17.6118 103.753 17.4942V15.4313C103.753 15.3169 103.66 15.2216 103.545 15.2216H99.813C99.6979 15.2216 99.6051 15.3137 99.6051 15.4313V17.4942C99.6051 17.6086 99.5124 17.704 99.3973 17.704H98.5722C98.4571 17.704 98.3644 17.6118 98.3644 17.4942V12.5389C98.3644 12.523 98.3644 12.5039 98.3644 12.4881C98.3644 11.8333 98.8984 11.2993 99.5572 11.2993C99.5732 11.2993 99.5923 11.2993 99.6083 11.2993H103.858C104.492 11.3279 105 11.8492 105 12.4849C105 12.5008 105 12.5198 105 12.5357V17.491C105 17.6054 104.907 17.7008 104.792 17.7008H103.961V17.704ZM99.6051 13.0538V14.0837C99.6051 14.1981 99.6979 14.2934 99.813 14.2934H103.545C103.66 14.2934 103.753 14.2013 103.753 14.0837V13.0538C103.753 12.6533 103.427 12.3291 103.027 12.3291H100.331C99.9281 12.3291 99.6051 12.6533 99.6051 13.0538Z" fill="currentColor"/>
  <path d="M90.9933 11.2961C91.054 11.2961 91.1116 11.3215 91.1499 11.3692L94.8211 15.7205C94.9459 15.8667 95.1857 15.7777 95.1857 15.5839V11.5059C95.1857 11.3914 95.2784 11.2961 95.3936 11.2961H96.2122C96.3273 11.2961 96.4201 11.3882 96.4201 11.5059V17.4941C96.4201 17.6086 96.3273 17.7039 96.2122 17.7039H95.1953C95.1921 17.7039 95.1889 17.7007 95.1889 17.6975C95.1889 17.6944 95.1889 17.6944 95.1857 17.6912L91.4506 13.3716C91.3258 13.2254 91.086 13.3176 91.086 13.5083V17.4973C91.086 17.6117 90.9933 17.7071 90.8781 17.7071H90.0531C89.9379 17.7071 89.8452 17.6149 89.8452 17.4973V11.5059C89.8452 11.3914 89.9379 11.2961 90.0531 11.2961H90.9933Z" fill="currentColor"/>
  <path d="M37.7129 17.9232C37.8153 17.8215 37.9528 17.7643 38.0967 17.7643H51.4159C51.659 17.7643 51.7805 18.0567 51.6078 18.2252L48.9759 20.8411C48.8736 20.9428 48.7361 21 48.5922 21H35.2729C35.0299 21 34.9084 20.7076 35.0811 20.5391L37.7129 17.9232Z" fill="currentColor"/>
  <path d="M37.7129 8.15892C37.8153 8.05721 37.9528 8 38.0967 8H51.4159C51.659 8 51.7805 8.29242 51.6078 8.46088L48.9759 11.0736C48.8736 11.1753 48.7361 11.2325 48.5922 11.2325H35.2729C35.0299 11.2325 34.9084 10.9401 35.0811 10.7716L37.7129 8.15892Z" fill="currentColor"/>
  <path d="M48.9759 13.0093C48.8736 12.9076 48.7361 12.8504 48.5922 12.8504H35.2729C35.0299 12.8504 34.9084 13.1428 35.0811 13.3112L37.7129 15.924C37.8153 16.0257 37.9528 16.0829 38.0967 16.0829H51.4159C51.659 16.0829 51.7805 15.7905 51.6078 15.622L48.9759 13.0093Z" fill="currentColor"/>
</svg> 