<svg xmlns="http://www.w3.org/2000/svg" width="140" height="28" viewBox="0 0 140 28" fill="none">
  <path d="M51.9221 7.14486C53.514 8.73534 53.2332 11.3535 52.3433 13.2743C52.1815 13.6223 51.9953 13.9934 51.7845 14.3876C51.7627 14.4284 51.7627 14.4692 51.7845 14.51C52.7617 16.2676 53.4976 18.7743 52.0748 20.5116C50.5333 22.3957 48.0161 21.9227 46.0767 20.9983C45.5642 20.7545 45.0195 20.4418 44.4426 20.0603C44.4026 20.034 44.3622 20.0336 44.3213 20.059C43.3082 20.7115 42.1152 21.3105 40.7423 21.8561C40.6887 21.8769 40.6737 21.861 40.6974 21.8085L41.3747 20.3036C41.3984 20.252 41.3843 20.2384 41.3325 20.2629C41.1526 20.348 40.9436 20.4591 40.7055 20.5959C39.5971 21.2312 38.3918 21.6952 37.0898 21.9879C37.0371 21.9997 37.008 22.0029 37.0026 21.9974C36.9971 21.992 37.0003 21.963 37.0121 21.9104C37.3083 20.6127 37.7758 19.4114 38.4145 18.3067C38.5526 18.0693 38.6644 17.8613 38.7498 17.6828C38.7743 17.6311 38.7607 17.6171 38.7089 17.6406L37.1988 18.3122C37.1461 18.3357 37.1302 18.3208 37.1511 18.2673C37.7008 16.8989 38.3037 15.7103 38.9597 14.7016C38.986 14.6609 38.986 14.6205 38.9597 14.5807C38.5781 14.0043 38.2655 13.4605 38.022 12.9494C37.0993 11.0123 36.6292 8.50152 38.5208 6.96679C40.2653 5.55167 42.7771 6.28982 44.538 7.26857C44.5789 7.29032 44.6198 7.29032 44.6607 7.26857C45.0559 7.05922 45.4284 6.87389 45.7782 6.71258C47.7053 5.82899 50.3303 5.55439 51.9221 7.14486ZM41.5246 12.4981C40.4016 10.798 40.0609 8.96054 40.5025 6.98582C40.5125 6.94141 40.4948 6.92102 40.4493 6.92464C38.5658 7.0633 37.6377 8.69863 37.9566 10.4495C38.2346 11.972 38.9638 13.3273 39.851 14.5875C39.3077 15.3415 38.8488 16.1177 38.4745 16.9161C38.4382 16.9931 38.4591 17.0144 38.5372 16.98L40.5216 16.0909C40.636 16.0393 40.6556 16.0637 40.5802 16.1643C39.5008 17.6026 38.5195 19.2895 37.9471 20.986C37.9432 20.9968 37.9425 21.0084 37.9451 21.0196C37.9476 21.0307 37.9533 21.0409 37.9615 21.0489C37.9697 21.0569 37.98 21.0624 37.9912 21.0648C38.0024 21.0671 38.014 21.0662 38.0247 21.0622C39.7029 20.4577 41.3075 19.5795 42.8385 18.4277C42.9493 18.3443 42.9761 18.3661 42.9189 18.4929L42.0235 20.4804C42.0197 20.4883 42.0185 20.4972 42.02 20.5059C42.0215 20.5146 42.0258 20.5225 42.0321 20.5287C42.0384 20.5348 42.0465 20.5388 42.0552 20.5402C42.0639 20.5415 42.0728 20.5401 42.0807 20.5361C42.8857 20.1564 43.6689 19.696 44.4303 19.155C45.408 19.8655 46.4615 20.4169 47.5909 20.8093C48.9674 21.2865 50.75 21.3368 51.67 19.9679C51.9417 19.5628 52.0993 19.1001 52.1429 18.5799C52.1465 18.5319 52.1247 18.5133 52.0775 18.5242C50.0868 18.971 48.236 18.6257 46.5251 17.4884L48.2614 15.7565C48.2968 15.7212 48.3114 15.728 48.305 15.7769L48.0897 17.4721C48.0833 17.521 48.0997 17.5301 48.1387 17.4992C50.1694 15.9088 51.9235 13.5244 52.316 10.9525C52.6622 8.68504 51.5514 6.76016 49.0914 6.66772C48.1083 6.63057 47.1107 6.83764 46.0985 7.28896C44.2913 8.09462 42.7649 9.29132 41.5192 10.8791C41.4847 10.9226 41.4951 10.9407 41.5505 10.9334L43.2024 10.7241C43.2796 10.7141 43.2905 10.7368 43.2351 10.7921L41.5246 12.4981ZM43.8443 7.77969C43.85 7.77587 43.8547 7.77061 43.8577 7.76445C43.8608 7.75828 43.8622 7.75141 43.8618 7.74454C43.8614 7.73766 43.8592 7.73101 43.8554 7.72526C43.8516 7.7195 43.8464 7.71483 43.8402 7.71172C42.9261 7.22597 41.973 6.95863 40.9809 6.90969C40.9454 6.90788 40.9241 6.92419 40.9168 6.95863C40.7405 7.75069 40.7169 8.54729 40.8459 9.34842C40.8532 9.39735 40.8814 9.42092 40.9304 9.4191C41.1794 9.41095 41.4279 9.44946 41.6759 9.53465C41.6953 9.54165 41.7163 9.54332 41.7366 9.5395C41.757 9.53567 41.776 9.52649 41.7918 9.5129C41.8526 9.46034 42.0212 9.29993 42.2974 9.03168C42.729 8.61299 43.2446 8.19566 43.8443 7.77969ZM52.0966 18.1164C52.1129 18.1129 52.1274 18.1039 52.1376 18.091C52.1478 18.078 52.1531 18.062 52.1524 18.0457C52.0979 17.0325 51.8194 16.0678 51.317 15.1516C51.315 15.1482 51.3122 15.1453 51.3088 15.1432C51.3055 15.1411 51.3016 15.14 51.2976 15.1399C51.2937 15.1397 51.2897 15.1406 51.2862 15.1424C51.2827 15.1442 51.2797 15.1469 51.2775 15.1502C50.785 15.8453 50.2058 16.5241 49.5398 17.1866C49.5071 17.2192 49.4975 17.2577 49.5112 17.3021C49.5911 17.555 49.632 17.8214 49.6338 18.1014C49.6347 18.1486 49.6584 18.1758 49.7047 18.183C50.4852 18.3126 51.2825 18.2904 52.0966 18.1164Z" fill="currentColor"/>
  <path d="M46.5244 17.4884C46.0228 17.1975 45.539 16.8567 45.0729 16.4661C44.475 15.965 43.904 15.4353 43.3597 14.877C42.6492 14.1484 42.0373 13.3554 41.5239 12.4981L43.2344 10.7921C43.2898 10.7368 43.2789 10.7141 43.2016 10.7241L41.5498 10.9335C41.4944 10.9407 41.4839 10.9226 41.5185 10.8791C42.7642 9.29133 44.2906 8.09463 46.0978 7.28897C47.11 6.83766 48.1076 6.63058 49.0907 6.66773C51.5507 6.76017 52.6615 8.68505 52.3153 10.9525C51.9228 13.5244 50.1687 15.9088 48.138 17.4993C48.099 17.5301 48.0826 17.521 48.089 17.4721L48.3043 15.7769C48.3107 15.728 48.2961 15.7212 48.2607 15.7565L46.5244 17.4884Z" fill="#0000FF"/>
  <path d="M41.5242 12.4981C42.0376 13.3554 42.6495 14.1484 43.36 14.877C43.9043 15.4352 44.4753 15.9649 45.0732 16.4661C45.5393 16.8567 46.0231 17.1974 46.5246 17.4883C48.2355 18.6257 50.0863 18.971 52.077 18.5242C52.1243 18.5133 52.1461 18.5319 52.1425 18.5799C52.0988 19.1001 51.9412 19.5627 51.6695 19.9678C50.7496 21.3367 48.9669 21.2864 47.5904 20.8093C46.461 20.4169 45.4075 19.8654 44.4299 19.1549C42.6554 17.8816 41.129 16.3592 39.8506 14.5874C38.9634 13.3273 38.2342 11.972 37.9562 10.4495C37.6373 8.69862 38.5654 7.06328 40.4489 6.92463C40.4943 6.921 40.5121 6.94139 40.5021 6.9858C40.0605 8.96052 40.4012 10.7979 41.5242 12.4981Z" fill="#FBB042"/>
  <path d="M43.8441 7.77949C43.2444 8.19546 42.7288 8.61279 42.2972 9.03147C42.021 9.29972 41.8524 9.46013 41.7915 9.51269C41.7758 9.52629 41.7568 9.53547 41.7364 9.53929C41.716 9.54311 41.6951 9.54144 41.6757 9.53444C41.4277 9.44926 41.1792 9.41074 40.9302 9.4189C40.8811 9.42071 40.853 9.39715 40.8457 9.34821C40.7167 8.54708 40.7403 7.75049 40.9166 6.95842C40.9238 6.92399 40.9452 6.90767 40.9806 6.90949C41.9728 6.95842 42.9259 7.22577 43.84 7.71152C43.8461 7.71463 43.8514 7.71929 43.8552 7.72505C43.859 7.73081 43.8612 7.73746 43.8616 7.74433C43.862 7.75121 43.8606 7.75807 43.8575 7.76424C43.8544 7.77041 43.8498 7.77566 43.8441 7.77949Z" fill="#F79342"/>
  <path d="M44.4302 19.155C43.6688 19.696 42.8855 20.1564 42.0805 20.5361C42.0727 20.5401 42.0637 20.5415 42.055 20.5402C42.0463 20.5388 42.0382 20.5348 42.0319 20.5287C42.0256 20.5225 42.0214 20.5145 42.0198 20.5059C42.0183 20.4972 42.0195 20.4883 42.0233 20.4803L42.9187 18.4929C42.976 18.3661 42.9491 18.3443 42.8383 18.4277C41.3073 19.5795 39.7027 20.4577 38.0246 21.0622C38.0139 21.0662 38.0022 21.0671 37.991 21.0648C37.9798 21.0624 37.9695 21.0569 37.9613 21.0489C37.9531 21.0409 37.9474 21.0307 37.9449 21.0196C37.9423 21.0084 37.943 20.9968 37.9469 20.986C38.5193 19.2895 39.5006 17.6025 40.58 16.1643C40.6554 16.0637 40.6359 16.0393 40.5214 16.0909L38.537 16.9799C38.4589 17.0144 38.438 16.9931 38.4743 16.9161C38.8487 16.1177 39.3075 15.3414 39.8508 14.5874C41.1292 16.3592 42.6557 17.8817 44.4302 19.155Z" fill="#0000FF"/>
  <path d="M52.0959 18.1162C51.2818 18.2902 50.4845 18.3125 49.704 18.1829C49.6577 18.1756 49.6341 18.1484 49.6332 18.1013C49.6314 17.8213 49.5905 17.5548 49.5105 17.302C49.4969 17.2576 49.5064 17.2191 49.5391 17.1864C50.2051 16.524 50.7844 15.8452 51.2768 15.1501C51.279 15.1468 51.282 15.1441 51.2855 15.1423C51.2891 15.1405 51.293 15.1396 51.297 15.1397C51.3009 15.1398 51.3048 15.141 51.3082 15.143C51.3116 15.1451 51.3144 15.148 51.3163 15.1514C51.8188 16.0677 52.0973 17.0324 52.1518 18.0456C52.1524 18.0619 52.1472 18.0779 52.1369 18.0908C52.1267 18.1037 52.1122 18.1127 52.0959 18.1162Z" fill="#F79342"/>
  <path d="M93.1771 8.54076L93.1761 10.0894C93.1761 10.1049 93.1681 10.1127 93.1522 10.1127H91.5007C91.4782 10.1127 91.4669 10.1015 91.4669 10.079V8.43754C91.4669 8.41668 91.4774 8.40626 91.4983 8.40626H93.1462C93.1655 8.40626 93.1753 8.41586 93.1756 8.43505L93.1771 8.54076Z" fill="currentColor"/>
  <path d="M93.1771 8.54076V8.58743C93.1724 8.5722 93.1724 8.55665 93.1771 8.54076Z" fill="#25A3ED"/>
  <path d="M70.3902 15.8402L70.3912 15.8755L70.3906 16.2737L70.3911 16.311C70.3911 16.7121 70.3893 17.1131 70.3856 17.514C70.383 17.8552 70.2947 18.1685 70.1208 18.4538C69.8391 18.9159 69.4567 19.2118 68.9736 19.3416C68.7927 19.3906 68.4627 19.4149 67.9836 19.4146C66.0229 19.4132 63.9822 19.4127 61.8616 19.4131C61.6874 19.4131 61.4861 19.3664 61.2578 19.2731C61.0684 19.1956 60.895 19.0889 60.7377 18.9528C60.2987 18.5728 60.0766 18.0768 60.0713 17.4648C60.0683 17.1192 60.0688 16.9038 60.0727 16.8184C60.0734 16.8028 60.0815 16.795 60.0971 16.795H61.764C61.7833 16.795 61.7929 16.8046 61.7929 16.8238C61.7935 17.0231 61.7935 17.2212 61.7929 17.4181C61.7922 17.5333 61.833 17.6113 61.9153 17.652C61.9555 17.6715 62.0323 17.6813 62.1458 17.6813C64.2787 17.6816 66.3642 17.6814 68.4022 17.6808C68.4354 17.6808 68.4683 17.6743 68.4989 17.6616C68.5296 17.6489 68.5575 17.6303 68.581 17.6069C68.6044 17.5835 68.6231 17.5557 68.6358 17.5251C68.6485 17.4945 68.655 17.4617 68.655 17.4286C68.6553 16.943 68.6553 16.2838 68.655 15.451C68.655 15.351 68.6398 15.2824 68.6092 15.245C68.5351 15.1551 68.4594 15.1238 68.332 15.1243C68.2066 15.1246 68.0813 15.1246 67.9562 15.1243L67.9209 15.1248C67.9159 15.1248 67.9111 15.1248 67.9064 15.1248H67.8711C67.8661 15.1248 67.8613 15.1248 67.8567 15.1248H67.8213C65.8931 15.1245 63.9648 15.1241 62.0363 15.1238C61.3338 15.1235 60.7857 14.8415 60.3918 14.2778C60.2587 14.0868 60.167 13.8758 60.1165 13.6448C60.0864 13.5061 60.0709 13.2797 60.0703 12.9655C60.0686 12.2562 60.0686 11.6126 60.0703 11.0347C60.0723 10.1757 60.6421 9.41955 61.4609 9.18769C61.6278 9.14035 61.9135 9.11669 62.318 9.11669C64.2057 9.11735 66.0932 9.11719 67.9806 9.11619C68.474 9.11619 68.8038 9.13887 68.9701 9.18421C69.4313 9.30999 69.799 9.58439 70.073 10.0074C70.2748 10.3182 70.3791 10.6242 70.3861 10.9254C70.3924 11.2174 70.3937 11.4817 70.3901 11.7183C70.3901 11.7303 70.3841 11.7362 70.3722 11.7362H68.6764C68.6709 11.7362 68.6656 11.734 68.6616 11.73C68.6577 11.726 68.6555 11.7205 68.6555 11.7149C68.6555 11.6626 68.6552 11.481 68.6545 11.1702C68.6542 11.0759 68.6396 11.0064 68.6107 10.9617C68.5619 10.8862 68.4938 10.8485 68.4062 10.8485C66.2948 10.8488 64.1836 10.8488 62.0726 10.8485C61.9631 10.8485 61.8846 10.8832 61.8372 10.9527C61.808 10.9954 61.7934 11.0697 61.7934 11.1757C61.7924 11.8383 61.7922 12.501 61.7929 13.1636C61.7929 13.2619 61.8314 13.3313 61.9084 13.3717C61.9505 13.3939 62.0212 13.4049 62.1204 13.4049C64.0705 13.4056 66.0204 13.4056 67.9701 13.4049C68.4656 13.4046 68.7957 13.427 68.9606 13.472C69.7162 13.676 70.3453 14.4014 70.3876 15.1928C70.3929 15.2872 70.3938 15.503 70.3902 15.8402Z" fill="currentColor"/>
  <path d="M71.868 17.368L71.869 17.3154L71.869 17.1272V17.0815V14.7822L71.8695 14.6735L71.8694 14.2266L71.869 14.0375V13.9889V13.8751V13.8294L71.8695 13.6165L71.869 13.5172C71.869 13.3474 71.8695 13.1774 71.8705 13.0072C71.8764 11.9934 72.741 11.13 73.7573 11.1245C74.2066 11.1225 75.7869 11.1225 78.4982 11.1245C78.7726 11.1249 79.0508 11.2074 79.3329 11.3723C79.6471 11.5563 79.8943 11.8054 80.0745 12.1195C80.2288 12.3893 80.3067 12.6757 80.3084 12.9789C80.3134 13.9594 80.314 15.4669 80.3104 17.5015C80.3094 17.9471 80.1704 18.3405 79.8933 18.6817C79.4998 19.166 78.9944 19.4096 78.3772 19.4126C77.2836 19.4175 75.8138 19.4185 73.9679 19.4155C73.6802 19.4149 73.4672 19.3973 73.3288 19.3629C73.1181 19.3103 72.9207 19.2203 72.7365 19.0928C72.1306 18.6741 71.8411 18.0992 71.868 17.368ZM73.5742 14.1646C73.5778 14.1748 73.5777 14.1859 73.5737 14.1978L73.5741 14.4501C73.5781 14.4616 73.5781 14.4734 73.5741 14.4853V14.8969C73.5781 14.9158 73.5781 14.9351 73.5741 14.955V15.2445C73.5777 15.256 73.5777 15.2678 73.5741 15.2797C73.5741 15.2847 73.5742 15.2895 73.5742 15.2941C73.5782 15.3057 73.578 15.3174 73.5737 15.3294V16.3234C73.5777 16.3402 73.5778 16.3565 73.5742 16.372L73.5741 16.5478C73.5777 16.5577 73.5777 16.5688 73.5741 16.581L73.5752 17.4559C73.5753 17.5243 73.6026 17.5898 73.6512 17.6381C73.6997 17.6864 73.7654 17.7135 73.834 17.7135H78.3369C78.4084 17.7135 78.4769 17.6853 78.5275 17.6349C78.5781 17.5845 78.6065 17.5162 78.6067 17.4449C78.6077 16.214 78.6077 14.7827 78.6067 13.1512C78.6067 13.0804 78.5997 13.0274 78.5858 12.9923C78.5275 12.8489 78.4165 12.824 78.2593 12.824C76.7916 12.823 75.324 12.823 73.8564 12.824C73.7446 12.824 73.6646 12.8639 73.6165 12.9437C73.5886 12.9904 73.5745 13.069 73.5742 13.1795C73.5735 13.5079 73.5735 13.8362 73.5742 14.1646Z" fill="currentColor"/>
  <path d="M88.0708 12.8355C88.0521 12.8269 88.0319 12.8225 88.0115 12.8225C86.5386 12.8215 85.072 12.8219 83.6117 12.8235C83.4856 12.8235 83.3975 12.8394 83.3474 12.8712C83.2624 12.9248 83.2199 13.016 83.2199 13.1448C83.2199 13.8832 83.2199 15.9645 83.2199 19.3887C83.2199 19.4049 83.2118 19.4131 83.1956 19.4131H81.5476C81.5257 19.4131 81.5147 19.4021 81.5147 19.3803V11.1479C81.5147 11.1326 81.5225 11.125 81.5381 11.125C82.741 11.1214 84.8362 11.1205 87.8239 11.1225C88.1677 11.1225 88.4101 11.1442 88.5511 11.1876C89.1782 11.3802 89.7063 11.8782 89.889 12.5083C89.9347 12.6648 89.9576 12.928 89.9576 13.2977C89.958 13.9206 89.9576 15.9503 89.9566 19.3867C89.9566 19.4043 89.9479 19.4131 89.9303 19.4131H88.2808C88.2632 19.4131 88.2544 19.4043 88.2544 19.3867C88.2521 18.2236 88.2518 16.1883 88.2534 13.2808C88.2534 13.0633 88.2684 12.9258 88.0708 12.8355Z" fill="currentColor"/>
  <path d="M93.161 11.1225H91.4827C91.4753 11.1225 91.4692 11.1286 91.4692 11.136V19.4007C91.4692 19.4081 91.4753 19.4141 91.4827 19.4141H93.161C93.1684 19.4141 93.1744 19.4081 93.1744 19.4007V11.136C93.1744 11.1286 93.1684 11.1225 93.161 11.1225Z" fill="currentColor"/>
  <path d="M96.2663 15.2699C96.2666 15.9931 96.2669 16.7163 96.2673 17.4396C96.2673 17.5495 96.3081 17.6277 96.3897 17.6744C96.4365 17.7012 96.5146 17.7146 96.6241 17.7146C98.198 17.714 100.315 17.7126 102.975 17.7107C102.992 17.7107 103 17.7191 103 17.736V19.3982C103 19.3999 103 19.4016 102.999 19.4032C102.998 19.4048 102.998 19.4062 102.996 19.4074C102.995 19.4086 102.994 19.4095 102.992 19.4102C102.991 19.4108 102.989 19.4112 102.988 19.4112C100.502 19.4131 98.3154 19.4146 96.428 19.4156C96.0743 19.4156 95.7281 19.2971 95.3893 19.0601C95.0057 18.7917 94.7542 18.4479 94.6347 18.0289C94.5873 17.8621 94.5634 17.5334 94.5631 17.0429C94.5631 16.79 94.5627 16.1993 94.5621 15.2709C94.5614 14.3427 94.5609 13.7522 94.5606 13.4994C94.5602 13.0088 94.5838 12.68 94.6313 12.5128C94.75 12.0938 95.0011 11.7497 95.3843 11.4806C95.7228 11.2433 96.0688 11.1244 96.4226 11.1241C98.3099 11.1225 100.496 11.121 102.982 11.1196C102.985 11.1196 102.989 11.121 102.991 11.1234C102.993 11.1258 102.995 11.1291 102.995 11.1325L102.997 12.7948C102.997 12.8117 102.988 12.8201 102.972 12.8201C100.311 12.8218 98.1945 12.8233 96.6207 12.8246C96.5112 12.8246 96.4332 12.8382 96.3867 12.8653C96.3051 12.912 96.2643 12.9903 96.2643 13.1002C96.265 13.8234 96.2656 14.5466 96.2663 15.2699Z" fill="currentColor"/>
  <path d="M71.869 13.8751V13.8294C71.8733 13.844 71.8733 13.8592 71.869 13.8751Z" fill="#25A3ED"/>
  <path d="M71.869 14.0375C71.8733 14.022 71.8733 14.0057 71.869 13.9889V14.0375Z" fill="#25A3ED"/>
  <path d="M73.5742 14.1646L73.5737 14.1978C73.5777 14.1859 73.5778 14.1748 73.5742 14.1646Z" fill="#25A3ED"/>
  <path d="M73.5741 14.4501V14.4853C73.5781 14.4734 73.5781 14.4616 73.5741 14.4501Z" fill="#25A3ED"/>
  <path d="M73.5741 14.8969V14.955C73.5781 14.9351 73.5781 14.9158 73.5741 14.8969Z" fill="#25A3ED"/>
  <path d="M73.5741 15.2445V15.2797C73.5777 15.2678 73.5777 15.256 73.5741 15.2445Z" fill="#25A3ED"/>
  <path d="M73.5742 15.2941L73.5737 15.3294C73.578 15.3174 73.5782 15.3057 73.5742 15.2941Z" fill="#25A3ED"/>
  <path d="M73.5737 16.3234C73.5777 16.3402 73.5778 16.3565 73.5742 16.372L73.5737 16.3234Z" fill="#25A3ED"/>
  <path d="M73.5741 16.5478V16.581C73.5777 16.5688 73.5777 16.5577 73.5741 16.5478Z" fill="#25A3ED"/>
  <path d="M71.869 17.1272V17.0815C71.8736 17.0957 71.8736 17.111 71.869 17.1272Z" fill="#25A3ED"/>
  <path d="M71.8678 17.368C71.8735 17.3482 71.8738 17.3306 71.8688 17.3154L71.8678 17.368Z" fill="#25A3ED"/>
</svg>