<svg xmlns="http://www.w3.org/2000/svg" width="140" height="28" viewBox="0 0 140 28" fill="none">
  <path d="M103.88 13.5343C103.88 13.6492 103.882 13.7657 103.887 13.8838C103.888 13.9016 103.898 13.9104 103.917 13.9104C104.928 13.9153 105.76 13.9167 106.413 13.9146C106.571 13.9143 106.682 13.9252 106.746 13.9475C107 14.0364 107.18 14.3321 107.068 14.5761C106.96 14.8119 106.766 14.9266 106.485 14.9204C106.273 14.9158 104.693 14.9125 101.745 14.9104C101.741 14.9104 101.736 14.9121 101.733 14.9152C101.73 14.9182 101.728 14.9223 101.728 14.9266V15.7709C101.728 15.7887 101.738 15.7976 101.756 15.7976C104.118 15.8007 105.561 15.8025 106.085 15.8028C106.32 15.8032 106.536 15.78 106.733 15.7333C107.545 15.5411 107.761 14.7741 107.609 14.0562C107.569 13.8657 107.48 13.6974 107.341 13.5515C107.339 13.5487 107.337 13.544 107.337 13.5374C107.337 13.5308 107.339 13.5261 107.341 13.5233C107.48 13.3777 107.57 13.2096 107.61 13.0191C107.764 12.3012 107.549 11.5343 106.738 11.3404C106.54 11.2934 106.324 11.2699 106.09 11.2699C105.565 11.2692 104.122 11.2683 101.761 11.2673C101.742 11.2673 101.733 11.2762 101.733 11.2939L101.731 12.1382C101.731 12.1404 101.732 12.1425 101.732 12.1444C101.733 12.1464 101.734 12.1482 101.736 12.1497C101.738 12.1512 101.739 12.1524 101.741 12.1532C101.743 12.154 101.745 12.1544 101.748 12.1544C104.695 12.1576 106.275 12.157 106.488 12.1529C106.768 12.1469 106.963 12.2621 107.071 12.4982C107.181 12.7422 107.001 13.0379 106.746 13.1262C106.683 13.1485 106.572 13.1593 106.413 13.1586C105.76 13.1551 104.928 13.1549 103.917 13.1581C103.899 13.1581 103.889 13.167 103.888 13.1847C103.883 13.3028 103.88 13.4193 103.88 13.5343Z" fill="currentColor"/>
  <path d="M111.4 18.0235C111.012 18.4829 110.528 18.7856 109.948 18.9316C109.767 18.9765 109.487 18.9991 109.108 18.9995C107.209 18.9998 104.377 19 100.612 19C100.591 19 100.571 18.9919 100.555 18.9775C100.54 18.9631 100.532 18.9436 100.532 18.9232V10.0852C100.532 10.0626 100.541 10.0409 100.558 10.0249C100.575 10.009 100.598 10 100.622 10H111.888C111.962 10 111.999 10.035 111.999 10.105C112 12.9793 112 15.0475 111.999 16.3098C111.999 16.9803 111.799 17.5516 111.4 18.0235ZM103.881 13.5345C103.881 13.6494 103.883 13.7659 103.888 13.884C103.889 13.9018 103.899 13.9107 103.918 13.9107C104.929 13.9155 105.761 13.9169 106.414 13.9148C106.572 13.9145 106.683 13.9255 106.747 13.9478C107 14.0366 107.181 14.3323 107.069 14.5763C106.961 14.8121 106.767 14.9269 106.486 14.9206C106.274 14.9161 104.694 14.9127 101.746 14.9107C101.741 14.9107 101.737 14.9124 101.734 14.9154C101.731 14.9184 101.729 14.9226 101.729 14.9269V15.7712C101.729 15.7889 101.739 15.7978 101.757 15.7978C104.119 15.8009 105.562 15.8027 106.086 15.803C106.321 15.8034 106.537 15.7802 106.734 15.7335C107.546 15.5413 107.762 14.7743 107.61 14.0564C107.57 13.8659 107.481 13.6977 107.342 13.5517C107.34 13.5489 107.338 13.5442 107.338 13.5376C107.338 13.531 107.34 13.5263 107.342 13.5235C107.481 13.3779 107.571 13.2099 107.611 13.0193C107.765 12.3015 107.55 11.5345 106.739 11.3406C106.541 11.2936 106.325 11.2701 106.091 11.2701C105.566 11.2694 104.123 11.2685 101.762 11.2675C101.743 11.2675 101.734 11.2764 101.734 11.2941L101.732 12.1385C101.732 12.1406 101.733 12.1427 101.733 12.1447C101.734 12.1466 101.735 12.1484 101.737 12.1499C101.738 12.1514 101.74 12.1526 101.742 12.1534C101.744 12.1542 101.746 12.1547 101.749 12.1546C104.696 12.1578 106.276 12.1573 106.489 12.1531C106.769 12.1472 106.964 12.2623 107.072 12.4984C107.182 12.7424 107.002 13.0381 106.747 13.1264C106.684 13.1487 106.573 13.1595 106.414 13.1588C105.761 13.1553 104.929 13.1552 103.918 13.1583C103.9 13.1583 103.89 13.1672 103.889 13.185C103.884 13.303 103.881 13.4195 103.881 13.5345Z" fill="currentColor"/>
  <path d="M35.6877 11.7907C33.8279 11.7893 31.9736 11.7893 30.1249 11.7907C29.7439 11.7907 29.4335 11.81 29.0845 11.8727C28.9563 11.8961 28.821 11.9471 28.6788 12.0258C28.3259 12.2217 28.2498 12.6209 28.3017 12.984C28.3623 13.414 28.6881 13.6105 29.1071 13.6852C29.3394 13.727 29.5916 13.7477 29.8635 13.7473C31.3018 13.7466 32.2022 13.7479 32.565 13.751C32.948 13.7545 33.3207 13.7923 33.6831 13.8644C34.359 13.9986 35.0189 14.3205 35.3685 14.8905C35.4817 15.0751 35.5645 15.2938 35.6171 15.5467C35.7233 16.0552 35.7189 16.5688 35.6039 17.0875C35.3618 18.1789 34.4974 18.774 33.3738 18.9412C33.1783 18.9704 32.885 18.9854 32.4939 18.9861C31.5173 18.9878 29.6982 18.988 27.0364 18.9866C27.0121 18.9866 27 18.9753 27 18.9527V17.2505C27 17.2466 27.0016 17.2429 27.0045 17.2401C27.0074 17.2374 27.0113 17.2358 27.0154 17.2358C29.2828 17.2379 31.1566 17.2374 32.6367 17.2343C32.9627 17.2336 33.2848 17.2092 33.6031 17.1611C34.0337 17.0963 34.3783 16.8837 34.4345 16.437C34.5033 15.8908 34.2745 15.542 33.7481 15.3905C33.4567 15.3069 33.1003 15.2653 32.6791 15.2656C31.1865 15.2663 30.2265 15.2641 29.799 15.2588C29.5094 15.255 29.1797 15.2036 28.81 15.1047C28.4722 15.0145 28.1747 14.879 27.9174 14.6982C27.4517 14.3712 27.167 13.8985 27.0634 13.2803C26.9759 12.7571 26.9921 12.2712 27.1119 11.8226C27.328 11.0145 27.8365 10.4852 28.6374 10.2348C29.116 10.0848 29.6248 10.053 30.1861 10.0525C32.1289 10.0518 33.9551 10.0521 35.6645 10.0535C35.684 10.0535 35.6937 10.0626 35.6937 10.0807V11.785C35.6937 11.7865 35.6931 11.7879 35.692 11.789C35.6908 11.7901 35.6893 11.7907 35.6877 11.7907Z" fill="currentColor"/>
  <path d="M42.1029 16.9783C42.0996 16.4214 42.0665 15.9365 42.2016 15.4245C42.3413 14.8919 42.6447 14.4949 43.1118 14.2333C43.5106 14.0097 43.9414 13.8695 44.4041 13.8127C44.7103 13.7754 45.0181 13.7563 45.3276 13.7552C47.0819 13.7497 47.9971 13.746 48.0732 13.7443C48.3848 13.7359 48.6726 13.7051 48.9365 13.6518C49.3219 13.5734 49.6339 13.3571 49.6858 12.9532C49.7436 12.505 49.6036 12.0509 49.1251 11.9073C48.877 11.8331 48.5805 11.7955 48.2358 11.7944C47.2482 11.7913 45.2135 11.7895 42.1316 11.7892C42.1121 11.7892 42.1024 11.78 42.1024 11.7615V10.0812C42.1024 10.0635 42.1116 10.0546 42.1299 10.0546C43.7692 10.0515 45.6972 10.0513 47.9138 10.0541C48.512 10.0546 49.1978 10.1868 49.6554 10.4485C50.714 11.0546 50.918 12.3357 50.7051 13.3858C50.4135 14.8263 49.0429 15.2683 47.6575 15.2657C46.5313 15.2632 45.7345 15.2641 45.2669 15.2683C44.9501 15.2711 44.6818 15.3146 44.462 15.3989C44.0877 15.5426 43.9708 15.8843 43.9647 16.2443C43.9633 16.317 43.9625 16.4501 43.9625 16.6434C43.9625 16.6608 43.9535 16.6711 43.9355 16.6742L42.1134 16.9862C42.1068 16.9875 42.1033 16.9849 42.1029 16.9783Z" fill="currentColor"/>
  <path d="M60.3251 10.8956C60.1208 10.9057 59.9432 10.9926 59.7925 11.1563C59.7282 11.226 59.6519 11.3892 59.5637 11.6459C59.5354 11.7284 59.1879 12.711 58.5212 14.5936C58.5146 14.6124 58.5008 14.623 58.4798 14.6255L56.4085 14.8757C56.4049 14.8762 56.4013 14.8758 56.3979 14.8746C56.3945 14.8733 56.3915 14.8712 56.3892 14.8685C56.3869 14.8658 56.3854 14.8626 56.3849 14.8592C56.3843 14.8558 56.3847 14.8523 56.3859 14.8491C56.8737 13.5948 57.2989 12.5003 57.6617 11.5654C57.8131 11.1743 57.9423 10.9113 58.0493 10.7765C58.3025 10.4578 58.6397 10.2385 59.0609 10.1187C59.2311 10.0703 59.4796 10.0475 59.8063 10.0503C60.1062 10.0527 60.5256 10.0529 61.0644 10.0508C61.5364 10.0494 61.8594 10.0727 62.0336 10.1208C62.4482 10.235 62.7858 10.4562 63.0464 10.7843C63.1486 10.9128 63.2635 11.1405 63.391 11.4672C63.5828 11.959 63.9032 12.7834 64.3519 13.9405C64.3538 13.9454 64.3545 13.9507 64.3539 13.9559C64.3533 13.9611 64.3515 13.9661 64.3486 13.9705C64.3456 13.9749 64.3417 13.9787 64.337 13.9814C64.3324 13.9842 64.3271 13.9859 64.3216 13.9865L62.1615 14.2112C62.1424 14.2129 62.1299 14.2054 62.1241 14.1887C62.0204 13.9034 61.7164 13.0478 61.2122 11.6218C61.121 11.3641 61.0317 11.1906 60.9442 11.1015C60.7972 10.951 60.5908 10.8824 60.3251 10.8956Z" fill="currentColor"/>
  <path d="M72.0909 13.1807L70.3157 13.3187C70.3114 13.3189 70.3072 13.3183 70.3032 13.3168C70.2993 13.3153 70.2957 13.313 70.2928 13.3101C70.2899 13.3071 70.2877 13.3036 70.2864 13.2998C70.2851 13.2959 70.2848 13.2918 70.2854 13.2878C70.3589 12.8256 70.4803 12.4183 70.6498 12.0658C71.2033 10.9148 72.2563 10.2539 73.5751 10.0924C73.7912 10.066 74.0843 10.0526 74.4544 10.0522C75.5663 10.0519 77.1188 10.0524 79.112 10.0538C79.1307 10.0538 79.1401 10.0627 79.1401 10.0804V11.7633C79.1401 11.7811 79.1305 11.7899 79.1114 11.7899C76.579 11.7903 75.0271 11.7905 74.4555 11.7905C74.2611 11.7905 74.0397 11.8199 73.7912 11.8788C73.0098 12.0641 72.4443 12.4974 72.0948 13.1787C72.0945 13.1793 72.0939 13.1798 72.0933 13.1802C72.0926 13.1806 72.0918 13.1807 72.0909 13.1807Z" fill="currentColor"/>
  <path d="M87.3241 11.6456V12.4408C87.3241 12.4558 87.3162 12.4635 87.3004 12.4638L85.5197 12.5035C85.5042 12.5039 85.4959 12.4967 85.4948 12.4821C85.475 12.1644 85.4963 11.8644 85.5588 11.5819C85.5941 11.4203 85.6632 11.2541 85.7661 11.0835C86.0616 10.5934 86.4898 10.2729 87.0507 10.1221C87.2227 10.0758 87.4901 10.0526 87.8528 10.0526C89.9331 10.0523 92.0122 10.0521 94.0899 10.0521C94.094 10.0521 94.0979 10.0536 94.1008 10.0564C94.1037 10.0591 94.1053 10.0629 94.1053 10.0667V11.5934C94.1053 11.6108 94.0961 11.6195 94.0778 11.6195H87.3517C87.3333 11.6195 87.3241 11.6282 87.3241 11.6456Z" fill="currentColor"/>
  <path d="M107.337 13.5374C107.337 13.544 107.339 13.5487 107.341 13.5515C107.48 13.6974 107.569 13.8657 107.609 14.0562C107.761 14.7741 107.545 15.5411 106.733 15.7333C106.536 15.78 106.32 15.8032 106.085 15.8028C105.561 15.8025 104.118 15.8007 101.756 15.7976C101.738 15.7976 101.728 15.7887 101.728 15.7709V14.9266C101.728 14.9223 101.73 14.9182 101.733 14.9152C101.736 14.9121 101.741 14.9104 101.745 14.9104C104.693 14.9125 106.273 14.9158 106.485 14.9204C106.766 14.9266 106.96 14.8119 107.068 14.5761C107.18 14.3321 107 14.0364 106.746 13.9475C106.682 13.9252 106.571 13.9143 106.413 13.9146C105.76 13.9167 104.928 13.9153 103.917 13.9104C103.898 13.9104 103.888 13.9016 103.887 13.8838C103.882 13.7657 103.88 13.6492 103.88 13.5343C103.88 13.4193 103.883 13.3028 103.888 13.1847C103.889 13.167 103.899 13.1581 103.917 13.1581C104.928 13.1549 105.76 13.1551 106.413 13.1586C106.572 13.1593 106.683 13.1485 106.746 13.1262C107.001 13.0379 107.181 12.7422 107.071 12.4982C106.963 12.2621 106.768 12.1469 106.488 12.1529C106.275 12.157 104.695 12.1576 101.748 12.1544C101.745 12.1544 101.743 12.154 101.741 12.1532C101.739 12.1524 101.738 12.1512 101.736 12.1497C101.734 12.1482 101.733 12.1464 101.732 12.1444C101.732 12.1425 101.731 12.1404 101.731 12.1382L101.733 11.2939C101.733 11.2762 101.742 11.2673 101.761 11.2673C104.122 11.2683 105.565 11.2692 106.09 11.2699C106.324 11.2699 106.54 11.2934 106.738 11.3404C107.549 11.5343 107.764 12.3012 107.61 13.0191C107.57 13.2096 107.48 13.3777 107.341 13.5233C107.339 13.5261 107.337 13.5308 107.337 13.5374Z" fill="currentColor"/>
  <path d="M87.3559 17.4184H94.0748C94.0932 17.4184 94.1024 17.4271 94.1024 17.4445V18.9586C94.1024 18.9761 94.093 18.9848 94.0743 18.9848C92.8617 18.9865 90.6384 18.9867 87.4044 18.9853C87.3346 18.9853 87.2122 18.9621 87.0372 18.9158C86.2549 18.7099 85.7146 18.1216 85.5332 17.3792C85.5035 17.2566 85.4884 17.0696 85.488 16.8181C85.4873 16.1246 85.4877 15.1204 85.4891 13.8056C85.4891 13.7881 85.4983 13.7791 85.5167 13.7784C85.6244 13.776 85.6858 13.7746 85.7008 13.7742C88.0814 13.7453 90.4973 13.7552 92.9485 13.804C92.9918 13.805 93.0135 13.8263 93.0135 13.8677V15.4853C93.0135 15.4887 93.0121 15.4921 93.0095 15.4945C93.0069 15.497 93.0034 15.4983 92.9997 15.4983H87.3487C87.3304 15.4983 87.3212 15.5071 87.3212 15.5245V17.3855C87.3212 17.4074 87.3327 17.4184 87.3559 17.4184Z" fill="currentColor"/>
  <path d="M71.779 14.3496C71.7399 15.6667 72.4009 16.8459 73.8261 17.1604C74.0539 17.211 74.4005 17.2364 74.8658 17.2367C75.0827 17.2371 76.4974 17.2374 79.1099 17.2378C79.129 17.2378 79.1386 17.2468 79.1386 17.2649V18.9588C79.1386 18.9769 79.1288 18.9861 79.1093 18.9865C78.7664 18.9868 77.1038 18.9872 74.1216 18.9875C73.67 18.9875 73.1446 18.9138 72.7118 18.7649C71.4872 18.3445 70.7128 17.5081 70.3886 16.2555C70.239 15.6777 70.1732 15.0812 70.1912 14.4661C70.192 14.4494 70.2006 14.4381 70.2171 14.4321C70.2388 14.4248 70.268 14.4201 70.3048 14.418C70.7918 14.3916 71.2773 14.3633 71.7614 14.3334C71.7637 14.3332 71.766 14.3335 71.7682 14.3343C71.7703 14.3351 71.7723 14.3362 71.774 14.3378C71.7757 14.3393 71.777 14.3411 71.7778 14.3432C71.7787 14.3452 71.7791 14.3474 71.779 14.3496Z" fill="currentColor"/>
  <path d="M63.8136 18.9735L62.4386 15.0963C62.4376 15.0935 62.4372 15.0905 62.4376 15.0876C62.438 15.0847 62.4391 15.0819 62.4408 15.0794C62.4425 15.0769 62.4448 15.0749 62.4474 15.0734C62.4501 15.0718 62.4531 15.0709 62.4562 15.0707L64.7018 14.8899C64.7063 14.8896 64.7108 14.8907 64.7146 14.893C64.7184 14.8954 64.7212 14.8989 64.7227 14.903L66.2824 18.961C66.2835 18.9639 66.2839 18.9671 66.2835 18.9702C66.2831 18.9733 66.2819 18.9763 66.28 18.9789C66.2781 18.9814 66.2756 18.9835 66.2726 18.985C66.2697 18.9864 66.2664 18.9871 66.2631 18.9871L63.8329 18.9866C63.8286 18.9866 63.8245 18.9853 63.821 18.983C63.8176 18.9806 63.815 18.9773 63.8136 18.9735Z" fill="currentColor"/>
  <path d="M58.2081 15.4758L56.966 18.9758C56.9647 18.9792 56.9623 18.9822 56.9591 18.9842C56.9559 18.9863 56.9522 18.9873 56.9483 18.9872L54.8191 18.9878C54.8162 18.9878 54.8134 18.9871 54.8108 18.9858C54.8082 18.9845 54.806 18.9827 54.8043 18.9805C54.8026 18.9782 54.8016 18.9756 54.8012 18.9729C54.8008 18.9702 54.8011 18.9674 54.802 18.9648L56.0662 15.6701C56.0674 15.6671 56.0695 15.6645 56.0723 15.6625C56.075 15.6606 56.0782 15.6594 56.0816 15.6591L58.1888 15.4528C58.1919 15.4524 58.195 15.4528 58.1979 15.4539C58.2007 15.455 58.2033 15.4568 58.2052 15.4591C58.2071 15.4615 58.2084 15.4642 58.2089 15.4671C58.2094 15.47 58.2091 15.473 58.2081 15.4758Z" fill="currentColor"/>
  <path d="M43.9472 18.9871L42.1245 18.9866C42.1196 18.9866 42.1148 18.9847 42.1113 18.9814C42.1078 18.9781 42.1058 18.9736 42.1058 18.9689V17.3732C42.1059 17.369 42.1075 17.365 42.1105 17.3618C42.1134 17.3587 42.1174 17.3566 42.1218 17.356L43.945 17.0974C43.9476 17.097 43.9503 17.0972 43.9529 17.0979C43.9554 17.0986 43.9578 17.0998 43.9599 17.1014C43.9619 17.103 43.9635 17.105 43.9647 17.1073C43.9658 17.1096 43.9664 17.1121 43.9665 17.1146L43.9659 18.9694C43.9659 18.9741 43.964 18.9786 43.9604 18.9819C43.9569 18.9853 43.9522 18.9871 43.9472 18.9871Z" fill="currentColor"/>
</svg>