<svg xmlns="http://www.w3.org/2000/svg" width="140" height="28" viewBox="0 0 140 28" fill="none">
  <path d="M45.0551 6.79978L45.8144 6.79785C45.8943 6.79721 45.9355 6.84261 45.9381 6.93407C45.9381 6.93407 45.9323 6.95114 45.9207 6.98334C45.9114 7.01039 45.8939 7.03387 45.8705 7.0505C45.8471 7.06713 45.8191 7.07607 45.7903 7.07608H44.402C44.3892 7.07608 44.3769 7.08117 44.3679 7.09023C44.3588 7.09929 44.3537 7.11157 44.3537 7.12438V7.57071C44.3537 7.58175 44.3516 7.59268 44.3473 7.60287C44.3431 7.61307 44.3369 7.62234 44.3291 7.63014C44.3213 7.63794 44.312 7.64414 44.3018 7.64836C44.2917 7.65258 44.2807 7.65476 44.2697 7.65476H41.3898C41.366 7.65476 41.3431 7.64529 41.3263 7.62844C41.3094 7.61159 41.3 7.58874 41.3 7.56491V7.13018C41.3 7.09347 41.2816 7.07511 41.2449 7.07511H38.8655C38.8294 7.07511 38.8114 7.09315 38.8114 7.12921V19.15C38.8114 19.1921 38.8281 19.2324 38.8578 19.2621C38.8875 19.2918 38.9278 19.3085 38.9698 19.3085H46.7583C46.7742 19.3085 46.7894 19.3023 46.8006 19.2912C46.8119 19.2802 46.8182 19.2652 46.8182 19.2495V8.91162C46.8182 8.80342 46.8652 8.75382 46.9592 8.76284C46.9618 8.76284 46.9644 8.76252 46.967 8.76188C46.9817 8.75372 46.9982 8.75114 47.0149 8.75437C47.0316 8.75761 47.0478 8.76655 47.0621 8.78034C47.0764 8.79413 47.0882 8.8123 47.0964 8.8331C47.1046 8.85389 47.1089 8.87661 47.109 8.89906L47.1099 19.4505C47.1099 19.4814 47.099 19.5078 47.0771 19.5297C46.898 19.7126 46.4517 20.1612 45.7381 20.8754C45.5436 21.0706 45.3459 21.1917 45.1449 21.2387C45.1295 21.2426 45.1158 21.2514 45.106 21.2638C45.0962 21.2763 45.0908 21.2916 45.0908 21.3073V23.707C45.0908 23.7991 45.0567 23.8757 44.9884 23.9369C44.7965 24.1108 44.5792 24.3053 44.3363 24.5204C44.2214 24.6219 44.062 24.6982 43.89 24.731C43.0972 24.8824 41.9605 25.0972 40.4798 25.3754C40.264 25.416 40.1046 25.4102 40.0016 25.358C39.8322 25.2724 39.7482 25.1081 39.7494 24.8653C39.7572 23.6635 39.7585 22.464 39.7533 21.2667C39.7531 21.2594 39.7501 21.2526 39.745 21.2475C39.74 21.2425 39.7333 21.2397 39.7263 21.2397H37.4434C37.3261 21.2397 37.2135 21.193 37.1306 21.1101C37.0476 21.0271 37.001 20.9145 37.001 20.7972C36.9997 18.4232 36.9997 14.4008 37.001 8.72999C37.001 8.52261 37.0737 8.34582 37.2193 8.19962C37.229 8.18996 37.6785 7.73591 38.5679 6.83746C38.5937 6.81106 38.6249 6.79785 38.6616 6.79785H39.6094C39.6222 6.79785 39.6345 6.79287 39.6435 6.78399C39.6526 6.77511 39.6577 6.76307 39.6577 6.75051V5.56804C39.6577 5.53133 39.6705 5.49977 39.6963 5.47337C40.0563 5.10369 40.2673 4.88729 40.3291 4.82417C40.4347 4.71532 40.5838 4.62419 40.7764 4.55077C41.7656 4.17143 43.0988 3.65812 44.7759 3.01085C44.8004 3.00142 44.8268 2.99806 44.8528 3.00107C44.8789 3.00408 44.9038 3.01336 44.9254 3.02811C44.947 3.04286 44.9647 3.06264 44.9768 3.08572C44.989 3.10881 44.9953 3.13451 44.9952 3.16059V6.73892C44.9952 6.7795 45.0152 6.79978 45.0551 6.79978ZM40.7203 6.75051C40.7203 6.78207 40.7361 6.79785 40.7677 6.79785H44.6745C44.6799 6.79785 44.6853 6.79678 44.6904 6.79469C44.6954 6.7926 44.7 6.78954 44.7038 6.78569C44.7077 6.78183 44.7108 6.77725 44.7128 6.77221C44.7149 6.76717 44.716 6.76177 44.716 6.75631V3.43206C44.716 3.42113 44.7132 3.41037 44.7081 3.40072C44.703 3.39106 44.6956 3.38279 44.6866 3.37662C44.6776 3.37045 44.6672 3.36655 44.6563 3.36527C44.6455 3.36399 44.6344 3.36536 44.6242 3.36927L40.9136 4.80195C40.8567 4.82383 40.8078 4.86251 40.7733 4.91287C40.7388 4.96323 40.7203 5.02291 40.7203 5.08404V6.75051ZM41.0478 24.3813L44.7073 23.6684C44.737 23.6623 44.7637 23.6462 44.7829 23.6226C44.8021 23.599 44.8126 23.5694 44.8126 23.5389V20.263C44.8126 20.2563 44.8101 20.2499 44.8055 20.2452C44.801 20.2405 44.7949 20.2378 44.7885 20.2378H40.8778C40.8366 20.2378 40.816 20.2581 40.816 20.2987V24.19C40.816 24.2188 40.8224 24.2473 40.8347 24.2733C40.847 24.2993 40.8649 24.3223 40.887 24.3406C40.9092 24.3589 40.9351 24.372 40.9629 24.3791C40.9907 24.3861 41.0197 24.3869 41.0478 24.3813Z" fill="currentColor"/>
  <path d="M94.7849 7.74151L92.6528 7.73764C92.647 7.73776 92.6414 7.73615 92.6365 7.73303C92.6317 7.72992 92.6279 7.72543 92.6256 7.72015C92.6233 7.71486 92.6227 7.70902 92.6237 7.70336C92.6248 7.6977 92.6275 7.69248 92.6315 7.68837L95.9674 4.1883C95.9701 4.18537 95.9734 4.18304 95.977 4.18144C95.9807 4.17984 95.9846 4.17902 95.9886 4.17902C95.9926 4.17902 95.9966 4.17984 96.0002 4.18144C96.0039 4.18304 96.0072 4.18537 96.0099 4.1883L99.3506 7.69224C99.3546 7.69635 99.3573 7.70156 99.3584 7.70722C99.3594 7.71288 99.3588 7.71873 99.3565 7.72401C99.3542 7.7293 99.3504 7.73378 99.3456 7.7369C99.3407 7.74002 99.3351 7.74162 99.3293 7.74151L97.1962 7.73958C97.1924 7.73958 97.1886 7.74033 97.1851 7.74178C97.1816 7.74324 97.1784 7.74537 97.1757 7.74806C97.173 7.75076 97.1709 7.75395 97.1694 7.75747C97.168 7.76098 97.1672 7.76475 97.1672 7.76856L97.1692 10.1209C97.1691 10.1252 97.1682 10.1294 97.1663 10.1332C97.1645 10.1371 97.1618 10.1405 97.1585 10.1432L94.8603 12.0898C94.856 12.0933 94.8509 12.0955 94.8455 12.0961C94.84 12.0968 94.8345 12.0959 94.8296 12.0936C94.8246 12.0913 94.8204 12.0876 94.8175 12.083C94.8145 12.0784 94.813 12.073 94.8129 12.0676L94.8139 7.77049C94.8139 7.7628 94.8108 7.75543 94.8054 7.75C94.8 7.74456 94.7926 7.74151 94.7849 7.74151Z" fill="currentColor"/>
  <path d="M68.4912 6.73337C68.4912 6.73337 68.4948 6.73401 68.498 6.7353C68.5077 6.73916 68.5135 6.74464 68.5154 6.75172L71.1644 17.5176C71.1734 17.5556 71.1589 17.5708 71.1209 17.563L69.1231 17.1573C69.0876 17.1495 69.0657 17.1283 69.0574 17.0935C68.3689 14.319 67.8852 12.3707 67.6063 11.2488C67.605 11.2417 67.6025 11.2369 67.5986 11.2343C67.5941 11.2304 67.5889 11.2282 67.5831 11.2275C67.578 11.2262 67.5725 11.2262 67.5667 11.2275C67.5622 11.2288 67.558 11.2324 67.5542 11.2382C66.8618 12.1643 65.66 13.7722 63.9488 16.0618C63.9275 16.0907 63.8992 16.102 63.8638 16.0956L61.865 15.6937C61.827 15.6859 61.8192 15.6663 61.8418 15.6347L68.4613 6.7411C68.4658 6.7353 68.4732 6.7324 68.4835 6.7324C68.4874 6.7324 68.4912 6.73337 68.4912 6.73337Z" fill="currentColor"/>
  <path d="M46.9027 6.88763C47.0018 6.88763 47.0646 6.88891 47.091 6.89149C47.1393 6.89664 47.1654 6.91049 47.1693 6.93303C47.186 7.02771 47.1883 7.14106 47.1761 7.27309C47.1741 7.28983 47.1799 7.30497 47.1934 7.31849C47.2076 7.33266 47.2231 7.33878 47.2398 7.33685C47.3719 7.32461 47.4852 7.32687 47.5799 7.34361C47.6024 7.34748 47.6163 7.37356 47.6214 7.42186C47.624 7.44827 47.625 7.51074 47.6243 7.60928C47.625 7.70847 47.624 7.77126 47.6214 7.79767C47.6163 7.84597 47.6024 7.87205 47.5799 7.87592C47.4852 7.89266 47.3719 7.89492 47.2398 7.88268C47.2231 7.88075 47.2079 7.88654 47.1944 7.90007C47.1802 7.91424 47.1741 7.9297 47.1761 7.94644C47.1883 8.07847 47.186 8.19182 47.1693 8.2865C47.1654 8.30904 47.1393 8.32289 47.091 8.32804C47.0646 8.33061 47.0022 8.33158 46.9036 8.33094C46.8044 8.33158 46.7417 8.33061 46.7152 8.32804C46.6669 8.32289 46.6409 8.30904 46.637 8.2865C46.6202 8.19182 46.618 8.07847 46.6302 7.94644C46.6322 7.9297 46.626 7.91456 46.6119 7.90104C46.5984 7.88687 46.5832 7.88075 46.5665 7.88268C46.4344 7.89492 46.3211 7.89266 46.2264 7.87592C46.2039 7.87205 46.19 7.84597 46.1849 7.79767C46.1823 7.77126 46.181 7.70879 46.181 7.61025C46.181 7.51107 46.1823 7.44827 46.1849 7.42186C46.19 7.37356 46.2039 7.34748 46.2264 7.34361C46.3211 7.32687 46.4344 7.32461 46.5665 7.33685C46.5832 7.33878 46.5984 7.33266 46.6119 7.31849C46.626 7.30497 46.6322 7.28983 46.6302 7.27309C46.618 7.14106 46.6202 7.02771 46.637 6.93303C46.6409 6.91049 46.6669 6.89664 46.7152 6.89149C46.7417 6.88891 46.8041 6.88763 46.9027 6.88763Z" fill="currentColor"/>
  <path d="M59.3896 18.5383C59.0856 18.5975 58.7849 18.6552 58.4873 18.7112C58.4776 18.7129 58.4676 18.7107 58.4595 18.7051C58.4513 18.6995 58.4457 18.691 58.4439 18.6813L56.9831 11.1904C56.9806 11.177 56.9728 11.1653 56.9616 11.1577C56.9504 11.1501 56.9366 11.1472 56.9233 11.1498L53.2725 11.8608C53.2658 11.8622 53.2588 11.8622 53.2521 11.8609C53.2454 11.8595 53.2389 11.8569 53.2332 11.853C53.2274 11.8491 53.2225 11.8442 53.2186 11.8384C53.2148 11.8326 53.212 11.8261 53.2106 11.8193L52.858 10.0079C52.8566 10.0007 52.858 9.99327 52.862 9.98713C52.8659 9.981 52.8722 9.97665 52.8793 9.97503C53.05 9.93832 54.6044 9.63369 57.5425 9.06113C60.4806 8.48857 62.0357 8.18748 62.2077 8.15785C62.2113 8.15715 62.215 8.15717 62.2186 8.15791C62.2222 8.15865 62.2256 8.16009 62.2287 8.16215C62.2317 8.16422 62.2344 8.16686 62.2364 8.16994C62.2384 8.17301 62.2398 8.17646 62.2405 8.18007L62.5931 9.99146C62.5944 9.99832 62.5944 10.0054 62.593 10.0122C62.5916 10.019 62.5889 10.0255 62.585 10.0312C62.5811 10.037 62.5762 10.0419 62.5705 10.0456C62.5647 10.0494 62.5583 10.052 62.5516 10.0533L58.9008 10.7643C58.8875 10.7669 58.8757 10.7746 58.8681 10.7859C58.8605 10.7971 58.8577 10.8109 58.8602 10.8242L60.319 18.3161C60.3207 18.3257 60.3187 18.3356 60.3133 18.3437C60.3079 18.3518 60.2995 18.3575 60.29 18.3596C59.9931 18.4195 59.693 18.479 59.3896 18.5383Z" fill="currentColor"/>
  <path d="M87.8336 16.651C89.0866 16.652 90.1908 15.8347 90.5676 14.6734C90.6623 14.381 90.7086 13.7785 90.7067 12.8659C90.7016 10.7251 90.7022 9.42155 90.7086 8.95526C90.7089 8.94673 90.7124 8.93862 90.7183 8.93267C90.7243 8.92672 90.7322 8.92339 90.7405 8.92338H92.5905C92.598 8.92338 92.6051 8.92644 92.6104 8.93187C92.6156 8.93731 92.6186 8.94468 92.6186 8.95237C92.6173 10.3287 92.617 11.9211 92.6176 13.7296C92.6176 14.9861 92.2093 16.0736 91.3926 16.992C90.4797 18.0189 89.2315 18.5841 87.8326 18.5831C86.4338 18.5831 85.1866 18.017 84.2746 16.9891C83.4586 16.0701 83.0509 14.9823 83.0516 13.7257C83.0535 11.9172 83.0545 10.3248 83.0545 8.9485C83.0545 8.94081 83.0574 8.93344 83.0627 8.92801C83.0679 8.92257 83.075 8.91952 83.0825 8.91952L84.9325 8.92145C84.9408 8.92146 84.9488 8.92479 84.9547 8.93074C84.9607 8.93669 84.9641 8.94479 84.9644 8.95333C84.9702 9.41962 84.9699 10.7232 84.9634 12.864C84.9608 13.7766 85.0066 14.3791 85.1006 14.6715C85.4764 15.8327 86.5806 16.651 87.8336 16.651Z" fill="currentColor"/>
  <path d="M74.1731 11.8963C74.1659 11.8963 74.159 11.8991 74.154 11.904C74.1489 11.9089 74.146 11.9155 74.146 11.9224V23.439C74.146 23.4482 74.1423 23.457 74.1356 23.4636C74.1289 23.4701 74.1198 23.4737 74.1103 23.4737H72.2738C72.2643 23.4737 72.2552 23.4701 72.2485 23.4636C72.2418 23.457 72.2381 23.4482 72.2381 23.439V9.98739C72.2381 9.98047 72.2408 9.97384 72.2457 9.96895C72.2506 9.96405 72.2572 9.96131 72.2641 9.96131C76.4047 9.96002 78.6341 9.96098 78.9522 9.9642C79.7605 9.97193 80.4442 10.2676 81.0032 10.8511C81.427 11.2942 81.6785 11.8055 81.7577 12.3852C81.9162 13.5483 81.5461 14.4816 80.6477 15.1849C80.1795 15.5513 79.6481 15.7391 79.0537 15.7481C78.0361 15.7629 77.2117 15.7648 76.5805 15.7539C76.5516 15.7532 76.5371 15.7387 76.5371 15.7104V13.8526C76.5371 13.846 76.5397 13.8396 76.5444 13.8349C76.5491 13.8302 76.5555 13.8275 76.5622 13.8275C77.9617 13.823 78.7503 13.8204 78.9281 13.8198C79.2888 13.8185 79.5615 13.6688 79.7464 13.3706C80.0439 12.8914 79.8381 12.1504 79.271 11.9582C79.1455 11.915 78.932 11.8934 78.6305 11.8934C77.1415 11.8922 75.6557 11.8931 74.1731 11.8963Z" fill="currentColor"/>
  <path d="M44.6656 11.7182L44.6095 11.7181C44.283 11.7175 44.0178 11.9818 44.0173 12.3083L44.0145 13.9023C44.0139 14.2289 44.2782 14.494 44.6047 14.4946L44.6607 14.4947C44.9873 14.4953 45.2524 14.231 45.253 13.9045L45.2558 12.3105C45.2564 11.9839 44.9921 11.7188 44.6656 11.7182Z" fill="currentColor"/>
  <path d="M41.4473 11.7618L41.3913 11.7617C41.0621 11.7611 40.7947 12.0275 40.7941 12.3567L40.7914 13.9411C40.7908 14.2703 41.0572 14.5376 41.3864 14.5382L41.4424 14.5383C41.7716 14.5389 42.039 14.2725 42.0395 13.9433L42.0423 12.3589C42.0429 12.0297 41.7765 11.7624 41.4473 11.7618Z" fill="currentColor"/>
  <path d="M96.1409 15.5944V23.4437C96.1409 23.451 96.1394 23.4581 96.1367 23.4648C96.1339 23.4715 96.1298 23.4776 96.1247 23.4827C96.1196 23.4878 96.1135 23.4919 96.1069 23.4946C96.1002 23.4974 96.093 23.4988 96.0858 23.4988H94.2705C94.2611 23.4988 94.252 23.495 94.2453 23.4883C94.2386 23.4816 94.2348 23.4725 94.2348 23.4631V13.6352C94.2348 13.6101 94.247 13.5976 94.2715 13.5976C98.5564 13.5969 100.766 13.5972 100.901 13.5985C101.821 13.605 102.571 13.9621 103.151 14.6699C103.506 15.104 103.71 15.5912 103.763 16.1316C103.882 17.3295 103.452 18.2659 102.474 18.9409C102.053 19.232 101.556 19.3814 100.984 19.3891C100.337 19.3969 99.5318 19.3978 98.5676 19.392C98.5584 19.392 98.5496 19.3884 98.543 19.3819C98.5365 19.3753 98.5329 19.3665 98.5329 19.3573V17.4966C98.5329 17.4734 98.5441 17.4618 98.5667 17.4618C100.125 17.4605 100.929 17.4602 100.978 17.4609C101.787 17.4628 102.176 16.3982 101.59 15.8108C101.39 15.6105 101.135 15.5155 100.826 15.5258C100.685 15.5303 100.613 15.5326 100.609 15.5326C98.765 15.5255 97.2931 15.5284 96.193 15.5413C96.1582 15.5419 96.1409 15.5596 96.1409 15.5944Z" fill="currentColor"/>
  <path d="M56.6899 20.5871L58.8095 20.5881C58.8155 20.5881 58.8214 20.5899 58.8264 20.5932C58.8314 20.5966 58.8354 20.6013 58.8377 20.6069C58.8401 20.6124 58.8408 20.6185 58.8397 20.6244C58.8386 20.6304 58.8359 20.6359 58.8317 20.6402L55.4968 24.1364C55.494 24.1394 55.4905 24.1418 55.4867 24.1434C55.4829 24.145 55.4788 24.1459 55.4746 24.1459C55.4705 24.1459 55.4664 24.145 55.4626 24.1434C55.4587 24.1418 55.4553 24.1394 55.4524 24.1364L52.1195 20.6393C52.1153 20.6349 52.1125 20.6294 52.1115 20.6235C52.1104 20.6175 52.1111 20.6114 52.1135 20.6059C52.1158 20.6004 52.1198 20.5956 52.1248 20.5923C52.1298 20.5889 52.1357 20.5871 52.1417 20.5871L54.2612 20.5881C54.2694 20.5881 54.2773 20.5848 54.2831 20.579C54.2889 20.5732 54.2922 20.5653 54.2922 20.5571V16.2581C54.2922 16.2522 54.2939 16.2464 54.2971 16.2415C54.3003 16.2365 54.3049 16.2325 54.3103 16.2301C54.3157 16.2277 54.3217 16.2268 54.3275 16.2277C54.3334 16.2285 54.3389 16.2311 54.3434 16.2349L56.6494 18.1883C56.6528 18.1913 56.6555 18.195 56.6574 18.1992C56.6592 18.2034 56.6601 18.2079 56.66 18.2125L56.659 20.5562C56.659 20.5644 56.6623 20.5722 56.6681 20.578C56.6739 20.5838 56.6817 20.5871 56.6899 20.5871Z" fill="currentColor"/>
</svg>