<svg xmlns="http://www.w3.org/2000/svg" width="140" height="28" viewBox="0 0 140 28" fill="none">
  <path d="M22.439 10.9539C25.1781 8.34869 29.6177 8.34869 32.3568 10.9539L32.686 11.2683C32.8222 11.3989 32.8222 11.6103 32.686 11.7408L31.5585 12.8127C31.4904 12.8771 31.3788 12.8771 31.3107 12.8127L30.8568 12.3807C28.9462 10.5642 25.8477 10.5642 23.9372 12.3807L23.451 12.8422C23.3829 12.9065 23.2713 12.9065 23.2032 12.8422L22.0758 11.7703C21.9396 11.6397 21.9396 11.4283 22.0758 11.2978L22.4371 10.9539H22.439ZM34.6892 13.1713L35.6918 14.1255C35.828 14.256 35.828 14.4675 35.6918 14.598L31.167 18.9021C31.0308 19.0326 30.8076 19.0326 30.6714 18.9021L27.4594 15.8482C27.4253 15.8151 27.3705 15.8151 27.3345 15.8482L24.1225 18.9021C23.9863 19.0326 23.7631 19.0326 23.6269 18.9021L19.1021 14.598C18.966 14.4675 18.966 14.256 19.1021 14.1255L20.1047 13.1713C20.2409 13.0407 20.4641 13.0407 20.6003 13.1713L23.8123 16.2251C23.8464 16.2582 23.9012 16.2582 23.9372 16.2251L27.1492 13.1713C27.2853 13.0407 27.5086 13.0407 27.6448 13.1713L30.8568 16.227C30.8908 16.2601 30.9457 16.2601 30.9816 16.227L34.1936 13.1731C34.3298 13.0426 34.553 13.0426 34.6892 13.1731V13.1713Z" fill="currentColor"/>
  <path d="M42.5697 18.1962L44.0206 12.5536C44.1076 12.2429 44.1814 11.9083 44.2797 11.3825C44.3535 11.9083 44.4405 12.2429 44.5011 12.5536L45.7552 18.1962H48.3505L50.5391 9.82704H48.5473L47.3423 14.9677C47.2193 15.4696 47.1456 15.8649 47.0585 16.4496C46.9602 15.887 46.8618 15.4696 46.7502 14.9787L45.5812 9.8252H42.9726L41.7052 14.9787C41.5936 15.4696 41.5085 15.8631 41.4101 16.4496C41.3118 15.8631 41.2247 15.4696 41.115 14.9787L39.9347 9.8252H37.8557L40.033 18.1944H42.5678L42.5697 18.1962Z" fill="currentColor"/>
  <path d="M52.2687 18.4111C53.2523 18.4111 53.8803 18.0158 54.2 17.4422C54.1622 17.6223 54.1508 17.8007 54.1508 17.9809V18.196H55.7985V14.7413C55.7985 13.0921 55.0229 12.1342 53.1294 12.1342C51.4931 12.1342 50.4224 13.0185 50.3241 14.2375H52.1325C52.1949 13.6988 52.5884 13.3771 53.1899 13.3771C53.7555 13.3771 54.0638 13.6878 54.0638 14.0463C54.0638 14.3092 53.903 14.4655 53.4245 14.5243L52.5638 14.6199C51.285 14.7762 50.1898 15.2304 50.1898 16.5449C50.1898 17.74 51.2112 18.4092 52.2687 18.4092V18.4111ZM52.8229 17.1792C52.3424 17.1792 51.9868 16.9163 51.9868 16.4622C51.9868 16.0081 52.3935 15.804 53.0083 15.6974L53.4263 15.6256C53.7839 15.5539 53.9806 15.4933 54.1035 15.3866V15.9364C54.1035 16.6773 53.5493 17.1792 52.8248 17.1792H52.8229Z" fill="currentColor"/>
  <path d="M56.7366 9.827V18.1962H58.5204V9.827H56.7366Z" fill="currentColor"/>
  <path d="M59.6317 9.827V18.1962H61.4155V9.827H59.6317Z" fill="currentColor"/>
  <path d="M65.3897 18.4111C67.0865 18.4111 68.1817 17.4789 68.3047 16.26H66.5095C66.4225 16.7987 65.9553 17.0965 65.3897 17.0965C64.6274 17.0965 64.0731 16.499 64.0618 15.6734H68.3425V15.3388C68.3425 13.4028 67.2473 12.1342 65.3537 12.1342C63.4602 12.1342 62.2534 13.3771 62.2534 15.2543C62.2534 17.2859 63.5699 18.4111 65.3897 18.4111ZM64.0485 14.5372C64.1223 13.868 64.6273 13.3771 65.3405 13.3771C66.0536 13.3771 66.5095 13.8441 66.5209 14.5372H64.0485Z" fill="currentColor"/>
  <path d="M72.1986 18.3157C72.5921 18.3157 72.9742 18.255 73.1463 18.2072V16.8926C73.0101 16.9165 72.8512 16.9294 72.715 16.9294C72.0624 16.9294 71.8297 16.5709 71.8297 15.9843V13.688H73.2806V12.3366H71.8297V10.2572H70.0592V12.3366H68.7558V13.688H70.0592V16.2234C70.0592 17.6096 70.7723 18.3157 72.1986 18.3157Z" fill="currentColor"/>
  <path d="M78.217 18.4113C80.6534 18.4113 82.1289 17.025 82.3124 15.0283H80.381C80.2335 16.1168 79.4466 16.8577 78.2908 16.8577C76.925 16.8577 75.966 15.7822 75.966 13.9638C75.966 12.1455 76.9629 11.1655 78.3286 11.1655C79.4977 11.1655 80.1616 11.8586 80.2959 12.8754H82.2765C82.0797 10.7959 80.5059 9.6119 78.34 9.6119C75.8676 9.6119 73.9741 11.2372 73.9741 13.9638C73.9741 16.6904 75.6349 18.4113 78.217 18.4113Z" fill="currentColor"/>
  <path d="M86.0996 18.4111C87.9571 18.4111 89.2737 17.2748 89.2737 15.291C89.2737 13.3072 87.9571 12.1342 86.0996 12.1342C84.242 12.1342 82.9386 13.3421 82.9386 15.291C82.9386 17.2399 84.242 18.4111 86.0996 18.4111ZM86.0996 17.0726C85.2748 17.0726 84.747 16.4144 84.747 15.291C84.747 14.1677 85.3013 13.4984 86.0996 13.4984C86.8978 13.4984 87.4653 14.1438 87.4653 15.291C87.4653 16.4383 86.9243 17.0726 86.0996 17.0726Z" fill="currentColor"/>
  <path d="M91.7599 18.196V14.7652C91.7599 14.0353 92.2271 13.4984 92.8911 13.4984C93.5191 13.4984 93.888 13.9654 93.888 14.7413V18.196H95.6718V14.4894C95.6718 13.0792 94.9095 12.1342 93.5437 12.1342C92.596 12.1342 92.0191 12.5773 91.7107 13.1031C91.7467 12.888 91.7599 12.7207 91.7599 12.5644V12.3364H89.9761V18.1941H91.7599V18.196Z" fill="currentColor"/>
  <path d="M98.4412 18.196V14.7652C98.4412 14.0353 98.9085 13.4984 99.5724 13.4984C100.2 13.4984 100.569 13.9654 100.569 14.7413V18.196H102.353V14.4894C102.353 13.0792 101.591 12.1342 100.225 12.1342C99.2773 12.1342 98.7004 12.5773 98.392 13.1031C98.428 12.888 98.4412 12.7207 98.4412 12.5644V12.3364H96.6574V18.1941H98.4412V18.196Z" fill="currentColor"/>
  <path d="M106.191 18.4111C107.888 18.4111 108.983 17.4789 109.106 16.26H107.311C107.224 16.7987 106.757 17.0965 106.191 17.0965C105.429 17.0965 104.875 16.499 104.863 15.6734H109.144V15.3388C109.144 13.4028 108.049 12.1342 106.155 12.1342C104.262 12.1342 103.055 13.3771 103.055 15.2543C103.055 17.2859 104.372 18.4111 106.191 18.4111ZM104.85 14.5372C104.924 13.868 105.427 13.3771 106.142 13.3771C106.857 13.3771 107.311 13.8441 107.322 14.5372H104.85Z" fill="currentColor"/>
  <path d="M112.973 18.4111C114.841 18.4111 115.863 17.4183 116.06 15.8757H114.276C114.215 16.521 113.833 17.0708 113.033 17.0708C112.233 17.0708 111.667 16.3409 111.667 15.2653C111.667 14.0941 112.307 13.4966 113.069 13.4966C113.831 13.4966 114.189 14.0224 114.238 14.6328H116.022C115.888 13.2098 114.891 12.1342 113.058 12.1342C111.225 12.1342 109.859 13.2815 109.859 15.2671C109.859 17.2528 111.053 18.4111 112.971 18.4111H112.973Z" fill="currentColor"/>
  <path d="M119.918 18.3157C120.311 18.3157 120.694 18.255 120.866 18.2072V16.8926C120.729 16.9165 120.571 16.9294 120.434 16.9294C119.782 16.9294 119.549 16.5709 119.549 15.9843V13.688H121V12.3366H119.549V10.2572H117.779V12.3366H116.475V13.688H117.779V16.2234C117.779 17.6096 118.492 18.3157 119.918 18.3157Z" fill="currentColor"/>
</svg>