<svg xmlns="http://www.w3.org/2000/svg" width="140" height="28" viewBox="0 0 140 28" fill="none">
  <path d="M45.7746 7.63474L43.6836 1.10495C43.6607 1.03499 43.6127 1 43.5397 1H42.889C42.871 0.999943 42.8532 1.00414 42.8372 1.01226C42.8211 1.02038 42.8071 1.03219 42.7965 1.04673C42.7858 1.06127 42.7787 1.07813 42.7757 1.09594C42.7728 1.11375 42.7741 1.132 42.7795 1.14923L45.0732 8.30707C45.1136 8.43388 45.1147 8.56124 45.0765 8.68915L42.0061 19.1299C41.9876 19.1933 42.011 19.225 42.0764 19.225H45.9332C45.9844 19.225 46.0161 19.2004 46.028 19.1512C47.2858 14.0175 47.9899 11.1451 48.1404 10.534C48.2058 10.2661 48.2717 10.0879 48.3382 9.99937C50.5933 6.98537 52.8435 3.9976 55.0888 1.03608C55.1073 1.01203 55.1013 1 55.0708 1H51.1601C51.1034 1 51.0571 1.02241 51.0211 1.06723L45.8564 7.6495C45.851 7.65611 45.844 7.66116 45.8361 7.66412C45.8281 7.66708 45.8195 7.66785 45.8112 7.66634C45.8028 7.66483 45.795 7.66111 45.7886 7.65555C45.7822 7.64999 45.7773 7.6428 45.7746 7.63474Z" fill="currentColor"/>
  <path d="M86.8794 4.61912C86.8979 4.64426 86.9208 4.65192 86.948 4.64208C88.608 4.06814 90.086 3.7921 91.3819 3.81396C92.3019 3.83036 93.0523 4.02933 93.6332 4.41086C94.0932 4.71478 94.3357 5.16737 94.3608 5.76864C94.3815 6.28026 94.3439 6.69623 94.248 7.01654C94.0757 7.59923 93.8321 8.1606 93.5172 8.70065C92.8109 9.91302 91.9629 11.0582 90.9732 12.1361C88.3541 14.9872 85.4652 17.4579 82.3065 19.5481C79.7495 21.2404 77.1679 22.6146 74.3216 23.546C72.824 24.0368 71.3449 24.2145 69.8844 24.0789C68.8369 23.9827 67.9475 23.5853 67.2162 22.8868C67.2114 22.8823 67.2054 22.8792 67.199 22.8779C67.1925 22.8765 67.1859 22.877 67.1798 22.8793C67.1738 22.8815 67.1686 22.8854 67.1649 22.8906C67.1612 22.8957 67.1591 22.9018 67.159 22.9081C67.1148 23.9445 67.5742 24.9497 68.5045 25.4351C69.0865 25.7379 69.6549 25.9139 70.2097 25.9631C71.316 26.0604 72.4817 25.9653 73.7068 25.6778C75.2698 25.3104 76.896 24.7278 78.5854 23.9297C83.3872 21.6635 87.7966 18.8315 91.5258 15.1452C92.825 13.8606 94.0071 12.4373 95.072 10.8751C96.4028 8.92202 98.4219 4.86837 95.5019 3.21707C94.8567 2.85193 93.9242 2.6874 92.7046 2.72348C90.6233 2.78743 88.5061 3.38269 86.5867 4.17801C86.5682 4.18566 86.5649 4.19768 86.5769 4.21408L86.8794 4.61912Z" fill="currentColor"/>
  <path d="M50.7795 13.6136C50.7566 15.5847 51.2863 18.5233 53.6242 19.03C53.7103 19.0486 53.8967 19.0595 54.1834 19.0628C54.47 19.0661 54.6564 19.0595 54.7425 19.0431C57.0919 18.5921 57.6919 15.6667 57.7148 13.6956C57.7377 11.7246 57.208 8.78599 54.87 8.27928C54.7839 8.2607 54.5975 8.24976 54.3109 8.24648C54.0242 8.2432 53.8378 8.24976 53.7517 8.26616C51.4024 8.71711 50.8023 11.6426 50.7795 13.6136Z" fill="currentColor"/>
  <path d="M66.0461 8.2744H65.8368C65.7758 8.2744 65.7453 8.30446 65.7453 8.36459C65.7213 13.7771 65.712 16.7528 65.7175 17.2918C65.7208 17.6526 65.669 17.9122 65.5622 18.0707C65.3649 18.3626 65.1333 18.5337 64.8673 18.584C64.718 18.6135 64.342 18.6272 63.7392 18.625C63.0084 18.6217 62.5425 18.461 62.5441 17.6542C62.5506 13.9416 62.5501 10.8391 62.5425 8.34655C62.5414 8.29189 62.5141 8.26456 62.4607 8.26456H60.1506C60.1371 8.26456 60.1242 8.26992 60.1147 8.27945C60.1052 8.28898 60.0999 8.30191 60.0999 8.31539C60.0988 11.2419 60.0988 14.1734 60.0999 17.1098C60.1015 17.8444 60.1849 18.4413 60.9026 18.7266C61.3255 18.895 61.7446 18.9961 62.1599 19.03C62.9883 19.1 63.7387 19.1055 64.4112 19.0464C65.0325 18.9918 65.5251 18.7168 65.8892 18.2216C66.0635 17.9833 66.1507 17.7674 66.1507 17.5739C66.1497 14.5467 66.1497 11.4819 66.1507 8.37935C66.1507 8.30938 66.1159 8.2744 66.0461 8.2744Z" fill="currentColor"/>
  <path d="M71.0557 9.35148V8.34463C71.0557 8.29215 71.029 8.26592 70.9756 8.26592H68.7619C68.6987 8.26592 68.6671 8.29762 68.6671 8.36103V19.0101C68.6671 19.0266 68.6736 19.0424 68.6853 19.0541C68.6969 19.0658 68.7127 19.0724 68.7292 19.0724H70.9691C71.0246 19.0724 71.0524 19.0445 71.0524 18.9887C71.0557 16.764 71.0546 14.0671 71.0492 10.8978C71.0475 10.3993 71.1211 10.1468 71.3876 9.78767C71.8454 9.16618 72.3996 8.65291 73.1582 8.56764C74.7931 8.38234 75.4765 9.87294 75.4602 11.2602C75.4471 12.383 75.4455 14.9559 75.4553 18.9789C75.4564 19.0434 75.4891 19.0756 75.5534 19.0756H75.949C76.0155 19.0756 76.0487 19.0423 76.0487 18.9756C76.0487 14.1097 76.0477 11.457 76.0455 11.0175C76.0357 9.39084 74.8127 8.12981 73.1386 8.26264C72.3691 8.32386 71.7151 8.70101 71.1767 9.39411C71.1682 9.40531 71.1565 9.41347 71.1431 9.41746C71.1297 9.42145 71.1154 9.42108 71.1021 9.41639C71.0888 9.41169 71.0772 9.40292 71.0688 9.39129C71.0605 9.37965 71.0559 9.36574 71.0557 9.35148Z" fill="currentColor"/>
  <path d="M84.4476 15.924C84.2885 16.6335 84.046 17.2195 83.7201 17.6819C83.2247 18.3821 82.6459 18.5871 81.8089 18.7068C81.5015 18.7516 81.1767 18.7024 80.8344 18.5592C80.8156 18.5515 80.7996 18.5383 80.7882 18.5213C80.7769 18.5044 80.7708 18.4845 80.7707 18.4641V8.91048C80.7707 8.88039 80.7774 8.85073 80.7905 8.82374C80.8035 8.79675 80.8224 8.77314 80.8459 8.7547C80.9342 8.68473 81.0519 8.63608 81.199 8.60875C82.5484 8.35841 83.4836 8.82412 84.0046 10.0059C84.0416 10.0901 84.1261 10.3579 84.258 10.8094C84.2697 10.8496 84.2941 10.8849 84.3277 10.9101C84.3613 10.9352 84.4023 10.9488 84.4444 10.9488H84.8907C84.9648 10.9488 84.9926 10.9122 84.9741 10.8389C84.5915 9.42047 83.6988 8.33654 82.18 8.25783C81.0911 8.20044 80.3767 8.43001 79.6851 9.25156C78.9428 10.1322 78.508 11.4243 78.436 12.5493C78.3717 13.5419 78.3744 14.376 78.4442 15.0516C78.5979 16.5554 79.3892 18.533 80.9587 18.9528C82.2285 19.2928 83.2732 18.9681 84.0928 17.9787C84.664 17.29 84.9501 16.4755 84.9512 15.5354C84.9512 15.2347 84.8754 15.0489 84.7239 14.9778C84.0689 14.6674 83.3212 14.7045 82.4808 15.0893C82.423 15.1156 82.3942 15.1599 82.3942 15.2222V15.8863C82.3942 15.9432 82.4214 15.9634 82.4759 15.947C82.9686 15.7994 83.6029 15.7606 84.379 15.8305C84.3899 15.8315 84.4005 15.8347 84.4101 15.8401C84.4196 15.8454 84.428 15.8528 84.4345 15.8616C84.441 15.8705 84.4455 15.8806 84.4478 15.8914C84.45 15.9022 84.45 15.9133 84.4476 15.924Z" fill="currentColor"/>
  <path d="M53.1798 9.06296L53.1634 18.1476C53.1632 18.2194 53.1772 18.2906 53.2044 18.3571C53.2317 18.4235 53.2717 18.4839 53.3223 18.5348C53.3729 18.5857 53.433 18.626 53.4991 18.6536C53.5653 18.6811 53.6362 18.6953 53.7079 18.6953H54.3308C55.0028 18.6965 55.6481 18.3083 56.1245 17.6161C56.601 16.9238 56.8696 15.9843 56.8714 15.0041L56.8747 12.2196C56.8756 11.7342 56.8109 11.2534 56.6844 10.8047C56.5578 10.356 56.3719 9.94817 56.1372 9.60448C55.9025 9.2608 55.6236 8.98801 55.3164 8.80168C55.0093 8.61535 54.6799 8.51914 54.3471 8.51854H53.7242C53.5801 8.51854 53.4419 8.57585 53.3398 8.6779C53.2378 8.77995 53.1802 8.91842 53.1798 9.06296Z" fill="currentColor"/>
  <path d="M45.7746 7.63474C45.7773 7.6428 45.7822 7.64999 45.7886 7.65555C45.795 7.66111 45.8028 7.66483 45.8112 7.66634C45.8195 7.66785 45.8281 7.66708 45.8361 7.66412C45.844 7.66116 45.851 7.65611 45.8564 7.6495L51.0211 1.06723C51.0571 1.02241 51.1034 1 51.1601 1H55.0708C55.1013 1 55.1073 1.01203 55.0888 1.03608C52.8435 3.9976 50.5933 6.98537 48.3382 9.99937C48.2717 10.0879 48.2058 10.2661 48.1404 10.534C47.9899 11.1451 47.2858 14.0175 46.028 19.1512C46.0161 19.2004 45.9844 19.225 45.9332 19.225H42.0764C42.011 19.225 41.9876 19.1933 42.0061 19.1299L45.0765 8.68915C45.1147 8.56124 45.1136 8.43388 45.0732 8.30707L42.7795 1.14923C42.7741 1.132 42.7728 1.11375 42.7757 1.09594C42.7787 1.07813 42.7858 1.06127 42.7965 1.04673C42.8071 1.03219 42.8211 1.02038 42.8372 1.01226C42.8532 1.00414 42.871 0.999943 42.889 1H43.5397C43.6127 1 43.6607 1.03499 43.6836 1.10495L45.7746 7.63474Z" fill="currentColor"/>
  <path d="M86.8794 4.61912L86.5769 4.21408C86.5649 4.19768 86.5682 4.18566 86.5867 4.17801C88.5061 3.38269 90.6233 2.78743 92.7046 2.72348C93.9242 2.6874 94.8567 2.85193 95.5019 3.21707C98.4219 4.86837 96.4028 8.92202 95.072 10.8751C94.0071 12.4373 92.825 13.8606 91.5258 15.1452C87.7966 18.8315 83.3872 21.6635 78.5854 23.9297C76.896 24.7278 75.2698 25.3104 73.7068 25.6778C72.4817 25.9653 71.316 26.0604 70.2097 25.9631C69.6549 25.9139 69.0865 25.7379 68.5045 25.4351C67.5742 24.9497 67.1148 23.9445 67.159 22.9081C67.1591 22.9018 67.1612 22.8957 67.1649 22.8906C67.1686 22.8854 67.1738 22.8815 67.1798 22.8793C67.1859 22.877 67.1925 22.8765 67.199 22.8779C67.2054 22.8792 67.2114 22.8823 67.2162 22.8868C67.9475 23.5853 68.8369 23.9827 69.8844 24.0789C71.3449 24.2145 72.824 24.0368 74.3216 23.546C77.1679 22.6146 79.7495 21.2404 82.3065 19.5481C85.4652 17.4579 88.3541 14.9872 90.9732 12.1361C91.9629 11.0582 92.8109 9.91302 93.5172 8.70065C93.8321 8.1606 94.0757 7.59923 94.248 7.01654C94.3439 6.69623 94.3815 6.28026 94.3608 5.76864C94.3357 5.16737 94.0932 4.71478 93.6332 4.41086C93.0523 4.02933 92.3019 3.83036 91.3819 3.81396C90.086 3.7921 88.608 4.06814 86.948 4.64208C86.9208 4.65192 86.8979 4.64426 86.8794 4.61912Z" fill="currentColor"/>
  <path d="M54.3109 8.24648C54.5975 8.24976 54.7839 8.2607 54.87 8.27928C57.208 8.78599 57.7377 11.7246 57.7148 13.6956C57.6919 15.6667 57.0919 18.5921 54.7425 19.0431C54.6564 19.0595 54.47 19.0661 54.1834 19.0628C53.8967 19.0595 53.7103 19.0486 53.6242 19.03C51.2863 18.5233 50.7566 15.5847 50.7795 13.6136C50.8023 11.6426 51.4024 8.71711 53.7517 8.26616C53.8378 8.24976 54.0242 8.2432 54.3109 8.24648ZM53.1795 9.06312L53.1632 18.1478C53.163 18.2196 53.1769 18.2908 53.2041 18.3572C53.2314 18.4237 53.2715 18.4841 53.322 18.5349C53.3726 18.5858 53.4327 18.6262 53.4989 18.6537C53.565 18.6813 53.636 18.6955 53.7076 18.6955H54.3305C55.0026 18.6967 55.6478 18.3085 56.1242 17.6162C56.6007 16.924 56.8694 15.9844 56.8712 15.0042L56.8744 12.2198C56.8753 11.7344 56.8107 11.2536 56.6841 10.8049C56.5576 10.3562 56.3716 9.94832 56.1369 9.60464C55.9022 9.26095 55.6233 8.98816 55.3162 8.80183C55.009 8.61551 54.6797 8.5193 54.3469 8.51869H53.7239C53.5798 8.51869 53.4416 8.576 53.3396 8.67805C53.2375 8.7801 53.18 8.91858 53.1795 9.06312Z" fill="currentColor"/>
  <path d="M66.1507 8.37935C66.1497 11.4819 66.1497 14.5467 66.1507 17.5739C66.1507 17.7674 66.0635 17.9833 65.8892 18.2216C65.5251 18.7168 65.0325 18.9918 64.4112 19.0464C63.7387 19.1055 62.9883 19.1 62.1599 19.03C61.7446 18.9961 61.3255 18.895 60.9026 18.7266C60.1849 18.4413 60.1015 17.8444 60.0999 17.1098C60.0988 14.1734 60.0988 11.2419 60.0999 8.31539C60.0999 8.30191 60.1052 8.28898 60.1147 8.27945C60.1242 8.26992 60.1371 8.26456 60.1506 8.26456H62.4607C62.5141 8.26456 62.5414 8.29189 62.5425 8.34655C62.5501 10.8391 62.5506 13.9416 62.5441 17.6542C62.5425 18.461 63.0084 18.6217 63.7392 18.625C64.342 18.6272 64.718 18.6135 64.8673 18.584C65.1333 18.5337 65.3649 18.3626 65.5622 18.0707C65.669 17.9122 65.7208 17.6526 65.7175 17.2918C65.712 16.7528 65.7213 13.7771 65.7453 8.36459C65.7453 8.30446 65.7758 8.2744 65.8368 8.2744H66.0461C66.1159 8.2744 66.1507 8.30938 66.1507 8.37935Z" fill="currentColor"/>
  <path d="M71.0557 9.3518C71.0559 9.36606 71.0605 9.37997 71.0688 9.39161C71.0772 9.40324 71.0888 9.41201 71.1021 9.41671C71.1154 9.4214 71.1297 9.42177 71.1431 9.41778C71.1565 9.41379 71.1682 9.40563 71.1767 9.39443C71.7151 8.70133 72.3691 8.32418 73.1386 8.26296C74.8127 8.13013 76.0357 9.39116 76.0455 11.0179C76.0477 11.4573 76.0487 14.11 76.0487 18.9759C76.0487 19.0426 76.0155 19.076 75.949 19.076H75.5534C75.4891 19.076 75.4564 19.0437 75.4553 18.9792C75.4455 14.9562 75.4471 12.3833 75.4602 11.2606C75.4765 9.87326 74.7931 8.38266 73.1582 8.56796C72.3996 8.65323 71.8454 9.1665 71.3876 9.78799C71.1211 10.1471 71.0475 10.3996 71.0492 10.8982C71.0546 14.0674 71.0557 16.7644 71.0524 18.9891C71.0524 19.0448 71.0246 19.0727 70.9691 19.0727H68.7292C68.7127 19.0727 68.6969 19.0661 68.6853 19.0544C68.6736 19.0427 68.6671 19.0269 68.6671 19.0104V8.36135C68.6671 8.29794 68.6987 8.26624 68.7619 8.26624H70.9756C71.029 8.26624 71.0557 8.29247 71.0557 8.34495V9.3518Z" fill="currentColor"/>
  <path d="M84.4463 15.924C84.4487 15.9133 84.4488 15.9022 84.4465 15.8914C84.4442 15.8806 84.4397 15.8705 84.4332 15.8616C84.4267 15.8528 84.4184 15.8454 84.4088 15.8401C84.3992 15.8347 84.3886 15.8315 84.3777 15.8305C83.6016 15.7606 82.9673 15.7994 82.4746 15.947C82.4201 15.9634 82.3929 15.9432 82.3929 15.8863V15.2222C82.3929 15.1599 82.4218 15.1156 82.4795 15.0893C83.3199 14.7045 84.0676 14.6674 84.7226 14.9778C84.8741 15.0489 84.9499 15.2347 84.9499 15.5354C84.9488 16.4755 84.6627 17.29 84.0916 17.9787C83.2719 18.9681 82.2272 19.2928 80.9574 18.9528C79.3879 18.533 78.5966 16.5554 78.4429 15.0516C78.3732 14.376 78.3704 13.5419 78.4347 12.5493C78.5067 11.4243 78.9416 10.1322 79.6838 9.25156C80.3754 8.43001 81.0899 8.20044 82.1787 8.25783C83.6976 8.33654 84.5902 9.42047 84.9728 10.8389C84.9913 10.9122 84.9635 10.9488 84.8894 10.9488H84.4431C84.401 10.9488 84.3601 10.9352 84.3265 10.9101C84.2929 10.8849 84.2684 10.8496 84.2567 10.8094C84.1248 10.3579 84.0403 10.0901 84.0033 10.0059C83.4823 8.82412 82.5471 8.35841 81.1978 8.60875C81.0506 8.63608 80.9329 8.68473 80.8446 8.7547C80.8212 8.77314 80.8022 8.79675 80.7892 8.82374C80.7761 8.85073 80.7694 8.88039 80.7694 8.91048V18.4641C80.7695 18.4845 80.7756 18.5044 80.7869 18.5213C80.7983 18.5383 80.8144 18.5515 80.8332 18.5592C81.1754 18.7024 81.5002 18.7516 81.8076 18.7068C82.6447 18.5871 83.2234 18.3821 83.7188 17.6819C84.0447 17.2195 84.2872 16.6335 84.4463 15.924Z" fill="currentColor"/>
  <path d="M53.1785 9.06296C53.1789 8.91842 53.2365 8.77995 53.3386 8.6779C53.4406 8.57585 53.5788 8.51854 53.7229 8.51854H54.3458C54.6787 8.51914 55.008 8.61535 55.3152 8.80168C55.6223 8.98801 55.9012 9.2608 56.1359 9.60448C56.3706 9.94817 56.5566 10.356 56.6831 10.8047C56.8096 11.2534 56.8743 11.7342 56.8734 12.2196L56.8702 15.0041C56.8684 15.9843 56.5997 16.9238 56.1232 17.6161C55.6468 18.3083 55.0016 18.6965 54.3295 18.6953H53.7066C53.635 18.6953 53.564 18.6811 53.4979 18.6536C53.4317 18.626 53.3716 18.5857 53.321 18.5348C53.2705 18.4839 53.2304 18.4235 53.2031 18.3571C53.1759 18.2906 53.162 18.2194 53.1622 18.1476L53.1785 9.06296Z" fill="currentColor"/>
</svg>