<svg width="62" height="62" viewBox="0 0 62 62" fill="none" xmlns="http://www.w3.org/2000/svg">
<path d="M0 31C0 13.8792 13.8792 0 31 0V0C48.1208 0 62 13.8792 62 31V31C62 48.1208 48.1208 62 31 62V62C13.8792 62 0 48.1208 0 31V31Z" fill="url(#paint0_linear_12_607)" fill-opacity="0.16"/>
<path d="M38.1179 25.039C38.2787 24.376 39.2216 24.376 39.3824 25.039L39.8247 26.8632C39.8821 27.1 40.0669 27.2848 40.3037 27.3422L42.1279 27.7845C42.7909 27.9453 42.7909 28.8882 42.1279 29.049L40.3037 29.4913C40.0669 29.5487 39.8821 29.7335 39.8247 29.9702L39.3824 31.7945C39.2216 32.4575 38.2787 32.4575 38.1179 31.7945L37.6756 29.9702C37.6182 29.7335 37.4334 29.5487 37.1966 29.4913L35.3724 29.049C35.331 29.0389 35.2921 29.0258 35.2559 29.01C34.712 28.7734 34.7508 27.9352 35.3724 27.7845L37.1966 27.3422C37.4334 27.2848 37.6182 27.1 37.6756 26.8632L38.1179 25.039Z" fill="#B6F09C"/>
<path fill-rule="evenodd" clip-rule="evenodd" d="M30.0742 34.9117C28.5483 34.6253 26.9937 34.6253 25.4678 34.9117C24.7092 35.054 24.0937 35.8449 24.0937 36.8489V37.1931C24.0937 37.4871 24.2852 37.6366 24.4261 37.6366H31.1159C31.2568 37.6366 31.4483 37.4871 31.4483 37.1931V36.8489C31.4483 35.8449 30.8328 35.054 30.0742 34.9117ZM25.1169 32.5392C26.8751 32.2093 28.6669 32.2093 30.4251 32.5392C32.2777 32.8868 33.5835 34.7441 33.5835 36.8489V37.1931C33.5835 38.7173 32.5214 40.0417 31.1159 40.0417H24.4261C23.0206 40.0417 21.9585 38.7173 21.9585 37.1931V36.8489C21.9585 34.7441 23.2643 32.8868 25.1169 32.5392Z" fill="#B6F09C"/>
<path fill-rule="evenodd" clip-rule="evenodd" d="M24.8999 17.8634C25.0214 18.4575 24.6383 19.0375 24.0442 19.1591C22.6373 19.4468 21.5701 20.0065 20.7884 20.7883C20.0066 21.5701 19.4469 22.6372 19.1591 24.0442C19.0376 24.6382 18.4575 25.0213 17.8635 24.8998C17.2694 24.7783 16.8863 24.1982 17.0078 23.6041C17.3659 21.8537 18.0979 20.3734 19.2357 19.2356C20.3735 18.0978 21.8537 17.3658 23.6042 17.0078C24.1983 16.8863 24.7784 17.2693 24.8999 17.8634ZM44.1276 35.6633C44.7227 35.7798 45.1107 36.3566 44.9943 36.9516C44.3053 40.4734 42.1584 44.2465 37.639 44.9997C37.0409 45.0994 36.4752 44.6954 36.3755 44.0972C36.2758 43.4991 36.6799 42.9335 37.278 42.8338C40.5086 42.2953 42.2367 39.6101 42.8393 36.53C42.9558 35.9349 43.5326 35.5469 44.1276 35.6633ZM18.0835 35.6429C18.6898 35.6429 19.1814 36.1345 19.1814 36.7408C19.1814 40.1256 21.3571 42.2915 24.0442 42.8411C24.6383 42.9626 25.0214 43.5427 24.8999 44.1368C24.7784 44.7308 24.1983 45.1139 23.6042 44.9924C19.9765 44.2504 16.9856 41.2496 16.9856 36.7408C16.9856 36.1345 17.4771 35.6429 18.0835 35.6429Z" fill="#B6F09C"/>
<path fill-rule="evenodd" clip-rule="evenodd" d="M27.771 28.6751C28.9837 28.6751 29.9668 27.692 29.9668 26.4792C29.9668 25.2665 28.9837 24.2834 27.771 24.2834C26.5583 24.2834 25.5752 25.2665 25.5752 26.4792C25.5752 27.692 26.5583 28.6751 27.771 28.6751ZM27.771 31.0001C30.2678 31.0001 32.2918 28.976 32.2918 26.4792C32.2918 23.9825 30.2678 21.9584 27.771 21.9584C25.2742 21.9584 23.2502 23.9825 23.2502 26.4792C23.2502 28.976 25.2742 31.0001 27.771 31.0001Z" fill="#B6F09C"/>
<path d="M37.4585 18.0834C37.4585 18.7968 36.8802 19.3751 36.1668 19.3751C35.4535 19.3751 34.8752 18.7968 34.8752 18.0834C34.8752 17.37 35.4535 16.7917 36.1668 16.7917C36.8802 16.7917 37.4585 17.37 37.4585 18.0834Z" fill="#B6F09C"/>
<path d="M43.9168 20.6667C43.9168 21.3801 43.3385 21.9584 42.6252 21.9584C41.9118 21.9584 41.3335 21.3801 41.3335 20.6667C41.3335 19.9534 41.9118 19.3751 42.6252 19.3751C43.3385 19.3751 43.9168 19.9534 43.9168 20.6667Z" fill="#B6F09C"/>
<path d="M40.0418 36.1667C40.0418 36.8801 39.4635 37.4584 38.7502 37.4584C38.0368 37.4584 37.4585 36.8801 37.4585 36.1667C37.4585 35.4534 38.0368 34.8751 38.7502 34.8751C39.4635 34.8751 40.0418 35.4534 40.0418 36.1667Z" fill="#B6F09C"/>
<defs>
<linearGradient id="paint0_linear_12_607" x1="-17.6136" y1="-52.6415" x2="91.9803" y2="4.60215" gradientUnits="userSpaceOnUse">
<stop stop-color="#D7EDED"/>
<stop offset="1" stop-color="#CCEBEB" stop-opacity="0"/>
</linearGradient>
</defs>
</svg>
