<svg width="62" height="62" viewBox="0 0 62 62" fill="none" xmlns="http://www.w3.org/2000/svg">
<path d="M0 31C0 13.8792 13.8792 0 31 0C48.1208 0 62 13.8792 62 31C62 48.1208 48.1208 62 31 62C13.8792 62 0 48.1208 0 31Z" fill="url(#paint0_linear_12_598)" fill-opacity="0.16"/>
<path d="M40.0415 43.9167C40.0415 44.6301 39.4632 45.2084 38.7498 45.2084C38.0365 45.2084 37.4582 44.6301 37.4582 43.9167C37.4582 43.2034 38.0365 42.6251 38.7498 42.6251C39.4632 42.6251 40.0415 43.2034 40.0415 43.9167Z" fill="#82DBF7"/>
<path d="M45.2082 38.7501C45.2082 39.4634 44.6299 40.0417 43.9165 40.0417C43.2031 40.0417 42.6248 39.4634 42.6248 38.7501C42.6248 38.0367 43.2031 37.4584 43.9165 37.4584C44.6299 37.4584 45.2082 38.0367 45.2082 38.7501Z" fill="#82DBF7"/>
<path d="M19.3748 23.2501C19.3748 23.9634 18.7965 24.5417 18.0832 24.5417C17.3698 24.5417 16.7915 23.9634 16.7915 23.2501C16.7915 22.5367 17.3698 21.9584 18.0832 21.9584C18.7965 21.9584 19.3748 22.5367 19.3748 23.2501Z" fill="#82DBF7"/>
<path d="M24.5415 18.0834C24.5415 18.7968 23.9632 19.3751 23.2498 19.3751C22.5365 19.3751 21.9582 18.7968 21.9582 18.0834C21.9582 17.37 22.5365 16.7917 23.2498 16.7917C23.9632 16.7917 24.5415 17.37 24.5415 18.0834Z" fill="#82DBF7"/>
<path fill-rule="evenodd" clip-rule="evenodd" d="M30.9998 23.8738L30.1574 27.348C29.8207 28.7367 28.7364 29.8209 27.3477 30.1577L23.8736 31.0001L27.3477 31.8425C28.7364 32.1792 29.8207 33.2635 30.1574 34.6522L30.9998 38.1263L31.8423 34.6522C32.179 33.2635 33.2633 32.1792 34.6519 31.8425L38.1261 31.0001L34.6519 30.1577C33.2632 29.8209 32.179 28.7367 31.8423 27.348L30.9998 23.8738ZM32.6858 21.9927C32.2571 20.2248 29.7426 20.2248 29.3139 21.9927L28.1343 26.8574C27.9812 27.4886 27.4884 27.9815 26.8572 28.1345L21.9925 29.3141C20.2245 29.7429 20.2245 32.2573 21.9925 32.686L26.8572 33.8656C27.4884 34.0187 27.9812 34.5115 28.1343 35.1428L29.3139 40.0074C29.7426 41.7754 32.2571 41.7754 32.6858 40.0074L33.8654 35.1428C34.0184 34.5115 34.5113 34.0187 35.1425 33.8656L40.0072 32.686C41.7752 32.2573 41.7752 29.7429 40.0072 29.3141L35.1425 28.1345C34.5113 27.9815 34.0184 27.4886 33.8654 26.8574L32.6858 21.9927Z" fill="#82DBF7"/>
<path fill-rule="evenodd" clip-rule="evenodd" d="M27.1308 44.3232C26.9063 44.9247 26.2367 45.2304 25.6352 45.0058C21.739 43.5516 18.6093 40.5327 17.0107 36.7129C16.7629 36.1207 17.0421 35.4396 17.6343 35.1918C18.2266 34.9439 18.9077 35.2231 19.1555 35.8154C20.5066 39.0439 23.1549 41.5985 26.4482 42.8276C27.0497 43.0521 27.3553 43.7217 27.1308 44.3232Z" fill="#82DBF7"/>
<path fill-rule="evenodd" clip-rule="evenodd" d="M44.3238 27.1519C43.7225 27.3769 43.0526 27.0718 42.8277 26.4704C41.5888 23.1591 39.0044 20.4998 35.7394 19.1587C35.1455 18.9148 34.8618 18.2356 35.1057 17.6417C35.3496 17.0478 36.0288 16.7641 36.6227 17.0081C40.4841 18.5941 43.5389 21.7362 45.0053 25.6558C45.2302 26.2571 44.9251 26.9269 44.3238 27.1519Z" fill="#82DBF7"/>
<defs>
<linearGradient id="paint0_linear_12_598" x1="-17.6136" y1="-52.6415" x2="91.9803" y2="4.60215" gradientUnits="userSpaceOnUse">
<stop stop-color="#D7EDED"/>
<stop offset="1" stop-color="#CCEBEB" stop-opacity="0"/>
</linearGradient>
</defs>
</svg>
