<svg width="62" height="62" viewBox="0 0 62 62" fill="none" xmlns="http://www.w3.org/2000/svg">
<path d="M0 31C0 13.8792 13.8792 0 31 0C48.1208 0 62 13.8792 62 31C62 48.1208 48.1208 62 31 62C13.8792 62 0 48.1208 0 31Z" fill="url(#paint0_linear_12_604)" fill-opacity="0.16"/>
<path d="M20.2542 40.9214L22.3321 42.9992C22.9882 43.6554 23.9178 44.0381 24.7926 44.0381C25.6675 44.0381 26.5971 43.6554 27.2532 42.9992L40.1391 30.1133L40.7953 23.8798C40.9046 23.1143 40.3031 22.4581 39.5376 22.4581C39.483 22.4581 39.4283 22.4581 39.3736 22.4581L33.1401 23.1143L20.2542 36.0002C18.8873 37.3672 18.8873 39.5544 20.2542 40.9214ZM34.3431 25.6296L38.0066 25.2468L37.6238 28.9104L31.4089 35.18L29.7138 36.8751L26.3783 33.5396L28.0734 31.8445L34.3431 25.6296ZM22.1133 37.8593L24.5192 35.3987L27.8547 38.7342L25.3941 41.1401C25.1754 41.3588 24.902 41.4135 24.7926 41.4135C24.6833 41.4135 24.4099 41.3588 24.1912 41.1401L22.1133 39.0623C21.7853 38.7342 21.7853 38.1874 22.1133 37.8593Z" fill="#FFD147"/>
<path d="M21.1154 17.4547C21.3298 16.5708 22.587 16.5708 22.8014 17.4547L23.3912 19.8871C23.4677 20.2027 23.7141 20.4491 24.0297 20.5256L26.4621 21.1154C27.3461 21.3298 27.3461 22.587 26.4621 22.8014L24.0297 23.3912C23.7141 23.4677 23.4677 23.7141 23.3912 24.0297L22.8014 26.4621C22.587 27.3461 21.3298 27.3461 21.1154 26.4621L20.5256 24.0297C20.4491 23.7141 20.2027 23.4677 19.8871 23.3912L17.4547 22.8014C16.5708 22.587 16.5708 21.3298 17.4547 21.1154L19.8871 20.5256C20.2027 20.4491 20.4491 20.2027 20.5256 19.8871L21.1154 17.4547Z" fill="#FFD147"/>
<path fill-rule="evenodd" clip-rule="evenodd" d="M21.9584 18.3953L21.5372 20.1324C21.3688 20.8267 20.8267 21.3688 20.1324 21.5372L18.3953 21.9584L20.1324 22.3796C20.8267 22.548 21.3688 23.0901 21.5372 23.7845L21.9584 25.5215L22.3796 23.7845C22.548 23.0901 23.0901 22.548 23.7845 22.3796L25.5215 21.9584L23.7845 21.5372C23.0901 21.3688 22.548 20.8267 22.3796 20.1324L21.9584 18.3953ZM22.8014 17.4547C22.587 16.5708 21.3298 16.5708 21.1154 17.4547L20.5256 19.8871C20.4491 20.2027 20.2027 20.4491 19.8871 20.5256L17.4547 21.1154C16.5708 21.3298 16.5708 22.587 17.4547 22.8014L19.8871 23.3912C20.2027 23.4677 20.4491 23.7141 20.5256 24.0297L21.1154 26.4621C21.3298 27.3461 22.587 27.3461 22.8014 26.4621L23.3912 24.0297C23.4677 23.7141 23.7141 23.4677 24.0297 23.3912L26.4621 22.8014C27.3461 22.587 27.3461 21.3298 26.4621 21.1154L24.0297 20.5256C23.7141 20.4491 23.4677 20.2027 23.3912 19.8871L22.8014 17.4547Z" fill="#FFD147"/>
<path d="M40.7012 37.9557C40.862 37.2927 41.8049 37.2927 41.9656 37.9557L42.408 39.7799C42.4654 40.0166 42.6502 40.2014 42.8869 40.2588L44.7112 40.7012C45.3742 40.862 45.3742 41.8049 44.7112 41.9656L42.8869 42.408C42.6502 42.4654 42.4654 42.6502 42.408 42.8869L41.9656 44.7112C41.8049 45.3742 40.862 45.3742 40.7012 44.7112L40.2588 42.8869C40.2014 42.6502 40.0166 42.4654 39.7799 42.408L37.9557 41.9656C37.2927 41.8049 37.2927 40.862 37.9557 40.7012L39.7799 40.2588C40.0166 40.2014 40.2014 40.0166 40.2588 39.7799L40.7012 37.9557Z" fill="#FFD147"/>
<path fill-rule="evenodd" clip-rule="evenodd" d="M41.3334 38.6611L41.0175 39.9639C40.8912 40.4846 40.4846 40.8912 39.9639 41.0175L38.6611 41.3334L39.9639 41.6493C40.4846 41.7756 40.8912 42.1822 41.0175 42.7029L41.3334 44.0058L41.6493 42.7029C41.7756 42.1822 42.1822 41.7756 42.7029 41.6493L44.0058 41.3334L42.7029 41.0175C42.1822 40.8912 41.7756 40.4846 41.6493 39.9639L41.3334 38.6611ZM41.9656 37.9557C41.8049 37.2927 40.862 37.2927 40.7012 37.9557L40.2588 39.7799C40.2014 40.0166 40.0166 40.2014 39.7799 40.2588L37.9557 40.7012C37.2927 40.862 37.2927 41.8049 37.9557 41.9656L39.7799 42.408C40.0166 42.4654 40.2014 42.6502 40.2588 42.8869L40.7012 44.7112C40.862 45.3742 41.8049 45.3742 41.9656 44.7112L42.408 42.8869C42.4654 42.6502 42.6502 42.4654 42.8869 42.408L44.7112 41.9656C45.3742 41.8049 45.3742 40.862 44.7112 40.7012L42.8869 40.2588C42.6502 40.2014 42.4654 40.0166 42.408 39.7799L41.9656 37.9557Z" fill="#FFD147"/>
<path d="M45.2084 18.0834C45.2084 18.7968 44.6301 19.3751 43.9167 19.3751C43.2034 19.3751 42.6251 18.7968 42.6251 18.0834C42.6251 17.37 43.2034 16.7917 43.9167 16.7917C44.6301 16.7917 45.2084 17.37 45.2084 18.0834Z" fill="#FFD147"/>
<path d="M32.2917 18.0834C32.2917 18.7968 31.7134 19.3751 31.0001 19.3751C30.2867 19.3751 29.7084 18.7968 29.7084 18.0834C29.7084 17.37 30.2867 16.7917 31.0001 16.7917C31.7134 16.7917 32.2917 17.37 32.2917 18.0834Z" fill="#FFD147"/>
<path d="M20.6667 31.0001C20.6667 31.7134 20.0884 32.2917 19.3751 32.2917C18.6617 32.2917 18.0834 31.7134 18.0834 31.0001C18.0834 30.2867 18.6617 29.7084 19.3751 29.7084C20.0884 29.7084 20.6667 30.2867 20.6667 31.0001Z" fill="#FFD147"/>
<defs>
<linearGradient id="paint0_linear_12_604" x1="-17.6136" y1="-52.6415" x2="91.9803" y2="4.60215" gradientUnits="userSpaceOnUse">
<stop stop-color="#D7EDED"/>
<stop offset="1" stop-color="#CCEBEB" stop-opacity="0"/>
</linearGradient>
</defs>
</svg>
