<svg width="62" height="62" viewBox="0 0 62 62" fill="none" xmlns="http://www.w3.org/2000/svg">
<path d="M0 31C0 13.8792 13.8792 0 31 0C48.1208 0 62 13.8792 62 31C62 48.1208 48.1208 62 31 62C13.8792 62 0 48.1208 0 31Z" fill="url(#paint0_linear_12_601)" fill-opacity="0.16"/>
<path fill-rule="evenodd" clip-rule="evenodd" d="M39.4416 34.1086C38.9372 34.613 38.9372 35.4309 39.4416 35.9353C39.9461 36.4397 40.7639 36.4397 41.2683 35.9353L44.9217 32.2819C45.4261 31.7775 45.4261 30.9597 44.9217 30.4552L41.2683 26.8018C40.7639 26.2974 39.9461 26.2974 39.4416 26.8018C38.9372 27.3063 38.9372 28.1241 39.4416 28.6285L40.89 30.0769L28.8598 30.0769L30.3082 28.6285C30.8126 28.1241 30.8126 27.3063 30.3082 26.8018C29.8037 26.2974 28.9859 26.2974 28.4815 26.8018L24.8281 30.4552C24.3237 30.9597 24.3237 31.7775 24.8281 32.2819L28.4815 35.9353C28.9859 36.4397 29.8037 36.4397 30.3082 35.9353C30.8126 35.4309 30.8126 34.613 30.3082 34.1086L28.8598 32.6602H40.89L39.4416 34.1086Z" fill="#BD9AF8"/>
<path fill-rule="evenodd" clip-rule="evenodd" d="M18.2124 24.5417C18.2124 21.0462 21.0461 18.2126 24.5416 18.2126H29.7082C33.2037 18.2126 36.0374 21.0462 36.0374 24.5417V25.7527C36.0374 26.3947 35.5169 26.9152 34.8749 26.9152C34.2329 26.9152 33.7124 26.3947 33.7124 25.7527V24.5417C33.7124 22.3303 31.9197 20.5376 29.7082 20.5376H24.5416C22.3301 20.5376 20.5374 22.3303 20.5374 24.5417V37.4584C20.5374 39.6699 22.3301 41.4626 24.5416 41.4626H29.7082C31.9197 41.4626 33.7124 39.6699 33.7124 37.4584V37.3777C33.7124 36.7357 34.2329 36.2152 34.8749 36.2152C35.5169 36.2152 36.0374 36.7357 36.0374 37.3777V37.4584C36.0374 40.9539 33.2037 43.7876 29.7082 43.7876H24.5416C21.0461 43.7876 18.2124 40.9539 18.2124 37.4584V24.5417Z" fill="#BD9AF8"/>
<path d="M41.4522 17.2061C41.5862 16.6536 42.372 16.6536 42.5059 17.2061L42.8746 18.7263C42.9224 18.9236 43.0764 19.0776 43.2737 19.1254L44.7939 19.4941C45.3464 19.628 45.3464 20.4138 44.7939 20.5478L43.2737 20.9164C43.0764 20.9642 42.9224 21.1182 42.8746 21.3155L42.5059 22.8357C42.372 23.3882 41.5862 23.3882 41.4522 22.8357L41.0836 21.3155C41.0358 21.1182 40.8817 20.9642 40.6845 20.9164L39.1643 20.5478C38.6118 20.4138 38.6118 19.628 39.1643 19.4941L40.6845 19.1254C40.8817 19.0776 41.0358 18.9236 41.0836 18.7263L41.4522 17.2061Z" fill="#BD9AF8"/>
<path fill-rule="evenodd" clip-rule="evenodd" d="M41.9791 17.794L41.7158 18.8796C41.6106 19.3136 41.2718 19.6524 40.8378 19.7577L39.7521 20.0209L40.8378 20.2842C41.2718 20.3894 41.6106 20.7282 41.7158 21.1622L41.9791 22.2479L42.2423 21.1622C42.3476 20.7282 42.6864 20.3894 43.1203 20.2842L44.206 20.0209L43.1203 19.7577C42.6864 19.6524 42.3476 19.3136 42.2423 18.8796L41.9791 17.794ZM42.5059 17.2061C42.372 16.6536 41.5862 16.6536 41.4522 17.2061L41.0836 18.7263C41.0358 18.9236 40.8817 19.0776 40.6845 19.1254L39.1643 19.4941C38.6118 19.628 38.6118 20.4138 39.1643 20.5478L40.6845 20.9164C40.8817 20.9642 41.0358 21.1182 41.0836 21.3155L41.4522 22.8357C41.5862 23.3882 42.372 23.3882 42.5059 22.8357L42.8746 21.3155C42.9224 21.1182 43.0764 20.9642 43.2737 20.9164L44.7939 20.5478C45.3464 20.4138 45.3464 19.628 44.7939 19.4941L43.2737 19.1254C43.0764 19.0776 42.9224 18.9236 42.8746 18.7263L42.5059 17.2061Z" fill="#BD9AF8"/>
<path d="M45.2082 40.0417C45.2082 40.7551 44.6299 41.3334 43.9166 41.3334C43.2032 41.3334 42.6249 40.7551 42.6249 40.0417C42.6249 39.3284 43.2032 38.7501 43.9166 38.7501C44.6299 38.7501 45.2082 39.3284 45.2082 40.0417Z" fill="#BD9AF8"/>
<path d="M41.3332 43.9167C41.3332 44.6301 40.7549 45.2084 40.0416 45.2084C39.3282 45.2084 38.7499 44.6301 38.7499 43.9167C38.7499 43.2034 39.3282 42.6251 40.0416 42.6251C40.7549 42.6251 41.3332 43.2034 41.3332 43.9167Z" fill="#BD9AF8"/>
<defs>
<linearGradient id="paint0_linear_12_601" x1="-17.6136" y1="-52.6415" x2="91.9803" y2="4.60215" gradientUnits="userSpaceOnUse">
<stop stop-color="#D7EDED"/>
<stop offset="1" stop-color="#CCEBEB" stop-opacity="0"/>
</linearGradient>
</defs>
</svg>
