<svg xmlns="http://www.w3.org/2000/svg" width="44" height="44" viewBox="0 0 44 44" fill="none">
  <path d="M30.25 24.0626C30.25 24.4705 30.129 24.8693 29.9024 25.2085C29.6758 25.5476 29.3537 25.812 28.9768 25.9681C28.5999 26.1242 28.1852 26.165 27.7851 26.0855C27.3851 26.0059 27.0176 25.8095 26.7291 25.521C26.4407 25.2326 26.2442 24.8651 26.1646 24.465C26.0851 24.0649 26.1259 23.6502 26.282 23.2733C26.4381 22.8964 26.7025 22.5743 27.0416 22.3477C27.3808 22.1211 27.7796 22.0001 28.1875 22.0001C28.7345 22.0001 29.2591 22.2174 29.6459 22.6042C30.0327 22.991 30.25 23.5156 30.25 24.0626ZM15.8125 22.0001C15.4046 22.0001 15.0058 22.1211 14.6666 22.3477C14.3275 22.5743 14.0631 22.8964 13.907 23.2733C13.7509 23.6502 13.7101 24.0649 13.7896 24.465C13.8692 24.8651 14.0657 25.2326 14.3541 25.521C14.6425 25.8095 15.0101 26.0059 15.4101 26.0855C15.8102 26.165 16.2249 26.1242 16.6018 25.9681C16.9787 25.812 17.3008 25.5476 17.5274 25.2085C17.754 24.8693 17.875 24.4705 17.875 24.0626C17.875 23.5156 17.6577 22.991 17.2709 22.6042C16.8841 22.2174 16.3595 22.0001 15.8125 22.0001ZM41.25 11.0001V24.7501C41.2455 28.0308 39.9402 31.1757 37.6204 33.4955C35.3007 35.8153 32.1557 37.1206 28.875 37.1251H15.125C11.8444 37.1206 8.69936 35.8153 6.37959 33.4955C4.05981 31.1757 2.75456 28.0308 2.75001 24.7501V11.0001C2.74737 9.65954 3.23443 8.36417 4.11964 7.35745C5.00485 6.35072 6.22727 5.70196 7.55715 5.53309C8.88703 5.36421 10.2328 5.68686 11.3415 6.44038C12.4503 7.19391 13.2456 8.32643 13.5781 9.6251H30.4219C30.7544 8.32643 31.5497 7.19391 32.6585 6.44038C33.7672 5.68686 35.113 5.36421 36.4429 5.53309C37.7728 5.70196 38.9952 6.35072 39.8804 7.35745C40.7656 8.36417 41.2527 9.65954 41.25 11.0001ZM34.375 23.3751C34.375 21.9164 33.7955 20.5175 32.7641 19.486C31.7326 18.4546 30.3337 17.8751 28.875 17.8751H15.125C13.6663 17.8751 12.2674 18.4546 11.2359 19.486C10.2045 20.5175 9.62501 21.9164 9.62501 23.3751V24.7501C9.62501 26.2088 10.2045 27.6077 11.2359 28.6392C12.2674 29.6706 13.6663 30.2501 15.125 30.2501H28.875C30.3337 30.2501 31.7326 29.6706 32.7641 28.6392C33.7955 27.6077 34.375 26.2088 34.375 24.7501V23.3751Z" fill="currentColor" fill-opacity="0.89"/>
  <path d="M41.1641 10.9999V11.0001V24.75C41.1596 28.0079 39.8634 31.1311 37.5597 33.4348C35.256 35.7384 32.1328 37.0346 28.8749 37.0392H15.1251C11.8672 37.0346 8.74404 35.7384 6.44035 33.4348C4.13666 31.1311 2.84046 28.0079 2.83595 24.75L2.83595 11.0001L2.83595 10.9999C2.83335 9.68032 3.3128 8.40519 4.18418 7.4142C5.05556 6.4232 6.25888 5.78457 7.56798 5.61834C8.87708 5.4521 10.2018 5.76971 11.2932 6.51146C12.3846 7.25321 13.1676 8.36804 13.4949 9.64641L13.5114 9.71103H13.5781H30.4219H30.4886L30.5051 9.64641C30.8324 8.36804 31.6154 7.25321 32.7068 6.51146C33.7982 5.76971 35.1229 5.4521 36.432 5.61834C37.7411 5.78457 38.9445 6.4232 39.8158 7.4142C40.6872 8.40519 41.1667 9.68032 41.1641 10.9999ZM30.1641 24.0626C30.1641 24.4535 30.0482 24.8357 29.831 25.1607C29.6138 25.4858 29.3051 25.7391 28.9439 25.8887C28.5827 26.0383 28.1853 26.0774 27.8019 26.0012C27.4185 25.9249 27.0663 25.7367 26.7899 25.4602C26.5134 25.1838 26.3252 24.8316 26.2489 24.4482C26.1727 24.0648 26.2118 23.6674 26.3614 23.3062C26.511 22.945 26.7643 22.6363 27.0894 22.4191C27.4144 22.202 27.7966 22.086 28.1875 22.086C28.7117 22.086 29.2145 22.2943 29.5852 22.665C29.9558 23.0356 30.1641 23.5384 30.1641 24.0626ZM14.7144 22.4191C15.0394 22.202 15.4216 22.086 15.8125 22.086C16.3367 22.086 16.8395 22.2943 17.2102 22.665C17.5808 23.0356 17.7891 23.5384 17.7891 24.0626C17.7891 24.4535 17.6732 24.8357 17.456 25.1607C17.2388 25.4858 16.9301 25.7391 16.5689 25.8887C16.2077 26.0383 15.8103 26.0774 15.4269 26.0012C15.0435 25.9249 14.6913 25.7367 14.4149 25.4602C14.1384 25.1838 13.9502 24.8316 13.8739 24.4482C13.7977 24.0648 13.8368 23.6674 13.9864 23.3062C14.136 22.945 14.3893 22.6363 14.7144 22.4191ZM34.461 23.3751C34.461 21.8936 33.8724 20.4728 32.8249 19.4252C31.7773 18.3777 30.3565 17.7892 28.875 17.7892H15.125C13.6435 17.7892 12.2227 18.3777 11.1752 19.4252C10.1276 20.4728 9.53907 21.8936 9.53907 23.3751V24.7501C9.53907 26.2316 10.1276 27.6524 11.1752 28.6999C12.2227 29.7475 13.6435 30.336 15.125 30.336H28.875C30.3565 30.336 31.7773 29.7475 32.8249 28.6999C33.8724 27.6524 34.461 26.2316 34.461 24.7501V23.3751Z" stroke="currentColor" stroke-opacity="0.89" stroke-width="0.171875"/>
</svg>