<svg xmlns="http://www.w3.org/2000/svg" width="81" height="80" viewBox="0 0 81 80" fill="none">
  <path d="M40.5 7.5C32.5486 7.51651 24.9276 10.6825 19.305 16.305C13.6825 21.9276 10.5165 29.5486 10.5 37.5V67.5C10.5099 67.9702 10.6507 68.4283 10.9064 68.823C11.1621 69.2176 11.5228 69.5333 11.9478 69.7345C12.3729 69.9356 12.8456 70.0144 13.313 69.962C13.7803 69.9095 14.2238 69.7279 14.5938 69.4375L22.1562 63.2188L29.75 69.4375C30.1959 69.8004 30.7532 69.9986 31.3281 69.9986C31.903 69.9986 32.4604 69.8004 32.9062 69.4375L40.5 63.2188L48.0938 69.4375C48.5396 69.8004 49.097 69.9986 49.6719 69.9986C50.2468 69.9986 50.8041 69.8004 51.25 69.4375L58.8438 63.2188L66.4062 69.4375C66.7722 69.7393 67.2173 69.9292 67.6884 69.9846C68.1595 70.04 68.6365 69.9586 69.0625 69.75C69.4926 69.5523 69.8568 69.235 70.1117 68.8361C70.3665 68.4372 70.5013 67.9734 70.5 67.5V37.5C70.4835 29.5486 67.3175 21.9276 61.695 16.305C56.0724 10.6825 48.4514 7.51651 40.5 7.5ZM31.75 40C31.0083 40 30.2833 39.7801 29.6666 39.368C29.0499 38.956 28.5693 38.3703 28.2855 37.6851C28.0016 36.9998 27.9274 36.2458 28.0721 35.5184C28.2168 34.791 28.5739 34.1228 29.0983 33.5984C29.6228 33.0739 30.291 32.7168 31.0184 32.5721C31.7458 32.4274 32.4998 32.5016 33.1851 32.7854C33.8703 33.0693 34.456 33.5499 34.868 34.1666C35.2801 34.7833 35.5 35.5083 35.5 36.25C35.5 37.2446 35.1049 38.1984 34.4016 38.9016C33.6984 39.6049 32.7446 40 31.75 40ZM49.25 40C48.5083 40 47.7833 39.7801 47.1666 39.368C46.5499 38.956 46.0693 38.3703 45.7855 37.6851C45.5016 36.9998 45.4274 36.2458 45.5721 35.5184C45.7168 34.791 46.0739 34.1228 46.5984 33.5984C47.1228 33.0739 47.791 32.7168 48.5184 32.5721C49.2458 32.4274 49.9998 32.5016 50.6851 32.7854C51.3703 33.0693 51.956 33.5499 52.368 34.1666C52.7801 34.7833 53 35.5083 53 36.25C53 37.2446 52.6049 38.1984 51.9016 38.9016C51.1984 39.6049 50.2446 40 49.25 40Z" fill="#1D1D1F" fill-opacity="0.89"/>
</svg>