<svg xmlns="http://www.w3.org/2000/svg" width="21" height="25" viewBox="0 0 21 25" fill="none">
  <path d="M3.97035 4.66145L10.2857 0.985352L16.6011 4.66145L14.2792 6.0195L10.2857 3.70145L6.29218 6.0195L3.97035 4.66145ZM16.6011 9.29755L14.2792 7.9395L10.2857 10.2575L6.29218 7.9395L3.97035 9.29755V12.0136L7.96388 14.3317V18.9678L10.2857 20.3258L12.6075 18.9678V14.3317L16.6011 12.0136V9.29755ZM16.6011 16.6497V13.9336L14.2792 15.2917V18.0078L16.6011 16.6497ZM18.2496 17.6097L14.2561 19.9278V22.6439L20.5714 18.9678V11.6156L18.2496 12.9736V17.6097ZM15.9278 6.9795L18.2496 8.33755V11.0536L20.5714 9.69559V6.9795L18.2496 5.62145L15.9278 6.9795ZM7.96388 20.9112V23.6273L10.2857 24.9854L12.6075 23.6273V20.9112L10.2857 22.2693L7.96388 20.9112ZM3.97035 16.6497L6.29218 18.0078V15.2917L3.97035 13.9336V16.6497ZM7.96388 6.9795L10.2857 8.33755L12.6075 6.9795L10.2857 5.62145L7.96388 6.9795ZM2.32183 8.33755L4.64366 6.9795L2.32183 5.62145L0 6.9795V9.69559L2.32183 11.0536V8.33755ZM2.32183 12.9736L0 11.6156V18.9678L6.31536 22.6439V19.9278L2.32183 17.6097V12.9736Z" fill="#161C21"/>
</svg>