<svg xmlns="http://www.w3.org/2000/svg" width="81" height="80" viewBox="0 0 81 80" fill="none">
  <path d="M27.9629 65.1562H28.1191V65V43.75V43.5938H27.9629H26.7131C21.1212 43.5855 15.7606 41.3605 11.8065 37.4064C7.8524 33.4523 5.62738 28.0918 5.61914 22.4999C5.61917 20.2207 6.52458 18.0349 8.13619 16.4233C9.74783 14.8117 11.9337 13.9062 14.2129 13.9062C16.4921 13.9062 18.6779 14.8117 20.2896 16.4233C21.9012 18.0349 22.8066 20.2208 22.8066 22.5C22.8066 23.536 23.2182 24.5296 23.9508 25.2621C24.6833 25.9947 25.6769 26.4062 26.7129 26.4062H27.9629H28.1191V26.25V17.5C28.1191 14.2262 29.4196 11.0866 31.7345 8.77165C34.0494 6.45675 37.1891 5.15625 40.4629 5.15625C43.7367 5.15625 46.8763 6.45675 49.1912 8.77165C51.5061 11.0866 52.8066 14.2262 52.8066 17.5V38.75V38.9062H52.9629H54.2129C55.2489 38.9062 56.2425 38.4947 56.975 37.7621C57.7076 37.0296 58.1191 36.036 58.1191 35C58.1191 32.7208 59.0246 30.5349 60.6362 28.9233C62.2478 27.3117 64.4337 26.4062 66.7129 26.4062C68.9921 26.4062 71.1779 27.3117 72.7896 28.9233C74.4012 30.5349 75.3066 32.7206 75.3066 34.9998C75.2984 40.5917 73.0734 45.9523 69.1193 49.9064C65.1652 53.8605 59.8046 56.0855 54.2127 56.0938H52.9629H52.8066V56.25V65V65.1562H52.9629H67.9629C68.5845 65.1562 69.1806 65.4032 69.6202 65.8427C70.0597 66.2823 70.3066 66.8784 70.3066 67.5C70.3066 68.1216 70.0597 68.7177 69.6202 69.1573C69.1806 69.5968 68.5845 69.8438 67.9629 69.8438H12.9629C12.3413 69.8438 11.7451 69.5968 11.3056 69.1573C10.8661 68.7177 10.6191 68.1216 10.6191 67.5C10.6191 66.8784 10.8661 66.2823 11.3056 65.8427C11.7451 65.4032 12.3413 65.1562 12.9629 65.1562H27.9629Z" fill="#86868B" stroke="#86868B" stroke-width="0.3125"/>
</svg>