<svg xmlns="http://www.w3.org/2000/svg" width="44" height="44" viewBox="0 0 44 44" fill="none">
  <path d="M22 2.75C17.6267 2.75908 13.4352 4.50039 10.3428 7.59277C7.25039 10.6852 5.50908 14.8767 5.5 19.25C5.5 23.375 7.66562 28.7203 11.275 33.5156C14.8844 38.3109 18.9234 41.25 22 41.25C25.0766 41.25 29.0812 38.3625 32.725 33.5156C36.3687 28.6688 38.5 23.375 38.5 19.25C38.4909 14.8767 36.7496 10.6852 33.6572 7.59277C30.5648 4.50039 26.3733 2.75908 22 2.75ZM11 19.9375V19.25C11 18.703 11.2173 18.1784 11.6041 17.7916C11.9909 17.4048 12.5155 17.1875 13.0625 17.1875C14.7035 17.1875 16.2773 17.8394 17.4377 18.9998C18.5981 20.1602 19.25 21.734 19.25 23.375V24.0625C19.25 24.6095 19.0327 25.1341 18.6459 25.5209C18.2591 25.9077 17.7345 26.125 17.1875 26.125C15.5465 26.125 13.9727 25.4731 12.8123 24.3127C11.6519 23.1523 11 21.5785 11 19.9375ZM24.75 34.375H19.25C18.8853 34.375 18.5356 34.2301 18.2777 33.9723C18.0199 33.7144 17.875 33.3647 17.875 33C17.875 32.6353 18.0199 32.2856 18.2777 32.0277C18.5356 31.7699 18.8853 31.625 19.25 31.625H24.75C25.1147 31.625 25.4644 31.7699 25.7223 32.0277C25.9801 32.2856 26.125 32.6353 26.125 33C26.125 33.3647 25.9801 33.7144 25.7223 33.9723C25.4644 34.2301 25.1147 34.375 24.75 34.375ZM33 19.9375C33 20.7501 32.84 21.5547 32.529 22.3054C32.2181 23.0561 31.7623 23.7382 31.1877 24.3127C30.6132 24.8873 29.9311 25.3431 29.1804 25.654C28.4297 25.965 27.6251 26.125 26.8125 26.125C26.2655 26.125 25.7409 25.9077 25.3541 25.5209C24.9673 25.1341 24.75 24.6095 24.75 24.0625V23.375C24.75 21.734 25.4019 20.1602 26.5623 18.9998C27.7227 17.8394 29.2965 17.1875 30.9375 17.1875C31.4845 17.1875 32.0091 17.4048 32.3959 17.7916C32.7827 18.1784 33 18.703 33 19.25V19.9375Z" fill="currentColor" fill-opacity="0.89"/>
</svg>
