<svg xmlns="http://www.w3.org/2000/svg" width="44" height="44" viewBox="0 0 44 44" fill="none">
  <path d="M38.8439 9.67674C38.6482 8.54927 38.1089 7.50982 37.2997 6.70065C36.4905 5.89149 35.4511 5.35214 34.3236 5.15643C28.9267 4.24549 18.7861 3.83299 11.3096 11.3096C3.83299 18.7861 4.24549 28.9267 5.15643 34.3236C5.35214 35.4511 5.89149 36.4905 6.70065 37.2997C7.50982 38.1089 8.54927 38.6482 9.67674 38.8439C11.5684 39.1589 13.4825 39.3198 15.4002 39.3252C20.7455 39.3252 27.3971 38.0017 32.6908 32.6908C40.1674 25.2142 39.7549 15.0736 38.8439 9.67674ZM10.1408 36.1283C9.57174 36.0376 9.0459 35.7694 8.63843 35.3619C8.23097 34.9545 7.96273 34.4286 7.87206 33.8596C7.56669 32.123 7.41143 30.3634 7.40799 28.6002L15.4002 36.5924C13.637 36.5883 11.8774 36.433 10.1408 36.1283ZM28.4799 17.4799L25.8846 20.058L27.4314 21.6049C27.6886 21.8626 27.833 22.2119 27.833 22.576C27.833 22.9401 27.6886 23.2893 27.4314 23.5471C27.1675 23.7993 26.8169 23.9408 26.4517 23.9424C26.0915 23.9418 25.7459 23.7998 25.4892 23.5471L23.9424 22.0002L22.0002 23.9424L23.5471 25.4892C23.8042 25.747 23.9486 26.0962 23.9486 26.4603C23.9486 26.8244 23.8042 27.1737 23.5471 27.4314C23.419 27.5602 23.2662 27.6617 23.0978 27.7297C22.9294 27.7976 22.7489 27.8306 22.5674 27.8267C22.3884 27.8303 22.2106 27.7971 22.0451 27.7291C21.8795 27.6611 21.7297 27.5598 21.6049 27.4314L20.058 25.8846L17.4799 28.4799C17.2171 28.734 16.8658 28.8761 16.5002 28.8761C16.1346 28.8761 15.7833 28.734 15.5205 28.4799C15.2623 28.2192 15.1174 27.8671 15.1174 27.5002C15.1174 27.1333 15.2623 26.7812 15.5205 26.5205L18.1158 23.9424L16.5689 22.3955C16.3319 22.1339 16.2046 21.7913 16.2133 21.4384C16.222 21.0856 16.366 20.7496 16.6156 20.5C16.8652 20.2504 17.2012 20.1064 17.554 20.0977C17.9069 20.089 18.2496 20.2163 18.5111 20.4533L20.058 22.0002L22.0002 20.058L20.4533 18.5111C20.2163 18.2496 20.089 17.9069 20.0977 17.554C20.1064 17.2012 20.2504 16.8652 20.5 16.6156C20.7496 16.366 21.0856 16.222 21.4384 16.2133C21.7913 16.2046 22.1339 16.3319 22.3955 16.5689L23.9424 18.1158L26.5205 15.5205C26.7876 15.3012 27.1268 15.1892 27.472 15.2061C27.8172 15.2231 28.1438 15.3678 28.3881 15.6122C28.6325 15.8566 28.7773 16.1832 28.7942 16.5284C28.8112 16.8736 28.6991 17.2127 28.4799 17.4799ZM28.6002 7.40799C30.3633 7.41211 32.1229 7.56737 33.8596 7.87206C34.4286 7.96273 34.9545 8.23097 35.3619 8.63843C35.7694 9.0459 36.0376 9.57174 36.1283 10.1408C36.4337 11.8774 36.5889 13.637 36.5924 15.4002L28.6002 7.40799Z" fill="currentColor" fill-opacity="0.89"/>
  <path d="M7.32165 28.3923L7.46876 28.5394L15.4609 36.5316L15.6081 36.6788L15.4 36.6783C13.6321 36.6742 11.8679 36.5185 10.1267 36.2131M7.32165 28.3923L10.1408 36.1283M7.32165 28.3923L7.32206 28.6003C7.3255 30.3682 7.48116 32.1326 7.7873 33.8738M7.32165 28.3923L7.87206 33.8596M10.1267 36.2131C10.1264 36.213 10.1262 36.213 10.126 36.2129L10.1408 36.1283M10.1267 36.2131C10.1269 36.2131 10.1271 36.2131 10.1273 36.2132L10.1408 36.1283M10.1267 36.2131C9.53994 36.1195 8.9978 35.8428 8.57767 35.4227C8.15755 35.0026 7.88093 34.4605 7.7873 33.8738M10.1408 36.1283C9.57174 36.0376 9.0459 35.7694 8.63843 35.3619C8.23097 34.9545 7.96273 34.4286 7.87206 33.8596M7.7873 33.8738C7.78734 33.874 7.78738 33.8742 7.78742 33.8744L7.87206 33.8596M7.7873 33.8738C7.78726 33.8735 7.78723 33.8733 7.78719 33.8731L7.87206 33.8596M32.63 32.63L32.6299 32.6301C27.3582 37.919 20.7326 39.2392 15.4004 39.2392C13.4875 39.2339 11.5781 39.0733 9.69118 38.7592C8.58126 38.5665 7.558 38.0355 6.76142 37.2389C5.96482 36.4423 5.43384 35.419 5.24113 34.3091C4.33151 28.9198 3.92437 18.8163 11.3703 11.3703C18.8163 3.92437 28.9198 4.33151 34.3091 5.24114C35.4191 5.43384 36.4423 5.96482 37.2389 6.76142C38.0355 7.55797 38.5664 8.58118 38.7592 9.69105C39.6688 15.0803 40.0761 25.184 32.63 32.63ZM28.5404 17.5408L28.5407 17.5412L28.5463 17.5344C28.7791 17.2507 28.8981 16.8906 28.8801 16.5241C28.8621 16.1576 28.7084 15.8109 28.4489 15.5515C28.1894 15.292 27.8427 15.1383 27.4762 15.1203C27.1097 15.1023 26.7496 15.2213 26.466 15.4541L26.4657 15.4537L26.4595 15.4599L23.9422 17.9941L22.4563 16.5082L22.4563 16.5081L22.4532 16.5052C22.1753 16.2534 21.8112 16.1181 21.4363 16.1274C21.0614 16.1366 20.7044 16.2897 20.4392 16.5548C20.174 16.82 20.021 17.177 20.0118 17.5519C20.0025 17.9268 20.1378 18.2909 20.3896 18.5688L20.3895 18.5689L20.3925 18.5719L21.8786 20.058L20.058 21.8786L18.5719 20.3925L18.572 20.3925L18.5688 20.3896C18.2909 20.1378 17.9268 20.0025 17.5519 20.0118C17.177 20.021 16.82 20.174 16.5548 20.4392C16.2897 20.7044 16.1366 21.0614 16.1274 21.4363C16.1181 21.8112 16.2534 22.1753 16.5052 22.4532L16.5052 22.4533L16.5082 22.4563L17.9941 23.9422L15.4599 26.4595L15.4594 26.46C15.1853 26.7368 15.0315 27.1106 15.0315 27.5002C15.0315 27.8897 15.1853 28.2636 15.4594 28.5403L15.4608 28.5416C15.7396 28.8113 16.1123 28.962 16.5002 28.962C16.8881 28.962 17.2608 28.8113 17.5396 28.5416L17.5408 28.5404L20.0582 26.0063L21.5433 27.4913C21.5434 27.4915 21.5435 27.4916 21.5437 27.4918C21.6766 27.6283 21.8361 27.7362 22.0124 27.8086C22.1883 27.8808 22.3772 27.9162 22.5673 27.9127C22.7599 27.9166 22.9513 27.8814 23.13 27.8094C23.3092 27.737 23.4718 27.6291 23.608 27.492C23.8812 27.2181 24.0345 26.8471 24.0345 26.4603C24.0345 26.0735 23.8811 25.7024 23.6079 25.4286L23.6078 25.4285L22.1217 23.9424L23.9424 22.1217L25.4285 23.6078L25.4289 23.6083C25.7016 23.8769 26.0689 24.0277 26.4516 24.0283L26.4521 24.0283C26.8392 24.0267 27.211 23.8767 27.4908 23.6092L27.4923 23.6077C27.7655 23.3339 27.9189 22.9628 27.9189 22.576C27.9189 22.1891 27.7655 21.8181 27.4923 21.5442L27.4922 21.5441L26.0063 20.0582L28.5404 17.5408ZM28.6004 7.32206L28.3922 7.32157L28.5394 7.46876L36.5316 15.4609L36.6787 15.6081L36.6783 15.4C36.6749 13.6321 36.5192 11.8678 36.2131 10.1266C36.1194 9.5399 35.8428 8.99778 35.4227 8.57767C35.0026 8.15754 34.4604 7.88092 33.8737 7.78729C32.1325 7.48183 30.3682 7.32618 28.6004 7.32206Z" stroke="currentColor" stroke-opacity="0.89" stroke-width="0.171875"/>
</svg>