<svg width="11" height="7" viewBox="0 0 11 7" fill="none" xmlns="http://www.w3.org/2000/svg">
<path d="M10.4488 0.280113C10.4512 0.27925 10.4539 0.278809 10.4565 0.278809C10.4753 0.278809 10.4866 0.299585 10.4764 0.315344C9.11061 2.42994 7.75341 4.54454 6.39743 6.65914C6.15297 7.04035 5.56669 6.92651 5.4806 6.4819C5.35296 5.8226 5.22258 5.1633 5.09217 4.504C5.08909 4.48843 5.08912 4.46898 5.08201 4.45479C5.06508 4.42097 5.02037 4.42124 4.98255 4.42124C3.80097 4.42124 2.6228 4.42124 1.44429 4.42124C0.881289 4.42124 0.748914 3.63835 1.28095 3.45423C2.52608 3.02335 3.7712 2.5947 5.01632 2.16605C6.83109 1.54927 8.634 0.908775 10.4488 0.280113Z" fill="currentColor"/>
</svg>
