<svg xmlns="http://www.w3.org/2000/svg" width="121" height="121" viewBox="0 0 121 121" fill="none">
  <path d="M112.624 46.98C110.588 44.8907 108.499 42.6943 107.696 40.8193C106.892 38.9443 106.946 36.1586 106.892 33.3193C106.838 28.1228 106.731 22.1764 102.606 18.0514C98.4813 13.9264 92.5349 13.8193 87.3384 13.7657C84.4992 13.7121 81.6063 13.6586 79.8384 12.9621C78.0706 12.2657 75.767 10.0693 73.6777 8.03355C69.9813 4.49784 65.7492 0.47998 60.1777 0.47998C54.6063 0.47998 50.3742 4.49784 46.6777 8.03355C44.5884 10.0693 42.392 12.1586 40.517 12.9621C38.642 13.7657 35.8563 13.7121 33.017 13.7657C27.8206 13.8193 21.8742 13.9264 17.7492 18.0514C13.6242 22.1764 13.517 28.1228 13.4634 33.3193C13.4099 36.1586 13.3563 39.0514 12.6599 40.8193C11.9634 42.5871 9.76702 44.8907 7.73131 46.98C4.19559 50.6764 0.177734 54.9086 0.177734 60.48C0.177734 66.0514 4.19559 70.2835 7.73131 73.98C9.76702 76.0693 11.8563 78.2657 12.6599 80.1407C13.4634 82.0157 13.4099 84.8014 13.4634 87.6407C13.517 92.8371 13.6242 98.7835 17.7492 102.909C21.8742 107.034 27.8206 107.141 33.017 107.194C35.8563 107.248 38.7492 107.301 40.517 107.998C42.2849 108.694 44.5884 110.891 46.6777 112.926C50.3742 116.462 54.6063 120.48 60.1777 120.48C65.7492 120.48 69.9813 116.462 73.6777 112.926C75.767 110.891 77.9634 108.801 79.8384 107.998C81.7134 107.194 84.4992 107.248 87.3384 107.194C92.5349 107.141 98.4813 107.034 102.606 102.909C106.731 98.7835 106.838 92.8371 106.892 87.6407C106.946 84.8014 106.999 81.9086 107.696 80.1407C108.392 78.3728 110.588 76.0693 112.624 73.98C116.16 70.2835 120.178 66.0514 120.178 60.48C120.178 54.9086 116.16 50.6764 112.624 46.98ZM86.6956 50.73L55.3027 80.73C54.4911 81.4934 53.417 81.9154 52.3027 81.9085C51.2049 81.9127 50.1484 81.4901 49.3563 80.73L33.6599 65.73C33.2245 65.3501 32.8704 64.8862 32.619 64.366C32.3675 63.8459 32.2238 63.2802 32.1965 62.7031C32.1691 62.126 32.2588 61.5493 32.4601 61.0077C32.6613 60.4662 32.97 59.9709 33.3676 59.5516C33.7651 59.1324 34.2433 58.7978 34.7735 58.5681C35.3036 58.3384 35.8747 58.2183 36.4525 58.2149C37.0302 58.2116 37.6027 58.3251 38.1355 58.5486C38.6683 58.7721 39.1503 59.1011 39.5527 59.5157L52.3027 71.6764L80.8027 44.5157C81.636 43.7887 82.7181 43.4119 83.8228 43.4642C84.9274 43.5164 85.9691 43.9937 86.73 44.7961C87.491 45.5986 87.9123 46.6641 87.9059 47.77C87.8995 48.8758 87.4658 49.9364 86.6956 50.73Z" fill="currentColor"/>
</svg>  