<svg xmlns="http://www.w3.org/2000/svg" width="20" height="20" viewBox="0 0 20 20" fill="none">
  <path d="M14.0457 10.9081L14.1257 10.8281H14.0126L3.875 10.8281C3.41764 10.8281 3.04688 10.4574 3.04688 10C3.04688 9.54264 3.41764 9.17187 3.875 9.17187H14.0126H14.1257L14.0457 9.09185L10.2894 5.33557C9.96602 5.01217 9.96602 4.48783 10.2894 4.16443C10.6128 3.84102 11.1372 3.84102 11.4606 4.16443L16.7106 9.41443C17.034 9.73783 17.034 10.2622 16.7106 10.5856L11.4606 15.8356C11.1372 16.159 10.6128 16.159 10.2894 15.8356C9.96602 15.5122 9.96602 14.9878 10.2894 14.6644L14.0457 10.9081Z" fill="#1D1D1F" stroke="#1D1D1F" stroke-width="0.09375"/>
</svg>