<svg xmlns="http://www.w3.org/2000/svg" width="44" height="44" viewBox="0 0 44 44" fill="none">
  <path d="M42.5384 31.2295H42.5212L39.7197 16.7061C39.7197 16.6889 39.7197 16.6889 39.7025 16.6717C39.2718 14.2955 38.0209 12.1457 36.1677 10.5973C34.3146 9.04879 31.9768 8.19978 29.5619 8.19824L14.4369 8.2498C12.0106 8.24607 9.66105 9.09933 7.8026 10.659C5.94415 12.2188 4.69625 14.3847 4.27905 16.7748V16.8092L1.47749 31.2123C1.33415 32.0127 1.35042 32.8335 1.52535 33.6275C1.70029 34.4216 2.03044 35.1732 2.49682 35.8393C2.96321 36.5053 3.55664 37.0726 4.243 37.5086C4.92936 37.9445 5.69511 38.2405 6.49624 38.3795C6.84722 38.4487 7.20414 38.4832 7.56187 38.4826C9.20295 38.4792 10.777 37.831 11.9447 36.6779L12.0134 36.592L19.0087 28.8576L25.0072 28.8232L31.9853 36.6092L32.0712 36.6951C33.2305 37.8504 34.8003 38.4993 36.4369 38.4998C36.8002 38.4996 37.1628 38.465 37.5197 38.3967C39.1334 38.1074 40.5671 37.1912 41.5074 35.8483C42.4478 34.5054 42.8185 32.8448 42.5384 31.2295ZM17.8744 19.9373H16.4994V21.3123C16.4994 21.677 16.3545 22.0267 16.0966 22.2846C15.8388 22.5424 15.489 22.6873 15.1244 22.6873C14.7597 22.6873 14.41 22.5424 14.1521 22.2846C13.8942 22.0267 13.7494 21.677 13.7494 21.3123V19.9373H12.3744C12.0097 19.9373 11.66 19.7924 11.4021 19.5346C11.1442 19.2767 10.9994 18.927 10.9994 18.5623C10.9994 18.1976 11.1442 17.8479 11.4021 17.59C11.66 17.3322 12.0097 17.1873 12.3744 17.1873H13.7494V15.8123C13.7494 15.4476 13.8942 15.0979 14.1521 14.84C14.41 14.5822 14.7597 14.4373 15.1244 14.4373C15.489 14.4373 15.8388 14.5822 16.0966 14.84C16.3545 15.0979 16.4994 15.4476 16.4994 15.8123V17.1873H17.8744C18.239 17.1873 18.5888 17.3322 18.8466 17.59C19.1045 17.8479 19.2494 18.1976 19.2494 18.5623C19.2494 18.927 19.1045 19.2767 18.8466 19.5346C18.5888 19.7924 18.239 19.9373 17.8744 19.9373ZM24.7494 18.5623C24.7494 18.1976 24.8942 17.8479 25.1521 17.59C25.41 17.3322 25.7597 17.1873 26.1244 17.1873H31.6244C31.989 17.1873 32.3388 17.3322 32.5966 17.59C32.8545 17.8479 32.9994 18.1976 32.9994 18.5623C32.9994 18.927 32.8545 19.2767 32.5966 19.5346C32.3388 19.7924 31.989 19.9373 31.6244 19.9373H26.1244C25.7597 19.9373 25.41 19.7924 25.1521 19.5346C24.8942 19.2767 24.7494 18.927 24.7494 18.5623ZM37.0384 35.6982C36.4994 35.7928 35.9456 35.758 35.4227 35.5967C34.8997 35.4353 34.4226 35.152 34.0306 34.7701L28.6853 28.8404H29.5619C31.316 28.8421 33.0416 28.3963 34.5755 27.5452C36.1093 26.694 37.4007 25.4657 38.3275 23.9764L39.8228 31.7451C39.9728 32.6379 39.7645 33.5538 39.2431 34.294C38.7218 35.0341 37.9296 35.5387 37.0384 35.6982Z" fill="currentColor" fill-opacity="0.89"/>
  <path d="M42.4369 31.2458L42.4503 31.3154H42.4657C42.7189 32.8859 42.3506 34.4944 41.437 35.799C40.5097 37.1233 39.0959 38.0268 37.5045 38.3121L37.5035 38.3123C37.1519 38.3796 36.7948 38.4136 36.4368 38.4139C34.823 38.4133 33.2751 37.7734 32.1319 36.6342L32.0477 36.5501L25.0712 28.7659L25.0454 28.7371L25.0067 28.7373L19.0082 28.7717L18.9704 28.7719L18.945 28.8L11.9497 36.5343L11.9496 36.5342L11.9463 36.5383L11.8807 36.6203C10.7294 37.7554 9.17856 38.3933 7.56168 38.3967C7.2096 38.3972 6.8583 38.3633 6.51286 38.2952L6.51093 38.2948C5.72096 38.1577 4.96588 37.8659 4.28908 37.436C3.61228 37.0061 3.02711 36.4468 2.56722 35.79C2.10733 35.1332 1.78177 34.392 1.60928 33.609C1.43683 32.8263 1.42075 32.0171 1.56197 31.2281C1.56201 31.2279 1.56204 31.2277 1.56208 31.2275L4.36341 16.8256L4.36499 16.8175V16.8092V16.7823C4.77997 14.415 6.0168 12.27 7.85784 10.7249C9.70079 9.17817 12.0308 8.33204 14.4367 8.33574L14.4372 8.33574L29.5618 8.28418C31.9566 8.2857 34.2749 9.12764 36.1126 10.6632C37.9503 12.1988 39.1909 14.3306 39.6179 16.687L39.6227 16.7134L39.6362 16.7269L42.4369 31.2458ZM37.0533 35.7829L37.0536 35.7828C37.967 35.6193 38.7791 35.1021 39.3134 34.3435C39.8478 33.5848 40.0613 32.646 39.9076 31.7309L39.9072 31.7289L38.4119 23.9601L38.3704 23.7447L38.2545 23.931C37.3355 25.4079 36.0548 26.626 34.5338 27.47C33.0127 28.3141 31.3015 28.7562 29.5619 28.7545H29.5619H28.6853H28.4921L28.6215 28.898L33.9668 34.8277L33.9667 34.8278L33.9706 34.8317C34.3724 35.2231 34.8614 35.5134 35.3973 35.6788C35.9333 35.8441 36.5008 35.8798 37.0533 35.7829ZM16.5853 21.3123V20.0232H17.8744C18.2618 20.0232 18.6334 19.8693 18.9074 19.5953C19.1814 19.3214 19.3353 18.9498 19.3353 18.5623C19.3353 18.1748 19.1814 17.8032 18.9074 17.5293C18.6334 17.2553 18.2618 17.1014 17.8744 17.1014H16.5853V15.8123C16.5853 15.4248 16.4314 15.0532 16.1574 14.7793C15.8834 14.5053 15.5118 14.3514 15.1244 14.3514C14.7369 14.3514 14.3653 14.5053 14.0913 14.7793C13.8173 15.0532 13.6634 15.4248 13.6634 15.8123V17.1014H12.3744C11.9869 17.1014 11.6153 17.2553 11.3413 17.5293C11.0673 17.8032 10.9134 18.1748 10.9134 18.5623C10.9134 18.9498 11.0673 19.3214 11.3413 19.5953C11.6153 19.8693 11.9869 20.0232 12.3744 20.0232H13.6634V21.3123C13.6634 21.6998 13.8173 22.0714 14.0913 22.3453C14.3653 22.6193 14.7369 22.7732 15.1244 22.7732C15.5118 22.7732 15.8834 22.6193 16.1574 22.3453C16.4314 22.0714 16.5853 21.6998 16.5853 21.3123ZM25.0913 17.5293C24.8173 17.8032 24.6634 18.1748 24.6634 18.5623C24.6634 18.9498 24.8173 19.3214 25.0913 19.5953C25.3653 19.8693 25.7369 20.0232 26.1244 20.0232H31.6244C32.0118 20.0232 32.3834 19.8693 32.6574 19.5953C32.9314 19.3214 33.0853 18.9498 33.0853 18.5623C33.0853 18.1748 32.9314 17.8032 32.6574 17.5293C32.3834 17.2553 32.0118 17.1014 31.6244 17.1014H26.1244C25.7369 17.1014 25.3653 17.2553 25.0913 17.5293Z" stroke="currentColor" stroke-opacity="0.89" stroke-width="0.171875"/>
</svg>