<svg xmlns="http://www.w3.org/2000/svg" width="18" height="18" viewBox="0 0 18 18" fill="none">
  <path d="M15.7509 9.56249H15.9829C16.0224 9.56316 16.0613 9.57215 16.0971 9.58887C16.1329 9.60558 16.1648 9.62965 16.1906 9.6595C16.2165 9.68935 16.2358 9.72431 16.2472 9.76211C16.2587 9.79991 16.2621 9.8397 16.2571 9.87889C16.0512 11.5499 15.2761 13.099 14.0621 14.2656C12.8481 15.4322 11.2694 16.1451 9.5915 16.2844C9.51747 15.4304 9.62168 14.5703 9.89753 13.7588C10.1734 12.9472 10.6148 12.2018 11.1939 11.5698C11.773 10.9378 12.4771 10.4331 13.2616 10.0875C14.046 9.74197 14.8937 9.56318 15.7509 9.56249ZM10.5829 10.582C11.2588 9.89937 12.0639 9.35816 12.9512 8.98996C13.8385 8.62176 14.7902 8.43395 15.7509 8.43749H15.9688C16.0089 8.43869 16.0487 8.43134 16.0856 8.41593C16.1225 8.40051 16.1558 8.37739 16.1831 8.3481C16.2103 8.31882 16.2311 8.28404 16.2438 8.2461C16.2566 8.20817 16.2611 8.16794 16.2571 8.12811C16.0611 6.50104 15.3247 4.98683 14.1658 3.82799C13.007 2.66916 11.4928 1.93275 9.86572 1.73671C9.82589 1.73269 9.78566 1.73721 9.74772 1.74999C9.70979 1.76276 9.67501 1.78348 9.64573 1.81077C9.61644 1.83806 9.59332 1.87128 9.5779 1.90823C9.56249 1.94517 9.55514 1.98498 9.55634 2.02499C9.58803 3.02233 9.41468 4.01556 9.04701 4.9432C8.67934 5.87084 8.12518 6.71314 7.41884 7.41796C6.74293 8.10061 5.93785 8.64182 5.05055 9.01001C4.16326 9.37821 3.21152 9.56602 2.25087 9.56249H2.0329C1.99289 9.56128 1.95308 9.56864 1.91614 9.58405C1.8792 9.59947 1.84597 9.62259 1.81868 9.65188C1.79139 9.68116 1.77067 9.71593 1.7579 9.75387C1.74513 9.79181 1.7406 9.83204 1.74462 9.87186C1.94066 11.4989 2.67707 13.0132 3.8359 14.172C4.99474 15.3308 6.50895 16.0672 8.13603 16.2633C8.17585 16.2673 8.21608 16.2628 8.25402 16.25C8.29195 16.2372 8.32673 16.2165 8.35601 16.1892C8.3853 16.1619 8.40842 16.1287 8.42384 16.0917C8.43925 16.0548 8.44661 16.015 8.4454 15.975C8.41371 14.9776 8.58706 13.9844 8.95473 13.0568C9.3224 12.1291 9.87656 11.2868 10.5829 10.582ZM6.62431 6.62343C7.22928 6.02075 7.70233 5.29887 8.01341 4.50361C8.3245 3.70835 8.46682 2.85709 8.43134 2.00389C8.42877 1.96561 8.4184 1.92826 8.40086 1.89413C8.38332 1.86 8.35898 1.82983 8.32934 1.80546C8.2997 1.78109 8.26539 1.76304 8.22852 1.75243C8.19165 1.74181 8.15299 1.73886 8.11493 1.74374C6.49435 1.94202 4.98674 2.67693 3.83228 3.83139C2.67781 4.98586 1.9429 6.49347 1.74462 8.11405C1.73972 8.15267 1.74289 8.19188 1.75393 8.22921C1.76497 8.26654 1.78363 8.30117 1.80875 8.33091C1.83386 8.36065 1.86488 8.38486 1.89983 8.40199C1.93479 8.41913 1.97292 8.42882 2.01181 8.43046C2.86374 8.46409 3.71341 8.32089 4.50726 8.00989C5.30111 7.69888 6.02194 7.22681 6.62431 6.62343Z" fill="white" fill-opacity="0.89"/>
</svg>