<svg xmlns="http://www.w3.org/2000/svg" width="36" height="36" viewBox="0 0 36 36" fill="none">
  <path fill-rule="evenodd" clip-rule="evenodd" d="M7.96301 0C3.56516 0 0 3.56517 0 7.96301V28.037C0 32.4348 3.56515 36 7.963 36H28.0341C32.432 36 35.9972 32.4348 35.9972 28.037V7.96301C35.9972 3.56516 32.432 0 28.0342 0H7.96301ZM27.4691 20.1996C27.7613 19.1415 27.9537 18.0581 28.0435 16.9637L28.0776 16.5485L18.2174 19.1616L23.6542 20.2238C22.7616 22.5556 20.5012 24.2114 17.8537 24.2114C14.4249 24.2114 11.6454 21.4341 11.6454 18.0081C11.6454 14.5821 14.4249 11.8048 17.8537 11.8048C20.3024 11.8048 22.4201 13.2214 23.4305 15.2792L27.0011 14.3232L29.4012 13.6996L26.2274 12.8035C24.4864 10.0128 21.3871 8.15573 17.8537 8.15573C12.408 8.15573 7.99348 12.5668 7.99348 18.0081C7.99348 23.4494 12.408 27.8605 17.8537 27.8605C22.5455 27.8605 26.4719 24.5861 27.4691 20.1996Z" fill="#131415"/>
</svg>