<svg xmlns="http://www.w3.org/2000/svg" width="15" height="12" viewBox="0 0 15 12" fill="none">
  <path d="M13.1927 5.36395C13.138 6.03047 13.0208 6.69023 12.8429 7.33458C12.2356 10.0059 9.84447 12 6.98719 12C3.67085 12 0.982422 9.31371 0.982422 6C0.982422 2.68629 3.67085 0 6.98719 0C9.13902 0 11.0265 1.13096 12.0867 2.83045L14.0195 3.37619L12.5577 3.75559L10.3834 4.33812C9.76809 3.08493 8.47847 2.22222 6.98719 2.22222C4.89912 2.22222 3.20641 3.91359 3.20641 6C3.20641 8.08641 4.89912 9.77778 6.98719 9.77778C8.59949 9.77778 9.97607 8.76936 10.5197 7.34932L7.2087 6.70247L13.2135 5.11115L13.1927 5.36395Z" fill="#1D1D1F"/>
</svg>