<svg xmlns="http://www.w3.org/2000/svg" width="119" height="17" viewBox="0 0 119 17" fill="none">
  <path fill-rule="evenodd" clip-rule="evenodd" d="M3.53911 0.428711C1.58452 0.428711 0 2.01323 0 3.96783V12.8896C0 14.8442 1.58451 16.4287 3.53911 16.4287H12.4596C14.4142 16.4287 15.9987 14.8442 15.9987 12.8896V3.96782C15.9987 2.01323 14.4142 0.428711 12.4596 0.428711H3.53911ZM12.2085 9.4063C12.3384 8.93604 12.4239 8.45455 12.4638 7.96812L12.4789 7.78362L8.09662 8.94498L10.513 9.41705C10.1163 10.4534 9.11163 11.1894 7.93497 11.1894C6.41109 11.1894 5.17574 9.95498 5.17574 8.43231C5.17574 6.90964 6.41109 5.67527 7.93497 5.67527C9.02331 5.67527 9.96448 6.30488 10.4136 7.21946L12.0005 6.79458L12.0004 6.79433L13.0672 6.51744L11.6566 6.11916C10.8829 4.87886 9.50538 4.05348 7.93497 4.05348C5.51469 4.05348 3.55266 6.01395 3.55266 8.43231C3.55266 10.8507 5.51469 12.8111 7.93497 12.8111C10.0202 12.8111 11.7653 11.3559 12.2085 9.4063Z" fill="#131415"/>
  <path d="M27.8191 14.6816C26.9808 14.6816 26.2028 14.518 25.4851 14.1907C24.7674 13.8634 24.1387 13.4127 23.599 12.8386C23.0593 12.2644 22.6373 11.5984 22.333 10.8405C22.0344 10.0826 21.8851 9.27589 21.8851 8.42039C21.8851 7.51895 22.0459 6.68929 22.3674 5.9314C22.689 5.1735 23.1282 4.51609 23.6851 3.95915C24.2421 3.39647 24.8765 2.96011 25.5885 2.65006C26.3062 2.34002 27.0583 2.18499 27.8449 2.18499C28.7291 2.18499 29.5818 2.39456 30.4028 2.8137C31.2239 3.2271 31.9416 3.84432 32.5559 4.66537L30.954 5.53523C30.5406 5.01848 30.0583 4.62805 29.5071 4.36394C28.9617 4.09982 28.4019 3.96777 27.8277 3.96777C27.087 3.96777 26.4009 4.16585 25.7693 4.56202C25.1378 4.95245 24.6296 5.48642 24.2449 6.16393C23.866 6.84144 23.6765 7.60221 23.6765 8.44623C23.6765 9.26728 23.8631 10.0137 24.2363 10.6855C24.6153 11.3572 25.1177 11.8941 25.7435 12.296C26.3751 12.6921 27.0727 12.8902 27.8363 12.8902C28.399 12.8902 28.933 12.7697 29.4382 12.5285C29.9435 12.2874 30.3856 11.9486 30.7645 11.5122C31.1492 11.0759 31.4392 10.5678 31.6344 9.98785H29.0765V8.40316H33.7358C33.7416 9.26441 33.5923 10.074 33.288 10.8319C32.9837 11.5898 32.5588 12.2587 32.0133 12.8386C31.4736 13.4127 30.8449 13.8634 30.1272 14.1907C29.4095 14.518 28.6401 14.6816 27.8191 14.6816Z" fill="#131415"/>
  <path d="M41.9665 5.84527H43.7579V14.4577H41.9579L41.889 13.2089C41.6363 13.651 41.2947 14.007 40.8641 14.2768C40.4392 14.5467 39.9311 14.6816 39.3397 14.6816C38.7081 14.6816 38.1138 14.5639 37.5569 14.3285C37 14.0874 36.5119 13.7572 36.0928 13.3381C35.6737 12.9132 35.3435 12.4223 35.1024 11.8654C34.867 11.3084 34.7493 10.7113 34.7493 10.074C34.7493 9.25292 34.9473 8.50364 35.3435 7.82613C35.7454 7.14862 36.2823 6.60891 36.954 6.207C37.6258 5.80508 38.3722 5.60413 39.1933 5.60413C39.8191 5.60413 40.3703 5.74767 40.8469 6.03475C41.3292 6.31609 41.7282 6.67781 42.044 7.11991L41.9665 5.84527ZM39.2966 12.9505C39.8019 12.9505 40.244 12.8271 40.6229 12.5802C41.0019 12.3276 41.2947 11.9888 41.5014 11.5639C41.7138 11.139 41.8201 10.6682 41.8201 10.1515C41.8201 9.629 41.7138 9.15531 41.5014 8.73043C41.289 8.30556 40.9933 7.96967 40.6143 7.72278C40.2354 7.47015 39.7961 7.34384 39.2966 7.34384C38.7914 7.34384 38.3349 7.47015 37.9272 7.72278C37.5196 7.97541 37.1923 8.31417 36.9454 8.73905C36.7043 9.16393 36.5837 9.63474 36.5837 10.1515C36.5837 10.674 36.7072 11.1477 36.954 11.5725C37.2067 11.9974 37.5368 12.3333 37.9445 12.5802C38.3579 12.8271 38.8086 12.9505 39.2966 12.9505Z" fill="#131415"/>
  <path d="M45.4764 14.4577V5.84527H47.2678V6.75819C47.5664 6.40221 47.931 6.12087 48.3616 5.91417C48.798 5.70748 49.2688 5.60413 49.774 5.60413C50.3884 5.60413 50.9539 5.75341 51.4707 6.05197C51.9874 6.34479 52.398 6.73522 52.7023 7.22326C53.0008 6.73522 53.4056 6.34479 53.9166 6.05197C54.4276 5.75341 54.9932 5.60413 55.6133 5.60413C56.2448 5.60413 56.8219 5.75915 57.3444 6.0692C57.8668 6.37924 58.2831 6.79551 58.5932 7.318C58.9032 7.84048 59.0582 8.41752 59.0582 9.04909V14.4577H57.2668V9.51417C57.2668 9.13522 57.175 8.78785 56.9913 8.47206C56.8075 8.15053 56.5606 7.89503 56.2506 7.70556C55.9405 7.51034 55.596 7.41273 55.2171 7.41273C54.6487 7.41273 54.1635 7.61369 53.7616 8.0156C53.3654 8.41752 53.1673 8.91704 53.1673 9.51417V14.4577H51.3759V9.51417C51.3759 8.91704 51.175 8.41752 50.7731 8.0156C50.3712 7.61369 49.886 7.41273 49.3176 7.41273C48.9444 7.41273 48.5999 7.51034 48.2841 7.70556C47.974 7.89503 47.7272 8.15053 47.5434 8.47206C47.3597 8.78785 47.2678 9.13522 47.2678 9.51417V14.4577H45.4764Z" fill="#131415"/>
  <path d="M64.4049 14.6816C63.6126 14.6816 62.8891 14.4778 62.2346 14.0701C61.5858 13.6625 61.0662 13.117 60.6757 12.4338C60.2911 11.7448 60.0987 10.984 60.0987 10.1515C60.0987 9.31321 60.2911 8.54957 60.6757 7.86058C61.0662 7.17159 61.5858 6.62326 62.2346 6.21561C62.8891 5.80795 63.6126 5.60413 64.4049 5.60413C65.0652 5.60413 65.671 5.74192 66.2222 6.01752C66.7733 6.28738 67.2442 6.66345 67.6346 7.14575C68.025 7.6223 68.3121 8.1735 68.4958 8.79933C68.6796 9.41943 68.7341 10.0797 68.6595 10.7802H62.0193C62.1284 11.3773 62.3954 11.8768 62.8202 12.2788C63.2509 12.6807 63.7791 12.8845 64.4049 12.8902C64.8413 12.8902 65.2375 12.7811 65.5934 12.563C65.9552 12.3448 66.2509 12.0433 66.4805 11.6587L68.2977 12.0807C67.9532 12.8443 67.4336 13.4701 66.7389 13.9582C66.0442 14.4405 65.2662 14.6816 64.4049 14.6816ZM61.959 9.41082H66.8509C66.7934 9.00316 66.647 8.62996 66.4116 8.2912C66.182 7.95245 65.892 7.68546 65.5418 7.49025C65.1973 7.28929 64.8183 7.18881 64.4049 7.18881C63.7848 7.18881 63.248 7.40412 62.7944 7.83474C62.3408 8.25962 62.0624 8.78498 61.959 9.41082Z" fill="#131415"/>
  <path d="M70.0858 14.4577V5.84527H71.8772V6.75819C72.1757 6.40221 72.5432 6.12087 72.9795 5.91417C73.4159 5.70748 73.8867 5.60413 74.392 5.60413C74.7135 5.60413 75.0322 5.64719 75.348 5.73331L74.6331 7.54192C74.4092 7.4558 74.1853 7.41273 73.9614 7.41273C73.5824 7.41273 73.235 7.50747 72.9193 7.69694C72.6035 7.88068 72.3508 8.13044 72.1614 8.44623C71.9719 8.76201 71.8772 9.11225 71.8772 9.49694V14.4577H70.0858Z" fill="#131415"/>
  <path d="M76.3432 14.4577V2.4003H80.6236C81.2437 2.4003 81.8035 2.52949 82.303 2.78786C82.8083 3.04049 83.2073 3.40222 83.5001 3.87303C83.7987 4.34384 83.948 4.90939 83.948 5.56968C83.948 6.04623 83.8332 6.50556 83.6035 6.94766C83.3796 7.38977 83.0667 7.68546 82.6647 7.83474C83.1585 7.96106 83.5403 8.20795 83.8102 8.57541C84.0858 8.94287 84.2781 9.35627 84.3872 9.8156C84.5021 10.2749 84.5595 10.7056 84.5595 11.1075C84.5595 11.7563 84.4044 12.3333 84.0944 12.8386C83.7844 13.3438 83.3681 13.74 82.8456 14.0271C82.3289 14.3142 81.7576 14.4577 81.1317 14.4577H76.3432ZM78.1346 7.17159H80.4341C80.9049 7.17159 81.3097 7.02805 81.6485 6.74097C81.9872 6.45388 82.1566 6.06058 82.1566 5.56106C82.1566 5.02709 81.9872 4.62805 81.6485 4.36394C81.3097 4.09408 80.9049 3.95915 80.4341 3.95915H78.1346V7.17159ZM78.1346 12.9075H80.9595C81.5107 12.9075 81.9786 12.7065 82.3633 12.3046C82.7537 11.8969 82.949 11.3859 82.949 10.7716C82.949 10.4156 82.86 10.0797 82.682 9.76393C82.504 9.44814 82.2628 9.19263 81.9585 8.99742C81.66 8.79646 81.327 8.69598 80.9595 8.69598H78.1346V12.9075Z" fill="#131415"/>
  <path d="M89.6535 14.6816C88.8611 14.6816 88.1377 14.4778 87.4831 14.0701C86.8343 13.6625 86.3147 13.117 85.9243 12.4338C85.5396 11.7448 85.3473 10.984 85.3473 10.1515C85.3473 9.31321 85.5396 8.54957 85.9243 7.86058C86.3147 7.17159 86.8343 6.62326 87.4831 6.21561C88.1377 5.80795 88.8611 5.60413 89.6535 5.60413C90.4458 5.60413 91.1664 5.80795 91.8152 6.21561C92.4697 6.62326 92.9893 7.17159 93.374 7.86058C93.7645 8.54957 93.9597 9.31321 93.9597 10.1515C93.9597 10.984 93.7645 11.7448 93.374 12.4338C92.9893 13.117 92.4697 13.6625 91.8152 14.0701C91.1664 14.4778 90.4458 14.6816 89.6535 14.6816ZM89.6535 12.8902C90.13 12.8902 90.5578 12.7639 90.9367 12.5113C91.3157 12.2587 91.6142 11.9256 91.8324 11.5122C92.0563 11.0931 92.1683 10.6395 92.1683 10.1515C92.1683 9.65196 92.0535 9.19263 91.8238 8.7735C91.5999 8.35436 91.2984 8.02135 90.9195 7.77446C90.5405 7.52182 90.1185 7.39551 89.6535 7.39551C89.1826 7.39551 88.7549 7.52182 88.3702 7.77446C87.9913 8.02709 87.6898 8.36297 87.4659 8.78211C87.2477 9.20125 87.1386 9.65771 87.1386 10.1515C87.1386 10.6625 87.2535 11.1247 87.4831 11.5381C87.7128 11.9515 88.0171 12.2816 88.396 12.5285C88.7807 12.7697 89.1999 12.8902 89.6535 12.8902Z" fill="#131415"/>
  <path d="M99.1238 14.6816C98.3314 14.6816 97.608 14.4778 96.9534 14.0701C96.3046 13.6625 95.785 13.117 95.3946 12.4338C95.0099 11.7448 94.8175 10.984 94.8175 10.1515C94.8175 9.31321 95.0099 8.54957 95.3946 7.86058C95.785 7.17159 96.3046 6.62326 96.9534 6.21561C97.608 5.80795 98.3314 5.60413 99.1238 5.60413C99.9161 5.60413 100.637 5.80795 101.285 6.21561C101.94 6.62326 102.46 7.17159 102.844 7.86058C103.235 8.54957 103.43 9.31321 103.43 10.1515C103.43 10.984 103.235 11.7448 102.844 12.4338C102.46 13.117 101.94 13.6625 101.285 14.0701C100.637 14.4778 99.9161 14.6816 99.1238 14.6816ZM99.1238 12.8902C99.6003 12.8902 100.028 12.7639 100.407 12.5113C100.786 12.2587 101.085 11.9256 101.303 11.5122C101.527 11.0931 101.639 10.6395 101.639 10.1515C101.639 9.65196 101.524 9.19263 101.294 8.7735C101.07 8.35436 100.769 8.02135 100.39 7.77446C100.011 7.52182 99.5888 7.39551 99.1238 7.39551C98.6529 7.39551 98.2252 7.52182 97.8405 7.77446C97.4616 8.02709 97.1601 8.36297 96.9362 8.78211C96.718 9.20125 96.6089 9.65771 96.6089 10.1515C96.6089 10.6625 96.7238 11.1247 96.9534 11.5381C97.1831 11.9515 97.4874 12.2816 97.8663 12.5285C98.251 12.7697 98.6702 12.8902 99.1238 12.8902Z" fill="#131415"/>
  <path d="M104.821 14.4577V5.84527H106.613V6.75819C106.911 6.40221 107.276 6.12087 107.707 5.91417C108.143 5.70748 108.614 5.60413 109.119 5.60413C109.733 5.60413 110.299 5.75341 110.816 6.05197C111.332 6.34479 111.743 6.73522 112.047 7.22326C112.346 6.73522 112.751 6.34479 113.262 6.05197C113.773 5.75341 114.338 5.60413 114.958 5.60413C115.59 5.60413 116.167 5.75915 116.689 6.0692C117.212 6.37924 117.628 6.79551 117.938 7.318C118.248 7.84048 118.403 8.41752 118.403 9.04909V14.4577H116.612V9.51417C116.612 9.13522 116.52 8.78785 116.336 8.47206C116.152 8.15053 115.906 7.89503 115.596 7.70556C115.286 7.51034 114.941 7.41273 114.562 7.41273C113.994 7.41273 113.508 7.61369 113.107 8.0156C112.71 8.41752 112.512 8.91704 112.512 9.51417V14.4577H110.721V9.51417C110.721 8.91704 110.52 8.41752 110.118 8.0156C109.716 7.61369 109.231 7.41273 108.663 7.41273C108.289 7.41273 107.945 7.51034 107.629 7.70556C107.319 7.89503 107.072 8.15053 106.888 8.47206C106.705 8.78785 106.613 9.13522 106.613 9.51417V14.4577H104.821Z" fill="#131415"/>
</svg>