<svg xmlns="http://www.w3.org/2000/svg" width="14" height="15" viewBox="0 0 14 15" fill="none">
  <path d="M7.89687 7.42872C7.89687 9.60309 6.12937 11.3662 3.948 11.3662C3.43023 11.3669 2.9174 11.2656 2.43877 11.0681C1.96015 10.8706 1.52512 10.5808 1.15852 10.2151C0.79191 9.84949 0.500911 9.41523 0.302132 8.93714C0.103354 8.45905 0.000688981 7.94649 0 7.42872C0 5.25347 1.7675 3.49122 3.948 3.49122C4.46584 3.49041 4.97877 3.59163 5.45749 3.78908C5.93622 3.98653 6.37135 4.27636 6.73805 4.642C7.10475 5.00764 7.39583 5.44194 7.59466 5.92009C7.79349 6.39824 7.89619 6.91087 7.89687 7.42872ZM12.2281 7.42872C12.2281 9.47622 11.3444 11.1352 10.2541 11.1352C9.16387 11.1352 8.28013 9.47534 8.28013 7.42872C8.28013 5.38122 9.16387 3.72222 10.2541 3.72222C11.3444 3.72222 12.2281 5.38209 12.2281 7.42872ZM14 7.42872C14 9.26272 13.6894 10.7493 13.3053 10.7493C12.922 10.7493 12.6114 9.26184 12.6114 7.42872C12.6114 5.59472 12.922 4.10809 13.3061 4.10809C13.6894 4.10809 14 5.59472 14 7.42872Z" fill="currentColor" />
</svg>