<svg xmlns="http://www.w3.org/2000/svg" width="25" height="24" viewBox="0 0 25 24" fill="none">
  <path d="M22.25 11.887V7.37762C22.2514 7.11763 22.1834 6.86198 22.0531 6.637H22.0437C21.9108 6.40428 21.7162 6.21285 21.4812 6.08387L13.2312 1.44325C13.0077 1.31845 12.756 1.25293 12.5 1.25293C12.244 1.25293 11.9923 1.31845 11.7687 1.44325L3.51875 6.08387C3.2858 6.21548 3.09176 6.40629 2.95625 6.637C2.95625 6.63948 2.95526 6.64187 2.9535 6.64362C2.95175 6.64538 2.94936 6.64637 2.94688 6.64637V6.66512C2.81889 6.88081 2.75091 7.12681 2.75 7.37762V11.887V16.6214C2.75047 16.8886 2.82189 17.1509 2.95696 17.3815C3.09202 17.6121 3.28589 17.8027 3.51875 17.9339L7.64375 20.2495L11.7687 22.5745C11.9764 22.6878 12.2074 22.7519 12.4437 22.762H12.5656C12.799 22.7519 13.0269 22.6877 13.2312 22.5745L17.3562 20.2495L21.4812 17.9339C21.7141 17.8027 21.908 17.6121 22.043 17.3815C22.1781 17.1509 22.2495 16.8886 22.25 16.6214V11.887ZM8.36562 13.7807L4.25 11.4557V8.212L11.8344 12.4401L11.7594 20.8495L8.75 19.1526V14.4276C8.74956 14.2953 8.71368 14.1655 8.64608 14.0517C8.57848 13.938 8.48164 13.8444 8.36562 13.7807ZM7.90625 5.31512L12.1344 7.687C12.2445 7.75406 12.371 7.78953 12.5 7.78953C12.629 7.78953 12.7555 7.75406 12.8656 7.687L17.0937 5.31512L19.9719 6.937L12.5844 11.137L5.0375 6.937L7.90625 5.31512ZM13.3344 12.4401L20.75 8.22137V11.4557L16.6344 13.7807C16.5184 13.8444 16.4215 13.938 16.3539 14.0517C16.2863 14.1655 16.2504 14.2953 16.25 14.4276V19.1526L13.2594 20.8401L13.3344 12.4401Z" fill="currentColor" fill-opacity="0.89"/>
  <path d="M22.2031 7.37737V7.37762V11.887V16.6213C22.2027 16.8802 22.1335 17.1344 22.0026 17.3578C21.8717 17.5813 21.6839 17.766 21.4582 17.893L17.3333 20.2086L17.3332 20.2087L13.2085 22.5335C13.0108 22.643 12.7904 22.7052 12.5646 22.7151H12.4448C12.216 22.7052 11.9925 22.6431 11.7914 22.5335C11.7913 22.5334 11.7913 22.5334 11.7912 22.5333L7.66677 20.2087L7.6667 20.2086L3.54175 17.893C3.31612 17.766 3.12828 17.5813 2.99741 17.3578C2.86654 17.1344 2.79733 16.8802 2.79687 16.6213L2.79688 11.887V7.37771C2.79777 7.13529 2.86348 6.89752 2.98719 6.68904L2.99375 6.67798V6.66809C2.99654 6.66389 2.99874 6.65934 3.00031 6.65457C3.13146 6.43375 3.31813 6.25106 3.54181 6.12468L11.7916 1.48417C12.0081 1.36327 12.252 1.2998 12.5 1.2998C12.748 1.2998 12.9919 1.36327 13.2084 1.48417L21.4583 6.12473L21.4587 6.12496C21.686 6.24978 21.8744 6.43503 22.003 6.66024L22.0165 6.68387H22.0258C22.1433 6.8959 22.2044 7.13468 22.2031 7.37737ZM8.34257 13.8216L8.34308 13.8218C8.45175 13.8815 8.54247 13.9691 8.60578 14.0757C8.66908 14.1822 8.70269 14.3037 8.70312 14.4276C8.70312 14.4277 8.70312 14.4277 8.70312 14.4278L8.70312 19.1526V19.18L8.72698 19.1935L11.7364 20.8903L11.8055 20.9293L11.8062 20.8499L11.8812 12.4405L11.8815 12.4127L11.8572 12.3992L4.27282 8.17105L4.20312 8.1322V8.212V11.4557V11.4831L4.22694 11.4966L8.34257 13.8216ZM7.92918 5.27424L7.90616 5.26132L7.88318 5.27431L5.01443 6.89619L4.94169 6.93732L5.01471 6.97795L12.5616 11.178L12.5846 11.1908L12.6075 11.1777L19.995 6.97774L20.067 6.93681L19.9949 6.89616L17.1168 5.27428L17.0938 5.26134L17.0708 5.27424L12.8427 7.64611L12.8427 7.64609L12.8412 7.64696C12.7384 7.70955 12.6204 7.74266 12.5 7.74266C12.3796 7.74266 12.2616 7.70955 12.1587 7.64696L12.1588 7.64693L12.1573 7.64611L7.92918 5.27424ZM13.3112 12.3994L13.2877 12.4127L13.2875 12.4397L13.2125 20.8397L13.2118 20.9208L13.2824 20.8809L16.273 19.1934L16.2969 19.18V19.1526V14.4278C16.2973 14.3038 16.3309 14.1822 16.3942 14.0757C16.4575 13.9691 16.5482 13.8815 16.6569 13.8218L16.6574 13.8216L20.7731 11.4966L20.7969 11.4831V11.4557V8.22137V8.14077L20.7268 8.18063L13.3112 12.3994Z" stroke="currentColor" stroke-opacity="0.89" stroke-width="0.09375"/>
</svg>