<svg xmlns="http://www.w3.org/2000/svg" width="80" height="80" viewBox="0 0 80 80" fill="none">
  <path d="M20.0001 43.7497C20.0043 44.0792 19.9425 44.4062 19.8183 44.7114C19.6942 45.0166 19.5102 45.2939 19.2772 45.5268C19.0442 45.7598 18.767 45.9438 18.4618 46.068C18.1565 46.1921 17.8296 46.2539 17.5001 46.2497H3.7501C3.28566 46.246 2.83098 46.116 2.43467 45.8738C2.03835 45.6316 1.71532 45.2863 1.5001 44.8747C1.29997 44.4556 1.21751 43.99 1.26154 43.5276C1.30558 43.0652 1.47445 42.6235 1.7501 42.2497C3.96256 39.2798 6.91483 36.9417 10.3126 35.4685C8.85258 34.132 7.73081 32.4679 7.03963 30.6131C6.34844 28.7584 6.1076 26.766 6.33692 24.8C6.56624 22.8339 7.25917 20.9505 8.35868 19.3046C9.45818 17.6587 10.9328 16.2975 12.6613 15.3329C14.3897 14.3683 16.3225 13.828 18.3005 13.7564C20.2786 13.6847 22.2454 14.0839 24.039 14.921C25.8327 15.758 27.4019 17.0091 28.6175 18.5712C29.8332 20.1332 30.6605 21.9617 31.0314 23.906C31.1238 24.4124 31.0597 24.9349 30.8475 25.4039C30.6353 25.8729 30.2852 26.2661 29.8438 26.531C25.8021 28.9277 22.7281 32.6651 21.1563 37.0935C20.3816 39.2267 19.9901 41.4802 20.0001 43.7497ZM78.2501 42.2497C76.0376 39.2798 73.0854 36.9417 69.6876 35.4685C71.1476 34.132 72.2694 32.4679 72.9606 30.6131C73.6518 28.7584 73.8926 26.766 73.6633 24.8C73.434 22.8339 72.741 20.9505 71.6415 19.3046C70.542 17.6587 69.0674 16.2975 67.339 15.3329C65.6105 14.3683 63.6777 13.828 61.6997 13.7564C59.7216 13.6847 57.7548 14.0839 55.9612 14.921C54.1675 15.758 52.5983 17.0091 51.3827 18.5712C50.167 20.1332 49.3397 21.9617 48.9688 23.906C48.8764 24.4124 48.9405 24.9349 49.1527 25.4039C49.3649 25.8729 49.715 26.2661 50.1563 26.531C54.2034 28.9216 57.2792 32.6612 58.8438 37.0935C59.6186 39.2267 60.0101 41.4802 60.0001 43.7497C59.9959 44.0792 60.0577 44.4062 60.1819 44.7114C60.306 45.0166 60.49 45.2939 60.723 45.5268C60.956 45.7598 61.2332 45.9438 61.5384 46.068C61.8437 46.1921 62.1706 46.2539 62.5001 46.2497H76.2501C76.7144 46.2497 77.1695 46.1204 77.5644 45.8763C77.9594 45.6323 78.2785 45.283 78.4862 44.8678C78.6938 44.4525 78.7817 43.9876 78.74 43.5252C78.6983 43.0628 78.5287 42.6211 78.2501 42.2497ZM49.1251 55.656C51.6132 53.7489 53.4412 51.1103 54.3524 48.1108C55.2636 45.1113 55.2122 41.9017 54.2054 38.933C53.1985 35.9642 51.2868 33.3855 48.7389 31.5592C46.191 29.7329 43.1349 28.7507 40.0001 28.7507C36.8653 28.7507 33.8092 29.7329 31.2613 31.5592C28.7134 33.3855 26.8017 35.9642 25.7948 38.933C24.788 41.9017 24.7365 45.1113 25.6478 48.1108C26.559 51.1103 28.387 53.7489 30.8751 55.656C26.0143 57.814 22.0735 61.6219 19.7501 66.406C19.5652 66.7862 19.4824 67.2079 19.5098 67.6298C19.5372 68.0516 19.6739 68.4591 19.9063 68.8122C20.1227 69.1744 20.4294 69.4743 20.7964 69.6824C21.1634 69.8906 21.5782 69.9999 22.0001 69.9997H58.0001C58.422 69.9999 58.8368 69.8906 59.2038 69.6824C59.5708 69.4743 59.8775 69.1744 60.0938 68.8122C60.3263 68.4591 60.463 68.0516 60.4904 67.6298C60.5178 67.2079 60.435 66.7862 60.2501 66.406C57.9267 61.6219 53.9859 57.814 49.1251 55.656Z" fill="#1D1D1F" fill-opacity="0.89"/>
</svg>