<svg width="120" height="88" viewBox="0 0 120 88" fill="none" xmlns="http://www.w3.org/2000/svg">
<path d="M37.7038 0.691899L37.704 0.691822C38.1662 0.4971 38.6622 0.397369 39.163 0.398446C39.6638 0.399523 40.1595 0.501386 40.6208 0.698095C41.0821 0.894805 41.4999 1.18242 41.8496 1.54412C42.1993 1.90583 42.4739 2.33435 42.6572 2.80458L42.6571 2.80459L42.6584 2.80775L46.4778 12.0064C46.4779 12.0067 46.478 12.0069 46.4781 12.0072C46.8601 12.9516 46.8592 14.0095 46.4757 14.9534C46.0924 15.8967 45.3576 16.6506 44.4293 17.0536C43.9591 17.2415 43.4581 17.3392 42.9523 17.3416C42.2023 17.3315 41.471 17.1042 40.8455 16.6867C40.2199 16.2693 39.7265 15.6792 39.4243 14.9867C39.4241 14.9863 39.4239 14.9858 39.4237 14.9854L35.6057 5.73991C35.6055 5.7396 35.6054 5.73929 35.6053 5.73897C35.2263 4.78857 35.234 3.72586 35.6268 2.78113C36.0197 1.83613 36.7661 1.08563 37.7038 0.691899ZM7.6408 38.1039L7.64081 38.1038L7.6376 38.1026C7.17139 37.918 6.74637 37.6414 6.3875 37.2889C6.02863 36.9365 5.74313 36.5153 5.54782 36.05C5.35251 35.5847 5.25134 35.0848 5.25027 34.5795C5.2492 34.0742 5.34825 33.5738 5.54159 33.1077L5.54167 33.1075C5.9326 32.1617 6.67745 31.4096 7.61439 31.0139C8.55102 30.6183 9.60449 30.6106 10.5467 30.9923C10.547 30.9924 10.5473 30.9925 10.5475 30.9926L19.7235 34.8419L19.7242 34.8422C20.5432 35.1812 21.2198 35.797 21.6377 36.5844C22.0556 37.3717 22.1886 38.2812 22.0138 39.1567C21.8389 40.0322 21.3671 40.8188 20.6798 41.3816C19.9925 41.9444 19.1324 42.2484 18.2473 42.2416L18.2468 42.2416C17.7402 42.2394 17.2385 42.1416 16.7676 41.9533C16.7671 41.9531 16.7667 41.9529 16.7663 41.9528L7.6408 38.1039ZM102.581 42.2416L102.581 42.2416C101.696 42.2484 100.836 41.9444 100.148 41.3816C99.461 40.8188 98.9892 40.0322 98.8144 39.1567C98.6395 38.2812 98.7725 37.3717 99.1904 36.5844C99.6083 35.797 100.285 35.1812 101.104 34.8422L101.105 34.8419L110.281 30.9926C110.281 30.9925 110.281 30.9925 110.281 30.9924C111.224 30.6106 112.277 30.6183 113.214 31.0139C114.151 31.4096 114.896 32.1617 115.286 33.1075L115.287 33.1077C115.48 33.5738 115.579 34.0742 115.578 34.5795C115.577 35.0848 115.476 35.5847 115.28 36.05C115.085 36.5153 114.799 36.9365 114.441 37.2889C114.082 37.6414 113.657 37.918 113.191 38.1025L113.187 38.1039L104.062 41.9528C104.061 41.9529 104.061 41.9531 104.061 41.9533C103.59 42.1416 103.088 42.2394 102.581 42.2416ZM113.248 38.2478C113.734 38.0555 114.176 37.7674 114.55 37.4004C114.924 37.0334 115.221 36.5948 115.424 36.1105C115.628 35.6261 115.733 35.1057 115.734 34.5798C115.735 34.0539 115.632 33.5331 115.431 33.0478L113.248 38.2478ZM83.1241 0.691822L83.1243 0.691899C84.062 1.08563 84.8085 1.83613 85.2014 2.78113C85.5942 3.72595 85.6019 4.78878 85.2227 5.73926C85.2226 5.73948 85.2225 5.73969 85.2225 5.73991L81.4044 14.9854C81.4043 14.9858 81.4041 14.9862 81.4039 14.9865C81.1017 15.6791 80.6083 16.2692 79.9827 16.6867C79.3571 17.1042 78.6258 17.3315 77.8759 17.3416C77.37 17.3392 76.8691 17.2415 76.3988 17.0536C75.4706 16.6506 74.7357 15.8967 74.3524 14.9534C73.9688 14.0093 73.968 12.9511 74.3503 12.0064L78.1697 2.80776L78.171 2.80458C78.3543 2.33435 78.6288 1.90583 78.9786 1.54412C79.3283 1.18242 79.746 0.894805 80.2074 0.698095C80.6687 0.501386 81.1643 0.399523 81.6651 0.398446C82.1659 0.397369 82.662 0.4971 83.1241 0.691822ZM93.7452 59.9793L93.7244 60.1541H93.9004H115.977C116.987 60.1541 117.957 60.5587 118.672 61.2795C119.387 62.0002 119.789 62.978 119.789 63.9978C119.789 65.0177 119.387 65.9955 118.672 66.7162C117.957 67.4369 116.987 67.8416 115.977 67.8416H4.85156C3.84082 67.8416 2.87123 67.4369 2.15615 66.7162C1.44103 65.9955 1.03906 65.0177 1.03906 63.9978C1.03906 62.978 1.44103 62.0002 2.15615 61.2795C2.87123 60.5587 3.84082 60.1541 4.85156 60.1541H26.9277H27.1037L27.0829 59.9793C26.9253 58.6579 26.8428 57.3284 26.8359 55.9974C26.8361 47.0212 30.374 38.413 36.6712 32.0663C42.9684 25.7195 51.509 22.1541 60.4141 22.1541C69.3191 22.1541 77.8597 25.7195 84.157 32.0663C90.454 38.4129 93.992 47.021 93.9922 55.997C93.9853 57.3281 93.9028 58.6577 93.7452 59.9793ZM18.0312 81.2795C18.7462 80.5587 19.7158 80.1541 20.7266 80.1541H100.102C101.112 80.1541 102.082 80.5587 102.797 81.2795C103.512 82.0002 103.914 82.978 103.914 83.9978C103.914 85.0177 103.512 85.9955 102.797 86.7162C102.082 87.4369 101.112 87.8416 100.102 87.8416H20.7266C19.7158 87.8416 18.7462 87.4369 18.0312 86.7162C17.316 85.9955 16.9141 85.0177 16.9141 83.9978C16.9141 82.978 17.316 82.0002 18.0312 81.2795Z" fill="#1D1D1F" stroke="#1D1D1F" stroke-width="0.3125"/>
</svg>
