<svg xmlns="http://www.w3.org/2000/svg" width="81" height="80" viewBox="0 0 81 80" fill="none">
  <path d="M69.5108 10.7188C69.0345 10.2545 68.3946 9.99629 67.7295 10L47.792 10.0625C47.4225 10.063 47.0576 10.1444 46.7228 10.301C46.3881 10.4575 46.0917 10.6855 45.8545 10.9688L23.8545 37.5938L21.2608 35C20.3195 34.0725 19.051 33.5526 17.7295 33.5526C16.408 33.5526 15.1396 34.0725 14.1983 35L10.2295 38.9688C9.76276 39.4308 9.39224 39.9808 9.13937 40.5869C8.8865 41.193 8.7563 41.8433 8.7563 42.5C8.7563 43.1568 8.8865 43.807 9.13937 44.4132C9.39224 45.0193 9.76276 45.5693 10.2295 46.0313L16.7608 52.5625L7.38576 61.9063C6.4563 62.8529 5.93555 64.1265 5.93555 65.4532C5.93555 66.7798 6.4563 68.0534 7.38576 69L11.2295 72.8438C12.18 73.7659 13.4522 74.2816 14.7764 74.2816C16.1006 74.2816 17.3728 73.7659 18.3233 72.8438L27.667 63.4688L34.1983 70C35.1396 70.9276 36.408 71.4475 37.7295 71.4475C39.051 71.4475 40.3195 70.9276 41.2608 70L45.2295 66.0313C45.6963 65.5693 46.0668 65.0193 46.3197 64.4132C46.5725 63.807 46.7027 63.1568 46.7027 62.5C46.7027 61.8433 46.5725 61.193 46.3197 60.5869C46.0668 59.9808 45.6963 59.4308 45.2295 58.9688L42.6358 56.375L69.2608 34.375C69.5441 34.1378 69.772 33.8414 69.9286 33.5067C70.0852 33.172 70.1665 32.8071 70.167 32.4375L70.2295 12.5C70.2333 11.8349 69.9751 11.195 69.5108 10.7188ZM65.167 31.25L39.0733 52.8125L35.0108 48.75L52.0108 31.7813C52.4094 31.2956 52.6132 30.6789 52.5823 30.0513C52.5515 29.4236 52.2883 28.8299 51.844 28.3856C51.3997 27.9412 50.8059 27.6781 50.1783 27.6472C49.5507 27.6164 48.934 27.8201 48.4483 28.2188L31.4795 45.2188L27.417 41.1563L48.9795 15.0625L65.2295 15L65.167 31.25Z" fill="#1D1D1F"/>
</svg>