<svg xmlns="http://www.w3.org/2000/svg" width="81" height="80" viewBox="0 0 81 80" fill="none">
  <path d="M68.7172 23.8749C68.6849 23.84 68.6632 23.7966 68.6547 23.7499L68.5297 23.5936C64.1024 16.3629 57.0247 11.1486 48.8068 9.06307C40.5888 6.97757 31.8812 8.18606 24.5418 12.4307C17.2024 16.6753 11.8123 23.62 9.5214 31.7831C7.23055 39.9462 8.22036 48.6813 12.2797 56.1249L12.3422 56.2499L12.4359 56.3749C16.8217 63.6861 23.9049 68.9811 32.1585 71.1185C40.4121 73.2559 49.175 72.0644 56.5582 67.8009C63.9415 63.5374 69.3537 56.5433 71.6282 48.3265C73.9026 40.1096 72.8572 31.3281 68.7172 23.8749ZM62.9672 24.1561L42.9984 35.6561V12.6249C46.9621 12.991 50.7995 14.2113 54.2466 16.2019C57.6937 18.1925 60.6688 20.9061 62.9672 24.1561ZM40.4984 67.4999C36.0935 67.4985 31.7533 66.439 27.8432 64.4106C23.9331 62.3821 20.5675 59.444 18.0297 55.8436L65.4672 28.4686C67.4026 32.659 68.2522 37.2691 67.9376 41.8741C67.6231 46.4791 66.1544 50.9309 63.6671 54.8191C61.1797 58.7073 57.7537 61.9069 53.7048 64.123C49.6558 66.3391 45.1142 67.5004 40.4984 67.4999Z" fill="#1D1D1F" fill-opacity="0.89"/>
</svg>