<svg width="20" height="20" viewBox="0 0 20 20" fill="none" xmlns="http://www.w3.org/2000/svg">
<path d="M17 3.87501C17 3.61286 16.8825 3.36453 16.6797 3.19833C16.477 3.03214 16.2105 2.96559 15.9534 3.017L7.2034 4.767C6.7944 4.8488 6.5 5.20791 6.5 5.62501V13.5996C6.22632 13.5351 5.93181 13.5 5.625 13.5C4.17525 13.5 3 14.2835 3 15.25C3 16.2165 4.17525 17 5.625 17C7.07474 17 8.24999 16.2165 8.25 15.25V8.09233L15.25 6.69233V11.8496C14.9763 11.7851 14.6818 11.75 14.375 11.75C12.9253 11.75 11.75 12.5335 11.75 13.5C11.75 14.4665 12.9253 15.25 14.375 15.25C15.8247 15.25 17 14.4665 17 13.5V3.87501Z" fill="black" fill-opacity="0.56"/>
</svg>
