<svg width="20" height="20" viewBox="0 0 20 20" fill="none" xmlns="http://www.w3.org/2000/svg">
<path d="M4.06694 0.933058C3.82286 0.688981 3.42714 0.688981 3.18306 0.933058C2.93898 1.17714 2.93898 1.57286 3.18306 1.81694L18.1831 16.8169C18.4271 17.061 18.8229 17.061 19.0669 16.8169C19.311 16.5729 19.311 16.1771 19.0669 15.9331L4.06694 0.933058Z" fill="black" fill-opacity="0.56"/>
<path d="M6.625 6.15445V13.4746C6.35132 13.4101 6.05681 13.375 5.75 13.375C4.30025 13.375 3.125 14.1585 3.125 15.125C3.125 16.0915 4.30025 16.875 5.75 16.875C7.19974 16.875 8.37499 16.0915 8.375 15.125V7.96733L8.4274 7.95685L6.625 6.15445Z" fill="black" fill-opacity="0.56"/>
<path d="M11.3932 7.3637L8.44761 4.41816L16.0784 2.892C16.3355 2.84059 16.602 2.90714 16.8047 3.07333C17.0075 3.23953 17.125 3.48786 17.125 3.75001V13.0955L15.375 11.3455V6.56733L11.3932 7.3637Z" fill="black" fill-opacity="0.56"/>
<path d="M12.6225 12.152C12.16 12.4674 11.875 12.899 11.875 13.375C11.875 14.3415 13.0503 15.125 14.5 15.125C14.8433 15.125 15.1712 15.0811 15.4717 15.0012L12.6225 12.152Z" fill="black" fill-opacity="0.56"/>
</svg>
