<svg xmlns="http://www.w3.org/2000/svg" width="121" height="121" viewBox="0 0 121 121" fill="none">
  <path d="M91.1641 41.9375C92.0929 41.2364 92.8469 40.33 93.3674 39.2891C93.8878 38.2483 94.1605 37.1012 94.1641 35.9375V19.25C94.1641 17.2609 93.3739 15.3532 91.9674 13.9467C90.5608 12.5402 88.6532 11.75 86.6641 11.75H34.1641C32.1749 11.75 30.2673 12.5402 28.8608 13.9467C27.4542 15.3532 26.6641 17.2609 26.6641 19.25V36.125C26.6677 37.2887 26.9403 38.4358 27.4608 39.4766C27.9812 40.5175 28.7353 41.4239 29.6641 42.125L38.1484 48.5L54.1797 60.5L29.6641 78.875C28.7353 79.5761 27.9812 80.4825 27.4608 81.5234C26.9403 82.5642 26.6677 83.7113 26.6641 84.875V101.75C26.6641 103.739 27.4542 105.647 28.8608 107.053C30.2673 108.46 32.1749 109.25 34.1641 109.25H86.6641C88.6532 109.25 90.5608 108.46 91.9674 107.053C93.3739 105.647 94.1641 103.739 94.1641 101.75V85.0625C94.1605 83.8988 93.8878 82.7517 93.3674 81.7109C92.8469 80.67 92.0929 79.7636 91.1641 79.0625L66.6484 60.5L91.1641 41.9375ZM34.1641 19.25H86.6641V35.9375L83.9453 38H36.6484L34.1641 36.125V19.25ZM86.6641 85.0625V101.75H34.1641V84.875L56.6641 68V79.25C56.6641 80.2446 57.0592 81.1984 57.7624 81.9017C58.4657 82.6049 59.4195 83 60.4141 83C61.4086 83 62.3625 82.6049 63.0657 81.9017C63.769 81.1984 64.1641 80.2446 64.1641 79.25V68.0469L86.6641 85.0625Z" fill="#86868B"/>
</svg>