
<svg xmlns="http://www.w3.org/2000/svg" width="121" height="121" viewBox="0 0 121 121" fill="none">
 <path d="M65.165 30.4375C66.0938 29.7364 66.8479 28.83 67.3683 27.7891C67.8888 26.7483 68.1614 25.6012 68.165 24.4375V7.75C68.165 5.76088 67.3749 3.85322 65.9683 2.4467C64.5618 1.04018 62.6542 0.25 60.665 0.25H8.16504C6.17591 0.25 4.26826 1.04018 2.86174 2.4467C1.45522 3.85322 0.665039 5.76088 0.665039 7.75V24.625C0.66865 25.7887 0.941324 26.9358 1.46175 27.9766C1.98217 29.0175 2.73625 29.9239 3.66504 30.625L12.1494 37L28.1807 49L3.66504 67.375C2.73625 68.0761 1.98217 68.9825 1.46175 70.0234C0.941324 71.0642 0.66865 72.2113 0.665039 73.375V90.25C0.665039 92.2391 1.45522 94.1468 2.86174 95.5533C4.26826 96.9598 6.17591 97.75 8.16504 97.75H60.665C62.6542 97.75 64.5618 96.9598 65.9683 95.5533C67.3749 94.1468 68.165 92.2391 68.165 90.25V73.5625C68.1614 72.3988 67.8888 71.2517 67.3683 70.2109C66.8479 69.17 66.0938 68.2636 65.165 67.5625L40.6494 49L65.165 30.4375ZM8.16504 7.75H60.665V24.4375L57.9463 26.5H10.6494L8.16504 24.625V7.75ZM60.665 73.5625V90.25H8.16504V73.375L30.665 56.5V67.75C30.665 68.7446 31.0601 69.6984 31.7634 70.4017C32.4667 71.1049 33.4205 71.5 34.415 71.5C35.4096 71.5 36.3634 71.1049 37.0667 70.4017C37.77 69.6984 38.165 68.7446 38.165 67.75V56.5469L60.665 73.5625Z" fill="#1D1D1F"/>
</svg>