<svg width="25" height="24" viewBox="0 0 25 24" fill="none" xmlns="http://www.w3.org/2000/svg">
<path d="M11.0001 13.5V18.3375C10.9999 18.4483 10.9755 18.5578 10.9286 18.6582C10.8816 18.7586 10.8132 18.8475 10.7282 18.9187C10.5941 19.0302 10.4245 19.09 10.2501 19.0875H10.1188L4.11884 18C3.94343 17.9688 3.78484 17.8762 3.67147 17.7388C3.5581 17.6014 3.49734 17.4281 3.50009 17.25V13.5C3.50009 13.301 3.57911 13.1103 3.71976 12.9696C3.86041 12.829 4.05118 12.75 4.25009 12.75H10.2501C10.449 12.75 10.6398 12.829 10.7804 12.9696C10.9211 13.1103 11.0001 13.301 11.0001 13.5ZM10.7282 5.08121C10.6443 5.01204 10.5463 4.96197 10.4411 4.93445C10.3358 4.90693 10.2259 4.90262 10.1188 4.92183L4.11884 6.00933C3.94503 6.04022 3.7877 6.13143 3.67452 6.2669C3.56134 6.40238 3.49957 6.57343 3.50009 6.74996V10.5C3.50009 10.6989 3.57911 10.8896 3.71976 11.0303C3.86041 11.1709 4.05118 11.25 4.25009 11.25H10.2501C10.449 11.25 10.6398 11.1709 10.7804 11.0303C10.9211 10.8896 11.0001 10.6989 11.0001 10.5V5.66246C10.9999 5.5516 10.9755 5.44212 10.9286 5.3417C10.8816 5.24129 10.8132 5.15237 10.7282 5.08121ZM20.7501 12.75H13.2501C13.0512 12.75 12.8604 12.829 12.7198 12.9696C12.5791 13.1103 12.5001 13.301 12.5001 13.5V18.8906C12.5018 19.0655 12.5645 19.2343 12.6775 19.3679C12.7905 19.5014 12.9466 19.5912 13.1188 19.6218L20.6188 20.9906H20.7501C20.9263 20.9941 21.0973 20.9304 21.2282 20.8125C21.3118 20.7442 21.3794 20.6584 21.4264 20.5613C21.4733 20.4641 21.4985 20.3579 21.5001 20.25V13.5C21.5001 13.301 21.4211 13.1103 21.2804 12.9696C21.1398 12.829 20.949 12.75 20.7501 12.75ZM21.2282 3.17808C21.1461 3.10556 21.0486 3.05267 20.943 3.02344C20.8374 2.9942 20.7266 2.98937 20.6188 3.00933L13.1188 4.37808C12.9466 4.40868 12.7905 4.49852 12.6775 4.63206C12.5645 4.76559 12.5018 4.93442 12.5001 5.10933V10.5C12.5001 10.6989 12.5791 10.8896 12.7198 11.0303C12.8604 11.1709 13.0512 11.25 13.2501 11.25H20.7501C20.949 11.25 21.1398 11.1709 21.2804 11.0303C21.4211 10.8896 21.5001 10.6989 21.5001 10.5V3.74996C21.4999 3.64046 21.4754 3.53238 21.4283 3.4335C21.3813 3.33461 21.313 3.24738 21.2282 3.17808Z" fill="white"/>
</svg>
