<svg width="1920" height="716" viewBox="0 0 1920 716" fill="none" xmlns="http://www.w3.org/2000/svg">
<g filter="url(#filter0_d_20220_12484)">
<path d="M862.31 101L481.276 648.47M566.794 101L2 304.132M468.305 101L2 235.183M369.817 101L2 189.203M665.312 101L2 419.039M271.299 101L2 156.351M74.2922 101L2 112.548M172.781 101L2 131.717M1650.33 101L1919.99 156.458M960.841 101L960.158 648.47M1748.86 101L1920 131.781M1847.36 101L1920.01 112.612M1551.86 101L1920 189.331M1453.33 101L1920 235.354M1256.33 101L1920 419.573M1354.86 101L1920.01 304.431M1059.33 101L1439.06 648.47M763.809 101L2.39447 648.47L1917.96 648.469M1157.81 101L1917.95 648.47M1920 175.712H2M1920 125.59H2M1920 135.815H2M1920 147.364H2M1920 108.344H2M1920 116.497H2M1920 503.529H2M1920 193.323H2M1920 160.557H2M1920 101H2M1920 214.071H2M1920 238.855H2M1920 416.905H2M1920 268.996H2M1920 306.394H2M1920 354.061H2" stroke="#1C1C1C" stroke-width="2" stroke-linecap="round"/>
</g>
<rect width="1920" height="295" transform="matrix(1 0 0 -1 2 295)" fill="url(#paint0_linear_20220_12484)"/>
<rect y="433" width="1920" height="283" fill="url(#paint1_linear_20220_12484)"/>
<defs>
<filter id="filter0_d_20220_12484" x="-8.7093" y="91.9998" width="1937.72" height="565.47" filterUnits="userSpaceOnUse" color-interpolation-filters="sRGB">
<feFlood flood-opacity="0" result="BackgroundImageFix"/>
<feColorMatrix in="SourceAlpha" type="matrix" values="0 0 0 0 0 0 0 0 0 0 0 0 0 0 0 0 0 0 127 0" result="hardAlpha"/>
<feOffset/>
<feGaussianBlur stdDeviation="4"/>
<feColorMatrix type="matrix" values="0 0 0 0 0.109804 0 0 0 0 0.109804 0 0 0 0 0.109804 0 0 0 1 0"/>
<feBlend mode="normal" in2="BackgroundImageFix" result="effect1_dropShadow_20220_12484"/>
<feBlend mode="normal" in="SourceGraphic" in2="effect1_dropShadow_20220_12484" result="shape"/>
</filter>
<linearGradient id="paint0_linear_20220_12484" x1="960" y1="0" x2="960" y2="224" gradientUnits="userSpaceOnUse">
<stop offset="0.202197" stop-color="#0F1012" stop-opacity="0"/>
<stop offset="0.906158" stop-color="#0F1012"/>
</linearGradient>
<linearGradient id="paint1_linear_20220_12484" x1="960" y1="433" x2="960" y2="672.225" gradientUnits="userSpaceOnUse">
<stop offset="0.0624742" stop-color="#0F1012" stop-opacity="0"/>
<stop offset="0.35958" stop-color="#0F1012" stop-opacity="0.5"/>
<stop offset="0.741573" stop-color="#0F1012"/>
</linearGradient>
</defs>
</svg>
