<svg width="21" height="15" viewBox="0 0 21 15" fill="none" xmlns="http://www.w3.org/2000/svg">
<path id="Vector" d="M17.7774 1.24342C16.4389 0.6679 15.0036 0.243876 13.5029 0.0010181C13.4756 -0.00366725 13.4483 0.00804613 13.4342 0.0314729C13.2496 0.339144 13.0452 0.740523 12.902 1.056C11.2878 0.829545 9.68202 0.829545 8.10103 1.056C7.95783 0.733495 7.74592 0.339144 7.56051 0.0314729C7.54643 0.00882702 7.51912 -0.00288636 7.4918 0.0010181C5.99193 0.243095 4.55661 0.667119 3.21732 1.24342C3.20573 1.2481 3.1958 1.25591 3.18918 1.26606C0.466718 5.0776 -0.279081 8.79542 0.0867826 12.4672C0.0884381 12.4851 0.0991988 12.5023 0.114098 12.5133C1.91031 13.7494 3.65023 14.4998 5.35787 14.9973C5.38519 15.0051 5.41416 14.9957 5.43154 14.9746C5.83548 14.4577 6.19555 13.9126 6.5043 13.3394C6.52251 13.3059 6.50513 13.266 6.46788 13.2528C5.89674 13.0497 5.35291 12.8022 4.82977 12.5211C4.78838 12.4984 4.78507 12.443 4.82315 12.4164C4.93324 12.3391 5.04333 12.2587 5.14845 12.1775C5.16749 12.1626 5.19398 12.1595 5.21633 12.1689C8.65313 13.6393 12.3739 13.6393 15.7701 12.1689C15.7924 12.1587 15.8189 12.1618 15.8388 12.1767C15.9439 12.2579 16.054 12.3391 16.1649 12.4164C16.203 12.443 16.2005 12.4984 16.1591 12.5211C15.636 12.8076 15.0922 13.0497 14.5202 13.252C14.483 13.2653 14.4664 13.3059 14.4846 13.3394C14.8 13.9118 15.16 14.4569 15.5565 14.9738C15.5731 14.9957 15.6029 15.0051 15.6302 14.9973C17.3461 14.4998 19.0861 13.7494 20.8823 12.5133C20.898 12.5023 20.9079 12.4859 20.9096 12.468C21.3475 8.22303 20.1762 4.53566 17.8047 1.26684C17.7989 1.25591 17.789 1.2481 17.7774 1.24342ZM7.01751 10.2315C5.98282 10.2315 5.13024 9.34127 5.13024 8.24802C5.13024 7.15477 5.96627 6.26455 7.01751 6.26455C8.07702 6.26455 8.92132 7.16258 8.90477 8.24802C8.90477 9.34127 8.06874 10.2315 7.01751 10.2315ZM13.9954 10.2315C12.9607 10.2315 12.1081 9.34127 12.1081 8.24802C12.1081 7.15477 12.9442 6.26455 13.9954 6.26455C15.0549 6.26455 15.8992 7.16258 15.8827 8.24802C15.8827 9.34127 15.0549 10.2315 13.9954 10.2315Z" fill="#0F1012"/>
</svg>
