<svg width="1920" height="813" viewBox="0 0 1920 813" fill="none" xmlns="http://www.w3.org/2000/svg">
<g filter="url(#filter0_d_20220_13025)">
<path d="M861.307 47L480.273 804M565.794 47L1 327.875M467.305 47L1 232.538M368.817 47L1 168.961M664.312 47L1 486.761M270.299 47L1 123.535M73.2922 47L1 62.9682M171.781 47L1 89.4737M1649.34 47L1918.99 123.683M959.839 47L959.156 804M1747.86 47L1919 89.5622M1846.36 47L1919.01 63.0568M1550.86 47L1919 169.138M1452.34 47L1919 232.774M1255.34 47L1919 487.499M1353.86 47L1919.01 328.289M1058.33 47L1438.06 804M762.805 47L1.39062 804M1156.81 47L1916.95 804M1916.96 803.998H1.39062M1919 150.308H1M1919 81.0019H1M1919 95.1379H1M1919 111.109H1M1919 57.1537H1M1919 68.4276H1M1919 603.587H1M1919 174.655H1M1919 129.352H1M1919 47H1M1919 203.345H1M1919 237.618H1M1919 483.807H1M1919 279.291H1M1919 331.004H1M1919 396.911H1" stroke="#1C1C1C" stroke-width="2" stroke-linecap="round"/>
</g>
<rect x="1" width="1920" height="254" fill="url(#paint0_linear_20220_13025)"/>
<rect width="1920" height="357" transform="matrix(1 0 0 -1 1 813)" fill="url(#paint1_linear_20220_13025)"/>
<defs>
<filter id="filter0_d_20220_13025" x="-8.00027" y="37.9998" width="1936.01" height="775" filterUnits="userSpaceOnUse" color-interpolation-filters="sRGB">
<feFlood flood-opacity="0" result="BackgroundImageFix"/>
<feColorMatrix in="SourceAlpha" type="matrix" values="0 0 0 0 0 0 0 0 0 0 0 0 0 0 0 0 0 0 127 0" result="hardAlpha"/>
<feOffset/>
<feGaussianBlur stdDeviation="4"/>
<feColorMatrix type="matrix" values="0 0 0 0 0.109804 0 0 0 0 0.109804 0 0 0 0 0.109804 0 0 0 1 0"/>
<feBlend mode="normal" in2="BackgroundImageFix" result="effect1_dropShadow_20220_13025"/>
<feBlend mode="normal" in="SourceGraphic" in2="effect1_dropShadow_20220_13025" result="shape"/>
</filter>
<linearGradient id="paint0_linear_20220_13025" x1="961" y1="22.7185" x2="961" y2="214.593" gradientUnits="userSpaceOnUse">
<stop stop-color="#0F1012"/>
<stop offset="1" stop-color="#0F1012" stop-opacity="0"/>
</linearGradient>
<linearGradient id="paint1_linear_20220_13025" x1="960" y1="70.5426" x2="960" y2="301.613" gradientUnits="userSpaceOnUse">
<stop stop-color="#0F1012"/>
<stop offset="1" stop-color="#0F1012" stop-opacity="0"/>
</linearGradient>
</defs>
</svg>
