<svg xmlns="http://www.w3.org/2000/svg" width="32" height="38" viewBox="0 0 32 38" fill="none">
    <path
      d="M19.0145 37.6585L0.0859375 18.796L18.9476 0L19.0145 0.0666806V5.82864L9.00127 18.7965L19.0145 31.7644L32 18.8241V24.7185L19.0145 37.6585Z"
      fill="white"
    />
    <path
      d="M21.3672 14.0578V2.6084L27.112 8.33312L21.3672 14.0578ZM22.0455 4.39694V4.72927V11.937V12.2693L22.2814 12.0343L25.8978 8.43045L25.9955 8.33312L25.8978 8.23578L22.2814 4.63194L22.0455 4.39694Z"
      fill="white"
    />
    <path
      d="M21.5029 13.7258L26.9141 8.33341L21.5029 2.94102V13.7258ZM21.9049 4.06491L26.1884 8.33341L21.9049 12.6019V4.06491ZM21.2266 14.3906V2.27637L27.3049 8.33341L21.2266 14.3906ZM22.1812 4.72957V11.9373L25.7977 8.33341L22.1812 4.72957Z"
      fill="white"
    />
    <path d="M21.2216 18.7966L25.0898 22.6514L28.9581 18.7966H21.2216Z" fill="white" />
  </svg>