<svg xmlns="http://www.w3.org/2000/svg" width="16" height="16" viewBox="0 0 16 16" fill="none">
  <path d="M9.25244 14C9.65367 14 10.0036 13.6501 10.0036 13.2489V11.4947H10.5051C10.8061 11.4947 11.0066 11.294 11.0066 10.9931V5.9829H4.99296V10.9932C4.99296 11.2941 5.19357 11.4947 5.4945 11.4947H5.99607V13.2489C5.99607 13.6501 6.34589 14 6.7472 14C7.14839 14 7.49824 13.6501 7.49824 13.2489V11.4947H8.50135V13.2489C8.50131 13.6501 8.85121 14 9.25244 14Z" fill="white"/>
  <path d="M12.2593 10.9932C12.6606 10.9932 13.0104 10.6433 13.0104 10.2421V6.7337C13.0104 6.33459 12.6606 5.9829 12.2593 5.9829C11.8581 5.9829 11.5082 6.33459 11.5082 6.7337V10.2421C11.5082 10.6433 11.858 10.9932 12.2593 10.9932Z" fill="white"/>
  <path d="M3.7403 10.9932C4.14157 10.9932 4.49143 10.6433 4.49143 10.2421V6.7337C4.49143 6.33459 4.14161 5.9829 3.7403 5.9829C3.33907 5.9829 2.98926 6.33459 2.98926 6.7337V10.2421C2.98926 10.6433 3.33907 10.9932 3.7403 10.9932Z" fill="white"/>
  <path d="M10.4047 2.07568C10.3045 1.97477 10.1552 1.97477 10.0549 2.07568L9.38226 2.74612L9.35122 2.77711C8.95236 2.57738 8.50516 2.47763 8.00714 2.47667C8.0047 2.47667 8.0023 2.47659 7.99986 2.47659C7.99733 2.47659 7.99493 2.47667 7.99241 2.47667C7.49444 2.47763 7.04724 2.57738 6.64841 2.77711L5.94466 2.07568C5.84431 1.97477 5.69511 1.97477 5.59484 2.07568C5.4945 2.17603 5.4945 2.32495 5.59484 2.42521L6.24554 3.07603C6.03587 3.21602 5.84575 3.38732 5.68041 3.58325C5.28459 4.05244 5.03212 4.66305 4.9974 5.32464C4.99708 5.33152 4.9964 5.33833 4.99608 5.34522C4.99396 5.39027 4.99296 5.43556 4.99296 5.481H11.0066C11.0066 5.43556 11.0056 5.39027 11.0035 5.34522C11.0032 5.33833 11.0025 5.33152 11.0021 5.32464C10.9675 4.66305 10.7149 4.0524 10.3191 3.58329C10.1538 3.38736 9.96364 3.21606 9.75397 3.07607L10.4047 2.42526C10.5051 2.32495 10.5051 2.17603 10.4047 2.07568ZM6.74623 4.60531C6.53873 4.60531 6.37051 4.43709 6.37051 4.22959C6.37051 4.02208 6.53873 3.85386 6.74623 3.85386C6.95374 3.85386 7.12196 4.02208 7.12196 4.22959C7.12196 4.43709 6.95374 4.60531 6.74623 4.60531ZM9.25336 4.60531C9.04586 4.60531 8.87764 4.43709 8.87764 4.22959C8.87764 4.02208 9.04586 3.85386 9.25336 3.85386C9.46086 3.85386 9.62908 4.02208 9.62908 4.22959C9.62908 4.43709 9.46086 4.60531 9.25336 4.60531Z" fill="white"/>
</svg>