<svg xmlns="http://www.w3.org/2000/svg" width="16" height="16" viewBox="0 0 16 16" fill="none">
  <path d="M12.912 7.22877C12.912 7.22877 13.9821 7.28318 13.9821 6.6538C13.9821 5.83216 12.5565 5.09213 12.5565 5.09213C12.5565 5.09213 12.7796 4.61873 12.9192 4.35392C13.0589 4.08911 13.4507 3.05888 13.4851 2.82309C13.5286 2.52563 13.4615 2.43312 13.4615 2.43312C13.3654 3.06795 12.3315 4.89624 12.2481 4.95791C11.2397 4.48633 9.85392 4.35392 9.85392 4.35392C9.85392 4.35392 8.49721 1.49902 7.2203 1.49902C5.95428 1.49902 5.96154 3.94401 5.96154 3.94401C5.96154 3.94401 5.60422 3.25114 5.1544 3.25114C4.49781 3.25114 4.28197 4.24147 4.28197 5.31704C2.98693 5.31704 1.89685 5.60725 1.7989 5.63445C1.70277 5.66166 1.39624 5.88476 1.53409 5.85755C1.81885 5.76686 3.15017 5.56009 4.31462 5.66166C4.37992 6.68282 4.97665 8.01414 4.97665 8.01414C4.97665 8.01414 3.69612 9.86783 3.69612 11.1901C3.69612 11.5383 3.84848 12.175 4.76625 12.175C5.53711 12.175 6.40229 11.7124 6.56371 11.6199C6.42224 11.8213 6.31704 12.2076 6.31704 12.3854C6.31704 12.5305 6.4041 12.9422 6.99721 12.9422C7.759 12.9422 8.61148 12.3582 8.61148 12.3582C8.61148 12.3582 9.4168 13.6931 10.1042 14.3043C10.2892 14.4694 10.467 14.5002 10.467 14.5002C10.467 14.5002 9.78318 13.8436 8.88354 12.1496C9.7197 11.6345 10.5903 10.4156 10.5903 10.4156C10.5903 10.4156 10.6937 10.4192 11.4881 10.4192C12.7324 10.4192 14.499 10.158 14.499 9.16952C14.5008 8.15017 12.912 7.22877 12.912 7.22877ZM13.0498 6.6139C13.0498 6.97484 12.707 6.97121 12.707 6.97121L12.4458 6.98754C12.4458 6.98754 11.9507 6.72817 11.6496 6.60483C11.6496 6.60483 12.1157 5.88838 12.2245 5.68887C12.3062 5.73784 13.0498 6.20217 13.0498 6.6139ZM7.84243 2.93735C8.42828 2.93735 9.26263 4.31583 9.26263 4.31583C9.26263 4.31583 7.96033 4.19975 6.88838 4.82913C6.9174 3.83699 7.25114 2.93735 7.84243 2.93735ZM5.52623 4.05465C5.71123 4.05465 5.89261 4.28137 5.96879 4.47182C5.96879 4.59878 6.03409 5.33881 6.03409 5.33881L4.96033 5.29709C4.96033 4.33034 5.33941 4.05465 5.52623 4.05465ZM5.41377 10.7747C4.82611 10.7747 4.7064 10.4482 4.7064 10.1544C4.7064 9.48875 5.23784 8.55646 5.23784 8.55646C5.23784 8.55646 5.83457 9.80979 6.87387 10.3376C6.35876 10.6405 5.93252 10.7747 5.41377 10.7747ZM7.32006 12.0861C6.90833 12.0861 6.85755 11.8195 6.85755 11.7578C6.85755 11.5673 7.00809 11.3406 7.00809 11.3406C7.00809 11.3406 7.69914 10.8745 7.74267 10.8237L8.25416 11.7777C8.25416 11.7777 7.73179 12.0861 7.32006 12.0861ZM8.60422 11.5673C8.35392 11.1302 8.16891 10.6731 8.16891 10.6731C8.16891 10.6731 9.19733 10.7384 9.75053 10.1689C9.40591 10.3231 8.85634 10.519 8.21789 10.4591C9.55283 9.28379 10.3328 8.43131 10.9912 7.55162C10.9349 7.4827 10.6338 7.2723 10.5595 7.23784C10.1623 7.71668 8.6151 9.36904 7.18221 10.1871C5.36843 9.19854 4.98753 6.29104 4.94945 5.68705L5.93977 5.78137C5.93977 5.78137 5.56795 6.44159 5.56795 6.92768C5.56795 7.41196 5.62599 7.43736 5.62599 7.43736C5.62599 7.43736 5.61329 6.59213 6.13566 5.93917C6.53469 8.05767 6.95005 9.14231 7.2729 9.78983C7.43796 9.72091 7.74449 9.58488 7.74449 9.58488C7.74449 9.58488 6.83034 6.94945 6.88113 5.1665C7.29648 4.94521 7.91136 4.71668 8.60422 4.71668C10.4289 4.71668 11.8962 5.50023 11.8962 5.50023L11.3231 6.30193C11.3231 6.30193 10.8116 5.3769 10.0879 5.21184C10.4688 5.49479 10.8968 5.87025 11.1181 6.40894C9.60543 5.81946 7.78076 5.50749 7.19491 5.43856C7.14412 5.6544 7.15138 5.96275 7.15138 5.96275C7.15138 5.96275 9.59818 6.41438 11.3793 7.43191C11.3666 9.65924 8.93977 11.3696 8.60422 11.5673ZM10.9222 9.90229C10.9222 9.90229 11.6822 8.90652 11.6695 7.58609C11.6695 7.58609 12.8975 8.34606 12.8975 9.0879C12.8975 9.91499 10.9222 9.90229 10.9222 9.90229Z" fill="white"/>
</svg> 