<svg xmlns="http://www.w3.org/2000/svg" width="16" height="16" viewBox="0 0 16 16" fill="none">
  <path fill-rule="evenodd" clip-rule="evenodd" d="M12.4021 2H3.93911C3.25315 2 3 2.25315 3 2.93943V11.2204C3 11.2981 3.00313 11.3702 3.00999 11.437C3.02561 11.5868 3.02855 11.732 3.16787 11.8973C3.18148 11.9134 3.32372 12.0193 3.32372 12.0193C3.40023 12.0568 3.45247 12.0844 3.53875 12.1192L7.70604 13.8651C7.92238 13.9643 8.01284 14.0029 8.16997 13.9998L8.1712 13.9999C8.32833 14.003 8.4188 13.9643 8.63516 13.8651L12.8024 12.1192C12.8887 12.0844 12.9409 12.0568 13.0175 12.0193C13.0175 12.0193 13.1597 11.9134 13.1733 11.8973C13.3126 11.732 13.3156 11.5868 13.3312 11.437C13.338 11.3702 13.3412 11.2981 13.3412 11.2204V2.93943C13.3412 2.25315 13.088 2 12.4021 2Z" fill="white"/>
  <path d="M11.8351 10.3257L11.8331 10.3448L11.8312 10.3658L11.8274 10.3849L11.8217 10.404L11.818 10.4212L11.8122 10.4403L11.8046 10.4575L11.797 10.4728L11.7894 10.4899L11.7703 10.5205L11.759 10.5358L11.7494 10.5511L11.7381 10.5644L11.7247 10.5778L11.7134 10.5893L11.6981 10.6026L11.6848 10.6141L11.6695 10.6256L11.6544 10.635L11.6392 10.6464L11.622 10.656L11.6049 10.6636L11.5879 10.6732L11.5688 10.6808L11.5498 10.6885L11.5308 10.6942L11.5118 10.6999L11.4946 10.7057L11.4756 10.7095L11.4415 10.7171L11.4224 10.721L11.4034 10.7228L11.3863 10.7248L11.3672 10.7267L11.3463 10.7286L11.3273 10.7305H11.2474L11.2284 10.7286H11.2075L11.1694 10.7248L11.1485 10.7228L11.1296 10.719L11.1106 10.7171L11.0915 10.7133L11.0725 10.7095L11.0535 10.7057L11.0345 10.7018L11.0154 10.6961L10.9983 10.6923L10.9603 10.6808L10.9432 10.6732L10.9242 10.6675L10.9071 10.6617L10.8881 10.6541L10.8709 10.6464L10.8538 10.6388L10.8367 10.6294L10.8196 10.6217L10.8025 10.6122L10.7873 10.6026L10.7701 10.5931L10.7549 10.5835L10.7397 10.574L10.7093 10.5511L10.6941 10.5396L10.6789 10.5281L10.6655 10.5167L10.6503 10.5033L10.6618 10.488L10.675 10.4747L10.6865 10.4594L10.6998 10.4441L10.7112 10.4307L10.7226 10.4155L10.736 10.4002L10.7473 10.3868L10.7607 10.3715L10.772 10.3581L10.7854 10.3429L10.7967 10.3276L10.8082 10.3142L10.8215 10.2989L10.8329 10.2836L10.8462 10.2703L10.8576 10.255L10.8728 10.2665L10.8899 10.2779L10.9052 10.2894L10.9223 10.3008L10.9375 10.3104L10.9546 10.3218L10.9698 10.3314L10.987 10.339L11.0021 10.3486L11.0192 10.3562L11.0364 10.3639L11.0535 10.3715L11.0706 10.3773L11.0878 10.3849L11.1257 10.3963L11.1428 10.4021L11.1999 10.4135L11.2208 10.4155L11.2399 10.4193H11.2589L11.2798 10.4212H11.3216L11.3425 10.4193L11.3616 10.4155L11.3786 10.4116L11.3957 10.4078L11.411 10.4021L11.4243 10.3944L11.4396 10.383L11.4509 10.3696L11.4585 10.3543L11.4643 10.3371L11.4662 10.318V10.3142L11.4643 10.2913L11.4566 10.2722L11.4471 10.2588L11.4338 10.2474L11.4185 10.2359L11.4034 10.2283L11.3863 10.2206L11.3672 10.213L11.3444 10.2034L11.3311 10.1996L11.316 10.1958L11.2988 10.19L11.2817 10.1862L11.2627 10.1805L11.2436 10.1767L11.2227 10.1709L11.2037 10.1671L11.1828 10.1614L11.1638 10.1576L11.1447 10.1519L11.1257 10.148L11.1067 10.1423L11.0895 10.1366L11.0706 10.1327L11.0364 10.1213L11.0192 10.1156L10.9983 10.1079L10.9793 10.1003L10.9412 10.085L10.9242 10.0754L10.9052 10.0659L10.8899 10.0563L10.8728 10.0468L10.8576 10.0353L10.8424 10.0258L10.8291 10.0143L10.8157 10.001L10.8025 9.98757L10.791 9.97419L10.7797 9.96083L10.7701 9.94747L10.7607 9.93218L10.7511 9.915L10.7435 9.90175L10.7378 9.88646L10.7321 9.86926L10.7264 9.85399L10.7226 9.83487L10.7188 9.81768L10.7168 9.79859L10.715 9.77948L10.713 9.75849V9.71454L10.715 9.69545L10.7168 9.67826L10.7188 9.65915L10.7264 9.62478L10.7321 9.60757L10.736 9.59039L10.7435 9.5732L10.7588 9.53883L10.7682 9.52162L10.7777 9.50445L10.7891 9.48915L10.8006 9.47387L10.8138 9.4586L10.8272 9.44524L10.8405 9.42994L10.8557 9.41656L10.869 9.40702L10.8843 9.39555L10.8995 9.38409L10.9146 9.37455L10.9318 9.365L10.9489 9.35735L10.966 9.34781L10.9831 9.34018L11.0021 9.33443L11.0211 9.3268L11.0383 9.32107L11.0535 9.31723L11.0878 9.30961L11.1067 9.30579L11.1238 9.30196L11.1999 9.29433H11.2817L11.3235 9.29814H11.3425L11.3635 9.30006L11.3825 9.30388L11.4034 9.30579L11.4224 9.30961L11.4396 9.31342L11.4585 9.31723L11.4775 9.32107L11.4946 9.32488L11.5137 9.33061L11.5308 9.33635L11.5479 9.34018L11.567 9.34781L11.5841 9.35354L11.6182 9.36881L11.6373 9.37646L11.6544 9.38601L11.6695 9.39366L11.6867 9.4032L11.7038 9.41275L11.719 9.42231L11.7362 9.43378L11.7514 9.4433L11.7666 9.45478L11.797 9.47769L11.7856 9.49298L11.7761 9.50826L11.7647 9.52354L11.7533 9.53883L11.7419 9.55601L11.7324 9.57128L11.7209 9.58658L11.7095 9.60186L11.7 9.61713L11.6886 9.63243L11.6772 9.64771L11.6676 9.66298L11.6563 9.68017L11.6448 9.69545L11.6335 9.71073L11.6239 9.726L11.6126 9.74128L11.5973 9.72984L11.5802 9.72027L11.565 9.71073L11.5498 9.69926L11.5327 9.69164L11.5174 9.68207L11.5003 9.67442L11.4852 9.66679L11.468 9.65915L11.4528 9.65152L11.4357 9.64579L11.4205 9.63814L11.3995 9.63243L11.3806 9.62668L11.3616 9.62097L11.3235 9.61332L11.3045 9.60948L11.2855 9.60757L11.2664 9.60567L11.2493 9.60375H11.2075L11.1866 9.60757L11.1675 9.6114L11.1505 9.61521L11.1353 9.62286L11.1219 9.63049L11.1048 9.64579L11.0934 9.66298L11.0859 9.68017L11.0839 9.69926V9.7031L11.0859 9.72792L11.0953 9.74893L11.1029 9.76039L11.1162 9.77377L11.1334 9.78332L11.1485 9.79286L11.1675 9.80051L11.1885 9.80816L11.2114 9.81578L11.2265 9.8196L11.2417 9.82533L11.2589 9.82914L11.276 9.83487L11.2949 9.83871L11.3369 9.85015L11.3578 9.8559L11.3786 9.85972L11.3976 9.86545L11.4185 9.87118L11.4376 9.87499L11.4756 9.88646L11.4927 9.89219L11.5118 9.89792L11.546 9.90938L11.567 9.9169L11.5859 9.92647L11.6049 9.93409L11.6239 9.94364L11.6411 9.95321L11.6582 9.96275L11.6734 9.9723L11.6886 9.98376L11.7038 9.9933L11.719 10.0067L11.7343 10.02L11.7475 10.0353L11.7609 10.0487L11.7722 10.064L11.7837 10.0812L11.7931 10.0964L11.8027 10.1137L11.8103 10.1289L11.8161 10.1461L11.8217 10.1633L11.8255 10.1805L11.8331 10.2187L11.8351 10.2378L11.837 10.2588V10.3047L11.8351 10.3257ZM9.41182 10.7076V9.31723H10.5109V9.63243H9.77495V9.85972H10.4367V10.1557H9.77495V10.3925H10.5205V10.7076H9.41182ZM8.76404 10.7076V9.88543L8.75452 9.90071L8.74316 9.91803L8.7336 9.93331L8.72226 9.9486L8.71272 9.96578L8.70123 9.98107L8.69182 9.99635L8.68225 10.0136L8.67092 10.0289L8.66135 10.0442L8.64991 10.0595L8.64047 10.0768L8.62901 10.0921L8.61957 10.1074L8.61 10.1245L8.59854 10.1399L8.5891 10.1552L8.57764 10.1724L8.56822 10.1877L8.55676 10.203L8.54732 10.2203L8.53776 10.2356L8.52632 10.2508L8.51688 10.268L8.50542 10.2834L8.49598 10.2987L8.48451 10.314L8.47495 10.3312L8.46551 10.3465L8.45407 10.3618L8.44463 10.379L8.43317 10.3943L8.42362 10.4096L8.41227 10.4269L8.40272 10.4422H8.39518L8.38374 10.425L8.37417 10.4096L8.36282 10.3924L8.35327 10.3771L8.34192 10.36L8.33237 10.3445L8.32104 10.3274L8.31147 10.3121L8.30001 10.2949L8.29057 10.2796L8.27911 10.2623L8.26969 10.247L8.25823 10.2298L8.24866 10.2145L8.23733 10.1972L8.22776 10.182L8.21643 10.1648L8.20496 10.1495L8.19542 10.1322L8.18406 10.1169L8.17452 10.0997L8.16316 10.0844L8.15362 10.0671L8.14226 10.0519L8.13272 10.0347L8.12125 10.0194L8.11182 10.0022L8.10035 9.98678L8.09092 9.96961L8.07945 9.95431L8.06991 9.93712L8.05857 9.92186L8.04899 9.90454L8.03765 9.88927V10.7076H7.67631V9.31723H8.0662L8.07564 9.33253L8.08518 9.3497L8.09652 9.36487L8.10609 9.38207L8.11563 9.39734L8.12507 9.41456L8.13461 9.42971L8.14599 9.44692L8.15551 9.4622L8.16508 9.47747L8.17452 9.49454L8.18406 9.50984L8.19542 9.52701L8.20496 9.54231L8.21451 9.55937L8.22395 9.57465L8.23541 9.58992L8.24498 9.60703L8.25439 9.62229L8.26394 9.63948L8.2734 9.65478L8.28486 9.67184L8.2944 9.68714L8.30382 9.70431L8.31339 9.71948L8.32283 9.73476L8.33429 9.75195L8.34383 9.76725L8.35327 9.78444L8.36282 9.79961L8.37226 9.81681L8.38374 9.83208L8.39328 9.84915L8.40272 9.86445L8.41227 9.84915L8.42181 9.83208L8.43317 9.81681L8.44269 9.79961L8.45215 9.78444L8.4617 9.76725L8.47305 9.75195L8.4826 9.73476L8.49216 9.71948L8.50158 9.70431L8.51304 9.68714L8.52248 9.67184L8.53205 9.65478L8.54157 9.63948L8.55293 9.62229L8.56247 9.60703L8.57204 9.58992L8.58146 9.57465L8.59104 9.55937L8.60238 9.54231L8.61192 9.52701L8.62147 9.50984L8.63093 9.49454L8.64237 9.47747L8.65183 9.4622L8.66135 9.44692L8.67092 9.42971L8.68225 9.41456L8.69182 9.39734L8.70123 9.38207L8.7108 9.36487L8.72226 9.3497L8.7317 9.33253L8.74125 9.31723H9.13101V10.7076H8.76404ZM6.90564 10.1347L6.89991 10.1174L6.89239 10.0983L6.88474 10.0811L6.87901 10.0638L6.87149 10.0466L6.86386 10.0275L6.85811 10.0102L6.85046 9.99296L6.84296 9.97579L6.83721 9.95849L6.82956 9.93938L6.82396 9.92218L6.81631 9.90488L6.80866 9.88769L6.80295 9.8705L6.79541 9.8513L6.78778 9.83409L6.78205 9.81691L6.7744 9.79961L6.76688 9.7805L6.76115 9.7632L6.7535 9.74601L6.74598 9.7632L6.74027 9.7805L6.73262 9.79961L6.72497 9.81691L6.71935 9.83409L6.71172 9.8513L6.70407 9.8705L6.69655 9.88769L6.6908 9.90488L6.68317 9.92218L6.67552 9.93938L6.6699 9.95849L6.66227 9.97579L6.65462 9.99296L6.64891 10.0102L6.64137 10.0275L6.63372 10.0466L6.62609 10.0638L6.62049 10.0811L6.61284 10.0983L6.60519 10.1174L6.59946 10.1347L6.59194 10.1519H6.91327L6.90564 10.1347ZM7.13003 10.7076L7.12249 10.6904L7.11676 10.6732L7.10913 10.656L7.10148 10.6369L7.09586 10.6198L7.08058 10.5854L7.07496 10.5683L7.06733 10.5511L7.05968 10.5339L7.05397 10.5167L7.04643 10.4976L7.03878 10.4804L7.03305 10.4632L7.0254 10.446H6.47968L6.47216 10.4632L6.46643 10.4804L6.45878 10.4976L6.45115 10.5167L6.44553 10.5339L6.4379 10.5511L6.43025 10.5683L6.42452 10.5854L6.417 10.6026L6.40935 10.6198L6.40362 10.6369L6.39608 10.656L6.38845 10.6732L6.38272 10.6904L6.37507 10.7076H5.99104L5.99856 10.6904L6.00621 10.6732L6.01383 10.656L6.02138 10.6369L6.02711 10.6198L6.03476 10.6026L6.04238 10.5854L6.0499 10.5683L6.05755 10.5511L6.0652 10.5319L6.07272 10.5148L6.08037 10.4976L6.08608 10.4804L6.09373 10.4632L6.10125 10.446L6.1089 10.4269L6.11653 10.4097L6.12407 10.3925L6.13172 10.3753L6.13935 10.3581L6.14508 10.3409L6.1526 10.3218L6.1679 10.2875L6.17542 10.2703L6.19071 10.2359L6.19823 10.2168L6.20397 10.1996L6.21161 10.1824L6.21924 10.1652L6.22678 10.148L6.23441 10.1308L6.24204 10.1117L6.24958 10.0945L6.25721 10.0774L6.26294 10.0602L6.27059 10.043L6.27811 10.0258L6.28576 10.0067L6.29341 9.98949L6.30093 9.9723L6.30855 9.9551L6.3162 9.93793L6.32193 9.92071L6.32948 9.90365L6.3371 9.88454L6.34473 9.86737L6.35227 9.85015L6.3599 9.83296L6.36755 9.81578L6.37507 9.79859L6.3808 9.77948L6.38845 9.76231L6.39608 9.74511L6.40362 9.72792L6.41127 9.71073L6.4189 9.69353L6.42644 9.67442L6.43407 9.65725L6.4398 9.64006L6.44742 9.62286L6.45497 9.60567L6.46259 9.58848L6.47024 9.56939L6.47776 9.55219L6.49306 9.51781L6.49866 9.50063L6.50631 9.48342L6.51396 9.46433L6.52161 9.44713L6.52913 9.42994L6.53678 9.41275L6.54441 9.39555L6.55193 9.37838L6.55768 9.35927L6.56531 9.34208L6.57296 9.32488L6.58048 9.30769H6.93228L6.9399 9.32488L6.94755 9.34208L6.95509 9.35927L6.96272 9.37838L6.96845 9.39555L6.97597 9.41275L6.98362 9.42994L6.99125 9.44713L6.9989 9.46433L7.00642 9.48342L7.02172 9.51781L7.02732 9.535L7.04262 9.56939L7.05027 9.58848L7.05779 9.60567L7.06541 9.62286L7.07306 9.64006L7.08058 9.65725L7.08632 9.67442L7.09394 9.69353L7.10148 9.71073L7.10913 9.72792L7.11676 9.74511L7.12441 9.76231L7.13193 9.77948L7.13956 9.79859L7.14531 9.81578L7.15283 9.83296L7.17576 9.88454L7.18328 9.90365L7.19093 9.92071L7.19855 9.93793L7.20418 9.9551L7.2118 9.9723L7.21945 9.98949L7.227 10.0067L7.23462 10.0258L7.24992 10.0602L7.25744 10.0774L7.26317 10.0945L7.2708 10.1117L7.27834 10.1308L7.28597 10.148L7.29362 10.1652L7.30125 10.1824L7.30879 10.1996L7.31644 10.2168L7.32215 10.2359L7.32969 10.2531L7.33732 10.2703L7.34496 10.2875L7.35249 10.3047L7.36013 10.3218L7.36778 10.3409L7.37543 10.3581L7.38103 10.3753L7.39633 10.4097L7.40385 10.4269L7.41148 10.446L7.41913 10.4632L7.42676 10.4804L7.43428 10.4976L7.44003 10.5148L7.44768 10.5319L7.4552 10.5511L7.47045 10.5854L7.478 10.6026L7.48562 10.6198L7.49327 10.6369L7.49903 10.656L7.50653 10.6732L7.51417 10.6904L7.5218 10.7076H7.13003ZM5.83689 10.53L5.82162 10.5415L5.80834 10.5511L5.79307 10.5625L5.7779 10.5721L5.76273 10.5835L5.74745 10.5931L5.73228 10.6026L5.71509 10.6122L5.68091 10.6313L5.66374 10.6388L5.64665 10.6484L5.62767 10.656L5.61061 10.6636L5.59149 10.6713L5.57443 10.6789L5.55732 10.6846L5.54015 10.6904L5.52306 10.6961L5.50408 10.7018L5.48701 10.7076L5.4679 10.7114L5.45081 10.7152L5.43183 10.719L5.41274 10.7228L5.39374 10.7248L5.37284 10.7267L5.35385 10.7286L5.33295 10.7305L5.31384 10.7324L5.29296 10.7343H5.21115L5.19216 10.7324L5.17126 10.7305L5.11419 10.7248L5.0762 10.7171L5.05913 10.7133L5.04004 10.7095L5.02295 10.7038L5.00397 10.6999L4.98678 10.6942L4.96969 10.6866L4.9526 10.6808L4.93364 10.6732L4.91645 10.6656L4.89936 10.6579L4.8823 10.6503L4.86508 10.6407L4.84993 10.6313L4.83285 10.6217L4.81757 10.6122L4.8024 10.6026L4.78712 10.5912L4.75676 10.5683L4.7434 10.5568L4.73015 10.5453L4.71677 10.5319L4.70352 10.5205L4.69014 10.5071L4.67689 10.4937L4.66543 10.4804L4.65407 10.4651L4.64261 10.4517L4.63306 10.4365L4.62171 10.4212L4.61218 10.4059L4.60272 10.3906L4.59318 10.3734L4.58363 10.3581L4.57611 10.3409L4.56846 10.3238L4.56084 10.3066L4.55329 10.2894L4.54756 10.2741L4.53991 10.2569L4.5361 10.2397L4.53048 10.2225L4.52666 10.2034L4.52093 10.1862L4.51712 10.1671L4.5152 10.1499L4.51137 10.1308L4.50949 10.1137L4.50755 10.0945L4.50576 10.0754L4.50387 10.0563V9.9933L4.50576 9.9723V9.95321L4.50755 9.93409L4.50949 9.91309L4.5133 9.8941L4.5152 9.87499L4.51901 9.8578L4.52475 9.83871L4.52858 9.8196L4.53418 9.8024L4.53991 9.78332L4.54565 9.76612L4.55329 9.74701L4.56084 9.72984L4.56846 9.71264L4.57611 9.69545L4.58363 9.67826L4.59318 9.66106L4.60272 9.64579L4.61218 9.63049L4.62171 9.61521L4.63127 9.59994L4.64261 9.58466L4.65407 9.56939L4.66543 9.55411L4.67689 9.54071L4.69014 9.52735L4.7016 9.51397L4.72823 9.48723L4.74149 9.47579L4.75676 9.46241L4.77004 9.45095L4.78521 9.43949L4.80048 9.42994L4.81565 9.41848L4.83095 9.40893L4.8461 9.39939L4.86318 9.38982L4.88038 9.38028L4.89744 9.37073L4.91453 9.36308L4.9317 9.35546L4.95071 9.34589L4.96588 9.34018L4.98486 9.33443L5.00208 9.3268L5.01914 9.32297L5.03621 9.31723L5.0553 9.31342L5.07238 9.30769L5.09137 9.30388L5.11037 9.30196L5.12946 9.29814L5.20554 9.2905H5.28721L5.32914 9.29433H5.34812L5.3671 9.29623L5.388 9.30006L5.4052 9.30196L5.42418 9.30579L5.44319 9.30961L5.46036 9.31342L5.49453 9.32107L5.51173 9.3268L5.52879 9.33061L5.54396 9.33635L5.56116 9.34208L5.57824 9.3497L5.59531 9.35735L5.6125 9.365L5.62959 9.37455L5.64665 9.38219L5.66195 9.39174L5.67902 9.40128L5.69419 9.41083L5.71138 9.4204L5.72655 9.43184L5.74172 9.4414L5.757 9.45287L5.77217 9.46433L5.78744 9.47769L5.80261 9.48915L5.79115 9.50445L5.7779 9.51781L5.76643 9.53308L5.75318 9.54836L5.74172 9.56365L5.73036 9.57701L5.71698 9.59229L5.70565 9.60757L5.69419 9.62097L5.68091 9.63624L5.66947 9.65152L5.6562 9.66679L5.64474 9.68017L5.6334 9.69545L5.62004 9.71073L5.60867 9.726L5.59531 9.73938L5.58395 9.75466L5.56868 9.7432L5.55351 9.72984L5.53823 9.72027L5.52306 9.70881L5.50789 9.69926L5.47742 9.68017L5.46036 9.67061L5.44508 9.66298L5.42991 9.65533L5.41464 9.6496L5.38048 9.63814L5.36329 9.63433L5.34431 9.63049L5.32532 9.62668L5.30632 9.62478L5.28542 9.62286L5.26441 9.62097H5.22453L5.20554 9.62286L5.18835 9.62478L5.16937 9.62859L5.15228 9.63243L5.13509 9.63814L5.11802 9.64387L5.10093 9.65152L5.08385 9.65915L5.06857 9.66869L5.05342 9.67826L5.03812 9.68782L5.02487 9.69926L5.01149 9.71073L4.99824 9.72219L4.98678 9.73555L4.97353 9.74893L4.96206 9.7642L4.9526 9.77758L4.94306 9.79286L4.93364 9.81005L4.92408 9.82533L4.91645 9.84252L4.91072 9.85972L4.90317 9.87691L4.89744 9.896L4.89363 9.915L4.88982 9.93218L4.88598 9.95321L4.88409 9.9723L4.8823 9.99139V10.0353L4.88409 10.0544L4.88598 10.0716L4.8879 10.0907L4.89936 10.1423L4.90509 10.1595L4.91072 10.1748L4.91837 10.1939L4.92599 10.2111L4.93543 10.2283L4.95452 10.2588L4.96588 10.2741L4.97734 10.2875L4.99059 10.3008L5.00208 10.3142L5.01531 10.3257L5.0306 10.3371L5.04577 10.3486L5.06092 10.3581L5.0762 10.3677L5.11037 10.383L5.12754 10.3906L5.16553 10.4021L5.20363 10.4097L5.22261 10.4116L5.24351 10.4135H5.28721L5.32914 10.4097L5.34812 10.4078L5.3671 10.404L5.38621 10.4002L5.4052 10.3944L5.42226 10.3906L5.43937 10.383L5.45465 10.3753L5.47171 10.3677L5.48507 10.3601L5.50026 10.3505V10.1767H5.22261V9.89792H5.85014V10.5186L5.83689 10.53Z" fill="#1D1D1F"/>
  <path d="M5.22534 6.17099H6.0495V5.53349H5.22534V4.23202H6.08231V3.59451H4.52547V8.19547H6.09535V7.55794H5.22534V6.17099Z" fill="#1D1D1F"/>
  <path d="M11.129 6.30946V7.34798C11.129 7.53204 11.0439 7.61743 10.8674 7.61743H10.7365C10.5533 7.61743 10.4683 7.53204 10.4683 7.34798V4.44271C10.4683 4.25867 10.5533 4.17328 10.7365 4.17328H10.8542C11.0308 4.17328 11.1159 4.25867 11.1159 4.44271V5.34328H11.8027V4.40327C11.8027 3.8315 11.5279 3.55542 10.959 3.55542H10.6187C10.0497 3.55542 9.76838 3.83802 9.76838 4.4099V7.38079C9.76838 7.9527 10.0497 8.23527 10.6187 8.23527H10.9655C11.5346 8.23527 11.8158 7.9527 11.8158 7.38079V6.30946H11.129Z" fill="#1D1D1F"/>
  <path d="M8.69812 8.1959H9.39809V3.59492H8.69812V8.1959Z" fill="#1D1D1F"/>
  <path d="M7.68209 5.63866C7.68209 5.82272 7.59714 5.90822 7.42052 5.90822H7.13266V4.21238H7.42052C7.59714 4.21238 7.68209 4.2978 7.68209 4.48181V5.63866ZM7.53165 3.59452H6.43277V8.1955H7.13266V6.52596H7.53165C8.10074 6.52596 8.38197 6.24338 8.38197 5.6716V4.449C8.38197 3.87712 8.10074 3.59452 7.53165 3.59452Z" fill="#1D1D1F"/>
  <path fill-rule="evenodd" clip-rule="evenodd" d="M6.17655 12.3561H10.1831L8.13811 13.0305L6.17655 12.3561Z" fill="#1D1D1F"/>
</svg>