<svg xmlns="http://www.w3.org/2000/svg" width="16" height="16" viewBox="0 0 16 16" fill="none">
  <path d="M10.2005 2C10.2284 2 10.2563 2 10.2859 2C10.3544 2.84628 10.0313 3.47862 9.63876 3.93654C9.25356 4.3913 8.72608 4.83236 7.87295 4.76543C7.81604 3.93127 8.13958 3.34583 8.53163 2.88896C8.89523 2.46319 9.56182 2.08431 10.2005 2Z" fill="white"/>
  <path d="M12.7834 10.8083C12.7834 10.8167 12.7834 10.8241 12.7834 10.832C12.5436 11.5581 12.2016 12.1804 11.7843 12.758C11.4033 13.2823 10.9364 13.9879 10.1028 13.9879C9.38242 13.9879 8.90395 13.5247 8.16569 13.512C7.38475 13.4994 6.95529 13.8994 6.24127 14C6.15959 14 6.07791 14 5.99782 14C5.4735 13.9241 5.05036 13.5089 4.7421 13.1347C3.83311 12.0292 3.13068 10.6012 3 8.77371C3 8.59455 3 8.41591 3 8.23675C3.05533 6.92886 3.69083 5.86547 4.53553 5.35012C4.98133 5.0761 5.59417 4.84266 6.27657 4.947C6.56903 4.99232 6.86781 5.09244 7.12971 5.19151C7.3779 5.28688 7.68827 5.45603 7.98231 5.44708C8.1815 5.44128 8.37963 5.33747 8.5804 5.26422C9.16848 5.05186 9.74496 4.80841 10.5048 4.92276C11.418 5.06082 12.0662 5.46657 12.4667 6.09259C11.6941 6.58423 11.0834 7.32513 11.1877 8.59033C11.2805 9.73961 11.9487 10.412 12.7834 10.8083Z" fill="white"/>
</svg>