<svg xmlns="http://www.w3.org/2000/svg" width="16" height="16" viewBox="0 0 16 16" fill="none">
  <path fill-rule="evenodd" clip-rule="evenodd" d="M5.04763 5.7334C4.83658 5.7334 4.66667 5.9033 4.66667 6.11436C4.66667 6.32541 4.83658 6.49531 5.04763 6.49531C5.25868 6.49531 5.42859 6.32541 5.42859 6.11436C5.42859 5.9033 5.25868 5.7334 5.04763 5.7334ZM1.83572 6.8334C1.37274 6.8334 1 7.20613 1 7.66912V9.11198C1 9.30325 1.15397 9.45722 1.34524 9.45722C1.53651 9.45722 1.69049 9.30325 1.69049 9.11198V7.80007C1.69049 7.64969 1.81154 7.52863 1.96192 7.52863C2.1123 7.52863 2.23335 7.64969 2.23335 7.80007V9.11198C2.23335 9.3032 2.38727 9.45722 2.5785 9.45722C2.76971 9.45722 2.92364 9.3032 2.92364 9.11198V7.80007C2.92364 7.64969 3.0447 7.52863 3.19508 7.52863C3.34545 7.52863 3.46647 7.64969 3.46651 7.80007L3.46672 8.50483C3.46687 9.03773 3.89574 9.46674 4.42862 9.46674C4.96152 9.46674 5.39053 9.03772 5.39053 8.50483V7.30245C5.39053 7.11118 5.23656 6.9572 5.04529 6.9572C4.85402 6.9572 4.70004 7.11118 4.70004 7.30245V8.49055C4.70004 8.64093 4.57899 8.76199 4.42861 8.76199C4.27823 8.76199 4.15722 8.64093 4.15717 8.49055L4.15697 7.66912C4.15686 7.20614 3.78425 6.8334 3.32125 6.8334C3.05942 6.8334 2.82347 6.9514 2.67061 7.13992C2.65141 7.16359 2.62362 7.18578 2.57848 7.18578C2.53335 7.18578 2.50555 7.16359 2.48636 7.13992C2.33351 6.95139 2.09755 6.8334 1.83572 6.8334Z" fill="white"/>
  <path fill-rule="evenodd" clip-rule="evenodd" d="M6.28323 5.94303C6.09196 5.94303 5.93799 6.09701 5.93799 6.28828V9.1121C5.93799 9.30337 6.09196 9.45734 6.28323 9.45734C6.4745 9.45734 6.62847 9.30337 6.62847 9.1121V8.18591C6.62847 8.09885 6.69856 8.02877 6.78561 8.02877H7.15705C7.24411 8.02877 7.31419 8.09886 7.31419 8.18591V9.1121C7.31419 9.30337 7.46816 9.45734 7.65943 9.45734C7.8507 9.45734 8.00467 9.30337 8.00467 9.1121V6.28828C8.00467 6.09701 7.8507 5.94303 7.65943 5.94303C7.46816 5.94303 7.31419 6.09701 7.31419 6.28828V7.14304C7.31419 7.2301 7.2441 7.30018 7.15705 7.30018H6.78561C6.69855 7.30018 6.62847 7.23009 6.62847 7.14304V6.28828C6.62847 6.09701 6.4745 5.94303 6.28323 5.94303Z" fill="white"/>
  <path fill-rule="evenodd" clip-rule="evenodd" d="M10.8238 5.94303C10.7142 5.94303 10.6072 6.08113 10.7052 6.21716L11.3857 7.44781V9.11214C11.3857 9.30341 11.5397 9.45739 11.731 9.45739C11.9222 9.45739 12.0762 9.30341 12.0762 9.11214V7.44781L12.7567 6.21716C12.8548 6.08113 12.7476 5.94303 12.6382 5.94303H12.2847C12.2371 5.94303 12.1799 5.9746 12.1571 6.01636L11.7781 6.70971C11.7685 6.72729 11.7517 6.73352 11.7333 6.73352C11.7149 6.73352 11.6968 6.72726 11.6871 6.70971L11.3046 6.01636C11.2816 5.97469 11.2248 5.94303 11.1773 5.94303H10.8238Z" fill="white"/>
  <path fill-rule="evenodd" clip-rule="evenodd" d="M8.62141 6.64304C8.60236 6.64304 8.59046 6.73351 8.59046 6.85732C8.59046 6.98113 8.61427 7.10018 8.63808 7.10018C8.66189 7.10018 8.66189 7.0859 8.77618 6.9859C8.89046 6.88589 8.90951 6.88589 8.90951 6.85732C8.90951 6.82875 8.86665 6.80494 8.76665 6.73351C8.66665 6.66208 8.64046 6.64304 8.62141 6.64304ZM10.6262 6.64304C10.6072 6.64304 10.581 6.66208 10.481 6.73351C10.381 6.80494 10.3381 6.82875 10.3381 6.85732C10.3381 6.8859 10.3572 6.8859 10.4715 6.9859C10.5858 7.0859 10.5858 7.10018 10.6096 7.10018C10.6334 7.10018 10.6572 6.98114 10.6572 6.85732C10.6572 6.73351 10.6453 6.64304 10.6262 6.64304ZM9.62383 6.84304C8.99277 6.84304 8.48096 7.42961 8.48096 8.15257C8.48096 8.8758 8.99264 9.4621 9.62383 9.4621C10.255 9.4621 10.7667 8.8758 10.7667 8.15257C10.7667 7.42961 10.2549 6.84304 9.62383 6.84304ZM9.62383 7.49543C9.93908 7.49543 10.1953 7.79044 10.1953 8.15259C10.1953 8.51552 9.93943 8.80974 9.62383 8.80974C9.30824 8.80974 9.05241 8.51552 9.05241 8.15259C9.0524 7.79046 9.30859 7.49543 9.62383 7.49543Z" fill="white"/>
  <path fill-rule="evenodd" clip-rule="evenodd" d="M14.6905 6.71899C14.4956 6.71899 14.4 6.80471 14.3428 6.84756C14.2857 6.89042 14.2381 6.93328 14.1857 6.93328C14.0524 6.93328 13.9571 6.8428 13.6905 6.8428C13.0593 6.8428 12.5476 7.4291 12.5476 8.15233C12.5476 8.87556 13.0593 9.46186 13.6905 9.46186C14.3216 9.46186 14.8333 8.87556 14.8333 8.15233C14.8333 7.88854 14.7638 7.63091 14.6339 7.41317C14.612 7.35709 14.6048 7.29995 14.6048 7.18804C14.6049 7.03329 14.6795 6.91934 14.7619 6.86186C14.8444 6.80437 14.9143 6.79043 15 6.7809C14.9095 6.73804 14.8047 6.71899 14.6905 6.71899ZM13.6905 7.49519C14.0057 7.49462 14.2619 7.7894 14.2619 8.15234C14.2619 8.51528 14.006 8.80949 13.6905 8.80949C13.3749 8.80949 13.119 8.51528 13.119 8.15234C13.119 7.79021 13.3752 7.49576 13.6905 7.49519Z" fill="white"/>
</svg>