<svg xmlns="http://www.w3.org/2000/svg" width="16" height="16" viewBox="0 0 16 16" fill="none">
  <path d="M8.25304 1.51746C8.32445 1.47777 8.43018 1.50737 8.45475 1.58984C8.48126 1.65784 8.43539 1.72014 8.39781 1.77285C8.13218 2.14926 7.95584 2.58651 7.87256 3.03905C7.82213 3.06052 7.80749 3.11355 7.82311 3.16349C7.848 3.17244 7.87305 3.18057 7.89842 3.18822C8.41408 3.14299 8.93722 3.15243 9.4449 3.26077C10.3687 3.44653 11.232 3.91371 11.8957 4.58146C12.5572 5.24255 13.0216 6.09899 13.2095 7.01513C13.4177 8.00724 13.3014 9.06345 12.8847 9.9874C12.0012 11.8742 10.5118 13.4703 8.68948 14.4819C8.63075 14.5092 8.546 14.5104 8.50582 14.4518C8.45832 14.3906 8.47785 14.3035 8.52486 14.2478C8.77065 13.9051 8.94226 13.5111 9.03547 13.1002C9.05336 13.015 9.07793 12.9288 9.07061 12.8409C9.04051 12.8019 8.99074 12.8137 8.94861 12.815C8.06402 12.9035 7.15373 12.7456 6.35455 12.3552C5.49826 11.943 4.77179 11.2691 4.29143 10.4499C3.84637 9.69622 3.61246 8.81847 3.62872 7.94299C3.63181 7.13958 3.85109 6.34267 4.23743 5.63929C5.13665 3.91404 6.54844 2.458 8.25304 1.51746ZM8.20342 6.12811C7.6772 6.19871 7.1918 6.50761 6.8972 6.94763C6.69777 7.24986 6.57691 7.60887 6.57935 7.97227C6.56439 8.4593 6.75861 8.94698 7.09533 9.29769C7.38944 9.61424 7.79806 9.8205 8.22652 9.87564C8.6628 9.93339 9.11827 9.83124 9.48769 9.59163C9.86328 9.35348 10.1494 8.97739 10.2774 8.55137C10.5177 7.81188 10.2296 6.94551 9.60285 6.48858C9.20904 6.18911 8.69289 6.05621 8.20342 6.12811Z" fill="white"/>
</svg>