<svg xmlns="http://www.w3.org/2000/svg" width="16" height="16" viewBox="0 0 16 16" fill="none">
  <path d="M8 3.77563C7.24581 3.32623 6.35979 3.00786 5.41425 2.87723L5.3775 2.87324C5.34953 2.87124 5.31678 2.87004 5.28402 2.87004C5.03915 2.87004 4.80945 2.93395 4.61012 3.04621L4.61691 3.04261C5.55846 2.38988 6.7249 2 7.98282 2C7.98602 2 7.98921 2 7.99241 2H8C8.002 2 8.00439 2 8.00719 2C9.26831 2 10.4383 2.38988 11.4031 3.05539L11.3831 3.04221C11.1921 2.93356 10.9632 2.86924 10.7192 2.86924C10.6852 2.86924 10.6517 2.87044 10.6185 2.87284L10.6229 2.87244C9.64061 3.00666 8.75459 3.32383 7.96724 3.79001L8 3.77204V3.77563ZM3.82716 3.71292C3.81079 3.71851 3.7964 3.7257 3.78322 3.73449L3.78402 3.73409C2.68229 4.82184 2 6.33222 2 8.002C2 9.43369 2.50173 10.7483 3.33941 11.7798L3.33063 11.7686C2.62996 10.4659 5.12024 6.79321 6.37057 5.31358C4.96045 3.90706 4.26258 3.69095 3.96778 3.69095C3.96378 3.69095 3.95939 3.69055 3.95499 3.69055C3.90905 3.69055 3.86511 3.69893 3.82477 3.71451L3.82716 3.71372V3.71292ZM9.63103 5.31358C10.881 6.79401 13.3728 10.4699 12.669 11.7694C13.4979 10.7491 14 9.43449 14 8.0024C14 6.33222 13.3173 4.82184 12.2156 3.73449L12.2148 3.73369C12.2032 3.7253 12.1896 3.71811 12.1748 3.71292L12.1736 3.71252C12.1337 3.69814 12.0873 3.69015 12.0394 3.69015C12.0374 3.69015 12.035 3.69015 12.033 3.69015C11.737 3.69015 11.0407 3.90746 9.63103 5.31358ZM4.05087 12.5164C5.10027 13.4376 6.48482 14 8.0008 14C9.51678 14 10.9013 13.4379 11.9575 12.5108L11.9507 12.5168C12.8891 11.5609 9.79281 8.16218 8 6.80839C6.20919 8.16258 3.11052 11.5605 4.05087 12.5164Z" fill="white"/>
</svg>