<svg xmlns="http://www.w3.org/2000/svg" width="16" height="16" viewBox="0 0 16 16" fill="none">
  <path d="M6.70757 6.56588H7.77263C8.25504 6.56588 8.6748 6.41552 8.6748 5.87046C8.6748 5.44444 8.30516 5.35046 7.95432 5.35046H6.96444L6.70757 6.56588Z" fill="white"/>
  <path d="M8.78757 11.6468L10.0281 10.9076L11.0054 11.6656L10.8237 10.4252L11.8387 9.71721H10.7109L10.5167 8.49552L9.80251 9.70468H8.66853L9.35769 10.4314L8.78757 11.6468Z" fill="white"/>
  <path fill-rule="evenodd" clip-rule="evenodd" d="M12.1461 14.2351C13.3302 14.2351 14.2574 13.3392 14.2574 12.1864H14.2637V4.3864C14.2637 3.22736 13.349 2.3252 12.1774 2.3252H3.39379C2.19717 2.3252 1.26367 3.23363 1.26367 4.3864V12.1864C1.26367 13.3392 2.18464 14.2413 3.36873 14.2351H12.1461ZM10.9177 9.4666H12.6155L11.0868 10.5379L11.3312 12.2232L10.003 11.202L8.22371 12.2608L9.05697 10.4753L8.09215 9.45407C8.02323 9.36636 8.00444 9.14082 8.00444 9.04685C8.00444 8.92724 8.01259 8.80492 8.0213 8.67419C8.03129 8.52416 8.04203 8.36305 8.04203 8.18227C8.04203 7.73745 7.84781 7.50564 7.37167 7.50564H6.48203L6.09359 9.3413H4.75914L5.8242 4.3042H8.33648C9.26998 4.3042 9.9842 4.536 9.9842 5.60733C9.9842 6.35914 9.61456 6.89793 8.80636 7.0107V7.02323C9.18853 7.11721 9.33263 7.37407 9.33263 7.86275C9.33263 8.05905 9.32733 8.23062 9.32236 8.39153C9.31797 8.5336 9.31383 8.66737 9.31383 8.80251C9.31383 8.97793 9.35769 9.25986 9.47046 9.45407H9.65841L10.6483 7.77504L10.9177 9.4666Z" fill="white"/>
</svg>