<svg xmlns="http://www.w3.org/2000/svg" width="16" height="16" viewBox="0 0 16 16" fill="none">
  <path d="M2.07466 7.16699C1.93247 7.16699 1.818 7.28146 1.818 7.42365V8.38612C1.818 8.52831 1.93247 8.64278 2.07466 8.64278H2.41687V8.83527H2.73769V8.64278H3.10129C3.24348 8.64278 3.35795 8.52831 3.35795 8.38612V7.42365C3.35795 7.28146 3.24348 7.16699 3.10129 7.16699H2.07466ZM2.13882 7.42365H3.01574V8.36473H2.73769V8.21501H2.41687V8.36473H2.13882V7.42365ZM0.299435 7.16699C0.157246 7.16699 0.0427764 7.28146 0.0427764 7.42365V7.76586C0.0427764 7.90805 0.157246 8.02252 0.299435 8.02252H1.28329V8.36473H0V8.38612C0 8.52831 0.11447 8.64278 0.256659 8.64278H1.30468C1.44687 8.64278 1.56134 8.52831 1.56134 8.38612V8.00113C1.56134 7.85894 1.44687 7.74447 1.30468 7.74447H0.320823V7.42365H1.24052V7.55198H1.53995V7.42365C1.53995 7.28146 1.42548 7.16699 1.28329 7.16699H0.299435ZM3.61461 7.16699V8.38612C3.61461 8.52831 3.72908 8.64278 3.87127 8.64278H4.79096C4.93315 8.64278 5.04762 8.52831 5.04762 8.38612V7.16699H4.72679V8.36473H3.93543V7.16699H3.61461ZM5.84968 7.18838L5.11178 8.64278H5.43261L5.59569 8.32196H6.42448L6.58757 8.64278H6.90839L6.1705 7.18838L6.1598 7.16699H5.86037L5.84968 7.18838ZM6.01009 7.50452L6.29483 8.0653H5.72537L6.01009 7.50452ZM7.05811 7.16699V8.64278H7.37893V8.08669H7.58212L8.11683 8.64278H8.54459L8.00988 8.08669H8.1703C8.31249 8.08669 8.42696 7.97222 8.42696 7.83003V7.42365C8.42696 7.28146 8.31249 7.16699 8.1703 7.16699H7.05811ZM7.37893 7.42365H8.02058C8.06798 7.42365 8.10613 7.46181 8.10613 7.5092V7.74447C8.10613 7.79187 8.06798 7.83003 8.02058 7.83003H7.37893V7.42365ZM8.705 7.16699V8.64278H9.94552V8.36473H9.02583V7.42365H9.94552V7.16699H8.705Z" fill="white"/>
  <path d="M9.30322 7.7438H9.83792V8.02185H9.30322V7.7438Z" fill="white"/>
  <path d="M10.63 7.16699V8.64278H11.8705V8.36473H10.9508V7.42365H11.8705V7.16699H10.63Z" fill="white"/>
  <path d="M11.229 7.7438H11.7637V8.02185H11.229V7.7438Z" fill="white"/>
  <path d="M12.1274 7.16699V8.64278H12.4268V7.59878L13.1968 8.51714L13.3024 8.64278H13.5176V7.16699H13.1968V8.16022L12.364 7.16699H12.1274ZM13.7743 7.16699H14.1165V8.64278H13.7743V7.16699ZM14.2863 7.16699L14.9286 7.88016L14.2823 8.64278H14.6672L15.1271 8.10072L15.615 8.64278H16L15.3136 7.88016L15.9184 7.16699H15.5335L15.115 7.66027L14.6713 7.16699H14.2863Z" fill="white"/>
</svg>