<svg xmlns="http://www.w3.org/2000/svg" width="16" height="16" viewBox="0 0 16 16" fill="none">
  <path d="M8.84283 6.45966C8.84283 5.8327 9.35113 5.3244 9.97769 5.3244C10.6042 5.3244 11.1125 5.8327 11.1125 6.45926C11.1125 7.08622 10.6046 7.59412 9.97769 7.59412C9.97769 7.59412 9.97768 7.59412 9.97728 7.59412C9.35073 7.59412 8.84283 7.08622 8.84283 6.45966C8.84283 6.45966 8.84243 6.45966 8.84243 6.45926L8.84283 6.45966ZM11.4841 6.46207C11.4841 5.62786 10.8079 4.9516 9.97368 4.9516C9.13947 4.9516 8.4632 5.62786 8.4632 6.46207C8.4632 7.29628 9.13947 7.97254 9.97368 7.97254C10.8075 7.97134 11.4829 7.29547 11.4841 6.46207ZM5.76616 11.1222L5.02816 10.8167C5.23822 11.2488 5.67396 11.5415 6.17785 11.5415C6.7058 11.5415 7.15918 11.2204 7.3524 10.7626L7.3556 10.7542C7.41774 10.6091 7.45422 10.4399 7.45422 10.2627C7.45422 9.55838 6.88338 8.98754 6.17905 8.98754C6.0167 8.98754 5.86157 9.01801 5.71886 9.07293L5.72768 9.07012L6.49053 9.3856C6.83207 9.53152 7.06738 9.86504 7.06738 10.2531C7.06738 10.7726 6.64607 11.1939 6.12654 11.1939C5.99666 11.1939 5.87319 11.1675 5.76055 11.1202L5.76656 11.1226L5.76616 11.1222ZM7.98978 2C4.84015 2.0004 2.25696 4.42365 2.0016 7.50713L2 7.52878L5.22218 8.86046C5.48996 8.67526 5.82148 8.56502 6.17905 8.56502C6.17946 8.56502 6.17986 8.56502 6.17986 8.56502C6.21152 8.56502 6.24239 8.56703 6.27406 8.56823L7.70717 6.49334V6.46367C7.70837 5.21296 8.72257 4.19957 9.97328 4.19957C11.2248 4.19957 12.2394 5.21416 12.2394 6.46568C12.2394 7.71719 11.2248 8.73179 9.97328 8.73179H9.92076L7.87874 10.1901C7.87874 10.2162 7.88074 10.2427 7.88074 10.2699C7.88074 10.2703 7.88074 10.2707 7.88074 10.2711C7.88074 11.21 7.11949 11.9712 6.18066 11.9712C5.36008 11.9712 4.675 11.3895 4.51585 10.6163L4.51385 10.6054L2.20685 9.65018C2.94485 12.1937 5.25385 14.0216 7.98938 14.0216C11.309 14.0216 14 11.3306 14 8.01102C14 4.69143 11.309 2.0004 7.98938 2.0004L7.98978 2Z" fill="white"/>
</svg>