<svg xmlns="http://www.w3.org/2000/svg" width="16" height="16" viewBox="0 0 16 16" fill="none">
  <path d="M1.60942 6.19549C1.57575 6.21952 1.54827 6.2512 1.52925 6.28793C1.51023 6.32466 1.5002 6.36538 1.5 6.40674V6.40999C1.5 6.44466 1.50758 6.47933 1.52167 6.51291L2.76642 9.33174C2.82167 9.45633 2.96358 9.51753 3.0925 9.47203C3.90717 9.1817 6.72871 8.26249 8.55413 8.75812C8.55413 8.75812 6.72275 8.86428 5.06688 10.1627C5.02155 10.1984 4.98939 10.2481 4.97547 10.3041C4.96154 10.3601 4.96664 10.4192 4.98996 10.472L5.54733 11.7319L5.76183 12.2351C5.81275 12.3542 5.97579 12.3689 6.04783 12.2605C6.43404 11.6788 7.08567 11.3879 7.71183 11.1339C8.35352 10.8726 9.02171 10.6819 9.70463 10.5651C10.4326 10.4411 11.1735 10.4107 11.9092 10.4747C11.9685 10.4801 12.0279 10.4651 12.0775 10.4321C12.1271 10.399 12.1638 10.35 12.1817 10.2932L12.7439 8.49649C12.7601 8.4446 12.7596 8.38895 12.7425 8.33736C12.7254 8.28576 12.6925 8.24083 12.6486 8.20887C12.0213 7.75495 9.53888 6.22962 5.1725 6.84224C5.1725 6.84224 8.89808 4.70212 13.6279 7.05349C13.6617 7.07024 13.6987 7.07946 13.7364 7.08052C13.7741 7.08158 13.8115 7.07444 13.8462 7.05961C13.8808 7.04478 13.9119 7.0226 13.9371 6.99461C13.9624 6.96662 13.9813 6.93349 13.9925 6.89749L14.4881 5.31312C14.4956 5.28908 14.4996 5.26409 14.5 5.23891V5.23133C14.4993 5.18605 14.4868 5.14175 14.4637 5.10279C14.4406 5.06384 14.4078 5.03159 14.3684 5.00924C13.7742 4.67341 11.7646 3.66699 8.99992 3.66699C6.88092 3.66699 4.31829 4.25741 1.60942 6.19549Z" fill="white"/>
</svg>