<svg xmlns="http://www.w3.org/2000/svg" width="16" height="16" viewBox="0 0 16 16" fill="none">
  <path d="M14 8.22147C13.8646 1.842 5.38103 -0.537609 2.11326 5.44254C2.2596 5.54996 2.45576 5.68969 2.6021 5.79127C2.36079 6.29568 2.19071 6.83279 2.09497 7.38429C2.0323 7.73925 2 8.09771 2 8.4585C2 11.7668 4.6898 14.455 8.00195 14.455C11.3164 14.455 14 11.771 14 8.4585V8.22147ZM3.47937 9.28984C3.40036 9.93865 3.45096 10.1395 3.45096 10.2181L3.30501 10.2691C3.25052 10.1632 3.11469 9.78647 3.05163 9.27933C2.89323 7.35004 4.21108 5.61263 6.21977 5.28414C8.05838 5.0148 9.82032 6.1579 10.2298 7.7552L10.0838 7.80619C10.0391 7.76143 9.96588 7.63183 9.68409 7.35004C7.46251 5.12806 3.97366 6.14545 3.47898 9.29179L3.47937 9.28984ZM9.1898 10.3703C8.8835 10.812 8.38064 11.0755 7.84587 11.0736C6.9398 11.0755 6.20615 10.3419 6.2081 9.4358C6.21004 8.58071 6.87286 7.86924 7.72639 7.80619C8.25532 7.78401 8.74961 8.06929 8.98119 8.53167C9.23456 9.03803 9.14115 9.65258 8.74611 10.0601C8.89751 10.1675 9.04385 10.2691 9.1898 10.3703ZM12.6035 10.4333C11.7379 12.3953 9.9542 13.4255 8.05293 13.3971C4.40179 13.2165 3.34004 9.00417 5.78036 7.48587L5.88778 7.59135C5.8473 7.64856 5.70096 7.76221 5.47639 8.2059C5.2129 8.74496 5.12766 9.28634 5.16191 9.623C5.35223 12.5658 9.47782 13.1683 10.8945 10.2531C12.7008 6.2661 7.90659 2.20941 3.65374 5.30904L3.55838 5.21369C4.67774 3.45876 6.86663 2.67607 8.95278 3.19916C12.1431 4.00365 13.8583 7.32786 12.6035 10.4333Z" fill="white"/>
</svg>