<svg xmlns="http://www.w3.org/2000/svg" width="16" height="16" viewBox="0 0 16 16" fill="none">
  <path d="M12.5286 7.5027C12.5166 7.41319 12.4896 7.18669 12.4461 6.96269C12.4144 6.79246 12.3718 6.62445 12.3186 6.45969L12.3161 6.45219C12.2959 6.39745 12.2706 6.34472 12.2406 6.29469C12.1998 6.2259 12.146 6.16576 12.0821 6.11768C11.9781 6.05157 11.86 6.01088 11.7373 5.99889C11.6147 5.9869 11.4909 6.00396 11.3761 6.04868C11.1753 6.1708 11.0231 6.35884 10.9456 6.58069C10.8266 6.81319 10.7081 7.04569 10.5746 7.26969C10.5002 7.40207 10.4035 7.5205 10.2886 7.6197C10.2336 7.66514 10.1716 7.70144 10.1051 7.7272C9.83805 7.8272 9.65005 7.6872 9.44455 7.52569C9.22555 7.35469 9.03255 7.15369 8.80755 6.98919C8.66853 6.87057 8.49751 6.79576 8.31604 6.77419C7.99754 6.77269 7.71854 7.08369 7.54404 7.31319C7.44654 7.44219 7.25553 7.7027 7.15653 7.8297C7.08828 7.91305 7.01228 7.98972 6.92953 8.0587C6.89931 8.085 6.86648 8.10812 6.83153 8.1277C6.75779 8.16843 6.67568 8.1917 6.59153 8.1957C6.43689 8.19573 6.2857 8.14998 6.15703 8.0642C6.10713 8.03679 6.05903 8.00623 6.01302 7.9727L5.99552 7.9592C5.95886 7.93382 5.91571 7.91942 5.87115 7.91769C5.82659 7.91596 5.78246 7.92698 5.74394 7.94944C5.70542 7.9719 5.6741 8.00489 5.65365 8.04452C5.63321 8.08415 5.62449 8.12879 5.62852 8.1732C5.62847 8.1964 5.63253 8.21942 5.64052 8.2412C5.64052 8.2427 5.64202 8.2437 5.64252 8.2452C5.65282 8.2716 5.66868 8.29547 5.68902 8.3152C5.99302 8.7637 6.42403 9.09021 6.84053 9.09721C6.9496 9.09977 7.05794 9.07862 7.15803 9.03521C7.48104 8.89271 7.72304 8.5837 7.99304 8.3682C8.10073 8.27207 8.23709 8.21408 8.38104 8.2032C8.495 8.20348 8.60569 8.24126 8.69604 8.3107C8.72886 8.33292 8.76041 8.35696 8.79055 8.3827C8.92155 8.50075 9.04544 8.62648 9.16155 8.7592C9.30256 8.91009 9.45286 9.05204 9.61155 9.18421C9.7755 9.32495 9.97278 9.42135 10.1846 9.46421C10.2076 9.46771 10.2301 9.46971 10.2526 9.47121C10.4329 9.47997 10.6105 9.42432 10.7536 9.31421C10.8913 9.21494 11.0164 9.09926 11.1261 8.96971C11.2105 8.86426 11.2878 8.75335 11.3576 8.6377C11.3926 8.5817 11.4291 8.5427 11.4576 8.4837C11.4599 8.64316 11.4491 8.80254 11.4251 8.96021C11.4037 9.17694 11.3683 9.39206 11.3191 9.60421C11.2984 9.68855 11.2759 9.77238 11.2516 9.85571C11.2129 9.98805 11.1692 10.119 11.1206 10.2487C11.1102 10.2807 11.0982 10.312 11.0846 10.3427L11.0831 10.3462C11.0537 10.4229 11.0217 10.4984 10.9871 10.5727C10.7074 11.1827 10.2584 11.6995 9.69348 12.0617C9.12855 12.4239 8.47148 12.6161 7.80043 12.6156C7.12939 12.6151 6.47261 12.4218 5.90826 12.0587C5.3439 11.6957 4.89571 11.1782 4.61701 10.5677C4.58168 10.4927 4.54918 10.4162 4.51951 10.3382L4.51751 10.3337C4.22872 9.61005 4.09831 8.83291 4.13505 8.05462C4.17179 7.27632 4.37483 6.51493 4.73051 5.82168C4.95756 5.39315 5.23176 4.99132 5.54802 4.62367C5.84419 4.23993 6.20491 3.91067 6.61403 3.65067C6.62903 3.64217 6.64253 3.63217 6.65703 3.62317C6.99652 3.40063 7.39361 3.28208 7.79954 3.28208C8.20547 3.28208 8.60256 3.40063 8.94205 3.62317L8.98505 3.65067C9.31155 3.88273 9.61242 4.1489 9.88255 4.44467L9.88355 4.44567L9.90955 4.47217C9.95312 4.51493 10.003 4.55069 10.0576 4.57817C10.1785 4.63618 10.3139 4.65712 10.4468 4.63835C10.5796 4.61958 10.7039 4.56193 10.8041 4.47267C10.9132 4.36432 10.9801 4.22058 10.9926 4.06731C11.0052 3.91405 10.9626 3.76133 10.8726 3.63667C10.8521 3.61167 10.8311 3.58666 10.8121 3.56166C10.7001 3.4268 10.5795 3.29936 10.4511 3.18016C10.1513 2.90961 9.82874 2.66537 9.48705 2.45016C9.4675 2.43813 9.44784 2.42629 9.42805 2.41466C8.95168 2.13785 8.40947 1.99465 7.85854 2.00015C7.32376 1.9965 6.79856 2.14212 6.34203 2.42066C6.32227 2.43207 6.30277 2.4439 6.28353 2.45616C5.72656 2.78763 5.22609 3.20589 4.80101 3.69517C4.79717 3.69948 4.79317 3.70365 4.78901 3.70767C3.64355 5.08474 3.01127 6.81653 3 8.6077C2.99974 9.18639 3.0599 9.76352 3.1795 10.3297C3.42176 11.3727 4.00977 12.303 4.84789 12.9694C5.686 13.6358 6.72492 13.999 7.79566 14C8.86641 14.001 9.906 13.6397 10.7453 12.9748C11.5847 12.31 12.1744 11.3807 12.4186 10.3382L12.4326 10.2732C12.433 10.2712 12.4334 10.2692 12.4336 10.2672L12.4436 10.2157C12.5177 9.84707 12.5655 9.47363 12.5866 9.09821C12.5952 8.94687 12.5996 8.79521 12.5996 8.6432C12.5997 8.26209 12.576 7.88084 12.5286 7.5027Z" fill="white"/>
</svg>