<svg xmlns="http://www.w3.org/2000/svg" width="16" height="16" viewBox="0 0 16 16" fill="none">
  <path d="M1.67747 12.257C0.569277 11.9391 0.385822 11.2842 0.888572 10.9037C1.25081 10.6657 1.6672 10.4584 2.10787 10.3025L2.14848 10.2899L5.42406 9.11541V10.4645L3.07602 11.3229C2.66477 11.4812 2.59475 11.6917 2.93645 11.8047C3.10683 11.8481 3.30196 11.8733 3.50315 11.8733C3.79024 11.8733 4.06518 11.8224 4.31959 11.7295L4.30326 11.7347L5.43386 11.3229V12.5329C5.36384 12.5502 5.28448 12.5586 5.20652 12.5754C4.84475 12.6389 4.42836 12.6753 4.00357 12.6753C3.17359 12.6753 2.37628 12.5362 1.63313 12.2804L1.68448 12.2958L1.67747 12.257ZM8.58013 12.3952L12.253 11.0681C12.6698 10.9177 12.7347 10.7035 12.3963 10.591C12.2268 10.5494 12.0326 10.5256 11.8324 10.5256C11.542 10.5256 11.2629 10.576 11.0043 10.668L11.0215 10.6629L8.56846 11.5377V10.1452L8.7085 10.0957C9.19865 9.93279 9.77469 9.80628 10.3689 9.74046L10.4077 9.73673C10.6261 9.71339 10.8791 9.70032 11.1354 9.70032C12.0116 9.70032 12.8519 9.85483 13.6296 10.1386L13.5792 10.1223C14.657 10.4729 14.769 10.9808 14.4983 11.3309C14.2373 11.5909 13.9218 11.7967 13.5703 11.9293L13.5521 11.9354L8.56799 13.748V12.4087L8.58013 12.3952ZM5.86425 2.9209V13.1565L8.14787 13.8922V5.30768C8.14787 4.90529 8.32525 4.63641 8.61094 4.72977C8.98205 4.8348 9.0544 5.20451 9.0544 5.60783V9.03512C10.4782 9.73113 11.599 9.03372 11.599 7.19637C11.599 5.30814 10.9422 4.46929 9.01006 3.79709C8.17681 3.4946 7.12416 3.19305 6.04724 2.95451L5.86565 2.9209H5.86425Z" fill="white"/>
</svg>