<svg width="807" height="1323" viewBox="0 0 807 1323" fill="none" xmlns="http://www.w3.org/2000/svg">
<mask id="mask0_20220_12416" style="mask-type:alpha" maskUnits="userSpaceOnUse" x="0" y="0" width="807" height="1323">
<rect width="807" height="1323" fill="#D9D9D9"/>
</mask>
<g mask="url(#mask0_20220_12416)">
<g filter="url(#filter0_d_20220_12416)">
<path d="M789 727.339L-84.9966 981.522M789 924.477L464.714 1301.24M789 990.177L574.786 1301.24M789 1055.88L648.19 1301.24M789 858.757L281.273 1301.24M789 1121.6L700.636 1301.24M789 1253.02L770.564 1301.24M789 1187.32L739.962 1301.24M789 201.658L700.465 21.7747M789 661.614L-84.9966 662.069M789 135.938L739.859 21.7741M789 70.2267L770.461 21.7637M789 267.352L647.985 21.7674M789 333.078L574.513 21.7732M789 464.494L280.421 21.7691M789 398.771L464.237 21.7658M789 595.908L-84.9966 342.597M789 793.05L-84.9966 1300.98M789 530.218L-84.9966 23.1394M-85.0005 23.1308V1300.98M669.726 21.7693V1301.24M749.737 21.7693V1301.24M733.422 21.7693V1301.24M714.978 21.7693V1301.24M777.27 21.7693V1301.24M764.258 21.7693V1301.24M146.391 21.7693V1301.24M641.611 21.7693V1301.24M693.92 21.7693V1301.24M789 21.7694V1301.24M608.495 21.7693V1301.24M568.932 21.7693V1301.24M284.683 21.7693V1301.24M520.8 21.7693V1301.24M461.106 21.7693V1301.24M385.009 21.7693V1301.24" stroke="#1C1C1C" stroke-width="2" stroke-linecap="round"/>
</g>
<rect width="1323" height="571" transform="matrix(0 -1 -1 0 807 1323)" fill="url(#paint0_linear_20220_12416)"/>
<rect x="-0.00012207" y="1323" width="1323" height="138" transform="matrix(0 -1 1 0 -1323 1323)" fill="url(#paint1_linear_20220_12416)"/>
</g>
<defs>
<filter id="filter0_d_20220_12416" x="-94.0005" y="12.7634" width="892.001" height="1297.48" filterUnits="userSpaceOnUse" color-interpolation-filters="sRGB">
<feFlood flood-opacity="0" result="BackgroundImageFix"/>
<feColorMatrix in="SourceAlpha" type="matrix" values="0 0 0 0 0 0 0 0 0 0 0 0 0 0 0 0 0 0 127 0" result="hardAlpha"/>
<feOffset/>
<feGaussianBlur stdDeviation="4"/>
<feColorMatrix type="matrix" values="0 0 0 0 0.109804 0 0 0 0 0.109804 0 0 0 0 0.109804 0 0 0 1 0"/>
<feBlend mode="normal" in2="BackgroundImageFix" result="effect1_dropShadow_20220_12416"/>
<feBlend mode="normal" in="SourceGraphic" in2="effect1_dropShadow_20220_12416" result="shape"/>
</filter>
<linearGradient id="paint0_linear_20220_12416" x1="661.5" y1="10.4963" x2="661.5" y2="482.411" gradientUnits="userSpaceOnUse">
<stop stop-color="#0F1012"/>
<stop offset="1" stop-color="#0F1012" stop-opacity="0"/>
</linearGradient>
<linearGradient id="paint1_linear_20220_12416" x1="661.5" y1="1345.9" x2="661.5" y2="1439.59" gradientUnits="userSpaceOnUse">
<stop stop-color="#0F1012"/>
<stop offset="1" stop-color="#0F1012" stop-opacity="0"/>
</linearGradient>
</defs>
</svg>
