<svg width="1692" height="325" viewBox="0 0 1692 325" fill="none" xmlns="http://www.w3.org/2000/svg">
<path d="M163.601 325L0 162.213L163.024 0L163.601 0.575466V50.3022L77.0563 162.217L163.601 274.133L275.837 162.455V213.325L163.601 325Z" fill="white"/>
<path fill-rule="evenodd" clip-rule="evenodd" d="M182.718 19.6495V124.197L235.253 71.9229L182.718 19.6495ZM222.226 71.9229L190.969 103.025V40.8211L222.226 71.9229Z" fill="white"/>
<path d="M182.648 162.227L216.081 195.494L249.515 162.227H182.648Z" fill="white"/>
<path d="M1545.55 87.1642L1517.34 232.151H1549.08L1564.22 153.858L1593.88 232.151H1615.46L1645.12 153.858L1660.26 232.151H1692L1663.79 87.1642H1637.24L1604.67 172.707L1572.1 87.1642H1545.55Z" fill="white"/>
<path fill-rule="evenodd" clip-rule="evenodd" d="M1434.46 234.841C1424.65 234.841 1415.42 232.908 1406.77 229.041C1398.13 225.106 1390.52 219.686 1383.95 212.782C1377.39 205.878 1372.23 197.903 1368.5 188.859C1364.77 179.746 1362.9 170.011 1362.9 159.655C1362.9 149.298 1364.77 139.598 1368.5 130.554C1372.23 121.44 1377.39 113.431 1383.95 106.527C1390.52 99.623 1398.13 94.2377 1406.77 90.3714C1415.42 86.4361 1424.65 84.4684 1434.46 84.4684C1444.35 84.4684 1453.62 86.4361 1462.26 90.3714C1470.9 94.2377 1478.51 99.623 1485.08 106.527C1491.65 113.431 1496.76 121.44 1500.43 130.554C1504.16 139.598 1506.03 149.298 1506.03 159.655C1506.03 170.011 1504.16 179.746 1500.43 188.859C1496.76 197.903 1491.65 205.878 1485.08 212.782C1478.51 219.686 1470.9 225.106 1462.26 229.041C1453.62 232.908 1444.35 234.841 1434.46 234.841ZM1434.46 203.772C1440 203.772 1445.18 202.633 1450.02 200.354C1454.93 198.007 1459.25 194.831 1462.99 190.827C1466.72 186.753 1469.62 182.058 1471.7 176.742C1473.84 171.426 1474.91 165.73 1474.91 159.655C1474.91 153.579 1473.84 147.883 1471.7 142.567C1469.62 137.251 1466.72 132.59 1462.99 128.586C1459.25 124.512 1454.93 121.337 1450.02 119.058C1445.18 116.711 1440 115.537 1434.46 115.537C1428.93 115.537 1423.71 116.711 1418.8 119.058C1413.96 121.337 1409.68 124.512 1405.94 128.586C1402.21 132.59 1399.27 137.251 1397.13 142.567C1395.05 147.883 1394.01 153.579 1394.01 159.655C1394.01 165.73 1395.05 171.426 1397.13 176.742C1399.27 182.058 1402.21 186.753 1405.94 190.827C1409.68 194.831 1413.96 198.007 1418.8 200.354C1423.71 202.633 1428.93 203.772 1434.46 203.772Z" fill="white"/>
<path fill-rule="evenodd" clip-rule="evenodd" d="M1249.38 229.041C1258.02 232.908 1267.26 234.841 1277.07 234.841C1286.96 234.841 1296.23 232.908 1304.87 229.041C1313.51 225.106 1321.12 219.686 1327.69 212.782C1334.26 205.878 1339.37 197.903 1343.04 188.859C1346.77 179.746 1348.64 170.011 1348.64 159.655C1348.64 149.298 1346.77 139.598 1343.04 130.554C1339.37 121.44 1334.26 113.431 1327.69 106.527C1321.12 99.623 1313.51 94.2377 1304.87 90.3714C1296.23 86.4361 1286.96 84.4684 1277.07 84.4684C1267.26 84.4684 1258.02 86.4361 1249.38 90.3714C1240.74 94.2377 1233.13 99.623 1226.56 106.527C1219.99 113.431 1214.84 121.44 1211.11 130.554C1207.38 139.598 1205.51 149.298 1205.51 159.655C1205.51 170.011 1207.38 179.746 1211.11 188.859C1214.84 197.903 1219.99 205.878 1226.56 212.782C1233.13 219.686 1240.74 225.106 1249.38 229.041ZM1292.63 200.354C1287.79 202.633 1282.61 203.772 1277.07 203.772C1271.54 203.772 1266.32 202.633 1261.41 200.354C1256.57 198.007 1252.29 194.831 1248.55 190.827C1244.82 186.753 1241.88 182.058 1239.74 176.742C1237.66 171.426 1236.62 165.73 1236.62 159.655C1236.62 153.579 1237.66 147.883 1239.74 142.567C1241.88 137.251 1244.82 132.59 1248.55 128.586C1252.29 124.512 1256.57 121.337 1261.41 119.058C1266.32 116.711 1271.54 115.537 1277.07 115.537C1282.61 115.537 1287.79 116.711 1292.63 119.058C1297.54 121.337 1301.86 124.512 1305.6 128.586C1309.33 132.59 1312.23 137.251 1314.31 142.567C1316.45 147.883 1317.52 153.579 1317.52 159.655C1317.52 165.73 1316.45 171.426 1314.31 176.742C1312.23 182.058 1309.33 186.753 1305.6 190.827C1301.86 194.831 1297.54 198.007 1292.63 200.354Z" fill="white"/>
<path fill-rule="evenodd" clip-rule="evenodd" d="M1090.92 232.151V87.1642H1145.89C1153.84 87.1642 1161.04 88.8212 1167.47 92.1352C1173.9 95.3801 1178.98 100.006 1182.71 106.012C1186.52 112.019 1188.42 119.061 1188.42 127.139C1188.42 130.177 1188.04 133.387 1187.28 136.77C1186.52 140.084 1185.17 143.191 1183.23 146.091C1181.29 148.991 1178.53 151.269 1174.93 152.926C1179.57 154.031 1183.23 156.102 1185.93 159.14C1188.62 162.178 1190.63 165.699 1191.94 169.703C1193.33 173.639 1194.22 177.643 1194.64 181.716C1195.05 185.721 1195.26 189.346 1195.26 192.59C1195.26 199.909 1193.29 206.571 1189.35 212.578C1185.41 218.516 1180.12 223.279 1173.48 226.87C1166.84 230.391 1159.51 232.151 1151.49 232.151H1090.92ZM1122.04 205.846H1148.17C1151.77 205.846 1155.02 205.018 1157.92 203.361C1160.9 201.635 1163.25 199.287 1164.98 196.319C1166.77 193.35 1167.67 189.967 1167.67 186.17C1167.67 182.994 1166.77 179.99 1164.98 177.16C1163.25 174.26 1160.9 171.913 1157.92 170.117C1155.02 168.322 1151.77 167.425 1148.17 167.425H1122.04V205.846ZM1122.04 141.534H1142.16C1146.31 141.534 1149.87 140.153 1152.84 137.392C1155.82 134.63 1157.3 131.144 1157.3 126.932C1157.3 122.651 1155.82 119.372 1152.84 117.094C1149.87 114.815 1146.31 113.676 1142.16 113.676H1122.04V141.534Z" fill="white"/>
<path fill-rule="evenodd" clip-rule="evenodd" d="M963.7 87.1642V232.151H994.816V175.813H1005.6L1038.38 232.151H1074.26L1039.83 172.914C1045.01 170.428 1049.51 167.149 1053.31 163.075C1057.18 158.933 1060.16 154.203 1062.23 148.887C1064.31 143.502 1065.34 137.703 1065.34 131.489C1065.34 123.411 1063.44 116.023 1059.64 109.326C1055.91 102.56 1050.82 97.1752 1044.39 93.1708C1037.96 89.1664 1030.77 87.1642 1022.82 87.1642H963.7ZM1019.09 144.745H994.816V113.676H1019.09C1021.85 113.676 1024.38 114.401 1026.66 115.851C1028.94 117.232 1030.77 119.096 1032.15 121.443C1033.54 123.791 1034.23 126.38 1034.23 129.21C1034.23 132.041 1033.54 134.63 1032.15 136.978C1030.77 139.325 1028.94 141.224 1026.66 142.674C1024.38 144.054 1021.85 144.745 1019.09 144.745Z" fill="white"/>
<path d="M848.431 232.151V87.1642H940.947V118.233H879.547V138.945H926.842V170.014H879.547V201.083H940.947V232.151H848.431Z" fill="white"/>
<path d="M681.367 87.1642L653.156 232.151H684.894L700.036 153.858L729.7 232.151H751.273L780.936 153.858L796.079 232.151H827.816L799.605 87.1642H773.054L740.486 172.707L707.919 87.1642H681.367Z" fill="white"/>
<path fill-rule="evenodd" clip-rule="evenodd" d="M553.037 87.1642H588.094L640.782 232.151H607.8L599.502 209.368H541.628L533.331 232.151H500.349L553.037 87.1642ZM553.037 178.299H588.094L570.461 130.246L553.037 178.299Z" fill="white"/>
<path d="M396.321 228.934C405.033 232.87 414.471 234.837 424.636 234.837C434.938 234.837 444.515 232.766 453.365 228.624C462.216 224.481 469.926 218.751 476.494 211.432C483.063 204.114 488.076 195.691 491.533 186.163C495.06 176.566 496.546 166.348 495.993 155.509H439.778V182.435H459.277C457.134 186.094 454.748 189.27 452.121 191.963C449.493 194.655 446.693 196.864 443.72 198.591C440.746 200.317 437.669 201.628 434.489 202.526C431.377 203.354 428.231 203.769 425.05 203.769C419.45 203.769 414.195 202.664 409.285 200.455C404.376 198.176 400.055 195.069 396.321 191.134C392.587 187.13 389.648 182.469 387.505 177.153C385.43 171.837 384.393 166.141 384.393 160.065C384.393 153.437 385.5 147.396 387.712 141.942C389.994 136.488 393.036 131.793 396.839 127.858C400.642 123.922 404.964 120.884 409.804 118.744C414.644 116.604 419.657 115.534 424.843 115.534C429.96 115.534 435.007 116.673 439.986 118.951C445.033 121.161 449.666 124.647 453.884 129.411L481.68 114.498C473.798 104.004 464.947 96.4092 455.129 91.7143C445.31 87.0195 435.353 84.6721 425.258 84.6721C416.062 84.6721 407.142 86.4672 398.499 90.0574C389.925 93.6475 382.215 98.7911 375.37 105.488C368.594 112.116 363.2 119.987 359.19 129.1C355.249 138.214 353.278 148.328 353.278 159.444C353.278 169.731 355.076 179.432 358.671 188.545C362.267 197.658 367.28 205.702 373.71 212.675C380.141 219.579 387.678 224.999 396.321 228.934Z" fill="white"/>
</svg>
