<svg xmlns="http://www.w3.org/2000/svg" width="50" height="42" viewBox="0 0 50 42" fill="none">
    <g filter="url(#filter0_d_20009_1828)">
      <path
        d="M33.4891 13.4793C31.8712 12.7946 30.1362 12.2901 28.3222 12.0012C28.2892 11.9956 28.2561 12.0096 28.2391 12.0374C28.016 12.4035 27.7689 12.881 27.5958 13.2564C25.6447 12.9869 23.7035 12.9869 21.7924 13.2564C21.6193 12.8727 21.3632 12.4035 21.1391 12.0374C21.1221 12.0105 21.089 11.9966 21.056 12.0012C19.243 12.2892 17.508 12.7937 15.8891 13.4793C15.8751 13.4849 15.8631 13.4942 15.855 13.5063C12.5642 18.041 11.6626 22.4643 12.1049 26.8327C12.1069 26.8541 12.1199 26.8746 12.1379 26.8876C14.3092 28.3583 16.4124 29.2511 18.4766 29.8429C18.5096 29.8522 18.5446 29.841 18.5656 29.816C19.0539 29.2009 19.4891 28.5524 19.8623 27.8705C19.8844 27.8306 19.8633 27.7832 19.8183 27.7674C19.1279 27.5258 18.4705 27.2313 17.8382 26.8969C17.7882 26.8699 17.7842 26.8039 17.8302 26.7724C17.9633 26.6804 18.0963 26.5847 18.2234 26.4881C18.2464 26.4704 18.2784 26.4667 18.3055 26.4778C22.4598 28.2273 26.9574 28.2273 31.0628 26.4778C31.0898 26.4658 31.1218 26.4695 31.1458 26.4871C31.2729 26.5838 31.406 26.6804 31.54 26.7724C31.5861 26.8039 31.5831 26.8699 31.533 26.8969C30.9007 27.2378 30.2433 27.5258 29.5519 27.7665C29.5069 27.7822 29.4869 27.8306 29.5089 27.8705C29.8901 28.5515 30.3253 29.2 30.8046 29.815C30.8246 29.841 30.8606 29.8522 30.8937 29.8429C32.9678 29.2511 35.071 28.3583 37.2423 26.8876C37.2613 26.8746 37.2733 26.855 37.2753 26.8337C37.8046 21.7833 36.3888 17.3963 33.5222 13.5072C33.5152 13.4942 33.5032 13.4849 33.4891 13.4793ZM20.4827 24.1728C19.232 24.1728 18.2014 23.1137 18.2014 21.813C18.2014 20.5123 19.212 19.4532 20.4827 19.4532C21.7634 19.4532 22.784 20.5216 22.764 21.813C22.764 23.1137 21.7534 24.1728 20.4827 24.1728ZM28.9175 24.1728C27.6668 24.1728 26.6362 23.1137 26.6362 21.813C26.6362 20.5123 27.6468 19.4532 28.9175 19.4532C30.1983 19.4532 31.2188 20.5216 31.1988 21.813C31.1988 23.1137 30.1983 24.1728 28.9175 24.1728Z"
        fill="#FFFFFF"
      />
    </g>
    <defs>
      <filter
        id="filter0_d_20009_1828"
        x="0"
        y="0"
        width="49.3846"
        height="41.8462"
        filterUnits="userSpaceOnUse"
        color-interpolation-filters="sRGB"
      >
        <feFlood flood-opacity="0" result="BackgroundImageFix" />
        <feColorMatrix
          in="SourceAlpha"
          type="matrix"
          values="0 0 0 0 0 0 0 0 0 0 0 0 0 0 0 0 0 0 127 0"
          result="hardAlpha"
        />
        <feOffset />
        <feGaussianBlur stdDeviation="6" />
        <feComposite in2="hardAlpha" operator="out" />
        <feColorMatrix type="matrix" values="0 0 0 0 1 0 0 0 0 1 0 0 0 0 1 0 0 0 0.5 0" />
        <feBlend mode="normal" in2="BackgroundImageFix" result="effect1_dropShadow_20009_1828" />
        <feBlend
          mode="normal"
          in="SourceGraphic"
          in2="effect1_dropShadow_20009_1828"
          result="shape"
        />
      </filter>
    </defs>
  </svg>