<svg xmlns="http://www.w3.org/2000/svg" width="27" height="18" viewBox="0 0 27 18" fill="none">
  <path d="M22.2543 1.55601C20.6364 0.87129 18.9014 0.36681 17.0873 0.0778714C17.0543 0.0722971 17.0213 0.086233 17.0043 0.114105C16.7811 0.480155 16.534 0.957693 16.3609 1.33303C14.4098 1.06361 12.4687 1.06361 10.5576 1.33303C10.3845 0.949331 10.1283 0.480155 9.90421 0.114105C9.8872 0.0871621 9.85418 0.0732261 9.82116 0.0778714C8.00813 0.36588 6.27313 0.870361 4.65421 1.55601C4.6402 1.56158 4.62819 1.57087 4.62019 1.58295C1.3293 6.1177 0.427786 10.541 0.870039 14.9094C0.87204 14.9308 0.885047 14.9512 0.903058 14.9642C3.0743 16.4349 5.17751 17.3278 7.24169 17.9196C7.27471 17.9289 7.30973 17.9177 7.33074 17.8926C7.81902 17.2776 8.25427 16.6291 8.62748 15.9472C8.64949 15.9072 8.62848 15.8598 8.58345 15.844C7.89306 15.6025 7.23568 15.308 6.60332 14.9735C6.55329 14.9466 6.54929 14.8806 6.59532 14.849C6.72839 14.757 6.86147 14.6613 6.98854 14.5647C7.01155 14.5471 7.04357 14.5434 7.07059 14.5545C11.225 16.3039 15.7225 16.3039 19.8279 14.5545C19.8549 14.5424 19.8869 14.5461 19.9109 14.5638C20.038 14.6604 20.1711 14.757 20.3052 14.849C20.3512 14.8806 20.3482 14.9466 20.2982 14.9735C19.6658 15.3145 19.0084 15.6025 18.317 15.8431C18.272 15.8589 18.252 15.9072 18.274 15.9472C18.6552 16.6282 19.0905 17.2767 19.5697 17.8917C19.5898 17.9177 19.6258 17.9289 19.6588 17.9196C21.733 17.3278 23.8362 16.4349 26.0074 14.9642C26.0264 14.9512 26.0384 14.9317 26.0404 14.9103C26.5698 9.85996 25.1539 5.47293 22.2873 1.58388C22.2803 1.57087 22.2683 1.56158 22.2543 1.55601ZM9.24784 12.2495C7.99712 12.2495 6.96653 11.1904 6.96653 9.88969C6.96653 8.589 7.97711 7.52987 9.24784 7.52987C10.5286 7.52987 11.5492 8.59829 11.5291 9.88969C11.5291 11.1904 10.5186 12.2495 9.24784 12.2495ZM17.6827 12.2495C16.4319 12.2495 15.4014 11.1904 15.4014 9.88969C15.4014 8.589 16.4119 7.52987 17.6827 7.52987C18.9634 7.52987 19.984 8.59829 19.964 9.88969C19.964 11.1904 18.9634 12.2495 17.6827 12.2495Z" fill="currentColor"/>
</svg>